<?xml version="1.0" encoding="utf-8"?>
<!-- Generator: Adobe Illustrator 15.0.0, SVG Export Plug-In . SVG Version: 6.00 Build 0)  -->
<!DOCTYPE svg PUBLIC "-//W3C//DTD SVG 1.1//EN" "http://www.w3.org/Graphics/SVG/1.1/DTD/svg11.dtd">
<svg version="1.1" id="Laag_1" xmlns="http://www.w3.org/2000/svg" xmlns:xlink="http://www.w3.org/1999/xlink" x="0px" y="0px"
	 width="128px" height="128px" viewBox="0 0 128 128" enable-background="new 0 0 128 128" xml:space="preserve">
<g>
	<path d="M127.757,60.36L114.824,47.43v7.502h-10.286V20.5H24.817v79.721h79.721V65.79h10.286v7.502L127.757,60.36z M43.983,91.149
		h-9.001v-9.002h9.001V91.149z M43.983,77.934h-9.001v-9.001h9.001V77.934z M43.983,64.718h-9.001v-9h9.001V64.718z M43.983,52.073
		h-9.001v-9h9.001V52.073z M43.983,39.43h-9.001v-9h9.001V39.43z M56.698,91.149h-9v-9.002h9V91.149z M56.698,77.934h-9v-9.001h9
		V77.934z M56.698,64.718h-9v-9h9V64.718z M56.698,52.073h-9v-9h9V52.073z M56.698,39.43h-9v-9h9V39.43z M69.413,91.149h-9v-9.002h9
		V91.149z M69.413,77.934h-9v-9.001h9V77.934z M69.413,64.718h-9v-9h9V64.718z M69.413,52.073h-9v-9h9V52.073z M69.413,39.43h-9v-9
		h9V39.43z M82.128,91.149h-9v-9.002h9V91.149z M82.128,77.934h-9v-9.001h9V77.934z M82.128,64.718h-9v-9h9V64.718z M82.128,52.073
		h-9v-9h9V52.073z M82.128,39.43h-9v-9h9V39.43z M94.843,91.149h-9v-9.002h9V91.149z M94.843,77.934h-9v-9.001h9V77.934z
		 M94.843,64.718h-9v-9h9V64.718z M94.843,52.073h-9v-9h9V52.073z M94.843,39.43h-9v-9h9V39.43z"/>
	<polygon points="11.816,54.932 0.243,54.932 0.243,65.79 11.816,65.79 11.816,73.292 24.747,60.36 11.816,47.43 	"/>
</g>
</svg>
