<?xml version="1.0" encoding="utf-8"?>
<!-- Generator: Adobe Illustrator 15.0.0, SVG Export Plug-In . SVG Version: 6.00 Build 0)  -->
<!DOCTYPE svg PUBLIC "-//W3C//DTD SVG 1.1//EN" "http://www.w3.org/Graphics/SVG/1.1/DTD/svg11.dtd">
<svg version="1.1" id="Laag_1" xmlns="http://www.w3.org/2000/svg" xmlns:xlink="http://www.w3.org/1999/xlink" x="0px" y="0px"
	 width="128px" height="128px" viewBox="0 0 128 128" enable-background="new 0 0 128 128" xml:space="preserve">
<path d="M127.584,62.749l-15.095-15.095v8.757H93.477V16.218H0.416v93.062h93.061V69.087h19.014v8.758L127.584,62.749z
	 M72.439,33.73l4.881-4.881c0.844-0.843,2.212-0.843,3.056,0c0.843,0.844,0.843,2.211,0,3.055l-4.882,4.882
	c-0.422,0.42-0.975,0.631-1.527,0.631c-0.552,0-1.105-0.211-1.527-0.631C71.598,35.941,71.598,34.574,72.439,33.73z M62.928,24.536
	c0-1.193,0.967-2.16,2.159-2.16s2.16,0.967,2.159,2.16v6.903c0,1.192-0.967,2.16-2.159,2.16s-2.159-0.968-2.159-2.16V24.536
	L62.928,24.536z M49.699,28.611c0.844-0.844,2.211-0.844,3.054,0l4.882,4.882c0.844,0.844,0.844,2.211,0,3.053
	c-0.422,0.422-0.975,0.634-1.527,0.634s-1.105-0.212-1.527-0.634l-4.881-4.881C48.855,30.821,48.855,29.454,49.699,28.611z
	 M57.396,54.406l-4.881,4.882c-0.422,0.422-0.975,0.631-1.526,0.631s-1.105-0.209-1.527-0.631c-0.843-0.844-0.843-2.211,0-3.055
	l4.882-4.88c0.844-0.845,2.211-0.845,3.055,0C58.24,52.195,58.24,53.563,57.396,54.406z M45.387,41.74h6.903
	c1.192,0,2.16,0.968,2.16,2.16c0,1.193-0.968,2.16-2.16,2.16h-6.903c-1.193,0-2.16-0.967-2.16-2.16
	C43.227,42.708,44.193,41.74,45.387,41.74z M54.997,82.411l-16.955,0.221l-0.476-21.551L54.997,82.411z M33.383,48.749l1.321,36.332
	l-25.103-0.22L33.383,48.749z M61.678,103.907l-48.992,0.109L5.418,90.806h61.874L61.678,103.907z M62.59,63.601v-6.903
	c0-1.192,0.967-2.159,2.16-2.159s2.16,0.967,2.16,2.159l-0.001,6.904c0,1.192-0.968,2.159-2.159,2.159
	C63.557,65.761,62.59,64.794,62.59,63.601z M64.443,51.247c-3.688,0-6.68-2.99-6.68-6.679s2.99-6.679,6.68-6.679
	c3.688,0,6.679,2.99,6.679,6.679S68.132,51.247,64.443,51.247z M80.139,59.526c-0.423,0.421-0.976,0.633-1.527,0.633
	c-0.553,0-1.105-0.212-1.527-0.633l-4.881-4.882c-0.844-0.845-0.844-2.211,0-3.056c0.843-0.842,2.211-0.842,3.055,0l4.881,4.883
	C80.98,57.315,80.98,58.683,80.139,59.526z M84.45,46.396h-6.903c-1.191,0-2.16-0.967-2.16-2.16c0-1.192,0.969-2.159,2.16-2.159
	h6.903c1.192,0,2.159,0.967,2.159,2.159C86.609,45.43,85.645,46.396,84.45,46.396z"/>
</svg>
