<?xml version="1.0" encoding="utf-8"?>
<!-- Generator: Adobe Illustrator 15.0.0, SVG Export Plug-In . SVG Version: 6.00 Build 0)  -->
<svg version="1.2" baseProfile="tiny" id="Laag_1" xmlns="http://www.w3.org/2000/svg" xmlns:xlink="http://www.w3.org/1999/xlink"
	 x="0px" y="0px" width="128px" height="128px" viewBox="142.084 86.811 128 128" overflow="inherit" xml:space="preserve">
<path d="M269.668,150.811l-15.095-15.095v8.757h-19.013V104.28H142.5v93.061h93.061v-40.192h19.013v8.757L269.668,150.811z
	 M214.523,121.792l4.882-4.881c0.843-0.843,2.211-0.843,3.055,0c0.843,0.844,0.843,2.211,0,3.055l-4.882,4.881
	c-0.422,0.421-0.975,0.632-1.527,0.632s-1.105-0.211-1.527-0.632C213.681,124.003,213.681,122.636,214.523,121.792z
	 M205.011,112.598c0-1.193,0.967-2.16,2.16-2.16c1.193,0,2.16,0.967,2.159,2.16v6.903c0,1.193-0.967,2.16-2.159,2.16
	c-1.193,0-2.16-0.967-2.16-2.16V112.598L205.011,112.598z M191.783,116.673c0.844-0.844,2.211-0.844,3.054,0l4.882,4.881
	c0.844,0.844,0.844,2.211,0,3.054c-0.422,0.421-0.975,0.633-1.528,0.633c-0.553,0-1.105-0.211-1.527-0.633l-4.881-4.881
	C190.94,118.883,190.94,117.516,191.783,116.673z M199.481,142.468l-4.881,4.881c-0.422,0.422-0.975,0.632-1.527,0.632
	s-1.105-0.21-1.527-0.632c-0.843-0.843-0.843-2.211,0-3.054l4.881-4.88c0.844-0.844,2.211-0.844,3.055,0
	C200.324,140.257,200.324,141.625,199.481,142.468z M187.47,129.802h6.904c1.192,0,2.16,0.967,2.16,2.16s-0.967,2.16-2.16,2.16
	h-6.904c-1.193,0-2.16-0.967-2.16-2.16C185.311,130.769,186.277,129.802,187.47,129.802z M197.081,170.473l-16.955,0.22
	l-0.475-21.551L197.081,170.473z M175.467,136.811l1.321,36.332l-25.102-0.22L175.467,136.811z M203.762,191.969l-48.993,0.109
	l-7.267-13.211h61.874L203.762,191.969z M204.674,151.662v-6.903c0-1.192,0.967-2.16,2.16-2.16c1.193,0,2.16,0.967,2.16,2.16
	l-0.001,6.904c0,1.193-0.967,2.159-2.159,2.159C205.641,153.822,204.674,152.855,204.674,151.662z M206.527,139.309
	c-3.688,0-6.679-2.99-6.679-6.679c0-3.688,2.99-6.679,6.679-6.679c3.689,0,6.679,2.991,6.679,6.679
	C213.206,136.319,210.216,139.309,206.527,139.309z M222.222,147.588c-0.422,0.421-0.975,0.632-1.527,0.632
	c-0.552,0-1.105-0.211-1.527-0.632l-4.881-4.882c-0.843-0.844-0.843-2.211,0-3.055c0.843-0.843,2.211-0.843,3.055,0l4.881,4.882
	C223.065,145.377,223.065,146.744,222.222,147.588z M226.534,134.458h-6.903c-1.192,0-2.16-0.967-2.16-2.16s0.968-2.159,2.16-2.159
	l6.903,0c1.193,0,2.16,0.966,2.16,2.159S227.728,134.458,226.534,134.458z"/>
</svg>
