<?xml version="1.0" encoding="utf-8"?>
<!-- Generator: Adobe Illustrator 15.0.0, SVG Export Plug-In . SVG Version: 6.00 Build 0)  -->
<svg version="1.2" baseProfile="tiny" id="Laag_1" xmlns="http://www.w3.org/2000/svg" xmlns:xlink="http://www.w3.org/1999/xlink"
	 x="0px" y="0px" width="128px" height="128px" viewBox="177.22 86.811 128 128" overflow="inherit" xml:space="preserve">
<g>
	<path d="M304.976,150.811l-12.932-12.931v7.502h-10.286V110.95h-79.721v79.721h79.721V156.24h10.286v7.502L304.976,150.811z
		 M221.203,181.599h-9.001v-9.001h9.001V181.599z M221.203,168.384h-9.001v-9.001h9.001V168.384z M221.203,155.168h-9.001v-9h9.001
		V155.168z M221.203,142.524h-9.001v-9h9.001V142.524z M221.203,129.88h-9.001v-9h9.001V129.88z M233.918,181.599h-9v-9.001h9
		V181.599z M233.918,168.384h-9v-9.001h9V168.384z M233.918,155.168h-9v-9h9V155.168z M233.918,142.524h-9v-9h9V142.524z
		 M233.918,129.88h-9v-9h9V129.88z M246.633,181.599h-9v-9.001h9V181.599z M246.633,168.384h-9v-9.001h9V168.384z M246.633,155.168
		h-9v-9h9V155.168z M246.633,142.524h-9v-9h9V142.524z M246.633,129.88h-9v-9h9V129.88z M259.348,181.599h-9v-9.001h9V181.599z
		 M259.348,168.384h-9v-9.001h9V168.384z M259.348,155.168h-9v-9h9V155.168z M259.348,142.524h-9v-9h9V142.524z M259.348,129.88h-9
		v-9h9V129.88z M272.063,181.599h-9.001v-9.001h9.001V181.599z M272.063,168.384h-9.001v-9.001h9.001V168.384z M272.063,155.168
		h-9.001v-9h9.001V155.168z M272.063,142.524h-9.001v-9h9.001V142.524z M272.063,129.88h-9.001v-9h9.001V129.88z"/>
	<polygon points="189.036,145.382 177.463,145.382 177.463,156.24 189.036,156.24 189.036,163.742 201.967,150.811 189.036,137.88 	
		"/>
</g>
</svg>
