<?xml version="1.0" encoding="utf-8"?>
<!-- Generator: Adobe Illustrator 15.0.2, SVG Export Plug-In . SVG Version: 6.00 Build 0)  -->
<!DOCTYPE svg PUBLIC "-//W3C//DTD SVG 1.1//EN" "http://www.w3.org/Graphics/SVG/1.1/DTD/svg11.dtd">
<svg version="1.1" id="Laag_1" xmlns="http://www.w3.org/2000/svg" xmlns:xlink="http://www.w3.org/1999/xlink" x="0px" y="0px"
	 width="49.947px" height="49.947px" viewBox="0 0 49.947 49.947" enable-background="new 0 0 49.947 49.947" xml:space="preserve">
<g>
	<path d="M34.952,35.239c0,0.246-0.088,0.439-0.264,0.58s-0.453,0.241-0.83,0.304c-0.379,0.061-0.937,0.092-1.675,0.092
		c-0.791,0-1.367-0.031-1.728-0.092c-0.36-0.062-0.615-0.163-0.764-0.304c-0.15-0.141-0.225-0.334-0.225-0.58v-1.872
		c-0.967,1.037-2.07,1.846-3.309,2.426c-1.24,0.58-2.615,0.87-4.127,0.87c-1.248,0-2.396-0.163-3.441-0.487
		c-1.046-0.325-1.951-0.809-2.715-1.451c-0.766-0.641-1.358-1.437-1.78-2.386s-0.633-2.057-0.633-3.322
		c0-1.371,0.268-2.562,0.804-3.573c0.536-1.011,1.336-1.846,2.4-2.505c1.062-0.659,2.386-1.147,3.968-1.463s3.419-0.475,5.511-0.475
		h2.294v-1.424c0-0.738-0.075-1.384-0.224-1.938c-0.15-0.554-0.396-1.015-0.738-1.384c-0.344-0.369-0.801-0.642-1.371-0.817
		c-0.572-0.175-1.279-0.264-2.123-0.264c-1.107,0-2.096,0.123-2.967,0.369c-0.869,0.247-1.639,0.519-2.307,0.817
		c-0.668,0.299-1.227,0.571-1.674,0.817c-0.449,0.247-0.813,0.369-1.095,0.369c-0.193,0-0.365-0.062-0.515-0.185
		c-0.149-0.123-0.272-0.299-0.369-0.527c-0.097-0.228-0.171-0.51-0.224-0.844c-0.053-0.333-0.079-0.703-0.079-1.107
		c0-0.544,0.044-0.976,0.132-1.292s0.255-0.602,0.501-0.857c0.246-0.254,0.677-0.536,1.292-0.844
		c0.615-0.307,1.336-0.593,2.162-0.857s1.728-0.479,2.702-0.646c0.977-0.167,1.982-0.25,3.02-0.25c1.846,0,3.423,0.181,4.732,0.541
		c1.31,0.36,2.387,0.914,3.23,1.661c0.844,0.748,1.459,1.71,1.846,2.887c0.387,1.178,0.58,2.575,0.58,4.192V35.239z M28.439,25.167
		h-2.531c-1.072,0-1.986,0.079-2.742,0.237s-1.371,0.396-1.846,0.712s-0.822,0.699-1.042,1.146c-0.22,0.448-0.329,0.963-0.329,1.543
		c0,0.984,0.312,1.758,0.937,2.32c0.623,0.562,1.489,0.844,2.597,0.844c0.932,0,1.788-0.237,2.571-0.712
		c0.781-0.475,1.577-1.169,2.386-2.083V25.167z"/>
</g>
<rect x="41.872" y="-0.194" width="3.008" height="50.142"/>
<rect x="4.497" y="-0.194" width="3.008" height="50.142"/>
</svg>
