<?xml version="1.0" encoding="utf-8"?>
<!-- Generator: Adobe Illustrator 15.0.2, SVG Export Plug-In . SVG Version: 6.00 Build 0)  -->
<!DOCTYPE svg PUBLIC "-//W3C//DTD SVG 1.1//EN" "http://www.w3.org/Graphics/SVG/1.1/DTD/svg11.dtd">
<svg version="1.1" id="Layer_1" xmlns="http://www.w3.org/2000/svg" xmlns:xlink="http://www.w3.org/1999/xlink" x="0px" y="0px"
	 width="128px" height="128px" viewBox="0 0 128 128" enable-background="new 0 0 128 128" xml:space="preserve">
<g id="Laag_1">
</g>
<path d="M127.619,60.957c-0.254-0.531-0.658-0.798-1.215-0.798H67.518V1.595c0-0.556-0.271-0.96-0.816-1.214S65.257,0,64,0
	c-0.18,0-0.335,0.008-0.5,0.013v-0.09H0v63.5h0.007C0.006,63.509,0,63.584,0,63.675c0,1.257,0.127,2.156,0.381,2.7
	c0.254,0.545,0.683,0.816,1.287,0.816h58.816v58.815c0,0.604,0.278,1.033,0.834,1.287c0.556,0.254,1.449,0.381,2.682,0.381
	c1.257,0,2.156-0.127,2.7-0.381c0.545-0.254,0.815-0.683,0.815-1.287V67.191h58.889c0.557,0,0.961-0.271,1.215-0.816
	c0.254-0.544,0.381-1.443,0.381-2.7C128,62.395,127.873,61.488,127.619,60.957z M60.386,33.481c0,1.109-0.06,2.04-0.179,2.792
	c-0.118,0.752-0.296,1.355-0.534,1.81c-0.237,0.456-0.515,0.782-0.831,0.98c-0.317,0.198-0.653,0.296-1.009,0.296H39.368v20.127
	c0,0.397-0.099,0.743-0.297,1.04c-0.199,0.296-0.534,0.555-1.009,0.771c-0.475,0.219-1.108,0.387-1.9,0.505
	c-0.792,0.119-1.781,0.178-2.968,0.178c-1.188,0-2.177-0.059-2.969-0.178c-0.792-0.118-1.424-0.286-1.899-0.505
	c-0.475-0.216-0.822-0.475-1.039-0.771c-0.218-0.297-0.327-0.643-0.327-1.04V39.358H8.553c-0.357,0-0.683-0.098-0.98-0.296
	c-0.297-0.198-0.564-0.525-0.801-0.98c-0.238-0.455-0.426-1.058-0.564-1.81C6.069,35.521,6,34.59,6,33.481
	c0-1.069,0.059-1.988,0.178-2.761c0.119-0.771,0.287-1.385,0.505-1.839C6.9,28.426,7.148,28.099,7.425,27.9
	c0.276-0.197,0.594-0.296,0.95-0.296h18.583V7.535c0-0.395,0.109-0.762,0.327-1.099c0.217-0.336,0.564-0.613,1.039-0.83
	c0.475-0.218,1.107-0.387,1.899-0.505c0.792-0.119,1.781-0.178,2.969-0.178c1.187,0,2.176,0.059,2.968,0.178
	c0.792,0.118,1.425,0.288,1.9,0.505c0.475,0.217,0.811,0.494,1.009,0.83c0.198,0.337,0.297,0.704,0.297,1.099v20.068h18.643
	c0.316,0,0.623,0.099,0.92,0.296c0.297,0.199,0.554,0.526,0.772,0.981c0.217,0.454,0.386,1.068,0.504,1.839
	C60.326,31.493,60.386,32.412,60.386,33.481z"/>
<g>
	<path d="M114.252,30.743c0,1.257-0.127,2.156-0.381,2.7c-0.254,0.545-0.658,0.816-1.215,0.816H83.081
		c-0.604,0-1.032-0.271-1.286-0.816c-0.254-0.543-0.381-1.443-0.381-2.7c0-1.232,0.127-2.126,0.381-2.682s0.682-0.834,1.286-0.834
		h29.575c0.557,0,0.961,0.267,1.215,0.798C114.125,28.556,114.252,29.463,114.252,30.743z"/>
</g>
<g>
	<path d="M36.226,96.864l10.04,10.004c0.168,0.169,0.29,0.35,0.362,0.543c0.073,0.194,0.109,0.387,0.109,0.58
		c0,0.435-0.163,0.905-0.489,1.414c-0.326,0.507-0.713,0.973-1.16,1.395c-0.447,0.425-0.912,0.779-1.395,1.069
		c-0.484,0.29-0.882,0.436-1.196,0.436c-0.194,0-0.369-0.041-0.525-0.127c-0.158-0.085-0.308-0.188-0.453-0.309l-10.112-10.148
		l-10.076,10.004c-0.145,0.146-0.314,0.26-0.507,0.344c-0.194,0.086-0.399,0.127-0.616,0.127c-0.435,0-0.9-0.162-1.396-0.488
		s-0.955-0.712-1.377-1.159c-0.423-0.446-0.774-0.912-1.051-1.396c-0.278-0.483-0.417-0.883-0.417-1.196
		c0-0.362,0.145-0.688,0.435-0.979L26.55,96.865L16.51,86.789c-0.122-0.145-0.23-0.312-0.326-0.508
		c-0.097-0.192-0.145-0.387-0.145-0.579c0-0.459,0.163-0.937,0.489-1.433c0.326-0.494,0.712-0.955,1.16-1.377
		c0.447-0.423,0.912-0.779,1.396-1.069c0.483-0.29,0.894-0.435,1.232-0.435c0.362,0,0.688,0.156,0.979,0.471l10.112,10.148
		l10.04-10.04c0.145-0.146,0.308-0.26,0.489-0.345c0.182-0.084,0.393-0.127,0.634-0.127c0.435,0,0.906,0.17,1.414,0.508
		c0.508,0.339,0.973,0.73,1.396,1.178c0.422,0.447,0.773,0.906,1.051,1.377c0.277,0.473,0.417,0.864,0.417,1.18
		c0,0.145-0.03,0.308-0.09,0.488c-0.061,0.182-0.176,0.344-0.344,0.489L36.226,96.864z"/>
</g>
<g>
	<path d="M114.904,96.654c0,0.652-0.036,1.201-0.108,1.647c-0.071,0.447-0.164,0.812-0.272,1.089
		c-0.107,0.276-0.248,0.477-0.416,0.598c-0.17,0.121-0.351,0.182-0.543,0.182H82.066c-0.219,0-0.412-0.061-0.58-0.182
		c-0.17-0.121-0.309-0.32-0.418-0.598c-0.107-0.277-0.188-0.642-0.234-1.089c-0.047-0.446-0.072-0.995-0.072-1.647
		s0.024-1.203,0.072-1.65c0.048-0.445,0.127-0.803,0.234-1.068c0.109-0.266,0.248-0.459,0.418-0.58
		c0.168-0.121,0.361-0.182,0.58-0.182h31.496c0.193,0,0.375,0.061,0.543,0.182c0.17,0.121,0.31,0.314,0.418,0.58
		c0.107,0.267,0.199,0.623,0.271,1.068C114.868,95.451,114.904,96.002,114.904,96.654z M103.089,82.953
		c0,1.016-0.092,1.861-0.272,2.537c-0.181,0.678-0.471,1.232-0.869,1.668c-0.398,0.434-0.941,0.748-1.631,0.941
		c-0.688,0.192-1.528,0.291-2.52,0.291c-1.015,0-1.861-0.099-2.538-0.291c-0.676-0.193-1.213-0.509-1.612-0.941
		c-0.397-0.436-0.683-0.99-0.852-1.668c-0.169-0.676-0.254-1.521-0.254-2.537s0.085-1.879,0.254-2.592s0.453-1.285,0.852-1.721
		c0.399-0.437,0.938-0.757,1.612-0.961c0.677-0.205,1.523-0.31,2.538-0.31c0.99,0,1.83,0.104,2.52,0.31
		c0.688,0.204,1.231,0.524,1.631,0.961c0.398,0.436,0.688,1.008,0.869,1.721C102.998,81.074,103.089,81.938,103.089,82.953z
		 M103.089,110.572c0,0.99-0.092,1.83-0.272,2.518c-0.181,0.689-0.471,1.246-0.869,1.668c-0.398,0.424-0.941,0.73-1.631,0.924
		c-0.688,0.193-1.528,0.291-2.52,0.291c-1.015,0-1.861-0.098-2.538-0.291c-0.676-0.192-1.213-0.5-1.612-0.924
		c-0.397-0.422-0.683-0.979-0.852-1.668c-0.169-0.688-0.254-1.527-0.254-2.518c0-1.039,0.085-1.916,0.254-2.629
		c0.169-0.711,0.453-1.285,0.852-1.721c0.399-0.437,0.938-0.748,1.612-0.943c0.677-0.191,1.523-0.289,2.538-0.289
		c0.99,0,1.83,0.098,2.52,0.289c0.688,0.195,1.231,0.508,1.631,0.943c0.398,0.435,0.688,1.01,0.869,1.721
		C102.997,108.656,103.089,109.533,103.089,110.572z"/>
</g>
</svg>
