<?xml version="1.0" encoding="utf-8"?>
<!-- Generator: Adobe Illustrator 15.0.0, SVG Export Plug-In . SVG Version: 6.00 Build 0)  -->
<svg version="1.2" baseProfile="tiny" id="Laag_1" xmlns="http://www.w3.org/2000/svg" xmlns:xlink="http://www.w3.org/1999/xlink"
	 x="0px" y="0px" width="128px" height="128px" viewBox="-39.027 -39.027 128 128" overflow="inherit" xml:space="preserve">
<path d="M45.084-19.549c-7.25,0-14.089,1.779-20.121,4.907c-6.032-3.128-12.87-4.907-20.121-4.907
	c-24.186,0-43.868,19.68-43.868,43.868c0,24.186,19.682,43.866,43.868,43.866c7.251,0,14.089-1.779,20.121-4.908
	c6.032,3.129,12.871,4.908,20.121,4.908c24.187,0,43.862-19.68,43.862-43.866C88.946,0.131,69.27-19.549,45.084-19.549z
	 M4.842,60.926c-20.183,0-36.606-16.422-36.606-36.606c0-20.186,16.423-36.606,36.606-36.606c4.535,0,8.877,0.835,12.889,2.35
	C7.676-1.891,1.219,10.471,1.219,24.32c0,13.847,6.458,26.211,16.513,34.256C13.72,60.091,9.377,60.926,4.842,60.926z
	 M45.084,60.926c-4.534,0-8.879-0.835-12.891-2.35c10.055-8.045,16.514-20.409,16.514-34.256c0-13.848-6.458-26.21-16.512-34.256
	c4.012-1.515,8.354-2.35,12.889-2.35c20.184,0,36.603,16.42,36.603,36.606C81.686,44.504,65.267,60.926,45.084,60.926z"/>
</svg>
