<?xml version="1.0" encoding="utf-8"?>
<!-- Generator: Adobe Illustrator 15.0.0, SVG Export Plug-In . SVG Version: 6.00 Build 0)  -->
<svg version="1.2" baseProfile="tiny" id="Laag_1" xmlns="http://www.w3.org/2000/svg" xmlns:xlink="http://www.w3.org/1999/xlink"
	 x="0px" y="0px" width="128px" height="128px" viewBox="0 0 128 128" overflow="inherit" xml:space="preserve">
<g>
	<path d="M121.769,99.5c4.035-13.427-0.86-35.027-16.975-46.885l8.953-9.186l-29.321-1.119l2.906,29.318L97.625,60.67
		c12.767,9.836,16.618,25.699,12.83,38.689L121.769,99.5z"/>
	<rect x="50.774" y="104.338" width="11.022" height="3.715"/>
	<rect x="31.91" y="104.338" width="7.845" height="3.715"/>
	<rect x="116.896" y="104.338" width="11.021" height="3.715"/>
	<rect x="94.85" y="104.338" width="11.022" height="3.715"/>
	<rect x="72.811" y="104.338" width="11.021" height="3.715"/>
	
		<rect x="78.668" y="34.668" transform="matrix(-0.7051 -0.7091 0.7091 -0.7051 108.8056 125.6115)" width="3.712" height="11.023"/>
	<rect x="94.284" y="19.118" transform="matrix(-0.705 -0.7092 0.7092 -0.705 146.4518 110.1781)" width="3.712" height="11.023"/>
	<rect x="109.898" y="3.572" transform="matrix(-0.7049 -0.7093 0.7093 -0.7049 184.0953 94.7511)" width="3.717" height="11.022"/>
	<polygon points="36.263,81.629 28.459,89.411 31.077,92.043 38.888,84.266 	"/>
	<rect x="43.776" y="69.428" transform="matrix(-0.7087 0.7055 -0.7055 -0.7087 134.5108 87.0337)" width="11.022" height="3.716"/>
	<rect x="63.053" y="50.226" transform="matrix(0.706 0.7082 -0.7082 0.706 58.5575 -29.583)" width="3.712" height="11.019"/>
</g>
<g>
	<path d="M13.624,120c-7.467,0-13.541-6.078-13.541-13.55c0-7.468,6.078-13.543,13.541-13.543c7.481,0,13.554,6.079,13.554,13.543
		C27.175,113.922,21.096,120,13.624,120z M13.624,100.329c-3.366,0-6.114,2.746-6.114,6.115c0,3.377,2.749,6.124,6.114,6.124
		c3.378,0,6.125-2.747,6.125-6.124C19.747,103.079,17.002,100.329,13.624,100.329z"/>
</g>
</svg>
