<?xml version="1.0" encoding="utf-8"?>
<!-- Generator: Adobe Illustrator 15.0.0, SVG Export Plug-In . SVG Version: 6.00 Build 0)  -->
<svg version="1.2" baseProfile="tiny" id="Laag_1" xmlns="http://www.w3.org/2000/svg" xmlns:xlink="http://www.w3.org/1999/xlink"
	 x="0px" y="0px" width="128px" height="128px" viewBox="0 0 128 128" overflow="inherit" xml:space="preserve">
<g>
	<path d="M26.584,57.762c0.704-1.056,1.6-1.903,2.688-2.544c1.087-0.64,2.312-1.096,3.672-1.368c1.36-0.271,2.728-0.408,4.104-0.408
		c1.248,0,2.512,0.088,3.792,0.264c1.28,0.176,2.448,0.521,3.504,1.032c1.056,0.512,1.92,1.224,2.592,2.136
		c0.672,0.912,1.008,2.121,1.008,3.624V73.41c0,1.12,0.064,2.191,0.192,3.216c0.127,1.024,0.352,1.792,0.672,2.304h-6.912
		c-0.128-0.384-0.232-0.775-0.312-1.176c-0.08-0.4-0.136-0.808-0.168-1.225c-1.088,1.121-2.369,1.904-3.84,2.353
		c-1.472,0.447-2.976,0.672-4.512,0.672c-1.184,0-2.288-0.144-3.312-0.432c-1.024-0.288-1.92-0.736-2.688-1.345
		c-0.768-0.607-1.368-1.375-1.8-2.304c-0.432-0.928-0.648-2.032-0.648-3.312c0-1.408,0.248-2.568,0.744-3.48s1.136-1.64,1.92-2.184
		c0.784-0.544,1.68-0.952,2.688-1.225c1.008-0.271,2.023-0.487,3.048-0.648c1.024-0.159,2.032-0.287,3.024-0.383
		c0.992-0.096,1.872-0.24,2.64-0.432s1.375-0.472,1.824-0.84c0.448-0.368,0.656-0.904,0.624-1.608c0-0.736-0.12-1.32-0.36-1.752
		c-0.24-0.432-0.56-0.768-0.96-1.008c-0.4-0.24-0.864-0.399-1.392-0.48c-0.528-0.08-1.097-0.12-1.704-0.12
		c-1.344,0-2.4,0.288-3.168,0.864s-1.216,1.536-1.344,2.88h-6.816C25.48,60.146,25.88,58.818,26.584,57.762z M40.048,67.386
		c-0.432,0.144-0.896,0.265-1.392,0.36c-0.497,0.096-1.017,0.176-1.56,0.24c-0.544,0.064-1.088,0.144-1.632,0.239
		c-0.512,0.097-1.016,0.224-1.512,0.384c-0.497,0.16-0.929,0.377-1.296,0.648c-0.369,0.271-0.665,0.616-0.888,1.031
		c-0.224,0.417-0.336,0.945-0.336,1.584c0,0.609,0.112,1.121,0.336,1.537c0.224,0.416,0.528,0.744,0.912,0.983
		c0.384,0.24,0.832,0.408,1.344,0.504c0.512,0.097,1.04,0.145,1.584,0.145c1.344,0,2.384-0.224,3.12-0.673
		c0.736-0.447,1.28-0.983,1.632-1.607s0.568-1.256,0.648-1.896c0.079-0.639,0.12-1.151,0.12-1.535v-2.545
		C40.84,67.042,40.48,67.242,40.048,67.386z"/>
	<path d="M59.368,78.93l-8.496-24.816h7.152l5.232,16.944h0.096l5.232-16.944h6.768l-8.4,24.816H59.368z"/>
	<path d="M101.632,80.754c-0.272,1.279-0.856,2.472-1.752,3.576c-0.896,1.104-2.192,2.04-3.888,2.808
		c-1.697,0.768-3.969,1.152-6.816,1.152c-1.217,0-2.456-0.152-3.721-0.456c-1.264-0.305-2.416-0.776-3.455-1.416
		c-1.041-0.641-1.904-1.464-2.592-2.473c-0.689-1.008-1.08-2.216-1.176-3.624H85c0.319,1.28,0.943,2.168,1.871,2.664
		s2,0.744,3.217,0.744c1.92,0,3.319-0.576,4.199-1.728c0.881-1.152,1.305-2.608,1.272-4.368v-3.265h-0.096
		c-0.736,1.313-1.784,2.28-3.144,2.904c-1.361,0.624-2.793,0.937-4.297,0.937c-1.855,0-3.455-0.328-4.8-0.984
		c-1.344-0.655-2.448-1.552-3.312-2.688c-0.864-1.135-1.496-2.463-1.896-3.983c-0.4-1.52-0.6-3.128-0.6-4.824
		c0-1.6,0.231-3.144,0.695-4.632s1.145-2.8,2.041-3.936c0.895-1.135,2.008-2.04,3.336-2.712c1.327-0.672,2.855-1.008,4.584-1.008
		c1.631,0,3.063,0.304,4.295,0.912c1.232,0.608,2.264,1.632,3.097,3.072h0.096v-3.312h6.48v23.232
		C102.04,78.338,101.903,79.474,101.632,80.754z M92.296,72.498c0.735-0.385,1.344-0.896,1.823-1.536
		c0.48-0.64,0.841-1.368,1.08-2.185c0.24-0.815,0.36-1.672,0.36-2.568c0-1.023-0.096-1.991-0.288-2.903
		c-0.191-0.912-0.512-1.72-0.959-2.424c-0.449-0.704-1.041-1.264-1.777-1.68c-0.736-0.416-1.664-0.624-2.783-0.624
		c-0.96,0-1.784,0.192-2.473,0.576c-0.688,0.384-1.264,0.904-1.728,1.56c-0.464,0.656-0.8,1.408-1.008,2.256
		c-0.208,0.848-0.312,1.736-0.312,2.664c0,0.896,0.087,1.784,0.264,2.664c0.176,0.88,0.479,1.673,0.912,2.376
		c0.432,0.704,1,1.28,1.703,1.729c0.704,0.447,1.584,0.672,2.641,0.672C90.712,73.074,91.559,72.882,92.296,72.498z"/>
</g>
</svg>
