<?xml version="1.0" encoding="utf-8"?>
<!-- Generator: Adobe Illustrator 15.0.0, SVG Export Plug-In . SVG Version: 6.00 Build 0)  -->
<svg version="1.2" baseProfile="tiny" id="Laag_1" xmlns="http://www.w3.org/2000/svg" xmlns:xlink="http://www.w3.org/1999/xlink"
	 x="0px" y="0px" width="128px" height="128px" viewBox="0 0 128 128" overflow="inherit" xml:space="preserve">
<path d="M84.124,19.618c-7.25,0-14.089,1.779-20.121,4.907c-6.032-3.128-12.87-4.907-20.121-4.907
	c-24.186,0-43.868,19.68-43.868,43.868c0,24.187,19.682,43.866,43.868,43.866c7.251,0,14.089-1.779,20.121-4.908
	c6.032,3.129,12.871,4.908,20.121,4.908c24.188,0,43.861-19.68,43.861-43.866C127.985,39.297,108.31,19.618,84.124,19.618z
	 M43.882,100.092c-20.183,0-36.606-16.422-36.606-36.605c0-20.186,16.423-36.606,36.606-36.606c4.535,0,8.877,0.835,12.889,2.35
	c-10.055,8.045-16.512,20.407-16.512,34.256c0,13.848,6.458,26.211,16.513,34.256C52.76,99.258,48.417,100.092,43.882,100.092z
	 M80.486,63.486c0,12.756-6.562,24.002-16.483,30.559c-9.922-6.557-16.485-17.803-16.485-30.559
	c0-12.757,6.563-24.004,16.485-30.559C73.925,39.482,80.486,50.729,80.486,63.486z M84.124,100.092
	c-4.534,0-8.879-0.834-12.892-2.35c10.056-8.045,16.515-20.408,16.515-34.256s-6.458-26.21-16.513-34.256
	c4.013-1.515,8.354-2.35,12.89-2.35c20.184,0,36.604,16.42,36.604,36.606C120.726,83.67,104.308,100.092,84.124,100.092z"/>
</svg>
