<?xml version="1.0" encoding="utf-8"?>
<!-- Generator: Adobe Illustrator 15.0.0, SVG Export Plug-In . SVG Version: 6.00 Build 0)  -->
<!DOCTYPE svg PUBLIC "-//W3C//DTD SVG 1.1//EN" "http://www.w3.org/Graphics/SVG/1.1/DTD/svg11.dtd">
<svg version="1.1" id="Laag_1" xmlns="http://www.w3.org/2000/svg" xmlns:xlink="http://www.w3.org/1999/xlink" x="0px" y="0px"
	 width="128px" height="128px" viewBox="0 0 128 128" enable-background="new 0 0 128 128" xml:space="preserve">
<g enable-background="new    ">
	<path d="M47.678,75.025c0,0.445-0.019,0.807-0.053,1.081c-0.036,0.276-0.1,0.472-0.188,0.587c-0.089,0.116-0.2,0.165-0.333,0.147
		c-0.134-0.019-0.299-0.08-0.494-0.188L25.575,66.029c-0.178-0.089-0.319-0.303-0.427-0.641c-0.106-0.338-0.16-0.828-0.16-1.468
		c0-0.284,0.015-0.551,0.04-0.801c0.026-0.249,0.071-0.453,0.135-0.613c0.062-0.16,0.133-0.298,0.213-0.414
		c0.08-0.115,0.174-0.191,0.279-0.227l20.954-10.569c0.409-0.196,0.689-0.188,0.841,0.026c0.152,0.214,0.228,0.738,0.228,1.575
		c0,0.516-0.013,0.925-0.04,1.228c-0.026,0.303-0.071,0.547-0.133,0.734c-0.063,0.187-0.152,0.329-0.269,0.427
		c-0.114,0.098-0.279,0.2-0.493,0.307l-17.189,8.408l17.083,8.274c0.23,0.124,0.414,0.235,0.548,0.333
		c0.133,0.1,0.235,0.24,0.307,0.428s0.12,0.437,0.146,0.747C47.665,74.096,47.678,74.51,47.678,75.025z"/>
	<path d="M75.064,58.77c0,0.712-0.104,1.206-0.307,1.481c-0.205,0.276-0.441,0.414-0.707,0.414H53.87
		c-0.268,0-0.498-0.138-0.693-0.414c-0.196-0.275-0.294-0.77-0.294-1.481c0-0.641,0.089-1.112,0.268-1.415
		c0.178-0.302,0.418-0.453,0.722-0.453h20.18c0.32,0,0.567,0.151,0.746,0.453C74.975,57.658,75.064,58.13,75.064,58.77z
		 M75.064,69.153c0,0.712-0.104,1.201-0.307,1.469c-0.205,0.267-0.441,0.399-0.707,0.399H53.87c-0.268,0-0.498-0.134-0.693-0.399
		c-0.196-0.268-0.294-0.757-0.294-1.469c0-0.658,0.089-1.139,0.268-1.44c0.178-0.304,0.418-0.454,0.722-0.454h20.18
		c0.32,0,0.567,0.15,0.746,0.454C74.976,68.016,75.064,68.495,75.064,69.153z"/>
	<path d="M103.012,64.029c0,0.303-0.019,0.573-0.053,0.813c-0.037,0.24-0.08,0.45-0.136,0.628c-0.053,0.178-0.125,0.314-0.213,0.413
		c-0.09,0.099-0.188,0.174-0.293,0.228l-20.955,10.57c-0.194,0.089-0.364,0.138-0.506,0.146c-0.143,0.01-0.254-0.049-0.334-0.174
		c-0.08-0.124-0.139-0.314-0.174-0.572c-0.035-0.259-0.053-0.593-0.053-1.002c0-0.497,0.008-0.897,0.024-1.2
		c0.018-0.304,0.06-0.548,0.121-0.734c0.062-0.186,0.154-0.334,0.279-0.44c0.125-0.105,0.285-0.203,0.479-0.294l17.218-8.459
		l-17.109-8.248c-0.232-0.107-0.414-0.209-0.547-0.308c-0.135-0.098-0.236-0.244-0.307-0.44c-0.072-0.195-0.117-0.449-0.136-0.761
		c-0.018-0.311-0.024-0.725-0.024-1.241c0-0.462,0.018-0.822,0.053-1.081c0.035-0.258,0.094-0.444,0.174-0.561
		c0.08-0.115,0.191-0.164,0.334-0.146c0.142,0.018,0.312,0.08,0.506,0.187l21.037,10.596c0.178,0.089,0.324,0.307,0.439,0.653
		C102.953,62.948,103.012,63.424,103.012,64.029z"/>
</g>
</svg>
