<?xml version="1.0" encoding="utf-8"?>
<!-- Generator: Adobe Illustrator 15.0.2, SVG Export Plug-In . SVG Version: 6.00 Build 0)  -->
<!DOCTYPE svg PUBLIC "-//W3C//DTD SVG 1.1//EN" "http://www.w3.org/Graphics/SVG/1.1/DTD/svg11.dtd">
<svg version="1.1" id="Laag_1" xmlns="http://www.w3.org/2000/svg" xmlns:xlink="http://www.w3.org/1999/xlink" x="0px" y="0px"
	 width="49.947px" height="49.947px" viewBox="0 0 49.947 49.947" enable-background="new 0 0 49.947 49.947" xml:space="preserve">
<polygon points="14.666,4.854 14.666,9.658 19.975,9.658 19.975,12.828 25.878,7.327 19.975,1.82 19.975,4.854 "/>
<polygon points="14.666,22.504 14.666,27.308 19.975,27.308 19.975,30.478 25.878,24.978 19.975,19.471 19.975,22.504 "/>
<polygon points="14.666,40.155 14.666,44.958 19.975,44.958 19.975,48.128 25.878,42.628 19.975,37.121 19.975,40.155 "/>
<g>
	<path d="M40.574,12.704c0.068,0.146,0.101,0.267,0.097,0.361c-0.004,0.095-0.066,0.172-0.187,0.232
		c-0.121,0.06-0.306,0.101-0.555,0.122c-0.25,0.021-0.58,0.032-0.993,0.032c-0.387,0-0.698-0.006-0.935-0.019
		c-0.237-0.013-0.422-0.039-0.555-0.078c-0.134-0.039-0.232-0.085-0.297-0.142c-0.064-0.056-0.114-0.127-0.148-0.213l-2.128-4.088
		L32.747,13c-0.035,0.086-0.082,0.157-0.143,0.213c-0.061,0.056-0.152,0.103-0.277,0.142c-0.125,0.039-0.299,0.064-0.521,0.078
		c-0.225,0.013-0.517,0.019-0.877,0.019c-0.379,0-0.68-0.011-0.903-0.032s-0.387-0.062-0.49-0.122
		c-0.103-0.06-0.157-0.138-0.161-0.232c-0.004-0.094,0.032-0.215,0.109-0.361l3.186-5.662l-2.939-5.313
		c-0.078-0.155-0.119-0.286-0.123-0.394c-0.004-0.107,0.049-0.191,0.161-0.251c0.112-0.06,0.29-0.103,0.535-0.129
		s0.578-0.039,0.999-0.039c0.379,0,0.682,0.006,0.91,0.02c0.227,0.013,0.406,0.032,0.535,0.058c0.129,0.025,0.223,0.066,0.283,0.122
		c0.06,0.056,0.111,0.127,0.154,0.213l2.051,3.843l2.038-3.843c0.025-0.069,0.064-0.129,0.115-0.181
		c0.052-0.051,0.134-0.094,0.245-0.129c0.112-0.034,0.265-0.06,0.458-0.077s0.458-0.026,0.793-0.026
		c0.379,0,0.682,0.009,0.909,0.026s0.392,0.056,0.49,0.116s0.146,0.144,0.142,0.251c-0.004,0.107-0.054,0.247-0.148,0.419
		l-2.862,5.223L40.574,12.704z"/>
</g>
<g>
	<path d="M11.242,12.704c0.069,0.146,0.101,0.267,0.097,0.361c-0.004,0.095-0.066,0.172-0.187,0.232
		c-0.12,0.06-0.305,0.101-0.554,0.122c-0.25,0.021-0.581,0.032-0.993,0.032c-0.387,0-0.699-0.006-0.935-0.019
		c-0.236-0.013-0.421-0.039-0.554-0.078c-0.134-0.039-0.232-0.085-0.297-0.142C7.754,13.157,7.704,13.086,7.67,13L5.542,8.912
		L3.414,13c-0.035,0.086-0.082,0.157-0.142,0.213c-0.06,0.056-0.153,0.103-0.277,0.142c-0.125,0.039-0.299,0.064-0.522,0.078
		c-0.224,0.013-0.516,0.019-0.877,0.019c-0.378,0-0.679-0.011-0.903-0.032s-0.387-0.062-0.49-0.122
		c-0.103-0.06-0.157-0.138-0.161-0.232c-0.004-0.094,0.032-0.215,0.11-0.361l3.185-5.662l-2.94-5.313
		C0.319,1.574,0.278,1.443,0.274,1.335C0.27,1.228,0.323,1.145,0.435,1.084c0.112-0.06,0.29-0.103,0.535-0.129s0.578-0.039,1-0.039
		c0.378,0,0.681,0.006,0.909,0.02c0.228,0.013,0.406,0.032,0.535,0.058C3.543,1.02,3.637,1.061,3.698,1.116
		c0.06,0.056,0.111,0.127,0.155,0.213l2.05,3.843l2.038-3.843C7.967,1.26,8.005,1.2,8.057,1.148C8.108,1.097,8.19,1.054,8.302,1.02
		c0.111-0.034,0.264-0.06,0.458-0.077s0.458-0.026,0.793-0.026c0.378,0,0.682,0.009,0.909,0.026c0.228,0.017,0.391,0.056,0.49,0.116
		c0.099,0.06,0.146,0.144,0.142,0.251c-0.005,0.107-0.054,0.247-0.148,0.419L8.083,6.952L11.242,12.704z"/>
</g>
<g>
	<path d="M39.927,48.972c0,0.086-0.025,0.161-0.076,0.226c-0.053,0.064-0.139,0.118-0.258,0.161
		c-0.121,0.043-0.287,0.075-0.498,0.097s-0.471,0.032-0.779,0.032c-0.318,0-0.582-0.011-0.793-0.032s-0.377-0.054-0.496-0.097
		c-0.121-0.043-0.207-0.097-0.258-0.161c-0.053-0.064-0.078-0.14-0.078-0.226v-6.564c0-0.559-0.041-0.997-0.123-1.315
		c-0.082-0.317-0.199-0.591-0.354-0.818c-0.156-0.228-0.355-0.404-0.6-0.528c-0.246-0.125-0.531-0.188-0.857-0.188
		c-0.414,0-0.83,0.15-1.252,0.451s-0.859,0.739-1.315,1.315v7.647c0,0.086-0.025,0.161-0.077,0.226s-0.141,0.118-0.265,0.161
		s-0.29,0.075-0.496,0.097s-0.469,0.032-0.786,0.032c-0.318,0-0.581-0.011-0.787-0.032c-0.207-0.021-0.372-0.054-0.496-0.097
		c-0.125-0.043-0.213-0.097-0.266-0.161c-0.051-0.064-0.076-0.14-0.076-0.226V37.469c0-0.086,0.021-0.161,0.064-0.226
		s0.119-0.118,0.231-0.161s0.256-0.075,0.433-0.097c0.176-0.021,0.396-0.032,0.664-0.032c0.274,0,0.502,0.011,0.684,0.032
		c0.18,0.021,0.32,0.054,0.418,0.097c0.1,0.043,0.17,0.097,0.213,0.161s0.064,0.14,0.064,0.226v1.328
		c0.637-0.688,1.283-1.204,1.941-1.548s1.344-0.516,2.057-0.516c0.783,0,1.443,0.129,1.98,0.387s0.971,0.608,1.303,1.051
		c0.33,0.443,0.568,0.961,0.715,1.555c0.146,0.593,0.219,1.307,0.219,2.141V48.972z"/>
</g>
<g>
	<path d="M11.585,48.972c0,0.086-0.026,0.161-0.078,0.226c-0.051,0.064-0.137,0.118-0.258,0.161s-0.286,0.075-0.497,0.097
		c-0.21,0.021-0.471,0.032-0.78,0.032c-0.318,0-0.583-0.011-0.793-0.032s-0.376-0.054-0.497-0.097
		c-0.12-0.043-0.206-0.097-0.258-0.161c-0.051-0.064-0.077-0.14-0.077-0.226v-6.564c0-0.559-0.041-0.997-0.123-1.315
		c-0.082-0.317-0.2-0.591-0.354-0.818c-0.155-0.228-0.355-0.404-0.6-0.528c-0.245-0.125-0.531-0.188-0.857-0.188
		c-0.413,0-0.83,0.15-1.251,0.451s-0.86,0.739-1.315,1.315v7.647c0,0.086-0.025,0.161-0.077,0.226s-0.14,0.118-0.265,0.161
		s-0.29,0.075-0.496,0.097c-0.207,0.021-0.469,0.032-0.787,0.032c-0.318,0-0.581-0.011-0.787-0.032
		c-0.206-0.021-0.372-0.054-0.496-0.097c-0.125-0.043-0.213-0.097-0.265-0.161c-0.051-0.064-0.077-0.14-0.077-0.226V37.469
		c0-0.086,0.021-0.161,0.064-0.226s0.12-0.118,0.232-0.161s0.256-0.075,0.432-0.097s0.397-0.032,0.664-0.032
		c0.275,0,0.503,0.011,0.684,0.032s0.32,0.054,0.419,0.097c0.099,0.043,0.17,0.097,0.213,0.161s0.064,0.14,0.064,0.226v1.328
		c0.636-0.688,1.283-1.204,1.941-1.548s1.343-0.516,2.057-0.516c0.782,0,1.442,0.129,1.979,0.387
		c0.537,0.258,0.971,0.608,1.302,1.051c0.331,0.443,0.569,0.961,0.716,1.555c0.146,0.593,0.219,1.307,0.219,2.141V48.972z"/>
</g>
<g>
	<path d="M49.007,12.409c0,0.18-0.01,0.333-0.029,0.458s-0.047,0.225-0.082,0.299s-0.075,0.127-0.12,0.159
		c-0.046,0.032-0.097,0.048-0.155,0.048h-6.893c-0.053,0-0.101-0.016-0.146-0.048s-0.085-0.085-0.12-0.159s-0.062-0.174-0.082-0.299
		s-0.029-0.278-0.029-0.458c0-0.187,0.008-0.343,0.023-0.468c0.017-0.125,0.043-0.227,0.078-0.304s0.075-0.134,0.121-0.169
		c0.045-0.036,0.096-0.053,0.154-0.053h2.326V3.285l-2.008,1.11c-0.148,0.071-0.27,0.114-0.362,0.13s-0.167-0.003-0.222-0.058
		S41.37,4.318,41.35,4.183s-0.029-0.325-0.029-0.57c0-0.154,0.004-0.281,0.01-0.381c0.006-0.1,0.022-0.185,0.049-0.256
		c0.025-0.071,0.061-0.129,0.105-0.174s0.106-0.093,0.184-0.145l2.684-1.738c0.033-0.025,0.073-0.046,0.121-0.062
		c0.049-0.016,0.111-0.029,0.188-0.039c0.077-0.01,0.179-0.016,0.304-0.02c0.126-0.003,0.289-0.005,0.488-0.005
		c0.244,0,0.442,0.005,0.594,0.015c0.15,0.01,0.266,0.026,0.343,0.048s0.128,0.053,0.154,0.092c0.025,0.039,0.038,0.087,0.038,0.145
		v10.321h2.037c0.059,0,0.111,0.018,0.16,0.053c0.048,0.035,0.09,0.092,0.125,0.169s0.062,0.179,0.078,0.304
		C48.999,12.066,49.007,12.222,49.007,12.409z"/>
</g>
<g>
	<path d="M49.007,48.331c0,0.181-0.01,0.333-0.029,0.459c-0.02,0.125-0.047,0.226-0.082,0.299c-0.035,0.074-0.075,0.128-0.12,0.16
		c-0.046,0.032-0.097,0.048-0.155,0.048h-6.893c-0.053,0-0.101-0.016-0.146-0.048s-0.085-0.086-0.12-0.16
		c-0.035-0.073-0.062-0.174-0.082-0.299c-0.02-0.126-0.029-0.278-0.029-0.459c0-0.187,0.008-0.343,0.023-0.468
		c0.017-0.126,0.043-0.228,0.078-0.305s0.075-0.133,0.121-0.169c0.045-0.035,0.096-0.053,0.154-0.053h2.326v-8.13l-2.008,1.11
		c-0.148,0.071-0.27,0.114-0.362,0.131c-0.093,0.016-0.167-0.003-0.222-0.058s-0.092-0.15-0.111-0.285
		c-0.02-0.136-0.029-0.325-0.029-0.569c0-0.155,0.004-0.282,0.01-0.382s0.022-0.185,0.049-0.256c0.025-0.07,0.061-0.129,0.105-0.174
		s0.106-0.093,0.184-0.145l2.684-1.738c0.033-0.025,0.073-0.047,0.121-0.062c0.049-0.016,0.111-0.029,0.188-0.039
		s0.179-0.016,0.304-0.019c0.126-0.004,0.289-0.005,0.488-0.005c0.244,0,0.442,0.005,0.594,0.014c0.15,0.01,0.266,0.026,0.343,0.049
		s0.128,0.053,0.154,0.092c0.025,0.038,0.038,0.087,0.038,0.145v10.321h2.037c0.059,0,0.111,0.018,0.16,0.053
		c0.048,0.036,0.09,0.092,0.125,0.169s0.062,0.179,0.078,0.305C48.999,47.988,49.007,48.145,49.007,48.331z"/>
</g>
<circle cx="38.521" cy="18.387" r="2.073"/>
<circle cx="38.521" cy="24.974" r="2.073"/>
<circle cx="38.521" cy="31.562" r="2.073"/>
<circle cx="6.059" cy="18.387" r="2.073"/>
<circle cx="6.059" cy="24.974" r="2.073"/>
<circle cx="6.059" cy="31.562" r="2.073"/>
</svg>
