<?xml version="1.0" encoding="utf-8"?>
<!-- Generator: Adobe Illustrator 15.0.0, SVG Export Plug-In . SVG Version: 6.00 Build 0)  -->
<svg version="1.2" baseProfile="tiny" id="Laag_1" xmlns="http://www.w3.org/2000/svg" xmlns:xlink="http://www.w3.org/1999/xlink"
	 x="0px" y="0px" width="128px" height="128px" viewBox="0 0 128 128" overflow="inherit" xml:space="preserve">
<g>
	<g>
		<path d="M32.832,53.149c-1.531,3.242-2.672,6.568-3.424,9.978c-0.75,3.414-1.123,6.846-1.123,10.299
			c0,3.467,0.383,6.902,1.148,10.307c0.768,3.402,1.881,6.746,3.352,10.019c0.08,0.192,0.125,0.358,0.133,0.496
			c0.008,0.137-0.045,0.25-0.158,0.34c-0.115,0.086-0.287,0.152-0.521,0.191c-0.238,0.036-0.555,0.059-0.955,0.059
			c-0.293,0-0.541-0.008-0.75-0.023c-0.211-0.018-0.393-0.049-0.545-0.098c-0.156-0.045-0.281-0.105-0.375-0.168
			c-0.096-0.064-0.17-0.139-0.219-0.217c-0.869-1.646-1.637-3.312-2.299-4.998c-0.662-1.685-1.219-3.398-1.668-5.144
			c-0.453-1.741-0.793-3.502-1.018-5.286c-0.225-1.779-0.338-3.585-0.338-5.406c0-1.824,0.125-3.623,0.375-5.394
			c0.25-1.774,0.604-3.539,1.066-5.289c0.457-1.752,1.018-3.469,1.68-5.166c0.664-1.696,1.404-3.373,2.227-5.032
			c0.016-0.064,0.062-0.125,0.133-0.17c0.072-0.046,0.172-0.099,0.303-0.146c0.129-0.053,0.307-0.086,0.533-0.111
			c0.225-0.022,0.518-0.036,0.869-0.036c0.373,0,0.672,0.022,0.898,0.071c0.225,0.049,0.402,0.113,0.531,0.193
			c0.127,0.08,0.203,0.182,0.219,0.313C32.919,52.863,32.897,53.006,32.832,53.149z"/>
		<path d="M56.086,85.429c0.127,0.229,0.195,0.416,0.195,0.572c0,0.154-0.078,0.274-0.23,0.373
			c-0.154,0.096-0.387,0.166-0.703,0.205c-0.314,0.041-0.719,0.061-1.219,0.061c-0.486,0-0.867-0.016-1.15-0.037
			c-0.283-0.024-0.508-0.062-0.678-0.123c-0.17-0.053-0.301-0.127-0.387-0.217c-0.09-0.088-0.164-0.19-0.23-0.303l-5.229-8.642
			l-5.201,8.642c-0.062,0.111-0.141,0.215-0.23,0.303c-0.09,0.09-0.217,0.162-0.387,0.217c-0.168,0.058-0.391,0.099-0.666,0.123
			c-0.271,0.021-0.637,0.037-1.088,0.037c-0.467,0-0.852-0.022-1.15-0.061c-0.297-0.037-0.516-0.109-0.652-0.205
			c-0.137-0.099-0.201-0.224-0.193-0.373c0.006-0.156,0.084-0.344,0.229-0.572l6.777-10.619l-6.413-10.237
			c-0.129-0.226-0.197-0.414-0.207-0.57c-0.01-0.152,0.062-0.279,0.217-0.385c0.152-0.104,0.389-0.172,0.703-0.205
			c0.312-0.035,0.727-0.054,1.244-0.054c0.471,0,0.844,0.015,1.125,0.041c0.281,0.025,0.504,0.058,0.666,0.107
			c0.16,0.051,0.283,0.115,0.363,0.193c0.078,0.08,0.154,0.176,0.217,0.289l4.963,8.106l5.031-8.106
			c0.066-0.099,0.139-0.187,0.219-0.267c0.08-0.082,0.189-0.151,0.324-0.207c0.135-0.055,0.33-0.096,0.582-0.119
			c0.25-0.026,0.594-0.041,1.027-0.041c0.471,0,0.854,0.019,1.15,0.054c0.299,0.032,0.52,0.092,0.666,0.178
			c0.146,0.09,0.209,0.215,0.195,0.375c-0.016,0.16-0.098,0.365-0.244,0.604l-6.365,10.111L56.086,85.429z"/>
		<path d="M66.326,83.035c0,0.498-0.025,0.961-0.07,1.381c-0.051,0.416-0.131,0.809-0.246,1.184
			c-0.111,0.371-0.26,0.738-0.447,1.103c-0.186,0.362-0.414,0.746-0.688,1.147l-3.316,4.986c-0.08,0.111-0.174,0.209-0.277,0.287
			c-0.105,0.08-0.234,0.153-0.389,0.217c-0.152,0.066-0.33,0.111-0.533,0.139c-0.201,0.021-0.453,0.035-0.762,0.035
			c-0.271,0-0.504-0.014-0.688-0.035c-0.188-0.026-0.32-0.065-0.4-0.125c-0.08-0.057-0.125-0.133-0.133-0.229
			c-0.006-0.099,0.021-0.211,0.086-0.338l3.217-6.654v-3.098c0-0.437,0.045-0.785,0.133-1.041c0.09-0.261,0.23-0.451,0.426-0.582
			c0.191-0.129,0.434-0.222,0.725-0.269c0.289-0.049,0.645-0.071,1.064-0.071c0.402,0,0.748,0.024,1.041,0.071
			c0.289,0.047,0.527,0.14,0.713,0.269c0.185,0.131,0.324,0.321,0.412,0.582C66.281,82.253,66.326,82.599,66.326,83.035z"/>
		<path d="M83.336,86.496l-2.906,8.01c-0.094,0.26-0.342,0.457-0.734,0.592c-0.395,0.135-0.998,0.205-1.805,0.205
			c-0.418,0-0.756-0.02-1.016-0.061c-0.258-0.039-0.455-0.107-0.59-0.205c-0.138-0.099-0.213-0.228-0.232-0.386
			c-0.018-0.161,0.025-0.356,0.125-0.581l3-7.574c-0.146-0.062-0.285-0.168-0.412-0.316c-0.127-0.145-0.219-0.297-0.268-0.459
			L70.734,64.91c-0.132-0.34-0.193-0.605-0.193-0.802c0-0.188,0.062-0.344,0.193-0.457c0.129-0.114,0.338-0.188,0.625-0.229
			c0.293-0.041,0.682-0.062,1.163-0.062c0.484,0,0.861,0.015,1.138,0.041c0.272,0.025,0.492,0.064,0.651,0.134
			c0.162,0.065,0.281,0.155,0.351,0.274c0.076,0.125,0.151,0.287,0.231,0.496l6.222,17.471h0.071l6.002-17.567
			c0.097-0.305,0.214-0.5,0.353-0.59c0.135-0.086,0.342-0.154,0.617-0.191c0.27-0.041,0.668-0.062,1.186-0.062
			c0.451,0,0.822,0.024,1.111,0.062c0.293,0.037,0.506,0.115,0.643,0.23c0.141,0.11,0.205,0.266,0.205,0.457
			c0,0.194-0.047,0.438-0.145,0.727L83.336,86.496z"/>
		<path d="M103.928,73.5c0,1.822-0.115,3.627-0.34,5.408c-0.227,1.784-0.565,3.547-1.014,5.287
			c-0.453,1.741-1.006,3.456-1.656,5.143c-0.653,1.688-1.42,3.352-2.288,4.998c-0.05,0.076-0.121,0.152-0.22,0.217
			c-0.098,0.062-0.223,0.123-0.371,0.168c-0.151,0.047-0.338,0.08-0.549,0.098c-0.209,0.015-0.457,0.021-0.75,0.021
			c-0.42,0-0.746-0.02-0.979-0.057s-0.404-0.105-0.508-0.193c-0.105-0.09-0.156-0.201-0.146-0.34
			c0.008-0.137,0.053-0.303,0.133-0.494c1.482-3.258,2.607-6.596,3.363-10.008c0.76-3.41,1.141-6.851,1.141-10.318
			c0-3.455-0.381-6.885-1.141-10.297c-0.758-3.41-1.895-6.738-3.41-9.977c-0.063-0.148-0.09-0.283-0.074-0.414
			c0.019-0.129,0.09-0.232,0.22-0.314c0.131-0.08,0.305-0.146,0.53-0.193c0.228-0.049,0.523-0.071,0.898-0.071
			c0.338,0,0.619,0.014,0.848,0.039c0.228,0.022,0.402,0.057,0.545,0.108c0.135,0.047,0.236,0.099,0.301,0.146
			c0.062,0.051,0.115,0.104,0.146,0.17c1.66,3.309,2.966,6.707,3.91,10.197C103.457,66.31,103.928,69.871,103.928,73.5z"/>
	</g>
	<g>
		<path d="M65.062,51.373c-5.146,0-9.334-4.189-9.334-9.34c0-5.148,4.188-9.336,9.334-9.336c5.152,0,9.341,4.188,9.341,9.336
			C74.402,47.183,70.211,51.373,65.062,51.373z M65.062,37.813c-2.322,0-4.215,1.894-4.215,4.218c0,2.325,1.893,4.219,4.215,4.219
			c2.328,0,4.222-1.894,4.222-4.219C69.283,39.707,67.39,37.813,65.062,37.813z"/>
	</g>
</g>
</svg>
