<?xml version="1.0" encoding="utf-8"?>
<!-- Generator: Adobe Illustrator 15.0.2, SVG Export Plug-In . SVG Version: 6.00 Build 0)  -->
<!DOCTYPE svg PUBLIC "-//W3C//DTD SVG 1.1//EN" "http://www.w3.org/Graphics/SVG/1.1/DTD/svg11.dtd">
<svg version="1.1" id="Laag_1" xmlns="http://www.w3.org/2000/svg" xmlns:xlink="http://www.w3.org/1999/xlink" x="0px" y="0px"
	 width="49.947px" height="49.947px" viewBox="0 0 49.947 49.947" enable-background="new 0 0 49.947 49.947" xml:space="preserve">
<g>
	<path d="M14.139,31.18c0,0.324-0.009,0.596-0.028,0.813c-0.019,0.218-0.044,0.402-0.075,0.552s-0.068,0.271-0.112,0.365
		c-0.043,0.093-0.14,0.212-0.29,0.354c-0.15,0.144-0.406,0.318-0.767,0.524c-0.362,0.206-0.773,0.39-1.235,0.552
		s-0.963,0.293-1.506,0.393s-1.101,0.149-1.674,0.149c-1.285,0-2.423-0.199-3.414-0.599c-0.992-0.398-1.824-0.988-2.498-1.768
		s-1.182-1.73-1.524-2.853c-0.343-1.122-0.515-2.406-0.515-3.854c0-1.671,0.209-3.114,0.627-4.33c0.417-1.217,1-2.224,1.749-3.021
		c0.748-0.798,1.633-1.391,2.656-1.777c1.022-0.386,2.145-0.58,3.367-0.58c0.499,0,0.988,0.043,1.468,0.131s0.929,0.206,1.347,0.355
		c0.417,0.15,0.792,0.318,1.122,0.506c0.331,0.187,0.564,0.349,0.702,0.486c0.137,0.137,0.234,0.252,0.29,0.346
		s0.1,0.215,0.131,0.365c0.031,0.149,0.056,0.333,0.075,0.552c0.019,0.218,0.028,0.483,0.028,0.795c0,0.723-0.062,1.231-0.187,1.524
		c-0.125,0.293-0.287,0.439-0.486,0.439c-0.212,0-0.437-0.087-0.674-0.262s-0.518-0.368-0.842-0.58s-0.71-0.405-1.16-0.58
		c-0.449-0.174-0.985-0.262-1.609-0.262c-1.222,0-2.158,0.471-2.806,1.412c-0.649,0.942-0.973,2.323-0.973,4.144
		c0,0.898,0.081,1.69,0.243,2.376c0.162,0.686,0.402,1.26,0.72,1.721c0.318,0.462,0.717,0.808,1.197,1.038
		c0.479,0.231,1.038,0.347,1.674,0.347c0.648,0,1.207-0.097,1.674-0.29s0.876-0.408,1.226-0.646
		c0.349-0.236,0.642-0.452,0.879-0.646s0.437-0.29,0.599-0.29c0.112,0,0.206,0.031,0.281,0.094s0.134,0.178,0.178,0.346
		c0.043,0.169,0.078,0.384,0.103,0.646S14.139,30.768,14.139,31.18z"/>
	<path d="M34.229,25.324c0,1.422-0.188,2.719-0.561,3.891c-0.375,1.173-0.941,2.183-1.703,3.03c-0.76,0.849-1.715,1.504-2.861,1.965
		c-1.148,0.461-2.488,0.692-4.022,0.692c-1.484,0-2.775-0.206-3.873-0.618c-1.098-0.411-2.008-1.01-2.731-1.795
		c-0.724-0.786-1.26-1.753-1.609-2.9c-0.349-1.146-0.524-2.456-0.524-3.928c0-1.422,0.19-2.722,0.571-3.9
		c0.38-1.179,0.951-2.188,1.711-3.03s1.712-1.493,2.853-1.955s2.479-0.692,4.012-0.692c1.498,0,2.795,0.203,3.893,0.608
		c1.096,0.405,2.004,1.001,2.721,1.786c0.717,0.786,1.25,1.752,1.6,2.899S34.229,23.84,34.229,25.324z M29.385,25.512
		c0-0.823-0.066-1.581-0.197-2.273s-0.354-1.294-0.664-1.805c-0.312-0.512-0.727-0.91-1.244-1.197s-1.17-0.431-1.955-0.431
		c-0.699,0-1.31,0.128-1.833,0.384s-0.954,0.63-1.291,1.122c-0.337,0.493-0.589,1.085-0.758,1.777s-0.252,1.48-0.252,2.366
		c0,0.823,0.068,1.581,0.206,2.272c0.137,0.692,0.358,1.294,0.664,1.806s0.72,0.907,1.244,1.188
		c0.524,0.281,1.172,0.421,1.945,0.421c0.711,0,1.329-0.127,1.852-0.383s0.955-0.627,1.291-1.113s0.586-1.076,0.748-1.768
		C29.303,27.186,29.385,26.396,29.385,25.512z"/>
	<path d="M49.7,29.122c0,0.947-0.178,1.783-0.533,2.506c-0.355,0.724-0.857,1.328-1.506,1.814s-1.415,0.852-2.301,1.095
		s-1.846,0.365-2.881,0.365c-0.624,0-1.219-0.047-1.786-0.141s-1.076-0.212-1.524-0.355c-0.449-0.144-0.823-0.29-1.123-0.439
		c-0.299-0.149-0.518-0.29-0.654-0.421c-0.138-0.131-0.243-0.337-0.318-0.617c-0.074-0.281-0.112-0.695-0.112-1.244
		c0-0.361,0.013-0.651,0.038-0.87c0.024-0.218,0.062-0.393,0.112-0.523c0.049-0.131,0.112-0.219,0.187-0.262
		c0.075-0.044,0.169-0.065,0.28-0.065c0.138,0,0.34,0.077,0.608,0.233c0.268,0.156,0.602,0.327,1.001,0.515
		c0.398,0.187,0.863,0.361,1.394,0.523s1.132,0.243,1.805,0.243c0.424,0,0.802-0.043,1.132-0.131
		c0.331-0.087,0.617-0.212,0.86-0.374c0.244-0.162,0.428-0.368,0.553-0.617c0.124-0.25,0.187-0.536,0.187-0.86
		c0-0.374-0.115-0.695-0.346-0.964c-0.231-0.268-0.536-0.502-0.917-0.701s-0.811-0.387-1.291-0.562
		c-0.479-0.175-0.973-0.367-1.478-0.58c-0.505-0.212-0.998-0.455-1.478-0.729c-0.48-0.273-0.91-0.61-1.291-1.01
		s-0.686-0.879-0.916-1.44c-0.231-0.562-0.347-1.234-0.347-2.021c0-0.798,0.156-1.53,0.468-2.198
		c0.312-0.667,0.761-1.237,1.347-1.711c0.586-0.475,1.301-0.842,2.143-1.104c0.842-0.261,1.786-0.393,2.834-0.393
		c0.523,0,1.031,0.038,1.524,0.112c0.492,0.075,0.938,0.169,1.337,0.28c0.399,0.112,0.736,0.234,1.011,0.365
		c0.273,0.131,0.471,0.243,0.589,0.337s0.203,0.187,0.253,0.28s0.087,0.206,0.112,0.337c0.024,0.131,0.047,0.293,0.065,0.486
		s0.027,0.434,0.027,0.72c0,0.337-0.009,0.611-0.027,0.823c-0.019,0.213-0.05,0.381-0.094,0.505
		c-0.044,0.125-0.103,0.209-0.178,0.253s-0.162,0.065-0.262,0.065c-0.112,0-0.287-0.065-0.524-0.196
		c-0.236-0.131-0.533-0.271-0.888-0.421c-0.355-0.149-0.768-0.29-1.235-0.421s-1.001-0.196-1.6-0.196
		c-0.424,0-0.792,0.044-1.104,0.131s-0.567,0.212-0.767,0.374s-0.35,0.353-0.449,0.57c-0.1,0.219-0.149,0.452-0.149,0.702
		c0,0.387,0.118,0.711,0.355,0.973c0.236,0.262,0.549,0.492,0.936,0.691c0.386,0.2,0.826,0.387,1.318,0.562s0.991,0.365,1.497,0.57
		c0.505,0.206,1.003,0.446,1.496,0.721c0.492,0.274,0.933,0.611,1.318,1.01c0.387,0.399,0.699,0.877,0.936,1.432
		C49.582,27.703,49.7,28.361,49.7,29.122z"/>
</g>
</svg>
