<?xml version="1.0" encoding="utf-8"?>
<!-- Generator: Adobe Illustrator 15.0.2, SVG Export Plug-In . SVG Version: 6.00 Build 0)  -->
<!DOCTYPE svg PUBLIC "-//W3C//DTD SVG 1.1//EN" "http://www.w3.org/Graphics/SVG/1.1/DTD/svg11.dtd">
<svg version="1.1" id="Laag_1" xmlns="http://www.w3.org/2000/svg" xmlns:xlink="http://www.w3.org/1999/xlink" x="0px" y="0px"
	 width="49.947px" height="49.947px" viewBox="0 0 49.947 49.947" enable-background="new 0 0 49.947 49.947" xml:space="preserve">
<g>
	<path d="M12.053,27.069c0,0.742-0.142,1.4-0.424,1.974c-0.283,0.573-0.677,1.056-1.182,1.446c-0.505,0.39-1.109,0.686-1.813,0.889
		s-1.472,0.304-2.306,0.304c-0.505,0-0.979-0.036-1.423-0.108C4.462,31.5,4.07,31.411,3.73,31.304s-0.622-0.219-0.843-0.333
		c-0.222-0.114-0.367-0.202-0.436-0.265C2.382,30.646,2.33,30.577,2.296,30.5c-0.035-0.076-0.065-0.166-0.092-0.27
		c-0.027-0.103-0.046-0.233-0.058-0.39c-0.011-0.157-0.017-0.346-0.017-0.568c0-0.367,0.031-0.621,0.092-0.763
		s0.153-0.212,0.275-0.212c0.076,0,0.208,0.051,0.396,0.154c0.187,0.104,0.426,0.215,0.717,0.333s0.631,0.229,1.021,0.333
		c0.39,0.103,0.833,0.154,1.331,0.154c0.42,0,0.792-0.049,1.113-0.148s0.595-0.24,0.82-0.42s0.394-0.396,0.505-0.653
		s0.166-0.541,0.166-0.854c0-0.344-0.067-0.654-0.201-0.93s-0.333-0.51-0.596-0.705c-0.264-0.195-0.597-0.346-0.999-0.454
		c-0.401-0.107-0.874-0.161-1.417-0.161H4.068c-0.1,0-0.184-0.013-0.252-0.04s-0.126-0.082-0.172-0.167
		c-0.046-0.084-0.079-0.201-0.098-0.35c-0.019-0.149-0.029-0.342-0.029-0.58c0-0.222,0.01-0.403,0.029-0.545s0.05-0.25,0.092-0.327
		c0.042-0.076,0.096-0.13,0.161-0.161c0.065-0.03,0.144-0.046,0.235-0.046H5.33c0.443,0,0.837-0.051,1.182-0.155
		c0.344-0.103,0.633-0.25,0.866-0.441c0.233-0.191,0.411-0.423,0.533-0.694s0.184-0.572,0.184-0.9c0-0.252-0.042-0.492-0.126-0.717
		c-0.084-0.226-0.208-0.42-0.373-0.585s-0.377-0.294-0.637-0.39c-0.26-0.096-0.566-0.144-0.918-0.144
		c-0.397,0-0.772,0.06-1.124,0.178c-0.352,0.119-0.667,0.249-0.947,0.39c-0.279,0.142-0.516,0.274-0.711,0.396
		c-0.195,0.123-0.339,0.184-0.431,0.184c-0.061,0-0.115-0.013-0.161-0.04c-0.045-0.027-0.084-0.079-0.114-0.155
		c-0.031-0.076-0.054-0.187-0.069-0.333c-0.016-0.145-0.023-0.333-0.023-0.562c0-0.191,0.003-0.35,0.011-0.476
		c0.007-0.126,0.023-0.231,0.046-0.315c0.023-0.084,0.052-0.157,0.086-0.218c0.035-0.061,0.09-0.128,0.167-0.201
		c0.076-0.073,0.233-0.182,0.47-0.327c0.237-0.145,0.536-0.287,0.895-0.424s0.774-0.254,1.245-0.35
		c0.471-0.095,0.981-0.143,1.532-0.143c0.719,0,1.355,0.084,1.91,0.252c0.555,0.168,1.021,0.411,1.4,0.729
		c0.378,0.317,0.665,0.708,0.86,1.17c0.195,0.463,0.292,0.985,0.292,1.566c0,0.452-0.057,0.872-0.172,1.262
		s-0.283,0.738-0.505,1.044c-0.222,0.306-0.499,0.566-0.832,0.78c-0.333,0.214-0.717,0.375-1.153,0.482v0.034
		c0.52,0.062,0.987,0.193,1.399,0.396c0.413,0.203,0.763,0.457,1.05,0.763c0.287,0.306,0.507,0.652,0.66,1.039
		C11.977,26.212,12.053,26.626,12.053,27.069z"/>
	<path d="M25.435,26.462c0,0.75-0.115,1.443-0.344,2.082s-0.566,1.189-1.009,1.652c-0.444,0.463-0.991,0.826-1.641,1.09
		c-0.65,0.264-1.4,0.396-2.249,0.396c-0.688,0-1.289-0.078-1.801-0.235c-0.513-0.156-0.957-0.382-1.331-0.677
		c-0.375-0.294-0.681-0.651-0.918-1.072c-0.237-0.421-0.426-0.896-0.568-1.423s-0.239-1.102-0.292-1.721s-0.08-1.277-0.08-1.974
		c0-0.581,0.028-1.189,0.086-1.824c0.057-0.635,0.168-1.258,0.333-1.87s0.396-1.195,0.694-1.75c0.298-0.554,0.683-1.04,1.153-1.457
		c0.47-0.417,1.04-0.748,1.709-0.992s1.463-0.367,2.381-0.367c0.291,0,0.583,0.017,0.877,0.052c0.294,0.034,0.568,0.079,0.82,0.132
		c0.252,0.054,0.466,0.115,0.643,0.184c0.176,0.069,0.292,0.128,0.35,0.178c0.058,0.05,0.102,0.105,0.132,0.167
		c0.03,0.061,0.055,0.128,0.074,0.201s0.033,0.163,0.041,0.27c0.007,0.107,0.011,0.237,0.011,0.39c0,0.237-0.006,0.434-0.017,0.591
		c-0.012,0.157-0.033,0.279-0.063,0.367c-0.031,0.088-0.073,0.151-0.126,0.189c-0.054,0.038-0.119,0.057-0.195,0.057
		c-0.092,0-0.21-0.024-0.356-0.075c-0.145-0.049-0.321-0.105-0.528-0.166c-0.206-0.061-0.449-0.115-0.729-0.161
		s-0.602-0.069-0.969-0.069c-0.62,0-1.144,0.115-1.572,0.344s-0.776,0.541-1.044,0.935c-0.268,0.394-0.463,0.851-0.585,1.371
		c-0.123,0.521-0.188,1.071-0.195,1.652c0.168-0.107,0.361-0.214,0.58-0.321c0.218-0.107,0.455-0.199,0.711-0.275
		c0.256-0.076,0.534-0.14,0.832-0.189c0.298-0.049,0.616-0.074,0.952-0.074c0.75,0,1.392,0.103,1.927,0.31
		c0.536,0.207,0.974,0.501,1.314,0.883c0.34,0.383,0.591,0.845,0.751,1.388C25.355,25.192,25.435,25.796,25.435,26.462z
		 M22.475,26.749c0-0.391-0.034-0.732-0.103-1.027c-0.069-0.294-0.18-0.543-0.333-0.746c-0.153-0.203-0.355-0.355-0.608-0.459
		c-0.252-0.103-0.559-0.155-0.918-0.155c-0.214,0-0.424,0.019-0.631,0.057c-0.207,0.039-0.409,0.092-0.608,0.161
		c-0.199,0.069-0.39,0.151-0.574,0.247c-0.184,0.096-0.355,0.197-0.516,0.304c0,0.818,0.046,1.501,0.138,2.048
		s0.227,0.98,0.407,1.303c0.18,0.32,0.405,0.549,0.677,0.682c0.271,0.135,0.587,0.201,0.946,0.201c0.352,0,0.66-0.064,0.924-0.195
		c0.264-0.129,0.483-0.312,0.66-0.551c0.176-0.236,0.31-0.514,0.401-0.832C22.429,27.47,22.475,27.124,22.475,26.749z"/>
	<path d="M38.588,23.938c0,1.186-0.096,2.256-0.287,3.211c-0.191,0.957-0.503,1.771-0.936,2.444
		c-0.432,0.673-0.994,1.189-1.687,1.549c-0.691,0.359-1.539,0.539-2.541,0.539c-1.017,0-1.858-0.174-2.523-0.522
		c-0.666-0.348-1.193-0.848-1.584-1.502c-0.39-0.654-0.663-1.453-0.82-2.398c-0.156-0.944-0.234-2.013-0.234-3.207
		c0-1.178,0.097-2.247,0.292-3.207c0.195-0.959,0.509-1.776,0.941-2.449c0.432-0.673,0.994-1.189,1.687-1.549
		c0.691-0.359,1.535-0.539,2.529-0.539c1.018,0,1.86,0.174,2.529,0.522c0.67,0.348,1.199,0.849,1.59,1.503
		c0.39,0.654,0.661,1.453,0.814,2.397C38.51,21.676,38.588,22.745,38.588,23.938z M35.547,24.087c0-0.704-0.019-1.325-0.057-1.864
		c-0.039-0.539-0.098-1.008-0.178-1.405c-0.081-0.398-0.181-0.734-0.299-1.01s-0.262-0.495-0.43-0.66
		c-0.169-0.165-0.36-0.281-0.574-0.35s-0.451-0.103-0.711-0.103c-0.451,0-0.824,0.109-1.119,0.327
		c-0.294,0.218-0.527,0.545-0.699,0.981c-0.173,0.436-0.293,0.979-0.361,1.629c-0.069,0.65-0.104,1.407-0.104,2.271
		c0,1.056,0.042,1.93,0.126,2.621c0.084,0.693,0.216,1.244,0.396,1.652c0.18,0.409,0.411,0.696,0.694,0.861
		c0.283,0.164,0.623,0.246,1.021,0.246c0.298,0,0.562-0.048,0.791-0.144s0.431-0.239,0.603-0.431
		c0.172-0.19,0.315-0.432,0.431-0.723c0.114-0.29,0.208-0.627,0.281-1.01c0.072-0.382,0.122-0.814,0.148-1.296
		C35.534,25.2,35.547,24.668,35.547,24.087z"/>
	<path d="M47.597,18.488c0,0.428-0.078,0.826-0.235,1.193c-0.156,0.367-0.378,0.688-0.665,0.964s-0.627,0.492-1.021,0.648
		c-0.394,0.157-0.828,0.235-1.302,0.235c-0.475,0-0.902-0.072-1.285-0.218c-0.383-0.145-0.711-0.346-0.986-0.603
		c-0.275-0.256-0.486-0.564-0.631-0.923c-0.146-0.359-0.219-0.753-0.219-1.182s0.081-0.826,0.241-1.193
		c0.161-0.367,0.383-0.686,0.665-0.958c0.283-0.271,0.622-0.487,1.016-0.648s0.824-0.241,1.291-0.241
		c0.474,0,0.904,0.073,1.29,0.218c0.387,0.146,0.716,0.346,0.987,0.602c0.271,0.256,0.481,0.564,0.631,0.924
		S47.597,18.06,47.597,18.488z M45.624,18.557c0-0.184-0.03-0.357-0.092-0.522c-0.061-0.165-0.145-0.304-0.252-0.419
		s-0.237-0.203-0.391-0.264c-0.152-0.061-0.317-0.092-0.493-0.092c-0.16,0-0.315,0.033-0.464,0.098
		c-0.149,0.065-0.275,0.155-0.379,0.27s-0.186,0.25-0.247,0.407s-0.092,0.323-0.092,0.499c0,0.184,0.03,0.357,0.092,0.522
		s0.146,0.304,0.253,0.419c0.106,0.115,0.236,0.205,0.39,0.27s0.317,0.097,0.493,0.097c0.161,0,0.315-0.032,0.465-0.097
		s0.277-0.157,0.385-0.275c0.106-0.119,0.189-0.256,0.246-0.413C45.595,18.899,45.624,18.733,45.624,18.557z"/>
</g>
</svg>
