<?xml version="1.0" encoding="utf-8"?>
<!-- Generator: Adobe Illustrator 15.0.0, SVG Export Plug-In . SVG Version: 6.00 Build 0)  -->
<svg version="1.2" baseProfile="tiny" id="Laag_1" xmlns="http://www.w3.org/2000/svg" xmlns:xlink="http://www.w3.org/1999/xlink"
	 x="0px" y="0px" width="128px" height="128px" viewBox="0 0 128 128" overflow="inherit" xml:space="preserve">
<g>
	<rect x="94.399" y="14.476" transform="matrix(-0.7069 -0.7073 0.7073 -0.7069 156.8998 97.8334)" width="8.639" height="3.868"/>
	<rect x="82.954" y="2.579" transform="matrix(0.707 0.7072 -0.7072 0.707 28.6271 -60.0758)" width="7.737" height="3.869"/>
	<rect x="11.972" y="96.922" transform="matrix(-0.7068 -0.7074 0.7074 -0.7068 -42.121 180.253)" width="8.641" height="3.866"/>
	<rect x="0.521" y="85.021" transform="matrix(0.707 0.7072 -0.7072 0.707 62.7818 22.3758)" width="7.733" height="3.865"/>
	<path d="M113.604,17.183c-7.779,0-14.107,6.329-14.107,14.108s6.328,14.11,14.107,14.11c7.781,0,14.109-6.331,14.109-14.11
		C127.715,23.511,121.385,17.183,113.604,17.183z M113.604,37.663c-3.516,0-6.375-2.859-6.375-6.373
		c0-3.515,2.859-6.375,6.375-6.375c3.514,0,6.373,2.86,6.373,6.375C119.977,34.804,117.117,37.663,113.604,37.663z"/>
	<polygon points="71.773,26.968 26.123,72.614 19.87,66.321 12.09,90.341 36.167,82.728 28.85,75.36 74.5,29.712 81.727,36.984 
		89.496,12.963 65.424,20.579 	"/>
	<path d="M31.414,99.373c-7.777,0-14.108,6.329-14.108,14.106c0,7.781,6.33,14.11,14.108,14.11c7.781,0,14.111-6.329,14.111-14.11
		C45.525,105.702,39.195,99.373,31.414,99.373z M25.04,113.481c0-3.516,2.86-6.375,6.374-6.375c3.514,0,6.374,2.859,6.374,6.375
		c0,3.514-2.86,6.373-6.374,6.373C27.9,119.854,25.04,116.993,25.04,113.481z"/>
</g>
</svg>
