<?xml version="1.0" encoding="utf-8"?>
<!-- Generator: Adobe Illustrator 15.0.2, SVG Export Plug-In . SVG Version: 6.00 Build 0)  -->
<!DOCTYPE svg PUBLIC "-//W3C//DTD SVG 1.1//EN" "http://www.w3.org/Graphics/SVG/1.1/DTD/svg11.dtd">
<svg version="1.1" id="Layer_1" xmlns="http://www.w3.org/2000/svg" xmlns:xlink="http://www.w3.org/1999/xlink" x="0px" y="0px"
	 width="128px" height="128px" viewBox="0 0 128 128" enable-background="new 0 0 128 128" xml:space="preserve">
<g id="Laag_1">
</g>
<g>
	<path d="M48.005,30.761c0,0.677-0.036,1.245-0.109,1.704c-0.072,0.459-0.181,0.827-0.326,1.104
		c-0.145,0.278-0.314,0.478-0.507,0.599c-0.194,0.121-0.399,0.181-0.616,0.181H35.175v12.287c0,0.242-0.061,0.453-0.181,0.635
		c-0.122,0.181-0.326,0.339-0.616,0.471c-0.29,0.134-0.677,0.236-1.16,0.309c-0.483,0.073-1.087,0.108-1.812,0.108
		c-0.725,0-1.329-0.036-1.812-0.108c-0.483-0.072-0.87-0.175-1.16-0.309c-0.29-0.132-0.502-0.29-0.634-0.471
		c-0.133-0.182-0.199-0.393-0.199-0.635V34.349H16.364c-0.218,0-0.417-0.06-0.598-0.181c-0.181-0.121-0.344-0.32-0.489-0.599
		c-0.145-0.277-0.26-0.646-0.344-1.104c-0.085-0.459-0.127-1.027-0.127-1.704c0-0.652,0.036-1.214,0.109-1.686
		c0.072-0.471,0.175-0.846,0.308-1.123c0.132-0.277,0.284-0.478,0.453-0.599c0.169-0.12,0.363-0.181,0.58-0.181H27.6v-12.25
		c0-0.241,0.066-0.465,0.199-0.671c0.132-0.205,0.344-0.374,0.634-0.507c0.29-0.133,0.676-0.236,1.16-0.309
		c0.484-0.073,1.087-0.108,1.812-0.108c0.725,0,1.329,0.036,1.812,0.108c0.483,0.072,0.87,0.176,1.16,0.309
		c0.29,0.133,0.495,0.302,0.616,0.507c0.121,0.206,0.181,0.43,0.181,0.671v12.251h11.381c0.193,0,0.38,0.061,0.562,0.181
		c0.181,0.121,0.338,0.321,0.471,0.599c0.133,0.278,0.236,0.652,0.308,1.123C47.969,29.547,48.005,30.109,48.005,30.761z"/>
</g>
<g>
	<path d="M114.252,30.743c0,1.257-0.127,2.156-0.381,2.7c-0.254,0.545-0.658,0.816-1.215,0.816H83.081
		c-0.604,0-1.032-0.271-1.286-0.816c-0.254-0.543-0.381-1.443-0.381-2.7c0-1.232,0.127-2.126,0.381-2.682s0.682-0.834,1.286-0.834
		h29.575c0.557,0,0.961,0.267,1.215,0.798C114.125,28.556,114.252,29.463,114.252,30.743z"/>
</g>
<g>
	<path d="M36.226,96.864l10.04,10.004c0.168,0.169,0.29,0.35,0.362,0.543c0.073,0.194,0.109,0.387,0.109,0.58
		c0,0.435-0.163,0.905-0.489,1.414c-0.326,0.507-0.713,0.973-1.16,1.395c-0.447,0.425-0.912,0.779-1.395,1.069
		c-0.484,0.29-0.882,0.436-1.196,0.436c-0.194,0-0.369-0.041-0.525-0.127c-0.158-0.085-0.308-0.188-0.453-0.309l-10.112-10.148
		l-10.076,10.004c-0.145,0.146-0.314,0.26-0.507,0.344c-0.194,0.086-0.399,0.127-0.616,0.127c-0.435,0-0.9-0.162-1.396-0.488
		s-0.955-0.712-1.377-1.159c-0.423-0.446-0.774-0.912-1.051-1.396c-0.278-0.483-0.417-0.883-0.417-1.196
		c0-0.362,0.145-0.688,0.435-0.979L26.55,96.865L16.51,86.789c-0.122-0.145-0.23-0.312-0.326-0.508
		c-0.097-0.192-0.145-0.387-0.145-0.579c0-0.459,0.163-0.937,0.489-1.433c0.326-0.494,0.712-0.955,1.16-1.377
		c0.447-0.423,0.912-0.779,1.396-1.069c0.483-0.29,0.894-0.435,1.232-0.435c0.362,0,0.688,0.156,0.979,0.471l10.112,10.148
		l10.04-10.04c0.145-0.146,0.308-0.26,0.489-0.345c0.182-0.084,0.393-0.127,0.634-0.127c0.435,0,0.906,0.17,1.414,0.508
		c0.508,0.339,0.973,0.73,1.396,1.178c0.422,0.447,0.773,0.906,1.051,1.377c0.277,0.473,0.417,0.864,0.417,1.18
		c0,0.145-0.03,0.308-0.09,0.488c-0.061,0.182-0.176,0.344-0.344,0.489L36.226,96.864z"/>
</g>
<path d="M128,63.25V128H63.25v-0.346c-0.849-0.044-1.497-0.162-1.932-0.36c-0.556-0.254-0.834-0.683-0.834-1.287V67.191H1.668
	c-0.604,0-1.033-0.271-1.287-0.816C0.127,65.831,0,64.932,0,63.675c0-1.233,0.127-2.126,0.381-2.682
	c0.254-0.556,0.683-0.834,1.287-0.834h58.816V1.595c0-0.556,0.267-0.96,0.798-1.214C61.813,0.127,62.72,0,64,0
	c1.257,0,2.156,0.127,2.701,0.381s0.816,0.658,0.816,1.214v58.564h58.887c0.557,0,0.961,0.267,1.215,0.798
	c0.224,0.467,0.343,1.244,0.369,2.293H128z M118.615,92.84c-0.103-0.63-0.232-1.134-0.384-1.511
	c-0.153-0.376-0.352-0.649-0.592-0.82c-0.237-0.172-0.495-0.257-0.769-0.257h-44.55c-0.311,0-0.584,0.085-0.821,0.257
	c-0.239,0.171-0.437,0.444-0.591,0.82c-0.152,0.376-0.264,0.881-0.332,1.511c-0.067,0.633-0.102,1.412-0.102,2.335
	c0,0.922,0.036,1.699,0.102,2.33c0.067,0.633,0.18,1.147,0.332,1.54c0.154,0.393,0.352,0.674,0.591,0.846
	c0.237,0.172,0.511,0.256,0.821,0.256h44.553c0.272,0,0.528-0.084,0.769-0.256c0.237-0.172,0.437-0.455,0.589-0.846
	c0.153-0.393,0.284-0.907,0.385-1.54c0.103-0.631,0.153-1.408,0.153-2.33C118.77,94.252,118.719,93.473,118.615,92.84z
	 M101.671,72.129c-0.255-1.009-0.665-1.818-1.229-2.435c-0.565-0.618-1.333-1.07-2.307-1.359c-0.976-0.29-2.164-0.438-3.563-0.438
	c-1.436,0-2.633,0.147-3.592,0.438c-0.954,0.289-1.715,0.741-2.279,1.359c-0.564,0.616-0.967,1.426-1.204,2.435
	c-0.239,1.008-0.359,2.229-0.359,3.666c0,1.436,0.12,2.632,0.359,3.589c0.237,0.958,0.642,1.743,1.204,2.359
	c0.564,0.611,1.324,1.058,2.279,1.331c0.959,0.271,2.156,0.411,3.592,0.411c1.401,0,2.589-0.14,3.563-0.411
	c0.975-0.273,1.743-0.719,2.307-1.331c0.563-0.616,0.974-1.401,1.229-2.359c0.257-0.957,0.386-2.153,0.386-3.589
	C102.057,74.358,101.929,73.137,101.671,72.129z M101.671,111.143c-0.255-1.006-0.665-1.819-1.229-2.434
	c-0.565-0.616-1.333-1.059-2.307-1.335c-0.976-0.271-2.164-0.408-3.563-0.408c-1.436,0-2.633,0.138-3.592,0.408
	c-0.954,0.276-1.715,0.718-2.279,1.335c-0.564,0.616-0.967,1.428-1.204,2.434c-0.239,1.008-0.359,2.249-0.359,3.719
	c0,1.4,0.12,2.588,0.359,3.561c0.237,0.976,0.642,1.763,1.204,2.359c0.564,0.6,1.324,1.035,2.279,1.308
	c0.959,0.273,2.156,0.411,3.592,0.411c1.401,0,2.589-0.138,3.563-0.411s1.743-0.708,2.307-1.308
	c0.563-0.597,0.974-1.384,1.229-2.359c0.257-0.973,0.386-2.16,0.386-3.561C102.057,113.392,101.928,112.15,101.671,111.143z"/>
</svg>
