<?xml version="1.0" encoding="utf-8"?>
<!-- Generator: Adobe Illustrator 15.0.2, SVG Export Plug-In . SVG Version: 6.00 Build 0)  -->
<!DOCTYPE svg PUBLIC "-//W3C//DTD SVG 1.1//EN" "http://www.w3.org/Graphics/SVG/1.1/DTD/svg11.dtd">
<svg version="1.1" id="Laag_1" xmlns="http://www.w3.org/2000/svg" xmlns:xlink="http://www.w3.org/1999/xlink" x="0px" y="0px"
	 width="49.947px" height="49.947px" viewBox="0 0 49.947 49.947" enable-background="new 0 0 49.947 49.947" xml:space="preserve">
<g>
	<path d="M39.031,23.402c0,1.023-0.229,1.78-0.685,2.269c-0.456,0.49-1.084,0.734-1.885,0.734H18.341c0,1.269,0.15,2.42,0.451,3.454
		c0.3,1.034,0.778,1.914,1.435,2.637s1.501,1.273,2.537,1.651c1.034,0.379,2.274,0.567,3.721,0.567c1.469,0,2.759-0.105,3.871-0.316
		c1.112-0.212,2.074-0.445,2.887-0.701c0.812-0.256,1.485-0.489,2.019-0.701c0.534-0.211,0.968-0.316,1.302-0.316
		c0.2,0,0.367,0.039,0.501,0.116c0.134,0.078,0.244,0.217,0.334,0.417c0.088,0.2,0.149,0.484,0.183,0.852
		c0.034,0.367,0.051,0.829,0.051,1.385c0,0.489-0.012,0.907-0.033,1.251c-0.022,0.346-0.057,0.641-0.101,0.885
		c-0.045,0.245-0.111,0.45-0.2,0.617s-0.206,0.329-0.351,0.484s-0.539,0.367-1.185,0.634s-1.469,0.528-2.47,0.784
		s-2.146,0.479-3.437,0.668c-1.291,0.188-2.67,0.283-4.139,0.283c-2.647,0-4.967-0.334-6.958-1.001
		c-1.991-0.668-3.654-1.68-4.989-3.037c-1.335-1.356-2.331-3.07-2.987-5.14c-0.657-2.068-0.984-4.493-0.984-7.274
		c0-2.647,0.344-5.033,1.034-7.158c0.689-2.125,1.69-3.927,3.003-5.406c1.312-1.479,2.909-2.608,4.789-3.387
		c1.88-0.779,3.999-1.168,6.357-1.168c2.492,0,4.622,0.367,6.391,1.101c1.77,0.734,3.221,1.752,4.355,3.054
		c1.135,1.301,1.969,2.842,2.503,4.622c0.534,1.78,0.801,3.716,0.801,5.807V23.402z M30.888,20.999
		c0.066-2.357-0.406-4.21-1.418-5.556c-1.013-1.346-2.576-2.019-4.689-2.019c-1.067,0-1.997,0.2-2.786,0.601
		c-0.79,0.4-1.447,0.94-1.969,1.619c-0.523,0.679-0.923,1.479-1.201,2.402c-0.278,0.924-0.439,1.908-0.484,2.953H30.888z"/>
</g>
</svg>
