<?xml version="1.0" encoding="utf-8"?>
<!-- Generator: Adobe Illustrator 15.0.2, SVG Export Plug-In . SVG Version: 6.00 Build 0)  -->
<!DOCTYPE svg PUBLIC "-//W3C//DTD SVG 1.1//EN" "http://www.w3.org/Graphics/SVG/1.1/DTD/svg11.dtd">
<svg version="1.1" id="Laag_1" xmlns="http://www.w3.org/2000/svg" xmlns:xlink="http://www.w3.org/1999/xlink" x="0px" y="0px"
	 width="49.947px" height="49.947px" viewBox="0 0 49.947 49.947" enable-background="new 0 0 49.947 49.947" xml:space="preserve">
<g>
	<path d="M30.397,24.917c0,1.188-0.095,2.26-0.286,3.217c-0.191,0.958-0.504,1.773-0.937,2.448
		c-0.434,0.674-0.995,1.191-1.689,1.552c-0.693,0.359-1.542,0.539-2.546,0.539c-1.018,0-1.862-0.174-2.528-0.522
		c-0.667-0.349-1.195-0.851-1.585-1.505c-0.392-0.654-0.666-1.455-0.823-2.402c-0.157-0.945-0.235-2.016-0.235-3.212
		c0-1.18,0.097-2.25,0.293-3.212c0.195-0.961,0.509-1.778,0.942-2.453c0.433-0.674,0.996-1.191,1.689-1.552
		c0.694-0.36,1.537-0.54,2.535-0.54c1.018,0,1.863,0.174,2.534,0.523c0.669,0.349,1.201,0.85,1.591,1.506
		c0.392,0.655,0.662,1.455,0.815,2.401C30.322,22.65,30.397,23.721,30.397,24.917z M27.352,25.066c0-0.705-0.019-1.328-0.057-1.868
		s-0.099-1.009-0.178-1.408c-0.081-0.398-0.181-0.736-0.3-1.011c-0.119-0.276-0.263-0.496-0.43-0.661
		c-0.169-0.165-0.36-0.282-0.576-0.351c-0.214-0.069-0.452-0.104-0.713-0.104c-0.452,0-0.825,0.11-1.12,0.328
		s-0.528,0.546-0.7,0.982c-0.173,0.437-0.293,0.981-0.362,1.632c-0.069,0.651-0.104,1.41-0.104,2.276
		c0,1.056,0.041,1.932,0.125,2.625c0.085,0.694,0.218,1.245,0.397,1.655c0.18,0.41,0.413,0.697,0.695,0.861
		c0.283,0.166,0.625,0.248,1.023,0.248c0.299,0,0.562-0.049,0.792-0.145c0.231-0.096,0.432-0.239,0.604-0.431
		c0.172-0.191,0.315-0.433,0.431-0.724s0.209-0.629,0.281-1.012s0.122-0.816,0.15-1.299C27.339,26.181,27.352,25.647,27.352,25.066z
		"/>
	<path d="M10.244,13.904c0,0.221-0.009,0.411-0.029,0.569c-0.019,0.155-0.047,0.283-0.085,0.383
		c-0.039,0.101-0.089,0.173-0.149,0.214c-0.062,0.042-0.131,0.062-0.207,0.062H1.222c-0.169,0-0.313-0.014-0.437-0.045
		c-0.122-0.031-0.222-0.09-0.298-0.18c-0.078-0.086-0.133-0.217-0.168-0.383c-0.034-0.169-0.052-0.387-0.052-0.655
		c0-0.252,0.013-0.47,0.035-0.649c0.022-0.179,0.065-0.341,0.126-0.482c0.062-0.142,0.14-0.279,0.236-0.414
		c0.095-0.135,0.221-0.283,0.372-0.442l2.576-2.76C4.127,8.587,4.541,8.1,4.854,7.66c0.314-0.442,0.56-0.844,0.735-1.208
		c0.176-0.364,0.297-0.699,0.362-1.006C6.017,5.141,6.05,4.848,6.05,4.574c0-0.254-0.041-0.492-0.12-0.72
		c-0.081-0.224-0.2-0.422-0.357-0.59C5.415,3.095,5.219,2.962,4.98,2.867C4.744,2.771,4.465,2.723,4.142,2.723
		c-0.452,0-0.853,0.059-1.201,0.172C2.593,3.011,2.286,3.14,2.021,3.281c-0.264,0.142-0.484,0.271-0.66,0.39
		S1.047,3.849,0.947,3.849c-0.069,0-0.128-0.022-0.178-0.069c-0.05-0.046-0.09-0.123-0.121-0.229
		C0.617,3.443,0.594,3.299,0.574,3.119c-0.019-0.179-0.029-0.4-0.029-0.661c0-0.176,0.005-0.323,0.018-0.443
		c0.012-0.117,0.029-0.221,0.052-0.309c0.022-0.088,0.054-0.164,0.091-0.229C0.743,1.411,0.81,1.332,0.907,1.24
		c0.095-0.091,0.271-0.208,0.528-0.35c0.257-0.141,0.572-0.279,0.948-0.414c0.375-0.134,0.789-0.247,1.241-0.338
		C4.076,0.045,4.548,0,5.039,0c0.773,0,1.449,0.097,2.027,0.293c0.58,0.195,1.06,0.466,1.442,0.814
		C8.891,1.456,9.177,1.87,9.366,2.35c0.187,0.479,0.281,0.994,0.281,1.546c0,0.483-0.047,0.958-0.138,1.425
		C9.418,5.786,9.224,6.29,8.934,6.832c-0.291,0.54-0.702,1.137-1.229,1.793c-0.528,0.652-1.23,1.415-2.104,2.281l-1.735,1.781h5.86
		c0.078,0,0.148,0.024,0.214,0.069c0.063,0.044,0.121,0.117,0.166,0.214c0.046,0.093,0.081,0.221,0.104,0.376
		C10.232,13.504,10.244,13.69,10.244,13.904z"/>
	<path d="M49.538,10.727c0,0.394-0.041,0.69-0.12,0.891c-0.081,0.203-0.19,0.307-0.328,0.307h-1.321v2.688
		c0,0.075-0.024,0.145-0.069,0.2c-0.046,0.059-0.126,0.106-0.241,0.145s-0.264,0.065-0.448,0.086
		c-0.184,0.018-0.421,0.028-0.713,0.028c-0.276,0-0.507-0.011-0.695-0.028c-0.188-0.021-0.336-0.048-0.448-0.086
		c-0.11-0.038-0.188-0.086-0.229-0.145c-0.042-0.056-0.064-0.125-0.064-0.2v-2.688h-5.688c-0.107,0-0.204-0.014-0.286-0.041
		c-0.085-0.027-0.155-0.09-0.214-0.183c-0.058-0.097-0.099-0.235-0.126-0.414c-0.026-0.18-0.04-0.421-0.04-0.718
		c0-0.245,0.005-0.459,0.018-0.639c0.01-0.18,0.029-0.342,0.057-0.49c0.027-0.145,0.065-0.282,0.115-0.414
		c0.051-0.127,0.112-0.266,0.19-0.41l4.618-8.15c0.04-0.068,0.104-0.127,0.196-0.179c0.092-0.049,0.22-0.09,0.385-0.124
		c0.164-0.035,0.373-0.062,0.627-0.076c0.251-0.014,0.559-0.024,0.919-0.024c0.39,0,0.723,0.011,0.999,0.031
		c0.276,0.017,0.497,0.048,0.661,0.09c0.165,0.045,0.286,0.097,0.362,0.155c0.075,0.062,0.115,0.135,0.115,0.221v8.95h1.321
		c0.123,0,0.228,0.097,0.315,0.283C49.494,9.979,49.538,10.292,49.538,10.727z M44.859,2.67h-0.022l-3.918,6.839h3.94V2.67z"/>
	<path d="M10.381,44.72c0,0.752-0.114,1.445-0.343,2.084c-0.231,0.642-0.568,1.193-1.013,1.656c-0.443,0.462-0.992,0.828-1.643,1.09
		c-0.652,0.266-1.403,0.397-2.253,0.397c-0.688,0-1.291-0.076-1.805-0.235c-0.513-0.155-0.958-0.383-1.332-0.676
		c-0.376-0.297-0.683-0.656-0.919-1.077c-0.238-0.421-0.428-0.896-0.569-1.425c-0.142-0.527-0.24-1.104-0.293-1.722
		c-0.053-0.621-0.079-1.28-0.079-1.977c0-0.584,0.027-1.194,0.086-1.829c0.057-0.635,0.167-1.26,0.333-1.874
		c0.164-0.61,0.395-1.197,0.695-1.752c0.299-0.556,0.683-1.043,1.154-1.46c0.471-0.418,1.042-0.749,1.713-0.994
		c0.669-0.245,1.465-0.365,2.384-0.365c0.292,0,0.583,0.017,0.878,0.052c0.295,0.034,0.569,0.076,0.823,0.131
		c0.252,0.056,0.468,0.114,0.644,0.183c0.176,0.069,0.293,0.128,0.35,0.18c0.057,0.049,0.102,0.104,0.133,0.166
		c0.029,0.062,0.056,0.127,0.074,0.2c0.019,0.075,0.033,0.165,0.04,0.272c0.008,0.106,0.012,0.237,0.012,0.39
		c0,0.238-0.007,0.435-0.017,0.59c-0.012,0.159-0.033,0.283-0.064,0.369c-0.031,0.09-0.072,0.152-0.126,0.19
		c-0.053,0.037-0.119,0.059-0.195,0.059c-0.093,0-0.212-0.028-0.357-0.076c-0.145-0.049-0.321-0.104-0.528-0.166
		c-0.207-0.062-0.45-0.117-0.729-0.162S6.83,36.87,6.463,36.87c-0.621,0-1.146,0.113-1.575,0.345
		c-0.428,0.231-0.776,0.542-1.045,0.935c-0.268,0.397-0.464,0.856-0.587,1.374c-0.122,0.524-0.186,1.072-0.195,1.656
		c0.169-0.107,0.362-0.215,0.582-0.321c0.217-0.107,0.456-0.2,0.712-0.276c0.255-0.075,0.533-0.142,0.832-0.189
		c0.3-0.048,0.618-0.076,0.954-0.076c0.752,0,1.396,0.104,1.931,0.311c0.536,0.207,0.977,0.504,1.316,0.887
		c0.341,0.383,0.592,0.846,0.752,1.391C10.301,43.446,10.381,44.054,10.381,44.72z M7.417,45.006c0-0.39-0.035-0.731-0.104-1.028
		c-0.069-0.293-0.181-0.545-0.333-0.745c-0.154-0.204-0.357-0.359-0.609-0.463c-0.254-0.104-0.561-0.155-0.92-0.155
		c-0.215,0-0.426,0.021-0.633,0.06c-0.207,0.037-0.409,0.093-0.609,0.162c-0.198,0.068-0.39,0.151-0.574,0.244
		c-0.183,0.097-0.355,0.2-0.518,0.308c0,0.817,0.046,1.501,0.138,2.05c0.093,0.548,0.228,0.983,0.409,1.304
		c0.179,0.321,0.405,0.549,0.678,0.684c0.271,0.135,0.588,0.203,0.947,0.203c0.354,0,0.661-0.065,0.927-0.196
		c0.264-0.131,0.483-0.314,0.661-0.553c0.176-0.237,0.311-0.514,0.402-0.831C7.37,45.727,7.417,45.382,7.417,45.006z"/>
	<path d="M49.538,45.702c0,0.674-0.115,1.277-0.35,1.805c-0.233,0.529-0.578,0.977-1.034,1.34c-0.457,0.361-1.021,0.639-1.696,0.828
		c-0.674,0.186-1.45,0.279-2.332,0.279c-0.844,0-1.582-0.084-2.219-0.252c-0.635-0.17-1.168-0.414-1.598-0.742
		c-0.428-0.324-0.75-0.729-0.964-1.205c-0.216-0.479-0.323-1.031-0.323-1.648c0-0.421,0.064-0.818,0.19-1.19
		c0.128-0.372,0.313-0.718,0.563-1.035c0.249-0.317,0.56-0.618,0.93-0.897c0.373-0.279,0.799-0.545,1.283-0.797
		c-0.393-0.214-0.744-0.445-1.059-0.697c-0.313-0.248-0.581-0.521-0.804-0.814c-0.222-0.297-0.392-0.617-0.505-0.973
		c-0.116-0.352-0.173-0.734-0.173-1.148c0-0.598,0.104-1.139,0.315-1.625s0.524-0.908,0.941-1.264
		c0.418-0.358,0.941-0.631,1.568-0.82c0.631-0.193,1.356-0.291,2.185-0.291c0.819,0,1.523,0.09,2.108,0.266
		c0.586,0.177,1.068,0.426,1.442,0.746c0.376,0.324,0.653,0.707,0.833,1.156c0.182,0.448,0.271,0.945,0.271,1.486
		c0,0.363-0.061,0.711-0.178,1.053c-0.119,0.342-0.287,0.666-0.501,0.973c-0.214,0.305-0.479,0.594-0.794,0.866
		c-0.313,0.272-0.669,0.521-1.067,0.742c0.468,0.245,0.886,0.503,1.253,0.78c0.367,0.275,0.678,0.572,0.93,0.893
		c0.254,0.318,0.447,0.656,0.581,1.016C49.47,44.892,49.538,45.282,49.538,45.702z M46.55,45.909c0-0.282-0.047-0.541-0.143-0.775
		s-0.246-0.453-0.449-0.66c-0.201-0.207-0.457-0.406-0.764-0.6c-0.306-0.189-0.662-0.387-1.068-0.583
		c-0.352,0.189-0.662,0.383-0.932,0.573c-0.268,0.192-0.49,0.393-0.666,0.604c-0.176,0.21-0.309,0.432-0.396,0.666
		s-0.131,0.486-0.131,0.752c0,0.6,0.193,1.057,0.58,1.369c0.386,0.314,0.962,0.471,1.729,0.471c0.752,0,1.312-0.16,1.684-0.484
		C46.366,46.921,46.55,46.476,46.55,45.909z M46.206,38.484c0-0.266-0.039-0.507-0.115-0.722c-0.076-0.217-0.196-0.396-0.361-0.549
		c-0.164-0.147-0.368-0.262-0.609-0.338c-0.242-0.076-0.526-0.113-0.855-0.113c-0.645,0-1.123,0.148-1.438,0.441
		c-0.314,0.297-0.471,0.704-0.471,1.225c0,0.246,0.039,0.47,0.121,0.677c0.08,0.207,0.205,0.403,0.373,0.587
		c0.168,0.183,0.387,0.365,0.654,0.541c0.27,0.176,0.587,0.363,0.954,0.562c0.56-0.331,0.99-0.684,1.292-1.059
		C46.055,39.364,46.206,38.946,46.206,38.484z"/>
</g>
</svg>
