<?xml version="1.0" encoding="utf-8"?>
<!-- Generator: Adobe Illustrator 15.0.2, SVG Export Plug-In . SVG Version: 6.00 Build 0)  -->
<!DOCTYPE svg PUBLIC "-//W3C//DTD SVG 1.1//EN" "http://www.w3.org/Graphics/SVG/1.1/DTD/svg11.dtd">
<svg version="1.1" id="Laag_1" xmlns="http://www.w3.org/2000/svg" xmlns:xlink="http://www.w3.org/1999/xlink" x="0px" y="0px"
	 width="49.947px" height="49.947px" viewBox="0 0 49.947 49.947" enable-background="new 0 0 49.947 49.947" xml:space="preserve">
<g>
	<path d="M33.959,32.511c0.111,0.236,0.164,0.431,0.157,0.584c-0.008,0.153-0.108,0.278-0.303,0.376
		c-0.195,0.098-0.494,0.163-0.897,0.198c-0.404,0.034-0.939,0.052-1.607,0.052c-0.626,0-1.131-0.01-1.514-0.031
		c-0.383-0.021-0.682-0.062-0.897-0.125c-0.215-0.062-0.376-0.139-0.479-0.229c-0.104-0.091-0.185-0.205-0.24-0.345l-3.444-6.616
		L21.29,32.99c-0.056,0.14-0.133,0.254-0.23,0.345s-0.247,0.167-0.449,0.229s-0.483,0.104-0.845,0.125
		c-0.362,0.021-0.835,0.031-1.419,0.031c-0.612,0-1.099-0.018-1.461-0.052c-0.362-0.035-0.626-0.101-0.793-0.198
		s-0.254-0.223-0.261-0.376s0.052-0.348,0.178-0.584l5.155-9.164l-4.759-8.599c-0.125-0.25-0.191-0.463-0.198-0.637
		c-0.007-0.174,0.08-0.31,0.261-0.407c0.181-0.097,0.47-0.167,0.866-0.208c0.396-0.042,0.936-0.063,1.618-0.063
		c0.612,0,1.103,0.011,1.472,0.032c0.368,0.021,0.657,0.052,0.866,0.094c0.208,0.042,0.361,0.108,0.459,0.198
		c0.097,0.091,0.181,0.206,0.25,0.344l3.319,6.22l3.298-6.22c0.041-0.111,0.104-0.208,0.188-0.292s0.216-0.153,0.396-0.209
		c0.181-0.055,0.428-0.097,0.741-0.125s0.741-0.042,1.284-0.042c0.611,0,1.103,0.014,1.471,0.042
		c0.369,0.028,0.634,0.091,0.794,0.188c0.159,0.097,0.236,0.233,0.229,0.407c-0.008,0.174-0.087,0.4-0.24,0.679l-4.634,8.453
		L33.959,32.511z"/>
</g>
<polygon points="46.05,49.922 34.078,49.922 34.078,46.023 46.05,46.023 46.05,0.019 49.947,0.019 49.947,46.023 49.947,49.922 "/>
<polygon points="3.898,49.922 15.87,49.922 15.87,46.023 3.898,46.023 3.898,0 0,0 0,46.023 0,49.922 "/>
</svg>
