<?xml version="1.0" encoding="utf-8"?>
<!-- Generator: Adobe Illustrator 15.0.2, SVG Export Plug-In . SVG Version: 6.00 Build 0)  -->
<!DOCTYPE svg PUBLIC "-//W3C//DTD SVG 1.1//EN" "http://www.w3.org/Graphics/SVG/1.1/DTD/svg11.dtd">
<svg version="1.1" id="Layer_1" xmlns="http://www.w3.org/2000/svg" xmlns:xlink="http://www.w3.org/1999/xlink" x="0px" y="0px"
	 width="128px" height="128px" viewBox="0 0 128 128" enable-background="new 0 0 128 128" xml:space="preserve">
<g id="Laag_1">
</g>
<g>
	<path d="M48.005,30.761c0,0.677-0.036,1.245-0.109,1.704c-0.072,0.459-0.181,0.827-0.326,1.104
		c-0.145,0.278-0.314,0.478-0.507,0.599c-0.194,0.121-0.399,0.181-0.616,0.181H35.175v12.287c0,0.242-0.061,0.453-0.181,0.635
		c-0.122,0.181-0.326,0.339-0.616,0.471c-0.29,0.134-0.677,0.236-1.16,0.309s-1.087,0.108-1.812,0.108
		c-0.725,0-1.329-0.036-1.812-0.108s-0.87-0.175-1.16-0.309c-0.29-0.132-0.502-0.29-0.634-0.471
		c-0.133-0.182-0.199-0.393-0.199-0.635V34.349H16.364c-0.218,0-0.417-0.06-0.598-0.181s-0.344-0.32-0.489-0.599
		c-0.145-0.277-0.26-0.646-0.344-1.104c-0.085-0.459-0.127-1.027-0.127-1.704c0-0.652,0.036-1.214,0.109-1.686
		c0.072-0.471,0.175-0.846,0.308-1.123c0.132-0.277,0.284-0.478,0.453-0.599c0.169-0.12,0.363-0.181,0.58-0.181H27.6V14.922
		c0-0.241,0.066-0.465,0.199-0.671c0.132-0.205,0.344-0.374,0.634-0.507s0.676-0.236,1.16-0.309s1.087-0.108,1.812-0.108
		c0.725,0,1.329,0.036,1.812,0.108s0.87,0.176,1.16,0.309s0.495,0.302,0.616,0.507c0.121,0.206,0.181,0.43,0.181,0.671v12.251
		h11.381c0.193,0,0.38,0.061,0.562,0.181c0.181,0.121,0.338,0.321,0.471,0.599s0.236,0.652,0.308,1.123
		C47.969,29.547,48.005,30.109,48.005,30.761z"/>
</g>
<g>
	<path d="M114.252,30.743c0,1.257-0.127,2.156-0.381,2.7c-0.254,0.545-0.658,0.816-1.215,0.816H83.081
		c-0.604,0-1.032-0.271-1.286-0.816c-0.254-0.543-0.381-1.443-0.381-2.7c0-1.232,0.127-2.126,0.381-2.682s0.682-0.834,1.286-0.834
		h29.575c0.557,0,0.961,0.267,1.215,0.798S114.252,29.463,114.252,30.743z"/>
</g>
<path d="M127.619,60.957c-0.254-0.531-0.658-0.798-1.214-0.798H67.517V1.595c0-0.556-0.271-0.96-0.816-1.214
	C66.156,0.127,65.257,0,64,0c-1.28,0-2.187,0.127-2.718,0.381s-0.798,0.658-0.798,1.214v58.564H1.668
	c-0.604,0-1.033,0.278-1.287,0.834S0,62.442,0,63.675c0,1.257,0.127,2.156,0.381,2.7c0.254,0.545,0.683,0.816,1.287,0.816h58.816
	v58.816c0,0.605,0.278,1.033,0.834,1.287s1.449,0.381,2.682,0.381c1.257,0,2.156-0.127,2.7-0.381
	c0.545-0.254,0.816-0.682,0.816-1.287V67.191h58.889c0.556,0,0.96-0.271,1.214-0.816c0.254-0.544,0.381-1.443,0.381-2.7
	C128,62.395,127.873,61.488,127.619,60.957z"/>
<g>
	<path d="M36.226,96.864l10.04,10.004c0.168,0.169,0.29,0.35,0.362,0.543c0.073,0.194,0.109,0.387,0.109,0.58
		c0,0.435-0.163,0.906-0.489,1.414c-0.326,0.507-0.713,0.973-1.16,1.395c-0.447,0.424-0.912,0.779-1.395,1.069
		c-0.484,0.29-0.882,0.436-1.196,0.436c-0.194,0-0.369-0.042-0.525-0.127c-0.158-0.085-0.308-0.188-0.453-0.309l-10.112-10.148
		l-10.076,10.004c-0.145,0.145-0.314,0.26-0.507,0.344c-0.194,0.085-0.399,0.127-0.616,0.127c-0.435,0-0.9-0.163-1.396-0.489
		c-0.496-0.326-0.955-0.712-1.377-1.159c-0.423-0.447-0.774-0.912-1.051-1.396c-0.278-0.483-0.417-0.882-0.417-1.196
		c0-0.362,0.145-0.688,0.435-0.979l10.148-10.112l-10.04-10.076c-0.122-0.145-0.23-0.313-0.326-0.508
		c-0.097-0.192-0.145-0.386-0.145-0.579c0-0.459,0.163-0.937,0.489-1.432s0.712-0.955,1.16-1.378
		c0.447-0.422,0.912-0.779,1.396-1.069c0.483-0.29,0.894-0.435,1.232-0.435c0.362,0,0.688,0.157,0.979,0.471l10.112,10.149
		l10.04-10.04c0.145-0.146,0.308-0.26,0.489-0.345c0.182-0.084,0.393-0.127,0.634-0.127c0.435,0,0.906,0.17,1.414,0.508
		c0.508,0.339,0.973,0.731,1.396,1.178c0.422,0.447,0.773,0.906,1.051,1.377c0.277,0.472,0.417,0.864,0.417,1.179
		c0,0.145-0.03,0.308-0.09,0.489c-0.061,0.181-0.176,0.344-0.344,0.489L36.226,96.864z"/>
</g>
<g>
	<path d="M114.904,96.654c0,0.652-0.036,1.201-0.108,1.648s-0.164,0.811-0.272,1.088s-0.248,0.477-0.417,0.598
		s-0.35,0.182-0.543,0.182H82.066c-0.218,0-0.411-0.061-0.58-0.182s-0.308-0.32-0.417-0.598c-0.108-0.277-0.188-0.641-0.235-1.088
		s-0.072-0.996-0.072-1.648s0.024-1.203,0.072-1.65c0.048-0.445,0.127-0.803,0.235-1.068c0.109-0.266,0.248-0.459,0.417-0.58
		s0.362-0.182,0.58-0.182h31.497c0.193,0,0.374,0.061,0.543,0.182s0.309,0.314,0.417,0.58s0.2,0.623,0.272,1.068
		C114.868,95.451,114.904,96.002,114.904,96.654z M103.089,82.953c0,1.016-0.092,1.861-0.272,2.537
		c-0.181,0.678-0.472,1.232-0.87,1.668c-0.398,0.434-0.941,0.748-1.631,0.941c-0.688,0.193-1.528,0.291-2.519,0.291
		c-1.015,0-1.861-0.098-2.538-0.291c-0.676-0.193-1.213-0.508-1.612-0.941c-0.398-0.436-0.683-0.99-0.852-1.668
		c-0.169-0.676-0.254-1.521-0.254-2.537s0.085-1.879,0.254-2.592s0.453-1.285,0.852-1.721c0.399-0.436,0.937-0.756,1.612-0.961
		c0.677-0.205,1.523-0.309,2.538-0.309c0.99,0,1.83,0.104,2.519,0.309c0.689,0.205,1.232,0.525,1.631,0.961s0.689,1.008,0.87,1.721
		S103.089,81.938,103.089,82.953z M103.089,110.572c0,0.99-0.092,1.83-0.272,2.518c-0.181,0.689-0.472,1.246-0.87,1.668
		c-0.398,0.424-0.941,0.73-1.631,0.924c-0.688,0.193-1.528,0.291-2.519,0.291c-1.015,0-1.861-0.098-2.538-0.291
		c-0.676-0.193-1.213-0.5-1.612-0.924c-0.398-0.422-0.683-0.979-0.852-1.668c-0.169-0.688-0.254-1.527-0.254-2.518
		c0-1.039,0.085-1.916,0.254-2.629c0.169-0.711,0.453-1.285,0.852-1.721c0.399-0.436,0.937-0.748,1.612-0.943
		c0.677-0.191,1.523-0.289,2.538-0.289c0.99,0,1.83,0.098,2.519,0.289c0.689,0.195,1.232,0.508,1.631,0.943s0.689,1.01,0.87,1.721
		C102.997,108.656,103.089,109.533,103.089,110.572z"/>
</g>
</svg>
