<?xml version="1.0" encoding="utf-8"?>
<!-- Generator: Adobe Illustrator 15.0.0, SVG Export Plug-In . SVG Version: 6.00 Build 0)  -->
<svg version="1.2" baseProfile="tiny" id="Layer_1" xmlns="http://www.w3.org/2000/svg" xmlns:xlink="http://www.w3.org/1999/xlink"
	 x="0px" y="0px" width="128px" height="128px" viewBox="0 0 128 128" overflow="inherit" xml:space="preserve">
<g id="Laag_1">
</g>
<g id="Layer_2">
	<path d="M0,0v59h59V0H0z M40.165,30.614c-0.047,0.297-0.117,0.535-0.211,0.715c-0.094,0.18-0.203,0.309-0.328,0.387
		s-0.258,0.117-0.398,0.117h-7.289v7.945c0,0.156-0.039,0.293-0.117,0.41c-0.078,0.116-0.211,0.219-0.398,0.305
		s-0.438,0.152-0.75,0.199s-0.703,0.069-1.172,0.069c-0.469,0-0.859-0.022-1.172-0.069s-0.562-0.113-0.75-0.199
		s-0.324-0.188-0.41-0.305c-0.086-0.117-0.129-0.254-0.129-0.41v-7.945h-7.266c-0.141,0-0.27-0.039-0.387-0.117
		c-0.117-0.078-0.223-0.207-0.316-0.387c-0.093-0.18-0.168-0.418-0.223-0.715c-0.055-0.297-0.082-0.664-0.082-1.103
		c0-0.422,0.023-0.784,0.07-1.09c0.047-0.305,0.113-0.547,0.199-0.727c0.086-0.181,0.184-0.31,0.293-0.387
		c0.109-0.078,0.234-0.117,0.375-0.117h7.336V19.27c0-0.156,0.043-0.302,0.129-0.435s0.223-0.242,0.41-0.328
		c0.188-0.086,0.438-0.151,0.75-0.198c0.312-0.048,0.703-0.07,1.172-0.07c0.469,0,0.859,0.022,1.172,0.07
		c0.313,0.047,0.562,0.112,0.75,0.198s0.32,0.195,0.398,0.328s0.117,0.277,0.117,0.435v7.922h7.359c0.125,0,0.246,0.039,0.363,0.117
		c0.117,0.077,0.219,0.206,0.305,0.387c0.086,0.18,0.152,0.422,0.199,0.727c0.047,0.306,0.07,0.668,0.07,1.09
		C40.235,29.95,40.211,30.317,40.165,30.614z"/>
	<path d="M0,69v59h59V69H0z M39.426,109.61c-0.219,0.108-0.555,0.185-1.008,0.224s-1.055,0.059-1.805,0.059
		c-0.703,0-1.27-0.012-1.699-0.035c-0.429-0.023-0.766-0.07-1.008-0.141c-0.242-0.071-0.422-0.156-0.539-0.258
		c-0.117-0.103-0.207-0.23-0.27-0.388l-3.867-7.43l-3.867,7.43c-0.062,0.156-0.148,0.285-0.258,0.388
		c-0.11,0.102-0.277,0.188-0.504,0.258c-0.227,0.069-0.543,0.117-0.949,0.141c-0.406,0.023-0.938,0.035-1.594,0.035
		c-0.688,0-1.234-0.02-1.641-0.059c-0.407-0.039-0.703-0.113-0.891-0.224s-0.285-0.25-0.293-0.422s0.059-0.392,0.199-0.656
		l5.789-10.289l-5.344-9.655c-0.141-0.281-0.215-0.521-0.223-0.715c-0.008-0.195,0.09-0.349,0.293-0.457
		c0.203-0.109,0.527-0.188,0.973-0.234c0.446-0.047,1.051-0.07,1.816-0.07c0.688,0,1.238,0.012,1.652,0.035
		c0.414,0.023,0.738,0.059,0.973,0.105c0.235,0.045,0.406,0.121,0.516,0.223s0.203,0.229,0.281,0.387l3.727,6.984l3.703-6.984
		c0.047-0.125,0.117-0.234,0.211-0.328c0.094-0.094,0.242-0.172,0.445-0.234c0.203-0.062,0.48-0.108,0.832-0.141
		c0.352-0.031,0.832-0.047,1.441-0.047c0.688,0,1.238,0.016,1.652,0.047s0.711,0.102,0.891,0.211
		c0.18,0.109,0.266,0.262,0.258,0.457s-0.098,0.449-0.27,0.762l-5.203,9.492l5.742,10.453c0.125,0.266,0.184,0.484,0.176,0.656
		C39.755,109.361,39.646,109.5,39.426,109.61z"/>
	<path d="M69,69v59h59V69H69z M108.203,104.981c-0.18,0.328-0.434,0.491-0.762,0.491H89.559c-0.328,0-0.582-0.163-0.762-0.491
		c-0.181-0.328-0.271-0.914-0.271-1.759c0-0.797,0.082-1.37,0.246-1.723c0.164-0.352,0.426-0.527,0.785-0.527h17.884
		c0.359,0,0.621,0.177,0.785,0.527c0.164,0.352,0.246,0.926,0.246,1.723C108.473,104.067,108.383,104.653,108.203,104.981z
		 M108.203,95.512c-0.18,0.345-0.434,0.517-0.762,0.517H89.559c-0.328,0-0.582-0.172-0.762-0.517
		c-0.181-0.344-0.271-0.93-0.271-1.758c0-0.797,0.082-1.367,0.246-1.711s0.426-0.516,0.785-0.516h17.884
		c0.359,0,0.621,0.172,0.785,0.516s0.246,0.914,0.246,1.711C108.473,94.582,108.383,95.168,108.203,95.512z"/>
	<path d="M69,0v59h59V0H69z M104.207,31.375c-0.173,0.359-0.445,0.539-0.82,0.539h-9.75c-0.392,0-0.672-0.184-0.844-0.551
		c-0.173-0.367-0.259-0.996-0.259-1.887c0-0.875,0.086-1.492,0.259-1.853c0.172-0.36,0.452-0.539,0.844-0.539h9.75
		c0.188,0,0.348,0.039,0.479,0.117s0.246,0.211,0.341,0.398c0.094,0.187,0.159,0.438,0.198,0.75c0.039,0.312,0.06,0.688,0.06,1.125
		C104.465,30.383,104.379,31.017,104.207,31.375z"/>
</g>
</svg>
