<?xml version="1.0" encoding="utf-8"?>
<!-- Generator: Adobe Illustrator 15.0.2, SVG Export Plug-In . SVG Version: 6.00 Build 0)  -->
<!DOCTYPE svg PUBLIC "-//W3C//DTD SVG 1.1//EN" "http://www.w3.org/Graphics/SVG/1.1/DTD/svg11.dtd">
<svg version="1.1" id="Laag_1" xmlns="http://www.w3.org/2000/svg" xmlns:xlink="http://www.w3.org/1999/xlink" x="0px" y="0px"
	 width="49.947px" height="49.947px" viewBox="0 0 49.947 49.947" enable-background="new 0 0 49.947 49.947" xml:space="preserve">
<g>
	<path d="M37.812,40.593c0,0.552-0.023,1.019-0.07,1.399c-0.049,0.381-0.119,0.689-0.215,0.928s-0.213,0.404-0.357,0.5
		c-0.143,0.096-0.299,0.143-0.471,0.143H14.908c-0.762,0-1.347-0.219-1.756-0.657c-0.41-0.438-0.614-1.075-0.614-1.913v-1.257
		c0-0.381,0.023-0.729,0.071-1.042c0.047-0.314,0.128-0.633,0.243-0.957c0.114-0.323,0.281-0.676,0.5-1.057
		c0.219-0.381,0.49-0.838,0.814-1.371l14.337-22.733H14.28c-0.229,0-0.424-0.052-0.585-0.157c-0.162-0.104-0.295-0.271-0.4-0.5
		c-0.105-0.229-0.181-0.533-0.229-0.914c-0.048-0.38-0.071-0.837-0.071-1.371c0-0.571,0.023-1.052,0.071-1.442
		c0.047-0.39,0.124-0.704,0.229-0.942c0.104-0.238,0.238-0.404,0.4-0.5c0.162-0.095,0.357-0.143,0.585-0.143h20.421
		c0.779,0,1.355,0.2,1.727,0.6s0.557,0.962,0.557,1.685v1.399c0,0.514-0.023,0.957-0.07,1.328c-0.049,0.371-0.133,0.733-0.258,1.085
		c-0.123,0.353-0.291,0.714-0.5,1.085s-0.475,0.814-0.799,1.328L21.248,37.536h15.451c0.361,0,0.639,0.229,0.828,0.686
		C37.719,38.679,37.812,39.469,37.812,40.593z"/>
</g>
</svg>
