<?xml version="1.0" encoding="utf-8"?>
<!-- Generator: Adobe Illustrator 15.0.2, SVG Export Plug-In . SVG Version: 6.00 Build 0)  -->
<!DOCTYPE svg PUBLIC "-//W3C//DTD SVG 1.1//EN" "http://www.w3.org/Graphics/SVG/1.1/DTD/svg11.dtd">
<svg version="1.1" id="Laag_1" xmlns="http://www.w3.org/2000/svg" xmlns:xlink="http://www.w3.org/1999/xlink" x="0px" y="0px"
	 width="128px" height="128px" viewBox="0 0 128 128" enable-background="new 0 0 128 128" xml:space="preserve">
<g>
	<path d="M24.91,88.546c0,0.29-0.087,0.545-0.262,0.763c-0.174,0.218-0.472,0.399-0.893,0.545c-0.422,0.146-0.98,0.254-1.678,0.326
		s-1.584,0.109-2.658,0.109c-1.075,0-1.962-0.037-2.659-0.109s-1.257-0.181-1.678-0.326s-0.719-0.327-0.894-0.545
		c-0.174-0.218-0.261-0.473-0.261-0.763V31.239c0-0.29,0.087-0.552,0.261-0.784c0.175-0.232,0.473-0.429,0.894-0.589
		c0.421-0.159,0.98-0.283,1.678-0.37s1.584-0.131,2.659-0.131c1.074,0,1.961,0.044,2.658,0.131s1.256,0.211,1.678,0.37
		c0.421,0.16,0.719,0.356,0.893,0.589c0.175,0.232,0.262,0.494,0.262,0.784V88.546z"/>
	<path d="M75.156,68.717c0,3.312-0.436,6.334-1.307,9.064c-0.872,2.731-2.194,5.085-3.966,7.061
		c-1.772,1.976-3.995,3.501-6.668,4.575c-2.673,1.075-5.796,1.612-9.369,1.612c-3.458,0-6.465-0.479-9.021-1.438
		c-2.558-0.959-4.679-2.354-6.363-4.184s-2.935-4.082-3.748-6.755s-1.22-5.724-1.22-9.151c0-3.312,0.442-6.341,1.329-9.087
		c0.886-2.745,2.215-5.099,3.987-7.06s3.987-3.479,6.646-4.554c2.658-1.075,5.773-1.612,9.348-1.612
		c3.486,0,6.507,0.473,9.064,1.416c2.556,0.944,4.669,2.331,6.341,4.162c1.67,1.83,2.912,4.082,3.726,6.754
		C74.75,62.195,75.156,65.26,75.156,68.717z M63.87,69.153c0-1.918-0.153-3.683-0.458-5.295s-0.821-3.014-1.547-4.206
		c-0.727-1.19-1.693-2.12-2.898-2.789c-1.206-0.668-2.724-1.002-4.554-1.002c-1.627,0-3.051,0.298-4.271,0.894
		c-1.221,0.596-2.223,1.467-3.007,2.614c-0.785,1.148-1.373,2.528-1.766,4.141c-0.392,1.612-0.588,3.45-0.588,5.513
		c0,1.917,0.159,3.683,0.479,5.295c0.319,1.612,0.835,3.014,1.547,4.205s1.678,2.113,2.898,2.768c1.22,0.653,2.73,0.98,4.531,0.98
		c1.656,0,3.095-0.298,4.314-0.894c1.221-0.595,2.223-1.46,3.008-2.593c0.784-1.134,1.365-2.506,1.742-4.118
		C63.681,73.054,63.87,71.216,63.87,69.153z"/>
	<path d="M118.866,52.375c0,1.395-0.16,2.426-0.479,3.094c-0.319,0.669-0.712,1.003-1.176,1.003h-4.576
		c0.639,0.697,1.096,1.489,1.373,2.375c0.275,0.887,0.414,1.809,0.414,2.767c0,2.267-0.378,4.278-1.134,6.036
		s-1.838,3.24-3.246,4.445c-1.41,1.206-3.109,2.121-5.099,2.745c-1.991,0.625-4.206,0.938-6.646,0.938
		c-1.249,0-2.44-0.153-3.573-0.458s-2.005-0.66-2.614-1.067c-0.35,0.378-0.662,0.828-0.938,1.351
		c-0.276,0.523-0.414,1.104-0.414,1.743c0,0.843,0.37,1.533,1.111,2.07c0.741,0.538,1.779,0.835,3.116,0.894l9.456,0.349
		c2.208,0.087,4.177,0.399,5.905,0.937c1.729,0.538,3.182,1.293,4.358,2.267c1.176,0.974,2.076,2.143,2.701,3.508
		c0.625,1.366,0.938,2.92,0.938,4.663c0,1.917-0.422,3.726-1.264,5.426c-0.844,1.699-2.107,3.174-3.792,4.423
		s-3.799,2.237-6.341,2.963c-2.542,0.727-5.513,1.09-8.912,1.09c-3.312,0-6.138-0.262-8.476-0.784
		c-2.339-0.523-4.257-1.25-5.753-2.179c-1.496-0.931-2.586-2.042-3.268-3.334c-0.684-1.293-1.024-2.71-1.024-4.249
		c0-0.959,0.123-1.874,0.37-2.745c0.247-0.872,0.61-1.708,1.09-2.506c0.479-0.799,1.067-1.562,1.765-2.288s1.496-1.424,2.397-2.092
		c-1.25-0.668-2.216-1.576-2.898-2.724s-1.024-2.404-1.024-3.77c0-1.714,0.393-3.275,1.177-4.686
		c0.784-1.408,1.801-2.68,3.051-3.812c-1.018-1.017-1.83-2.237-2.44-3.661c-0.61-1.423-0.915-3.195-0.915-5.316
		c0-2.267,0.398-4.293,1.198-6.079c0.799-1.787,1.91-3.297,3.334-4.532c1.423-1.234,3.122-2.179,5.099-2.833
		c1.976-0.653,4.154-0.98,6.537-0.98c1.22,0,2.389,0.073,3.508,0.218c1.118,0.146,2.157,0.349,3.116,0.61h12.333
		c0.493,0,0.893,0.32,1.198,0.959C118.714,49.789,118.866,50.864,118.866,52.375z M107.361,92.599c0-1.308-0.522-2.31-1.568-3.007
		s-2.484-1.075-4.314-1.133l-7.801-0.219c-0.756,0.553-1.358,1.083-1.809,1.591c-0.451,0.508-0.813,0.995-1.09,1.46
		s-0.457,0.915-0.544,1.352c-0.088,0.436-0.131,0.886-0.131,1.351c0,1.452,0.733,2.556,2.2,3.312s3.537,1.134,6.21,1.134
		c1.656,0,3.051-0.168,4.184-0.502c1.134-0.334,2.049-0.777,2.746-1.329s1.19-1.17,1.481-1.852
		C107.216,94.072,107.361,93.354,107.361,92.599z M104.79,61.57c0-2.092-0.581-3.719-1.743-4.881s-2.804-1.743-4.924-1.743
		c-1.075,0-2.02,0.182-2.833,0.545s-1.489,0.857-2.026,1.481c-0.538,0.625-0.937,1.351-1.198,2.179s-0.393,1.693-0.393,2.593
		c0,1.977,0.581,3.538,1.743,4.686s2.774,1.721,4.838,1.721c1.104,0,2.062-0.174,2.876-0.522c0.812-0.349,1.488-0.828,2.026-1.438
		c0.537-0.61,0.943-1.314,1.22-2.113S104.79,62.441,104.79,61.57z"/>
</g>
</svg>
