<?xml version="1.0" encoding="utf-8"?>
<!-- Generator: Adobe Illustrator 15.0.0, SVG Export Plug-In . SVG Version: 6.00 Build 0)  -->
<svg version="1.2" baseProfile="tiny" id="Laag_1" xmlns="http://www.w3.org/2000/svg" xmlns:xlink="http://www.w3.org/1999/xlink"
	 x="0px" y="0px" width="128px" height="128px" viewBox="0 0 128 128" overflow="inherit" xml:space="preserve">
<g>
	<path d="M38.081,44.658V78.93h-6.816V44.658H38.081z"/>
	<path d="M43.6,61.146c0.607-1.615,1.472-2.992,2.592-4.128c1.12-1.135,2.464-2.016,4.032-2.64c1.568-0.624,3.328-0.936,5.28-0.936
		c1.951,0,3.72,0.312,5.304,0.936c1.584,0.624,2.936,1.504,4.056,2.64c1.12,1.136,1.983,2.513,2.592,4.128
		c0.608,1.616,0.912,3.417,0.912,5.4c0,1.984-0.304,3.776-0.912,5.376s-1.472,2.969-2.592,4.104
		c-1.121,1.137-2.472,2.009-4.056,2.616s-3.353,0.912-5.304,0.912c-1.952,0-3.712-0.305-5.28-0.912s-2.912-1.479-4.032-2.616
		c-1.121-1.135-1.985-2.504-2.592-4.104c-0.608-1.6-0.912-3.392-0.912-5.376C42.688,64.562,42.992,62.762,43.6,61.146z
		 M49.792,69.449c0.192,0.945,0.52,1.793,0.984,2.545c0.463,0.752,1.08,1.352,1.848,1.799c0.768,0.449,1.728,0.673,2.88,0.673
		c1.152,0,2.119-0.224,2.904-0.673c0.784-0.447,1.408-1.047,1.872-1.799c0.463-0.752,0.792-1.6,0.984-2.545
		c0.192-0.943,0.288-1.911,0.288-2.903c0-0.991-0.096-1.968-0.288-2.928c-0.192-0.96-0.521-1.808-0.984-2.544
		c-0.464-0.736-1.088-1.336-1.872-1.8c-0.785-0.464-1.752-0.696-2.904-0.696c-1.152,0-2.112,0.232-2.88,0.696
		c-0.768,0.464-1.384,1.064-1.848,1.8c-0.464,0.736-0.792,1.584-0.984,2.544c-0.192,0.96-0.288,1.937-0.288,2.928
		C49.504,67.538,49.6,68.506,49.792,69.449z"/>
	<path d="M96.232,80.754c-0.273,1.279-0.857,2.472-1.752,3.576c-0.896,1.104-2.193,2.04-3.889,2.808
		c-1.696,0.768-3.969,1.152-6.816,1.152c-1.216,0-2.455-0.152-3.72-0.456c-1.265-0.305-2.417-0.776-3.456-1.416
		c-1.04-0.641-1.904-1.464-2.592-2.473c-0.688-1.008-1.08-2.216-1.176-3.624H79.6c0.32,1.28,0.943,2.168,1.872,2.664
		c0.928,0.496,1.999,0.744,3.216,0.744c1.92,0,3.32-0.576,4.2-1.728c0.88-1.152,1.304-2.608,1.272-4.368v-3.265h-0.096
		c-0.736,1.313-1.785,2.28-3.145,2.904c-1.36,0.624-2.793,0.937-4.296,0.937c-1.856,0-3.456-0.328-4.8-0.984
		c-1.344-0.655-2.448-1.552-3.312-2.688c-0.863-1.135-1.496-2.463-1.896-3.983c-0.4-1.52-0.6-3.128-0.6-4.824
		c0-1.6,0.232-3.144,0.696-4.632s1.144-2.8,2.04-3.936c0.896-1.135,2.008-2.04,3.336-2.712s2.855-1.008,4.584-1.008
		c1.632,0,3.064,0.304,4.296,0.912c1.231,0.608,2.264,1.632,3.097,3.072h0.096v-3.312h6.48v23.232
		C96.641,78.338,96.504,79.474,96.232,80.754z M86.896,72.498c0.735-0.385,1.344-0.896,1.823-1.536s0.841-1.368,1.08-2.185
		c0.24-0.815,0.36-1.672,0.36-2.568c0-1.023-0.096-1.991-0.288-2.903s-0.513-1.72-0.96-2.424c-0.449-0.704-1.041-1.264-1.776-1.68
		c-0.736-0.416-1.664-0.624-2.784-0.624c-0.959,0-1.783,0.192-2.472,0.576c-0.688,0.384-1.265,0.904-1.728,1.56
		c-0.465,0.656-0.801,1.408-1.008,2.256c-0.209,0.848-0.312,1.736-0.312,2.664c0,0.896,0.088,1.784,0.264,2.664
		s0.48,1.673,0.912,2.376c0.432,0.704,1,1.28,1.704,1.729c0.704,0.447,1.584,0.672,2.64,0.672
		C85.312,73.074,86.159,72.882,86.896,72.498z"/>
</g>
</svg>
