<?xml version="1.0" encoding="utf-8"?>
<!-- Generator: Adobe Illustrator 15.0.0, SVG Export Plug-In . SVG Version: 6.00 Build 0)  -->
<svg version="1.2" baseProfile="tiny" id="Laag_1" xmlns="http://www.w3.org/2000/svg" xmlns:xlink="http://www.w3.org/1999/xlink"
	 x="0px" y="0px" width="128px" height="128px" viewBox="0 0 128 128" overflow="inherit" xml:space="preserve">
<g>
	<path d="M24.809,54.114v3.36h0.096c0.896-1.279,1.976-2.271,3.24-2.976c1.264-0.704,2.712-1.056,4.344-1.056
		c1.567,0,3,0.304,4.296,0.912c1.296,0.608,2.28,1.68,2.952,3.216c0.736-1.087,1.735-2.048,3-2.88
		c1.264-0.832,2.76-1.248,4.488-1.248c1.312,0,2.528,0.16,3.648,0.48s2.08,0.833,2.88,1.536c0.799,0.705,1.423,1.625,1.872,2.76
		c0.448,1.136,0.672,2.504,0.672,4.104V78.93h-6.816V64.865c0-0.831-0.032-1.615-0.096-2.352c-0.064-0.736-0.24-1.375-0.528-1.92
		c-0.288-0.544-0.713-0.976-1.272-1.296c-0.561-0.32-1.32-0.48-2.28-0.48s-1.736,0.184-2.328,0.552
		c-0.592,0.368-1.056,0.848-1.392,1.44c-0.336,0.593-0.561,1.265-0.672,2.016c-0.112,0.752-0.168,1.512-0.168,2.28V78.93h-6.816
		V65.01c0-0.736-0.017-1.464-0.048-2.184c-0.032-0.72-0.168-1.384-0.408-1.992c-0.24-0.607-0.641-1.096-1.2-1.464
		c-0.561-0.368-1.385-0.552-2.472-0.552c-0.32,0-0.744,0.072-1.272,0.216s-1.041,0.416-1.536,0.816
		c-0.497,0.4-0.92,0.977-1.272,1.728c-0.353,0.752-0.528,1.736-0.528,2.952v14.4h-6.816V54.114H24.809z"/>
	<path d="M62.584,57.762c0.704-1.056,1.6-1.903,2.688-2.544c1.088-0.64,2.312-1.096,3.672-1.368c1.36-0.271,2.729-0.408,4.104-0.408
		c1.248,0,2.513,0.088,3.792,0.264c1.279,0.176,2.448,0.521,3.504,1.032c1.057,0.512,1.92,1.224,2.592,2.136
		c0.672,0.912,1.008,2.121,1.008,3.624V73.41c0,1.12,0.064,2.191,0.193,3.216c0.127,1.024,0.352,1.792,0.672,2.304h-6.912
		c-0.129-0.384-0.232-0.775-0.312-1.176s-0.137-0.808-0.168-1.225c-1.088,1.121-2.369,1.904-3.84,2.353
		c-1.473,0.447-2.977,0.672-4.512,0.672c-1.185,0-2.289-0.144-3.312-0.432c-1.024-0.288-1.92-0.736-2.688-1.345
		c-0.768-0.607-1.368-1.375-1.8-2.304c-0.432-0.928-0.648-2.032-0.648-3.312c0-1.408,0.248-2.568,0.744-3.48s1.136-1.64,1.92-2.184
		c0.784-0.544,1.68-0.952,2.688-1.225c1.008-0.271,2.023-0.487,3.047-0.648c1.024-0.159,2.032-0.287,3.024-0.383
		c0.991-0.096,1.872-0.24,2.64-0.432c0.769-0.192,1.376-0.472,1.824-0.84c0.447-0.368,0.656-0.904,0.624-1.608
		c0-0.736-0.12-1.32-0.36-1.752c-0.239-0.432-0.56-0.768-0.959-1.008c-0.4-0.24-0.865-0.399-1.393-0.48
		c-0.527-0.08-1.097-0.12-1.704-0.12c-1.344,0-2.399,0.288-3.168,0.864s-1.216,1.536-1.344,2.88h-6.816
		C61.48,60.146,61.88,58.818,62.584,57.762z M76.048,67.386c-0.432,0.144-0.896,0.265-1.392,0.36s-1.017,0.176-1.561,0.24
		s-1.088,0.144-1.632,0.239c-0.513,0.097-1.017,0.224-1.512,0.384c-0.497,0.16-0.929,0.377-1.296,0.648
		c-0.369,0.271-0.664,0.616-0.889,1.031c-0.224,0.417-0.336,0.945-0.336,1.584c0,0.609,0.112,1.121,0.336,1.537
		c0.225,0.416,0.528,0.744,0.912,0.983c0.385,0.24,0.832,0.408,1.344,0.504c0.512,0.097,1.04,0.145,1.584,0.145
		c1.345,0,2.385-0.224,3.121-0.673c0.735-0.447,1.279-0.983,1.631-1.607c0.353-0.624,0.568-1.256,0.648-1.896
		c0.08-0.639,0.12-1.151,0.12-1.535v-2.545C76.84,67.042,76.48,67.242,76.048,67.386z"/>
	<path d="M87.4,54.114h7.775l4.368,6.48l4.32-6.48h7.535l-8.159,11.616l9.168,13.2h-7.776l-5.184-7.824l-5.185,7.824h-7.632
		l8.929-13.057L87.4,54.114z"/>
</g>
</svg>
