<?xml version="1.0" encoding="utf-8"?>
<!-- Generator: Adobe Illustrator 15.0.0, SVG Export Plug-In . SVG Version: 6.00 Build 0)  -->
<svg version="1.2" baseProfile="tiny" id="Laag_1" xmlns="http://www.w3.org/2000/svg" xmlns:xlink="http://www.w3.org/1999/xlink"
	 x="0px" y="0px" width="128px" height="128px" viewBox="0 0 128 128" overflow="inherit" xml:space="preserve">
<g>
	<path d="M31.048,54.114v3.36h0.096c0.896-1.279,1.976-2.271,3.24-2.976c1.264-0.704,2.712-1.056,4.344-1.056
		c1.567,0,3,0.304,4.296,0.912c1.296,0.608,2.28,1.68,2.952,3.216c0.736-1.087,1.735-2.048,3-2.88
		c1.264-0.832,2.76-1.248,4.488-1.248c1.312,0,2.528,0.16,3.648,0.48s2.08,0.833,2.88,1.536c0.799,0.705,1.423,1.625,1.872,2.76
		c0.448,1.136,0.672,2.504,0.672,4.104V78.93h-6.816V64.865c0-0.831-0.032-1.615-0.096-2.352c-0.064-0.736-0.24-1.375-0.528-1.92
		c-0.288-0.544-0.713-0.976-1.272-1.296c-0.561-0.32-1.32-0.48-2.28-0.48s-1.736,0.184-2.328,0.552
		c-0.592,0.368-1.056,0.848-1.392,1.44c-0.336,0.593-0.561,1.265-0.672,2.016c-0.112,0.752-0.168,1.512-0.168,2.28V78.93h-6.816
		V65.01c0-0.736-0.017-1.464-0.048-2.184c-0.032-0.72-0.168-1.384-0.408-1.992c-0.24-0.607-0.641-1.096-1.2-1.464
		c-0.561-0.368-1.385-0.552-2.472-0.552c-0.32,0-0.744,0.072-1.272,0.216s-1.041,0.416-1.536,0.816
		c-0.497,0.4-0.92,0.977-1.272,1.728c-0.353,0.752-0.528,1.736-0.528,2.952v14.4h-6.816V54.114H31.048z"/>
	<path d="M68.104,50.274v-5.616h6.815v5.616H68.104z M74.92,54.114V78.93h-6.815V54.114H74.92z"/>
	<path d="M86.775,54.114v3.456h0.145c0.864-1.44,1.984-2.488,3.36-3.144c1.376-0.656,2.784-0.984,4.224-0.984
		c1.824,0,3.319,0.248,4.488,0.744c1.168,0.497,2.088,1.185,2.76,2.064c0.672,0.881,1.144,1.953,1.416,3.216
		c0.271,1.264,0.408,2.664,0.408,4.2V78.93H96.76V64.914c0-2.048-0.32-3.576-0.959-4.584c-0.641-1.008-1.777-1.512-3.408-1.512
		c-1.857,0-3.201,0.552-4.033,1.656s-1.247,2.92-1.247,5.448V78.93h-6.816V54.114H86.775z"/>
</g>
</svg>
