<?xml version="1.0" encoding="utf-8"?>
<!-- Generator: Adobe Illustrator 15.0.0, SVG Export Plug-In . SVG Version: 6.00 Build 0)  -->
<svg version="1.2" baseProfile="tiny" id="Laag_1" xmlns="http://www.w3.org/2000/svg" xmlns:xlink="http://www.w3.org/1999/xlink"
	 x="0px" y="0px" width="128px" height="128px" viewBox="0 0 128 128" overflow="inherit" xml:space="preserve">
<g>
	<path d="M54.906,78.133c0,0.156-0.047,0.293-0.141,0.41s-0.25,0.215-0.469,0.293s-0.516,0.137-0.891,0.176s-0.852,0.059-1.43,0.059
		c-0.594,0-1.078-0.02-1.453-0.059s-0.676-0.098-0.902-0.176s-0.383-0.176-0.469-0.293s-0.129-0.254-0.129-0.41V65.734
		c0-0.703-0.066-1.344-0.199-1.922s-0.336-1.074-0.609-1.488s-0.617-0.734-1.031-0.961s-0.91-0.34-1.488-0.34
		c-0.703,0-1.414,0.273-2.133,0.82s-1.5,1.344-2.344,2.391v13.898c0,0.156-0.047,0.293-0.141,0.41s-0.254,0.215-0.48,0.293
		s-0.527,0.137-0.902,0.176s-0.844,0.059-1.406,0.059c-0.578,0-1.055-0.02-1.43-0.059s-0.676-0.098-0.902-0.176
		s-0.387-0.176-0.48-0.293s-0.141-0.254-0.141-0.41V65.734c0-0.703-0.066-1.344-0.199-1.922s-0.332-1.074-0.598-1.488
		s-0.609-0.734-1.031-0.961s-0.914-0.34-1.477-0.34c-0.719,0-1.438,0.273-2.156,0.82s-1.492,1.344-2.32,2.391v13.898
		c0,0.156-0.047,0.293-0.141,0.41s-0.254,0.215-0.48,0.293s-0.527,0.137-0.902,0.176s-0.852,0.059-1.43,0.059
		s-1.055-0.02-1.43-0.059s-0.676-0.098-0.902-0.176s-0.387-0.176-0.48-0.293s-0.141-0.254-0.141-0.41V57.227
		c0-0.156,0.039-0.293,0.117-0.41s0.219-0.215,0.422-0.293s0.465-0.137,0.785-0.176s0.723-0.059,1.207-0.059
		c0.5,0,0.914,0.02,1.242,0.059s0.582,0.098,0.762,0.176s0.309,0.176,0.387,0.293s0.117,0.254,0.117,0.41v2.414
		c1.156-1.25,2.309-2.188,3.457-2.812s2.348-0.938,3.598-0.938c0.859,0,1.633,0.09,2.32,0.27s1.301,0.438,1.84,0.773
		s1.004,0.738,1.395,1.207s0.719,0.992,0.984,1.57c0.625-0.672,1.238-1.25,1.84-1.734s1.195-0.879,1.781-1.184
		s1.172-0.531,1.758-0.68s1.184-0.223,1.793-0.223c1.391,0,2.562,0.234,3.516,0.703s1.723,1.105,2.309,1.91s1.004,1.746,1.254,2.824
		s0.375,2.219,0.375,3.422V78.133z"/>
	<path d="M81.836,67.469c0,1.781-0.234,3.406-0.703,4.875s-1.18,2.734-2.133,3.797s-2.148,1.883-3.586,2.461
		s-3.117,0.867-5.039,0.867c-1.859,0-3.477-0.258-4.852-0.773s-2.516-1.266-3.422-2.25s-1.578-2.195-2.016-3.633
		s-0.656-3.078-0.656-4.922c0-1.781,0.238-3.41,0.715-4.887s1.191-2.742,2.145-3.797s2.145-1.871,3.574-2.449
		s3.105-0.867,5.027-0.867c1.875,0,3.5,0.254,4.875,0.762s2.512,1.254,3.41,2.238s1.566,2.195,2.004,3.633
		S81.836,65.609,81.836,67.469z M75.766,67.703c0-1.031-0.082-1.98-0.246-2.848s-0.441-1.621-0.832-2.262s-0.91-1.141-1.559-1.5
		s-1.465-0.539-2.449-0.539c-0.875,0-1.641,0.16-2.297,0.48s-1.195,0.789-1.617,1.406s-0.738,1.359-0.949,2.227
		S65.5,66.523,65.5,67.633c0,1.031,0.086,1.98,0.258,2.848s0.449,1.621,0.832,2.262s0.902,1.137,1.559,1.488
		s1.469,0.527,2.438,0.527c0.891,0,1.664-0.16,2.32-0.48s1.195-0.785,1.617-1.395s0.734-1.348,0.938-2.215
		S75.766,68.812,75.766,67.703z"/>
	<path d="M106.328,78.133c0,0.172-0.039,0.316-0.117,0.434s-0.211,0.215-0.398,0.293s-0.441,0.133-0.762,0.164
		s-0.715,0.047-1.184,0.047c-0.5,0-0.906-0.016-1.219-0.047s-0.566-0.086-0.762-0.164s-0.336-0.176-0.422-0.293
		s-0.129-0.262-0.129-0.434v-2.32c-1.078,1.156-2.207,2.055-3.387,2.695s-2.488,0.961-3.926,0.961c-1.594,0-2.941-0.309-4.043-0.926
		s-2-1.449-2.695-2.496s-1.199-2.27-1.512-3.668s-0.469-2.871-0.469-4.418c0-1.859,0.199-3.531,0.598-5.016s0.98-2.75,1.746-3.797
		s1.719-1.852,2.859-2.414s2.453-0.844,3.938-0.844c1.172,0,2.234,0.238,3.188,0.715s1.898,1.176,2.836,2.098v-11.32
		c0-0.156,0.043-0.297,0.129-0.422s0.242-0.23,0.469-0.316s0.527-0.152,0.902-0.199s0.852-0.07,1.43-0.07s1.055,0.023,1.43,0.07
		s0.672,0.113,0.891,0.199s0.375,0.191,0.469,0.316s0.141,0.266,0.141,0.422V78.133z M100.469,64.164
		c-0.844-1.062-1.652-1.875-2.426-2.438s-1.582-0.844-2.426-0.844c-0.766,0-1.426,0.191-1.98,0.574s-1,0.895-1.336,1.535
		s-0.586,1.355-0.75,2.145s-0.246,1.598-0.246,2.426c0,0.875,0.07,1.727,0.211,2.555s0.371,1.566,0.691,2.215
		s0.746,1.168,1.277,1.559s1.203,0.586,2.016,0.586c0.406,0,0.801-0.059,1.184-0.176s0.773-0.309,1.172-0.574
		s0.809-0.613,1.23-1.043s0.883-0.957,1.383-1.582V64.164z"/>
</g>
</svg>
