<?xml version="1.0" encoding="utf-8"?>
<!-- Generator: Adobe Illustrator 15.0.2, SVG Export Plug-In . SVG Version: 6.00 Build 0)  -->
<!DOCTYPE svg PUBLIC "-//W3C//DTD SVG 1.1//EN" "http://www.w3.org/Graphics/SVG/1.1/DTD/svg11.dtd">
<svg version="1.1" id="Laag_1" xmlns="http://www.w3.org/2000/svg" xmlns:xlink="http://www.w3.org/1999/xlink" x="0px" y="0px"
	 width="128px" height="128px" viewBox="0 0 128 128" enable-background="new 0 0 128 128" xml:space="preserve">
<path d="M24.892,32.546l7.778,4.175c6.858-12.734,22.536-17.626,35.398-11.213l-1.809,4.038l18.196,0.306L74.143,14.856
	l-1.826,2.888C55.151,8.963,34.053,15.484,24.892,32.546"/>
<path d="M88.107,86.893l-7.777-4.176c-6.857,12.734-22.536,17.626-35.398,11.213l1.809-4.037l-18.196-0.307l10.313,14.996
	l1.826-2.889C57.849,110.475,78.947,103.954,88.107,86.893"/>
<g>
	<path d="M49.494,58.96c0,1.802-0.182,3.09-0.546,3.871C48.584,63.612,48.004,64,47.206,64H4.804c-0.867,0-1.48-0.388-1.844-1.169
		c-0.364-0.778-0.546-2.069-0.546-3.871c0-1.768,0.182-3.049,0.546-3.846c0.364-0.797,0.978-1.195,1.844-1.195h42.402
		c0.798,0,1.378,0.383,1.742,1.144C49.312,55.824,49.494,57.124,49.494,58.96z"/>
</g>
<g>
	<path d="M126.005,60.322c0,0.971-0.052,1.785-0.155,2.442c-0.104,0.658-0.261,1.187-0.468,1.582c-0.209,0.4-0.451,0.687-0.728,0.86
		c-0.277,0.174-0.572,0.26-0.883,0.26H107.61v17.615c0,0.347-0.088,0.649-0.259,0.911c-0.176,0.259-0.468,0.484-0.884,0.675
		c-0.416,0.192-0.97,0.339-1.663,0.442c-0.693,0.105-1.559,0.155-2.598,0.155s-1.905-0.052-2.599-0.155
		c-0.691-0.104-1.246-0.25-1.663-0.442c-0.414-0.19-0.72-0.416-0.908-0.675c-0.19-0.262-0.284-0.564-0.284-0.911V65.467H80.64
		c-0.311,0-0.596-0.086-0.856-0.26c-0.259-0.174-0.493-0.46-0.7-0.86c-0.208-0.396-0.372-0.925-0.493-1.582
		c-0.123-0.657-0.182-1.472-0.182-2.442c0-0.936,0.051-1.741,0.155-2.417c0.103-0.676,0.251-1.213,0.441-1.61
		s0.407-0.686,0.649-0.858c0.244-0.173,0.521-0.26,0.832-0.26H96.75V37.613c0-0.345,0.095-0.666,0.285-0.962
		c0.19-0.294,0.493-0.536,0.91-0.727c0.414-0.191,0.969-0.339,1.662-0.443c0.694-0.105,1.559-0.155,2.597-0.155
		c1.041,0,1.907,0.051,2.599,0.155c0.693,0.103,1.248,0.252,1.664,0.443c0.415,0.19,0.709,0.433,0.883,0.727
		c0.173,0.296,0.26,0.617,0.26,0.962v17.564h16.316c0.277,0,0.546,0.088,0.807,0.26c0.259,0.174,0.484,0.46,0.675,0.859
		c0.19,0.398,0.339,0.935,0.442,1.609S126.005,59.387,126.005,60.322z"/>
</g>
</svg>
