<?xml version="1.0" encoding="utf-8"?>
<!-- Generator: Adobe Illustrator 15.0.2, SVG Export Plug-In . SVG Version: 6.00 Build 0)  -->
<!DOCTYPE svg PUBLIC "-//W3C//DTD SVG 1.1//EN" "http://www.w3.org/Graphics/SVG/1.1/DTD/svg11.dtd">
<svg version="1.1" id="Laag_1" xmlns="http://www.w3.org/2000/svg" xmlns:xlink="http://www.w3.org/1999/xlink" x="0px" y="0px"
	 width="49.947px" height="49.947px" viewBox="0 0 49.947 49.947" enable-background="new 0 0 49.947 49.947" xml:space="preserve">
<g>
	<path d="M17.133,25.73c0,1.021-0.134,1.952-0.403,2.793c-0.269,0.842-0.676,1.567-1.222,2.176s-1.231,1.079-2.055,1.41
		s-1.786,0.496-2.887,0.496c-1.065,0-1.992-0.147-2.779-0.442c-0.788-0.296-1.442-0.726-1.961-1.289
		c-0.519-0.564-0.904-1.258-1.155-2.082c-0.25-0.823-0.376-1.764-0.376-2.819c0-1.021,0.136-1.954,0.41-2.8
		c0.273-0.847,0.683-1.571,1.229-2.176s1.229-1.072,2.048-1.403c0.819-0.331,1.779-0.497,2.88-0.497
		c1.075,0,2.005,0.146,2.793,0.437c0.788,0.291,1.439,0.719,1.954,1.282c0.515,0.564,0.897,1.258,1.148,2.082
		C17.007,23.721,17.133,24.665,17.133,25.73z M13.655,25.865c0-0.591-0.047-1.135-0.141-1.632c-0.094-0.497-0.253-0.929-0.477-1.296
		c-0.224-0.367-0.522-0.653-0.893-0.859c-0.372-0.206-0.839-0.309-1.403-0.309c-0.501,0-0.94,0.092-1.316,0.274
		c-0.376,0.184-0.685,0.452-0.927,0.807c-0.242,0.354-0.423,0.778-0.544,1.275c-0.121,0.497-0.181,1.063-0.181,1.698
		c0,0.591,0.049,1.135,0.148,1.632c0.098,0.497,0.257,0.929,0.477,1.296c0.219,0.367,0.517,0.651,0.893,0.853
		s0.841,0.303,1.396,0.303c0.51,0,0.954-0.092,1.33-0.275s0.685-0.45,0.926-0.799c0.242-0.35,0.421-0.772,0.537-1.27
		S13.655,26.501,13.655,25.865z"/>
	<path d="M31.165,31.841c0,0.099-0.021,0.181-0.066,0.248c-0.045,0.066-0.121,0.123-0.229,0.168s-0.254,0.076-0.438,0.094
		s-0.408,0.027-0.678,0.027c-0.285,0-0.52-0.01-0.697-0.027c-0.18-0.018-0.324-0.049-0.438-0.094
		c-0.111-0.045-0.191-0.102-0.24-0.168c-0.051-0.067-0.074-0.149-0.074-0.248v-1.33c-0.619,0.663-1.266,1.178-1.941,1.545
		c-0.676,0.366-1.425,0.55-2.249,0.55c-0.913,0-1.685-0.177-2.316-0.53c-0.631-0.354-1.146-0.83-1.544-1.43
		c-0.398-0.6-0.688-1.301-0.866-2.102c-0.179-0.801-0.269-1.646-0.269-2.531c0-1.065,0.114-2.023,0.342-2.874
		c0.228-0.851,0.562-1.575,1-2.175c0.438-0.601,0.984-1.062,1.638-1.384c0.653-0.322,1.405-0.483,2.256-0.483
		c0.671,0,1.281,0.137,1.826,0.41c0.547,0.272,1.088,0.673,1.625,1.201v-6.485c0-0.09,0.025-0.17,0.074-0.242
		c0.049-0.071,0.139-0.132,0.27-0.182c0.129-0.049,0.301-0.087,0.516-0.113c0.215-0.027,0.488-0.041,0.82-0.041
		c0.33,0,0.604,0.014,0.818,0.041c0.215,0.026,0.385,0.064,0.51,0.113c0.127,0.05,0.215,0.11,0.27,0.182
		c0.053,0.072,0.08,0.152,0.08,0.242V31.841z M27.807,23.837c-0.482-0.608-0.945-1.074-1.389-1.396s-0.907-0.483-1.391-0.483
		c-0.438,0-0.817,0.109-1.134,0.329c-0.318,0.22-0.573,0.513-0.766,0.88c-0.193,0.367-0.336,0.776-0.43,1.229
		c-0.094,0.452-0.141,0.915-0.141,1.39c0,0.502,0.041,0.989,0.121,1.464s0.212,0.897,0.396,1.269
		c0.183,0.372,0.427,0.67,0.732,0.894c0.304,0.224,0.689,0.336,1.155,0.336c0.232,0,0.458-0.034,0.678-0.102
		c0.219-0.066,0.443-0.176,0.672-0.328s0.463-0.352,0.705-0.598c0.24-0.246,0.506-0.549,0.791-0.907V23.837z"/>
	<path d="M45.924,31.841c0,0.099-0.022,0.181-0.067,0.248c-0.045,0.066-0.121,0.123-0.229,0.168s-0.253,0.076-0.437,0.094
		s-0.409,0.027-0.678,0.027c-0.286,0-0.52-0.01-0.698-0.027c-0.18-0.018-0.324-0.049-0.437-0.094s-0.192-0.102-0.241-0.168
		c-0.05-0.067-0.074-0.149-0.074-0.248v-1.33c-0.618,0.663-1.265,1.178-1.94,1.545c-0.676,0.366-1.426,0.55-2.249,0.55
		c-0.913,0-1.686-0.177-2.316-0.53c-0.632-0.354-1.146-0.83-1.545-1.43s-0.687-1.301-0.866-2.102
		c-0.179-0.801-0.269-1.646-0.269-2.531c0-1.065,0.114-2.023,0.343-2.874s0.562-1.575,1-2.175c0.438-0.601,0.985-1.062,1.639-1.384
		s1.405-0.483,2.256-0.483c0.672,0,1.28,0.137,1.826,0.41c0.546,0.272,1.088,0.673,1.625,1.201v-6.485
		c0-0.09,0.024-0.17,0.074-0.242c0.049-0.071,0.139-0.132,0.269-0.182c0.13-0.049,0.302-0.087,0.517-0.113
		c0.215-0.027,0.488-0.041,0.819-0.041s0.604,0.014,0.819,0.041c0.215,0.026,0.385,0.064,0.51,0.113
		c0.126,0.05,0.215,0.11,0.269,0.182c0.054,0.072,0.081,0.152,0.081,0.242V31.841z M42.566,23.837
		c-0.483-0.608-0.946-1.074-1.39-1.396s-0.906-0.483-1.39-0.483c-0.439,0-0.817,0.109-1.135,0.329
		c-0.318,0.22-0.573,0.513-0.766,0.88s-0.336,0.776-0.43,1.229s-0.141,0.915-0.141,1.39c0,0.502,0.04,0.989,0.12,1.464
		c0.081,0.475,0.213,0.897,0.396,1.269c0.184,0.372,0.428,0.67,0.731,0.894c0.305,0.224,0.689,0.336,1.155,0.336
		c0.232,0,0.459-0.034,0.678-0.102c0.22-0.066,0.443-0.176,0.672-0.328s0.463-0.352,0.705-0.598
		c0.241-0.246,0.506-0.549,0.792-0.907V23.837z"/>
</g>
</svg>
