<?xml version="1.0" encoding="utf-8"?>
<!-- Generator: Adobe Illustrator 15.0.2, SVG Export Plug-In . SVG Version: 6.00 Build 0)  -->
<!DOCTYPE svg PUBLIC "-//W3C//DTD SVG 1.1//EN" "http://www.w3.org/Graphics/SVG/1.1/DTD/svg11.dtd">
<svg version="1.1" id="Laag_1" xmlns="http://www.w3.org/2000/svg" xmlns:xlink="http://www.w3.org/1999/xlink" x="0px" y="0px"
	 width="49.947px" height="49.947px" viewBox="0 0 49.947 49.947" enable-background="new 0 0 49.947 49.947" xml:space="preserve">
<g>
	<path d="M29.544,31.688c0,0.215-0.012,0.396-0.034,0.545c-0.023,0.148-0.056,0.268-0.098,0.355
		c-0.043,0.088-0.091,0.152-0.144,0.189c-0.054,0.039-0.115,0.059-0.185,0.059h-8.2c-0.061,0-0.118-0.02-0.172-0.059
		c-0.054-0.037-0.102-0.102-0.144-0.189s-0.074-0.207-0.098-0.355c-0.022-0.148-0.034-0.33-0.034-0.545
		c0-0.223,0.01-0.408,0.028-0.557c0.02-0.15,0.05-0.271,0.092-0.363s0.09-0.158,0.144-0.201c0.054-0.041,0.115-0.062,0.184-0.062
		h2.769v-9.67l-2.389,1.321c-0.177,0.084-0.32,0.136-0.431,0.155c-0.111,0.019-0.199-0.004-0.265-0.069
		c-0.065-0.064-0.109-0.178-0.132-0.339c-0.023-0.161-0.034-0.387-0.034-0.678c0-0.184,0.003-0.335,0.011-0.453
		c0.008-0.119,0.027-0.221,0.058-0.305s0.073-0.153,0.126-0.207c0.054-0.053,0.127-0.11,0.219-0.172l3.192-2.067
		c0.038-0.03,0.086-0.056,0.144-0.074c0.058-0.02,0.133-0.035,0.225-0.046c0.092-0.012,0.212-0.02,0.361-0.023
		s0.343-0.006,0.58-0.006c0.291,0,0.526,0.006,0.706,0.018s0.316,0.03,0.408,0.058c0.092,0.026,0.152,0.062,0.184,0.108
		c0.03,0.046,0.046,0.104,0.046,0.173v12.277h2.423c0.069,0,0.133,0.021,0.189,0.062c0.058,0.043,0.107,0.109,0.149,0.201
		s0.073,0.213,0.092,0.363C29.534,31.28,29.544,31.466,29.544,31.688z"/>
	<path d="M9.933,10.834c0,0.742-0.142,1.401-0.425,1.976s-0.678,1.057-1.183,1.446c-0.506,0.391-1.11,0.688-1.814,0.891
		c-0.705,0.202-1.475,0.304-2.309,0.304c-0.506,0-0.98-0.036-1.424-0.108c-0.444-0.073-0.837-0.163-1.178-0.271
		c-0.341-0.106-0.622-0.218-0.844-0.333c-0.223-0.114-0.368-0.202-0.437-0.264c-0.069-0.062-0.121-0.13-0.155-0.207
		c-0.034-0.076-0.065-0.166-0.092-0.27s-0.046-0.233-0.058-0.391C0.006,13.45,0,13.261,0,13.039c0-0.368,0.03-0.622,0.092-0.764
		c0.061-0.142,0.152-0.213,0.275-0.213c0.076,0,0.208,0.052,0.396,0.155c0.188,0.104,0.427,0.215,0.718,0.333
		c0.291,0.119,0.632,0.229,1.021,0.333c0.391,0.104,0.835,0.155,1.333,0.155c0.421,0,0.792-0.05,1.113-0.149
		c0.322-0.1,0.596-0.239,0.821-0.419s0.395-0.398,0.506-0.655c0.11-0.256,0.166-0.541,0.166-0.855c0-0.345-0.067-0.654-0.201-0.93
		C6.107,9.754,5.908,9.519,5.644,9.323C5.38,9.128,5.047,8.978,4.645,8.87C4.243,8.763,3.77,8.709,3.226,8.709H1.94
		c-0.1,0-0.184-0.013-0.253-0.04C1.619,8.643,1.561,8.587,1.515,8.502c-0.046-0.084-0.078-0.2-0.098-0.35S1.389,7.81,1.389,7.572
		c0-0.222,0.009-0.404,0.028-0.546s0.05-0.25,0.092-0.327c0.042-0.076,0.096-0.13,0.161-0.161c0.064-0.03,0.144-0.046,0.235-0.046
		h1.298c0.443,0,0.838-0.052,1.183-0.154C4.731,6.234,5.02,6.087,5.254,5.896S5.665,5.473,5.788,5.2
		C5.91,4.929,5.971,4.628,5.971,4.299c0-0.253-0.042-0.492-0.126-0.718C5.76,3.355,5.636,3.16,5.471,2.995
		c-0.164-0.164-0.377-0.294-0.637-0.39C4.574,2.51,4.267,2.462,3.916,2.462c-0.398,0-0.773,0.059-1.126,0.178
		C2.438,2.758,2.122,2.889,1.843,3.03S1.326,3.304,1.131,3.426C0.935,3.549,0.792,3.61,0.7,3.61c-0.062,0-0.115-0.014-0.161-0.041
		C0.493,3.543,0.455,3.491,0.425,3.415C0.393,3.338,0.371,3.228,0.355,3.082S0.333,2.749,0.333,2.519
		c0-0.191,0.004-0.35,0.011-0.477c0.008-0.126,0.023-0.231,0.046-0.315c0.023-0.084,0.052-0.157,0.087-0.219
		c0.034-0.061,0.09-0.128,0.166-0.2c0.076-0.073,0.233-0.183,0.471-0.328C1.35,0.835,1.649,0.692,2.01,0.555
		c0.359-0.138,0.775-0.254,1.246-0.35s0.981-0.144,1.533-0.144c0.72,0,1.356,0.084,1.912,0.252c0.555,0.169,1.021,0.412,1.401,0.729
		c0.379,0.318,0.666,0.708,0.861,1.172C9.159,2.678,9.256,3.2,9.256,3.782c0,0.452-0.057,0.873-0.172,1.264
		c-0.115,0.39-0.283,0.738-0.505,1.045c-0.223,0.306-0.5,0.566-0.833,0.78C7.413,7.086,7.028,7.247,6.592,7.354v0.035
		C7.112,7.45,7.579,7.582,7.993,7.784c0.413,0.203,0.764,0.458,1.051,0.765c0.287,0.306,0.507,0.652,0.66,1.039
		S9.933,10.39,9.933,10.834z"/>
	<path d="M49.947,10.038c0,0.804-0.14,1.521-0.419,2.153c-0.28,0.632-0.674,1.164-1.184,1.596c-0.509,0.433-1.121,0.764-1.837,0.994
		c-0.717,0.229-1.511,0.344-2.384,0.344c-0.459,0-0.896-0.028-1.309-0.086c-0.414-0.058-0.785-0.13-1.114-0.218
		s-0.6-0.176-0.81-0.265c-0.211-0.088-0.349-0.16-0.414-0.218c-0.064-0.058-0.112-0.121-0.144-0.189
		c-0.03-0.069-0.056-0.151-0.074-0.247c-0.02-0.096-0.033-0.216-0.04-0.361c-0.008-0.146-0.012-0.318-0.012-0.518
		c0-0.214,0.008-0.396,0.023-0.545c0.015-0.149,0.04-0.271,0.074-0.362s0.074-0.156,0.12-0.195c0.046-0.038,0.1-0.057,0.161-0.057
		c0.076,0,0.193,0.044,0.351,0.132c0.156,0.088,0.363,0.186,0.62,0.293c0.256,0.107,0.568,0.205,0.936,0.293
		c0.368,0.088,0.808,0.132,1.321,0.132c0.443,0,0.848-0.046,1.211-0.138c0.364-0.092,0.672-0.239,0.925-0.442
		s0.448-0.457,0.586-0.764s0.207-0.674,0.207-1.103c0-0.367-0.058-0.695-0.173-0.982c-0.114-0.287-0.295-0.529-0.539-0.729
		c-0.246-0.199-0.563-0.349-0.954-0.448c-0.39-0.1-0.865-0.149-1.424-0.149c-0.444,0-0.848,0.023-1.212,0.069
		c-0.363,0.046-0.706,0.068-1.027,0.068c-0.223,0-0.381-0.056-0.477-0.166c-0.096-0.111-0.144-0.316-0.144-0.615V0.861
		c0-0.306,0.059-0.526,0.178-0.66S41.28,0,41.54,0h7.04c0.069,0,0.134,0.023,0.195,0.069s0.113,0.118,0.155,0.218
		s0.072,0.231,0.092,0.396s0.028,0.361,0.028,0.591c0,0.46-0.04,0.793-0.12,1c-0.08,0.206-0.197,0.31-0.351,0.31h-5.282v3.182
		c0.268-0.03,0.533-0.05,0.798-0.058c0.264-0.008,0.541-0.012,0.833-0.012c0.804,0,1.518,0.094,2.142,0.281
		c0.624,0.188,1.148,0.464,1.573,0.827c0.425,0.364,0.748,0.815,0.971,1.355C49.836,8.7,49.947,9.325,49.947,10.038z"/>
	<path d="M10.31,36.062c0,0.223-0.008,0.416-0.022,0.58c-0.016,0.166-0.037,0.318-0.063,0.461c-0.027,0.141-0.063,0.275-0.109,0.4
		c-0.046,0.127-0.1,0.264-0.16,0.408L5.062,49.247c-0.046,0.1-0.105,0.18-0.179,0.24c-0.072,0.062-0.174,0.109-0.304,0.145
		c-0.131,0.035-0.297,0.057-0.5,0.068s-0.453,0.018-0.752,0.018c-0.406,0-0.728-0.014-0.965-0.041
		c-0.237-0.025-0.412-0.068-0.522-0.125c-0.111-0.059-0.171-0.131-0.178-0.219c-0.008-0.088,0.019-0.197,0.08-0.328l5.26-11.6H0.755
		c-0.161,0-0.282-0.104-0.362-0.314s-0.12-0.547-0.12-1.006c0-0.229,0.011-0.426,0.034-0.592c0.022-0.164,0.056-0.299,0.098-0.406
		s0.092-0.184,0.149-0.23c0.058-0.045,0.124-0.068,0.201-0.068h8.831c0.138,0,0.253,0.014,0.345,0.039
		c0.092,0.027,0.165,0.086,0.219,0.18c0.053,0.092,0.093,0.221,0.12,0.389C10.296,35.565,10.31,35.786,10.31,36.062z"/>
	<path d="M49.947,41.575c0,0.605-0.03,1.231-0.092,1.878c-0.062,0.647-0.178,1.28-0.351,1.9c-0.172,0.62-0.409,1.21-0.712,1.769
		c-0.303,0.56-0.692,1.048-1.171,1.465s-1.061,0.748-1.746,0.993s-1.495,0.367-2.429,0.367c-0.329,0-0.657-0.022-0.982-0.068
		s-0.622-0.104-0.89-0.172c-0.269-0.069-0.496-0.142-0.684-0.219c-0.188-0.076-0.323-0.155-0.407-0.235
		c-0.085-0.08-0.146-0.197-0.185-0.351c-0.038-0.152-0.057-0.367-0.057-0.643c0-0.253,0.006-0.456,0.017-0.609
		c0.012-0.152,0.035-0.271,0.069-0.355s0.076-0.14,0.126-0.167c0.05-0.026,0.109-0.04,0.179-0.04c0.092,0,0.222,0.027,0.39,0.08
		c0.169,0.054,0.374,0.115,0.615,0.185c0.241,0.068,0.515,0.13,0.82,0.184c0.307,0.054,0.647,0.08,1.022,0.08
		c0.644,0,1.187-0.114,1.631-0.345c0.444-0.229,0.804-0.539,1.08-0.93c0.275-0.391,0.478-0.843,0.608-1.355
		c0.13-0.513,0.203-1.053,0.218-1.619c-0.352,0.222-0.777,0.415-1.274,0.58c-0.498,0.164-1.068,0.247-1.711,0.247
		c-0.789,0-1.459-0.104-2.01-0.311c-0.552-0.207-1-0.505-1.344-0.896c-0.345-0.391-0.596-0.865-0.753-1.425
		c-0.157-0.559-0.235-1.19-0.235-1.895c0-0.742,0.111-1.426,0.333-2.05c0.223-0.624,0.552-1.164,0.988-1.619
		c0.437-0.456,0.979-0.811,1.631-1.062c0.65-0.253,1.404-0.379,2.262-0.379c0.689,0,1.292,0.08,1.81,0.241
		c0.517,0.16,0.96,0.39,1.332,0.688c0.371,0.299,0.682,0.66,0.93,1.086c0.249,0.425,0.444,0.897,0.586,1.418
		s0.241,1.083,0.299,1.688C49.919,40.285,49.947,40.917,49.947,41.575z M46.95,41.162c0-0.819-0.046-1.505-0.138-2.056
		c-0.092-0.552-0.23-0.992-0.414-1.321s-0.413-0.562-0.688-0.7c-0.276-0.138-0.598-0.207-0.965-0.207
		c-0.36,0-0.67,0.063-0.931,0.189c-0.26,0.127-0.477,0.305-0.648,0.534c-0.173,0.229-0.301,0.502-0.385,0.815
		c-0.085,0.314-0.127,0.658-0.127,1.034c0,0.405,0.036,0.764,0.109,1.073c0.073,0.311,0.188,0.566,0.345,0.77
		c0.156,0.203,0.361,0.354,0.614,0.454s0.559,0.148,0.919,0.148c0.444,0,0.863-0.066,1.258-0.2
		C46.293,41.562,46.643,41.384,46.95,41.162z"/>
</g>
</svg>
