<?xml version="1.0" encoding="utf-8"?>
<!-- Generator: Adobe Illustrator 15.0.0, SVG Export Plug-In . SVG Version: 6.00 Build 0)  -->
<svg version="1.2" baseProfile="tiny" id="Laag_1" xmlns="http://www.w3.org/2000/svg" xmlns:xlink="http://www.w3.org/1999/xlink"
	 x="0px" y="0px" width="128px" height="128px" viewBox="-39.027 -39.027 128 128" overflow="inherit" xml:space="preserve">
<path d="M24.963-6.239C15.048,0.311,8.488,11.547,8.479,24.293c0.004,12.752,6.564,23.995,16.484,30.548
	c9.912-6.549,16.473-17.783,16.484-30.525C41.446,11.56,34.885,0.315,24.963-6.239z"/>
<path d="M45.084-19.549c-7.25,0-14.089,1.779-20.121,4.907c-6.032-3.128-12.87-4.907-20.121-4.907
	c-24.186,0-43.868,19.68-43.868,43.868c0,24.186,19.682,43.866,43.868,43.866c7.251,0,14.089-1.779,20.121-4.908
	c6.032,3.129,12.871,4.908,20.121,4.908c24.187,0,43.862-19.68,43.862-43.866C88.946,0.131,69.27-19.549,45.084-19.549z
	 M48.707,24.32c0,6.078-1.245,11.869-3.491,17.134c-2.736,6.503-6.943,12.169-12.082,16.327c-0.313,0.265-0.62,0.538-0.94,0.795
	h-0.049c-4.395,3.315-7.179,4.667-7.179,4.667s-3.53-2.14-7.18-4.667h-0.054c-0.152-0.122-0.296-0.254-0.447-0.378
	c-1.561-1.147-3.135-2.648-4.663-4.429C5.545,45.979,1.219,35.647,1.219,24.32c0-0.007,0-0.014,0-0.021c0-0.006,0-0.012,0-0.017
	c0-6.079,1.246-11.871,3.493-17.138C7.446,0.647,11.647-5.013,16.779-9.169c0.317-0.269,0.628-0.546,0.953-0.806h0.05
	c4.394-3.315,7.178-4.667,7.178-4.667s3.529,2.139,7.18,4.667h0.055c0.156,0.125,0.303,0.26,0.457,0.387
	c1.555,1.145,3.122,2.64,4.645,4.411c7.082,7.791,11.411,18.126,11.411,29.458c0,0.007-0.001,0.014-0.001,0.021
	C48.706,24.308,48.707,24.314,48.707,24.32z"/>
</svg>
