<?xml version="1.0" encoding="utf-8"?>
<!-- Generator: Adobe Illustrator 15.0.2, SVG Export Plug-In . SVG Version: 6.00 Build 0)  -->
<!DOCTYPE svg PUBLIC "-//W3C//DTD SVG 1.1//EN" "http://www.w3.org/Graphics/SVG/1.1/DTD/svg11.dtd">
<svg version="1.1" id="Laag_1" xmlns="http://www.w3.org/2000/svg" xmlns:xlink="http://www.w3.org/1999/xlink" x="0px" y="0px"
	 width="49.947px" height="49.947px" viewBox="0 0 49.947 49.947" enable-background="new 0 0 49.947 49.947" xml:space="preserve">
<g>
	<path d="M41.085,35.749c0,0.816-0.046,1.438-0.139,1.864c-0.093,0.428-0.219,0.715-0.376,0.863s-0.366,0.283-0.626,0.403
		c-0.26,0.121-0.575,0.232-0.946,0.334s-0.793,0.186-1.267,0.251c-0.473,0.064-0.97,0.098-1.489,0.098
		c-1.039,0-1.985-0.098-2.839-0.293c-0.854-0.194-1.609-0.574-2.269-1.141c-0.658-0.566-1.206-1.346-1.642-2.338
		c-0.437-0.993-0.766-2.287-0.988-3.883s-0.329-3.53-0.32-5.804c0.01-2.272,0.144-4.968,0.404-8.085h-6.986
		c0.037,2.839-0.019,5.335-0.167,7.487s-0.348,4.021-0.599,5.608c-0.25,1.586-0.533,2.927-0.849,4.021s-0.552,1.828-0.71,2.198
		c-0.157,0.372-0.288,0.654-0.39,0.85c-0.102,0.194-0.199,0.344-0.292,0.445s-0.223,0.19-0.39,0.264
		c-0.167,0.075-0.376,0.136-0.626,0.182c-0.251,0.046-0.566,0.078-0.946,0.098c-0.381,0.018-0.831,0.027-1.351,0.027
		c-0.779,0-1.4-0.019-1.864-0.056s-0.826-0.093-1.086-0.167s-0.436-0.167-0.528-0.278s-0.14-0.241-0.14-0.39
		c0-0.186,0.056-0.432,0.167-0.737c0.111-0.307,0.265-0.71,0.46-1.211c0.194-0.501,0.459-1.322,0.793-2.463
		c0.334-1.142,0.631-2.468,0.891-3.98c0.26-1.512,0.464-3.247,0.612-5.205c0.148-1.957,0.223-4.188,0.223-6.693H11.36
		c-0.353,0-0.631-0.231-0.835-0.696c-0.205-0.464-0.307-1.178-0.307-2.143c0-0.52,0.019-0.965,0.056-1.336s0.102-0.668,0.195-0.891
		c0.093-0.223,0.213-0.385,0.361-0.487c0.148-0.102,0.325-0.153,0.529-0.153h27.609c0.223,0,0.408,0.052,0.557,0.153
		c0.148,0.102,0.27,0.264,0.362,0.487s0.157,0.52,0.194,0.891s0.056,0.816,0.056,1.336c0,0.965-0.102,1.679-0.306,2.143
		c-0.204,0.465-0.511,0.696-0.919,0.696h-3.59c-0.13,2.431-0.2,4.505-0.209,6.221c-0.01,1.717,0.032,3.154,0.125,4.313
		c0.093,1.16,0.223,2.079,0.39,2.756c0.167,0.678,0.366,1.192,0.599,1.545c0.231,0.353,0.491,0.58,0.779,0.682
		c0.287,0.103,0.58,0.153,0.877,0.153c0.445,0,0.933-0.074,1.461-0.223c0.529-0.148,0.867-0.223,1.016-0.223
		c0.111,0,0.209,0.032,0.293,0.098c0.083,0.064,0.157,0.186,0.223,0.361c0.064,0.177,0.115,0.427,0.152,0.752
		C41.066,34.779,41.085,35.211,41.085,35.749z"/>
</g>
</svg>
