<?xml version="1.0" encoding="utf-8"?>
<!-- Generator: Adobe Illustrator 15.0.2, SVG Export Plug-In . SVG Version: 6.00 Build 0)  -->
<!DOCTYPE svg PUBLIC "-//W3C//DTD SVG 1.1//EN" "http://www.w3.org/Graphics/SVG/1.1/DTD/svg11.dtd">
<svg version="1.1" id="Laag_1" xmlns="http://www.w3.org/2000/svg" xmlns:xlink="http://www.w3.org/1999/xlink" x="0px" y="0px"
	 width="49.947px" height="49.947px" viewBox="0 0 49.947 49.947" enable-background="new 0 0 49.947 49.947" xml:space="preserve">
<g>
	<path d="M31.495,47.353c0.189,0.402,0.279,0.733,0.268,0.993c-0.014,0.261-0.184,0.474-0.516,0.639
		c-0.33,0.166-0.84,0.277-1.525,0.337c-0.686,0.059-1.596,0.089-2.73,0.089c-1.064,0-1.921-0.018-2.571-0.054
		c-0.65-0.035-1.159-0.106-1.525-0.212c-0.367-0.106-0.638-0.236-0.815-0.391c-0.178-0.153-0.314-0.349-0.408-0.585l-5.853-11.245
		L9.966,48.169c-0.095,0.236-0.225,0.432-0.391,0.585c-0.166,0.154-0.42,0.284-0.762,0.391c-0.343,0.105-0.822,0.177-1.437,0.212
		c-0.615,0.036-1.418,0.054-2.412,0.054c-1.041,0-1.869-0.03-2.483-0.089c-0.615-0.06-1.064-0.171-1.348-0.337
		c-0.284-0.165-0.432-0.378-0.443-0.639c-0.012-0.26,0.089-0.591,0.301-0.993l8.762-15.571L1.665,17.167
		c-0.213-0.426-0.326-0.786-0.337-1.082c-0.012-0.295,0.136-0.526,0.443-0.691c0.307-0.166,0.798-0.284,1.472-0.355
		c0.674-0.071,1.59-0.106,2.749-0.106c1.041,0,1.874,0.018,2.501,0.053c0.626,0.036,1.117,0.089,1.472,0.16
		c0.354,0.071,0.614,0.184,0.78,0.337c0.165,0.154,0.307,0.349,0.425,0.585l5.64,10.57l5.604-10.57
		c0.071-0.189,0.177-0.354,0.319-0.497c0.142-0.142,0.366-0.26,0.674-0.355c0.307-0.094,0.727-0.165,1.259-0.212
		c0.532-0.047,1.258-0.071,2.18-0.071c1.041,0,1.875,0.024,2.502,0.071c0.625,0.047,1.074,0.154,1.348,0.319
		c0.271,0.166,0.402,0.396,0.391,0.692c-0.014,0.296-0.148,0.68-0.408,1.153l-7.875,14.365L31.495,47.353z"/>
</g>
<g>
	<g>
		<path d="M49.005,16.295c0,0.113-0.033,0.211-0.102,0.295c-0.067,0.084-0.18,0.155-0.337,0.211
			c-0.158,0.056-0.375,0.098-0.65,0.126c-0.276,0.028-0.617,0.042-1.022,0.042c-0.416,0-0.763-0.015-1.038-0.042
			c-0.276-0.028-0.493-0.07-0.65-0.126c-0.158-0.056-0.271-0.127-0.338-0.211s-0.102-0.183-0.102-0.295V7.698
			c0-0.732-0.054-1.306-0.16-1.723c-0.107-0.417-0.262-0.774-0.465-1.073s-0.465-0.529-0.785-0.692
			c-0.321-0.163-0.695-0.245-1.123-0.245c-0.541,0-1.087,0.197-1.639,0.591s-1.126,0.968-1.723,1.723v10.016
			c0,0.113-0.034,0.211-0.102,0.295s-0.184,0.155-0.347,0.211s-0.38,0.098-0.649,0.126c-0.271,0.028-0.614,0.042-1.03,0.042
			c-0.417,0-0.761-0.015-1.031-0.042c-0.27-0.028-0.486-0.07-0.649-0.126c-0.164-0.056-0.279-0.127-0.347-0.211
			s-0.102-0.183-0.102-0.295V1.229c0-0.112,0.028-0.211,0.085-0.295c0.056-0.084,0.157-0.155,0.304-0.211
			c0.146-0.057,0.335-0.099,0.565-0.127c0.231-0.028,0.521-0.042,0.87-0.042c0.36,0,0.659,0.014,0.896,0.042
			c0.236,0.028,0.419,0.07,0.549,0.127c0.129,0.056,0.223,0.126,0.278,0.211c0.057,0.084,0.085,0.183,0.085,0.295v1.74
			c0.833-0.9,1.681-1.576,2.542-2.027c0.861-0.45,1.759-0.675,2.694-0.675c1.024,0,1.889,0.169,2.592,0.506
			c0.704,0.338,1.272,0.797,1.706,1.377s0.746,1.258,0.938,2.035s0.287,1.711,0.287,2.804V16.295z"/>
	</g>
</g>
</svg>
