<?xml version="1.0" encoding="utf-8"?>
<!-- Generator: Adobe Illustrator 15.0.2, SVG Export Plug-In . SVG Version: 6.00 Build 0)  -->
<!DOCTYPE svg PUBLIC "-//W3C//DTD SVG 1.1//EN" "http://www.w3.org/Graphics/SVG/1.1/DTD/svg11.dtd">
<svg version="1.1" id="Laag_1" xmlns="http://www.w3.org/2000/svg" xmlns:xlink="http://www.w3.org/1999/xlink" x="0px" y="0px"
	 width="49.947px" height="49.947px" viewBox="0 0 49.947 49.947" enable-background="new 0 0 49.947 49.947" xml:space="preserve">
<g>
	<path d="M13.302,20.383c0,0.326-0.009,0.592-0.027,0.8s-0.045,0.371-0.081,0.488c-0.036,0.118-0.084,0.199-0.143,0.244
		c-0.059,0.045-0.133,0.068-0.224,0.068c-0.073,0-0.154-0.016-0.244-0.047c-0.091-0.032-0.192-0.065-0.305-0.102
		c-0.113-0.036-0.237-0.07-0.373-0.102s-0.285-0.047-0.448-0.047c-0.19,0-0.379,0.039-0.569,0.115s-0.387,0.197-0.59,0.359
		c-0.203,0.163-0.416,0.38-0.637,0.651c-0.222,0.271-0.459,0.606-0.712,1.004v7.542c0,0.09-0.027,0.169-0.082,0.236
		c-0.054,0.068-0.147,0.125-0.278,0.17c-0.131,0.045-0.305,0.079-0.522,0.102c-0.217,0.022-0.493,0.034-0.827,0.034
		c-0.335,0-0.61-0.012-0.828-0.034c-0.217-0.022-0.391-0.057-0.522-0.102c-0.131-0.045-0.224-0.102-0.278-0.17
		c-0.055-0.067-0.082-0.146-0.082-0.236V19.258c0-0.09,0.022-0.17,0.068-0.237c0.045-0.068,0.126-0.125,0.244-0.17
		c0.117-0.045,0.269-0.079,0.454-0.102c0.186-0.022,0.418-0.034,0.699-0.034c0.289,0,0.529,0.011,0.719,0.034
		c0.19,0.023,0.337,0.057,0.441,0.102c0.104,0.045,0.178,0.102,0.224,0.17c0.045,0.067,0.068,0.147,0.068,0.237v1.505
		c0.316-0.452,0.615-0.825,0.895-1.119c0.28-0.293,0.547-0.526,0.8-0.698c0.253-0.172,0.506-0.292,0.759-0.359
		c0.253-0.068,0.506-0.102,0.76-0.102c0.117,0,0.244,0.007,0.38,0.021c0.135,0.014,0.275,0.036,0.42,0.068
		c0.145,0.032,0.271,0.068,0.38,0.108c0.108,0.041,0.188,0.084,0.237,0.129c0.049,0.045,0.085,0.095,0.108,0.149
		c0.022,0.054,0.043,0.128,0.061,0.224c0.018,0.095,0.032,0.237,0.041,0.427S13.302,20.058,13.302,20.383z"/>
	<path d="M27.184,31.396c0,0.126-0.045,0.226-0.135,0.298c-0.091,0.072-0.233,0.125-0.428,0.156s-0.481,0.048-0.861,0.048
		c-0.407,0-0.703-0.017-0.888-0.048c-0.185-0.031-0.316-0.084-0.393-0.156c-0.077-0.072-0.115-0.172-0.115-0.298v-0.963
		c-0.498,0.534-1.065,0.949-1.702,1.247c-0.638,0.299-1.345,0.448-2.123,0.448c-0.642,0-1.232-0.084-1.77-0.251
		c-0.538-0.167-1.004-0.416-1.397-0.746c-0.394-0.33-0.699-0.739-0.916-1.228c-0.217-0.487-0.326-1.058-0.326-1.708
		c0-0.706,0.138-1.318,0.414-1.838c0.276-0.521,0.687-0.95,1.234-1.289c0.547-0.339,1.228-0.59,2.041-0.753
		c0.814-0.163,1.759-0.244,2.835-0.244h1.18V23.34c0-0.38-0.039-0.712-0.115-0.997s-0.203-0.522-0.379-0.712
		c-0.177-0.19-0.412-0.33-0.706-0.42s-0.658-0.136-1.092-0.136c-0.57,0-1.078,0.063-1.526,0.19c-0.447,0.126-0.843,0.267-1.187,0.42
		c-0.344,0.154-0.631,0.294-0.861,0.42s-0.418,0.19-0.563,0.19c-0.1,0-0.188-0.032-0.264-0.095c-0.077-0.063-0.141-0.153-0.19-0.271
		c-0.05-0.118-0.088-0.262-0.115-0.434c-0.027-0.172-0.041-0.362-0.041-0.57c0-0.28,0.022-0.501,0.068-0.665
		c0.045-0.163,0.131-0.31,0.258-0.441c0.126-0.131,0.348-0.275,0.665-0.434s0.687-0.305,1.112-0.441
		c0.425-0.136,0.888-0.246,1.39-0.333c0.501-0.085,1.019-0.129,1.553-0.129c0.95,0,1.761,0.093,2.435,0.278
		c0.673,0.186,1.227,0.47,1.662,0.854s0.751,0.879,0.949,1.485c0.198,0.606,0.298,1.325,0.298,2.157V31.396z M23.835,26.216h-1.302
		c-0.552,0-1.022,0.041-1.411,0.121c-0.389,0.082-0.705,0.204-0.949,0.367c-0.244,0.162-0.423,0.359-0.536,0.59
		c-0.113,0.23-0.169,0.494-0.169,0.793c0,0.507,0.161,0.904,0.481,1.193c0.321,0.29,0.767,0.435,1.336,0.435
		c0.479,0,0.92-0.122,1.323-0.366c0.402-0.244,0.811-0.602,1.227-1.072V26.216z"/>
	<path d="M44.147,31.356c0,0.1-0.023,0.183-0.068,0.25c-0.045,0.068-0.122,0.125-0.23,0.17s-0.256,0.076-0.44,0.095
		c-0.186,0.019-0.414,0.027-0.686,0.027c-0.289,0-0.524-0.009-0.705-0.027s-0.328-0.05-0.44-0.095
		c-0.113-0.045-0.195-0.102-0.244-0.17c-0.05-0.067-0.075-0.15-0.075-0.25v-1.344c-0.624,0.67-1.277,1.189-1.96,1.561
		c-0.683,0.37-1.439,0.556-2.271,0.556c-0.922,0-1.702-0.179-2.34-0.536c-0.637-0.357-1.157-0.838-1.56-1.444
		c-0.402-0.605-0.693-1.313-0.875-2.122c-0.181-0.81-0.271-1.662-0.271-2.557c0-1.076,0.115-2.043,0.346-2.902
		c0.23-0.859,0.567-1.591,1.01-2.197c0.443-0.605,0.995-1.071,1.655-1.397c0.66-0.325,1.419-0.488,2.278-0.488
		c0.679,0,1.293,0.138,1.845,0.414s1.099,0.68,1.641,1.214v-6.551c0-0.09,0.025-0.171,0.075-0.244
		c0.05-0.072,0.14-0.133,0.271-0.183c0.131-0.049,0.305-0.088,0.521-0.115c0.217-0.027,0.493-0.041,0.827-0.041
		c0.335,0,0.61,0.014,0.828,0.041c0.217,0.027,0.389,0.066,0.515,0.115c0.127,0.05,0.218,0.111,0.271,0.183
		c0.055,0.073,0.082,0.154,0.082,0.244V31.356z M40.756,23.272c-0.488-0.615-0.956-1.085-1.403-1.411
		c-0.447-0.326-0.915-0.488-1.403-0.488c-0.443,0-0.826,0.111-1.146,0.332c-0.321,0.222-0.579,0.518-0.773,0.889
		s-0.339,0.785-0.434,1.241c-0.095,0.457-0.143,0.925-0.143,1.404c0,0.506,0.041,1,0.122,1.479c0.081,0.479,0.215,0.906,0.4,1.281
		c0.185,0.375,0.432,0.676,0.739,0.902c0.307,0.226,0.696,0.338,1.166,0.338c0.235,0,0.463-0.033,0.685-0.102
		c0.222-0.067,0.448-0.178,0.679-0.332c0.23-0.153,0.468-0.354,0.712-0.604c0.244-0.248,0.511-0.554,0.8-0.915V23.272z"/>
</g>
</svg>
