<?xml version="1.0" encoding="utf-8"?>
<!-- Generator: Adobe Illustrator 15.0.2, SVG Export Plug-In . SVG Version: 6.00 Build 0)  -->
<!DOCTYPE svg PUBLIC "-//W3C//DTD SVG 1.1//EN" "http://www.w3.org/Graphics/SVG/1.1/DTD/svg11.dtd">
<svg version="1.1" id="Laag_1" xmlns="http://www.w3.org/2000/svg" xmlns:xlink="http://www.w3.org/1999/xlink" x="0px" y="0px"
	 width="49.947px" height="49.947px" viewBox="0 0 49.947 49.947" enable-background="new 0 0 49.947 49.947" xml:space="preserve">
<polygon fill="none" stroke="#000000" stroke-width="3" stroke-linejoin="round" stroke-miterlimit="68" points="46.516,37.194 
	25.516,48.231 25.516,23.706 46.516,12.667 "/>
<polygon fill="none" stroke="#000000" stroke-width="3" stroke-linejoin="round" stroke-miterlimit="68" points="4.516,37.194 
	25.516,48.231 25.516,23.706 4.516,12.667 "/>
<polygon fill="none" stroke="#000000" stroke-width="3" stroke-linejoin="round" stroke-miterlimit="10" points="4.516,12.667 
	25.516,1.631 46.516,12.667 25.516,23.706 "/>
<ellipse cx="17.92" cy="12.824" rx="2.93" ry="2.149"/>
<ellipse cx="26.167" cy="12.824" rx="2.93" ry="2.149"/>
<ellipse cx="34.152" cy="12.824" rx="2.931" ry="2.149"/>
<ellipse transform="matrix(-0.7071 -0.7071 0.7071 -0.7071 2.3195 54.4641)" cx="12.439" cy="26.752" rx="2.93" ry="2.149"/>
<ellipse transform="matrix(-0.7071 -0.7071 0.7071 -0.7071 5.03 72.4683)" cx="17.524" cy="35.192" rx="2.931" ry="2.15"/>
<ellipse transform="matrix(0.7071 -0.7071 0.7071 0.7071 -10.5518 34.6663)" cx="36.57" cy="30.07" rx="2.929" ry="2.15"/>
</svg>
