<?xml version="1.0" encoding="utf-8"?>
<!-- Generator: Adobe Illustrator 15.0.2, SVG Export Plug-In . SVG Version: 6.00 Build 0)  -->
<!DOCTYPE svg PUBLIC "-//W3C//DTD SVG 1.1//EN" "http://www.w3.org/Graphics/SVG/1.1/DTD/svg11.dtd">
<svg version="1.1" id="Laag_1" xmlns="http://www.w3.org/2000/svg" xmlns:xlink="http://www.w3.org/1999/xlink" x="0px" y="0px"
	 width="49.947px" height="49.947px" viewBox="0 0 49.947 49.947" enable-background="new 0 0 49.947 49.947" xml:space="preserve">
<g>
	<path d="M29.96,12.704c0.07,0.146,0.102,0.267,0.098,0.361c-0.004,0.095-0.066,0.172-0.188,0.232
		c-0.119,0.06-0.305,0.101-0.553,0.122c-0.25,0.021-0.582,0.032-0.994,0.032c-0.387,0-0.699-0.006-0.936-0.019
		c-0.234-0.013-0.42-0.039-0.553-0.078c-0.135-0.039-0.232-0.085-0.297-0.142c-0.066-0.055-0.115-0.126-0.15-0.212L24.26,8.912
		L22.132,13c-0.035,0.086-0.082,0.157-0.142,0.213c-0.061,0.056-0.153,0.103-0.277,0.142c-0.125,0.039-0.299,0.064-0.521,0.078
		c-0.225,0.013-0.517,0.019-0.877,0.019c-0.379,0-0.68-0.011-0.903-0.032c-0.225-0.021-0.387-0.062-0.49-0.122
		c-0.103-0.06-0.157-0.138-0.161-0.232c-0.004-0.094,0.032-0.215,0.11-0.361l3.185-5.662L19.115,1.73
		c-0.078-0.156-0.119-0.287-0.123-0.395c-0.004-0.107,0.049-0.19,0.161-0.251c0.111-0.06,0.29-0.103,0.535-0.129
		c0.244-0.026,0.577-0.039,1-0.039c0.378,0,0.681,0.006,0.908,0.02c0.229,0.013,0.406,0.032,0.535,0.058
		c0.129,0.026,0.224,0.067,0.284,0.122c0.06,0.056,0.111,0.127,0.155,0.213l2.05,3.843l2.038-3.843
		c0.025-0.069,0.064-0.129,0.117-0.181c0.051-0.051,0.133-0.094,0.244-0.128s0.264-0.06,0.457-0.077
		c0.195-0.017,0.459-0.026,0.795-0.026c0.377,0,0.682,0.009,0.908,0.026c0.229,0.017,0.391,0.056,0.49,0.116
		c0.098,0.06,0.146,0.144,0.141,0.251c-0.004,0.107-0.053,0.247-0.146,0.419l-2.863,5.223L29.96,12.704z"/>
</g>
<g>
	<path d="M30.303,48.972c0,0.086-0.025,0.161-0.078,0.227c-0.051,0.064-0.137,0.117-0.258,0.16s-0.287,0.076-0.498,0.098
		c-0.209,0.021-0.471,0.031-0.779,0.031c-0.318,0-0.582-0.01-0.793-0.031s-0.375-0.055-0.496-0.098s-0.207-0.096-0.26-0.16
		c-0.051-0.064-0.076-0.141-0.076-0.227v-6.563c0-0.56-0.041-0.997-0.123-1.315c-0.082-0.316-0.199-0.591-0.354-0.818
		c-0.156-0.228-0.355-0.403-0.6-0.527c-0.246-0.125-0.532-0.188-0.858-0.188c-0.413,0-0.83,0.149-1.251,0.45
		c-0.421,0.302-0.86,0.739-1.314,1.315v7.646c0,0.086-0.025,0.161-0.077,0.227c-0.053,0.064-0.141,0.117-0.266,0.16
		s-0.29,0.076-0.496,0.098c-0.207,0.021-0.469,0.031-0.786,0.031c-0.318,0-0.581-0.01-0.787-0.031s-0.372-0.055-0.496-0.098
		c-0.125-0.043-0.213-0.096-0.266-0.16c-0.051-0.064-0.076-0.141-0.076-0.227V37.469c0-0.086,0.021-0.161,0.063-0.226
		c0.043-0.065,0.12-0.118,0.232-0.161c0.111-0.043,0.256-0.075,0.432-0.097c0.176-0.022,0.397-0.032,0.664-0.032
		c0.275,0,0.503,0.011,0.684,0.032c0.182,0.021,0.32,0.054,0.419,0.097c0.1,0.043,0.171,0.097,0.214,0.161s0.063,0.14,0.063,0.226
		v1.328c0.636-0.688,1.283-1.204,1.941-1.548c0.657-0.344,1.343-0.516,2.056-0.516c0.783,0,1.443,0.129,1.98,0.387
		c0.535,0.258,0.971,0.607,1.301,1.051c0.332,0.443,0.568,0.961,0.717,1.555c0.145,0.594,0.219,1.308,0.219,2.142v7.104H30.303z"/>
</g>
<circle cx="24.778" cy="18.387" r="2.073"/>
<circle cx="24.778" cy="24.974" r="2.073"/>
<circle cx="24.778" cy="31.562" r="2.073"/>
</svg>
