<?xml version="1.0" encoding="utf-8"?>
<!-- Generator: Adobe Illustrator 15.0.2, SVG Export Plug-In . SVG Version: 6.00 Build 0)  -->
<!DOCTYPE svg PUBLIC "-//W3C//DTD SVG 1.1//EN" "http://www.w3.org/Graphics/SVG/1.1/DTD/svg11.dtd">
<svg version="1.1" id="Laag_1" xmlns="http://www.w3.org/2000/svg" xmlns:xlink="http://www.w3.org/1999/xlink" x="0px" y="0px"
	 width="49.947px" height="49.947px" viewBox="0 0 49.947 49.947" enable-background="new 0 0 49.947 49.947" xml:space="preserve">
<g>
	<path d="M19.506,5.104c0,0.198-0.011,0.364-0.031,0.499c-0.023,0.134-0.054,0.242-0.096,0.324
		c-0.043,0.081-0.093,0.139-0.149,0.174c-0.056,0.036-0.116,0.054-0.18,0.054h-3.3v3.597c0,0.071-0.019,0.133-0.054,0.186
		c-0.035,0.053-0.095,0.1-0.178,0.138c-0.085,0.04-0.199,0.069-0.34,0.09c-0.141,0.021-0.317,0.032-0.531,0.032
		c-0.212,0-0.388-0.011-0.529-0.032c-0.144-0.021-0.255-0.051-0.34-0.09c-0.085-0.038-0.147-0.085-0.185-0.138
		c-0.039-0.053-0.06-0.115-0.06-0.186V6.155h-3.29c-0.062,0-0.121-0.018-0.174-0.054c-0.052-0.036-0.1-0.094-0.143-0.174
		c-0.042-0.082-0.077-0.19-0.1-0.324C9.799,5.468,9.786,5.302,9.786,5.104c0-0.191,0.01-0.355,0.031-0.493
		c0.021-0.138,0.052-0.248,0.089-0.329C9.946,4.2,9.99,4.142,10.04,4.106s0.105-0.053,0.17-0.053h3.321V0.467
		c0-0.07,0.021-0.137,0.06-0.197c0.038-0.059,0.1-0.109,0.185-0.148c0.085-0.039,0.197-0.069,0.34-0.09
		C14.257,0.01,14.433,0,14.645,0c0.214,0,0.39,0.01,0.531,0.031c0.141,0.021,0.255,0.052,0.34,0.09
		C15.6,0.161,15.66,0.21,15.695,0.27c0.036,0.061,0.054,0.127,0.054,0.197v3.586h3.331c0.058,0,0.112,0.018,0.166,0.053
		c0.052,0.035,0.098,0.093,0.137,0.175c0.04,0.081,0.068,0.191,0.091,0.329C19.495,4.749,19.506,4.913,19.506,5.104z"/>
	<path d="M19.506,18.111c0,0.375-0.042,0.64-0.123,0.796s-0.197,0.233-0.345,0.233h-8.096c-0.149,0-0.264-0.078-0.347-0.233
		c-0.081-0.156-0.121-0.42-0.121-0.796c0-0.361,0.038-0.619,0.11-0.774c0.074-0.156,0.193-0.233,0.357-0.233h8.096
		c0.162,0,0.28,0.078,0.355,0.233S19.506,17.75,19.506,18.111z M19.506,22.397c0,0.382-0.042,0.647-0.123,0.796
		s-0.197,0.223-0.345,0.223h-8.096c-0.149,0-0.264-0.075-0.347-0.223c-0.081-0.148-0.121-0.414-0.121-0.796
		c0-0.36,0.038-0.621,0.11-0.779c0.074-0.16,0.193-0.239,0.357-0.239h8.096c0.162,0,0.28,0.079,0.355,0.239
		C19.469,21.777,19.506,22.038,19.506,22.397z"/>
	<path d="M35.316,12.786c0,0.411-0.037,0.697-0.116,0.86c-0.076,0.163-0.201,0.244-0.371,0.244H10.637
		c-0.177,0-0.303-0.083-0.382-0.249c-0.077-0.166-0.116-0.452-0.116-0.855c0-0.396,0.039-0.675,0.116-0.837
		c0.079-0.163,0.205-0.245,0.382-0.245h24.191c0.085,0,0.157,0.019,0.218,0.054c0.061,0.035,0.112,0.095,0.153,0.179
		c0.044,0.085,0.073,0.198,0.092,0.34C35.308,12.419,35.316,12.589,35.316,12.786z"/>
</g>
<g>
	<path d="M20.195,31.362c0,0.198-0.011,0.364-0.031,0.5c-0.023,0.134-0.054,0.241-0.096,0.323c-0.043,0.081-0.093,0.14-0.149,0.175
		c-0.056,0.036-0.116,0.054-0.18,0.054h-3.3v3.597c0,0.07-0.019,0.133-0.054,0.186s-0.096,0.1-0.179,0.139
		c-0.085,0.039-0.199,0.068-0.34,0.09c-0.141,0.021-0.317,0.032-0.531,0.032c-0.212,0-0.388-0.012-0.529-0.032
		c-0.143-0.021-0.255-0.051-0.34-0.09s-0.147-0.086-0.185-0.139c-0.04-0.053-0.061-0.115-0.061-0.186v-3.597h-3.29
		c-0.062,0-0.12-0.018-0.174-0.054c-0.052-0.035-0.1-0.094-0.143-0.175c-0.042-0.082-0.077-0.189-0.1-0.323
		c-0.025-0.136-0.038-0.302-0.038-0.5c0-0.19,0.011-0.354,0.031-0.492c0.021-0.139,0.052-0.248,0.089-0.329
		c0.04-0.082,0.083-0.141,0.133-0.176s0.106-0.053,0.17-0.053h3.321v-3.587c0-0.07,0.021-0.137,0.061-0.196
		c0.037-0.06,0.1-0.109,0.185-0.148s0.197-0.069,0.34-0.091c0.141-0.021,0.317-0.031,0.529-0.031c0.214,0,0.39,0.011,0.531,0.031
		c0.141,0.021,0.255,0.052,0.34,0.091c0.083,0.039,0.144,0.089,0.179,0.148s0.054,0.126,0.054,0.196v3.587h3.331
		c0.059,0,0.112,0.018,0.166,0.053c0.052,0.035,0.098,0.094,0.137,0.176c0.04,0.081,0.068,0.19,0.091,0.329
		C20.184,31.008,20.195,31.172,20.195,31.362z"/>
	<path d="M20.195,44.37c0,0.375-0.042,0.64-0.123,0.796c-0.081,0.155-0.197,0.233-0.345,0.233h-8.096
		c-0.149,0-0.264-0.078-0.347-0.233c-0.081-0.156-0.12-0.421-0.12-0.796c0-0.361,0.037-0.619,0.11-0.774
		c0.075-0.155,0.193-0.233,0.357-0.233h8.096c0.162,0,0.28,0.078,0.355,0.233S20.195,44.009,20.195,44.37z M20.195,48.656
		c0,0.383-0.042,0.648-0.123,0.797c-0.081,0.147-0.197,0.223-0.345,0.223h-8.096c-0.149,0-0.264-0.075-0.347-0.223
		c-0.081-0.148-0.12-0.414-0.12-0.797c0-0.359,0.037-0.62,0.11-0.779c0.075-0.159,0.193-0.238,0.357-0.238h8.096
		c0.162,0,0.28,0.079,0.355,0.238S20.195,48.297,20.195,48.656z"/>
	<path d="M36.006,39.045c0,0.411-0.037,0.697-0.116,0.86c-0.077,0.163-0.201,0.244-0.372,0.244H11.326
		c-0.176,0-0.303-0.083-0.382-0.249c-0.077-0.166-0.116-0.451-0.116-0.855c0-0.396,0.04-0.675,0.116-0.837
		c0.079-0.163,0.206-0.245,0.382-0.245h24.191c0.086,0,0.158,0.019,0.219,0.054c0.06,0.035,0.111,0.096,0.153,0.18
		c0.043,0.085,0.072,0.198,0.091,0.34C35.997,38.678,36.006,38.848,36.006,39.045z"/>
</g>
</svg>
