<?xml version="1.0" encoding="utf-8"?>
<!-- Generator: Adobe Illustrator 15.0.2, SVG Export Plug-In . SVG Version: 6.00 Build 0)  -->
<!DOCTYPE svg PUBLIC "-//W3C//DTD SVG 1.1//EN" "http://www.w3.org/Graphics/SVG/1.1/DTD/svg11.dtd">
<svg version="1.1" id="Laag_1" xmlns="http://www.w3.org/2000/svg" xmlns:xlink="http://www.w3.org/1999/xlink" x="0px" y="0px"
	 width="49.947px" height="49.947px" viewBox="0 0 49.947 49.947" enable-background="new 0 0 49.947 49.947" xml:space="preserve">
<g>
	<path d="M47.577,12.704c0.07,0.146,0.102,0.267,0.098,0.361c-0.004,0.095-0.066,0.172-0.188,0.232
		c-0.119,0.06-0.305,0.101-0.553,0.122c-0.25,0.021-0.582,0.032-0.994,0.032c-0.387,0-0.699-0.006-0.936-0.019
		c-0.234-0.013-0.42-0.039-0.553-0.078c-0.135-0.039-0.232-0.085-0.297-0.142c-0.066-0.055-0.115-0.126-0.15-0.212l-2.128-4.088
		L39.75,13c-0.035,0.086-0.082,0.157-0.143,0.213c-0.061,0.056-0.152,0.103-0.277,0.142s-0.299,0.064-0.521,0.078
		c-0.225,0.013-0.516,0.019-0.877,0.019c-0.379,0-0.68-0.011-0.902-0.032c-0.225-0.021-0.387-0.062-0.49-0.122
		s-0.158-0.138-0.162-0.232c-0.004-0.094,0.033-0.215,0.111-0.361l3.184-5.662L36.732,1.73c-0.078-0.156-0.119-0.287-0.123-0.395
		c-0.004-0.107,0.049-0.19,0.162-0.251c0.111-0.06,0.289-0.103,0.535-0.129c0.244-0.026,0.576-0.039,1-0.039
		c0.377,0,0.68,0.006,0.908,0.02c0.229,0.013,0.406,0.032,0.535,0.058c0.129,0.026,0.223,0.067,0.283,0.122
		c0.061,0.056,0.111,0.127,0.156,0.213l2.049,3.843l2.038-3.843c0.025-0.069,0.064-0.129,0.117-0.181
		c0.051-0.051,0.133-0.094,0.244-0.128s0.264-0.06,0.457-0.077c0.195-0.017,0.459-0.026,0.795-0.026
		c0.377,0,0.682,0.009,0.908,0.026c0.229,0.017,0.391,0.056,0.49,0.116c0.098,0.06,0.146,0.144,0.141,0.251
		c-0.004,0.107-0.053,0.247-0.146,0.419l-2.863,5.223L47.577,12.704z"/>
</g>
<g>
	<path d="M11.431,31.48c0,0.086-0.025,0.161-0.078,0.227c-0.051,0.064-0.137,0.117-0.258,0.16s-0.287,0.076-0.498,0.098
		c-0.209,0.021-0.471,0.031-0.779,0.031c-0.318,0-0.582-0.01-0.793-0.031S8.65,31.91,8.529,31.867s-0.207-0.096-0.26-0.16
		c-0.051-0.064-0.076-0.141-0.076-0.227v-6.563c0-0.56-0.041-0.997-0.123-1.315c-0.082-0.316-0.199-0.591-0.354-0.818
		c-0.156-0.228-0.355-0.403-0.6-0.527c-0.246-0.125-0.532-0.188-0.858-0.188c-0.413,0-0.83,0.149-1.251,0.45
		c-0.421,0.302-0.86,0.739-1.314,1.315v7.646c0,0.086-0.025,0.161-0.077,0.227c-0.053,0.064-0.141,0.117-0.266,0.16
		s-0.29,0.076-0.496,0.098c-0.207,0.021-0.469,0.031-0.786,0.031c-0.318,0-0.581-0.01-0.787-0.031s-0.372-0.055-0.496-0.098
		c-0.125-0.043-0.213-0.096-0.266-0.16c-0.051-0.064-0.076-0.141-0.076-0.227V19.978c0-0.086,0.021-0.161,0.063-0.226
		c0.043-0.065,0.12-0.118,0.232-0.161c0.111-0.043,0.256-0.075,0.432-0.097c0.176-0.022,0.397-0.032,0.664-0.032
		c0.275,0,0.503,0.011,0.684,0.032c0.182,0.021,0.32,0.054,0.419,0.097c0.1,0.043,0.171,0.097,0.214,0.161s0.063,0.14,0.063,0.226
		v1.328c0.636-0.688,1.283-1.204,1.941-1.548c0.657-0.344,1.343-0.516,2.056-0.516c0.783,0,1.443,0.129,1.98,0.387
		c0.535,0.258,0.971,0.607,1.301,1.051c0.332,0.443,0.568,0.961,0.717,1.555c0.145,0.594,0.219,1.308,0.219,2.142v7.104H11.431z"/>
</g>
<circle cx="42.394" cy="18.387" r="2.073"/>
<circle cx="42.394" cy="24.974" r="2.073"/>
<circle cx="42.394" cy="31.562" r="2.073"/>
<g>
	<path d="M44.05,45.257l-1.33,3.892c-0.073,0.205-0.275,0.353-0.604,0.443c-0.328,0.09-0.809,0.135-1.44,0.135
		c-0.328,0-0.591-0.014-0.788-0.043c-0.197-0.028-0.345-0.076-0.443-0.142s-0.152-0.147-0.16-0.246s0.017-0.218,0.074-0.357
		l1.465-3.682c-0.106-0.049-0.203-0.125-0.289-0.228s-0.149-0.212-0.19-0.326l-3.781-10.098c-0.106-0.288-0.16-0.507-0.16-0.659
		s0.05-0.271,0.148-0.357c0.099-0.086,0.265-0.146,0.498-0.179c0.234-0.032,0.544-0.049,0.93-0.049c0.354,0,0.633,0.006,0.838,0.019
		c0.205,0.012,0.365,0.043,0.48,0.092c0.114,0.05,0.201,0.126,0.259,0.229c0.057,0.103,0.114,0.248,0.172,0.437l2.586,7.352h0.037
		l2.364-7.499c0.049-0.213,0.112-0.354,0.19-0.425c0.078-0.069,0.208-0.121,0.389-0.154c0.18-0.032,0.496-0.049,0.948-0.049
		c0.353,0,0.646,0.017,0.88,0.049c0.234,0.033,0.406,0.095,0.518,0.186c0.11,0.09,0.166,0.211,0.166,0.363
		c0,0.151-0.033,0.33-0.099,0.535L44.05,45.257z"/>
</g>
<g>
	<path d="M29.51,43.304c0,0.239-0.016,0.445-0.045,0.617c-0.031,0.172-0.078,0.307-0.146,0.404
		c-0.066,0.097-0.145,0.176-0.234,0.235s-0.18,0.09-0.27,0.09c-0.27,0.06-0.506,0.094-0.707,0.101
		c-0.202,0.008-0.445,0.012-0.729,0.012c-1.002,0-1.825-0.161-2.469-0.482c-0.643-0.322-1.152-0.801-1.526-1.437
		s-0.628-1.433-0.763-2.39s-0.202-2.229-0.202-3.814v-4.623c0-1.017-0.063-1.84-0.19-2.468c-0.127-0.629-0.322-1.178-0.583-1.649
		c-0.262-0.472-0.599-0.853-1.01-1.145c-0.412-0.292-0.909-0.467-1.492-0.527c-0.135-0.029-0.247-0.07-0.337-0.123
		c-0.089-0.053-0.161-0.131-0.213-0.236c-0.053-0.104-0.094-0.242-0.124-0.415c-0.03-0.172-0.045-0.37-0.045-0.595
		c0-0.239,0.011-0.441,0.034-0.606c0.022-0.165,0.06-0.303,0.112-0.415c0.052-0.112,0.124-0.191,0.213-0.236
		c0.09-0.044,0.202-0.082,0.337-0.112c1.107-0.12,1.933-0.654,2.479-1.604c0.546-0.95,0.819-2.353,0.819-4.208v-3.613
		c0-1.571,0.071-2.834,0.213-3.792c0.142-0.958,0.404-1.758,0.785-2.401c0.382-0.643,0.89-1.125,1.526-1.447
		c0.636-0.321,1.448-0.482,2.435-0.482c0.284,0,0.52,0.004,0.706,0.011c0.188,0.008,0.416,0.042,0.686,0.101
		c0.104,0,0.205,0.026,0.303,0.079c0.098,0.053,0.18,0.131,0.246,0.235c0.068,0.105,0.115,0.244,0.146,0.416
		c0.029,0.172,0.045,0.378,0.045,0.617c0,0.255-0.016,0.468-0.045,0.64c-0.031,0.172-0.078,0.318-0.146,0.438
		c-0.066,0.12-0.148,0.202-0.246,0.247s-0.207,0.067-0.326,0.067l-0.92,0.022c-0.358,0-0.665,0.063-0.919,0.19
		c-0.255,0.127-0.461,0.374-0.617,0.741c-0.157,0.367-0.277,0.872-0.359,1.515s-0.123,1.63-0.123,2.962v3.276
		c0,1.092-0.061,2.023-0.18,2.794c-0.12,0.771-0.333,1.462-0.64,2.076s-0.714,1.141-1.223,1.582
		c-0.509,0.441-1.152,0.744-1.93,0.909c0.778,0.15,1.421,0.445,1.93,0.886c0.508,0.441,0.916,0.973,1.223,1.594
		c0.307,0.62,0.52,1.312,0.64,2.075c0.119,0.763,0.18,1.698,0.18,2.805v4.264c0,1.316,0.037,2.296,0.111,2.939
		c0.075,0.644,0.191,1.148,0.349,1.515c0.156,0.366,0.358,0.617,0.605,0.752s0.542,0.202,0.887,0.202l0.941,0.022
		c0.135,0,0.254,0.022,0.359,0.067s0.191,0.123,0.258,0.235c0.068,0.112,0.115,0.254,0.146,0.426
		C29.494,42.813,29.51,43.035,29.51,43.304z"/>
</g>
</svg>
