<?xml version="1.0" encoding="utf-8"?>
<!-- Generator: Adobe Illustrator 15.0.2, SVG Export Plug-In . SVG Version: 6.00 Build 0)  -->
<!DOCTYPE svg PUBLIC "-//W3C//DTD SVG 1.1//EN" "http://www.w3.org/Graphics/SVG/1.1/DTD/svg11.dtd">
<svg version="1.1" id="Laag_1" xmlns="http://www.w3.org/2000/svg" xmlns:xlink="http://www.w3.org/1999/xlink" x="0px" y="0px"
	 width="49.947px" height="49.947px" viewBox="0 0 49.947 49.947" enable-background="new 0 0 49.947 49.947" xml:space="preserve">
<g>
	<path d="M17.872,29.907c0,0.978-0.183,1.839-0.55,2.584c-0.366,0.746-0.884,1.37-1.553,1.871c-0.668,0.502-1.459,0.879-2.373,1.129
		c-0.913,0.251-1.903,0.377-2.97,0.377c-0.644,0-1.257-0.049-1.842-0.146c-0.585-0.097-1.109-0.219-1.572-0.366
		c-0.463-0.148-0.849-0.299-1.157-0.453s-0.534-0.299-0.675-0.434c-0.142-0.136-0.25-0.348-0.328-0.637
		c-0.077-0.29-0.116-0.717-0.116-1.283c0-0.373,0.013-0.672,0.039-0.896c0.025-0.226,0.064-0.406,0.116-0.541
		c0.051-0.135,0.116-0.225,0.193-0.27s0.173-0.068,0.289-0.068c0.142,0,0.351,0.081,0.627,0.242c0.276,0.16,0.621,0.338,1.032,0.53
		c0.411,0.192,0.89,0.373,1.437,0.54c0.546,0.167,1.167,0.25,1.861,0.25c0.437,0,0.826-0.045,1.167-0.135s0.637-0.219,0.887-0.385
		c0.251-0.168,0.44-0.38,0.569-0.637c0.128-0.258,0.193-0.553,0.193-0.888c0-0.386-0.119-0.717-0.357-0.993
		c-0.238-0.277-0.553-0.518-0.945-0.724c-0.393-0.206-0.836-0.398-1.331-0.579c-0.495-0.18-1.003-0.379-1.524-0.598
		c-0.521-0.219-1.029-0.469-1.523-0.752c-0.495-0.283-0.939-0.63-1.331-1.042c-0.393-0.411-0.708-0.906-0.945-1.485
		c-0.238-0.579-0.357-1.273-0.357-2.083c0-0.823,0.161-1.578,0.482-2.267c0.321-0.688,0.784-1.276,1.389-1.765
		s1.341-0.868,2.208-1.138c0.868-0.27,1.842-0.405,2.922-0.405c0.54,0,1.064,0.039,1.572,0.116c0.508,0.077,0.967,0.174,1.379,0.29
		c0.411,0.116,0.758,0.241,1.042,0.376c0.283,0.135,0.485,0.251,0.607,0.347c0.122,0.097,0.209,0.193,0.26,0.29
		c0.051,0.096,0.09,0.212,0.116,0.347s0.048,0.302,0.068,0.501c0.019,0.2,0.029,0.447,0.029,0.743c0,0.347-0.01,0.63-0.029,0.849
		c-0.02,0.219-0.052,0.393-0.097,0.521s-0.106,0.215-0.183,0.26c-0.077,0.045-0.167,0.067-0.27,0.067
		c-0.116,0-0.296-0.067-0.54-0.202c-0.245-0.135-0.55-0.28-0.917-0.434c-0.366-0.154-0.791-0.299-1.273-0.434
		c-0.482-0.135-1.032-0.203-1.649-0.203c-0.437,0-0.816,0.045-1.138,0.135c-0.322,0.09-0.585,0.219-0.791,0.386
		c-0.206,0.167-0.36,0.363-0.463,0.588c-0.103,0.225-0.154,0.466-0.154,0.723c0,0.399,0.122,0.733,0.366,1.003
		s0.566,0.508,0.965,0.714c0.398,0.206,0.852,0.399,1.36,0.579c0.508,0.18,1.022,0.376,1.543,0.588
		c0.521,0.212,1.035,0.46,1.543,0.743s0.961,0.63,1.36,1.042s0.72,0.903,0.965,1.476C17.75,28.444,17.872,29.123,17.872,29.907z"/>
	<path d="M26.745,11.737c0,0.978-0.199,1.652-0.598,2.025s-1.139,0.559-2.219,0.559c-1.094,0-1.83-0.18-2.209-0.54
		c-0.379-0.36-0.568-1.009-0.568-1.948c0-0.977,0.195-1.655,0.588-2.035s1.135-0.569,2.229-0.569c1.08,0,1.812,0.184,2.199,0.55
		C26.552,10.146,26.745,10.798,26.745,11.737z M26.378,34.769c0,0.128-0.037,0.24-0.115,0.337c-0.076,0.097-0.209,0.177-0.395,0.241
		c-0.188,0.064-0.436,0.112-0.744,0.145s-0.699,0.049-1.176,0.049s-0.867-0.017-1.176-0.049s-0.557-0.08-0.744-0.145
		c-0.186-0.064-0.318-0.145-0.395-0.241c-0.078-0.097-0.115-0.209-0.115-0.337V17.601c0-0.128,0.037-0.241,0.115-0.337
		c0.076-0.097,0.209-0.18,0.395-0.251c0.188-0.07,0.436-0.125,0.744-0.164s0.699-0.058,1.176-0.058s0.867,0.019,1.176,0.058
		s0.557,0.094,0.744,0.164c0.186,0.071,0.318,0.154,0.395,0.251c0.078,0.096,0.115,0.209,0.115,0.337V34.769z"/>
	<path d="M47.655,34.769c0,0.128-0.039,0.24-0.116,0.337s-0.206,0.177-0.386,0.241c-0.181,0.064-0.428,0.112-0.742,0.145
		c-0.315,0.032-0.704,0.049-1.167,0.049c-0.477,0-0.872-0.017-1.187-0.049c-0.315-0.032-0.562-0.08-0.743-0.145
		c-0.18-0.064-0.309-0.145-0.386-0.241s-0.115-0.209-0.115-0.337V24.95c0-0.835-0.062-1.492-0.184-1.967s-0.299-0.884-0.53-1.225
		c-0.231-0.34-0.53-0.604-0.897-0.791c-0.366-0.187-0.794-0.28-1.282-0.28c-0.617,0-1.241,0.225-1.871,0.675
		c-0.63,0.451-1.286,1.106-1.968,1.968v11.439c0,0.128-0.038,0.24-0.115,0.337s-0.209,0.177-0.396,0.241s-0.435,0.112-0.743,0.145
		s-0.7,0.049-1.176,0.049c-0.477,0-0.868-0.017-1.177-0.049s-0.557-0.08-0.743-0.145s-0.318-0.145-0.396-0.241
		s-0.115-0.209-0.115-0.337V17.562c0-0.128,0.031-0.241,0.097-0.337c0.063-0.097,0.18-0.177,0.347-0.241s0.383-0.112,0.646-0.145
		c0.263-0.032,0.595-0.048,0.993-0.048c0.411,0,0.752,0.016,1.022,0.048c0.27,0.032,0.479,0.08,0.627,0.145
		c0.147,0.064,0.254,0.145,0.318,0.241c0.063,0.096,0.096,0.209,0.096,0.337v1.987c0.952-1.029,1.92-1.8,2.903-2.314
		c0.984-0.515,2.009-0.772,3.077-0.772c1.17,0,2.156,0.193,2.961,0.579c0.803,0.386,1.452,0.91,1.948,1.572
		c0.494,0.663,0.852,1.437,1.07,2.324c0.219,0.888,0.328,1.955,0.328,3.202V34.769z"/>
</g>
</svg>
