<?xml version="1.0" encoding="utf-8"?>
<!-- Generator: Adobe Illustrator 15.0.0, SVG Export Plug-In . SVG Version: 6.00 Build 0)  -->
<svg version="1.2" baseProfile="tiny" id="Laag_1" xmlns="http://www.w3.org/2000/svg" xmlns:xlink="http://www.w3.org/1999/xlink"
	 x="0px" y="0px" width="128px" height="128px" viewBox="0 0 128 128" overflow="inherit" xml:space="preserve">
<g>
	<path d="M23.465,72.762c0.304,0.527,0.696,0.96,1.176,1.296s1.032,0.585,1.656,0.744c0.624,0.16,1.272,0.24,1.944,0.24
		c0.48,0,0.984-0.056,1.512-0.169c0.528-0.111,1.008-0.287,1.44-0.527c0.432-0.24,0.792-0.56,1.08-0.96
		c0.288-0.399,0.432-0.903,0.432-1.513c0-1.023-0.68-1.791-2.04-2.303c-1.36-0.512-3.256-1.024-5.688-1.537
		c-0.992-0.223-1.96-0.486-2.904-0.791c-0.944-0.305-1.784-0.704-2.52-1.201c-0.736-0.495-1.328-1.119-1.776-1.871
		c-0.449-0.752-0.672-1.672-0.672-2.76c0-1.6,0.312-2.912,0.936-3.936c0.624-1.024,1.448-1.832,2.472-2.424
		c1.024-0.592,2.176-1.008,3.456-1.248c1.279-0.24,2.592-0.36,3.936-0.36c1.344,0,2.647,0.128,3.912,0.384
		c1.264,0.256,2.392,0.688,3.384,1.296c0.992,0.608,1.816,1.416,2.472,2.424c0.655,1.008,1.048,2.28,1.176,3.816h-6.48
		c-0.096-1.312-0.592-2.2-1.488-2.664c-0.896-0.463-1.952-0.696-3.168-0.696c-0.384,0-0.8,0.024-1.248,0.072
		c-0.449,0.048-0.856,0.152-1.224,0.312c-0.368,0.161-0.68,0.392-0.936,0.696c-0.256,0.305-0.384,0.712-0.384,1.224
		c0,0.608,0.223,1.104,0.672,1.488c0.448,0.384,1.032,0.696,1.752,0.936c0.72,0.24,1.543,0.456,2.472,0.648
		c0.928,0.192,1.872,0.4,2.832,0.624c0.991,0.225,1.959,0.497,2.904,0.817c0.943,0.319,1.784,0.743,2.52,1.271
		c0.736,0.527,1.328,1.184,1.776,1.968c0.448,0.784,0.672,1.752,0.672,2.904c0,1.632-0.328,3-0.984,4.104
		c-0.656,1.104-1.512,1.992-2.568,2.664s-2.264,1.145-3.624,1.416c-1.36,0.271-2.744,0.408-4.152,0.408
		c-1.44,0-2.849-0.144-4.224-0.432c-1.376-0.288-2.6-0.769-3.672-1.44c-1.073-0.672-1.953-1.56-2.64-2.664
		c-0.688-1.104-1.064-2.488-1.128-4.152h6.48C23.009,71.602,23.16,72.234,23.465,72.762z"/>
	<path d="M60.304,78.93v-3.456H60.16c-0.864,1.44-1.984,2.48-3.36,3.12c-1.376,0.64-2.784,0.96-4.224,0.96
		c-1.824,0-3.32-0.24-4.488-0.72c-1.168-0.48-2.088-1.16-2.76-2.04s-1.145-1.952-1.416-3.216c-0.272-1.264-0.408-2.664-0.408-4.2
		V54.114h6.816V68.13c0,2.048,0.319,3.575,0.96,4.584c0.64,1.008,1.776,1.512,3.408,1.512c1.855,0,3.2-0.552,4.032-1.655
		c0.832-1.104,1.248-2.92,1.248-5.449V54.114h6.816V78.93H60.304z"/>
	<path d="M78.592,54.114v3.36h0.096c0.896-1.279,1.976-2.271,3.24-2.976c1.264-0.704,2.712-1.056,4.344-1.056
		c1.567,0,3,0.304,4.296,0.912c1.296,0.608,2.28,1.68,2.952,3.216c0.736-1.087,1.735-2.048,3-2.88
		c1.264-0.832,2.76-1.248,4.488-1.248c1.311,0,2.527,0.16,3.648,0.48c1.119,0.32,2.078,0.833,2.879,1.536
		c0.801,0.705,1.424,1.625,1.873,2.76c0.447,1.136,0.672,2.504,0.672,4.104V78.93h-6.816V64.865c0-0.831-0.033-1.615-0.096-2.352
		c-0.064-0.736-0.24-1.375-0.529-1.92c-0.287-0.544-0.711-0.976-1.271-1.296c-0.561-0.32-1.32-0.48-2.279-0.48
		c-0.961,0-1.736,0.184-2.328,0.552c-0.593,0.368-1.057,0.848-1.393,1.44c-0.336,0.593-0.561,1.265-0.672,2.016
		c-0.112,0.752-0.168,1.512-0.168,2.28V78.93h-6.816V65.01c0-0.736-0.016-1.464-0.047-2.184c-0.033-0.72-0.168-1.384-0.408-1.992
		c-0.24-0.607-0.641-1.096-1.2-1.464c-0.561-0.368-1.385-0.552-2.472-0.552c-0.32,0-0.744,0.072-1.272,0.216
		s-1.04,0.416-1.536,0.816c-0.496,0.4-0.92,0.977-1.271,1.728c-0.354,0.752-0.528,1.736-0.528,2.952v14.4H72.16V54.114H78.592z"/>
</g>
</svg>
