<?xml version="1.0" encoding="utf-8"?>
<!-- Generator: Adobe Illustrator 15.0.2, SVG Export Plug-In . SVG Version: 6.00 Build 0)  -->
<!DOCTYPE svg PUBLIC "-//W3C//DTD SVG 1.1//EN" "http://www.w3.org/Graphics/SVG/1.1/DTD/svg11.dtd">
<svg version="1.1" id="Laag_1" xmlns="http://www.w3.org/2000/svg" xmlns:xlink="http://www.w3.org/1999/xlink" x="0px" y="0px"
	 width="128px" height="128px" viewBox="0 0 128 128" enable-background="new 0 0 128 128" xml:space="preserve">
<g>
	<path d="M29.721,72.205c0,1.729-0.324,3.252-0.972,4.57c-0.648,1.32-1.564,2.422-2.746,3.31c-1.183,0.887-2.581,1.552-4.196,1.995
		s-3.366,0.666-5.253,0.666c-1.138,0-2.223-0.086-3.258-0.256c-1.035-0.171-1.961-0.388-2.78-0.648
		c-0.818-0.262-1.5-0.529-2.046-0.802s-0.944-0.528-1.194-0.768c-0.25-0.239-0.444-0.614-0.58-1.126s-0.205-1.268-0.205-2.268
		c0-0.66,0.022-1.188,0.068-1.587c0.045-0.397,0.113-0.716,0.205-0.955c0.09-0.239,0.205-0.397,0.341-0.478
		c0.137-0.08,0.307-0.119,0.512-0.119c0.25,0,0.62,0.143,1.109,0.426c0.489,0.285,1.097,0.598,1.825,0.938
		c0.728,0.341,1.575,0.659,2.542,0.955c0.966,0.296,2.064,0.443,3.292,0.443c0.772,0,1.461-0.079,2.063-0.239
		c0.603-0.158,1.126-0.386,1.569-0.682c0.443-0.295,0.779-0.67,1.006-1.125c0.227-0.455,0.341-0.979,0.341-1.57
		c0-0.682-0.21-1.268-0.631-1.756c-0.421-0.489-0.978-0.916-1.671-1.279c-0.694-0.363-1.479-0.705-2.354-1.023
		s-1.774-0.671-2.695-1.058s-1.819-0.83-2.695-1.331c-0.875-0.5-1.66-1.113-2.354-1.842c-0.694-0.727-1.251-1.603-1.671-2.626
		c-0.421-1.023-0.631-2.251-0.631-3.684c0-1.455,0.284-2.791,0.853-4.008c0.568-1.216,1.387-2.257,2.456-3.121
		c1.068-0.864,2.371-1.535,3.906-2.013c1.535-0.478,3.257-0.716,5.168-0.716c0.955,0,1.881,0.068,2.78,0.205
		c0.898,0.136,1.711,0.307,2.439,0.512c0.728,0.205,1.342,0.426,1.842,0.665c0.5,0.239,0.858,0.443,1.075,0.614
		c0.216,0.17,0.369,0.341,0.46,0.511c0.09,0.171,0.159,0.375,0.205,0.614c0.045,0.239,0.085,0.535,0.119,0.887
		c0.034,0.353,0.051,0.791,0.051,1.313c0,0.614-0.017,1.114-0.051,1.501s-0.091,0.694-0.17,0.921
		c-0.08,0.228-0.188,0.381-0.324,0.46c-0.136,0.08-0.295,0.12-0.478,0.12c-0.205,0-0.523-0.12-0.955-0.358
		c-0.432-0.239-0.972-0.495-1.62-0.768c-0.648-0.273-1.399-0.529-2.251-0.768c-0.853-0.239-1.825-0.358-2.917-0.358
		c-0.773,0-1.444,0.08-2.013,0.239c-0.569,0.159-1.035,0.387-1.398,0.682c-0.364,0.296-0.637,0.643-0.819,1.041
		c-0.182,0.398-0.273,0.825-0.273,1.279c0,0.705,0.216,1.296,0.648,1.773c0.432,0.478,1,0.899,1.706,1.262
		c0.705,0.364,1.506,0.705,2.405,1.023c0.898,0.319,1.808,0.665,2.729,1.041c0.921,0.375,1.83,0.813,2.729,1.313
		c0.898,0.5,1.7,1.115,2.405,1.841c0.705,0.729,1.273,1.599,1.706,2.609C29.504,69.618,29.721,70.818,29.721,72.205z"/>
	<path d="M65.026,80.801c0,0.229-0.058,0.427-0.171,0.598c-0.113,0.17-0.312,0.312-0.597,0.426c-0.285,0.114-0.66,0.199-1.125,0.256
		c-0.467,0.057-1.052,0.086-1.757,0.086c-0.75,0-1.359-0.029-1.825-0.086c-0.466-0.057-0.835-0.142-1.108-0.256
		c-0.273-0.113-0.466-0.256-0.58-0.426c-0.114-0.171-0.17-0.369-0.17-0.598v-3.514c-1.683,1.82-3.394,3.185-5.134,4.094
		c-1.74,0.91-3.542,1.365-5.407,1.365c-2.093,0-3.85-0.342-5.271-1.023c-1.421-0.683-2.57-1.615-3.445-2.798
		s-1.501-2.552-1.876-4.11c-0.375-1.557-0.563-3.496-0.563-5.816V50.374c0-0.227,0.062-0.427,0.188-0.597s0.353-0.312,0.683-0.426
		c0.329-0.114,0.772-0.199,1.33-0.256c0.557-0.057,1.245-0.085,2.064-0.085c0.841,0,1.535,0.029,2.081,0.085
		c0.546,0.057,0.983,0.142,1.313,0.256c0.33,0.114,0.563,0.256,0.699,0.426c0.137,0.17,0.205,0.37,0.205,0.597v17.193
		c0,1.592,0.103,2.809,0.307,3.649s0.517,1.563,0.938,2.166c0.42,0.603,0.955,1.069,1.604,1.398c0.648,0.33,1.404,0.495,2.268,0.495
		c1.092,0,2.188-0.398,3.292-1.194c1.103-0.796,2.28-1.956,3.531-3.479V50.374c0-0.227,0.062-0.427,0.188-0.597
		c0.125-0.17,0.352-0.312,0.682-0.426c0.33-0.114,0.768-0.199,1.313-0.256c0.546-0.057,1.239-0.085,2.081-0.085
		s1.535,0.029,2.081,0.085c0.546,0.057,0.978,0.142,1.296,0.256s0.546,0.256,0.683,0.426c0.136,0.17,0.204,0.37,0.204,0.597V80.801z
		"/>
	<path d="M122.062,80.801c0,0.229-0.068,0.427-0.205,0.598c-0.137,0.17-0.364,0.312-0.683,0.426
		c-0.318,0.114-0.75,0.199-1.296,0.256s-1.239,0.086-2.081,0.086c-0.864,0-1.569-0.029-2.114-0.086
		c-0.546-0.057-0.984-0.142-1.313-0.256c-0.33-0.113-0.558-0.256-0.683-0.426c-0.125-0.171-0.188-0.369-0.188-0.598V62.756
		c0-1.023-0.097-1.956-0.29-2.797s-0.489-1.563-0.887-2.167c-0.398-0.602-0.898-1.068-1.501-1.398
		c-0.603-0.329-1.325-0.495-2.166-0.495c-1.023,0-2.059,0.398-3.104,1.194c-1.046,0.796-2.183,1.956-3.411,3.479v20.228
		c0,0.229-0.068,0.427-0.204,0.598c-0.137,0.17-0.37,0.312-0.699,0.426c-0.33,0.114-0.768,0.199-1.313,0.256
		s-1.229,0.086-2.047,0.086c-0.842,0-1.535-0.029-2.081-0.086s-0.983-0.142-1.313-0.256c-0.33-0.113-0.562-0.256-0.699-0.426
		c-0.136-0.171-0.204-0.369-0.204-0.598V62.756c0-1.023-0.098-1.956-0.29-2.797c-0.193-0.841-0.483-1.563-0.87-2.167
		c-0.387-0.602-0.887-1.068-1.501-1.398c-0.614-0.329-1.33-0.495-2.149-0.495c-1.046,0-2.092,0.398-3.138,1.194
		c-1.047,0.796-2.172,1.956-3.377,3.479v20.228c0,0.229-0.068,0.427-0.205,0.598c-0.137,0.17-0.37,0.312-0.699,0.426
		c-0.33,0.114-0.768,0.199-1.313,0.256s-1.239,0.086-2.081,0.086c-0.841,0-1.534-0.029-2.08-0.086s-0.984-0.142-1.313-0.256
		c-0.33-0.113-0.562-0.256-0.699-0.426c-0.137-0.171-0.205-0.369-0.205-0.598V50.374c0-0.227,0.057-0.427,0.171-0.597
		c0.113-0.17,0.318-0.312,0.614-0.426c0.295-0.114,0.676-0.199,1.143-0.256c0.466-0.057,1.052-0.085,1.757-0.085
		c0.728,0,1.33,0.029,1.808,0.085c0.478,0.057,0.847,0.142,1.108,0.256s0.449,0.256,0.563,0.426c0.113,0.17,0.17,0.37,0.17,0.597
		v3.513c1.683-1.819,3.36-3.184,5.032-4.093c1.671-0.909,3.416-1.364,5.235-1.364c1.251,0,2.376,0.131,3.377,0.392
		c1.001,0.262,1.894,0.637,2.679,1.125c0.784,0.49,1.461,1.075,2.029,1.757c0.568,0.683,1.046,1.444,1.433,2.286
		c0.909-0.978,1.802-1.819,2.678-2.524c0.875-0.705,1.739-1.279,2.593-1.723c0.853-0.443,1.705-0.772,2.559-0.989
		c0.853-0.216,1.723-0.324,2.609-0.324c2.023,0,3.729,0.341,5.116,1.023c1.387,0.683,2.508,1.609,3.36,2.78
		c0.853,1.171,1.461,2.542,1.825,4.11c0.363,1.569,0.546,3.229,0.546,4.98V80.801z"/>
</g>
</svg>
