<?xml version="1.0" encoding="utf-8"?>
<!-- Generator: Adobe Illustrator 15.0.0, SVG Export Plug-In . SVG Version: 6.00 Build 0)  -->
<svg version="1.2" baseProfile="tiny" id="Laag_1" xmlns="http://www.w3.org/2000/svg" xmlns:xlink="http://www.w3.org/1999/xlink"
	 x="0px" y="0px" width="128px" height="128px" viewBox="0 0 128 128" overflow="inherit" xml:space="preserve">
<path d="M84.124,19.618c-7.25,0-14.089,1.779-20.121,4.907c-6.032-3.128-12.87-4.907-20.121-4.907
	c-24.186,0-43.868,19.68-43.868,43.868c0,24.187,19.682,43.866,43.868,43.866c7.251,0,14.089-1.779,20.121-4.908
	c6.032,3.129,12.871,4.908,20.121,4.908c24.188,0,43.861-19.68,43.861-43.866C127.985,39.297,108.31,19.618,84.124,19.618z
	 M47.518,63.486c0-12.757,6.563-24.004,16.485-30.559c9.922,6.555,16.483,17.802,16.483,30.559c0,12.756-6.562,24.002-16.483,30.559
	C54.081,87.488,47.518,76.242,47.518,63.486z"/>
</svg>
