<?xml version="1.0" encoding="UTF-8"?>
<svg xmlns="http://www.w3.org/2000/svg" width="300" height="300" viewBox="0 0 300 300">
  <rect width="100%" height="100%" fill="#ffffff"/>
  <path d="M250.00,150.00 C250.00,191.42 205.23,225.00 150.00,225.00 C94.77,225.00 50.00,191.42 50.00,150.00 C50.00,108.58 94.77,75.00 150.00,75.00 C205.23,75.00 250.00,108.58 250.00,150.00 Z" fill="none" stroke="#808080" stroke-width="1" stroke-opacity="0.30"/>
  <path d="M256.00,150.00 C256.00,153.31 253.31,156.00 250.00,156.00 C246.69,156.00 244.00,153.31 244.00,150.00 C244.00,146.69 246.69,144.00 250.00,144.00 C253.31,144.00 256.00,146.69 256.00,150.00 Z" fill="#e62e2e"/>
  <path d="M252.12,170.76 C252.12,174.08 249.43,176.76 246.12,176.76 C242.80,176.76 240.12,174.08 240.12,170.76 C240.12,167.45 242.80,164.76 246.12,164.76 C249.43,164.76 252.12,167.45 252.12,170.76 Z" fill="#e65c2e"/>
  <path d="M241.19,189.29 C241.19,192.61 238.51,195.29 235.19,195.29 C231.88,195.29 229.19,192.61 229.19,189.29 C229.19,185.98 231.88,183.29 235.19,183.29 C238.51,183.29 241.19,185.98 241.19,189.29 Z" fill="#e68a2e"/>
  <path d="M224.31,204.77 C224.31,208.09 221.63,210.77 218.31,210.77 C215.00,210.77 212.31,208.09 212.31,204.77 C212.31,201.46 215.00,198.77 218.31,198.77 C221.63,198.77 224.31,201.46 224.31,204.77 Z" fill="#e6b82e"/>
  <path d="M202.55,216.39 C202.55,219.71 199.87,222.39 196.55,222.39 C193.24,222.39 190.55,219.71 190.55,216.39 C190.55,213.08 193.24,210.39 196.55,210.39 C199.87,210.39 202.55,213.08 202.55,216.39 Z" fill="#e6e62e"/>
  <path d="M177.00,223.34 C177.00,226.66 174.31,229.34 171.00,229.34 C167.69,229.34 165.00,226.66 165.00,223.34 C165.00,220.03 167.69,217.34 171.00,217.34 C174.31,217.34 177.00,220.03 177.00,223.34 Z" fill="#b8e62e"/>
  <path d="M148.86,224.81 C148.86,228.13 146.17,230.81 142.86,230.81 C139.54,230.81 136.86,228.13 136.86,224.81 C136.86,221.50 139.54,218.81 142.86,218.81 C146.17,218.81 148.86,221.50 148.86,224.81 Z" fill="#8ae62e"/>
  <path d="M121.82,220.50 C121.82,223.82 119.13,226.50 115.82,226.50 C112.50,226.50 109.82,223.82 109.82,220.50 C109.82,217.19 112.50,214.50 115.82,214.50 C119.13,214.50 121.82,217.19 121.82,220.50 Z" fill="#5ce62e"/>
  <path d="M98.03,211.12 C98.03,214.43 95.34,217.12 92.03,217.12 C88.71,217.12 86.03,214.43 86.03,211.12 C86.03,207.80 88.71,205.12 92.03,205.12 C95.34,205.12 98.03,207.80 98.03,211.12 Z" fill="#2ee62e"/>
  <path d="M78.57,197.46 C78.57,200.78 75.88,203.46 72.57,203.46 C69.26,203.46 66.57,200.78 66.57,197.46 C66.57,194.15 69.26,191.46 72.57,191.46 C75.88,191.46 78.57,194.15 78.57,197.46 Z" fill="#2ee65c"/>
  <path d="M64.53,180.36 C64.53,183.67 61.85,186.36 58.53,186.36 C55.22,186.36 52.53,183.67 52.53,180.36 C52.53,177.04 55.22,174.36 58.53,174.36 C61.85,174.36 64.53,177.04 64.53,180.36 Z" fill="#2ee68a"/>
  <path d="M56.99,160.61 C56.99,163.92 54.31,166.61 50.99,166.61 C47.68,166.61 44.99,163.92 44.99,160.61 C44.99,157.30 47.68,154.61 50.99,154.61 C54.31,154.61 56.99,157.30 56.99,160.61 Z" fill="#2ee6b8"/>
  <path d="M56.99,139.39 C56.99,142.70 54.31,145.39 50.99,145.39 C47.68,145.39 44.99,142.70 44.99,139.39 C44.99,136.08 47.68,133.39 50.99,133.39 C54.31,133.39 56.99,136.08 56.99,139.39 Z" fill="#2ee6e6"/>
  <path d="M64.53,119.64 C64.53,122.96 61.85,125.64 58.53,125.64 C55.22,125.64 52.53,122.96 52.53,119.64 C52.53,116.33 55.22,113.64 58.53,113.64 C61.85,113.64 64.53,116.33 64.53,119.64 Z" fill="#2eb8e6"/>
  <path d="M78.57,102.54 C78.57,105.85 75.88,108.54 72.57,108.54 C69.26,108.54 66.57,105.85 66.57,102.54 C66.57,99.22 69.26,96.54 72.57,96.54 C75.88,96.54 78.57,99.22 78.57,102.54 Z" fill="#2e8ae6"/>
  <path d="M98.03,88.88 C98.03,92.20 95.34,94.88 92.03,94.88 C88.71,94.88 86.03,92.20 86.03,88.88 C86.03,85.57 88.71,82.88 92.03,82.88 C95.34,82.88 98.03,85.57 98.03,88.88 Z" fill="#2e5ce6"/>
  <path d="M121.82,79.50 C121.82,82.81 119.13,85.50 115.82,85.50 C112.50,85.50 109.82,82.81 109.82,79.50 C109.82,76.18 112.50,73.50 115.82,73.50 C119.13,73.50 121.82,76.18 121.82,79.50 Z" fill="#2e2ee6"/>
  <path d="M148.86,75.19 C148.86,78.50 146.17,81.19 142.86,81.19 C139.54,81.19 136.86,78.50 136.86,75.19 C136.86,71.87 139.54,69.19 142.86,69.19 C146.17,69.19 148.86,71.87 148.86,75.19 Z" fill="#5c2ee6"/>
  <path d="M177.00,76.66 C177.00,79.97 174.31,82.66 171.00,82.66 C167.69,82.66 165.00,79.97 165.00,76.66 C165.00,73.34 167.69,70.66 171.00,70.66 C174.31,70.66 177.00,73.34 177.00,76.66 Z" fill="#8a2ee6"/>
  <path d="M202.55,83.61 C202.55,86.92 199.87,89.61 196.55,89.61 C193.24,89.61 190.55,86.92 190.55,83.61 C190.55,80.29 193.24,77.61 196.55,77.61 C199.87,77.61 202.55,80.29 202.55,83.61 Z" fill="#b82ee6"/>
  <path d="M224.31,95.23 C224.31,98.54 221.63,101.23 218.31,101.23 C215.00,101.23 212.31,98.54 212.31,95.23 C212.31,91.91 215.00,89.23 218.31,89.23 C221.63,89.23 224.31,91.91 224.31,95.23 Z" fill="#e62ee6"/>
  <path d="M241.19,110.71 C241.19,114.02 238.51,116.71 235.19,116.71 C231.88,116.71 229.19,114.02 229.19,110.71 C229.19,107.39 231.88,104.71 235.19,104.71 C238.51,104.71 241.19,107.39 241.19,110.71 Z" fill="#e62eb8"/>
  <path d="M252.12,129.24 C252.12,132.55 249.43,135.24 246.12,135.24 C242.80,135.24 240.12,132.55 240.12,129.24 C240.12,125.92 242.80,123.24 246.12,123.24 C249.43,123.24 252.12,125.92 252.12,129.24 Z" fill="#e62e8a"/>
  <path d="M256.00,150.00 C256.00,153.31 253.31,156.00 250.00,156.00 C246.69,156.00 244.00,153.31 244.00,150.00 C244.00,146.69 246.69,144.00 250.00,144.00 C253.31,144.00 256.00,146.69 256.00,150.00 Z" fill="#e62e5c"/>
  <path d="M250.00,150.00 L246.12,170.76" fill="none" stroke="#4d4d4d" stroke-width="1" stroke-opacity="0.50"/>
  <path d="M246.12,170.76 L235.19,189.29" fill="none" stroke="#4d4d4d" stroke-width="1" stroke-opacity="0.50"/>
  <path d="M235.19,189.29 L218.31,204.77" fill="none" stroke="#4d4d4d" stroke-width="1" stroke-opacity="0.50"/>
  <path d="M218.31,204.77 L196.55,216.39" fill="none" stroke="#4d4d4d" stroke-width="1" stroke-opacity="0.50"/>
  <path d="M196.55,216.39 L171.00,223.34" fill="none" stroke="#4d4d4d" stroke-width="1" stroke-opacity="0.50"/>
  <path d="M171.00,223.34 L142.86,224.81" fill="none" stroke="#4d4d4d" stroke-width="1" stroke-opacity="0.50"/>
  <path d="M142.86,224.81 L115.82,220.50" fill="none" stroke="#4d4d4d" stroke-width="1" stroke-opacity="0.50"/>
  <path d="M115.82,220.50 L92.03,211.12" fill="none" stroke="#4d4d4d" stroke-width="1" stroke-opacity="0.50"/>
  <path d="M92.03,211.12 L72.57,197.46" fill="none" stroke="#4d4d4d" stroke-width="1" stroke-opacity="0.50"/>
  <path d="M72.57,197.46 L58.53,180.36" fill="none" stroke="#4d4d4d" stroke-width="1" stroke-opacity="0.50"/>
  <path d="M58.53,180.36 L50.99,160.61" fill="none" stroke="#4d4d4d" stroke-width="1" stroke-opacity="0.50"/>
  <path d="M50.99,160.61 L50.99,139.39" fill="none" stroke="#4d4d4d" stroke-width="1" stroke-opacity="0.50"/>
  <path d="M50.99,139.39 L58.53,119.64" fill="none" stroke="#4d4d4d" stroke-width="1" stroke-opacity="0.50"/>
  <path d="M58.53,119.64 L72.57,102.54" fill="none" stroke="#4d4d4d" stroke-width="1" stroke-opacity="0.50"/>
  <path d="M72.57,102.54 L92.03,88.88" fill="none" stroke="#4d4d4d" stroke-width="1" stroke-opacity="0.50"/>
  <path d="M92.03,88.88 L115.82,79.50" fill="none" stroke="#4d4d4d" stroke-width="1" stroke-opacity="0.50"/>
  <path d="M115.82,79.50 L142.86,75.19" fill="none" stroke="#4d4d4d" stroke-width="1" stroke-opacity="0.50"/>
  <path d="M142.86,75.19 L171.00,76.66" fill="none" stroke="#4d4d4d" stroke-width="1" stroke-opacity="0.50"/>
  <path d="M171.00,76.66 L196.55,83.61" fill="none" stroke="#4d4d4d" stroke-width="1" stroke-opacity="0.50"/>
  <path d="M196.55,83.61 L218.31,95.23" fill="none" stroke="#4d4d4d" stroke-width="1" stroke-opacity="0.50"/>
  <path d="M218.31,95.23 L235.19,110.71" fill="none" stroke="#4d4d4d" stroke-width="1" stroke-opacity="0.50"/>
  <path d="M235.19,110.71 L246.12,129.24" fill="none" stroke="#4d4d4d" stroke-width="1" stroke-opacity="0.50"/>
  <path d="M246.12,129.24 L250.00,150.00" fill="none" stroke="#4d4d4d" stroke-width="1" stroke-opacity="0.50"/>
  <path d="M250.00,150.00 L250.00,150.00" fill="none" stroke="#4d4d4d" stroke-width="1" stroke-opacity="0.50"/>
</svg>
