<?xml version="1.0" encoding="UTF-8"?>
<svg xmlns="http://www.w3.org/2000/svg" width="550" height="200" viewBox="0 0 550 200">
  <rect width="100%" height="100%" fill="#ffffff"/>
  <path d="M140.00,100.00 C140.00,122.09 122.09,140.00 100.00,140.00 C77.91,140.00 60.00,122.09 60.00,100.00 C60.00,77.91 77.91,60.00 100.00,60.00 C122.09,60.00 140.00,77.91 140.00,100.00 Z" fill="#e63333"/>
  <path d="M180.00,60.00 L280.00,60.00 L280.00,140.00 L180.00,140.00 Z" fill="#33cc4d"/>
  <path d="M350.00,50.00 L364.69,79.77 L397.55,84.55 L373.78,107.73 L379.39,140.45 L350.00,125.00 L320.61,140.45 L326.22,107.73 L302.45,84.55 L335.31,79.77 L350.00,50.00 Z" fill="#3366e6"/>
  <path d="M502.50,61.03 L525.00,100.00 L502.50,138.97 L457.50,138.97 L435.00,100.00 L457.50,61.03 L502.50,61.03 Z" fill="#b34dcc"/>
</svg>
