<?xml version="1.0" encoding="UTF-8"?>
<svg xmlns="http://www.w3.org/2000/svg" width="642.7734375" height="201.40625" viewBox="0 0 642.7734375 201.40625">
  <rect width="100%" height="100%" fill="#ffffff"/>
  <path d="M59.14,150.00 L59.14,64.10 L70.80,64.10 L115.92,131.54 L115.92,64.10 L126.82,64.10 L126.82,150.00 L115.16,150.00 L70.04,82.50 L70.04,150.00 ZM140.64,118.89 C140.64,107.36 143.85,98.83 150.25,93.28 C155.61,88.67 162.13,86.37 169.82,86.37 C178.38,86.37 185.37,89.17 190.80,94.78 C196.23,100.38 198.95,108.12 198.95,118.01 C198.95,126.02 197.74,132.31 195.34,136.90 C192.94,141.49 189.44,145.06 184.85,147.60 C180.26,150.14 175.25,151.41 169.82,151.41 C161.11,151.41 154.07,148.61 148.70,143.03 C143.33,137.44 140.64,129.39 140.64,118.89 ZM151.48,118.89 C151.48,126.86 153.22,132.82 156.70,136.79 C160.18,140.75 164.55,142.73 169.82,142.73 C175.06,142.73 179.41,140.74 182.89,136.76 C186.37,132.77 188.11,126.70 188.11,118.54 C188.11,110.84 186.36,105.01 182.86,101.04 C179.37,97.08 175.02,95.10 169.82,95.10 C164.55,95.10 160.18,97.07 156.70,101.02 C153.22,104.96 151.48,110.92 151.48,118.89 ZM251.68,150.00 L251.68,142.15 C247.73,148.32 241.93,151.41 234.28,151.41 C229.32,151.41 224.76,150.04 220.60,147.30 C216.44,144.57 213.21,140.75 210.93,135.85 C208.64,130.95 207.50,125.31 207.50,118.95 C207.50,112.73 208.54,107.10 210.61,102.04 C212.68,96.98 215.78,93.11 219.92,90.41 C224.06,87.71 228.69,86.37 233.81,86.37 C237.56,86.37 240.90,87.16 243.83,88.74 C246.76,90.32 249.14,92.38 250.98,94.92 L250.98,64.10 L261.46,64.10 L261.46,150.00 ZM218.34,118.95 C218.34,126.91 220.02,132.87 223.38,136.82 C226.74,140.76 230.70,142.73 235.27,142.73 C239.88,142.73 243.80,140.85 247.02,137.08 C250.24,133.31 251.86,127.56 251.86,119.82 C251.86,111.31 250.21,105.06 246.93,101.07 C243.65,97.09 239.61,95.10 234.80,95.10 C230.12,95.10 226.20,97.01 223.06,100.84 C219.91,104.67 218.34,110.70 218.34,118.95 ZM320.64,129.96 L331.54,131.31 C329.82,137.68 326.64,142.62 321.99,146.13 C317.34,149.65 311.41,151.41 304.18,151.41 C295.08,151.41 287.86,148.60 282.53,143.00 C277.20,137.39 274.53,129.53 274.53,119.41 C274.53,108.95 277.23,100.82 282.62,95.04 C288.01,89.26 295.00,86.37 303.59,86.37 C311.91,86.37 318.71,89.20 323.98,94.86 C329.26,100.53 331.89,108.50 331.89,118.77 C331.89,119.39 331.88,120.33 331.84,121.58 L285.43,121.58 C285.82,128.42 287.75,133.65 291.23,137.29 C294.71,140.92 299.04,142.73 304.24,142.73 C308.11,142.73 311.41,141.72 314.14,139.69 C316.88,137.66 319.04,134.41 320.64,129.96 ZM286.02,112.91 L320.76,112.91 C320.29,107.68 318.96,103.75 316.78,101.13 C313.42,97.07 309.06,95.04 303.71,95.04 C298.87,95.04 294.79,96.66 291.49,99.90 C288.19,103.14 286.37,107.48 286.02,112.91 ZM345.66,150.00 L345.66,64.10 L377.89,64.10 C384.45,64.10 389.72,64.97 393.68,66.71 C397.65,68.45 400.75,71.12 403.00,74.74 C405.24,78.35 406.37,82.13 406.37,86.07 C406.37,89.75 405.37,93.20 403.38,96.45 C401.39,99.69 398.38,102.30 394.36,104.30 C399.55,105.82 403.54,108.42 406.34,112.09 C409.13,115.76 410.53,120.10 410.53,125.10 C410.53,129.12 409.68,132.86 407.98,136.32 C406.28,139.78 404.18,142.44 401.68,144.32 C399.18,146.19 396.04,147.61 392.28,148.56 C388.51,149.52 383.89,150.00 378.42,150.00 ZM357.03,100.20 L375.61,100.20 C380.64,100.20 384.26,99.86 386.45,99.20 C389.34,98.34 391.51,96.91 392.98,94.92 C394.44,92.93 395.18,90.43 395.18,87.42 C395.18,84.57 394.49,82.06 393.12,79.89 C391.76,77.72 389.80,76.24 387.27,75.44 C384.73,74.64 380.37,74.24 374.20,74.24 L357.03,74.24 ZM357.03,139.86 L378.42,139.86 C382.09,139.86 384.67,139.73 386.15,139.45 C388.77,138.98 390.96,138.20 392.71,137.11 C394.47,136.02 395.92,134.42 397.05,132.33 C398.18,130.24 398.75,127.83 398.75,125.10 C398.75,121.89 397.93,119.11 396.29,116.75 C394.65,114.38 392.37,112.72 389.46,111.77 C386.55,110.81 382.36,110.33 376.89,110.33 L357.03,110.33 ZM420.90,118.89 C420.90,107.36 424.10,98.83 430.51,93.28 C435.86,88.67 442.38,86.37 450.08,86.37 C458.63,86.37 465.62,89.17 471.05,94.78 C476.48,100.38 479.20,108.12 479.20,118.01 C479.20,126.02 478.00,132.31 475.60,136.90 C473.19,141.49 469.70,145.06 465.11,147.60 C460.52,150.14 455.51,151.41 450.08,151.41 C441.37,151.41 434.33,148.61 428.96,143.03 C423.58,137.44 420.90,129.39 420.90,118.89 ZM431.74,118.89 C431.74,126.86 433.48,132.82 436.95,136.79 C440.43,140.75 444.80,142.73 450.08,142.73 C455.31,142.73 459.67,140.74 463.14,136.76 C466.62,132.77 468.36,126.70 468.36,118.54 C468.36,110.84 466.61,105.01 463.12,101.04 C459.62,97.08 455.27,95.10 450.08,95.10 C444.80,95.10 440.43,97.07 436.95,101.02 C433.48,104.96 431.74,110.92 431.74,118.89 ZM484.53,150.00 L507.27,117.66 L486.23,87.77 L499.41,87.77 L508.96,102.36 C510.76,105.14 512.21,107.46 513.30,109.34 C515.02,106.76 516.60,104.47 518.05,102.48 L528.54,87.77 L541.13,87.77 L519.63,117.07 L542.77,150.00 L529.82,150.00 L517.05,130.66 L513.65,125.45 L497.30,150.00 Z" fill="#e6e6f2"/>
  <path d="M61.64,150.00 C61.64,151.38 60.52,152.50 59.14,152.50 C57.76,152.50 56.64,151.38 56.64,150.00 C56.64,148.62 57.76,147.50 59.14,147.50 C60.52,147.50 61.64,148.62 61.64,150.00 Z" fill="#ff0000"/>
  <path d="M61.64,139.92 C61.64,141.30 60.52,142.42 59.14,142.42 C57.76,142.42 56.64,141.30 56.64,139.92 C56.64,138.54 57.76,137.42 59.14,137.42 C60.52,137.42 61.64,138.54 61.64,139.92 Z" fill="#ff1e00"/>
  <path d="M61.64,129.84 C61.64,131.22 60.52,132.34 59.14,132.34 C57.76,132.34 56.64,131.22 56.64,129.84 C56.64,128.46 57.76,127.34 59.14,127.34 C60.52,127.34 61.64,128.46 61.64,129.84 Z" fill="#ff3c00"/>
  <path d="M61.64,119.75 C61.64,121.13 60.52,122.25 59.14,122.25 C57.76,122.25 56.64,121.13 56.64,119.75 C56.64,118.37 57.76,117.25 59.14,117.25 C60.52,117.25 61.64,118.37 61.64,119.75 Z" fill="#ff5a00"/>
  <path d="M61.64,109.67 C61.64,111.05 60.52,112.17 59.14,112.17 C57.76,112.17 56.64,111.05 56.64,109.67 C56.64,108.29 57.76,107.17 59.14,107.17 C60.52,107.17 61.64,108.29 61.64,109.67 Z" fill="#ff7800"/>
  <path d="M61.64,99.59 C61.64,100.97 60.52,102.09 59.14,102.09 C57.76,102.09 56.64,100.97 56.64,99.59 C56.64,98.21 57.76,97.09 59.14,97.09 C60.52,97.09 61.64,98.21 61.64,99.59 Z" fill="#ff9600"/>
  <path d="M61.64,89.51 C61.64,90.89 60.52,92.01 59.14,92.01 C57.76,92.01 56.64,90.89 56.64,89.51 C56.64,88.13 57.76,87.01 59.14,87.01 C60.52,87.01 61.64,88.13 61.64,89.51 Z" fill="#ffb400"/>
  <path d="M61.64,79.43 C61.64,80.81 60.52,81.93 59.14,81.93 C57.76,81.93 56.64,80.81 56.64,79.43 C56.64,78.04 57.76,76.93 59.14,76.93 C60.52,76.93 61.64,78.04 61.64,79.43 Z" fill="#ffd200"/>
  <path d="M61.64,69.34 C61.64,70.72 60.52,71.84 59.14,71.84 C57.76,71.84 56.64,70.72 56.64,69.34 C56.64,67.96 57.76,66.84 59.14,66.84 C60.52,66.84 61.64,67.96 61.64,69.34 Z" fill="#fff000"/>
  <path d="M66.48,64.10 C66.48,65.48 65.36,66.60 63.98,66.60 C62.60,66.60 61.48,65.48 61.48,64.10 C61.48,62.72 62.60,61.60 63.98,61.60 C65.36,61.60 66.48,62.72 66.48,64.10 Z" fill="#f0ff00"/>
  <path d="M75.11,66.81 C75.11,68.19 74.00,69.31 72.61,69.31 C71.23,69.31 70.11,68.19 70.11,66.81 C70.11,65.43 71.23,64.31 72.61,64.31 C74.00,64.31 75.11,65.43 75.11,66.81 Z" fill="#d2ff00"/>
  <path d="M80.72,75.19 C80.72,76.57 79.60,77.69 78.22,77.69 C76.84,77.69 75.72,76.57 75.72,75.19 C75.72,73.81 76.84,72.69 78.22,72.69 C79.60,72.69 80.72,73.81 80.72,75.19 Z" fill="#b4ff00"/>
  <path d="M86.33,83.57 C86.33,84.95 85.21,86.07 83.83,86.07 C82.45,86.07 81.33,84.95 81.33,83.57 C81.33,82.19 82.45,81.07 83.83,81.07 C85.21,81.07 86.33,82.19 86.33,83.57 Z" fill="#96ff00"/>
  <path d="M91.93,91.95 C91.93,93.33 90.81,94.45 89.43,94.45 C88.05,94.45 86.93,93.33 86.93,91.95 C86.93,90.57 88.05,89.45 89.43,89.45 C90.81,89.45 91.93,90.57 91.93,91.95 Z" fill="#78ff00"/>
  <path d="M97.54,100.33 C97.54,101.71 96.42,102.83 95.04,102.83 C93.66,102.83 92.54,101.71 92.54,100.33 C92.54,98.95 93.66,97.83 95.04,97.83 C96.42,97.83 97.54,98.95 97.54,100.33 Z" fill="#5aff00"/>
  <path d="M103.14,108.71 C103.14,110.09 102.03,111.21 100.64,111.21 C99.26,111.21 98.14,110.09 98.14,108.71 C98.14,107.33 99.26,106.21 100.64,106.21 C102.03,106.21 103.14,107.33 103.14,108.71 Z" fill="#3cff00"/>
  <path d="M108.75,117.09 C108.75,118.47 107.63,119.59 106.25,119.59 C104.87,119.59 103.75,118.47 103.75,117.09 C103.75,115.71 104.87,114.59 106.25,114.59 C107.63,114.59 108.75,115.71 108.75,117.09 Z" fill="#1eff00"/>
  <path d="M114.36,125.47 C114.36,126.85 113.24,127.97 111.86,127.97 C110.48,127.97 109.36,126.85 109.36,125.47 C109.36,124.09 110.48,122.97 111.86,122.97 C113.24,122.97 114.36,124.09 114.36,125.47 Z" fill="#00ff00"/>
  <path d="M118.42,128.77 C118.42,130.15 117.30,131.27 115.92,131.27 C114.54,131.27 113.42,130.15 113.42,128.77 C113.42,127.38 114.54,126.27 115.92,126.27 C117.30,126.27 118.42,127.38 118.42,128.77 Z" fill="#00ff1e"/>
  <path d="M118.42,118.68 C118.42,120.06 117.30,121.18 115.92,121.18 C114.54,121.18 113.42,120.06 113.42,118.68 C113.42,117.30 114.54,116.18 115.92,116.18 C117.30,116.18 118.42,117.30 118.42,118.68 Z" fill="#00ff3c"/>
  <path d="M118.42,108.60 C118.42,109.98 117.30,111.10 115.92,111.10 C114.54,111.10 113.42,109.98 113.42,108.60 C113.42,107.22 114.54,106.10 115.92,106.10 C117.30,106.10 118.42,107.22 118.42,108.60 Z" fill="#00ff5a"/>
  <path d="M118.42,98.52 C118.42,99.90 117.30,101.02 115.92,101.02 C114.54,101.02 113.42,99.90 113.42,98.52 C113.42,97.14 114.54,96.02 115.92,96.02 C117.30,96.02 118.42,97.14 118.42,98.52 Z" fill="#00ff78"/>
  <path d="M118.42,88.44 C118.42,89.82 117.30,90.94 115.92,90.94 C114.54,90.94 113.42,89.82 113.42,88.44 C113.42,87.06 114.54,85.94 115.92,85.94 C117.30,85.94 118.42,87.06 118.42,88.44 Z" fill="#00ff96"/>
  <path d="M118.42,78.35 C118.42,79.74 117.30,80.85 115.92,80.85 C114.54,80.85 113.42,79.74 113.42,78.35 C113.42,76.97 114.54,75.85 115.92,75.85 C117.30,75.85 118.42,76.97 118.42,78.35 Z" fill="#00ffb4"/>
  <path d="M118.42,68.27 C118.42,69.65 117.30,70.77 115.92,70.77 C114.54,70.77 113.42,69.65 113.42,68.27 C113.42,66.89 114.54,65.77 115.92,65.77 C117.30,65.77 118.42,66.89 118.42,68.27 Z" fill="#00ffd2"/>
  <path d="M124.33,64.10 C124.33,65.48 123.21,66.60 121.83,66.60 C120.45,66.60 119.33,65.48 119.33,64.10 C119.33,62.72 120.45,61.60 121.83,61.60 C123.21,61.60 124.33,62.72 124.33,64.10 Z" fill="#00fff0"/>
  <path d="M129.32,69.20 C129.32,70.58 128.20,71.70 126.82,71.70 C125.44,71.70 124.32,70.58 124.32,69.20 C124.32,67.82 125.44,66.70 126.82,66.70 C128.20,66.70 129.32,67.82 129.32,69.20 Z" fill="#00f0ff"/>
  <path d="M129.32,79.28 C129.32,80.66 128.20,81.78 126.82,81.78 C125.44,81.78 124.32,80.66 124.32,79.28 C124.32,77.90 125.44,76.78 126.82,76.78 C128.20,76.78 129.32,77.90 129.32,79.28 Z" fill="#00d2ff"/>
  <path d="M129.32,89.36 C129.32,90.74 128.20,91.86 126.82,91.86 C125.44,91.86 124.32,90.74 124.32,89.36 C124.32,87.98 125.44,86.86 126.82,86.86 C128.20,86.86 129.32,87.98 129.32,89.36 Z" fill="#00b4ff"/>
  <path d="M129.32,99.44 C129.32,100.82 128.20,101.94 126.82,101.94 C125.44,101.94 124.32,100.82 124.32,99.44 C124.32,98.06 125.44,96.94 126.82,96.94 C128.20,96.94 129.32,98.06 129.32,99.44 Z" fill="#0096ff"/>
  <path d="M129.32,109.52 C129.32,110.91 128.20,112.02 126.82,112.02 C125.44,112.02 124.32,110.91 124.32,109.52 C124.32,108.14 125.44,107.02 126.82,107.02 C128.20,107.02 129.32,108.14 129.32,109.52 Z" fill="#0078ff"/>
  <path d="M129.32,119.61 C129.32,120.99 128.20,122.11 126.82,122.11 C125.44,122.11 124.32,120.99 124.32,119.61 C124.32,118.23 125.44,117.11 126.82,117.11 C128.20,117.11 129.32,118.23 129.32,119.61 Z" fill="#005aff"/>
  <path d="M129.32,129.69 C129.32,131.07 128.20,132.19 126.82,132.19 C125.44,132.19 124.32,131.07 124.32,129.69 C124.32,128.31 125.44,127.19 126.82,127.19 C128.20,127.19 129.32,128.31 129.32,129.69 Z" fill="#003cff"/>
  <path d="M129.32,139.77 C129.32,141.15 128.20,142.27 126.82,142.27 C125.44,142.27 124.32,141.15 124.32,139.77 C124.32,138.39 125.44,137.27 126.82,137.27 C128.20,137.27 129.32,138.39 129.32,139.77 Z" fill="#001eff"/>
  <path d="M129.32,149.85 C129.32,151.23 128.20,152.35 126.82,152.35 C125.44,152.35 124.32,151.23 124.32,149.85 C124.32,148.47 125.44,147.35 126.82,147.35 C128.20,147.35 129.32,148.47 129.32,149.85 Z" fill="#0000ff"/>
  <path d="M119.38,150.00 C119.38,151.38 118.26,152.50 116.88,152.50 C115.50,152.50 114.38,151.38 114.38,150.00 C114.38,148.62 115.50,147.50 116.88,147.50 C118.26,147.50 119.38,148.62 119.38,150.00 Z" fill="#1e00ff"/>
  <path d="M113.01,143.05 C113.01,144.43 111.89,145.55 110.51,145.55 C109.13,145.55 108.01,144.43 108.01,143.05 C108.01,141.67 109.13,140.55 110.51,140.55 C111.89,140.55 113.01,141.67 113.01,143.05 Z" fill="#3c00ff"/>
  <path d="M107.41,134.67 C107.41,136.05 106.29,137.17 104.91,137.17 C103.53,137.17 102.41,136.05 102.41,134.67 C102.41,133.29 103.53,132.17 104.91,132.17 C106.29,132.17 107.41,133.29 107.41,134.67 Z" fill="#5a00ff"/>
  <path d="M101.81,126.29 C101.81,127.67 100.69,128.79 99.31,128.79 C97.93,128.79 96.81,127.67 96.81,126.29 C96.81,124.91 97.93,123.79 99.31,123.79 C100.69,123.79 101.81,124.91 101.81,126.29 Z" fill="#7800ff"/>
  <path d="M96.20,117.91 C96.20,119.29 95.09,120.41 93.70,120.41 C92.32,120.41 91.20,119.29 91.20,117.91 C91.20,116.53 92.32,115.41 93.70,115.41 C95.09,115.41 96.20,116.53 96.20,117.91 Z" fill="#9600ff"/>
  <path d="M90.60,109.52 C90.60,110.90 89.48,112.02 88.10,112.02 C86.72,112.02 85.60,110.90 85.60,109.52 C85.60,108.14 86.72,107.02 88.10,107.02 C89.48,107.02 90.60,108.14 90.60,109.52 Z" fill="#b400ff"/>
  <path d="M85.00,101.14 C85.00,102.52 83.88,103.64 82.50,103.64 C81.12,103.64 80.00,102.52 80.00,101.14 C80.00,99.76 81.12,98.64 82.50,98.64 C83.88,98.64 85.00,99.76 85.00,101.14 Z" fill="#d200ff"/>
  <path d="M79.40,92.76 C79.40,94.14 78.28,95.26 76.90,95.26 C75.52,95.26 74.40,94.14 74.40,92.76 C74.40,91.38 75.52,90.26 76.90,90.26 C78.28,90.26 79.40,91.38 79.40,92.76 Z" fill="#f000ff"/>
  <path d="M73.79,84.38 C73.79,85.76 72.67,86.88 71.29,86.88 C69.91,86.88 68.79,85.76 68.79,84.38 C68.79,83.00 69.91,81.88 71.29,81.88 C72.67,81.88 73.79,83.00 73.79,84.38 Z" fill="#ff00f0"/>
  <path d="M72.54,90.32 C72.54,91.70 71.42,92.82 70.04,92.82 C68.66,92.82 67.54,91.70 67.54,90.32 C67.54,88.94 68.66,87.82 70.04,87.82 C71.42,87.82 72.54,88.94 72.54,90.32 Z" fill="#ff00d2"/>
  <path d="M72.54,100.41 C72.54,101.79 71.42,102.91 70.04,102.91 C68.66,102.91 67.54,101.79 67.54,100.41 C67.54,99.03 68.66,97.91 70.04,97.91 C71.42,97.91 72.54,99.03 72.54,100.41 Z" fill="#ff00b4"/>
  <path d="M72.54,110.49 C72.54,111.87 71.42,112.99 70.04,112.99 C68.66,112.99 67.54,111.87 67.54,110.49 C67.54,109.11 68.66,107.99 70.04,107.99 C71.42,107.99 72.54,109.11 72.54,110.49 Z" fill="#ff0096"/>
  <path d="M72.54,120.57 C72.54,121.95 71.42,123.07 70.04,123.07 C68.66,123.07 67.54,121.95 67.54,120.57 C67.54,119.19 68.66,118.07 70.04,118.07 C71.42,118.07 72.54,119.19 72.54,120.57 Z" fill="#ff0078"/>
  <path d="M72.54,130.65 C72.54,132.03 71.42,133.15 70.04,133.15 C68.66,133.15 67.54,132.03 67.54,130.65 C67.54,129.27 68.66,128.15 70.04,128.15 C71.42,128.15 72.54,129.27 72.54,130.65 Z" fill="#ff005a"/>
  <path d="M72.54,140.73 C72.54,142.11 71.42,143.23 70.04,143.23 C68.66,143.23 67.54,142.11 67.54,140.73 C67.54,139.35 68.66,138.23 70.04,138.23 C71.42,138.23 72.54,139.35 72.54,140.73 Z" fill="#ff003c"/>
  <path d="M71.72,150.00 C71.72,151.38 70.60,152.50 69.22,152.50 C67.84,152.50 66.72,151.38 66.72,150.00 C66.72,148.62 67.84,147.50 69.22,147.50 C70.60,147.50 71.72,148.62 71.72,150.00 Z" fill="#ff001e"/>
  <path d="M59.14,150.00 L59.14,139.92" fill="none" stroke="#4d4d66" stroke-width="0.5" stroke-opacity="0.30"/>
  <path d="M59.14,139.92 L59.14,129.84" fill="none" stroke="#4d4d66" stroke-width="0.5" stroke-opacity="0.30"/>
  <path d="M59.14,129.84 L59.14,119.75" fill="none" stroke="#4d4d66" stroke-width="0.5" stroke-opacity="0.30"/>
  <path d="M59.14,119.75 L59.14,109.67" fill="none" stroke="#4d4d66" stroke-width="0.5" stroke-opacity="0.30"/>
  <path d="M59.14,109.67 L59.14,99.59" fill="none" stroke="#4d4d66" stroke-width="0.5" stroke-opacity="0.30"/>
  <path d="M59.14,99.59 L59.14,89.51" fill="none" stroke="#4d4d66" stroke-width="0.5" stroke-opacity="0.30"/>
  <path d="M59.14,89.51 L59.14,79.43" fill="none" stroke="#4d4d66" stroke-width="0.5" stroke-opacity="0.30"/>
  <path d="M59.14,79.43 L59.14,69.34" fill="none" stroke="#4d4d66" stroke-width="0.5" stroke-opacity="0.30"/>
  <path d="M59.14,69.34 L63.98,64.10" fill="none" stroke="#4d4d66" stroke-width="0.5" stroke-opacity="0.30"/>
  <path d="M63.98,64.10 L72.61,66.81" fill="none" stroke="#4d4d66" stroke-width="0.5" stroke-opacity="0.30"/>
  <path d="M72.61,66.81 L78.22,75.19" fill="none" stroke="#4d4d66" stroke-width="0.5" stroke-opacity="0.30"/>
  <path d="M78.22,75.19 L83.83,83.57" fill="none" stroke="#4d4d66" stroke-width="0.5" stroke-opacity="0.30"/>
  <path d="M83.83,83.57 L89.43,91.95" fill="none" stroke="#4d4d66" stroke-width="0.5" stroke-opacity="0.30"/>
  <path d="M89.43,91.95 L95.04,100.33" fill="none" stroke="#4d4d66" stroke-width="0.5" stroke-opacity="0.30"/>
  <path d="M95.04,100.33 L100.64,108.71" fill="none" stroke="#4d4d66" stroke-width="0.5" stroke-opacity="0.30"/>
  <path d="M100.64,108.71 L106.25,117.09" fill="none" stroke="#4d4d66" stroke-width="0.5" stroke-opacity="0.30"/>
  <path d="M106.25,117.09 L111.86,125.47" fill="none" stroke="#4d4d66" stroke-width="0.5" stroke-opacity="0.30"/>
  <path d="M111.86,125.47 L115.92,128.77" fill="none" stroke="#4d4d66" stroke-width="0.5" stroke-opacity="0.30"/>
  <path d="M115.92,128.77 L115.92,118.68" fill="none" stroke="#4d4d66" stroke-width="0.5" stroke-opacity="0.30"/>
  <path d="M115.92,118.68 L115.92,108.60" fill="none" stroke="#4d4d66" stroke-width="0.5" stroke-opacity="0.30"/>
  <path d="M115.92,108.60 L115.92,98.52" fill="none" stroke="#4d4d66" stroke-width="0.5" stroke-opacity="0.30"/>
  <path d="M115.92,98.52 L115.92,88.44" fill="none" stroke="#4d4d66" stroke-width="0.5" stroke-opacity="0.30"/>
  <path d="M115.92,88.44 L115.92,78.35" fill="none" stroke="#4d4d66" stroke-width="0.5" stroke-opacity="0.30"/>
  <path d="M115.92,78.35 L115.92,68.27" fill="none" stroke="#4d4d66" stroke-width="0.5" stroke-opacity="0.30"/>
  <path d="M115.92,68.27 L121.83,64.10" fill="none" stroke="#4d4d66" stroke-width="0.5" stroke-opacity="0.30"/>
  <path d="M121.83,64.10 L126.82,69.20" fill="none" stroke="#4d4d66" stroke-width="0.5" stroke-opacity="0.30"/>
  <path d="M126.82,69.20 L126.82,79.28" fill="none" stroke="#4d4d66" stroke-width="0.5" stroke-opacity="0.30"/>
  <path d="M126.82,79.28 L126.82,89.36" fill="none" stroke="#4d4d66" stroke-width="0.5" stroke-opacity="0.30"/>
  <path d="M126.82,89.36 L126.82,99.44" fill="none" stroke="#4d4d66" stroke-width="0.5" stroke-opacity="0.30"/>
  <path d="M126.82,99.44 L126.82,109.52" fill="none" stroke="#4d4d66" stroke-width="0.5" stroke-opacity="0.30"/>
  <path d="M126.82,109.52 L126.82,119.61" fill="none" stroke="#4d4d66" stroke-width="0.5" stroke-opacity="0.30"/>
  <path d="M126.82,119.61 L126.82,129.69" fill="none" stroke="#4d4d66" stroke-width="0.5" stroke-opacity="0.30"/>
  <path d="M126.82,129.69 L126.82,139.77" fill="none" stroke="#4d4d66" stroke-width="0.5" stroke-opacity="0.30"/>
  <path d="M126.82,139.77 L126.82,149.85" fill="none" stroke="#4d4d66" stroke-width="0.5" stroke-opacity="0.30"/>
  <path d="M126.82,149.85 L116.88,150.00" fill="none" stroke="#4d4d66" stroke-width="0.5" stroke-opacity="0.30"/>
  <path d="M116.88,150.00 L110.51,143.05" fill="none" stroke="#4d4d66" stroke-width="0.5" stroke-opacity="0.30"/>
  <path d="M110.51,143.05 L104.91,134.67" fill="none" stroke="#4d4d66" stroke-width="0.5" stroke-opacity="0.30"/>
  <path d="M104.91,134.67 L99.31,126.29" fill="none" stroke="#4d4d66" stroke-width="0.5" stroke-opacity="0.30"/>
  <path d="M99.31,126.29 L93.70,117.91" fill="none" stroke="#4d4d66" stroke-width="0.5" stroke-opacity="0.30"/>
  <path d="M93.70,117.91 L88.10,109.52" fill="none" stroke="#4d4d66" stroke-width="0.5" stroke-opacity="0.30"/>
  <path d="M88.10,109.52 L82.50,101.14" fill="none" stroke="#4d4d66" stroke-width="0.5" stroke-opacity="0.30"/>
  <path d="M82.50,101.14 L76.90,92.76" fill="none" stroke="#4d4d66" stroke-width="0.5" stroke-opacity="0.30"/>
  <path d="M76.90,92.76 L71.29,84.38" fill="none" stroke="#4d4d66" stroke-width="0.5" stroke-opacity="0.30"/>
  <path d="M71.29,84.38 L70.04,90.32" fill="none" stroke="#4d4d66" stroke-width="0.5" stroke-opacity="0.30"/>
  <path d="M70.04,90.32 L70.04,100.41" fill="none" stroke="#4d4d66" stroke-width="0.5" stroke-opacity="0.30"/>
  <path d="M70.04,100.41 L70.04,110.49" fill="none" stroke="#4d4d66" stroke-width="0.5" stroke-opacity="0.30"/>
  <path d="M70.04,110.49 L70.04,120.57" fill="none" stroke="#4d4d66" stroke-width="0.5" stroke-opacity="0.30"/>
  <path d="M70.04,120.57 L70.04,130.65" fill="none" stroke="#4d4d66" stroke-width="0.5" stroke-opacity="0.30"/>
  <path d="M70.04,130.65 L70.04,140.73" fill="none" stroke="#4d4d66" stroke-width="0.5" stroke-opacity="0.30"/>
  <path d="M70.04,140.73 L69.22,150.00" fill="none" stroke="#4d4d66" stroke-width="0.5" stroke-opacity="0.30"/>
  <path d="M69.22,150.00 L59.14,150.00" fill="none" stroke="#4d4d66" stroke-width="0.5" stroke-opacity="0.30"/>
  <path d="M143.14,118.89 C143.14,120.27 142.03,121.39 140.64,121.39 C139.26,121.39 138.14,120.27 138.14,118.89 C138.14,117.51 139.26,116.39 140.64,116.39 C142.03,116.39 143.14,117.51 143.14,118.89 Z" fill="#ff0000"/>
  <path d="M144.45,107.36 C144.45,108.74 143.33,109.86 141.95,109.86 C140.57,109.86 139.45,108.74 139.45,107.36 C139.45,105.98 140.57,104.86 141.95,104.86 C143.33,104.86 144.45,105.98 144.45,107.36 Z" fill="#ff5100"/>
  <path d="M148.37,98.27 C148.37,99.65 147.25,100.77 145.87,100.77 C144.49,100.77 143.37,99.65 143.37,98.27 C143.37,96.89 144.49,95.77 145.87,95.77 C147.25,95.77 148.37,96.89 148.37,98.27 Z" fill="#ffa100"/>
  <path d="M155.08,91.47 C155.08,92.85 153.96,93.97 152.58,93.97 C151.20,93.97 150.08,92.85 150.08,91.47 C150.08,90.09 151.20,88.97 152.58,88.97 C153.96,88.97 155.08,90.09 155.08,91.47 Z" fill="#fff200"/>
  <path d="M164.29,87.31 C164.29,88.69 163.17,89.81 161.79,89.81 C160.41,89.81 159.29,88.69 159.29,87.31 C159.29,85.93 160.41,84.81 161.79,84.81 C163.17,84.81 164.29,85.93 164.29,87.31 Z" fill="#bcff00"/>
  <path d="M175.12,86.47 C175.12,87.85 174.00,88.97 172.62,88.97 C171.23,88.97 170.12,87.85 170.12,86.47 C170.12,85.09 171.23,83.97 172.62,83.97 C174.00,83.97 175.12,85.09 175.12,86.47 Z" fill="#6bff00"/>
  <path d="M185.20,88.99 C185.20,90.37 184.08,91.49 182.70,91.49 C181.32,91.49 180.20,90.37 180.20,88.99 C180.20,87.61 181.32,86.49 182.70,86.49 C184.08,86.49 185.20,87.61 185.20,88.99 Z" fill="#1bff00"/>
  <path d="M193.39,94.87 C193.39,96.25 192.27,97.37 190.89,97.37 C189.51,97.37 188.39,96.25 188.39,94.87 C188.39,93.49 189.51,92.37 190.89,92.37 C192.27,92.37 193.39,93.49 193.39,94.87 Z" fill="#00ff36"/>
  <path d="M198.68,102.92 C198.68,104.30 197.56,105.42 196.18,105.42 C194.80,105.42 193.68,104.30 193.68,102.92 C193.68,101.54 194.80,100.42 196.18,100.42 C197.56,100.42 198.68,101.54 198.68,102.92 Z" fill="#00ff86"/>
  <path d="M201.21,113.14 C201.21,114.53 200.09,115.64 198.71,115.64 C197.33,115.64 196.21,114.53 196.21,113.14 C196.21,111.76 197.33,110.64 198.71,110.64 C200.09,110.64 201.21,111.76 201.21,113.14 Z" fill="#00ffd7"/>
  <path d="M201.09,125.06 C201.09,126.44 199.97,127.56 198.59,127.56 C197.21,127.56 196.09,126.44 196.09,125.06 C196.09,123.67 197.21,122.56 198.59,122.56 C199.97,122.56 201.09,123.67 201.09,125.06 Z" fill="#00d7ff"/>
  <path d="M198.84,134.73 C198.84,136.11 197.72,137.23 196.34,137.23 C194.96,137.23 193.84,136.11 193.84,134.73 C193.84,133.35 194.96,132.23 196.34,132.23 C197.72,132.23 198.84,133.35 198.84,134.73 Z" fill="#0086ff"/>
  <path d="M193.48,142.95 C193.48,144.33 192.36,145.45 190.98,145.45 C189.60,145.45 188.48,144.33 188.48,142.95 C188.48,141.57 189.60,140.45 190.98,140.45 C192.36,140.45 193.48,141.57 193.48,142.95 Z" fill="#0036ff"/>
  <path d="M184.93,148.80 C184.93,150.18 183.81,151.30 182.43,151.30 C181.05,151.30 179.93,150.18 179.93,148.80 C179.93,147.42 181.05,146.30 182.43,146.30 C183.81,146.30 184.93,147.42 184.93,148.80 Z" fill="#1b00ff"/>
  <path d="M174.94,151.31 C174.94,152.69 173.83,153.81 172.44,153.81 C171.06,153.81 169.94,152.69 169.94,151.31 C169.94,149.92 171.06,148.81 172.44,148.81 C173.83,148.81 174.94,149.92 174.94,151.31 Z" fill="#6b00ff"/>
  <path d="M164.11,150.46 C164.11,151.84 162.99,152.96 161.61,152.96 C160.23,152.96 159.11,151.84 159.11,150.46 C159.11,149.08 160.23,147.96 161.61,147.96 C162.99,147.96 164.11,149.08 164.11,150.46 Z" fill="#bc00ff"/>
  <path d="M154.97,146.30 C154.97,147.68 153.85,148.80 152.47,148.80 C151.09,148.80 149.97,147.68 149.97,146.30 C149.97,144.92 151.09,143.80 152.47,143.80 C153.85,143.80 154.97,144.92 154.97,146.30 Z" fill="#ff00f2"/>
  <path d="M148.27,139.33 C148.27,140.71 147.15,141.83 145.77,141.83 C144.39,141.83 143.27,140.71 143.27,139.33 C143.27,137.95 144.39,136.83 145.77,136.83 C147.15,136.83 148.27,137.95 148.27,139.33 Z" fill="#ff00a1"/>
  <path d="M144.43,130.28 C144.43,131.67 143.31,132.78 141.93,132.78 C140.55,132.78 139.43,131.67 139.43,130.28 C139.43,128.90 140.55,127.78 141.93,127.78 C143.31,127.78 144.43,128.90 144.43,130.28 Z" fill="#ff0051"/>
  <path d="M140.64,118.89 L141.95,107.36" fill="none" stroke="#4d4d66" stroke-width="0.5" stroke-opacity="0.30"/>
  <path d="M141.95,107.36 L145.87,98.27" fill="none" stroke="#4d4d66" stroke-width="0.5" stroke-opacity="0.30"/>
  <path d="M145.87,98.27 L152.58,91.47" fill="none" stroke="#4d4d66" stroke-width="0.5" stroke-opacity="0.30"/>
  <path d="M152.58,91.47 L161.79,87.31" fill="none" stroke="#4d4d66" stroke-width="0.5" stroke-opacity="0.30"/>
  <path d="M161.79,87.31 L172.62,86.47" fill="none" stroke="#4d4d66" stroke-width="0.5" stroke-opacity="0.30"/>
  <path d="M172.62,86.47 L182.70,88.99" fill="none" stroke="#4d4d66" stroke-width="0.5" stroke-opacity="0.30"/>
  <path d="M182.70,88.99 L190.89,94.87" fill="none" stroke="#4d4d66" stroke-width="0.5" stroke-opacity="0.30"/>
  <path d="M190.89,94.87 L196.18,102.92" fill="none" stroke="#4d4d66" stroke-width="0.5" stroke-opacity="0.30"/>
  <path d="M196.18,102.92 L198.71,113.14" fill="none" stroke="#4d4d66" stroke-width="0.5" stroke-opacity="0.30"/>
  <path d="M198.71,113.14 L198.59,125.06" fill="none" stroke="#4d4d66" stroke-width="0.5" stroke-opacity="0.30"/>
  <path d="M198.59,125.06 L196.34,134.73" fill="none" stroke="#4d4d66" stroke-width="0.5" stroke-opacity="0.30"/>
  <path d="M196.34,134.73 L190.98,142.95" fill="none" stroke="#4d4d66" stroke-width="0.5" stroke-opacity="0.30"/>
  <path d="M190.98,142.95 L182.43,148.80" fill="none" stroke="#4d4d66" stroke-width="0.5" stroke-opacity="0.30"/>
  <path d="M182.43,148.80 L172.44,151.31" fill="none" stroke="#4d4d66" stroke-width="0.5" stroke-opacity="0.30"/>
  <path d="M172.44,151.31 L161.61,150.46" fill="none" stroke="#4d4d66" stroke-width="0.5" stroke-opacity="0.30"/>
  <path d="M161.61,150.46 L152.47,146.30" fill="none" stroke="#4d4d66" stroke-width="0.5" stroke-opacity="0.30"/>
  <path d="M152.47,146.30 L145.77,139.33" fill="none" stroke="#4d4d66" stroke-width="0.5" stroke-opacity="0.30"/>
  <path d="M145.77,139.33 L141.93,130.28" fill="none" stroke="#4d4d66" stroke-width="0.5" stroke-opacity="0.30"/>
  <path d="M141.93,130.28 L140.64,118.89" fill="none" stroke="#4d4d66" stroke-width="0.5" stroke-opacity="0.30"/>
  <path d="M153.98,118.89 C153.98,120.27 152.87,121.39 151.48,121.39 C150.10,121.39 148.98,120.27 148.98,118.89 C148.98,117.51 150.10,116.39 151.48,116.39 C152.87,116.39 153.98,117.51 153.98,118.89 Z" fill="#ff0000"/>
  <path d="M155.55,130.17 C155.55,131.55 154.43,132.67 153.05,132.67 C151.67,132.67 150.55,131.55 150.55,130.17 C150.55,128.79 151.67,127.67 153.05,127.67 C154.43,127.67 155.55,128.79 155.55,130.17 Z" fill="#ff7600"/>
  <path d="M160.50,138.14 C160.50,139.52 159.38,140.64 158.00,140.64 C156.62,140.64 155.50,139.52 155.50,138.14 C155.50,136.76 156.62,135.64 158.00,135.64 C159.38,135.64 160.50,136.76 160.50,138.14 Z" fill="#ffeb00"/>
  <path d="M169.58,142.54 C169.58,143.92 168.46,145.04 167.08,145.04 C165.70,145.04 164.58,143.92 164.58,142.54 C164.58,141.16 165.70,140.04 167.08,140.04 C168.46,140.04 169.58,141.16 169.58,142.54 Z" fill="#9dff00"/>
  <path d="M179.81,141.10 C179.81,142.48 178.69,143.60 177.31,143.60 C175.93,143.60 174.81,142.48 174.81,141.10 C174.81,139.72 175.93,138.60 177.31,138.60 C178.69,138.60 179.81,139.72 179.81,141.10 Z" fill="#27ff00"/>
  <path d="M187.03,134.51 C187.03,135.90 185.91,137.01 184.53,137.01 C183.15,137.01 182.03,135.90 182.03,134.51 C182.03,133.13 183.15,132.01 184.53,132.01 C185.91,132.01 187.03,133.13 187.03,134.51 Z" fill="#00ff4e"/>
  <path d="M190.17,125.10 C190.17,126.48 189.05,127.60 187.67,127.60 C186.29,127.60 185.17,126.48 185.17,125.10 C185.17,123.72 186.29,122.60 187.67,122.60 C189.05,122.60 190.17,123.72 190.17,125.10 Z" fill="#00ffc4"/>
  <path d="M190.26,112.95 C190.26,114.33 189.14,115.45 187.76,115.45 C186.38,115.45 185.26,114.33 185.26,112.95 C185.26,111.57 186.38,110.45 187.76,110.45 C189.14,110.45 190.26,111.57 190.26,112.95 Z" fill="#00c4ff"/>
  <path d="M187.11,103.41 C187.11,104.79 185.99,105.91 184.61,105.91 C183.23,105.91 182.11,104.79 182.11,103.41 C182.11,102.03 183.23,100.91 184.61,100.91 C185.99,100.91 187.11,102.03 187.11,103.41 Z" fill="#004eff"/>
  <path d="M179.83,96.75 C179.83,98.13 178.71,99.25 177.33,99.25 C175.95,99.25 174.83,98.13 174.83,96.75 C174.83,95.37 175.95,94.25 177.33,94.25 C178.71,94.25 179.83,95.37 179.83,96.75 Z" fill="#2700ff"/>
  <path d="M169.62,95.28 C169.62,96.66 168.50,97.78 167.12,97.78 C165.74,97.78 164.62,96.66 164.62,95.28 C164.62,93.90 165.74,92.78 167.12,92.78 C168.50,92.78 169.62,93.90 169.62,95.28 Z" fill="#9d00ff"/>
  <path d="M160.52,99.65 C160.52,101.03 159.40,102.15 158.02,102.15 C156.64,102.15 155.52,101.03 155.52,99.65 C155.52,98.27 156.64,97.15 158.02,97.15 C159.40,97.15 160.52,98.27 160.52,99.65 Z" fill="#ff00eb"/>
  <path d="M155.55,107.60 C155.55,108.98 154.43,110.10 153.05,110.10 C151.67,110.10 150.55,108.98 150.55,107.60 C150.55,106.22 151.67,105.10 153.05,105.10 C154.43,105.10 155.55,106.22 155.55,107.60 Z" fill="#ff0076"/>
  <path d="M151.48,118.89 L153.05,130.17" fill="none" stroke="#4d4d66" stroke-width="0.5" stroke-opacity="0.30"/>
  <path d="M153.05,130.17 L158.00,138.14" fill="none" stroke="#4d4d66" stroke-width="0.5" stroke-opacity="0.30"/>
  <path d="M158.00,138.14 L167.08,142.54" fill="none" stroke="#4d4d66" stroke-width="0.5" stroke-opacity="0.30"/>
  <path d="M167.08,142.54 L177.31,141.10" fill="none" stroke="#4d4d66" stroke-width="0.5" stroke-opacity="0.30"/>
  <path d="M177.31,141.10 L184.53,134.51" fill="none" stroke="#4d4d66" stroke-width="0.5" stroke-opacity="0.30"/>
  <path d="M184.53,134.51 L187.67,125.10" fill="none" stroke="#4d4d66" stroke-width="0.5" stroke-opacity="0.30"/>
  <path d="M187.67,125.10 L187.76,112.95" fill="none" stroke="#4d4d66" stroke-width="0.5" stroke-opacity="0.30"/>
  <path d="M187.76,112.95 L184.61,103.41" fill="none" stroke="#4d4d66" stroke-width="0.5" stroke-opacity="0.30"/>
  <path d="M184.61,103.41 L177.33,96.75" fill="none" stroke="#4d4d66" stroke-width="0.5" stroke-opacity="0.30"/>
  <path d="M177.33,96.75 L167.12,95.28" fill="none" stroke="#4d4d66" stroke-width="0.5" stroke-opacity="0.30"/>
  <path d="M167.12,95.28 L158.02,99.65" fill="none" stroke="#4d4d66" stroke-width="0.5" stroke-opacity="0.30"/>
  <path d="M158.02,99.65 L153.05,107.60" fill="none" stroke="#4d4d66" stroke-width="0.5" stroke-opacity="0.30"/>
  <path d="M153.05,107.60 L151.48,118.89" fill="none" stroke="#4d4d66" stroke-width="0.5" stroke-opacity="0.30"/>
  <path d="M254.18,150.00 C254.18,151.38 253.06,152.50 251.68,152.50 C250.30,152.50 249.18,151.38 249.18,150.00 C249.18,148.62 250.30,147.50 251.68,147.50 C253.06,147.50 254.18,148.62 254.18,150.00 Z" fill="#ff0000"/>
  <path d="M252.66,144.26 C252.66,145.64 251.54,146.76 250.16,146.76 C248.78,146.76 247.66,145.64 247.66,144.26 C247.66,142.88 248.78,141.76 250.16,141.76 C251.54,141.76 252.66,142.88 252.66,144.26 Z" fill="#ff3900"/>
  <path d="M244.65,150.09 C244.65,151.47 243.53,152.59 242.15,152.59 C240.77,152.59 239.65,151.47 239.65,150.09 C239.65,148.71 240.77,147.59 242.15,147.59 C243.53,147.59 244.65,148.71 244.65,150.09 Z" fill="#ff7100"/>
  <path d="M234.18,151.28 C234.18,152.66 233.06,153.78 231.68,153.78 C230.30,153.78 229.18,152.66 229.18,151.28 C229.18,149.90 230.30,148.78 231.68,148.78 C233.06,148.78 234.18,149.90 234.18,151.28 Z" fill="#ffaa00"/>
  <path d="M224.47,148.15 C224.47,149.53 223.35,150.65 221.97,150.65 C220.59,150.65 219.47,149.53 219.47,148.15 C219.47,146.77 220.59,145.65 221.97,145.65 C223.35,145.65 224.47,146.77 224.47,148.15 Z" fill="#ffe300"/>
  <path d="M216.82,141.47 C216.82,142.86 215.70,143.97 214.32,143.97 C212.94,143.97 211.82,142.86 211.82,141.47 C211.82,140.09 212.94,138.97 214.32,138.97 C215.70,138.97 216.82,140.09 216.82,141.47 Z" fill="#e3ff00"/>
  <path d="M212.05,132.40 C212.05,133.78 210.93,134.90 209.55,134.90 C208.17,134.90 207.05,133.78 207.05,132.40 C207.05,131.01 208.17,129.90 209.55,129.90 C210.93,129.90 212.05,131.01 212.05,132.40 Z" fill="#aaff00"/>
  <path d="M210.11,122.26 C210.11,123.64 208.99,124.76 207.61,124.76 C206.23,124.76 205.11,123.64 205.11,122.26 C205.11,120.88 206.23,119.76 207.61,119.76 C208.99,119.76 210.11,120.88 210.11,122.26 Z" fill="#71ff00"/>
  <path d="M210.55,111.41 C210.55,112.80 209.43,113.91 208.05,113.91 C206.67,113.91 205.55,112.80 205.55,111.41 C205.55,110.03 206.67,108.91 208.05,108.91 C209.43,108.91 210.55,110.03 210.55,111.41 Z" fill="#39ff00"/>
  <path d="M213.24,101.71 C213.24,103.09 212.12,104.21 210.74,104.21 C209.36,104.21 208.24,103.09 208.24,101.71 C208.24,100.33 209.36,99.21 210.74,99.21 C212.12,99.21 213.24,100.33 213.24,101.71 Z" fill="#00ff00"/>
  <path d="M219.04,93.09 C219.04,94.47 217.92,95.59 216.54,95.59 C215.16,95.59 214.04,94.47 214.04,93.09 C214.04,91.71 215.16,90.59 216.54,90.59 C217.92,90.59 219.04,91.71 219.04,93.09 Z" fill="#00ff39"/>
  <path d="M227.66,87.81 C227.66,89.19 226.54,90.31 225.16,90.31 C223.78,90.31 222.66,89.19 222.66,87.81 C222.66,86.43 223.78,85.31 225.16,85.31 C226.54,85.31 227.66,86.43 227.66,87.81 Z" fill="#00ff71"/>
  <path d="M238.00,86.42 C238.00,87.80 236.88,88.92 235.50,88.92 C234.12,88.92 233.00,87.80 233.00,86.42 C233.00,85.04 234.12,83.92 235.50,83.92 C236.88,83.92 238.00,85.04 238.00,86.42 Z" fill="#00ffaa"/>
  <path d="M247.71,89.55 C247.71,90.93 246.59,92.05 245.21,92.05 C243.83,92.05 242.71,90.93 242.71,89.55 C242.71,88.16 243.83,87.05 245.21,87.05 C246.59,87.05 247.71,88.16 247.71,89.55 Z" fill="#00ffe3"/>
  <path d="M253.48,92.56 C253.48,93.94 252.36,95.06 250.98,95.06 C249.60,95.06 248.48,93.94 248.48,92.56 C248.48,91.18 249.60,90.06 250.98,90.06 C252.36,90.06 253.48,91.18 253.48,92.56 Z" fill="#00e3ff"/>
  <path d="M253.48,82.20 C253.48,83.58 252.36,84.70 250.98,84.70 C249.60,84.70 248.48,83.58 248.48,82.20 C248.48,80.82 249.60,79.70 250.98,79.70 C252.36,79.70 253.48,80.82 253.48,82.20 Z" fill="#00aaff"/>
  <path d="M253.48,71.84 C253.48,73.23 252.36,74.34 250.98,74.34 C249.60,74.34 248.48,73.23 248.48,71.84 C248.48,70.46 249.60,69.34 250.98,69.34 C252.36,69.34 253.48,70.46 253.48,71.84 Z" fill="#0071ff"/>
  <path d="M256.09,64.10 C256.09,65.48 254.97,66.60 253.59,66.60 C252.21,66.60 251.09,65.48 251.09,64.10 C251.09,62.72 252.21,61.60 253.59,61.60 C254.97,61.60 256.09,62.72 256.09,64.10 Z" fill="#0039ff"/>
  <path d="M263.96,66.58 C263.96,67.96 262.85,69.08 261.46,69.08 C260.08,69.08 258.96,67.96 258.96,66.58 C258.96,65.20 260.08,64.08 261.46,64.08 C262.85,64.08 263.96,65.20 263.96,66.58 Z" fill="#0000ff"/>
  <path d="M263.96,76.94 C263.96,78.32 262.85,79.44 261.46,79.44 C260.08,79.44 258.96,78.32 258.96,76.94 C258.96,75.56 260.08,74.44 261.46,74.44 C262.85,74.44 263.96,75.56 263.96,76.94 Z" fill="#3900ff"/>
  <path d="M263.96,87.29 C263.96,88.67 262.85,89.79 261.46,89.79 C260.08,89.79 258.96,88.67 258.96,87.29 C258.96,85.91 260.08,84.79 261.46,84.79 C262.85,84.79 263.96,85.91 263.96,87.29 Z" fill="#7100ff"/>
  <path d="M263.96,97.65 C263.96,99.03 262.85,100.15 261.46,100.15 C260.08,100.15 258.96,99.03 258.96,97.65 C258.96,96.27 260.08,95.15 261.46,95.15 C262.85,95.15 263.96,96.27 263.96,97.65 Z" fill="#aa00ff"/>
  <path d="M263.96,108.01 C263.96,109.39 262.85,110.51 261.46,110.51 C260.08,110.51 258.96,109.39 258.96,108.01 C258.96,106.62 260.08,105.51 261.46,105.51 C262.85,105.51 263.96,106.62 263.96,108.01 Z" fill="#e300ff"/>
  <path d="M263.96,118.36 C263.96,119.74 262.85,120.86 261.46,120.86 C260.08,120.86 258.96,119.74 258.96,118.36 C258.96,116.98 260.08,115.86 261.46,115.86 C262.85,115.86 263.96,116.98 263.96,118.36 Z" fill="#ff00e3"/>
  <path d="M263.96,128.72 C263.96,130.10 262.85,131.22 261.46,131.22 C260.08,131.22 258.96,130.10 258.96,128.72 C258.96,127.34 260.08,126.22 261.46,126.22 C262.85,126.22 263.96,127.34 263.96,128.72 Z" fill="#ff00aa"/>
  <path d="M263.96,139.07 C263.96,140.45 262.85,141.57 261.46,141.57 C260.08,141.57 258.96,140.45 258.96,139.07 C258.96,137.69 260.08,136.57 261.46,136.57 C262.85,136.57 263.96,137.69 263.96,139.07 Z" fill="#ff0071"/>
  <path d="M263.96,149.43 C263.96,150.81 262.85,151.93 261.46,151.93 C260.08,151.93 258.96,150.81 258.96,149.43 C258.96,148.05 260.08,146.93 261.46,146.93 C262.85,146.93 263.96,148.05 263.96,149.43 Z" fill="#ff0039"/>
  <path d="M251.68,150.00 L250.16,144.26" fill="none" stroke="#4d4d66" stroke-width="0.5" stroke-opacity="0.30"/>
  <path d="M250.16,144.26 L242.15,150.09" fill="none" stroke="#4d4d66" stroke-width="0.5" stroke-opacity="0.30"/>
  <path d="M242.15,150.09 L231.68,151.28" fill="none" stroke="#4d4d66" stroke-width="0.5" stroke-opacity="0.30"/>
  <path d="M231.68,151.28 L221.97,148.15" fill="none" stroke="#4d4d66" stroke-width="0.5" stroke-opacity="0.30"/>
  <path d="M221.97,148.15 L214.32,141.47" fill="none" stroke="#4d4d66" stroke-width="0.5" stroke-opacity="0.30"/>
  <path d="M214.32,141.47 L209.55,132.40" fill="none" stroke="#4d4d66" stroke-width="0.5" stroke-opacity="0.30"/>
  <path d="M209.55,132.40 L207.61,122.26" fill="none" stroke="#4d4d66" stroke-width="0.5" stroke-opacity="0.30"/>
  <path d="M207.61,122.26 L208.05,111.41" fill="none" stroke="#4d4d66" stroke-width="0.5" stroke-opacity="0.30"/>
  <path d="M208.05,111.41 L210.74,101.71" fill="none" stroke="#4d4d66" stroke-width="0.5" stroke-opacity="0.30"/>
  <path d="M210.74,101.71 L216.54,93.09" fill="none" stroke="#4d4d66" stroke-width="0.5" stroke-opacity="0.30"/>
  <path d="M216.54,93.09 L225.16,87.81" fill="none" stroke="#4d4d66" stroke-width="0.5" stroke-opacity="0.30"/>
  <path d="M225.16,87.81 L235.50,86.42" fill="none" stroke="#4d4d66" stroke-width="0.5" stroke-opacity="0.30"/>
  <path d="M235.50,86.42 L245.21,89.55" fill="none" stroke="#4d4d66" stroke-width="0.5" stroke-opacity="0.30"/>
  <path d="M245.21,89.55 L250.98,92.56" fill="none" stroke="#4d4d66" stroke-width="0.5" stroke-opacity="0.30"/>
  <path d="M250.98,92.56 L250.98,82.20" fill="none" stroke="#4d4d66" stroke-width="0.5" stroke-opacity="0.30"/>
  <path d="M250.98,82.20 L250.98,71.84" fill="none" stroke="#4d4d66" stroke-width="0.5" stroke-opacity="0.30"/>
  <path d="M250.98,71.84 L253.59,64.10" fill="none" stroke="#4d4d66" stroke-width="0.5" stroke-opacity="0.30"/>
  <path d="M253.59,64.10 L261.46,66.58" fill="none" stroke="#4d4d66" stroke-width="0.5" stroke-opacity="0.30"/>
  <path d="M261.46,66.58 L261.46,76.94" fill="none" stroke="#4d4d66" stroke-width="0.5" stroke-opacity="0.30"/>
  <path d="M261.46,76.94 L261.46,87.29" fill="none" stroke="#4d4d66" stroke-width="0.5" stroke-opacity="0.30"/>
  <path d="M261.46,87.29 L261.46,97.65" fill="none" stroke="#4d4d66" stroke-width="0.5" stroke-opacity="0.30"/>
  <path d="M261.46,97.65 L261.46,108.01" fill="none" stroke="#4d4d66" stroke-width="0.5" stroke-opacity="0.30"/>
  <path d="M261.46,108.01 L261.46,118.36" fill="none" stroke="#4d4d66" stroke-width="0.5" stroke-opacity="0.30"/>
  <path d="M261.46,118.36 L261.46,128.72" fill="none" stroke="#4d4d66" stroke-width="0.5" stroke-opacity="0.30"/>
  <path d="M261.46,128.72 L261.46,139.07" fill="none" stroke="#4d4d66" stroke-width="0.5" stroke-opacity="0.30"/>
  <path d="M261.46,139.07 L261.46,149.43" fill="none" stroke="#4d4d66" stroke-width="0.5" stroke-opacity="0.30"/>
  <path d="M261.46,149.43 L251.68,150.00" fill="none" stroke="#4d4d66" stroke-width="0.5" stroke-opacity="0.30"/>
  <path d="M220.84,118.95 C220.84,120.33 219.72,121.45 218.34,121.45 C216.96,121.45 215.84,120.33 215.84,118.95 C215.84,117.56 216.96,116.45 218.34,116.45 C219.72,116.45 220.84,117.56 220.84,118.95 Z" fill="#ff0000"/>
  <path d="M222.26,129.94 C222.26,131.32 221.14,132.44 219.76,132.44 C218.38,132.44 217.26,131.32 217.26,129.94 C217.26,128.56 218.38,127.44 219.76,127.44 C221.14,127.44 222.26,128.56 222.26,129.94 Z" fill="#ff7600"/>
  <path d="M226.76,137.79 C226.76,139.17 225.64,140.29 224.26,140.29 C222.88,140.29 221.76,139.17 221.76,137.79 C221.76,136.41 222.88,135.29 224.26,135.29 C225.64,135.29 226.76,136.41 226.76,137.79 Z" fill="#ffeb00"/>
  <path d="M235.34,142.54 C235.34,143.92 234.22,145.04 232.84,145.04 C231.46,145.04 230.34,143.92 230.34,142.54 C230.34,141.16 231.46,140.04 232.84,140.04 C234.22,140.04 235.34,141.16 235.34,142.54 Z" fill="#9dff00"/>
  <path d="M244.88,140.95 C244.88,142.33 243.76,143.45 242.38,143.45 C241.00,143.45 239.88,142.33 239.88,140.95 C239.88,139.57 241.00,138.45 242.38,138.45 C243.76,138.45 244.88,139.57 244.88,140.95 Z" fill="#27ff00"/>
  <path d="M251.47,134.21 C251.47,135.59 250.35,136.71 248.97,136.71 C247.58,136.71 246.47,135.59 246.47,134.21 C246.47,132.83 247.58,131.71 248.97,131.71 C250.35,131.71 251.47,132.83 251.47,134.21 Z" fill="#00ff4e"/>
  <path d="M254.12,124.70 C254.12,126.08 253.00,127.20 251.62,127.20 C250.23,127.20 249.12,126.08 249.12,124.70 C249.12,123.32 250.23,122.20 251.62,122.20 C253.00,122.20 254.12,123.32 254.12,124.70 Z" fill="#00ffc4"/>
  <path d="M253.90,112.71 C253.90,114.09 252.78,115.21 251.40,115.21 C250.02,115.21 248.90,114.09 248.90,112.71 C248.90,111.33 250.02,110.21 251.40,110.21 C252.78,110.21 253.90,111.33 253.90,112.71 Z" fill="#00c4ff"/>
  <path d="M251.11,103.55 C251.11,104.94 249.99,106.05 248.61,106.05 C247.23,106.05 246.11,104.94 246.11,103.55 C246.11,102.17 247.23,101.05 248.61,101.05 C249.99,101.05 251.11,102.17 251.11,103.55 Z" fill="#004eff"/>
  <path d="M244.49,96.88 C244.49,98.26 243.37,99.38 241.99,99.38 C240.61,99.38 239.49,98.26 239.49,96.88 C239.49,95.50 240.61,94.38 241.99,94.38 C243.37,94.38 244.49,95.50 244.49,96.88 Z" fill="#2700ff"/>
  <path d="M234.87,95.28 C234.87,96.66 233.75,97.78 232.37,97.78 C230.99,97.78 229.87,96.66 229.87,95.28 C229.87,93.90 230.99,92.78 232.37,92.78 C233.75,92.78 234.87,93.90 234.87,95.28 Z" fill="#9d00ff"/>
  <path d="M226.31,99.97 C226.31,101.35 225.19,102.47 223.81,102.47 C222.43,102.47 221.31,101.35 221.31,99.97 C221.31,98.59 222.43,97.47 223.81,97.47 C225.19,97.47 226.31,98.59 226.31,99.97 Z" fill="#ff00eb"/>
  <path d="M222.15,107.74 C222.15,109.12 221.04,110.24 219.65,110.24 C218.27,110.24 217.15,109.12 217.15,107.74 C217.15,106.36 218.27,105.24 219.65,105.24 C221.04,105.24 222.15,106.36 222.15,107.74 Z" fill="#ff0076"/>
  <path d="M218.34,118.95 L219.76,129.94" fill="none" stroke="#4d4d66" stroke-width="0.5" stroke-opacity="0.30"/>
  <path d="M219.76,129.94 L224.26,137.79" fill="none" stroke="#4d4d66" stroke-width="0.5" stroke-opacity="0.30"/>
  <path d="M224.26,137.79 L232.84,142.54" fill="none" stroke="#4d4d66" stroke-width="0.5" stroke-opacity="0.30"/>
  <path d="M232.84,142.54 L242.38,140.95" fill="none" stroke="#4d4d66" stroke-width="0.5" stroke-opacity="0.30"/>
  <path d="M242.38,140.95 L248.97,134.21" fill="none" stroke="#4d4d66" stroke-width="0.5" stroke-opacity="0.30"/>
  <path d="M248.97,134.21 L251.62,124.70" fill="none" stroke="#4d4d66" stroke-width="0.5" stroke-opacity="0.30"/>
  <path d="M251.62,124.70 L251.40,112.71" fill="none" stroke="#4d4d66" stroke-width="0.5" stroke-opacity="0.30"/>
  <path d="M251.40,112.71 L248.61,103.55" fill="none" stroke="#4d4d66" stroke-width="0.5" stroke-opacity="0.30"/>
  <path d="M248.61,103.55 L241.99,96.88" fill="none" stroke="#4d4d66" stroke-width="0.5" stroke-opacity="0.30"/>
  <path d="M241.99,96.88 L232.37,95.28" fill="none" stroke="#4d4d66" stroke-width="0.5" stroke-opacity="0.30"/>
  <path d="M232.37,95.28 L223.81,99.97" fill="none" stroke="#4d4d66" stroke-width="0.5" stroke-opacity="0.30"/>
  <path d="M223.81,99.97 L219.65,107.74" fill="none" stroke="#4d4d66" stroke-width="0.5" stroke-opacity="0.30"/>
  <path d="M219.65,107.74 L218.34,118.95" fill="none" stroke="#4d4d66" stroke-width="0.5" stroke-opacity="0.30"/>
  <path d="M323.14,129.96 C323.14,131.34 322.03,132.46 320.64,132.46 C319.26,132.46 318.14,131.34 318.14,129.96 C318.14,128.58 319.26,127.46 320.64,127.46 C322.03,127.46 323.14,128.58 323.14,129.96 Z" fill="#ff0000"/>
  <path d="M333.37,131.23 C333.37,132.61 332.25,133.73 330.87,133.73 C329.49,133.73 328.37,132.61 328.37,131.23 C328.37,129.84 329.49,128.73 330.87,128.73 C332.25,128.73 333.37,129.84 333.37,131.23 Z" fill="#ff3500"/>
  <path d="M330.02,140.31 C330.02,141.69 328.90,142.81 327.52,142.81 C326.14,142.81 325.02,141.69 325.02,140.31 C325.02,138.93 326.14,137.81 327.52,137.81 C328.90,137.81 330.02,138.93 330.02,140.31 Z" fill="#ff6a00"/>
  <path d="M323.00,147.17 C323.00,148.55 321.89,149.67 320.50,149.67 C319.12,149.67 318.00,148.55 318.00,147.17 C318.00,145.79 319.12,144.67 320.50,144.67 C321.89,144.67 323.00,145.79 323.00,147.17 Z" fill="#ff9e00"/>
  <path d="M313.82,150.75 C313.82,152.14 312.70,153.25 311.32,153.25 C309.94,153.25 308.82,152.14 308.82,150.75 C308.82,149.37 309.94,148.25 311.32,148.25 C312.70,148.25 313.82,149.37 313.82,150.75 Z" fill="#ffd300"/>
  <path d="M302.64,151.21 C302.64,152.59 301.52,153.71 300.14,153.71 C298.76,153.71 297.64,152.59 297.64,151.21 C297.64,149.83 298.76,148.71 300.14,148.71 C301.52,148.71 302.64,149.83 302.64,151.21 Z" fill="#f6ff00"/>
  <path d="M292.67,148.54 C292.67,149.92 291.55,151.04 290.17,151.04 C288.78,151.04 287.67,149.92 287.67,148.54 C287.67,147.16 288.78,146.04 290.17,146.04 C291.55,146.04 292.67,147.16 292.67,148.54 Z" fill="#c1ff00"/>
  <path d="M284.81,142.76 C284.81,144.14 283.69,145.26 282.31,145.26 C280.93,145.26 279.81,144.14 279.81,142.76 C279.81,141.38 280.93,140.26 282.31,140.26 C283.69,140.26 284.81,141.38 284.81,142.76 Z" fill="#8dff00"/>
  <path d="M279.75,134.80 C279.75,136.18 278.63,137.30 277.25,137.30 C275.86,137.30 274.75,136.18 274.75,134.80 C274.75,133.42 275.86,132.30 277.25,132.30 C278.63,132.30 279.75,133.42 279.75,134.80 Z" fill="#58ff00"/>
  <path d="M277.29,124.63 C277.29,126.01 276.17,127.13 274.79,127.13 C273.41,127.13 272.29,126.01 272.29,124.63 C272.29,123.25 273.41,122.13 274.79,122.13 C276.17,122.13 277.29,123.25 277.29,124.63 Z" fill="#23ff00"/>
  <path d="M277.42,112.90 C277.42,114.28 276.30,115.40 274.92,115.40 C273.53,115.40 272.42,114.28 272.42,112.90 C272.42,111.52 273.53,110.40 274.92,110.40 C276.30,110.40 277.42,111.52 277.42,112.90 Z" fill="#00ff12"/>
  <path d="M280.04,102.88 C280.04,104.26 278.92,105.38 277.54,105.38 C276.16,105.38 275.04,104.26 275.04,102.88 C275.04,101.50 276.16,100.38 277.54,100.38 C278.92,100.38 280.04,101.50 280.04,102.88 Z" fill="#00ff46"/>
  <path d="M285.14,95.01 C285.14,96.40 284.02,97.51 282.64,97.51 C281.26,97.51 280.14,96.40 280.14,95.01 C280.14,93.63 281.26,92.51 282.64,92.51 C284.02,92.51 285.14,93.63 285.14,95.01 Z" fill="#00ff7b"/>
  <path d="M293.20,89.07 C293.20,90.45 292.08,91.57 290.70,91.57 C289.32,91.57 288.20,90.45 288.20,89.07 C288.20,87.69 289.32,86.57 290.70,86.57 C292.08,86.57 293.20,87.69 293.20,89.07 Z" fill="#00ffb0"/>
  <path d="M303.13,86.49 C303.13,87.87 302.01,88.99 300.63,88.99 C299.25,88.99 298.13,87.87 298.13,86.49 C298.13,85.11 299.25,83.99 300.63,83.99 C302.01,83.99 303.13,85.11 303.13,86.49 Z" fill="#00ffe5"/>
  <path d="M313.87,87.30 C313.87,88.68 312.75,89.80 311.37,89.80 C309.99,89.80 308.87,88.68 308.87,87.30 C308.87,85.92 309.99,84.80 311.37,84.80 C312.75,84.80 313.87,85.92 313.87,87.30 Z" fill="#00e5ff"/>
  <path d="M322.86,91.60 C322.86,92.98 321.74,94.10 320.36,94.10 C318.98,94.10 317.86,92.98 317.86,91.60 C317.86,90.21 318.98,89.10 320.36,89.10 C321.74,89.10 322.86,90.21 322.86,91.60 Z" fill="#00b0ff"/>
  <path d="M329.45,98.72 C329.45,100.10 328.33,101.22 326.95,101.22 C325.57,101.22 324.45,100.10 324.45,98.72 C324.45,97.34 325.57,96.22 326.95,96.22 C328.33,96.22 329.45,97.34 329.45,98.72 Z" fill="#007bff"/>
  <path d="M333.18,107.77 C333.18,109.15 332.06,110.27 330.68,110.27 C329.30,110.27 328.18,109.15 328.18,107.77 C328.18,106.39 329.30,105.27 330.68,105.27 C332.06,105.27 333.18,106.39 333.18,107.77 Z" fill="#0046ff"/>
  <path d="M334.39,118.91 C334.39,120.30 333.27,121.41 331.89,121.41 C330.51,121.41 329.39,120.30 329.39,118.91 C329.39,117.53 330.51,116.41 331.89,116.41 C333.27,116.41 334.39,117.53 334.39,118.91 Z" fill="#0012ff"/>
  <path d="M326.64,121.58 C326.64,122.96 325.52,124.08 324.14,124.08 C322.75,124.08 321.64,122.96 321.64,121.58 C321.64,120.20 322.75,119.08 324.14,119.08 C325.52,119.08 326.64,120.20 326.64,121.58 Z" fill="#2300ff"/>
  <path d="M316.33,121.58 C316.33,122.96 315.21,124.08 313.83,124.08 C312.45,124.08 311.33,122.96 311.33,121.58 C311.33,120.20 312.45,119.08 313.83,119.08 C315.21,119.08 316.33,120.20 316.33,121.58 Z" fill="#5800ff"/>
  <path d="M306.03,121.58 C306.03,122.96 304.91,124.08 303.53,124.08 C302.15,124.08 301.03,122.96 301.03,121.58 C301.03,120.20 302.15,119.08 303.53,119.08 C304.91,119.08 306.03,120.20 306.03,121.58 Z" fill="#8d00ff"/>
  <path d="M295.72,121.58 C295.72,122.96 294.60,124.08 293.22,124.08 C291.84,124.08 290.72,122.96 290.72,121.58 C290.72,120.20 291.84,119.08 293.22,119.08 C294.60,119.08 295.72,120.20 295.72,121.58 Z" fill="#c100ff"/>
  <path d="M288.20,124.49 C288.20,125.87 287.08,126.99 285.70,126.99 C284.32,126.99 283.20,125.87 283.20,124.49 C283.20,123.11 284.32,121.99 285.70,121.99 C287.08,121.99 288.20,123.11 288.20,124.49 Z" fill="#f600ff"/>
  <path d="M291.41,134.25 C291.41,135.63 290.29,136.75 288.91,136.75 C287.53,136.75 286.41,135.63 286.41,134.25 C286.41,132.87 287.53,131.75 288.91,131.75 C290.29,131.75 291.41,132.87 291.41,134.25 Z" fill="#ff00d3"/>
  <path d="M298.50,140.87 C298.50,142.25 297.38,143.37 296.00,143.37 C294.62,143.37 293.50,142.25 293.50,140.87 C293.50,139.49 294.62,138.37 296.00,138.37 C297.38,138.37 298.50,139.49 298.50,140.87 Z" fill="#ff009e"/>
  <path d="M308.67,142.65 C308.67,144.03 307.56,145.15 306.17,145.15 C304.79,145.15 303.67,144.03 303.67,142.65 C303.67,141.26 304.79,140.15 306.17,140.15 C307.56,140.15 308.67,141.26 308.67,142.65 Z" fill="#ff006a"/>
  <path d="M317.69,138.82 C317.69,140.20 316.57,141.32 315.19,141.32 C313.81,141.32 312.69,140.20 312.69,138.82 C312.69,137.44 313.81,136.32 315.19,136.32 C316.57,136.32 317.69,137.44 317.69,138.82 Z" fill="#ff0035"/>
  <path d="M320.64,129.96 L330.87,131.23" fill="none" stroke="#4d4d66" stroke-width="0.5" stroke-opacity="0.30"/>
  <path d="M330.87,131.23 L327.52,140.31" fill="none" stroke="#4d4d66" stroke-width="0.5" stroke-opacity="0.30"/>
  <path d="M327.52,140.31 L320.50,147.17" fill="none" stroke="#4d4d66" stroke-width="0.5" stroke-opacity="0.30"/>
  <path d="M320.50,147.17 L311.32,150.75" fill="none" stroke="#4d4d66" stroke-width="0.5" stroke-opacity="0.30"/>
  <path d="M311.32,150.75 L300.14,151.21" fill="none" stroke="#4d4d66" stroke-width="0.5" stroke-opacity="0.30"/>
  <path d="M300.14,151.21 L290.17,148.54" fill="none" stroke="#4d4d66" stroke-width="0.5" stroke-opacity="0.30"/>
  <path d="M290.17,148.54 L282.31,142.76" fill="none" stroke="#4d4d66" stroke-width="0.5" stroke-opacity="0.30"/>
  <path d="M282.31,142.76 L277.25,134.80" fill="none" stroke="#4d4d66" stroke-width="0.5" stroke-opacity="0.30"/>
  <path d="M277.25,134.80 L274.79,124.63" fill="none" stroke="#4d4d66" stroke-width="0.5" stroke-opacity="0.30"/>
  <path d="M274.79,124.63 L274.92,112.90" fill="none" stroke="#4d4d66" stroke-width="0.5" stroke-opacity="0.30"/>
  <path d="M274.92,112.90 L277.54,102.88" fill="none" stroke="#4d4d66" stroke-width="0.5" stroke-opacity="0.30"/>
  <path d="M277.54,102.88 L282.64,95.01" fill="none" stroke="#4d4d66" stroke-width="0.5" stroke-opacity="0.30"/>
  <path d="M282.64,95.01 L290.70,89.07" fill="none" stroke="#4d4d66" stroke-width="0.5" stroke-opacity="0.30"/>
  <path d="M290.70,89.07 L300.63,86.49" fill="none" stroke="#4d4d66" stroke-width="0.5" stroke-opacity="0.30"/>
  <path d="M300.63,86.49 L311.37,87.30" fill="none" stroke="#4d4d66" stroke-width="0.5" stroke-opacity="0.30"/>
  <path d="M311.37,87.30 L320.36,91.60" fill="none" stroke="#4d4d66" stroke-width="0.5" stroke-opacity="0.30"/>
  <path d="M320.36,91.60 L326.95,98.72" fill="none" stroke="#4d4d66" stroke-width="0.5" stroke-opacity="0.30"/>
  <path d="M326.95,98.72 L330.68,107.77" fill="none" stroke="#4d4d66" stroke-width="0.5" stroke-opacity="0.30"/>
  <path d="M330.68,107.77 L331.89,118.91" fill="none" stroke="#4d4d66" stroke-width="0.5" stroke-opacity="0.30"/>
  <path d="M331.89,118.91 L324.14,121.58" fill="none" stroke="#4d4d66" stroke-width="0.5" stroke-opacity="0.30"/>
  <path d="M324.14,121.58 L313.83,121.58" fill="none" stroke="#4d4d66" stroke-width="0.5" stroke-opacity="0.30"/>
  <path d="M313.83,121.58 L303.53,121.58" fill="none" stroke="#4d4d66" stroke-width="0.5" stroke-opacity="0.30"/>
  <path d="M303.53,121.58 L293.22,121.58" fill="none" stroke="#4d4d66" stroke-width="0.5" stroke-opacity="0.30"/>
  <path d="M293.22,121.58 L285.70,124.49" fill="none" stroke="#4d4d66" stroke-width="0.5" stroke-opacity="0.30"/>
  <path d="M285.70,124.49 L288.91,134.25" fill="none" stroke="#4d4d66" stroke-width="0.5" stroke-opacity="0.30"/>
  <path d="M288.91,134.25 L296.00,140.87" fill="none" stroke="#4d4d66" stroke-width="0.5" stroke-opacity="0.30"/>
  <path d="M296.00,140.87 L306.17,142.65" fill="none" stroke="#4d4d66" stroke-width="0.5" stroke-opacity="0.30"/>
  <path d="M306.17,142.65 L315.19,138.82" fill="none" stroke="#4d4d66" stroke-width="0.5" stroke-opacity="0.30"/>
  <path d="M315.19,138.82 L320.64,129.96" fill="none" stroke="#4d4d66" stroke-width="0.5" stroke-opacity="0.30"/>
  <path d="M288.52,112.91 C288.52,114.29 287.40,115.41 286.02,115.41 C284.63,115.41 283.52,114.29 283.52,112.91 C283.52,111.53 284.63,110.41 286.02,110.41 C287.40,110.41 288.52,111.53 288.52,112.91 Z" fill="#ff0000"/>
  <path d="M298.54,112.91 C298.54,114.29 297.42,115.41 296.04,115.41 C294.66,115.41 293.54,114.29 293.54,112.91 C293.54,111.53 294.66,110.41 296.04,110.41 C297.42,110.41 298.54,111.53 298.54,112.91 Z" fill="#ffaa00"/>
  <path d="M308.57,112.91 C308.57,114.29 307.45,115.41 306.07,115.41 C304.69,115.41 303.57,114.29 303.57,112.91 C303.57,111.53 304.69,110.41 306.07,110.41 C307.45,110.41 308.57,111.53 308.57,112.91 Z" fill="#aaff00"/>
  <path d="M318.60,112.91 C318.60,114.29 317.48,115.41 316.10,115.41 C314.72,115.41 313.60,114.29 313.60,112.91 C313.60,111.53 314.72,110.41 316.10,110.41 C317.48,110.41 318.60,111.53 318.60,112.91 Z" fill="#00ff00"/>
  <path d="M322.20,106.94 C322.20,108.32 321.08,109.44 319.70,109.44 C318.32,109.44 317.20,108.32 317.20,106.94 C317.20,105.56 318.32,104.44 319.70,104.44 C321.08,104.44 322.20,105.56 322.20,106.94 Z" fill="#00ffaa"/>
  <path d="M317.30,99.08 C317.30,100.46 316.18,101.58 314.80,101.58 C313.42,101.58 312.30,100.46 312.30,99.08 C312.30,97.70 313.42,96.58 314.80,96.58 C316.18,96.58 317.30,97.70 317.30,99.08 Z" fill="#00aaff"/>
  <path d="M308.44,95.16 C308.44,96.54 307.32,97.66 305.94,97.66 C304.56,97.66 303.44,96.54 303.44,95.16 C303.44,93.78 304.56,92.66 305.94,92.66 C307.32,92.66 308.44,93.78 308.44,95.16 Z" fill="#0000ff"/>
  <path d="M298.51,96.70 C298.51,98.08 297.39,99.20 296.01,99.20 C294.63,99.20 293.51,98.08 293.51,96.70 C293.51,95.32 294.63,94.20 296.01,94.20 C297.39,94.20 298.51,95.32 298.51,96.70 Z" fill="#aa00ff"/>
  <path d="M291.38,103.18 C291.38,104.56 290.26,105.68 288.88,105.68 C287.50,105.68 286.38,104.56 286.38,103.18 C286.38,101.80 287.50,100.68 288.88,100.68 C290.26,100.68 291.38,101.80 291.38,103.18 Z" fill="#ff00aa"/>
  <path d="M286.02,112.91 L296.04,112.91" fill="none" stroke="#4d4d66" stroke-width="0.5" stroke-opacity="0.30"/>
  <path d="M296.04,112.91 L306.07,112.91" fill="none" stroke="#4d4d66" stroke-width="0.5" stroke-opacity="0.30"/>
  <path d="M306.07,112.91 L316.10,112.91" fill="none" stroke="#4d4d66" stroke-width="0.5" stroke-opacity="0.30"/>
  <path d="M316.10,112.91 L319.70,106.94" fill="none" stroke="#4d4d66" stroke-width="0.5" stroke-opacity="0.30"/>
  <path d="M319.70,106.94 L314.80,99.08" fill="none" stroke="#4d4d66" stroke-width="0.5" stroke-opacity="0.30"/>
  <path d="M314.80,99.08 L305.94,95.16" fill="none" stroke="#4d4d66" stroke-width="0.5" stroke-opacity="0.30"/>
  <path d="M305.94,95.16 L296.01,96.70" fill="none" stroke="#4d4d66" stroke-width="0.5" stroke-opacity="0.30"/>
  <path d="M296.01,96.70 L288.88,103.18" fill="none" stroke="#4d4d66" stroke-width="0.5" stroke-opacity="0.30"/>
  <path d="M288.88,103.18 L286.02,112.91" fill="none" stroke="#4d4d66" stroke-width="0.5" stroke-opacity="0.30"/>
  <path d="M348.16,150.00 C348.16,151.38 347.04,152.50 345.66,152.50 C344.28,152.50 343.16,151.38 343.16,150.00 C343.16,148.62 344.28,147.50 345.66,147.50 C347.04,147.50 348.16,148.62 348.16,150.00 Z" fill="#ff0000"/>
  <path d="M348.16,139.67 C348.16,141.05 347.04,142.17 345.66,142.17 C344.28,142.17 343.16,141.05 343.16,139.67 C343.16,138.29 344.28,137.17 345.66,137.17 C347.04,137.17 348.16,138.29 348.16,139.67 Z" fill="#ff3700"/>
  <path d="M348.16,129.34 C348.16,130.72 347.04,131.84 345.66,131.84 C344.28,131.84 343.16,130.72 343.16,129.34 C343.16,127.96 344.28,126.84 345.66,126.84 C347.04,126.84 348.16,127.96 348.16,129.34 Z" fill="#ff6d00"/>
  <path d="M348.16,119.01 C348.16,120.39 347.04,121.51 345.66,121.51 C344.28,121.51 343.16,120.39 343.16,119.01 C343.16,117.63 344.28,116.51 345.66,116.51 C347.04,116.51 348.16,117.63 348.16,119.01 Z" fill="#ffa400"/>
  <path d="M348.16,108.68 C348.16,110.06 347.04,111.18 345.66,111.18 C344.28,111.18 343.16,110.06 343.16,108.68 C343.16,107.30 344.28,106.18 345.66,106.18 C347.04,106.18 348.16,107.30 348.16,108.68 Z" fill="#ffdb00"/>
  <path d="M348.16,98.35 C348.16,99.73 347.04,100.85 345.66,100.85 C344.28,100.85 343.16,99.73 343.16,98.35 C343.16,96.97 344.28,95.85 345.66,95.85 C347.04,95.85 348.16,96.97 348.16,98.35 Z" fill="#edff00"/>
  <path d="M348.16,88.02 C348.16,89.40 347.04,90.52 345.66,90.52 C344.28,90.52 343.16,89.40 343.16,88.02 C343.16,86.64 344.28,85.52 345.66,85.52 C347.04,85.52 348.16,86.64 348.16,88.02 Z" fill="#b6ff00"/>
  <path d="M348.16,77.69 C348.16,79.07 347.04,80.19 345.66,80.19 C344.28,80.19 343.16,79.07 343.16,77.69 C343.16,76.31 344.28,75.19 345.66,75.19 C347.04,75.19 348.16,76.31 348.16,77.69 Z" fill="#80ff00"/>
  <path d="M348.16,67.36 C348.16,68.74 347.04,69.86 345.66,69.86 C344.28,69.86 343.16,68.74 343.16,67.36 C343.16,65.98 344.28,64.86 345.66,64.86 C347.04,64.86 348.16,65.98 348.16,67.36 Z" fill="#49ff00"/>
  <path d="M355.23,64.10 C355.23,65.48 354.11,66.60 352.73,66.60 C351.35,66.60 350.23,65.48 350.23,64.10 C350.23,62.72 351.35,61.60 352.73,61.60 C354.11,61.60 355.23,62.72 355.23,64.10 Z" fill="#12ff00"/>
  <path d="M365.56,64.10 C365.56,65.48 364.44,66.60 363.06,66.60 C361.68,66.60 360.56,65.48 360.56,64.10 C360.56,62.72 361.68,61.60 363.06,61.60 C364.44,61.60 365.56,62.72 365.56,64.10 Z" fill="#00ff24"/>
  <path d="M375.89,64.10 C375.89,65.48 374.77,66.60 373.39,66.60 C372.01,66.60 370.89,65.48 370.89,64.10 C370.89,62.72 372.01,61.60 373.39,61.60 C374.77,61.60 375.89,62.72 375.89,64.10 Z" fill="#00ff5b"/>
  <path d="M387.00,64.44 C387.00,65.82 385.88,66.94 384.50,66.94 C383.12,66.94 382.00,65.82 382.00,64.44 C382.00,63.06 383.12,61.94 384.50,61.94 C385.88,61.94 387.00,63.06 387.00,64.44 Z" fill="#00ff92"/>
  <path d="M396.22,66.73 C396.22,68.11 395.11,69.23 393.72,69.23 C392.34,69.23 391.22,68.11 391.22,66.73 C391.22,65.35 392.34,64.23 393.72,64.23 C395.11,64.23 396.22,65.35 396.22,66.73 Z" fill="#00ffc8"/>
  <path d="M404.28,72.98 C404.28,74.36 403.16,75.48 401.78,75.48 C400.40,75.48 399.28,74.36 399.28,72.98 C399.28,71.60 400.40,70.48 401.78,70.48 C403.16,70.48 404.28,71.60 404.28,72.98 Z" fill="#00ffff"/>
  <path d="M408.53,82.40 C408.53,83.78 407.41,84.90 406.03,84.90 C404.65,84.90 403.53,83.78 403.53,82.40 C403.53,81.02 404.65,79.90 406.03,79.90 C407.41,79.90 408.53,81.02 408.53,82.40 Z" fill="#00c8ff"/>
  <path d="M407.79,92.45 C407.79,93.83 406.67,94.95 405.29,94.95 C403.91,94.95 402.79,93.83 402.79,92.45 C402.79,91.07 403.91,89.95 405.29,89.95 C406.67,89.95 407.79,91.07 407.79,92.45 Z" fill="#0092ff"/>
  <path d="M402.21,100.77 C402.21,102.15 401.09,103.27 399.71,103.27 C398.33,103.27 397.21,102.15 397.21,100.77 C397.21,99.39 398.33,98.27 399.71,98.27 C401.09,98.27 402.21,99.39 402.21,100.77 Z" fill="#005bff"/>
  <path d="M401.02,105.87 C401.02,107.25 399.90,108.37 398.52,108.37 C397.14,108.37 396.02,107.25 396.02,105.87 C396.02,104.49 397.14,103.37 398.52,103.37 C399.90,103.37 401.02,104.49 401.02,105.87 Z" fill="#0024ff"/>
  <path d="M408.81,112.05 C408.81,113.43 407.69,114.55 406.31,114.55 C404.92,114.55 403.81,113.43 403.81,112.05 C403.81,110.67 404.92,109.55 406.31,109.55 C407.69,109.55 408.81,110.67 408.81,112.05 Z" fill="#1200ff"/>
  <path d="M412.74,121.31 C412.74,122.69 411.62,123.81 410.24,123.81 C408.86,123.81 407.74,122.69 407.74,121.31 C407.74,119.93 408.86,118.81 410.24,118.81 C411.62,118.81 412.74,119.93 412.74,121.31 Z" fill="#4900ff"/>
  <path d="M412.18,131.77 C412.18,133.15 411.06,134.27 409.68,134.27 C408.30,134.27 407.18,133.15 407.18,131.77 C407.18,130.38 408.30,129.27 409.68,129.27 C411.06,129.27 412.18,130.38 412.18,131.77 Z" fill="#8000ff"/>
  <path d="M407.46,141.12 C407.46,142.50 406.35,143.62 404.96,143.62 C403.58,143.62 402.46,142.50 402.46,141.12 C402.46,139.74 403.58,138.62 404.96,138.62 C406.35,138.62 407.46,139.74 407.46,141.12 Z" fill="#b600ff"/>
  <path d="M399.71,146.89 C399.71,148.27 398.59,149.39 397.21,149.39 C395.83,149.39 394.71,148.27 394.71,146.89 C394.71,145.51 395.83,144.39 397.21,144.39 C398.59,144.39 399.71,145.51 399.71,146.89 Z" fill="#ed00ff"/>
  <path d="M390.02,149.46 C390.02,150.84 388.90,151.96 387.52,151.96 C386.14,151.96 385.02,150.84 385.02,149.46 C385.02,148.08 386.14,146.96 387.52,146.96 C388.90,146.96 390.02,148.08 390.02,149.46 Z" fill="#ff00db"/>
  <path d="M379.15,150.00 C379.15,151.38 378.03,152.50 376.65,152.50 C375.27,152.50 374.15,151.38 374.15,150.00 C374.15,148.62 375.27,147.50 376.65,147.50 C378.03,147.50 379.15,148.62 379.15,150.00 Z" fill="#ff00a4"/>
  <path d="M368.82,150.00 C368.82,151.38 367.70,152.50 366.32,152.50 C364.94,152.50 363.82,151.38 363.82,150.00 C363.82,148.62 364.94,147.50 366.32,147.50 C367.70,147.50 368.82,148.62 368.82,150.00 Z" fill="#ff006d"/>
  <path d="M358.49,150.00 C358.49,151.38 357.37,152.50 355.99,152.50 C354.61,152.50 353.49,151.38 353.49,150.00 C353.49,148.62 354.61,147.50 355.99,147.50 C357.37,147.50 358.49,148.62 358.49,150.00 Z" fill="#ff0037"/>
  <path d="M345.66,150.00 L345.66,139.67" fill="none" stroke="#4d4d66" stroke-width="0.5" stroke-opacity="0.30"/>
  <path d="M345.66,139.67 L345.66,129.34" fill="none" stroke="#4d4d66" stroke-width="0.5" stroke-opacity="0.30"/>
  <path d="M345.66,129.34 L345.66,119.01" fill="none" stroke="#4d4d66" stroke-width="0.5" stroke-opacity="0.30"/>
  <path d="M345.66,119.01 L345.66,108.68" fill="none" stroke="#4d4d66" stroke-width="0.5" stroke-opacity="0.30"/>
  <path d="M345.66,108.68 L345.66,98.35" fill="none" stroke="#4d4d66" stroke-width="0.5" stroke-opacity="0.30"/>
  <path d="M345.66,98.35 L345.66,88.02" fill="none" stroke="#4d4d66" stroke-width="0.5" stroke-opacity="0.30"/>
  <path d="M345.66,88.02 L345.66,77.69" fill="none" stroke="#4d4d66" stroke-width="0.5" stroke-opacity="0.30"/>
  <path d="M345.66,77.69 L345.66,67.36" fill="none" stroke="#4d4d66" stroke-width="0.5" stroke-opacity="0.30"/>
  <path d="M345.66,67.36 L352.73,64.10" fill="none" stroke="#4d4d66" stroke-width="0.5" stroke-opacity="0.30"/>
  <path d="M352.73,64.10 L363.06,64.10" fill="none" stroke="#4d4d66" stroke-width="0.5" stroke-opacity="0.30"/>
  <path d="M363.06,64.10 L373.39,64.10" fill="none" stroke="#4d4d66" stroke-width="0.5" stroke-opacity="0.30"/>
  <path d="M373.39,64.10 L384.50,64.44" fill="none" stroke="#4d4d66" stroke-width="0.5" stroke-opacity="0.30"/>
  <path d="M384.50,64.44 L393.72,66.73" fill="none" stroke="#4d4d66" stroke-width="0.5" stroke-opacity="0.30"/>
  <path d="M393.72,66.73 L401.78,72.98" fill="none" stroke="#4d4d66" stroke-width="0.5" stroke-opacity="0.30"/>
  <path d="M401.78,72.98 L406.03,82.40" fill="none" stroke="#4d4d66" stroke-width="0.5" stroke-opacity="0.30"/>
  <path d="M406.03,82.40 L405.29,92.45" fill="none" stroke="#4d4d66" stroke-width="0.5" stroke-opacity="0.30"/>
  <path d="M405.29,92.45 L399.71,100.77" fill="none" stroke="#4d4d66" stroke-width="0.5" stroke-opacity="0.30"/>
  <path d="M399.71,100.77 L398.52,105.87" fill="none" stroke="#4d4d66" stroke-width="0.5" stroke-opacity="0.30"/>
  <path d="M398.52,105.87 L406.31,112.05" fill="none" stroke="#4d4d66" stroke-width="0.5" stroke-opacity="0.30"/>
  <path d="M406.31,112.05 L410.24,121.31" fill="none" stroke="#4d4d66" stroke-width="0.5" stroke-opacity="0.30"/>
  <path d="M410.24,121.31 L409.68,131.77" fill="none" stroke="#4d4d66" stroke-width="0.5" stroke-opacity="0.30"/>
  <path d="M409.68,131.77 L404.96,141.12" fill="none" stroke="#4d4d66" stroke-width="0.5" stroke-opacity="0.30"/>
  <path d="M404.96,141.12 L397.21,146.89" fill="none" stroke="#4d4d66" stroke-width="0.5" stroke-opacity="0.30"/>
  <path d="M397.21,146.89 L387.52,149.46" fill="none" stroke="#4d4d66" stroke-width="0.5" stroke-opacity="0.30"/>
  <path d="M387.52,149.46 L376.65,150.00" fill="none" stroke="#4d4d66" stroke-width="0.5" stroke-opacity="0.30"/>
  <path d="M376.65,150.00 L366.32,150.00" fill="none" stroke="#4d4d66" stroke-width="0.5" stroke-opacity="0.30"/>
  <path d="M366.32,150.00 L355.99,150.00" fill="none" stroke="#4d4d66" stroke-width="0.5" stroke-opacity="0.30"/>
  <path d="M355.99,150.00 L345.66,150.00" fill="none" stroke="#4d4d66" stroke-width="0.5" stroke-opacity="0.30"/>
  <path d="M359.53,100.20 C359.53,101.58 358.41,102.70 357.03,102.70 C355.65,102.70 354.53,101.58 354.53,100.20 C354.53,98.81 355.65,97.70 357.03,97.70 C358.41,97.70 359.53,98.81 359.53,100.20 Z" fill="#ff0000"/>
  <path d="M370.18,100.20 C370.18,101.58 369.06,102.70 367.68,102.70 C366.30,102.70 365.18,101.58 365.18,100.20 C365.18,98.81 366.30,97.70 367.68,97.70 C369.06,97.70 370.18,98.81 370.18,100.20 Z" fill="#ff8b00"/>
  <path d="M381.60,100.13 C381.60,101.51 380.49,102.63 379.10,102.63 C377.72,102.63 376.60,101.51 376.60,100.13 C376.60,98.75 377.72,97.63 379.10,97.63 C380.49,97.63 381.60,98.75 381.60,100.13 Z" fill="#e8ff00"/>
  <path d="M391.41,98.24 C391.41,99.63 390.29,100.74 388.91,100.74 C387.53,100.74 386.41,99.63 386.41,98.24 C386.41,96.86 387.53,95.74 388.91,95.74 C390.29,95.74 391.41,96.86 391.41,98.24 Z" fill="#5dff00"/>
  <path d="M397.40,90.42 C397.40,91.80 396.28,92.92 394.90,92.92 C393.52,92.92 392.40,91.80 392.40,90.42 C392.40,89.04 393.52,87.92 394.90,87.92 C396.28,87.92 397.40,89.04 397.40,90.42 Z" fill="#00ff2e"/>
  <path d="M395.66,79.95 C395.66,81.33 394.54,82.45 393.16,82.45 C391.78,82.45 390.66,81.33 390.66,79.95 C390.66,78.57 391.78,77.45 393.16,77.45 C394.54,77.45 395.66,78.57 395.66,79.95 Z" fill="#00ffb9"/>
  <path d="M387.70,74.95 C387.70,76.33 386.59,77.45 385.20,77.45 C383.82,77.45 382.70,76.33 382.70,74.95 C382.70,73.57 383.82,72.45 385.20,72.45 C386.59,72.45 387.70,73.57 387.70,74.95 Z" fill="#00b9ff"/>
  <path d="M376.16,74.24 C376.16,75.62 375.04,76.74 373.66,76.74 C372.28,76.74 371.16,75.62 371.16,74.24 C371.16,72.86 372.28,71.74 373.66,71.74 C375.04,71.74 376.16,72.86 376.16,74.24 Z" fill="#002eff"/>
  <path d="M365.51,74.24 C365.51,75.62 364.39,76.74 363.01,76.74 C361.63,76.74 360.51,75.62 360.51,74.24 C360.51,72.86 361.63,71.74 363.01,71.74 C364.39,71.74 365.51,72.86 365.51,74.24 Z" fill="#5d00ff"/>
  <path d="M359.53,78.90 C359.53,80.28 358.41,81.40 357.03,81.40 C355.65,81.40 354.53,80.28 354.53,78.90 C354.53,77.52 355.65,76.40 357.03,76.40 C358.41,76.40 359.53,77.52 359.53,78.90 Z" fill="#e800ff"/>
  <path d="M359.53,89.55 C359.53,90.93 358.41,92.05 357.03,92.05 C355.65,92.05 354.53,90.93 354.53,89.55 C354.53,88.17 355.65,87.05 357.03,87.05 C358.41,87.05 359.53,88.17 359.53,89.55 Z" fill="#ff008b"/>
  <path d="M357.03,100.20 L367.68,100.20" fill="none" stroke="#4d4d66" stroke-width="0.5" stroke-opacity="0.30"/>
  <path d="M367.68,100.20 L379.10,100.13" fill="none" stroke="#4d4d66" stroke-width="0.5" stroke-opacity="0.30"/>
  <path d="M379.10,100.13 L388.91,98.24" fill="none" stroke="#4d4d66" stroke-width="0.5" stroke-opacity="0.30"/>
  <path d="M388.91,98.24 L394.90,90.42" fill="none" stroke="#4d4d66" stroke-width="0.5" stroke-opacity="0.30"/>
  <path d="M394.90,90.42 L393.16,79.95" fill="none" stroke="#4d4d66" stroke-width="0.5" stroke-opacity="0.30"/>
  <path d="M393.16,79.95 L385.20,74.95" fill="none" stroke="#4d4d66" stroke-width="0.5" stroke-opacity="0.30"/>
  <path d="M385.20,74.95 L373.66,74.24" fill="none" stroke="#4d4d66" stroke-width="0.5" stroke-opacity="0.30"/>
  <path d="M373.66,74.24 L363.01,74.24" fill="none" stroke="#4d4d66" stroke-width="0.5" stroke-opacity="0.30"/>
  <path d="M363.01,74.24 L357.03,78.90" fill="none" stroke="#4d4d66" stroke-width="0.5" stroke-opacity="0.30"/>
  <path d="M357.03,78.90 L357.03,89.55" fill="none" stroke="#4d4d66" stroke-width="0.5" stroke-opacity="0.30"/>
  <path d="M357.03,89.55 L357.03,100.20" fill="none" stroke="#4d4d66" stroke-width="0.5" stroke-opacity="0.30"/>
  <path d="M359.53,139.86 C359.53,141.24 358.41,142.36 357.03,142.36 C355.65,142.36 354.53,141.24 354.53,139.86 C354.53,138.48 355.65,137.36 357.03,137.36 C358.41,137.36 359.53,138.48 359.53,139.86 Z" fill="#ff0000"/>
  <path d="M370.34,139.86 C370.34,141.24 369.22,142.36 367.84,142.36 C366.46,142.36 365.34,141.24 365.34,139.86 C365.34,138.48 366.46,137.36 367.84,137.36 C369.22,137.36 370.34,138.48 370.34,139.86 Z" fill="#ff8000"/>
  <path d="M381.25,139.86 C381.25,141.24 380.13,142.36 378.75,142.36 C377.37,142.36 376.25,141.24 376.25,139.86 C376.25,138.48 377.37,137.36 378.75,137.36 C380.13,137.36 381.25,138.48 381.25,139.86 Z" fill="#ffff00"/>
  <path d="M392.05,138.59 C392.05,139.97 390.94,141.09 389.55,141.09 C388.17,141.09 387.05,139.97 387.05,138.59 C387.05,137.21 388.17,136.09 389.55,136.09 C390.94,136.09 392.05,137.21 392.05,138.59 Z" fill="#80ff00"/>
  <path d="M399.80,131.85 C399.80,133.24 398.68,134.35 397.30,134.35 C395.92,134.35 394.80,133.24 394.80,131.85 C394.80,130.47 395.92,129.35 397.30,129.35 C398.68,129.35 399.80,130.47 399.80,131.85 Z" fill="#00ff00"/>
  <path d="M400.78,121.14 C400.78,122.52 399.66,123.64 398.28,123.64 C396.90,123.64 395.78,122.52 395.78,121.14 C395.78,119.76 396.90,118.64 398.28,118.64 C399.66,118.64 400.78,119.76 400.78,121.14 Z" fill="#00ff80"/>
  <path d="M394.58,112.91 C394.58,114.29 393.46,115.41 392.08,115.41 C390.70,115.41 389.58,114.29 389.58,112.91 C389.58,111.53 390.70,110.41 392.08,110.41 C393.46,110.41 394.58,111.53 394.58,112.91 Z" fill="#00ffff"/>
  <path d="M384.90,110.53 C384.90,111.91 383.78,113.03 382.40,113.03 C381.02,113.03 379.90,111.91 379.90,110.53 C379.90,109.14 381.02,108.03 382.40,108.03 C383.78,108.03 384.90,109.14 384.90,110.53 Z" fill="#0080ff"/>
  <path d="M373.24,110.33 C373.24,111.71 372.12,112.83 370.74,112.83 C369.36,112.83 368.24,111.71 368.24,110.33 C368.24,108.95 369.36,107.83 370.74,107.83 C372.12,107.83 373.24,108.95 373.24,110.33 Z" fill="#0000ff"/>
  <path d="M362.43,110.33 C362.43,111.71 361.31,112.83 359.93,112.83 C358.55,112.83 357.43,111.71 357.43,110.33 C357.43,108.95 358.55,107.83 359.93,107.83 C361.31,107.83 362.43,108.95 362.43,110.33 Z" fill="#8000ff"/>
  <path d="M359.53,118.24 C359.53,119.62 358.41,120.74 357.03,120.74 C355.65,120.74 354.53,119.62 354.53,118.24 C354.53,116.86 355.65,115.74 357.03,115.74 C358.41,115.74 359.53,116.86 359.53,118.24 Z" fill="#ff00ff"/>
  <path d="M359.53,129.05 C359.53,130.43 358.41,131.55 357.03,131.55 C355.65,131.55 354.53,130.43 354.53,129.05 C354.53,127.67 355.65,126.55 357.03,126.55 C358.41,126.55 359.53,127.67 359.53,129.05 Z" fill="#ff0080"/>
  <path d="M357.03,139.86 L367.84,139.86" fill="none" stroke="#4d4d66" stroke-width="0.5" stroke-opacity="0.30"/>
  <path d="M367.84,139.86 L378.75,139.86" fill="none" stroke="#4d4d66" stroke-width="0.5" stroke-opacity="0.30"/>
  <path d="M378.75,139.86 L389.55,138.59" fill="none" stroke="#4d4d66" stroke-width="0.5" stroke-opacity="0.30"/>
  <path d="M389.55,138.59 L397.30,131.85" fill="none" stroke="#4d4d66" stroke-width="0.5" stroke-opacity="0.30"/>
  <path d="M397.30,131.85 L398.28,121.14" fill="none" stroke="#4d4d66" stroke-width="0.5" stroke-opacity="0.30"/>
  <path d="M398.28,121.14 L392.08,112.91" fill="none" stroke="#4d4d66" stroke-width="0.5" stroke-opacity="0.30"/>
  <path d="M392.08,112.91 L382.40,110.53" fill="none" stroke="#4d4d66" stroke-width="0.5" stroke-opacity="0.30"/>
  <path d="M382.40,110.53 L370.74,110.33" fill="none" stroke="#4d4d66" stroke-width="0.5" stroke-opacity="0.30"/>
  <path d="M370.74,110.33 L359.93,110.33" fill="none" stroke="#4d4d66" stroke-width="0.5" stroke-opacity="0.30"/>
  <path d="M359.93,110.33 L357.03,118.24" fill="none" stroke="#4d4d66" stroke-width="0.5" stroke-opacity="0.30"/>
  <path d="M357.03,118.24 L357.03,129.05" fill="none" stroke="#4d4d66" stroke-width="0.5" stroke-opacity="0.30"/>
  <path d="M357.03,129.05 L357.03,139.86" fill="none" stroke="#4d4d66" stroke-width="0.5" stroke-opacity="0.30"/>
  <path d="M423.40,118.89 C423.40,120.27 422.28,121.39 420.90,121.39 C419.52,121.39 418.40,120.27 418.40,118.89 C418.40,117.51 419.52,116.39 420.90,116.39 C422.28,116.39 423.40,117.51 423.40,118.89 Z" fill="#ff0000"/>
  <path d="M424.70,107.36 C424.70,108.74 423.58,109.86 422.20,109.86 C420.82,109.86 419.70,108.74 419.70,107.36 C419.70,105.98 420.82,104.86 422.20,104.86 C423.58,104.86 424.70,105.98 424.70,107.36 Z" fill="#ff5100"/>
  <path d="M428.62,98.27 C428.62,99.65 427.50,100.77 426.12,100.77 C424.74,100.77 423.62,99.65 423.62,98.27 C423.62,96.89 424.74,95.77 426.12,95.77 C427.50,95.77 428.62,96.89 428.62,98.27 Z" fill="#ffa100"/>
  <path d="M435.34,91.47 C435.34,92.85 434.22,93.97 432.84,93.97 C431.46,93.97 430.34,92.85 430.34,91.47 C430.34,90.09 431.46,88.97 432.84,88.97 C434.22,88.97 435.34,90.09 435.34,91.47 Z" fill="#fff200"/>
  <path d="M444.54,87.31 C444.54,88.69 443.42,89.81 442.04,89.81 C440.66,89.81 439.54,88.69 439.54,87.31 C439.54,85.93 440.66,84.81 442.04,84.81 C443.42,84.81 444.54,85.93 444.54,87.31 Z" fill="#bcff00"/>
  <path d="M455.37,86.47 C455.37,87.85 454.25,88.97 452.87,88.97 C451.49,88.97 450.37,87.85 450.37,86.47 C450.37,85.09 451.49,83.97 452.87,83.97 C454.25,83.97 455.37,85.09 455.37,86.47 Z" fill="#6bff00"/>
  <path d="M465.45,88.99 C465.45,90.37 464.33,91.49 462.95,91.49 C461.57,91.49 460.45,90.37 460.45,88.99 C460.45,87.61 461.57,86.49 462.95,86.49 C464.33,86.49 465.45,87.61 465.45,88.99 Z" fill="#1bff00"/>
  <path d="M473.65,94.87 C473.65,96.25 472.53,97.37 471.15,97.37 C469.77,97.37 468.65,96.25 468.65,94.87 C468.65,93.49 469.77,92.37 471.15,92.37 C472.53,92.37 473.65,93.49 473.65,94.87 Z" fill="#00ff36"/>
  <path d="M478.94,102.92 C478.94,104.30 477.82,105.42 476.44,105.42 C475.06,105.42 473.94,104.30 473.94,102.92 C473.94,101.54 475.06,100.42 476.44,100.42 C477.82,100.42 478.94,101.54 478.94,102.92 Z" fill="#00ff86"/>
  <path d="M481.46,113.14 C481.46,114.53 480.34,115.64 478.96,115.64 C477.58,115.64 476.46,114.53 476.46,113.14 C476.46,111.76 477.58,110.64 478.96,110.64 C480.34,110.64 481.46,111.76 481.46,113.14 Z" fill="#00ffd7"/>
  <path d="M481.34,125.06 C481.34,126.44 480.22,127.56 478.84,127.56 C477.46,127.56 476.34,126.44 476.34,125.06 C476.34,123.67 477.46,122.56 478.84,122.56 C480.22,122.56 481.34,123.67 481.34,125.06 Z" fill="#00d7ff"/>
  <path d="M479.09,134.73 C479.09,136.11 477.97,137.23 476.59,137.23 C475.21,137.23 474.09,136.11 474.09,134.73 C474.09,133.35 475.21,132.23 476.59,132.23 C477.97,132.23 479.09,133.35 479.09,134.73 Z" fill="#0086ff"/>
  <path d="M473.74,142.95 C473.74,144.33 472.62,145.45 471.24,145.45 C469.86,145.45 468.74,144.33 468.74,142.95 C468.74,141.57 469.86,140.45 471.24,140.45 C472.62,140.45 473.74,141.57 473.74,142.95 Z" fill="#0036ff"/>
  <path d="M465.19,148.80 C465.19,150.18 464.07,151.30 462.69,151.30 C461.31,151.30 460.19,150.18 460.19,148.80 C460.19,147.42 461.31,146.30 462.69,146.30 C464.07,146.30 465.19,147.42 465.19,148.80 Z" fill="#1b00ff"/>
  <path d="M455.20,151.31 C455.20,152.69 454.08,153.81 452.70,153.81 C451.32,153.81 450.20,152.69 450.20,151.31 C450.20,149.92 451.32,148.81 452.70,148.81 C454.08,148.81 455.20,149.92 455.20,151.31 Z" fill="#6b00ff"/>
  <path d="M444.37,150.46 C444.37,151.84 443.25,152.96 441.87,152.96 C440.49,152.96 439.37,151.84 439.37,150.46 C439.37,149.08 440.49,147.96 441.87,147.96 C443.25,147.96 444.37,149.08 444.37,150.46 Z" fill="#bc00ff"/>
  <path d="M435.23,146.30 C435.23,147.68 434.11,148.80 432.73,148.80 C431.35,148.80 430.23,147.68 430.23,146.30 C430.23,144.92 431.35,143.80 432.73,143.80 C434.11,143.80 435.23,144.92 435.23,146.30 Z" fill="#ff00f2"/>
  <path d="M428.52,139.33 C428.52,140.71 427.40,141.83 426.02,141.83 C424.64,141.83 423.52,140.71 423.52,139.33 C423.52,137.95 424.64,136.83 426.02,136.83 C427.40,136.83 428.52,137.95 428.52,139.33 Z" fill="#ff00a1"/>
  <path d="M424.68,130.28 C424.68,131.67 423.56,132.78 422.18,132.78 C420.80,132.78 419.68,131.67 419.68,130.28 C419.68,128.90 420.80,127.78 422.18,127.78 C423.56,127.78 424.68,128.90 424.68,130.28 Z" fill="#ff0051"/>
  <path d="M420.90,118.89 L422.20,107.36" fill="none" stroke="#4d4d66" stroke-width="0.5" stroke-opacity="0.30"/>
  <path d="M422.20,107.36 L426.12,98.27" fill="none" stroke="#4d4d66" stroke-width="0.5" stroke-opacity="0.30"/>
  <path d="M426.12,98.27 L432.84,91.47" fill="none" stroke="#4d4d66" stroke-width="0.5" stroke-opacity="0.30"/>
  <path d="M432.84,91.47 L442.04,87.31" fill="none" stroke="#4d4d66" stroke-width="0.5" stroke-opacity="0.30"/>
  <path d="M442.04,87.31 L452.87,86.47" fill="none" stroke="#4d4d66" stroke-width="0.5" stroke-opacity="0.30"/>
  <path d="M452.87,86.47 L462.95,88.99" fill="none" stroke="#4d4d66" stroke-width="0.5" stroke-opacity="0.30"/>
  <path d="M462.95,88.99 L471.15,94.87" fill="none" stroke="#4d4d66" stroke-width="0.5" stroke-opacity="0.30"/>
  <path d="M471.15,94.87 L476.44,102.92" fill="none" stroke="#4d4d66" stroke-width="0.5" stroke-opacity="0.30"/>
  <path d="M476.44,102.92 L478.96,113.14" fill="none" stroke="#4d4d66" stroke-width="0.5" stroke-opacity="0.30"/>
  <path d="M478.96,113.14 L478.84,125.06" fill="none" stroke="#4d4d66" stroke-width="0.5" stroke-opacity="0.30"/>
  <path d="M478.84,125.06 L476.59,134.73" fill="none" stroke="#4d4d66" stroke-width="0.5" stroke-opacity="0.30"/>
  <path d="M476.59,134.73 L471.24,142.95" fill="none" stroke="#4d4d66" stroke-width="0.5" stroke-opacity="0.30"/>
  <path d="M471.24,142.95 L462.69,148.80" fill="none" stroke="#4d4d66" stroke-width="0.5" stroke-opacity="0.30"/>
  <path d="M462.69,148.80 L452.70,151.31" fill="none" stroke="#4d4d66" stroke-width="0.5" stroke-opacity="0.30"/>
  <path d="M452.70,151.31 L441.87,150.46" fill="none" stroke="#4d4d66" stroke-width="0.5" stroke-opacity="0.30"/>
  <path d="M441.87,150.46 L432.73,146.30" fill="none" stroke="#4d4d66" stroke-width="0.5" stroke-opacity="0.30"/>
  <path d="M432.73,146.30 L426.02,139.33" fill="none" stroke="#4d4d66" stroke-width="0.5" stroke-opacity="0.30"/>
  <path d="M426.02,139.33 L422.18,130.28" fill="none" stroke="#4d4d66" stroke-width="0.5" stroke-opacity="0.30"/>
  <path d="M422.18,130.28 L420.90,118.89" fill="none" stroke="#4d4d66" stroke-width="0.5" stroke-opacity="0.30"/>
  <path d="M434.24,118.89 C434.24,120.27 433.12,121.39 431.74,121.39 C430.36,121.39 429.24,120.27 429.24,118.89 C429.24,117.51 430.36,116.39 431.74,116.39 C433.12,116.39 434.24,117.51 434.24,118.89 Z" fill="#ff0000"/>
  <path d="M435.80,130.17 C435.80,131.55 434.68,132.67 433.30,132.67 C431.92,132.67 430.80,131.55 430.80,130.17 C430.80,128.79 431.92,127.67 433.30,127.67 C434.68,127.67 435.80,128.79 435.80,130.17 Z" fill="#ff7600"/>
  <path d="M440.75,138.14 C440.75,139.52 439.63,140.64 438.25,140.64 C436.87,140.64 435.75,139.52 435.75,138.14 C435.75,136.76 436.87,135.64 438.25,135.64 C439.63,135.64 440.75,136.76 440.75,138.14 Z" fill="#ffeb00"/>
  <path d="M449.83,142.54 C449.83,143.92 448.71,145.04 447.33,145.04 C445.95,145.04 444.83,143.92 444.83,142.54 C444.83,141.16 445.95,140.04 447.33,140.04 C448.71,140.04 449.83,141.16 449.83,142.54 Z" fill="#9dff00"/>
  <path d="M460.06,141.10 C460.06,142.48 458.94,143.60 457.56,143.60 C456.18,143.60 455.06,142.48 455.06,141.10 C455.06,139.72 456.18,138.60 457.56,138.60 C458.94,138.60 460.06,139.72 460.06,141.10 Z" fill="#27ff00"/>
  <path d="M467.29,134.51 C467.29,135.90 466.17,137.01 464.79,137.01 C463.40,137.01 462.29,135.90 462.29,134.51 C462.29,133.13 463.40,132.01 464.79,132.01 C466.17,132.01 467.29,133.13 467.29,134.51 Z" fill="#00ff4e"/>
  <path d="M470.42,125.10 C470.42,126.48 469.30,127.60 467.92,127.60 C466.54,127.60 465.42,126.48 465.42,125.10 C465.42,123.72 466.54,122.60 467.92,122.60 C469.30,122.60 470.42,123.72 470.42,125.10 Z" fill="#00ffc4"/>
  <path d="M470.51,112.95 C470.51,114.33 469.39,115.45 468.01,115.45 C466.63,115.45 465.51,114.33 465.51,112.95 C465.51,111.57 466.63,110.45 468.01,110.45 C469.39,110.45 470.51,111.57 470.51,112.95 Z" fill="#00c4ff"/>
  <path d="M467.36,103.41 C467.36,104.79 466.24,105.91 464.86,105.91 C463.48,105.91 462.36,104.79 462.36,103.41 C462.36,102.03 463.48,100.91 464.86,100.91 C466.24,100.91 467.36,102.03 467.36,103.41 Z" fill="#004eff"/>
  <path d="M460.08,96.75 C460.08,98.13 458.96,99.25 457.58,99.25 C456.20,99.25 455.08,98.13 455.08,96.75 C455.08,95.37 456.20,94.25 457.58,94.25 C458.96,94.25 460.08,95.37 460.08,96.75 Z" fill="#2700ff"/>
  <path d="M449.87,95.28 C449.87,96.66 448.75,97.78 447.37,97.78 C445.99,97.78 444.87,96.66 444.87,95.28 C444.87,93.90 445.99,92.78 447.37,92.78 C448.75,92.78 449.87,93.90 449.87,95.28 Z" fill="#9d00ff"/>
  <path d="M440.77,99.65 C440.77,101.03 439.65,102.15 438.27,102.15 C436.89,102.15 435.77,101.03 435.77,99.65 C435.77,98.27 436.89,97.15 438.27,97.15 C439.65,97.15 440.77,98.27 440.77,99.65 Z" fill="#ff00eb"/>
  <path d="M435.80,107.60 C435.80,108.98 434.68,110.10 433.30,110.10 C431.92,110.10 430.80,108.98 430.80,107.60 C430.80,106.22 431.92,105.10 433.30,105.10 C434.68,105.10 435.80,106.22 435.80,107.60 Z" fill="#ff0076"/>
  <path d="M431.74,118.89 L433.30,130.17" fill="none" stroke="#4d4d66" stroke-width="0.5" stroke-opacity="0.30"/>
  <path d="M433.30,130.17 L438.25,138.14" fill="none" stroke="#4d4d66" stroke-width="0.5" stroke-opacity="0.30"/>
  <path d="M438.25,138.14 L447.33,142.54" fill="none" stroke="#4d4d66" stroke-width="0.5" stroke-opacity="0.30"/>
  <path d="M447.33,142.54 L457.56,141.10" fill="none" stroke="#4d4d66" stroke-width="0.5" stroke-opacity="0.30"/>
  <path d="M457.56,141.10 L464.79,134.51" fill="none" stroke="#4d4d66" stroke-width="0.5" stroke-opacity="0.30"/>
  <path d="M464.79,134.51 L467.92,125.10" fill="none" stroke="#4d4d66" stroke-width="0.5" stroke-opacity="0.30"/>
  <path d="M467.92,125.10 L468.01,112.95" fill="none" stroke="#4d4d66" stroke-width="0.5" stroke-opacity="0.30"/>
  <path d="M468.01,112.95 L464.86,103.41" fill="none" stroke="#4d4d66" stroke-width="0.5" stroke-opacity="0.30"/>
  <path d="M464.86,103.41 L457.58,96.75" fill="none" stroke="#4d4d66" stroke-width="0.5" stroke-opacity="0.30"/>
  <path d="M457.58,96.75 L447.37,95.28" fill="none" stroke="#4d4d66" stroke-width="0.5" stroke-opacity="0.30"/>
  <path d="M447.37,95.28 L438.27,99.65" fill="none" stroke="#4d4d66" stroke-width="0.5" stroke-opacity="0.30"/>
  <path d="M438.27,99.65 L433.30,107.60" fill="none" stroke="#4d4d66" stroke-width="0.5" stroke-opacity="0.30"/>
  <path d="M433.30,107.60 L431.74,118.89" fill="none" stroke="#4d4d66" stroke-width="0.5" stroke-opacity="0.30"/>
  <path d="M487.03,150.00 C487.03,151.38 485.91,152.50 484.53,152.50 C483.15,152.50 482.03,151.38 482.03,150.00 C482.03,148.62 483.15,147.50 484.53,147.50 C485.91,147.50 487.03,148.62 487.03,150.00 Z" fill="#ff0000"/>
  <path d="M492.88,141.68 C492.88,143.06 491.76,144.18 490.38,144.18 C489.00,144.18 487.88,143.06 487.88,141.68 C487.88,140.30 489.00,139.18 490.38,139.18 C491.76,139.18 492.88,140.30 492.88,141.68 Z" fill="#ff3100"/>
  <path d="M498.72,133.37 C498.72,134.75 497.60,135.87 496.22,135.87 C494.84,135.87 493.72,134.75 493.72,133.37 C493.72,131.99 494.84,130.87 496.22,130.87 C497.60,130.87 498.72,131.99 498.72,133.37 Z" fill="#ff6300"/>
  <path d="M504.57,125.05 C504.57,126.43 503.45,127.55 502.07,127.55 C500.69,127.55 499.57,126.43 499.57,125.05 C499.57,123.67 500.69,122.55 502.07,122.55 C503.45,122.55 504.57,123.67 504.57,125.05 Z" fill="#ff9400"/>
  <path d="M509.12,116.74 C509.12,118.12 508.00,119.24 506.62,119.24 C505.24,119.24 504.12,118.12 504.12,116.74 C504.12,115.35 505.24,114.24 506.62,114.24 C508.00,114.24 509.12,115.35 509.12,116.74 Z" fill="#ffc500"/>
  <path d="M503.27,108.42 C503.27,109.80 502.15,110.92 500.77,110.92 C499.39,110.92 498.27,109.80 498.27,108.42 C498.27,107.04 499.39,105.92 500.77,105.92 C502.15,105.92 503.27,107.04 503.27,108.42 Z" fill="#fff700"/>
  <path d="M497.42,100.11 C497.42,101.49 496.30,102.61 494.92,102.61 C493.53,102.61 492.42,101.49 492.42,100.11 C492.42,98.73 493.53,97.61 494.92,97.61 C496.30,97.61 497.42,98.73 497.42,100.11 Z" fill="#d6ff00"/>
  <path d="M491.56,91.80 C491.56,93.18 490.44,94.30 489.06,94.30 C487.68,94.30 486.56,93.18 486.56,91.80 C486.56,90.42 487.68,89.30 489.06,89.30 C490.44,89.30 491.56,90.42 491.56,91.80 Z" fill="#a5ff00"/>
  <path d="M493.97,87.77 C493.97,89.15 492.85,90.27 491.47,90.27 C490.09,90.27 488.97,89.15 488.97,87.77 C488.97,86.39 490.09,85.27 491.47,85.27 C492.85,85.27 493.97,86.39 493.97,87.77 Z" fill="#73ff00"/>
  <path d="M503.13,89.63 C503.13,91.02 502.01,92.13 500.63,92.13 C499.25,92.13 498.13,91.02 498.13,89.63 C498.13,88.25 499.25,87.13 500.63,87.13 C502.01,87.13 503.13,88.25 503.13,89.63 Z" fill="#42ff00"/>
  <path d="M508.70,98.14 C508.70,99.52 507.58,100.64 506.20,100.64 C504.82,100.64 503.70,99.52 503.70,98.14 C503.70,96.76 504.82,95.64 506.20,95.64 C507.58,95.64 508.70,96.76 508.70,98.14 Z" fill="#10ff00"/>
  <path d="M514.41,107.02 C514.41,108.41 513.30,109.52 511.91,109.52 C510.53,109.52 509.41,108.41 509.41,107.02 C509.41,105.64 510.53,104.52 511.91,104.52 C513.30,104.52 514.41,105.64 514.41,107.02 Z" fill="#00ff21"/>
  <path d="M519.88,103.41 C519.88,104.79 518.76,105.91 517.38,105.91 C516.00,105.91 514.88,104.79 514.88,103.41 C514.88,102.03 516.00,100.91 517.38,100.91 C518.76,100.91 519.88,102.03 519.88,103.41 Z" fill="#00ff52"/>
  <path d="M525.71,95.24 C525.71,96.62 524.59,97.74 523.21,97.74 C521.83,97.74 520.71,96.62 520.71,95.24 C520.71,93.86 521.83,92.74 523.21,92.74 C524.59,92.74 525.71,93.86 525.71,95.24 Z" fill="#00ff84"/>
  <path d="M532.03,87.77 C532.03,89.15 530.91,90.27 529.53,90.27 C528.15,90.27 527.03,89.15 527.03,87.77 C527.03,86.39 528.15,85.27 529.53,85.27 C530.91,85.27 532.03,86.39 532.03,87.77 Z" fill="#00ffb5"/>
  <path d="M542.20,87.77 C542.20,89.15 541.08,90.27 539.70,90.27 C538.32,90.27 537.20,89.15 537.20,87.77 C537.20,86.39 538.32,85.27 539.70,85.27 C541.08,85.27 542.20,86.39 542.20,87.77 Z" fill="#00ffe6"/>
  <path d="M538.47,94.81 C538.47,96.19 537.35,97.31 535.97,97.31 C534.59,97.31 533.47,96.19 533.47,94.81 C533.47,93.43 534.59,92.31 535.97,92.31 C537.35,92.31 538.47,93.43 538.47,94.81 Z" fill="#00e6ff"/>
  <path d="M532.45,103.01 C532.45,104.39 531.33,105.51 529.95,105.51 C528.57,105.51 527.45,104.39 527.45,103.01 C527.45,101.63 528.57,100.51 529.95,100.51 C531.33,100.51 532.45,101.63 532.45,103.01 Z" fill="#00b5ff"/>
  <path d="M526.44,111.20 C526.44,112.58 525.32,113.70 523.94,113.70 C522.56,113.70 521.44,112.58 521.44,111.20 C521.44,109.82 522.56,108.70 523.94,108.70 C525.32,108.70 526.44,109.82 526.44,111.20 Z" fill="#0084ff"/>
  <path d="M523.79,119.43 C523.79,120.81 522.67,121.93 521.29,121.93 C519.91,121.93 518.79,120.81 518.79,119.43 C518.79,118.05 519.91,116.93 521.29,116.93 C522.67,116.93 523.79,118.05 523.79,119.43 Z" fill="#0052ff"/>
  <path d="M529.63,127.75 C529.63,129.13 528.51,130.25 527.13,130.25 C525.75,130.25 524.63,129.13 524.63,127.75 C524.63,126.37 525.75,125.25 527.13,125.25 C528.51,125.25 529.63,126.37 529.63,127.75 Z" fill="#0021ff"/>
  <path d="M535.48,136.06 C535.48,137.44 534.36,138.56 532.98,138.56 C531.60,138.56 530.48,137.44 530.48,136.06 C530.48,134.68 531.60,133.56 532.98,133.56 C534.36,133.56 535.48,134.68 535.48,136.06 Z" fill="#1000ff"/>
  <path d="M541.32,144.38 C541.32,145.76 540.20,146.88 538.82,146.88 C537.44,146.88 536.32,145.76 536.32,144.38 C536.32,143.00 537.44,141.88 538.82,141.88 C540.20,141.88 541.32,143.00 541.32,144.38 Z" fill="#4200ff"/>
  <path d="M541.98,150.00 C541.98,151.38 540.86,152.50 539.48,152.50 C538.10,152.50 536.98,151.38 536.98,150.00 C536.98,148.62 538.10,147.50 539.48,147.50 C540.86,147.50 541.98,148.62 541.98,150.00 Z" fill="#7300ff"/>
  <path d="M532.04,149.57 C532.04,150.95 530.92,152.07 529.54,152.07 C528.16,152.07 527.04,150.95 527.04,149.57 C527.04,148.19 528.16,147.07 529.54,147.07 C530.92,147.07 532.04,148.19 532.04,149.57 Z" fill="#a500ff"/>
  <path d="M526.44,141.09 C526.44,142.47 525.32,143.59 523.94,143.59 C522.56,143.59 521.44,142.47 521.44,141.09 C521.44,139.71 522.56,138.59 523.94,138.59 C525.32,138.59 526.44,139.71 526.44,141.09 Z" fill="#d600ff"/>
  <path d="M520.84,132.61 C520.84,133.99 519.72,135.11 518.34,135.11 C516.96,135.11 515.84,133.99 515.84,132.61 C515.84,131.23 516.96,130.11 518.34,130.11 C519.72,130.11 520.84,131.23 520.84,132.61 Z" fill="#ff00f7"/>
  <path d="M515.26,126.79 C515.26,128.17 514.14,129.29 512.76,129.29 C511.38,129.29 510.26,128.17 510.26,126.79 C510.26,125.41 511.38,124.29 512.76,124.29 C514.14,124.29 515.26,125.41 515.26,126.79 Z" fill="#ff00c5"/>
  <path d="M509.63,135.25 C509.63,136.63 508.51,137.75 507.13,137.75 C505.75,137.75 504.63,136.63 504.63,135.25 C504.63,133.87 505.75,132.75 507.13,132.75 C508.51,132.75 509.63,133.87 509.63,135.25 Z" fill="#ff0094"/>
  <path d="M503.99,143.71 C503.99,145.09 502.87,146.21 501.49,146.21 C500.11,146.21 498.99,145.09 498.99,143.71 C498.99,142.33 500.11,141.21 501.49,141.21 C502.87,141.21 503.99,142.33 503.99,143.71 Z" fill="#ff0063"/>
  <path d="M497.20,150.00 C497.20,151.38 496.08,152.50 494.70,152.50 C493.32,152.50 492.20,151.38 492.20,150.00 C492.20,148.62 493.32,147.50 494.70,147.50 C496.08,147.50 497.20,148.62 497.20,150.00 Z" fill="#ff0031"/>
  <path d="M484.53,150.00 L490.38,141.68" fill="none" stroke="#4d4d66" stroke-width="0.5" stroke-opacity="0.30"/>
  <path d="M490.38,141.68 L496.22,133.37" fill="none" stroke="#4d4d66" stroke-width="0.5" stroke-opacity="0.30"/>
  <path d="M496.22,133.37 L502.07,125.05" fill="none" stroke="#4d4d66" stroke-width="0.5" stroke-opacity="0.30"/>
  <path d="M502.07,125.05 L506.62,116.74" fill="none" stroke="#4d4d66" stroke-width="0.5" stroke-opacity="0.30"/>
  <path d="M506.62,116.74 L500.77,108.42" fill="none" stroke="#4d4d66" stroke-width="0.5" stroke-opacity="0.30"/>
  <path d="M500.77,108.42 L494.92,100.11" fill="none" stroke="#4d4d66" stroke-width="0.5" stroke-opacity="0.30"/>
  <path d="M494.92,100.11 L489.06,91.80" fill="none" stroke="#4d4d66" stroke-width="0.5" stroke-opacity="0.30"/>
  <path d="M489.06,91.80 L491.47,87.77" fill="none" stroke="#4d4d66" stroke-width="0.5" stroke-opacity="0.30"/>
  <path d="M491.47,87.77 L500.63,89.63" fill="none" stroke="#4d4d66" stroke-width="0.5" stroke-opacity="0.30"/>
  <path d="M500.63,89.63 L506.20,98.14" fill="none" stroke="#4d4d66" stroke-width="0.5" stroke-opacity="0.30"/>
  <path d="M506.20,98.14 L511.91,107.02" fill="none" stroke="#4d4d66" stroke-width="0.5" stroke-opacity="0.30"/>
  <path d="M511.91,107.02 L517.38,103.41" fill="none" stroke="#4d4d66" stroke-width="0.5" stroke-opacity="0.30"/>
  <path d="M517.38,103.41 L523.21,95.24" fill="none" stroke="#4d4d66" stroke-width="0.5" stroke-opacity="0.30"/>
  <path d="M523.21,95.24 L529.53,87.77" fill="none" stroke="#4d4d66" stroke-width="0.5" stroke-opacity="0.30"/>
  <path d="M529.53,87.77 L539.70,87.77" fill="none" stroke="#4d4d66" stroke-width="0.5" stroke-opacity="0.30"/>
  <path d="M539.70,87.77 L535.97,94.81" fill="none" stroke="#4d4d66" stroke-width="0.5" stroke-opacity="0.30"/>
  <path d="M535.97,94.81 L529.95,103.01" fill="none" stroke="#4d4d66" stroke-width="0.5" stroke-opacity="0.30"/>
  <path d="M529.95,103.01 L523.94,111.20" fill="none" stroke="#4d4d66" stroke-width="0.5" stroke-opacity="0.30"/>
  <path d="M523.94,111.20 L521.29,119.43" fill="none" stroke="#4d4d66" stroke-width="0.5" stroke-opacity="0.30"/>
  <path d="M521.29,119.43 L527.13,127.75" fill="none" stroke="#4d4d66" stroke-width="0.5" stroke-opacity="0.30"/>
  <path d="M527.13,127.75 L532.98,136.06" fill="none" stroke="#4d4d66" stroke-width="0.5" stroke-opacity="0.30"/>
  <path d="M532.98,136.06 L538.82,144.38" fill="none" stroke="#4d4d66" stroke-width="0.5" stroke-opacity="0.30"/>
  <path d="M538.82,144.38 L539.48,150.00" fill="none" stroke="#4d4d66" stroke-width="0.5" stroke-opacity="0.30"/>
  <path d="M539.48,150.00 L529.54,149.57" fill="none" stroke="#4d4d66" stroke-width="0.5" stroke-opacity="0.30"/>
  <path d="M529.54,149.57 L523.94,141.09" fill="none" stroke="#4d4d66" stroke-width="0.5" stroke-opacity="0.30"/>
  <path d="M523.94,141.09 L518.34,132.61" fill="none" stroke="#4d4d66" stroke-width="0.5" stroke-opacity="0.30"/>
  <path d="M518.34,132.61 L512.76,126.79" fill="none" stroke="#4d4d66" stroke-width="0.5" stroke-opacity="0.30"/>
  <path d="M512.76,126.79 L507.13,135.25" fill="none" stroke="#4d4d66" stroke-width="0.5" stroke-opacity="0.30"/>
  <path d="M507.13,135.25 L501.49,143.71" fill="none" stroke="#4d4d66" stroke-width="0.5" stroke-opacity="0.30"/>
  <path d="M501.49,143.71 L494.70,150.00" fill="none" stroke="#4d4d66" stroke-width="0.5" stroke-opacity="0.30"/>
  <path d="M494.70,150.00 L484.53,150.00" fill="none" stroke="#4d4d66" stroke-width="0.5" stroke-opacity="0.30"/>
</svg>

