<?xml version="1.0" encoding="UTF-8"?>
<svg xmlns="http://www.w3.org/2000/svg" width="400" height="220" viewBox="0 0 400 220">
  <rect width="100%" height="100%" fill="#ffffff"/>
  <path d="M55.48,120.00 L55.48,68.46 L62.48,68.46 L89.55,108.93 L89.55,68.46 L96.09,68.46 L96.09,120.00 L89.09,120.00 L62.02,79.50 L62.02,120.00 ZM104.39,101.33 C104.39,94.42 106.31,89.30 110.15,85.97 C113.36,83.20 117.28,81.82 121.89,81.82 C127.03,81.82 131.22,83.50 134.48,86.87 C137.74,90.23 139.37,94.88 139.37,100.80 C139.37,105.61 138.65,109.39 137.21,112.14 C135.76,114.90 133.67,117.04 130.91,118.56 C128.16,120.08 125.15,120.84 121.89,120.84 C116.67,120.84 112.44,119.17 109.22,115.82 C106.00,112.46 104.39,107.64 104.39,101.33 ZM110.89,101.33 C110.89,106.11 111.93,109.69 114.02,112.07 C116.11,114.45 118.73,115.64 121.89,115.64 C125.04,115.64 127.65,114.45 129.73,112.05 C131.82,109.66 132.86,106.02 132.86,101.12 C132.86,96.50 131.81,93.01 129.72,90.63 C127.62,88.25 125.01,87.06 121.89,87.06 C118.73,87.06 116.11,88.24 114.02,90.61 C111.93,92.98 110.89,96.55 110.89,101.33 ZM171.01,120.00 L171.01,115.29 C168.64,118.99 165.16,120.84 160.57,120.84 C157.59,120.84 154.85,120.02 152.36,118.38 C149.86,116.74 147.93,114.45 146.56,111.51 C145.19,108.57 144.50,105.19 144.50,101.37 C144.50,97.64 145.12,94.26 146.36,91.22 C147.61,88.19 149.47,85.86 151.95,84.25 C154.44,82.63 157.21,81.82 160.29,81.82 C162.54,81.82 164.54,82.29 166.30,83.24 C168.05,84.19 169.48,85.43 170.59,86.95 L170.59,68.46 L176.88,68.46 L176.88,120.00 ZM151.00,101.37 C151.00,106.15 152.01,109.72 154.03,112.09 C156.04,114.46 158.42,115.64 161.16,115.64 C163.93,115.64 166.28,114.51 168.21,112.25 C170.15,109.99 171.11,106.54 171.11,101.89 C171.11,96.79 170.13,93.04 168.16,90.64 C166.19,88.25 163.77,87.06 160.88,87.06 C158.07,87.06 155.72,88.21 153.83,90.50 C151.95,92.80 151.00,96.42 151.00,101.37 ZM212.39,107.98 L218.93,108.79 C217.89,112.61 215.98,115.57 213.20,117.68 C210.41,119.79 206.84,120.84 202.51,120.84 C197.05,120.84 192.72,119.16 189.52,115.80 C186.32,112.44 184.72,107.72 184.72,101.65 C184.72,95.37 186.34,90.49 189.57,87.02 C192.80,83.55 197.00,81.82 202.16,81.82 C207.15,81.82 211.23,83.52 214.39,86.92 C217.55,90.32 219.14,95.10 219.14,101.26 C219.14,101.64 219.12,102.20 219.10,102.95 L191.26,102.95 C191.49,107.05 192.65,110.19 194.74,112.37 C196.82,114.55 199.43,115.64 202.54,115.64 C204.86,115.64 206.84,115.03 208.48,113.81 C210.12,112.59 211.43,110.65 212.39,107.98 ZM191.61,97.75 L212.46,97.75 C212.18,94.61 211.38,92.25 210.07,90.68 C208.05,88.24 205.44,87.02 202.23,87.02 C199.32,87.02 196.88,88.00 194.90,89.94 C192.92,91.89 191.82,94.49 191.61,97.75 ZM227.40,120.00 L227.40,68.46 L246.73,68.46 C250.67,68.46 253.83,68.98 256.21,70.03 C258.59,71.07 260.45,72.67 261.80,74.84 C263.15,77.01 263.82,79.28 263.82,81.64 C263.82,83.85 263.22,85.92 262.03,87.87 C260.83,89.81 259.03,91.38 256.61,92.58 C259.73,93.49 262.13,95.05 263.80,97.25 C265.48,99.46 266.32,102.06 266.32,105.06 C266.32,107.47 265.81,109.72 264.79,111.79 C263.77,113.87 262.51,115.46 261.01,116.59 C259.51,117.71 257.63,118.56 255.37,119.14 C253.10,119.71 250.33,120.00 247.05,120.00 ZM234.22,90.12 L245.36,90.12 C248.39,90.12 250.55,89.92 251.87,89.52 C253.60,89.00 254.91,88.15 255.79,86.95 C256.67,85.76 257.11,84.26 257.11,82.45 C257.11,80.74 256.70,79.24 255.88,77.94 C255.05,76.63 253.88,75.74 252.36,75.26 C250.84,74.78 248.22,74.54 244.52,74.54 L234.22,74.54 ZM234.22,113.92 L247.05,113.92 C249.25,113.92 250.80,113.84 251.69,113.67 C253.26,113.39 254.57,112.92 255.63,112.27 C256.68,111.61 257.55,110.65 258.23,109.40 C258.91,108.15 259.25,106.70 259.25,105.06 C259.25,103.14 258.76,101.47 257.77,100.05 C256.79,98.63 255.42,97.63 253.68,97.06 C251.93,96.49 249.42,96.20 246.14,96.20 L234.22,96.20 ZM272.54,101.33 C272.54,94.42 274.46,89.30 278.30,85.97 C281.52,83.20 285.43,81.82 290.05,81.82 C295.18,81.82 299.38,83.50 302.63,86.87 C305.89,90.23 307.52,94.88 307.52,100.80 C307.52,105.61 306.80,109.39 305.36,112.14 C303.92,114.90 301.82,117.04 299.06,118.56 C296.31,120.08 293.30,120.84 290.05,120.84 C284.82,120.84 280.60,119.17 277.37,115.82 C274.15,112.46 272.54,107.64 272.54,101.33 ZM279.04,101.33 C279.04,106.11 280.09,109.69 282.17,112.07 C284.26,114.45 286.88,115.64 290.05,115.64 C293.19,115.64 295.80,114.45 297.89,112.05 C299.97,109.66 301.02,106.02 301.02,101.12 C301.02,96.50 299.97,93.01 297.87,90.63 C295.77,88.25 293.16,87.06 290.05,87.06 C286.88,87.06 284.26,88.24 282.17,90.61 C280.09,92.98 279.04,96.55 279.04,101.33 ZM310.72,120.00 L324.36,100.59 L311.74,82.66 L319.65,82.66 L325.38,91.42 C326.46,93.08 327.32,94.48 327.98,95.60 C329.01,94.05 329.96,92.68 330.83,91.49 L337.12,82.66 L344.68,82.66 L331.78,100.24 L345.66,120.00 L337.89,120.00 L330.23,108.40 L328.19,105.27 L318.38,120.00 Z" fill="#333333"/>
  <path d="M53.77,180.00 L53.77,145.64 L69.01,145.64 C72.07,145.64 74.40,145.95 75.99,146.57 C77.59,147.18 78.86,148.27 79.81,149.84 C80.77,151.40 81.24,153.12 81.24,155.02 C81.24,157.45 80.45,159.51 78.88,161.18 C77.30,162.85 74.86,163.91 71.56,164.37 C72.77,164.95 73.68,165.52 74.30,166.08 C75.63,167.30 76.89,168.82 78.08,170.65 L84.05,180.00 L78.34,180.00 L73.79,172.85 C72.46,170.79 71.37,169.21 70.51,168.12 C69.65,167.02 68.88,166.26 68.20,165.82 C67.52,165.38 66.83,165.08 66.12,164.91 C65.61,164.80 64.77,164.74 63.59,164.74 L58.32,164.74 L58.32,180.00 ZM58.32,160.80 L68.09,160.80 C70.17,160.80 71.80,160.59 72.97,160.16 C74.14,159.73 75.03,159.04 75.64,158.10 C76.25,157.15 76.55,156.12 76.55,155.02 C76.55,153.39 75.96,152.05 74.79,151.01 C73.61,149.96 71.74,149.44 69.20,149.44 L58.32,149.44 ZM104.14,180.00 L104.14,176.34 C102.20,179.16 99.57,180.56 96.24,180.56 C94.77,180.56 93.40,180.28 92.13,179.72 C90.86,179.16 89.91,178.45 89.29,177.60 C88.68,176.75 88.24,175.70 87.99,174.47 C87.82,173.64 87.73,172.33 87.73,170.53 L87.73,155.11 L91.95,155.11 L91.95,168.91 C91.95,171.12 92.04,172.60 92.21,173.37 C92.48,174.48 93.04,175.35 93.90,175.98 C94.76,176.61 95.82,176.93 97.09,176.93 C98.35,176.93 99.54,176.61 100.65,175.96 C101.76,175.31 102.54,174.43 103.00,173.31 C103.46,172.19 103.70,170.57 103.70,168.45 L103.70,155.11 L107.91,155.11 L107.91,180.00 ZM112.84,172.57 L117.01,171.91 C117.24,173.59 117.89,174.87 118.96,175.76 C120.04,176.65 121.53,177.09 123.45,177.09 C125.39,177.09 126.83,176.70 127.77,175.91 C128.70,175.12 129.17,174.20 129.17,173.13 C129.17,172.18 128.76,171.43 127.93,170.88 C127.35,170.51 125.91,170.03 123.62,169.45 C120.52,168.67 118.38,168.00 117.18,167.43 C115.99,166.86 115.08,166.07 114.46,165.06 C113.85,164.05 113.54,162.94 113.54,161.72 C113.54,160.61 113.79,159.58 114.30,158.64 C114.81,157.69 115.50,156.91 116.38,156.28 C117.03,155.80 117.93,155.39 119.06,155.05 C120.19,154.71 121.41,154.55 122.70,154.55 C124.66,154.55 126.37,154.83 127.85,155.39 C129.32,155.95 130.41,156.71 131.12,157.68 C131.82,158.64 132.30,159.92 132.57,161.53 L128.45,162.09 C128.26,160.81 127.71,159.81 126.82,159.09 C125.92,158.38 124.65,158.02 123.01,158.02 C121.07,158.02 119.69,158.34 118.86,158.98 C118.03,159.62 117.62,160.37 117.62,161.23 C117.62,161.77 117.79,162.27 118.13,162.70 C118.48,163.16 119.02,163.53 119.75,163.83 C120.17,163.98 121.41,164.34 123.48,164.91 C126.46,165.70 128.54,166.36 129.72,166.86 C130.90,167.37 131.83,168.11 132.50,169.08 C133.17,170.05 133.51,171.25 133.51,172.69 C133.51,174.09 133.10,175.42 132.28,176.66 C131.46,177.90 130.27,178.86 128.73,179.54 C127.18,180.22 125.43,180.56 123.48,180.56 C120.24,180.56 117.78,179.89 116.08,178.55 C114.39,177.20 113.30,175.21 112.84,172.57 ZM147.73,176.23 L148.34,179.95 C147.16,180.20 146.09,180.33 145.16,180.33 C143.62,180.33 142.44,180.09 141.59,179.60 C140.75,179.12 140.16,178.48 139.81,177.69 C139.47,176.90 139.30,175.24 139.30,172.71 L139.30,158.39 L136.20,158.39 L136.20,155.11 L139.30,155.11 L139.30,148.95 L143.49,146.41 L143.49,155.11 L147.73,155.11 L147.73,158.39 L143.49,158.39 L143.49,172.95 C143.49,174.15 143.57,174.92 143.71,175.27 C143.86,175.61 144.11,175.88 144.44,176.09 C144.78,176.29 145.26,176.39 145.88,176.39 C146.35,176.39 146.97,176.34 147.73,176.23 Z" fill="#cc4d1a"/>
  <path d="M50.00,195.00 L200.00,195.00" fill="none" stroke="#cc4d1a" stroke-width="3"/>
</svg>
