<?xml version="1.0" encoding="utf-8"?>
<!-- Generator: Adobe Illustrator 15.0.0, SVG Export Plug-In . SVG Version: 6.00 Build 0)  -->
<!DOCTYPE svg PUBLIC "-//W3C//DTD SVG 1.1//EN" "http://www.w3.org/Graphics/SVG/1.1/DTD/svg11.dtd">
<svg version="1.1" id="Laag_1" xmlns="http://www.w3.org/2000/svg" xmlns:xlink="http://www.w3.org/1999/xlink" x="0px" y="0px"
	 width="49.947px" height="49.947px" viewBox="0 0 49.947 49.947" enable-background="new 0 0 49.947 49.947" xml:space="preserve">
<path d="M26.095,0.27c-0.183-0.017-0.35-0.028-0.479-0.028v0.016c-0.215-0.005-0.428-0.016-0.645-0.016
	C11.321,0.242,0.215,11.348,0.215,25C0.212,36.044,4.403,49.292,24.387,49.688c0.238,0.005,0.439,0.009,0.598,0.016l0.062,0.001
	c13.611,0,24.685-11.083,24.685-24.705C49.731,11.725,39.228,0.86,26.095,0.27z M3.215,25c0-11.998,9.761-21.758,21.758-21.758
	c0.333,0,0.662,0.01,0.991,0.025c1.497,0.163,5.841,1.211,8.903,3.318c3.649,2.511,5.89,9.393,5.89,13.221
	c0,5.574-1.098,8.828-4.049,12.003c-1.414,1.521-4.152,3.078-6.668,3.423c1.993-1.986,4.188-5.385,4.188-10.714
	c0-9.012-6.983-13.211-11.703-13.211c-3.719,0-13.928,4.048-13.928,17.08c0,8.669,3.588,13.92,7.58,17.081
	C7.578,42.85,3.212,36.008,3.215,25z M26.188,34.509c-2.287-1.137-5.454-3.696-5.454-9.173c0-6.542,4.009-9.394,5.249-10.12
	c2.598,1.297,5.245,4.118,5.245,9.301C31.228,30.729,27.611,33.614,26.188,34.509z M25.241,46.7
	c-4.252-1.173-13.644-5.244-13.644-18.313c0-10.421,7.524-13.863,10.639-14.061c-2.069,1.936-4.502,5.395-4.502,11.01
	c0,5.678,2.769,8.934,5.237,10.713l-0.192,0.089l1.466,0.729c0.535,0.304,1.027,0.539,1.427,0.707l0.001-0.003
	c4.412,2.116,10.502-0.783,13.232-3.72c4.026-4.334,4.852-8.75,4.852-14.046c0-2.312-0.663-5.532-1.938-8.558
	c3.068,3.751,4.912,8.54,4.912,13.753C46.731,36.903,37.108,46.596,25.241,46.7z"/>
</svg>
