<?xml version="1.0" encoding="utf-8"?>
<!-- Generator: Adobe Illustrator 15.0.2, SVG Export Plug-In . SVG Version: 6.00 Build 0)  -->
<!DOCTYPE svg PUBLIC "-//W3C//DTD SVG 1.1//EN" "http://www.w3.org/Graphics/SVG/1.1/DTD/svg11.dtd">
<svg version="1.1" id="Laag_1" xmlns="http://www.w3.org/2000/svg" xmlns:xlink="http://www.w3.org/1999/xlink" x="0px" y="0px"
	 width="128px" height="128px" viewBox="0 0 128 128" enable-background="new 0 0 128 128" xml:space="preserve">
<path d="M128.383,34.035c0,12.331-9.996,22.327-22.326,22.327c-2.988,0-5.834-0.597-8.438-1.663
	c4.976,6.704,7.923,15.004,7.923,23.996c0,22.255-18.041,40.298-40.296,40.298c-22.256,0-40.297-18.043-40.297-40.298
	c0-8.908,2.896-17.138,7.791-23.809c-3.101,1.631-6.625,2.564-10.372,2.564c-12.33,0-22.327-9.996-22.327-22.327
	s9.997-22.327,22.327-22.327s22.327,9.996,22.327,22.327c0,3.87-0.987,7.509-2.72,10.682c6.575-4.66,14.6-7.408,23.271-7.408
	c7.692,0,14.881,2.158,20.995,5.898c-1.595-3.074-2.511-6.559-2.511-10.261c0-12.331,9.997-22.327,22.327-22.327
	S128.383,21.704,128.383,34.035z M64.383,80.306c-6.41,0-11.608,5.196-11.608,11.607s5.198,11.608,11.608,11.608
	c6.411,0,11.609-5.197,11.609-11.608S70.794,80.306,64.383,80.306z"/>
</svg>
