<?xml version="1.0" encoding="utf-8"?>
<!-- Generator: Adobe Illustrator 15.0.0, SVG Export Plug-In . SVG Version: 6.00 Build 0)  -->
<!DOCTYPE svg PUBLIC "-//W3C//DTD SVG 1.1//EN" "http://www.w3.org/Graphics/SVG/1.1/DTD/svg11.dtd">
<svg version="1.1" id="Laag_1" xmlns="http://www.w3.org/2000/svg" xmlns:xlink="http://www.w3.org/1999/xlink" x="0px" y="0px"
	 width="49.947px" height="49.947px" viewBox="0 0 49.947 49.947" enable-background="new 0 0 49.947 49.947" xml:space="preserve">
<path d="M16.792,7.674v8.079v1.414v22.458c-1.628-1.26-4.007-2.06-6.665-2.06c-4.908,0-8.887,2.712-8.887,6.059
	c0,3.348,3.979,6.06,8.887,6.06c4.907,0,8.886-2.712,8.886-6.06V22.983l24.641-6.691v17.274c-1.63-1.259-4.007-2.061-6.665-2.061
	c-4.909,0-8.887,2.714-8.887,6.06c0,3.347,3.978,6.059,8.887,6.059c4.907,0,8.886-2.712,8.886-6.059
	c0-0.069-0.012-0.135-0.015-0.203h0.015V9.493v0V0L16.792,7.674z M19.013,20.312v-3.73l24.641-6.502v3.542L19.013,20.312z"/>
</svg>
