<?xml version="1.0" encoding="utf-8"?>
<!-- Generator: Adobe Illustrator 15.0.2, SVG Export Plug-In . SVG Version: 6.00 Build 0)  -->
<!DOCTYPE svg PUBLIC "-//W3C//DTD SVG 1.1//EN" "http://www.w3.org/Graphics/SVG/1.1/DTD/svg11.dtd">
<svg version="1.1" id="Laag_1" xmlns="http://www.w3.org/2000/svg" xmlns:xlink="http://www.w3.org/1999/xlink" x="0px" y="0px"
	 width="128px" height="128px" viewBox="0 0 128 128" enable-background="new 0 0 128 128" xml:space="preserve">
<g enable-background="new    ">
	<path d="M47.791,32.851c0,3.931-0.489,7.446-1.465,10.547c-0.977,3.101-2.43,5.731-4.358,7.892
		c-1.929,2.161-4.315,3.809-7.159,4.944c-2.845,1.135-6.134,1.702-9.87,1.702c-3.687,0-6.903-0.481-9.65-1.446
		c-2.746-0.964-5.035-2.435-6.866-4.413c-1.831-1.977-3.204-4.491-4.12-7.543c-0.915-3.052-1.373-6.666-1.373-10.84
		c0-3.833,0.488-7.282,1.465-10.346c0.976-3.063,2.429-5.67,4.358-7.818c1.928-2.148,4.315-3.797,7.16-4.944
		c2.844-1.147,6.146-1.722,9.906-1.722c3.589,0,6.756,0.477,9.503,1.429c2.746,0.952,5.041,2.417,6.885,4.395
		c1.843,1.978,3.234,4.474,4.175,7.489C47.32,25.191,47.791,28.749,47.791,32.851z M37.683,33.363c0-2.49-0.196-4.755-0.586-6.793
		c-0.391-2.038-1.056-3.784-1.996-5.237c-0.94-1.452-2.192-2.575-3.754-3.369c-1.562-0.793-3.516-1.19-5.859-1.19
		c-2.368,0-4.346,0.446-5.933,1.337c-1.587,0.892-2.869,2.082-3.845,3.571c-0.977,1.489-1.667,3.229-2.069,5.218
		c-0.403,1.99-0.604,4.096-0.604,6.317c0,2.588,0.195,4.913,0.586,6.977c0.39,2.063,1.049,3.826,1.978,5.291
		c0.928,1.465,2.173,2.582,3.735,3.352c1.562,0.769,3.528,1.153,5.896,1.153c2.368,0,4.345-0.439,5.933-1.318
		c1.587-0.879,2.869-2.075,3.845-3.589c0.976-1.514,1.666-3.277,2.069-5.292C37.481,37.776,37.683,35.634,37.683,33.363z"/>
	<path d="M83.973,42.885c0,2.49-0.465,4.676-1.393,6.555c-0.928,1.881-2.186,3.449-3.771,4.706
		c-1.588,1.258-3.442,2.204-5.566,2.839c-2.124,0.634-4.395,0.951-6.812,0.951c-1.636,0-3.156-0.134-4.559-0.402
		c-1.404-0.269-2.643-0.592-3.717-0.971c-1.075-0.378-1.972-0.774-2.692-1.189s-1.239-0.781-1.556-1.1
		c-0.317-0.316-0.543-0.774-0.677-1.373c-0.135-0.598-0.202-1.458-0.202-2.582c0-0.756,0.024-1.391,0.073-1.904
		c0.049-0.512,0.128-0.927,0.238-1.244c0.11-0.317,0.257-0.544,0.439-0.678c0.184-0.134,0.397-0.201,0.641-0.201
		c0.342,0,0.824,0.201,1.447,0.604c0.622,0.403,1.422,0.849,2.398,1.337c0.976,0.488,2.143,0.934,3.497,1.337
		c1.355,0.402,2.924,0.604,4.706,0.604c1.172,0,2.222-0.14,3.15-0.421c0.928-0.28,1.715-0.677,2.361-1.19
		c0.646-0.512,1.141-1.146,1.483-1.904c0.342-0.756,0.513-1.599,0.513-2.526c0-1.074-0.293-1.996-0.879-2.765
		c-0.586-0.77-1.35-1.452-2.289-2.051s-2.008-1.159-3.204-1.685s-2.43-1.081-3.699-1.667c-1.27-0.586-2.503-1.25-3.699-1.995
		c-1.196-0.745-2.265-1.636-3.205-2.674c-0.94-1.037-1.703-2.264-2.289-3.681c-0.586-1.415-0.879-3.112-0.879-5.09
		c0-2.271,0.421-4.267,1.263-5.987c0.843-1.722,1.978-3.149,3.406-4.285c1.428-1.135,3.112-1.983,5.054-2.545
		c1.94-0.562,3.997-0.843,6.17-0.843c1.123,0,2.246,0.086,3.369,0.257s2.173,0.403,3.15,0.696c0.975,0.293,1.842,0.622,2.6,0.988
		c0.756,0.366,1.256,0.672,1.502,0.916c0.242,0.244,0.408,0.451,0.494,0.622c0.084,0.171,0.158,0.397,0.219,0.678
		s0.104,0.635,0.129,1.062c0.023,0.428,0.037,0.959,0.037,1.594c0,0.708-0.02,1.306-0.057,1.794
		c-0.035,0.488-0.098,0.892-0.182,1.208c-0.086,0.318-0.209,0.55-0.367,0.696s-0.373,0.22-0.641,0.22
		c-0.27,0-0.695-0.171-1.281-0.513s-1.307-0.714-2.16-1.117c-0.855-0.402-1.845-0.769-2.967-1.099
		c-1.123-0.329-2.357-0.494-3.699-0.494c-1.05,0-1.965,0.128-2.746,0.385c-0.782,0.256-1.436,0.61-1.959,1.062
		c-0.525,0.452-0.917,0.995-1.172,1.63c-0.257,0.635-0.385,1.307-0.385,2.014c0,1.051,0.287,1.96,0.86,2.729
		c0.574,0.77,1.343,1.453,2.308,2.051c0.963,0.599,2.056,1.16,3.277,1.685c1.221,0.525,2.465,1.081,3.734,1.667
		s2.516,1.251,3.736,1.995c1.221,0.745,2.307,1.636,3.26,2.674c0.951,1.038,1.721,2.258,2.307,3.662S83.973,40.98,83.973,42.885z"/>
	<path d="M124.109,49.916c0,0.61-0.019,1.13-0.055,1.557c-0.037,0.427-0.092,0.793-0.165,1.099s-0.171,0.567-0.293,0.787
		s-0.317,0.471-0.586,0.751s-0.787,0.641-1.557,1.08c-0.769,0.439-1.709,0.86-2.819,1.264c-1.111,0.402-2.381,0.738-3.809,1.007
		c-1.429,0.269-2.973,0.403-4.633,0.403c-3.247,0-6.177-0.501-8.789-1.502s-4.834-2.496-6.665-4.486
		c-1.831-1.989-3.235-4.474-4.212-7.452s-1.465-6.445-1.465-10.4c0-4.028,0.537-7.604,1.611-10.729s2.576-5.75,4.505-7.874
		s4.242-3.735,6.939-4.834s5.67-1.647,8.917-1.647c1.318,0,2.588,0.109,3.809,0.329s2.35,0.507,3.388,0.86
		c1.038,0.354,1.972,0.764,2.802,1.227c0.83,0.465,1.41,0.861,1.739,1.19c0.33,0.33,0.556,0.604,0.678,0.824s0.22,0.501,0.293,0.843
		s0.128,0.744,0.165,1.208c0.036,0.464,0.055,1.038,0.055,1.722c0,0.732-0.024,1.354-0.073,1.867s-0.135,0.928-0.257,1.245
		s-0.269,0.55-0.439,0.696s-0.365,0.219-0.586,0.219c-0.365,0-0.83-0.213-1.391-0.641c-0.562-0.427-1.288-0.902-2.18-1.428
		s-1.953-1.001-3.186-1.429c-1.233-0.427-2.704-0.641-4.413-0.641c-1.88,0-3.559,0.385-5.035,1.153
		c-1.478,0.77-2.734,1.868-3.772,3.296c-1.038,1.429-1.825,3.156-2.361,5.183c-0.538,2.026-0.807,4.309-0.807,6.848
		c0,2.783,0.287,5.194,0.861,7.232c0.573,2.039,1.392,3.717,2.453,5.035c1.062,1.318,2.344,2.302,3.846,2.948
		c1.501,0.647,3.191,0.971,5.072,0.971c1.708,0,3.186-0.201,4.431-0.604c1.245-0.402,2.312-0.848,3.204-1.336
		s1.624-0.928,2.197-1.318s1.02-0.586,1.337-0.586c0.244,0,0.439,0.049,0.586,0.146s0.269,0.293,0.366,0.586s0.171,0.701,0.22,1.227
		S124.109,49.037,124.109,49.916z"/>
</g>
<polygon points="22.252,111.309 22.252,68.098 11.125,68.098 11.125,111.309 0,111.309 16.688,128 33.377,111.309 "/>
<polygon points="53.559,100.083 53.559,68.098 42.432,68.098 42.432,100.083 31.307,100.083 47.995,116.773 64.684,100.083 "/>
<polygon points="84.865,89.215 84.865,68.098 73.738,68.098 73.738,89.215 62.613,89.215 79.302,105.906 95.99,89.215 "/>
<polygon points="116.172,111.309 116.172,68.098 105.045,68.098 105.045,111.309 93.92,111.309 110.607,128 127.297,111.309 "/>
</svg>
