<?xml version="1.0" encoding="utf-8"?>
<!-- Generator: Adobe Illustrator 15.0.2, SVG Export Plug-In . SVG Version: 6.00 Build 0)  -->
<!DOCTYPE svg PUBLIC "-//W3C//DTD SVG 1.1//EN" "http://www.w3.org/Graphics/SVG/1.1/DTD/svg11.dtd">
<svg version="1.1" id="Laag_1" xmlns="http://www.w3.org/2000/svg" xmlns:xlink="http://www.w3.org/1999/xlink" x="0px" y="0px"
	 width="128px" height="128px" viewBox="0 0 128 128" enable-background="new 0 0 128 128" xml:space="preserve">
<text transform="matrix(1 0 0 1 0 57.0938)" font-family="'Calibri-Bold'" font-size="75">OSC</text>
<polygon points="22.252,111.309 22.252,68.097 11.125,68.097 11.125,111.309 0,111.309 16.688,128 33.377,111.309 "/>
<polygon points="53.559,100.083 53.559,68.097 42.432,68.097 42.432,100.083 31.307,100.083 47.995,116.774 64.684,100.083 "/>
<polygon points="84.865,89.215 84.865,68.097 73.738,68.097 73.738,89.215 62.613,89.215 79.302,105.906 95.99,89.215 "/>
<polygon points="116.172,111.309 116.172,68.097 105.045,68.097 105.045,111.309 93.92,111.309 110.608,128 127.297,111.309 "/>
</svg>
