<?xml version="1.0" encoding="utf-8"?>
<!-- Generator: Adobe Illustrator 15.0.2, SVG Export Plug-In . SVG Version: 6.00 Build 0)  -->
<!DOCTYPE svg PUBLIC "-//W3C//DTD SVG 1.1//EN" "http://www.w3.org/Graphics/SVG/1.1/DTD/svg11.dtd">
<svg version="1.1" id="Laag_1" xmlns="http://www.w3.org/2000/svg" xmlns:xlink="http://www.w3.org/1999/xlink" x="0px" y="0px"
	 width="128px" height="128px" viewBox="0 0 128 128" enable-background="new 0 0 128 128" xml:space="preserve">
<text transform="matrix(1 0 0 1 0 57.0938)" font-family="'Calibri-Bold'" font-size="75">OSC</text>
<polygon points="33.377,84.363 16.688,67.672 0,84.363 11.125,84.363 11.125,127.575 22.252,127.575 22.252,84.363 "/>
<polygon points="64.684,95.589 47.995,78.897 31.307,95.589 42.432,95.589 42.432,127.575 53.559,127.575 53.559,95.589 "/>
<polygon points="95.99,106.457 79.302,89.766 62.613,106.457 73.738,106.457 73.738,127.575 84.865,127.575 84.865,106.457 "/>
<polygon points="127.297,84.363 110.608,67.672 93.92,84.363 105.045,84.363 105.045,127.575 116.172,127.575 116.172,84.363 "/>
</svg>
