<?xml version="1.0" encoding="utf-8"?>
<!-- Generator: Adobe Illustrator 15.0.2, SVG Export Plug-In . SVG Version: 6.00 Build 0)  -->
<!DOCTYPE svg PUBLIC "-//W3C//DTD SVG 1.1//EN" "http://www.w3.org/Graphics/SVG/1.1/DTD/svg11.dtd">
<svg version="1.1" id="Laag_1" xmlns="http://www.w3.org/2000/svg" xmlns:xlink="http://www.w3.org/1999/xlink" x="0px" y="0px"
	 width="49.947px" height="49.947px" viewBox="0 0 49.947 49.947" enable-background="new 0 0 49.947 49.947" xml:space="preserve">
<g>
	<path d="M6.184,18.856v2.747c0,0.402-0.044,0.725-0.133,0.967c-0.088,0.242-0.225,0.428-0.407,0.558
		c-0.184,0.131-0.417,0.216-0.7,0.258c-0.284,0.041-0.62,0.062-1.011,0.062c-0.39,0-0.721-0.021-0.992-0.062
		c-0.272-0.042-0.494-0.127-0.665-0.258c-0.171-0.13-0.299-0.315-0.381-0.558c-0.083-0.242-0.124-0.564-0.124-0.967
		c0-0.448,0.021-0.862,0.062-1.24c0.042-0.378,0.109-0.738,0.204-1.082c0.095-0.342,0.222-0.673,0.381-0.993
		c0.16-0.319,0.352-0.644,0.576-0.975l2.27-3.386c0.082-0.118,0.168-0.218,0.257-0.301c0.089-0.083,0.2-0.151,0.337-0.204
		c0.136-0.053,0.298-0.091,0.487-0.115c0.188-0.023,0.419-0.035,0.691-0.035c0.307,0,0.555,0.012,0.744,0.035
		c0.189,0.024,0.331,0.068,0.426,0.133c0.094,0.065,0.142,0.145,0.142,0.239s-0.023,0.207-0.071,0.337L6.184,18.856z M13.151,18.856
		v2.747c0,0.402-0.044,0.725-0.133,0.967s-0.225,0.428-0.408,0.558c-0.183,0.131-0.419,0.216-0.709,0.258
		c-0.289,0.041-0.623,0.062-1.001,0.062c-0.391,0-0.722-0.021-0.993-0.062c-0.271-0.042-0.496-0.127-0.674-0.258
		c-0.177-0.13-0.304-0.315-0.381-0.558s-0.115-0.564-0.115-0.967c0-0.448,0.021-0.862,0.062-1.24
		c0.041-0.378,0.109-0.738,0.204-1.082c0.094-0.342,0.221-0.673,0.381-0.993c0.159-0.319,0.352-0.644,0.576-0.975l2.251-3.386
		c0.082-0.118,0.168-0.218,0.257-0.301c0.089-0.083,0.201-0.151,0.337-0.204c0.136-0.053,0.298-0.091,0.487-0.115
		c0.189-0.023,0.426-0.035,0.709-0.035c0.308,0,0.556,0.012,0.744,0.035c0.189,0.024,0.328,0.068,0.417,0.133
		s0.136,0.145,0.142,0.239s-0.021,0.207-0.079,0.337L13.151,18.856z"/>
	<path d="M32.95,27.896c0,0.331-0.018,0.608-0.053,0.833s-0.088,0.405-0.16,0.541c-0.07,0.136-0.152,0.233-0.248,0.292
		c-0.094,0.06-0.193,0.089-0.301,0.089h-5.512v6.009c0,0.118-0.031,0.222-0.09,0.311s-0.158,0.166-0.301,0.23
		c-0.143,0.065-0.33,0.115-0.567,0.15c-0.236,0.035-0.532,0.054-0.887,0.054s-0.649-0.019-0.886-0.054s-0.426-0.085-0.567-0.15
		c-0.142-0.064-0.245-0.142-0.311-0.23c-0.064-0.089-0.098-0.192-0.098-0.311v-6.009h-5.494c-0.106,0-0.204-0.029-0.293-0.089
		c-0.089-0.059-0.168-0.156-0.239-0.292s-0.127-0.316-0.168-0.541c-0.042-0.225-0.062-0.502-0.062-0.833
		c0-0.319,0.018-0.594,0.054-0.824c0.035-0.23,0.085-0.413,0.15-0.55c0.064-0.136,0.139-0.232,0.222-0.292
		c0.082-0.06,0.177-0.089,0.283-0.089h5.548V20.15c0-0.118,0.033-0.228,0.098-0.328c0.065-0.101,0.169-0.183,0.311-0.249
		c0.142-0.064,0.331-0.115,0.567-0.15c0.236-0.036,0.531-0.053,0.886-0.053s0.65,0.018,0.887,0.053
		c0.237,0.035,0.425,0.086,0.567,0.15c0.143,0.065,0.242,0.148,0.301,0.249c0.059,0.1,0.09,0.209,0.09,0.328v5.991h5.564
		c0.096,0,0.188,0.029,0.275,0.089s0.166,0.156,0.23,0.292c0.064,0.137,0.115,0.319,0.15,0.55S32.95,27.577,32.95,27.896z"/>
	<path d="M40.945,15.116c0,0.449-0.021,0.863-0.062,1.241c-0.042,0.378-0.109,0.739-0.204,1.082s-0.222,0.673-0.381,0.993
		c-0.16,0.319-0.352,0.644-0.576,0.975l-2.287,3.386c-0.07,0.118-0.153,0.219-0.248,0.301c-0.095,0.083-0.21,0.15-0.346,0.204
		c-0.136,0.053-0.295,0.092-0.479,0.115s-0.41,0.035-0.683,0.035c-0.307,0-0.558-0.012-0.753-0.035s-0.337-0.068-0.426-0.133
		c-0.088-0.065-0.136-0.145-0.142-0.239s0.021-0.213,0.08-0.354l2.092-4.822v-2.748c0-0.401,0.041-0.724,0.124-0.966
		c0.082-0.242,0.215-0.428,0.398-0.559c0.184-0.13,0.42-0.215,0.709-0.257c0.29-0.042,0.63-0.062,1.02-0.062
		s0.721,0.021,0.992,0.062c0.272,0.042,0.493,0.127,0.665,0.257c0.171,0.13,0.298,0.316,0.381,0.559S40.945,14.715,40.945,15.116z
		 M47.894,15.116c0,0.449-0.021,0.863-0.062,1.241c-0.042,0.378-0.109,0.739-0.204,1.082s-0.219,0.673-0.372,0.993
		c-0.153,0.319-0.349,0.644-0.585,0.975l-2.269,3.386c-0.083,0.118-0.169,0.219-0.257,0.301c-0.089,0.083-0.201,0.15-0.337,0.204
		c-0.137,0.053-0.299,0.092-0.487,0.115c-0.189,0.023-0.42,0.035-0.691,0.035c-0.308,0-0.556-0.012-0.745-0.035
		c-0.188-0.023-0.327-0.068-0.416-0.133c-0.089-0.065-0.136-0.145-0.142-0.239c-0.007-0.095,0.015-0.213,0.062-0.354l2.092-4.822
		v-2.748c0-0.401,0.044-0.724,0.133-0.966s0.222-0.428,0.398-0.559c0.178-0.13,0.411-0.215,0.7-0.257
		c0.29-0.042,0.63-0.062,1.02-0.062s0.721,0.021,0.993,0.062c0.271,0.042,0.493,0.127,0.664,0.257
		c0.172,0.13,0.299,0.316,0.381,0.559C47.852,14.393,47.894,14.715,47.894,15.116z"/>
</g>
</svg>
