<?xml version="1.0" encoding="utf-8"?>
<!-- Generator: Adobe Illustrator 15.0.2, SVG Export Plug-In . SVG Version: 6.00 Build 0)  -->
<!DOCTYPE svg PUBLIC "-//W3C//DTD SVG 1.1//EN" "http://www.w3.org/Graphics/SVG/1.1/DTD/svg11.dtd">
<svg version="1.1" id="Laag_1" xmlns="http://www.w3.org/2000/svg" xmlns:xlink="http://www.w3.org/1999/xlink" x="0px" y="0px"
	 width="49.947px" height="49.947px" viewBox="0 0 49.947 49.947" enable-background="new 0 0 49.947 49.947" xml:space="preserve">
<g>
	<path d="M4.28,20.986v1.901c0,0.278-0.031,0.501-0.092,0.668c-0.061,0.168-0.155,0.297-0.282,0.387
		c-0.127,0.09-0.289,0.149-0.485,0.178s-0.429,0.043-0.699,0.043s-0.499-0.014-0.687-0.043s-0.341-0.088-0.46-0.178
		s-0.207-0.219-0.264-0.387c-0.057-0.167-0.086-0.39-0.086-0.668c0-0.311,0.014-0.597,0.043-0.858s0.076-0.511,0.141-0.749
		s0.153-0.466,0.264-0.687s0.243-0.445,0.399-0.675l1.57-2.343c0.057-0.082,0.117-0.151,0.178-0.208
		c0.061-0.057,0.139-0.104,0.233-0.141c0.094-0.037,0.207-0.063,0.337-0.08s0.29-0.025,0.479-0.025c0.212,0,0.384,0.008,0.515,0.025
		c0.13,0.017,0.229,0.047,0.294,0.092c0.065,0.045,0.098,0.1,0.098,0.166c0,0.066-0.017,0.144-0.049,0.233L4.28,20.986z
		 M9.101,20.986v1.901c0,0.278-0.031,0.501-0.092,0.668c-0.061,0.168-0.155,0.297-0.282,0.387c-0.127,0.09-0.291,0.149-0.491,0.178
		c-0.201,0.029-0.432,0.043-0.693,0.043c-0.27,0-0.499-0.014-0.687-0.043c-0.188-0.029-0.343-0.088-0.466-0.178
		s-0.211-0.219-0.264-0.387c-0.053-0.167-0.08-0.39-0.08-0.668c0-0.311,0.014-0.597,0.043-0.858s0.076-0.511,0.141-0.749
		s0.153-0.466,0.264-0.687s0.243-0.445,0.399-0.675l1.558-2.343c0.057-0.082,0.117-0.151,0.178-0.208
		c0.061-0.057,0.139-0.104,0.233-0.141c0.094-0.037,0.207-0.063,0.337-0.08s0.294-0.025,0.491-0.025
		c0.212,0,0.384,0.008,0.515,0.025s0.227,0.047,0.288,0.092c0.062,0.045,0.094,0.1,0.098,0.166c0.004,0.066-0.014,0.144-0.055,0.233
		L9.101,20.986z"/>
	<path d="M19.687,30.787c0,0.622-0.116,1.17-0.35,1.645c-0.233,0.474-0.562,0.871-0.987,1.189c-0.425,0.319-0.928,0.559-1.509,0.718
		s-1.21,0.239-1.889,0.239c-0.409,0-0.799-0.03-1.171-0.092s-0.706-0.14-1-0.233s-0.54-0.19-0.736-0.288
		c-0.196-0.099-0.339-0.19-0.429-0.276c-0.09-0.086-0.16-0.221-0.208-0.404c-0.049-0.185-0.074-0.456-0.074-0.816
		c0-0.236,0.008-0.427,0.024-0.57c0.017-0.143,0.041-0.258,0.074-0.343c0.033-0.086,0.074-0.144,0.123-0.172
		c0.049-0.029,0.11-0.043,0.184-0.043c0.09,0,0.223,0.051,0.398,0.153s0.395,0.215,0.657,0.337c0.261,0.123,0.566,0.237,0.914,0.344
		s0.742,0.159,1.184,0.159c0.278,0,0.525-0.028,0.742-0.086c0.217-0.057,0.405-0.139,0.564-0.245s0.28-0.241,0.362-0.404
		c0.082-0.164,0.123-0.352,0.123-0.564c0-0.246-0.076-0.456-0.227-0.632c-0.152-0.176-0.352-0.329-0.601-0.46
		c-0.25-0.131-0.532-0.254-0.847-0.368s-0.638-0.241-0.969-0.38c-0.331-0.14-0.654-0.299-0.969-0.479
		c-0.315-0.18-0.597-0.401-0.847-0.663s-0.45-0.576-0.601-0.944s-0.227-0.81-0.227-1.324c0-0.524,0.102-1.004,0.307-1.442
		c0.204-0.438,0.499-0.812,0.883-1.123c0.384-0.311,0.853-0.552,1.405-0.724c0.552-0.172,1.171-0.257,1.858-0.257
		c0.343,0,0.677,0.024,1,0.073c0.323,0.049,0.615,0.11,0.877,0.184s0.482,0.153,0.662,0.239c0.18,0.086,0.309,0.16,0.387,0.221
		c0.078,0.062,0.133,0.123,0.166,0.184s0.057,0.135,0.074,0.221c0.016,0.086,0.03,0.192,0.043,0.319
		c0.012,0.127,0.018,0.285,0.018,0.473c0,0.221-0.006,0.4-0.018,0.54c-0.013,0.139-0.033,0.25-0.062,0.331
		c-0.029,0.082-0.067,0.137-0.117,0.166c-0.049,0.028-0.106,0.042-0.171,0.042c-0.074,0-0.188-0.042-0.344-0.128
		s-0.35-0.178-0.583-0.276c-0.233-0.098-0.503-0.19-0.81-0.276s-0.656-0.129-1.049-0.129c-0.278,0-0.52,0.029-0.724,0.086
		c-0.205,0.058-0.373,0.139-0.503,0.246c-0.131,0.106-0.229,0.231-0.294,0.374c-0.066,0.143-0.098,0.296-0.098,0.459
		c0,0.254,0.078,0.467,0.233,0.639s0.36,0.323,0.613,0.453c0.253,0.132,0.542,0.254,0.865,0.368c0.323,0.115,0.65,0.239,0.981,0.374
		c0.331,0.136,0.658,0.293,0.981,0.473c0.323,0.18,0.611,0.4,0.865,0.662s0.458,0.575,0.613,0.938
		C19.609,29.857,19.687,30.289,19.687,30.787z"/>
	<path d="M28.2,32.8c0,0.359-0.022,0.636-0.067,0.827c-0.045,0.192-0.104,0.327-0.178,0.405c-0.074,0.078-0.183,0.147-0.325,0.208
		c-0.144,0.062-0.311,0.115-0.503,0.16s-0.4,0.079-0.626,0.104c-0.225,0.024-0.451,0.036-0.681,0.036
		c-0.613,0-1.145-0.077-1.595-0.232s-0.822-0.395-1.116-0.718s-0.511-0.73-0.65-1.221c-0.139-0.491-0.208-1.071-0.208-1.742v-5.606
		h-1.312c-0.156,0-0.274-0.096-0.356-0.288c-0.082-0.192-0.123-0.513-0.123-0.963c0-0.237,0.01-0.438,0.031-0.601
		c0.02-0.164,0.051-0.292,0.092-0.386c0.041-0.094,0.092-0.162,0.153-0.203s0.133-0.062,0.215-0.062h1.3v-2.441
		c0-0.082,0.022-0.155,0.067-0.221s0.126-0.121,0.245-0.166s0.278-0.078,0.479-0.098s0.448-0.031,0.742-0.031
		c0.302,0,0.554,0.01,0.754,0.031c0.2,0.021,0.358,0.053,0.472,0.098c0.115,0.045,0.196,0.1,0.246,0.166
		c0.049,0.065,0.073,0.139,0.073,0.221v2.441h2.38c0.081,0,0.153,0.021,0.214,0.062c0.062,0.041,0.112,0.108,0.153,0.203
		c0.041,0.094,0.072,0.223,0.093,0.386c0.02,0.164,0.03,0.364,0.03,0.601c0,0.45-0.041,0.771-0.123,0.963
		c-0.081,0.192-0.2,0.288-0.355,0.288h-2.392v5.14c0,0.597,0.094,1.045,0.283,1.343c0.188,0.299,0.523,0.448,1.006,0.448
		c0.163,0,0.311-0.015,0.441-0.043s0.247-0.062,0.35-0.099c0.102-0.036,0.188-0.069,0.258-0.098
		c0.069-0.028,0.133-0.043,0.189-0.043c0.05,0,0.097,0.015,0.142,0.043s0.079,0.086,0.104,0.172c0.024,0.086,0.047,0.202,0.067,0.35
		C28.189,32.382,28.2,32.57,28.2,32.8z"/>
	<path d="M37.462,23.955c0,0.294-0.008,0.536-0.024,0.724s-0.041,0.335-0.073,0.441c-0.033,0.106-0.076,0.18-0.129,0.221
		c-0.054,0.041-0.121,0.061-0.202,0.061c-0.065,0-0.14-0.014-0.221-0.043c-0.082-0.028-0.174-0.059-0.276-0.092
		s-0.215-0.063-0.337-0.092c-0.123-0.028-0.258-0.043-0.405-0.043c-0.172,0-0.344,0.035-0.516,0.104
		c-0.171,0.07-0.35,0.178-0.533,0.326c-0.184,0.146-0.376,0.343-0.576,0.588c-0.201,0.246-0.416,0.548-0.645,0.908v6.82
		c0,0.082-0.024,0.153-0.073,0.215s-0.133,0.112-0.252,0.153c-0.118,0.041-0.275,0.071-0.472,0.092s-0.446,0.03-0.749,0.03
		c-0.302,0-0.552-0.01-0.748-0.03s-0.354-0.051-0.472-0.092c-0.119-0.041-0.203-0.092-0.252-0.153s-0.073-0.133-0.073-0.215V22.937
		c0-0.082,0.021-0.153,0.062-0.215c0.04-0.062,0.114-0.112,0.221-0.153c0.105-0.041,0.243-0.072,0.41-0.092
		c0.168-0.02,0.379-0.03,0.632-0.03c0.262,0,0.479,0.01,0.65,0.03c0.172,0.021,0.305,0.051,0.398,0.092s0.162,0.092,0.203,0.153
		c0.04,0.062,0.061,0.133,0.061,0.215v1.361c0.286-0.409,0.557-0.746,0.81-1.012c0.254-0.266,0.495-0.477,0.725-0.632
		c0.229-0.155,0.457-0.264,0.687-0.325c0.229-0.062,0.458-0.092,0.687-0.092c0.106,0,0.222,0.006,0.344,0.018
		c0.123,0.012,0.249,0.033,0.381,0.062c0.13,0.029,0.245,0.061,0.343,0.098c0.099,0.037,0.17,0.076,0.215,0.117
		s0.078,0.085,0.099,0.135c0.02,0.049,0.038,0.117,0.055,0.202c0.017,0.086,0.028,0.215,0.037,0.387
		C37.458,23.427,37.462,23.661,37.462,23.955z"/>
	<path d="M43.632,18.398c0,0.311-0.015,0.597-0.043,0.859s-0.076,0.511-0.141,0.748c-0.066,0.237-0.153,0.466-0.265,0.687
		c-0.11,0.221-0.243,0.446-0.398,0.675l-1.582,2.343c-0.049,0.082-0.106,0.151-0.172,0.208c-0.065,0.058-0.146,0.104-0.239,0.141
		c-0.094,0.037-0.204,0.063-0.331,0.08c-0.127,0.016-0.284,0.024-0.473,0.024c-0.213,0-0.386-0.008-0.521-0.024
		c-0.135-0.017-0.232-0.047-0.294-0.092s-0.094-0.1-0.099-0.166c-0.004-0.065,0.015-0.147,0.056-0.245l1.447-3.337v-1.901
		c0-0.278,0.028-0.5,0.086-0.668c0.058-0.167,0.149-0.296,0.276-0.386c0.126-0.09,0.29-0.149,0.49-0.178
		c0.2-0.028,0.436-0.043,0.705-0.043c0.271,0,0.499,0.015,0.688,0.043c0.188,0.029,0.341,0.088,0.46,0.178
		c0.118,0.09,0.206,0.219,0.264,0.386C43.602,17.897,43.632,18.12,43.632,18.398z M48.44,18.398c0,0.311-0.015,0.597-0.043,0.859
		s-0.076,0.511-0.141,0.748c-0.066,0.237-0.152,0.466-0.258,0.687c-0.106,0.221-0.241,0.446-0.405,0.675l-1.57,2.343
		c-0.057,0.082-0.116,0.151-0.178,0.208c-0.062,0.058-0.139,0.104-0.232,0.141c-0.095,0.037-0.207,0.063-0.338,0.08
		c-0.131,0.016-0.29,0.024-0.479,0.024c-0.213,0-0.384-0.008-0.515-0.024c-0.131-0.017-0.228-0.047-0.289-0.092
		c-0.061-0.045-0.094-0.1-0.098-0.166s0.01-0.147,0.043-0.245l1.447-3.337v-1.901c0-0.278,0.031-0.5,0.092-0.668
		c0.062-0.167,0.153-0.296,0.276-0.386s0.284-0.149,0.484-0.178c0.2-0.028,0.436-0.043,0.705-0.043c0.271,0,0.499,0.015,0.688,0.043
		c0.188,0.029,0.341,0.088,0.46,0.178c0.118,0.09,0.206,0.219,0.264,0.386C48.412,17.897,48.44,18.12,48.44,18.398z"/>
</g>
</svg>
