<?xml version="1.0" encoding="utf-8"?>
<!-- Generator: Adobe Illustrator 15.0.0, SVG Export Plug-In . SVG Version: 6.00 Build 0)  -->
<!DOCTYPE svg PUBLIC "-//W3C//DTD SVG 1.1//EN" "http://www.w3.org/Graphics/SVG/1.1/DTD/svg11.dtd">
<svg version="1.1" id="Layer_2" xmlns="http://www.w3.org/2000/svg" xmlns:xlink="http://www.w3.org/1999/xlink" x="0px" y="0px"
	 width="128px" height="128px" viewBox="0 0 128 128" enable-background="new 0 0 128 128" xml:space="preserve">
<path d="M127.916,77.346l-21.305-21.307v10.652H85.305V34.732L53.346,2.775H0.083v122.45h85.222V87.998h21.309v10.648
	L127.916,77.346z M16.542,119.898H5.411v-6.229h11.131V119.898z M16.542,108.344H5.411V95.268h11.131V108.344z M16.542,89.941H5.411
	V76.865h11.131V89.941z M16.542,71.54H5.411V58.464h11.131V71.54z M16.542,53.137H5.411V40.061h11.131V53.137z M48.021,119.898
	H21.869v-6.229h26.152V119.898z M48.021,108.344H21.869V95.268h26.152V108.344z M48.021,89.941H21.869V76.865h26.152V89.941z
	 M48.021,71.54H21.869V58.464h26.152V71.54z M48.021,53.137H21.869V40.061h26.152V53.137z M48.021,34.733H21.869V21.657h-5.327
	v13.076H5.411V21.657h11.131V8.103h5.327v13.554h26.152V34.733z M79.5,119.898H53.348v-6.229H79.5V119.898z M79.5,108.344H53.348
	V95.268H79.5V108.344z M79.5,89.941H53.348V76.865H79.5V89.941z M79.5,71.54H53.348V58.464H79.5V71.54z M79.5,53.137H53.348V40.061
	H79.5V53.137z M53.348,34.734L53.348,34.734V8.103l26.63,26.631H53.348z"/>
</svg>
