<?xml version="1.0" encoding="utf-8"?>
<!-- Generator: Adobe Illustrator 15.0.0, SVG Export Plug-In . SVG Version: 6.00 Build 0)  -->
<svg version="1.2" baseProfile="tiny" id="Layer_2" xmlns="http://www.w3.org/2000/svg" xmlns:xlink="http://www.w3.org/1999/xlink"
	 x="0px" y="0px" width="128px" height="128px" viewBox="0 0 128 128" overflow="inherit" xml:space="preserve">
<polygon points="3.165,2 0,2 0,5.186 0,12 11,12 11,2 "/>
<path d="M128.304,76.846L107,55.539V66H86V34.232L53.846,2H51H34v10h-3V2H14v10h-3v3H0v7h11v3H0v7h11v3H0v7h11v3H0v7h11v3H0v7h11v3
	H0v7h11v3H0v7h11v3H0v7h11v3H0v7h11v3H0v7h11v3H0v7h11v3h1h2h17h3h17h35V87h21v11.146L128.304,76.846z M31,122H14v-7h17V122z
	 M31,112H14v-7h17V112z M31,102H14v-7h17V102z M31,92H14v-7h17V92z M31,82H14v-7h17V82z M31,72H14v-7h17V72z M31,62H14v-7h17V62z
	 M31,52H14v-7h17V52z M31,42H14v-7h17V42z M31,32H14v-7h17V32z M31,22H14v-7h17V22z M51,122H34v-7h17V122z M51,112H34v-7h17V112z
	 M51,102H34v-7h17V102z M51,92H34v-7h17V92z M51,82H34v-7h17V82z M51,72H34v-7h17V72z M51,62H34v-7h17V62z M51,52H34v-7h17V52z
	 M51,42H34v-7h17V42z M51,32H34v-7h17V32z M51,22H34v-7h17V22z M71,122H54v-7h17V122z M71,112H54v-7h17V112z M71,102H54v-7h17V102z
	 M71,92H54v-7h17V92z M71,82H54v-7h17V82z M71,72H54v-7h17V72z M71,62H54v-7h17V62z M71,52H54v-7h17V52z M71,42H54v-7h17V42z M54,32
	V7.602L78.375,32H54z"/>
</svg>
