<?xml version="1.0" encoding="utf-8"?>
<!-- Generator: Adobe Illustrator 15.0.0, SVG Export Plug-In . SVG Version: 6.00 Build 0)  -->
<!DOCTYPE svg PUBLIC "-//W3C//DTD SVG 1.1//EN" "http://www.w3.org/Graphics/SVG/1.1/DTD/svg11.dtd">
<svg version="1.1" id="Laag_1" xmlns="http://www.w3.org/2000/svg" xmlns:xlink="http://www.w3.org/1999/xlink" x="0px" y="0px"
	 width="128px" height="128px" viewBox="-39.027 -39.027 128 128" enable-background="new -39.027 -39.027 128 128"
	 xml:space="preserve">
<path d="M6.497,52.016c-25.102,0-45.523-20.422-45.523-45.524c0-25.1,20.421-45.519,45.523-45.519
	c25.098,0.004,45.52,20.426,45.52,45.523c0,11.75-4.468,22.903-12.574,31.407C30.771,47.002,19.071,52.016,6.497,52.016z
	 M6.497-30.469c-20.382,0-36.965,16.582-36.965,36.961c0,20.382,16.583,36.965,36.965,36.965c10.208,0,19.709-4.07,26.752-11.458
	c6.582-6.905,10.209-15.963,10.209-25.503C43.458-13.883,26.877-30.464,6.497-30.469z"/>
<rect x="32.028" y="53.404" transform="matrix(0.7071 0.7071 -0.7071 0.7071 61.7947 -25.2633)" width="58.73" height="17.114"/>
</svg>
