<?xml version="1.0" encoding="utf-8"?>
<!-- Generator: Adobe Illustrator 13.0.1, SVG Export Plug-In . SVG Version: 6.00 Build 14948)  -->
<svg version="1.2" baseProfile="tiny" id="Laag_1" xmlns="http://www.w3.org/2000/svg" xmlns:xlink="http://www.w3.org/1999/xlink"
	 x="0px" y="0px" width="180.279px" height="133.442px" viewBox="0 0 180.279 133.442" xml:space="preserve">
<path stroke="#FFFFFF" d="M168.914,26.503c23.539,20.237,3.398,34.751-9.5,38.5c-16.303,4.739-24.274,11.801-23,17.5
	c1.441,6.443,14.656,3.405,23,1.5c6.233-1.423,30.818,1.983,9,23.5c-26.433,26.068-79.989,28.993-106.5,22.5c-24.5-6-66-29-61-72
	s56.474-57.765,89.5-57.5C115.442,0.705,146.387,7.137,168.914,26.503z M129.733,37.263c-8.711,0-15.772,4.277-15.772,9.552
	s7.062,9.552,15.772,9.552s15.772-4.277,15.772-9.552S138.444,37.263,129.733,37.263z"/>
</svg>
