<?xml version="1.0" encoding="utf-8"?>
<!-- Generator: Adobe Illustrator 13.0.1, SVG Export Plug-In . SVG Version: 6.00 Build 14948)  -->
<!DOCTYPE svg PUBLIC "-//W3C//DTD SVG 1.1 Basic//EN" "http://www.w3.org/Graphics/SVG/1.1/DTD/svg11-basic.dtd">
<svg version="1.1" baseProfile="basic" id="Laag_1" xmlns="http://www.w3.org/2000/svg" xmlns:xlink="http://www.w3.org/1999/xlink"
	 x="0px" y="0px" width="124.079px" height="90.006px" viewBox="0 0 124.079 90.006" xml:space="preserve">
<g>
	<defs>
		<rect id="SVGID_1_" x="0" width="124.078" height="90.006"/>
	</defs>
	<clipPath id="SVGID_2_">
		<use xlink:href="#SVGID_1_"  overflow="visible"/>
	</clipPath>
	
		<circle clip-path="url(#SVGID_2_)" fill="none" stroke="#010101" stroke-width="6" stroke-linecap="round" stroke-miterlimit="10" cx="44.552" cy="80.466" r="6.54"/>
	
		<circle clip-path="url(#SVGID_2_)" fill="none" stroke="#010101" stroke-width="6" stroke-linecap="round" stroke-miterlimit="10" cx="66.559" cy="57.863" r="6.54"/>
	
		<circle clip-path="url(#SVGID_2_)" fill="none" stroke="#010101" stroke-width="6" stroke-linecap="round" stroke-miterlimit="10" cx="56.312" cy="25.844" r="6.54"/>
	
		<circle clip-path="url(#SVGID_2_)" fill="none" stroke="#010101" stroke-width="6" stroke-linecap="round" stroke-miterlimit="10" cx="81.421" cy="9.539" r="6.54"/>
	
		<circle clip-path="url(#SVGID_2_)" fill="none" stroke="#010101" stroke-width="6" stroke-linecap="round" stroke-miterlimit="10" cx="114.539" cy="12.765" r="6.54"/>
	
		<circle clip-path="url(#SVGID_2_)" fill="none" stroke="#010101" stroke-width="6" stroke-linecap="round" stroke-miterlimit="10" cx="9.54" cy="66.554" r="6.54"/>
	<path clip-path="url(#SVGID_2_)" fill="none" stroke="#010101" stroke-width="8" stroke-miterlimit="10" d="M88.64,9.619
		c6.625-0.317,13.123,0.332,18.325,1.468"/>
	<path clip-path="url(#SVGID_2_)" fill="none" stroke="#010101" stroke-width="8" stroke-miterlimit="10" d="M61.082,19.017
		c2.22-1.86,5.299-3.7,9.458-5.527c1.323-0.581,2.697-1.09,4.107-1.531"/>
	<path clip-path="url(#SVGID_2_)" fill="none" stroke="#010101" stroke-width="8" stroke-miterlimit="10" d="M65.304,49.516
		c-2.281-5.526-6.126-10.764-8.028-15.794"/>
	<path clip-path="url(#SVGID_2_)" fill="none" stroke="#010101" stroke-width="8" stroke-miterlimit="10" d="M51.385,77.921
		c4.683-2.147,9.023-5.733,12.685-11.047c0.433-0.628,0.813-1.252,1.146-1.872"/>
	<path clip-path="url(#SVGID_2_)" fill="none" stroke="#010101" stroke-width="8" stroke-miterlimit="10" d="M15.495,71.969
		c6.365,4.641,13.765,7.738,21.145,8.376"/>
</g>
</svg>
