<?xml version="1.0" encoding="utf-8"?>
<!-- Generator: Adobe Illustrator 13.0.1, SVG Export Plug-In . SVG Version: 6.00 Build 14948)  -->
<svg version="1.2" baseProfile="tiny" id="Laag_1" xmlns="http://www.w3.org/2000/svg" xmlns:xlink="http://www.w3.org/1999/xlink"
	 x="0px" y="0px" width="246.964px" height="213.555px" viewBox="0 0 246.964 213.555" xml:space="preserve">
<g>
	<path d="M25.946,101.85v8.745h-5.569c-1.282,2.49-2.508,5.164-3.668,7.999h17.238v-3.999V93.463
		C30.941,96.106,28.252,98.915,25.946,101.85z M29.947,114.594v-4V114.594z"/>
	<path d="M7.999,92.648h7.156c2.244-2.814,4.73-5.479,7.414-7.999H0v33.944h1.545c1.93-5.318,4.09-10.302,6.454-14.875V92.648z"/>
	<path d="M33.947,93.463c4.72-4.15,10.223-7.889,16.32-11.03C63.404,75.64,79.15,71.62,94.88,71.63
		c14.61,0.014,35.067,4.586,59.173,25.627v-12.61h6.527C130.487,60,111.381,57.441,94.88,57.455
		c-18.125,0.011-35.928,4.551-51.118,12.385c-7.873,4.076-15.061,9.05-21.194,14.809h11.378V93.463z"/>
	<path d="M154.054,97.257c2.754,1.643,5.422,3.495,8,5.54v-10.15h10.021c-3.677-3.023-7.521-5.684-11.493-8h-6.527V97.257z"/>
	<path d="M15.155,92.648h10.791v9.202c2.307-2.936,4.995-5.744,8.001-8.387v-8.814H22.569
		C19.885,87.168,17.399,89.834,15.155,92.648z"/>
	<path d="M20.376,110.595H7.999v-6.876c-2.363,4.573-4.524,9.557-6.454,14.875h15.163C17.869,115.759,19.094,113.084,20.376,110.595
		z"/>
</g>
<g>
	<path d="M188,84.647h-27.419c3.973,2.316,7.816,4.977,11.493,8h7.924l0.001,11l8.001,6.647V84.647z"/>
	<path d="M162.054,110.594v-7.796c-2.578-2.045-5.246-3.897-8-5.54v21.336h21.194l-1.656-8H162.054z"/>
	<path fill="#FFFFFF" d="M184.001,114.594v-4V114.594z"/>
</g>
<polygon points="176.486,105.027 246.964,163.583 221.105,170.918 245.222,206.875 234.102,213.555 213.691,175.372 
	195.066,194.753 "/>
<line fill="none" stroke="#000000" stroke-width="7" x1="158.596" y1="87.568" x2="84.542" y2="10.271"/>
<circle cx="84.542" cy="10.271" r="10.271"/>
</svg>
