<?xml version="1.0" encoding="utf-8"?>
<!-- Generator: Adobe Illustrator 13.0.1, SVG Export Plug-In . SVG Version: 6.00 Build 14948)  -->
<svg version="1.2" baseProfile="tiny" id="Laag_1" xmlns="http://www.w3.org/2000/svg" xmlns:xlink="http://www.w3.org/1999/xlink"
	 x="0px" y="0px" width="128.434px" height="128.434px" viewBox="0 0 128.434 128.434" xml:space="preserve">
<path fill="none" stroke="#000000" stroke-width="6" stroke-miterlimit="1" d="M66.304,55.863"/>
<path fill="none" stroke="#000000" stroke-width="6" stroke-linecap="round" stroke-miterlimit="2" d="M25.279,16.289
	c-1.948,1.131-4.112,5.695-5.519,7.581c-2.958,3.965-7.887,12.513-3.928,17.388c4.291,5.283,11.251-0.675,14.853-3.338
	c7.842-5.798,15.268-12.694,24.228-16.677c4.486-1.995,8.852-3.229,13.723-3.894c3.183-0.435,9.876-1.528,12.157,1.7
	c2.467,3.493-1.562,8.546-3.666,11.151c-3.755,4.646-8.388,8.586-13.216,12.056c-4.882,3.507-9.123,7.605-15.153,8.989"/>
<g>
	<path stroke="#000000" stroke-width="2" d="M55.909,61.024l-4.855-4.855c-1.111-1.111-1.642-2.386-1.182-2.845l0.811-0.812
		c0.459-0.459,1.733,0.07,2.846,1.184l4.854,4.854"/>
	<path fill="none" stroke="#000000" stroke-width="6" stroke-linecap="round" stroke-miterlimit="2" d="M113.139,105.463
		L75.805,68.129c-2.018-2.018-6.081-1.227-9.075,1.768s-3.785,7.057-1.768,9.074l37.917,37.918"/>
	
		<ellipse transform="matrix(0.7071 -0.7071 0.7071 0.7071 -44.5452 103.0556)" stroke="#000000" stroke-width="6" stroke-linecap="round" stroke-miterlimit="2" cx="102.135" cy="105.302" rx="7.667" ry="5.166"/>
	
		<ellipse transform="matrix(0.7071 -0.7071 0.7071 0.7071 -47.6857 110.6372)" fill="none" stroke="#000000" stroke-width="6" stroke-linecap="round" stroke-miterlimit="2" cx="109.717" cy="112.884" rx="7.667" ry="5.166"/>
	<path fill="none" stroke="#000000" stroke-width="6" stroke-linecap="round" stroke-miterlimit="2" d="M63.884,78.051l-8.012-13.18
		c-1.317-2.825-1.558-3.727,0.607-5.892c2.166-2.166,3.411-1.079,5.404-0.096l12.667,8.167"/>
</g>
</svg>
