<?xml version="1.0" encoding="utf-8"?>
<!-- Generator: Adobe Illustrator 13.0.1, SVG Export Plug-In . SVG Version: 6.00 Build 14948)  -->
<svg version="1.2" baseProfile="tiny" id="Laag_1" xmlns="http://www.w3.org/2000/svg" xmlns:xlink="http://www.w3.org/1999/xlink"
	 x="0px" y="0px" width="223.817px" height="224.023px" viewBox="0 0 223.817 224.023" xml:space="preserve">
<path d="M60.898,56.838c0,2.242-1.817,4.06-4.061,4.06H4.061C1.817,60.898,0,59.081,0,56.838V4.06C0,1.817,1.817,0,4.061,0h52.777
	c2.244,0,4.061,1.817,4.061,4.06V56.838z"/>
<path d="M223.817,56.838c0,2.242-1.817,4.06-4.061,4.06h-52.777c-2.244,0-4.061-1.817-4.061-4.06V4.06
	c0-2.242,1.817-4.06,4.061-4.06h52.777c2.244,0,4.061,1.817,4.061,4.06V56.838z"/>
<path d="M223.817,219.964c0,2.242-1.817,4.06-4.061,4.06h-52.777c-2.244,0-4.061-1.817-4.061-4.06v-52.779
	c0-2.242,1.817-4.06,4.061-4.06h52.777c2.244,0,4.061,1.817,4.061,4.06V219.964z"/>
<line fill="#FFFFFF" stroke="#000000" stroke-width="10" x1="31.773" y1="30.31" x2="195.273" y2="30.31"/>
<path fill="none" stroke="#000000" stroke-width="10" d="M59.786,30.321c0,0,52.324-2.241,52.324,56.062v51.167
	c0,58.303,52.324,56.062,52.324,56.062"/>
</svg>
