<?xml version="1.0" encoding="utf-8"?>
<!-- Generator: Adobe Illustrator 13.0.1, SVG Export Plug-In . SVG Version: 6.00 Build 14948)  -->
<svg version="1.2" baseProfile="tiny" id="Laag_1" xmlns="http://www.w3.org/2000/svg" xmlns:xlink="http://www.w3.org/1999/xlink"
	 x="0px" y="0px" width="412.168px" height="301.622px" viewBox="0 0 412.168 301.622" xml:space="preserve">
<path d="M412.168,150.811l-48.925-48.924v28.383h-61.622V0H0v301.622h301.622v-130.27h61.622v28.383L412.168,150.811z
	 M233.438,56.757l15.822-15.821c2.732-2.734,7.165-2.734,9.899,0c2.733,2.734,2.733,7.167,0,9.901l-15.821,15.821
	c-1.367,1.366-3.158,2.049-4.95,2.049s-3.584-0.683-4.95-2.049C230.706,63.924,230.706,59.491,233.438,56.757z M202.607,26.959
	c0-3.866,3.134-7,7-7c3.868,0,7.001,3.134,6.999,7v22.375c0,3.866-3.134,7-7.001,7c-3.866,0-7-3.134-6.998-7V26.959z
	 M159.734,40.165c2.734-2.734,7.165-2.734,9.899,0l15.822,15.822c2.734,2.734,2.734,7.165,0,9.898
	c-1.367,1.367-3.159,2.051-4.951,2.051s-3.583-0.684-4.951-2.051l-15.819-15.821C157,47.329,157,42.898,159.734,40.165z
	 M184.682,123.77l-15.821,15.82c-1.367,1.367-3.159,2.049-4.95,2.049s-3.583-0.682-4.948-2.049c-2.734-2.732-2.734-7.166,0-9.9
	l15.821-15.818c2.734-2.734,7.167-2.734,9.9,0C187.416,116.606,187.416,121.036,184.682,123.77z M145.754,82.718h22.376
	c3.865,0,7,3.134,7,7c0,3.866-3.134,6.999-7,6.999h-22.376c-3.866,0-7-3.133-7-6.999C138.754,85.853,141.888,82.718,145.754,82.718z
	 M176.903,214.538l-54.953,0.715l-1.539-69.852L176.903,214.538z M106.852,105.436l4.282,117.756l-81.358-0.713L106.852,105.436z
	 M198.559,284.209l-158.792,0.357l-23.551-42.82h200.541L198.559,284.209z M201.515,153.569v-22.375c0-3.865,3.134-7,7-7
	c3.867,0,7.001,3.135,7.001,7l-0.003,22.377c0,3.867-3.133,7-7,7C204.647,160.569,201.513,157.436,201.515,153.569z M207.52,113.532
	c-11.956,0-21.648-9.691-21.648-21.647s9.692-21.647,21.648-21.647s21.646,9.692,21.646,21.647S219.476,113.532,207.52,113.532z
	 M258.389,140.364c-1.367,1.365-3.158,2.049-4.95,2.049c-1.791,0-3.583-0.684-4.95-2.049l-15.821-15.822
	c-2.733-2.734-2.733-7.166,0-9.9c2.733-2.732,7.166-2.732,9.9,0l15.821,15.822C261.123,133.198,261.123,137.629,258.389,140.364z
	 M272.367,97.809H249.99c-3.864,0-6.999-3.135-6.999-7.001s3.135-6.999,7.001-6.999l22.375,0.002c3.866,0,7.001,3.133,7.001,6.999
	C279.366,94.676,276.233,97.809,272.367,97.809z"/>
</svg>
