<?xml version="1.0" encoding="utf-8"?>
<!-- Generator: Adobe Illustrator 13.0.1, SVG Export Plug-In . SVG Version: 6.00 Build 14948)  -->
<svg version="1.2" baseProfile="tiny" id="Laag_1" xmlns="http://www.w3.org/2000/svg" xmlns:xlink="http://www.w3.org/1999/xlink"
	 x="0px" y="0px" width="482.439px" height="301.622px" viewBox="0 0 482.439 301.622" xml:space="preserve">
<g>
	<path d="M482.439,150.811l-48.925-48.924v28.383h-63.243v41.082h63.243v28.383L482.439,150.811z M43.784,130.27H0v41.082h43.784
		v28.383l48.925-48.924l-48.925-48.924V130.27z"/>
</g>
<rect x="92.973" width="301.622" height="301.622"/>
<rect x="131.432" y="133.244" fill="#FFFFFF" width="34.054" height="34.054"/>
<rect x="131.432" y="183.244" fill="#FFFFFF" width="34.054" height="34.054"/>
<rect x="131.432" y="233.244" fill="#FFFFFF" width="34.054" height="34.054"/>
<rect x="131.432" y="85.406" fill="#FFFFFF" width="34.054" height="34.054"/>
<rect x="131.432" y="37.568" fill="#FFFFFF" width="34.054" height="34.054"/>
<rect x="179.54" y="133.244" fill="#FFFFFF" width="34.054" height="34.054"/>
<rect x="179.54" y="183.244" fill="#FFFFFF" width="34.054" height="34.054"/>
<rect x="179.54" y="233.244" fill="#FFFFFF" width="34.054" height="34.054"/>
<rect x="179.54" y="85.406" fill="#FFFFFF" width="34.054" height="34.054"/>
<rect x="179.54" y="37.568" fill="#FFFFFF" width="34.054" height="34.054"/>
<rect x="227.647" y="133.244" fill="#FFFFFF" width="34.054" height="34.054"/>
<rect x="227.647" y="183.244" fill="#FFFFFF" width="34.054" height="34.054"/>
<rect x="227.647" y="233.244" fill="#FFFFFF" width="34.054" height="34.054"/>
<rect x="227.647" y="85.406" fill="#FFFFFF" width="34.054" height="34.054"/>
<rect x="227.647" y="37.568" fill="#FFFFFF" width="34.054" height="34.054"/>
<rect x="275.755" y="133.244" fill="#FFFFFF" width="34.054" height="34.054"/>
<rect x="275.755" y="183.244" fill="#FFFFFF" width="34.054" height="34.054"/>
<rect x="275.755" y="233.244" fill="#FFFFFF" width="34.054" height="34.054"/>
<rect x="275.755" y="85.406" fill="#FFFFFF" width="34.054" height="34.054"/>
<rect x="275.755" y="37.568" fill="#FFFFFF" width="34.054" height="34.054"/>
<rect x="323.863" y="133.244" fill="#FFFFFF" width="34.055" height="34.054"/>
<rect x="323.863" y="183.244" fill="#FFFFFF" width="34.055" height="34.054"/>
<rect x="323.863" y="233.244" fill="#FFFFFF" width="34.055" height="34.054"/>
<rect x="323.863" y="85.406" fill="#FFFFFF" width="34.055" height="34.054"/>
<rect x="323.863" y="37.568" fill="#FFFFFF" width="34.055" height="34.054"/>
</svg>
