<?xml version="1.0" encoding="utf-8"?>
<!-- Generator: Adobe Illustrator 13.0.1, SVG Export Plug-In . SVG Version: 6.00 Build 14948)  -->
<svg version="1.2" baseProfile="tiny" id="Laag_1" xmlns="http://www.w3.org/2000/svg" xmlns:xlink="http://www.w3.org/1999/xlink"
	 x="0px" y="0px" width="149.609px" height="153.039px" viewBox="0 0 149.609 153.039" xml:space="preserve">
<g>
	<path d="M124.673,36.255v32.479H95.527l0.002-3.274l-2.523,0.56c-2.796,1.266-4.24,1.655-6.611,2.132
		c-0.187,0.038-0.381,0.064-0.569,0.098v12.677c4.286-1.947,9.037-3.05,14.053-3.05c14.624,0,27.091,9.22,31.916,22.162h17.814
		V36.255H124.673z"/>
	<path d="M93.677,45.427c1.307-0.381,1.859-0.895,1.851-1.812v-4.504c-0.114,0.166-1.849,0.36-3.664,0.583
		c-2.667,0.326-4.718,0.709-6.038,1.083v5.918c0.792,0.08,1.81-0.114,3.009-0.229C90.411,46.315,91.974,45.924,93.677,45.427z"/>
</g>
<g>
	<path d="M96.932,84.931c-7.087,0-13.666,2.167-19.116,5.871l18.213,31.546H63.045c1.689,17.229,16.214,30.691,33.887,30.691
		c18.808,0,34.055-15.247,34.055-34.054C130.987,100.177,115.74,84.931,96.932,84.931z"/>
</g>
<polygon points="0,116.401 42.339,43.068 84.678,116.401 "/>
<g>
	<path d="M99.798,56.195c-1.049,0.795-2.35,1.754-3.904,2.875c-1.557,1.122-3.02,2.007-4.395,2.658
		c-1.916,0.868-3.904,1.509-5.967,1.925c-2.061,0.416-4.32,0.624-6.779,0.624c-5.787,0-10.631-1.79-14.537-5.37
		s-5.857-8.154-5.857-13.723c0-4.448,0.994-8.082,2.982-10.903c1.988-2.82,4.809-5.044,8.461-6.671
		c3.617-1.627,8.102-2.784,13.453-3.472c5.352-0.687,10.902-1.193,16.652-1.519v-0.326c0-3.363-1.375-5.686-4.123-6.97
		c-2.748-1.283-6.799-1.925-12.15-1.925c-3.219,0-6.654,0.569-10.305,1.708c-3.654,1.139-6.275,2.016-7.865,2.631h-1.791v-14.7
		c2.062-0.542,5.416-1.184,10.062-1.926C78.382,0.371,83.038,0,87.702,0c11.102,0,19.121,1.708,24.057,5.126
		c4.936,3.417,7.404,8.779,7.404,16.083v41.441H99.798V56.195z M99.798,46.716V34.064c-2.639,0.217-5.496,0.515-8.57,0.893
		s-5.406,0.819-6.996,1.325c-1.953,0.613-3.445,1.505-4.475,2.676c-1.031,1.171-1.547,2.712-1.547,4.623
		c0,1.262,0.109,2.289,0.326,3.083c0.217,0.793,0.76,1.55,1.627,2.271c0.832,0.721,1.826,1.252,2.982,1.595
		c1.158,0.343,2.965,0.514,5.426,0.514c1.951,0,3.932-0.396,5.939-1.189C96.517,49.059,98.28,48.014,99.798,46.716z"/>
</g>
</svg>
