<?xml version="1.0" encoding="utf-8"?>
<!-- Generator: Adobe Illustrator 16.0.4, SVG Export Plug-In . SVG Version: 6.00 Build 0)  -->
<svg version="1.2" baseProfile="tiny" id="Laag_1" xmlns="http://www.w3.org/2000/svg" xmlns:xlink="http://www.w3.org/1999/xlink"
	 x="0px" y="0px" width="100px" height="100px" viewBox="0 0 100 100" xml:space="preserve">
<g>
	<polygon fill="#0072BC" points="57.342,18.142 57.342,18.142 57.342,18.142 	"/>
	<path fill="#0072BC" d="M24.896,18.216c0.001-0.039,0.012-0.075,0.017-0.112L24.896,18.216z"/>
	<path fill="#0072BC" d="M81.708,35.22l-15.47-6.726V16.239c0-2.397-1.426-4.565-3.628-5.514l-19.113-8.24
		c-1.128-0.486-2.416-0.607-3.619-0.361c-0.401,0.082-0.792,0.205-1.168,0.366l-19.076,8.199C17.429,11.637,16,13.806,16,16.207
		v21.802c0,2.391,1.418,4.554,3.611,5.507l9.136,3.973c0.78,0.339,1.592,0.5,2.391,0.5c1.448,0,2.853-0.527,3.943-1.473v15.981
		c0,2.397,1.426,4.565,3.627,5.514l19.113,8.24c0.75,0.323,1.569,0.485,2.389,0.485c0.409,0,0.818-0.041,1.218-0.121
		c0.405-0.082,0.801-0.206,1.181-0.369l19.076-8.2c2.205-0.948,3.634-3.117,3.634-5.517V40.727
		C85.319,38.336,83.901,36.173,81.708,35.22z"/>
	<g>
		<path fill="#FFFFFF" d="M80.467,38.076l-17.343-7.54v5.667l12.723,5.561c0.362,0.159,0.597,0.507,0.625,0.897v0.146
			c-0.006,0.086-0.025,0.169-0.05,0.25v17.569l-16.212,6.968l-16.234-6.999V25.612c0-0.222-0.027-0.438-0.075-0.645l12.825-5.781
			c0.359-0.162,0.589-0.51,0.615-0.898v-0.146c-0.029-0.391-0.263-0.739-0.626-0.897l-15.018-6.563
			c-0.269-0.117-0.575-0.118-0.846-0.002l-15.32,6.599c-0.342,0.148-0.567,0.464-0.62,0.825c-0.005,0.038-0.016,0.074-0.017,0.112
			v0.071c0.013,0.407,0.254,0.774,0.63,0.939l12.775,5.615c-0.068,0.246-0.107,0.503-0.107,0.771v36.884
			c0,1.154,0.687,2.198,1.747,2.655l19.113,8.24c0.358,0.154,0.758,0.23,1.156,0.23c0.203,0,0.405-0.02,0.601-0.06
			s0.386-0.099,0.569-0.178l19.077-8.199c1.061-0.456,1.749-1.501,1.749-2.656V40.727C82.206,39.576,81.523,38.535,80.467,38.076z"
			/>
		<path fill="#00BBF2" d="M75.848,41.764l-12.723-5.561v-5.667V16.239c0-1.154-0.687-2.198-1.747-2.655l-19.114-8.24
			c-0.542-0.234-1.183-0.289-1.762-0.17c-0.193,0.04-0.381,0.099-0.562,0.176l-19.076,8.2c-1.062,0.456-1.75,1.5-1.75,2.656v21.802
			c0,1.151,0.683,2.192,1.738,2.651l9.137,3.972c0.375,0.164,0.766,0.241,1.151,0.241c1.116,0,2.18-0.65,2.653-1.739
			c0.637-1.464-0.034-3.167-1.499-3.804l-7.398-3.217V18.287c0-0.013-0.005-0.024-0.005-0.037c0-0.012,0.005-0.022,0.005-0.034
			l0.017-0.112c0.053-0.361,0.278-0.677,0.62-0.825l15.32-6.599c0.271-0.116,0.577-0.115,0.846,0.002l15.018,6.563
			c0.363,0.159,0.597,0.507,0.626,0.897c0.002,0.024,0.01,0.046,0.01,0.07c0,0.026-0.008,0.05-0.01,0.076v18.049l-12.678,5.461
			c-0.342,0.147-0.567,0.464-0.62,0.825c-0.005,0.038-0.016,0.074-0.017,0.113v0.071c0.012,0.407,0.253,0.774,0.629,0.939
			l12.776,5.615l2.544,1.118c0.136,0.06,0.282,0.09,0.427,0.09c0.148,0,0.298-0.032,0.437-0.094l2.193-0.989l12.825-5.781
			c0.279-0.126,0.477-0.366,0.564-0.649c0.024-0.081,0.044-0.164,0.05-0.25v-0.146C76.444,42.271,76.21,41.922,75.848,41.764z"/>
	</g>
	<path fill="#FFFFFF" d="M24.891,18.25c0,0.013,0.005,0.024,0.005,0.037v-0.071C24.896,18.228,24.891,18.238,24.891,18.25z"/>
	<path fill="#FFFFFF" d="M57.342,18.142v0.146c0.002-0.026,0.011-0.05,0.01-0.076C57.352,18.188,57.344,18.166,57.342,18.142z"/>
</g>
<g>
	<path fill="#0072BC" d="M26.433,95.931c0,0.139-0.024,0.262-0.073,0.37c-0.048,0.109-0.113,0.199-0.194,0.271
		c-0.082,0.072-0.178,0.125-0.289,0.158c-0.112,0.033-0.225,0.05-0.339,0.05h-1.012c-0.211,0-0.393-0.021-0.547-0.063
		c-0.153-0.042-0.295-0.119-0.424-0.23c-0.13-0.111-0.255-0.262-0.375-0.452c-0.121-0.19-0.256-0.435-0.407-0.736l-2.909-5.466
		c-0.168-0.325-0.34-0.676-0.515-1.053c-0.175-0.376-0.332-0.742-0.47-1.098h-0.018c0.024,0.434,0.042,0.866,0.054,1.297
		c0.012,0.431,0.018,0.875,0.018,1.332v6.116c0,0.061-0.017,0.115-0.05,0.163s-0.09,0.089-0.171,0.122
		c-0.082,0.033-0.191,0.059-0.33,0.076c-0.138,0.019-0.316,0.028-0.533,0.028c-0.211,0-0.386-0.009-0.524-0.028
		c-0.138-0.018-0.247-0.043-0.325-0.076c-0.079-0.033-0.133-0.074-0.163-0.122c-0.03-0.048-0.045-0.103-0.045-0.163V85.921
		c0-0.283,0.083-0.496,0.249-0.637c0.166-0.142,0.369-0.212,0.61-0.212h1.273c0.229,0,0.422,0.02,0.579,0.059
		c0.156,0.039,0.296,0.104,0.42,0.194c0.124,0.09,0.239,0.215,0.348,0.375c0.108,0.16,0.22,0.357,0.334,0.592l2.276,4.273
		c0.133,0.259,0.264,0.514,0.393,0.763c0.129,0.25,0.254,0.5,0.375,0.75c0.12,0.25,0.238,0.496,0.353,0.736
		c0.114,0.241,0.226,0.482,0.334,0.723h0.009c-0.019-0.421-0.032-0.861-0.041-1.319c-0.009-0.458-0.013-0.895-0.013-1.31v-5.484
		c0-0.06,0.018-0.114,0.054-0.162c0.036-0.048,0.096-0.09,0.181-0.127c0.084-0.036,0.195-0.062,0.334-0.077
		c0.139-0.015,0.316-0.022,0.533-0.022c0.205,0,0.376,0.007,0.515,0.022c0.138,0.015,0.245,0.041,0.32,0.077
		c0.076,0.037,0.128,0.079,0.158,0.127c0.03,0.048,0.045,0.102,0.045,0.162V95.931z"/>
	<path fill="#0072BC" d="M36.994,92.345c0,0.687-0.09,1.313-0.271,1.879c-0.181,0.566-0.455,1.054-0.822,1.463
		c-0.368,0.41-0.828,0.726-1.382,0.949c-0.554,0.223-1.202,0.334-1.942,0.334c-0.717,0-1.34-0.099-1.87-0.298
		c-0.53-0.199-0.97-0.488-1.319-0.867c-0.35-0.379-0.608-0.846-0.777-1.4c-0.169-0.554-0.253-1.187-0.253-1.897
		c0-0.687,0.091-1.314,0.275-1.884c0.184-0.569,0.459-1.057,0.827-1.463c0.367-0.407,0.826-0.721,1.377-0.944
		c0.551-0.223,1.197-0.334,1.938-0.334c0.723,0,1.349,0.098,1.879,0.293c0.53,0.196,0.968,0.483,1.314,0.863
		c0.346,0.379,0.604,0.846,0.772,1.4C36.909,90.992,36.994,91.628,36.994,92.345z M34.654,92.435c0-0.397-0.032-0.763-0.095-1.098
		c-0.063-0.334-0.17-0.625-0.321-0.872c-0.15-0.247-0.351-0.439-0.601-0.578s-0.564-0.208-0.944-0.208
		c-0.338,0-0.633,0.062-0.886,0.185s-0.46,0.304-0.623,0.542c-0.163,0.238-0.285,0.524-0.366,0.858
		c-0.081,0.334-0.122,0.715-0.122,1.143c0,0.397,0.033,0.763,0.1,1.097c0.066,0.334,0.173,0.625,0.321,0.872
		c0.147,0.248,0.348,0.438,0.601,0.574c0.253,0.135,0.566,0.203,0.939,0.203c0.344,0,0.642-0.062,0.895-0.185
		s0.461-0.303,0.624-0.538c0.163-0.235,0.283-0.52,0.361-0.854C34.615,93.243,34.654,92.863,34.654,92.435z"/>
	<path fill="#0072BC" d="M46.435,96.455c0,0.066-0.016,0.122-0.045,0.167c-0.03,0.045-0.082,0.083-0.153,0.113
		c-0.073,0.03-0.17,0.051-0.294,0.063s-0.275,0.019-0.456,0.019c-0.193,0-0.35-0.006-0.47-0.019
		c-0.12-0.012-0.218-0.033-0.293-0.063s-0.129-0.068-0.163-0.113c-0.033-0.045-0.049-0.101-0.049-0.167v-0.894
		c-0.416,0.445-0.851,0.792-1.306,1.039c-0.455,0.247-0.959,0.37-1.513,0.37c-0.614,0-1.134-0.119-1.559-0.357
		c-0.424-0.238-0.771-0.559-1.039-0.962c-0.268-0.404-0.462-0.875-0.583-1.414s-0.181-1.107-0.181-1.703
		c0-0.717,0.077-1.361,0.23-1.934c0.153-0.572,0.378-1.06,0.673-1.463c0.295-0.404,0.663-0.714,1.103-0.931
		c0.439-0.217,0.945-0.325,1.518-0.325c0.452,0,0.861,0.092,1.229,0.275s0.732,0.454,1.093,0.809v-4.364
		c0-0.06,0.017-0.114,0.05-0.163c0.033-0.048,0.093-0.088,0.181-0.122c0.087-0.033,0.203-0.059,0.348-0.077
		c0.145-0.018,0.328-0.027,0.551-0.027c0.223,0,0.406,0.009,0.551,0.027c0.145,0.018,0.259,0.044,0.343,0.077
		c0.084,0.033,0.145,0.074,0.181,0.122c0.037,0.048,0.055,0.103,0.055,0.163V96.455z M44.176,91.071
		c-0.325-0.409-0.637-0.723-0.935-0.939c-0.298-0.217-0.61-0.325-0.935-0.325c-0.295,0-0.55,0.074-0.763,0.221
		c-0.214,0.147-0.386,0.345-0.515,0.592c-0.13,0.247-0.226,0.522-0.289,0.827c-0.063,0.304-0.095,0.616-0.095,0.935
		c0,0.337,0.027,0.666,0.081,0.984c0.054,0.319,0.143,0.604,0.267,0.854s0.288,0.45,0.492,0.601
		c0.205,0.151,0.464,0.226,0.777,0.226c0.156,0,0.308-0.023,0.456-0.068c0.147-0.045,0.298-0.119,0.452-0.221
		c0.153-0.103,0.312-0.236,0.474-0.402c0.163-0.166,0.34-0.369,0.533-0.609V91.071z"/>
	<path fill="#0072BC" d="M56.165,92.191c0,0.277-0.062,0.482-0.185,0.615c-0.124,0.132-0.293,0.198-0.511,0.198h-4.905
		c0,0.343,0.041,0.655,0.122,0.936c0.082,0.28,0.211,0.518,0.389,0.713s0.406,0.345,0.687,0.447c0.28,0.103,0.616,0.154,1.007,0.154
		c0.397,0,0.747-0.029,1.048-0.086c0.302-0.057,0.562-0.121,0.782-0.19s0.402-0.132,0.547-0.189
		c0.144-0.058,0.262-0.086,0.352-0.086c0.054,0,0.1,0.011,0.135,0.032c0.036,0.021,0.066,0.059,0.09,0.113
		c0.024,0.054,0.041,0.131,0.05,0.23c0.009,0.1,0.014,0.225,0.014,0.375c0,0.133-0.003,0.246-0.009,0.339
		c-0.006,0.093-0.016,0.173-0.027,0.239c-0.012,0.066-0.03,0.122-0.054,0.167c-0.024,0.045-0.056,0.089-0.095,0.131
		c-0.039,0.042-0.146,0.099-0.321,0.172c-0.174,0.072-0.398,0.143-0.669,0.212c-0.271,0.069-0.581,0.129-0.93,0.181
		c-0.35,0.051-0.723,0.077-1.12,0.077c-0.717,0-1.345-0.09-1.884-0.271c-0.539-0.181-0.989-0.454-1.351-0.822
		c-0.361-0.367-0.631-0.831-0.809-1.391s-0.267-1.217-0.267-1.97c0-0.717,0.093-1.362,0.28-1.938
		c0.187-0.575,0.458-1.063,0.813-1.463c0.355-0.401,0.787-0.707,1.296-0.917c0.509-0.211,1.083-0.316,1.721-0.316
		c0.674,0,1.251,0.1,1.729,0.298c0.479,0.199,0.872,0.475,1.179,0.827c0.307,0.353,0.533,0.77,0.677,1.251
		c0.146,0.482,0.217,1.006,0.217,1.572V92.191z M53.96,91.541c0.019-0.639-0.11-1.14-0.383-1.504
		c-0.274-0.364-0.698-0.546-1.27-0.546c-0.289,0-0.541,0.054-0.754,0.163s-0.391,0.254-0.533,0.438
		c-0.142,0.184-0.25,0.4-0.325,0.65c-0.075,0.25-0.119,0.517-0.131,0.8H53.96z"/>
	<path fill="#0072BC" d="M66.635,93.257c0,0.416-0.058,0.792-0.172,1.129c-0.114,0.337-0.272,0.636-0.474,0.895
		c-0.203,0.259-0.443,0.482-0.723,0.668s-0.589,0.34-0.926,0.461c-0.338,0.12-0.697,0.209-1.08,0.266
		c-0.382,0.058-0.809,0.086-1.278,0.086h-3.108c-0.199,0-0.366-0.059-0.501-0.176c-0.136-0.117-0.203-0.309-0.203-0.573V85.822
		c0-0.265,0.067-0.456,0.203-0.574c0.135-0.117,0.303-0.176,0.501-0.176h2.936c0.716,0,1.324,0.06,1.82,0.181
		c0.497,0.12,0.915,0.302,1.256,0.546c0.34,0.244,0.601,0.553,0.781,0.926s0.271,0.813,0.271,1.319c0,0.283-0.036,0.55-0.108,0.799
		c-0.073,0.25-0.178,0.478-0.316,0.682c-0.139,0.205-0.309,0.386-0.511,0.542c-0.202,0.157-0.432,0.283-0.69,0.379
		c0.331,0.061,0.637,0.166,0.917,0.316s0.523,0.345,0.732,0.583c0.208,0.238,0.372,0.517,0.492,0.836S66.635,92.859,66.635,93.257z
		 M63.563,88.333c0-0.235-0.036-0.446-0.108-0.632c-0.073-0.187-0.181-0.342-0.326-0.465c-0.145-0.124-0.327-0.218-0.547-0.285
		s-0.513-0.099-0.88-0.099h-1.202v3.035h1.328c0.343,0,0.617-0.041,0.822-0.122c0.205-0.081,0.375-0.192,0.511-0.334
		c0.136-0.142,0.236-0.307,0.302-0.497C63.531,88.745,63.563,88.544,63.563,88.333z M64.168,93.338c0-0.271-0.045-0.513-0.135-0.728
		c-0.09-0.214-0.223-0.393-0.397-0.537c-0.175-0.145-0.398-0.256-0.669-0.334c-0.271-0.078-0.623-0.117-1.057-0.117h-1.409v3.325
		h1.716c0.331,0,0.61-0.035,0.836-0.104c0.226-0.069,0.421-0.171,0.587-0.307c0.166-0.135,0.295-0.304,0.388-0.505
		C64.122,93.828,64.168,93.598,64.168,93.338z"/>
	<path fill="#0072BC" d="M76.555,92.345c0,0.687-0.09,1.313-0.271,1.879c-0.181,0.566-0.455,1.054-0.822,1.463
		c-0.368,0.41-0.829,0.726-1.382,0.949c-0.554,0.223-1.202,0.334-1.942,0.334c-0.717,0-1.341-0.099-1.87-0.298
		c-0.53-0.199-0.97-0.488-1.319-0.867s-0.608-0.846-0.777-1.4c-0.168-0.554-0.252-1.187-0.252-1.897
		c0-0.687,0.091-1.314,0.275-1.884c0.183-0.569,0.459-1.057,0.827-1.463c0.367-0.407,0.827-0.721,1.377-0.944
		c0.551-0.223,1.197-0.334,1.938-0.334c0.723,0,1.349,0.098,1.879,0.293c0.53,0.196,0.968,0.483,1.314,0.863
		c0.346,0.379,0.604,0.846,0.772,1.4C76.47,90.992,76.555,91.628,76.555,92.345z M74.215,92.435c0-0.397-0.032-0.763-0.095-1.098
		s-0.17-0.625-0.321-0.872c-0.15-0.247-0.351-0.439-0.6-0.578c-0.25-0.139-0.565-0.208-0.944-0.208
		c-0.337,0-0.632,0.062-0.885,0.185s-0.46,0.304-0.624,0.542c-0.163,0.238-0.285,0.524-0.366,0.858
		c-0.081,0.334-0.122,0.715-0.122,1.143c0,0.397,0.033,0.763,0.1,1.097c0.066,0.334,0.173,0.625,0.32,0.872
		c0.147,0.248,0.348,0.438,0.601,0.574c0.252,0.135,0.566,0.203,0.939,0.203c0.344,0,0.642-0.062,0.895-0.185
		c0.252-0.124,0.461-0.303,0.623-0.538c0.163-0.235,0.283-0.52,0.361-0.854S74.215,92.863,74.215,92.435z"/>
	<path fill="#0072BC" d="M84.983,96.293c0.048,0.102,0.071,0.186,0.068,0.252c-0.003,0.067-0.047,0.121-0.131,0.163
		c-0.084,0.042-0.213,0.071-0.388,0.086s-0.407,0.023-0.695,0.023c-0.271,0-0.49-0.005-0.655-0.014
		c-0.166-0.009-0.295-0.027-0.388-0.054c-0.093-0.027-0.163-0.061-0.208-0.1c-0.045-0.039-0.08-0.088-0.104-0.149l-1.491-2.864
		L79.5,96.5c-0.024,0.061-0.058,0.11-0.1,0.149s-0.107,0.072-0.194,0.1c-0.087,0.027-0.209,0.045-0.366,0.054
		c-0.157,0.009-0.361,0.014-0.614,0.014c-0.265,0-0.476-0.008-0.632-0.023c-0.157-0.015-0.271-0.044-0.343-0.086
		s-0.11-0.096-0.113-0.163c-0.003-0.066,0.022-0.15,0.077-0.252l2.231-3.967l-2.06-3.722c-0.055-0.108-0.083-0.2-0.086-0.276
		c-0.003-0.075,0.035-0.134,0.113-0.176s0.203-0.073,0.375-0.09c0.171-0.018,0.405-0.027,0.7-0.027c0.265,0,0.478,0.005,0.637,0.014
		c0.159,0.009,0.285,0.023,0.375,0.041c0.09,0.018,0.156,0.047,0.199,0.086c0.042,0.039,0.078,0.089,0.108,0.149l1.437,2.692
		l1.427-2.692c0.018-0.048,0.045-0.09,0.081-0.126c0.036-0.036,0.094-0.067,0.172-0.091c0.078-0.023,0.185-0.042,0.32-0.054
		c0.136-0.012,0.321-0.018,0.556-0.018c0.265,0,0.477,0.006,0.637,0.018s0.274,0.039,0.343,0.082c0.069,0.042,0.103,0.101,0.1,0.176
		c-0.003,0.075-0.038,0.173-0.104,0.293l-2.005,3.659L84.983,96.293z"/>
</g>
</svg>
