<?xml version="1.0" encoding="utf-8"?>
<!-- Generator: Adobe Illustrator 13.0.1, SVG Export Plug-In . SVG Version: 6.00 Build 14948)  -->
<svg version="1.2" baseProfile="tiny" id="Laag_1" xmlns="http://www.w3.org/2000/svg" xmlns:xlink="http://www.w3.org/1999/xlink"
	 x="0px" y="0px" width="89.229px" height="90.952px" viewBox="0 0 89.229 90.952" xml:space="preserve">
<g>
	<path d="M28.303,56.39H0v4h28.288c-0.083-0.643-0.14-1.291-0.14-1.955C28.148,57.739,28.211,57.06,28.303,56.39z"/>
	<path d="M89.229,56.39H63.293c0.091,0.67,0.154,1.35,0.154,2.045c0,0.664-0.057,1.312-0.14,1.955h25.921L89.229,56.39L89.229,56.39
		z"/>
	<path d="M35.388,67.604l-20.52,20.52l2.828,2.828L38.188,70.46c-0.489-0.381,1.498-3.25,1.048-3.7
		C38.727,66.249,35.812,68.166,35.388,67.604z"/>
	<path d="M47.99,44.929V19.822h-4v25.145c0.696-0.098,1.401-0.166,2.124-0.166C46.751,44.801,47.375,44.853,47.99,44.929z"/>
</g>
<polyline points="31.681,0.101 31.526,18.689 9.498,18.764 46.083,55.05 82.729,18.525 61.223,18.6 61.375,0.015 "/>
<g>
	<g>
		<path d="M61.375,0.015h-0.022H61.375z"/>
		<polyline points="33.681,0.117 33.509,20.682 14.337,20.746 46.077,52.229 77.869,20.54 59.205,20.605 59.375,0.021 		"/>
		<polygon points="59.375,0 59.375,0.021 61.353,0.015 		"/>
	</g>
	<g>
		<path fill="none" d="M48.706,49.608c-0.951-0.098-1.925-0.159-2.927-0.157c-0.816-0.001-1.61,0.044-2.395,0.108l2.691,2.67
			L48.706,49.608z"/>
		<path fill="none" d="M57.881,52.431c-1.238-0.752-2.75-1.396-4.435-1.896l-3.109,3.099c3.033,0.728,5.097,2.246,5.097,4.47
			c0,3.217-4.322,4.819-9.653,4.819s-9.653-1.604-9.653-4.819c0-2.338,2.288-3.896,5.582-4.574l-3.149-3.123
			c-1.868,0.516-3.533,1.207-4.881,2.025c-2.968,1.809-4.23,3.896-4.205,5.67c-0.025,1.775,1.237,3.861,4.205,5.67
			c2.914,1.77,7.26,2.987,12.102,2.979c4.842,0.008,9.188-1.211,12.102-2.979c2.969-1.81,4.23-3.896,4.206-5.67
			C62.111,56.325,60.85,54.239,57.881,52.431z"/>
		<path d="M45.779,49.451c1.002-0.002,1.976,0.062,2.927,0.157l5.197-5.181c-2.527-0.633-5.262-0.975-8.124-0.979
			c-2.692,0.004-5.267,0.315-7.668,0.878l5.274,5.232C44.169,49.495,44.963,49.449,45.779,49.451z"/>
	</g>
</g>
<g>
	<path d="M60.98,47.294c-0.21-0.126-0.437-0.238-0.654-0.359l-4.466,4.467c0.73,0.313,1.41,0.658,2.021,1.029
		c2.969,1.807,4.23,3.895,4.206,5.67c0.025,1.774-1.237,3.86-4.206,5.668c-2.914,1.771-7.26,2.988-12.102,2.98
		c-4.842,0.008-9.188-1.211-12.102-2.98c-2.968-1.809-4.23-3.895-4.205-5.668c-0.025-1.775,1.237-3.863,4.205-5.67
		c0.723-0.439,1.542-0.838,2.429-1.197l-4.503-4.502c-0.348,0.184-0.697,0.365-1.028,0.562c-4.018,2.408-7.078,6.146-7.103,10.807
		c0.024,4.658,3.085,8.397,7.103,10.806c4.074,2.446,9.381,3.837,15.203,3.845c5.822-0.008,11.129-1.398,15.201-3.845
		c4.02-2.408,7.081-6.147,7.104-10.806C68.062,53.44,65,49.702,60.98,47.294z"/>
</g>
<g>
	<path d="M52.43,54.333l-6.736,6.736l-6.668-6.668c-1.778,0.838-2.898,2.074-2.898,3.699c0,3.217,4.322,4.82,9.653,4.82
		s9.653-1.604,9.653-4.82C55.434,56.438,54.278,55.172,52.43,54.333z"/>
</g>
</svg>
