<?xml version="1.0" encoding="utf-8"?>
<!-- Generator: Adobe Illustrator 13.0.1, SVG Export Plug-In . SVG Version: 6.00 Build 14948)  -->
<svg version="1.2" baseProfile="tiny" id="Laag_1" xmlns="http://www.w3.org/2000/svg" xmlns:xlink="http://www.w3.org/1999/xlink"
	 x="0px" y="0px" width="195.559px" height="202.407px" viewBox="0 0 195.559 202.407" xml:space="preserve">
<path d="M186.487,202.407c-4.699,0-8.504-3.807-8.504-8.504l0,0c0-4.697,3.806-8.504,8.504-8.504l0,0h0.566
	c4.696,0,8.505,3.807,8.505,8.504l0,0c0,4.697-3.809,8.504-8.505,8.504l0,0H186.487L186.487,202.407z M54.939,202.407
	c-4.697,0-8.505-3.807-8.505-8.504l0,0c0-4.697,3.808-8.504,8.505-8.504l0,0h0.566c4.696,0,8.504,3.807,8.504,8.504l0,0
	c0,4.697-3.808,8.504-8.504,8.504l0,0H54.939L54.939,202.407z M9.689,202.407c-4.696,0-8.505-3.807-8.505-8.504l0,0
	c0-4.697,3.809-8.504,8.505-8.504l0,0h0.566c4.696,0,8.504,3.807,8.504,8.504l0,0c0,4.697-3.808,8.504-8.504,8.504l0,0H9.689
	L9.689,202.407z M121.409,198.323l-0.336-0.455c-2.799-3.773-2.009-9.1,1.762-11.898l0,0c3.773-2.799,9.099-2.008,11.897,1.762l0,0
	l0.339,0.457c2.798,3.771,2.008,9.098-1.764,11.896l0,0c-1.522,1.129-3.298,1.674-5.06,1.674l0,0
	C125.646,201.758,123.078,200.571,121.409,198.323L121.409,198.323z M157.238,172.02l-0.349-0.447
	c-2.884-3.705-2.222-9.049,1.484-11.936l0,0c3.706-2.887,9.048-2.221,11.934,1.484l0,0l0.349,0.447
	c2.884,3.703,2.222,9.049-1.484,11.934l0,0c-1.553,1.211-3.393,1.797-5.219,1.797l0,0
	C161.421,175.299,158.915,174.172,157.238,172.02L157.238,172.02z M47.562,162.448v-0.566c0-4.697,3.808-8.504,8.504-8.504l0,0
	c4.697,0,8.505,3.807,8.505,8.504l0,0v0.566c0,4.697-3.808,8.504-8.505,8.504l0,0C51.371,170.952,47.562,167.145,47.562,162.448
	L47.562,162.448z M0,154.738v-0.566c0-4.697,3.808-8.506,8.505-8.506l0,0c4.696,0,8.502,3.809,8.502,8.506l0,0v0.566
	c0,4.695-3.806,8.504-8.502,8.504l0,0C3.808,163.242,0,159.433,0,154.738L0,154.738z M96.139,165.88l-0.339-0.455
	c-2.798-3.771-2.008-9.098,1.764-11.896l0,0c3.771-2.797,9.098-2.008,11.897,1.764l0,0l0.336,0.455
	c2.799,3.77,2.009,9.096-1.762,11.896l0,0c-1.523,1.129-3.299,1.674-5.06,1.674l0,0C100.375,169.318,97.808,168.13,96.139,165.88
	L96.139,165.88z M136.486,145.237l-0.349-0.447c-2.886-3.703-2.222-9.047,1.484-11.934l0,0c3.706-2.887,9.048-2.223,11.935,1.48l0,0
	l0.347,0.449c2.886,3.705,2.224,9.049-1.482,11.936l0,0c-1.553,1.209-3.393,1.795-5.219,1.795l0,0
	C140.669,148.516,138.163,147.389,136.486,145.237L136.486,145.237z M47.562,129.2v-0.566c0-4.697,3.808-8.506,8.504-8.506l0,0
	c4.697,0,8.505,3.809,8.505,8.506l0,0v0.566c0,4.695-3.808,8.504-8.505,8.504l0,0C51.371,137.704,47.562,133.895,47.562,129.2
	L47.562,129.2z M74.199,134.774l-0.336-0.455c-2.799-3.771-2.009-9.098,1.762-11.895l0,0c3.773-2.801,9.098-2.012,11.897,1.762l0,0
	l0.339,0.455c2.798,3.77,2.008,9.096-1.764,11.895l0,0c-1.522,1.131-3.299,1.676-5.061,1.676l0,0
	C78.435,138.211,75.867,137.024,74.199,134.774L74.199,134.774z M0,119.821v-0.566c0-4.695,3.808-8.504,8.505-8.504l0,0
	c4.696,0,8.502,3.809,8.502,8.504l0,0v0.566c0,4.697-3.806,8.506-8.502,8.506l0,0C3.808,128.327,0,124.518,0,119.821L0,119.821z
	 M118.401,121.125l-0.349-0.447c-2.887-3.705-2.222-9.051,1.484-11.935l0,0c3.704-2.889,9.048-2.224,11.935,1.482l0,0l0.347,0.447
	c2.887,3.705,2.222,9.049-1.482,11.936l0,0c-1.553,1.209-3.393,1.795-5.22,1.795l0,0
	C122.583,124.402,120.077,123.275,118.401,121.125L118.401,121.125z M143.71,102.648c-3.317-3.325-3.306-8.709,0.021-12.023l0,0
	c0.115-0.115,0.23-0.232,0.345-0.348l0,0c3.296-3.346,8.68-3.386,12.024-0.088l0,0c3.347,3.297,3.386,8.681,0.09,12.026l0,0
	c-0.15,0.151-0.303,0.304-0.456,0.456l0,0c-1.659,1.653-3.829,2.479-6,2.479l0,0C147.554,105.151,145.372,104.316,143.71,102.648
	L143.71,102.648z M0,84.238v-0.566c0-4.696,3.808-8.505,8.505-8.505l0,0c4.696,0,8.502,3.809,8.502,8.505l0,0v0.566
	c0,4.696-3.806,8.505-8.502,8.505l0,0C3.808,92.743,0,88.935,0,84.238L0,84.238z M83.375,101.006
	c-4.696,0.099-8.582-3.628-8.68-8.324l0,0c-0.101-4.694,3.626-8.582,8.323-8.679l0,0c0.182-0.004,0.362-0.008,0.542-0.013l0,0
	c4.696-0.114,8.592,3.602,8.705,8.298l0,0c0.113,4.694-3.604,8.593-8.298,8.705l0,0c-0.196,0.005-0.393,0.009-0.591,0.015l0,0
	V101.006L83.375,101.006z M98.312,92.006c-3.544-3.079-3.921-8.45-0.842-11.995l0,0c0.084-0.095,0.163-0.188,0.241-0.282l0,0
	c2.997-3.616,8.358-4.117,11.974-1.12l0,0c3.616,2.997,4.117,8.358,1.12,11.974l0,0c-0.163,0.196-0.328,0.391-0.495,0.583l0,0
	c-1.682,1.936-4.045,2.926-6.422,2.926l0,0C101.91,94.091,99.923,93.406,98.312,92.006L98.312,92.006z M47.562,92.998v-0.568
	c0-4.697,3.808-8.505,8.504-8.505l0,0c4.697,0,8.505,3.808,8.505,8.505l0,0v0.568c0,4.696-3.808,8.505-8.505,8.505l0,0
	C51.371,101.502,47.562,97.694,47.562,92.998L47.562,92.998z M160.213,77.727c-4.659-0.6-7.949-4.863-7.349-9.521l0,0
	c0.021-0.163,0.042-0.326,0.061-0.491l0,0h0.002c0.56-4.663,4.794-7.988,9.458-7.428l0,0c4.661,0.56,7.988,4.794,7.428,9.457l0,0
	c-0.027,0.212-0.052,0.423-0.08,0.634l0,0c-0.552,4.29-4.211,7.42-8.424,7.419l0,0C160.947,77.797,160.581,77.774,160.213,77.727
	L160.213,77.727z M103.968,65.282c0-0.142-0.002-0.282-0.004-0.422l0,0c-0.08-4.694,3.662-8.567,8.358-8.647l0,0
	c4.694-0.082,8.565,3.662,8.646,8.356l0,0c0.004,0.238,0.006,0.474,0.006,0.712l0,0c0,4.696-3.806,8.505-8.504,8.505l0,0
	C107.774,73.787,103.968,69.979,103.968,65.282L103.968,65.282z M0,47.658v-0.568c0-4.696,3.808-8.504,8.505-8.504l0,0
	c4.696,0,8.502,3.808,8.502,8.504l0,0v0.568c0,4.694-3.806,8.502-8.502,8.502l0,0C3.808,56.16,0,52.352,0,47.658L0,47.658z
	 M99.755,55.38c-0.152-0.017-0.305-0.033-0.46-0.05l0,0c-4.671-0.485-8.065-4.665-7.581-9.336l0,0
	c0.485-4.671,4.665-8.065,9.336-7.581l0,0c0.226,0.023,0.447,0.048,0.669,0.073l0,0v0.002c4.665,0.541,8.007,4.763,7.463,9.428l0,0
	c-0.504,4.331-4.179,7.522-8.434,7.522l0,0C100.421,55.438,100.089,55.419,99.755,55.38L99.755,55.38z M78.089,51.046
	c-0.152-0.017-0.305-0.033-0.46-0.05l0,0c-4.671-0.485-8.065-4.665-7.581-9.336l0,0c0.485-4.671,4.665-8.065,9.336-7.581l0,0
	c0.226,0.023,0.447,0.048,0.669,0.073l0,0v0.002c4.665,0.541,8.007,4.763,7.463,9.428l0,0c-0.504,4.331-4.179,7.522-8.434,7.522l0,0
	C78.755,51.104,78.423,51.085,78.089,51.046L78.089,51.046z M47.562,43.081v-0.459c0-2.241,0.909-4.431,2.491-6.013l0,0
	c1.584-1.584,3.775-2.492,6.013-2.492l0,0h0.107c4.696,0,8.504,3.808,8.504,8.505l0,0c0,0.745-0.096,1.467-0.276,2.156l0,0
	c-0.786,3.884-4.22,6.809-8.335,6.809l0,0C51.371,51.586,47.562,47.778,47.562,43.081L47.562,43.081z M149,39.888
	c-0.071-0.125-0.143-0.249-0.215-0.37l0,0c-2.406-4.034-1.083-9.255,2.951-11.659l0,0c4.034-2.405,9.255-1.083,11.659,2.952l0,0
	c0.119,0.203,0.238,0.403,0.355,0.608l0,0c2.339,4.072,0.932,9.27-3.139,11.608l0,0c-1.335,0.767-2.791,1.131-4.227,1.131l0,0
	C153.437,44.157,150.572,42.625,149,39.888L149,39.888z M0,9.075V8.506C0,3.81,3.808,0.004,8.505,0.004l0,0
	c4.696,0,8.502,3.806,8.502,8.502l0,0v0.569c0,4.696-3.806,8.502-8.502,8.502l0,0C3.808,17.578,0,13.771,0,9.075L0,9.075z
	 M127.047,21.915c-0.15-0.061-0.301-0.122-0.454-0.18l0,0c-4.373-1.711-6.531-6.644-4.822-11.017l0,0
	c1.712-4.375,6.645-6.534,11.017-4.822l0,0c0.201,0.077,0.401,0.157,0.602,0.238l0,0c4.357,1.749,6.471,6.703,4.719,11.061l0,0
	c-1.335,3.318-4.525,5.335-7.895,5.335l0,0C129.16,22.53,128.086,22.333,127.047,21.915L127.047,21.915z M96.002,17.112
	c-0.182-0.006-0.363-0.01-0.547-0.017l0,0h0.002c-4.696-0.124-8.402-4.032-8.277-8.727l0,0c0.125-4.694,4.032-8.4,8.727-8.274l0,0
	c0.196,0.004,0.393,0.01,0.587,0.017l0,0c4.694,0.136,8.39,4.051,8.256,8.745l0,0c-0.135,4.611-3.914,8.26-8.497,8.259l0,0
	C96.17,17.115,96.086,17.114,96.002,17.112L96.002,17.112z M61.1,17.009c-4.696,0-8.505-3.808-8.505-8.504l0,0
	C52.595,3.808,56.404,0,61.1,0l0,0h0.566c4.696,0,8.504,3.808,8.504,8.505l0,0c0,4.696-3.808,8.504-8.504,8.504l0,0H61.1
	L61.1,17.009z M34.517,17.009c-4.696,0-8.504-3.808-8.504-8.504l0,0C26.013,3.808,29.821,0,34.517,0l0,0h0.566
	c4.697,0,8.505,3.808,8.505,8.505l0,0c0,4.696-3.808,8.504-8.505,8.504l0,0H34.517L34.517,17.009z"/>
<g>
	<path fill="none" stroke="#000000" stroke-width="6" stroke-linecap="round" stroke-linejoin="round" stroke-miterlimit="2" d="
		M186.387,194.237h-58.398l-50.437-67.983H55.401v67.983H7.837V8.839h80.186c10.957,0,20.377,0.623,28.264,1.868
		c7.885,1.245,15.272,3.943,22.163,8.093c6.973,4.152,12.513,9.525,16.623,16.125c4.108,6.599,6.163,14.879,6.163,24.84
		c0,13.696-3.175,24.861-9.525,33.494c-6.35,8.634-15.42,15.813-27.206,21.541L186.387,194.237z M111.805,65.616
		c0-4.648-0.955-8.632-2.864-11.953c-1.911-3.319-5.188-5.934-9.836-7.844c-3.237-1.327-7.016-2.136-11.331-2.428
		c-4.317-0.29-9.338-0.436-15.066-0.436H55.401v49.929h14.692c7.636,0,14.027-0.374,19.175-1.121
		c5.146-0.747,9.463-2.447,12.949-5.105c3.319-2.572,5.747-5.416,7.284-8.529C111.036,75.017,111.805,70.846,111.805,65.616z"/>
</g>
</svg>
