<?xml version="1.0" encoding="utf-8"?>
<!-- Generator: Adobe Illustrator 13.0.1, SVG Export Plug-In . SVG Version: 6.00 Build 14948)  -->
<svg version="1.2" baseProfile="tiny" id="Laag_1" xmlns="http://www.w3.org/2000/svg" xmlns:xlink="http://www.w3.org/1999/xlink"
	 x="0px" y="0px" width="113.12px" height="135.759px" viewBox="0 0 113.12 135.759" xml:space="preserve">
<g>
	<path d="M56.82,127.96c0,1.109-0.9,2-2,2c-1.11,0-2-0.891-2-2c0-1.1,0.89-2,2-2C55.92,125.96,56.82,126.861,56.82,127.96z"/>
	<path d="M7.76,56.51c0,1.11-0.9,2-2,2s-2-0.89-2-2c0-1.1,0.9-2,2-2S7.76,55.41,7.76,56.51z"/>
	<path d="M39.73,61.52c0,1.1-0.9,2-2,2c-1.11,0-2-0.9-2-2c0-1.11,0.89-2,2-2C38.83,59.52,39.73,60.41,39.73,61.52z"/>
	<path d="M80.67,121.68c0,1.11-0.9,2-2,2c-1.111,0-2-0.89-2-2c0-1.101,0.889-2,2-2C79.77,119.68,80.67,120.58,80.67,121.68z"/>
	<path d="M85.809,102.951c0,1.109-0.889,2-2,2c-1.1,0-2-0.891-2-2c0-1.101,0.9-2,2-2C84.92,100.951,85.809,101.85,85.809,102.951z"
		/>
	<path d="M105.229,112.371c0,1.1-0.898,2-2,2c-1.109,0-2-0.9-2-2c0-1.11,0.891-2,2-2
		C104.331,110.371,105.229,111.26,105.229,112.371z"/>
	<path d="M98.059,30.21c0,1.1-0.898,2-2,2c-1.109,0-2-0.9-2-2c0-1.11,0.891-2,2-2C97.161,28.21,98.059,29.1,98.059,30.21z"/>
	<path d="M113.12,88.07c0,1.1-0.891,2-2,2c-1.1,0-2-0.9-2-2c0-1.109,0.9-2,2-2C112.229,86.07,113.12,86.96,113.12,88.07z"/>
	<path d="M53.58,75.031c0,1.1-0.9,2-2,2c-1.11,0-2-0.9-2-2c0-1.111,0.89-2,2-2C52.68,73.031,53.58,73.919,53.58,75.031z"/>
	<path d="M32.55,49.65c0,1.1-0.9,2-2,2c-1.11,0-2-0.9-2-2c0-1.11,0.89-2,2-2C31.65,47.65,32.55,48.54,32.55,49.65z"/>
	<path d="M8.21,60.21c0,1.1-0.89,2-2,2c-1.1,0-2-0.9-2-2c0-1.1,0.9-2,2-2C7.32,58.21,8.21,59.11,8.21,60.21z"/>
	<path d="M103.389,16.66c0,1.1-0.898,2-2,2c-1.109,0-2-0.9-2-2s0.891-2,2-2C102.491,14.66,103.389,15.56,103.389,16.66z"/>
	<path d="M82.889,63.89c0,1.11-0.899,2-2,2c-1.109,0-2-0.89-2-2c0-1.1,0.891-2,2-2C81.99,61.89,82.889,62.79,82.889,63.89z"/>
	<path d="M40.2,30.42c0,1.1-0.89,2-2,2c-1.1,0-2-0.9-2-2c0-1.11,0.9-2,2-2C39.31,28.42,40.2,29.31,40.2,30.42z"/>
	<path d="M22.46,129.09c0,1.11-0.89,2-2,2c-1.1,0-2-0.89-2-2c0-1.101,0.9-2,2-2C21.57,127.09,22.46,127.99,22.46,129.09z"/>
	<path d="M70.58,23.33c0,1.1-0.899,2-2,2c-1.11,0-2-0.9-2-2c0-1.11,0.89-2,2-2C69.68,21.33,70.58,22.22,70.58,23.33z"/>
	<path d="M82.68,81.88c0,1.1-0.9,2-2,2c-1.11,0-2-0.9-2-2c0-1.11,0.89-2,2-2C81.78,79.88,82.68,80.77,82.68,81.88z"/>
	<path d="M45.33,4.75c0,1.11-0.89,2-2,2c-1.1,0-2-0.89-2-2c0-1.1,0.9-2,2-2C44.44,2.75,45.33,3.65,45.33,4.75z"/>
	<path d="M26.26,21.1c0,1.11-0.9,2-2,2c-1.11,0-2-0.89-2-2c0-1.1,0.89-2,2-2C25.36,19.1,26.26,20,26.26,21.1z"/>
	<path d="M19.15,110.5c0,1.101-0.9,2-2,2c-1.11,0-2-0.899-2-2c0-1.1,0.89-2,2-2C18.25,108.5,19.15,109.4,19.15,110.5z"/>
	<path d="M59.37,127.68c0,1.101-0.9,2-2,2c-1.11,0-2-0.899-2-2c0-1.11,0.89-2,2-2C58.47,125.68,59.37,126.57,59.37,127.68z"/>
	<path d="M45.57,15.75c0,1.11-0.9,2-2,2s-2-0.89-2-2c0-1.1,0.9-2,2-2S45.57,14.65,45.57,15.75z"/>
	<path d="M88.209,81.58c0,1.11-0.9,2-2,2s-2-0.89-2-2c0-1.1,0.9-2,2-2S88.209,80.48,88.209,81.58z"/>
	<path d="M52.47,114.66c0,1.11-0.9,2-2,2c-1.11,0-2-0.89-2-2c0-1.1,0.89-2,2-2C51.57,112.66,52.47,113.56,52.47,114.66z"/>
	<path d="M87.92,110.02c0,1.11-0.9,2-2,2c-1.111,0-2-0.89-2-2c0-1.101,0.889-2,2-2C87.02,108.02,87.92,108.919,87.92,110.02z"/>
	<path d="M90.18,60.12c0,1.1-0.9,2-2,2c-1.11,0-2-0.9-2-2c0-1.11,0.89-2,2-2C89.28,58.12,90.18,59.01,90.18,60.12z"/>
	<path d="M90.809,11.42c0,1.11-0.889,2-2,2c-1.1,0-2-0.89-2-2c0-1.1,0.9-2,2-2C89.92,9.42,90.809,10.32,90.809,11.42z"/>
	<path d="M25.77,125.07c0,1.1-0.89,2-2,2c-1.1,0-2-0.9-2-2c0-1.109,0.9-2,2-2C24.88,123.07,25.77,123.96,25.77,125.07z"/>
	<path d="M36.97,23.2c0,1.11-0.9,2-2,2c-1.105,0-2.001-0.89-2.001-2c0-1.1,0.896-2,2.001-2C36.07,21.2,36.97,22.1,36.97,23.2z"/>
	<path d="M17.68,15.79c0,1.1-0.89,2-2,2c-1.1,0-2-0.9-2-2c0-1.11,0.9-2,2-2C16.79,13.79,17.68,14.68,17.68,15.79z"/>
	<path d="M16.39,65.16c0,1.11-0.89,2-2,2c-1.1,0-2-0.89-2-2c0-1.1,0.9-2,2-2C15.5,63.16,16.39,64.06,16.39,65.16z"/>
	<path d="M37.37,114.39c0,1.1-0.89,2-2,2c-1.1,0-1.995-0.9-1.995-2c0-1.109,0.896-2,1.995-2
		C36.48,112.39,37.37,113.281,37.37,114.39z"/>
	<path d="M57.1,57.35c0,1.11-0.89,2-2,2c-1.1,0-2-0.89-2-2c0-1.1,0.9-2,2-2C56.21,55.35,57.1,56.25,57.1,57.35z"/>
	<path d="M82.84,99.541c0,1.109-0.9,2-2,2c-1.11,0-2-0.891-2-2c0-1.101,0.89-2,2-2C81.94,97.541,82.84,98.44,82.84,99.541z"/>
	<path d="M31.83,39.56c0,1.1-0.9,2-2,2c-1.11,0-2-0.9-2-2c0-1.11,0.89-2,2-2C30.93,37.56,31.83,38.45,31.83,39.56z"/>
	<path d="M85.98,115.531c0,1.1-0.9,2-2,2c-1.11,0-2-0.9-2-2c0-1.111,0.89-2,2-2C85.08,113.531,85.98,114.419,85.98,115.531z"/>
	<path d="M103.889,90c0,1.101-0.898,2-2,2c-1.109,0-2-0.899-2-2c0-1.1,0.891-2,2-2C102.991,88,103.889,88.9,103.889,90z"/>
	<path d="M24.35,70.62c0,1.11-0.89,2-2,2c-1.1,0-2-0.891-2-2c0-1.1,0.9-2,2-2C23.46,68.62,24.35,69.52,24.35,70.62z"/>
	<path d="M108.43,35.7c0,1.1-0.9,2-2,2c-1.111,0-2-0.9-2-2c0-1.11,0.889-2,2-2C107.53,33.7,108.43,34.59,108.43,35.7z"/>
	<path d="M29.1,26.23c0,1.1-0.9,2-2,2c-1.11,0-2-0.9-2-2c0-1.11,0.89-2,2-2C28.2,24.23,29.1,25.12,29.1,26.23z"/>
	<path d="M91.07,20.55c0,1.11-0.89,2-2,2c-1.101,0-2-0.89-2-2c0-1.1,0.899-2,2-2C90.18,18.55,91.07,19.45,91.07,20.55z"/>
	<path d="M55.19,131.74c0,1.101-0.89,2-2,2c-1.1,0-2-0.899-2-2c0-1.109,0.9-2,2-2C54.3,129.74,55.19,130.63,55.19,131.74z"/>
	<path d="M38.04,6.14c0,1.1-0.9,2-2,2c-1.11,0-2.004-0.9-2.004-2s0.894-2,2.004-2C37.14,4.14,38.04,5.04,38.04,6.14z"/>
	<path d="M88.53,101.38c0,1.1-0.9,2-2,2c-1.109,0-2-0.9-2-2c0-1.11,0.891-2,2-2C87.629,99.38,88.53,100.27,88.53,101.38z"/>
	<path d="M11.44,105.59c0,1.1-0.89,2-2,2c-1.1,0-2-0.9-2-2c0-1.11,0.9-2,2-2C10.55,103.59,11.44,104.48,11.44,105.59z"/>
	<path d="M59.61,8.29c0,1.11-0.9,2-2,2c-1.11,0-2-0.89-2-2c0-1.1,0.89-2,2-2C58.71,6.29,59.61,7.19,59.61,8.29z"/>
	<path d="M27.57,38.05c0,1.11-0.9,2-2,2s-2-0.89-2-2c0-1.1,0.9-2,2-2S27.57,36.95,27.57,38.05z"/>
	<path d="M18.4,57.48c0,1.11-0.9,2-2,2c-1.11,0-2-0.89-2-2c0-1.1,0.89-2,2-2C17.5,55.48,18.4,56.38,18.4,57.48z"/>
	<path d="M63.48,72.871c0,1.1-0.9,2-2,2c-1.1,0-2-0.9-2-2c0-1.11,0.9-2,2-2C62.58,70.87,63.48,71.76,63.48,72.871z"/>
	<path d="M56.45,7.95c0,1.1-0.9,2-2,2c-1.11,0-2-0.9-2-2c0-1.11,0.89-2,2-2C55.55,5.95,56.45,6.84,56.45,7.95z"/>
	<path d="M92.581,115.9c0,1.1-0.891,2-2.001,2c-1.1,0-2-0.9-2-2c0-1.109,0.9-2,2-2C91.69,113.9,92.581,114.791,92.581,115.9z"/>
	<path d="M98.19,27.17c0,1.1-0.9,2-2,2c-1.109,0-2-0.9-2-2c0-1.11,0.891-2,2-2C97.29,25.17,98.19,26.06,98.19,27.17z"/>
	<path d="M29.59,118.09c0,1.11-0.89,2-2,2c-1.1,0-2-0.89-2-2c0-1.101,0.9-2,2-2C28.7,116.09,29.59,116.99,29.59,118.09z"/>
	<path d="M27.85,22.23c0,1.1-0.9,2-2,2c-1.11,0-2-0.9-2-2c0-1.11,0.89-2,2-2C26.95,20.23,27.85,21.12,27.85,22.23z"/>
	<path d="M36.44,122.75c0,1.101-0.89,2-1.997,2c-1.105,0-2.003-0.899-2.003-2c0-1.109,0.898-2,2.003-2
		C35.55,120.75,36.44,121.64,36.44,122.75z"/>
	<path d="M29.64,128.281c0,1.1-0.89,2-2,2c-1.1,0-2-0.9-2-2c0-1.111,0.9-2,2-2C28.75,126.281,29.64,127.169,29.64,128.281z"/>
	<path d="M53.28,23.5c0,1.11-0.9,2-2,2c-1.11,0-2-0.89-2-2c0-1.1,0.89-2,2-2C52.38,21.5,53.28,22.4,53.28,23.5z"/>
	<path d="M67.69,82.611c0,1.109-0.891,2-2,2c-1.1,0-2-0.891-2-2c0-1.101,0.9-2,2-2C66.799,80.611,67.69,81.51,67.69,82.611z"/>
	<path d="M81.48,87.56c0,1.109-0.9,2-2,2c-1.11,0-2-0.891-2-2c0-1.1,0.89-2,2-2C80.58,85.56,81.48,86.46,81.48,87.56z"/>
	<path d="M11.51,38.3c0,1.1-0.89,2-2,2c-1.1,0-2-0.9-2-2c0-1.11,0.9-2,2-2C10.62,36.3,11.51,37.19,11.51,38.3z"/>
	<path d="M29.21,117.68c0,1.101-0.9,2-2,2c-1.11,0-2-0.899-2-2c0-1.11,0.89-2,2-2C28.31,115.68,29.21,116.57,29.21,117.68z"/>
	<path d="M39.92,18.29c0,1.1-0.9,2-2,2c-1.11,0-2-0.9-2-2c0-1.11,0.89-2,2-2C39.02,16.29,39.92,17.18,39.92,18.29z"/>
	<path d="M75.58,60.02c0,1.1-0.89,2-2,2c-1.1,0-2-0.9-2-2s0.9-2,2-2C74.69,58.02,75.58,58.92,75.58,60.02z"/>
	<path d="M37.18,13.68c0,1.11-0.89,2-2,2c-1.101,0-1.997-0.89-1.997-2c0-1.1,0.896-2,1.997-2C36.29,11.68,37.18,12.58,37.18,13.68z"
		/>
	<path d="M40.34,45.28c0,1.1-0.9,2-2,2c-1.11,0-2-0.9-2-2c0-1.11,0.89-2,2-2C39.44,43.28,40.34,44.17,40.34,45.28z"/>
	<path d="M37.41,113.19c0,1.11-0.89,2-2,2c-1.101,0-1.997-0.89-1.997-2c0-1.1,0.896-2,1.997-2
		C36.52,111.19,37.41,112.09,37.41,113.19z"/>
	<path d="M81.7,116.15c0,1.11-0.9,2-2,2c-1.109,0-2-0.89-2-2c0-1.1,0.891-2,2-2C80.799,114.15,81.7,115.05,81.7,116.15z"/>
	<path d="M94.7,9.55c0,1.1-0.9,2-2,2c-1.109,0-2-0.9-2-2c0-1.11,0.891-2,2-2C93.799,7.55,94.7,8.44,94.7,9.55z"/>
	<path d="M106.69,15.68c0,1.1-0.9,2-2,2c-1.109,0-2-0.9-2-2c0-1.11,0.891-2,2-2C105.79,13.68,106.69,14.57,106.69,15.68z"/>
	<path d="M61.559,122.68c0,1.11-0.889,2-2,2c-1.1,0-2-0.89-2-2c0-1.101,0.9-2,2-2C60.67,120.68,61.559,121.58,61.559,122.68z"/>
	<path d="M25.75,41.33c0,1.11-0.89,2-2,2c-1.1,0-2-0.89-2-2c0-1.1,0.9-2,2-2C24.86,39.33,25.75,40.23,25.75,41.33z"/>
	<path d="M60.94,115.701c0,1.109-0.9,2-2,2c-1.11,0-2-0.891-2-2c0-1.101,0.89-2,2-2C60.04,113.701,60.94,114.6,60.94,115.701z"/>
	<path d="M90.1,8.76c0,1.11-0.9,2-2,2c-1.11,0-2-0.89-2-2c0-1.1,0.89-2,2-2C89.2,6.76,90.1,7.66,90.1,8.76z"/>
	<path d="M32.67,50.01c0,1.11-0.9,2-2,2c-1.11,0-2-0.89-2-2c0-1.1,0.89-2,2-2C31.77,48.01,32.67,48.91,32.67,50.01z"/>
	<path d="M87.83,23.92c0,1.11-0.899,2-2,2c-1.11,0-2-0.89-2-2c0-1.1,0.89-2,2-2C86.93,21.92,87.83,22.82,87.83,23.92z"/>
	<path d="M102.661,17.34c0,1.1-0.9,2-2,2c-1.111,0-2-0.9-2-2c0-1.11,0.889-2,2-2C101.76,15.34,102.661,16.23,102.661,17.34z"/>
	<path d="M18.22,45.71c0,1.11-0.9,2-2,2s-2-0.89-2-2c0-1.1,0.9-2,2-2S18.22,44.61,18.22,45.71z"/>
	<path d="M50.71,14.99c0,1.11-0.9,2-2,2c-1.11,0-2-0.89-2-2c0-1.1,0.89-2,2-2C49.81,12.99,50.71,13.89,50.71,14.99z"/>
	<path d="M42,119.68c0,1.101-0.9,2-2,2c-1.11,0-2-0.899-2-2c0-1.11,0.89-2,2-2C41.1,117.68,42,118.57,42,119.68z"/>
	<path d="M91.66,66.18c0,1.11-0.899,2-2,2c-1.11,0-2-0.89-2-2c0-1.1,0.89-2,2-2C90.76,64.18,91.66,65.08,91.66,66.18z"/>
	<path d="M85.18,22.12c0,1.1-0.891,2-2,2c-1.101,0-2-0.9-2-2c0-1.11,0.899-2,2-2C84.29,20.12,85.18,21.01,85.18,22.12z"/>
	<path d="M38.15,43.72c0,1.11-0.89,2-2,2c-1.1,0-1.996-0.89-1.996-2c0-1.1,0.896-2,1.996-2C37.26,41.72,38.15,42.62,38.15,43.72z"/>
	<path d="M104.54,24.75c0,1.1-0.891,2-2,2c-1.1,0-2-0.9-2-2c0-1.11,0.9-2,2-2C103.649,22.75,104.54,23.64,104.54,24.75z"/>
	<path d="M81.53,27.66c0,1.1-0.9,2-2,2c-1.109,0-2-0.9-2-2c0-1.11,0.891-2,2-2C80.629,25.66,81.53,26.55,81.53,27.66z"/>
	<path d="M85.09,58.87c0,1.1-0.9,2-2,2c-1.11,0-2-0.9-2-2c0-1.11,0.89-2,2-2C84.19,56.87,85.09,57.76,85.09,58.87z"/>
	<path d="M49.72,112.24c0,1.11-0.9,2-2,2c-1.11,0-2-0.89-2-2c0-1.1,0.89-2,2-2C48.82,110.24,49.72,111.14,49.72,112.24z"/>
	<path d="M11.63,115.15c0,1.1-0.9,2-2,2c-1.11,0-2-0.9-2-2s0.89-2,2-2C10.73,113.15,11.63,114.05,11.63,115.15z"/>
	<path d="M103.43,113.76c0,1.11-0.9,2-2,2c-1.111,0-2-0.89-2-2c0-1.101,0.889-2,2-2C102.53,111.76,103.43,112.66,103.43,113.76z"/>
	<path d="M93.62,116.15c0,1.1-0.9,2-2,2c-1.109,0-2-0.9-2-2s0.891-2,2-2C92.719,114.15,93.62,115.05,93.62,116.15z"/>
	<path d="M43,54.37c0,1.11-0.89,2-2,2c-1.1,0-2-0.89-2-2c0-1.1,0.9-2,2-2C42.11,52.37,43,53.27,43,54.37z"/>
	<path d="M42.09,60.43c0,1.11-0.89,2-2,2c-1.1,0-2-0.89-2-2c0-1.1,0.9-2,2-2C41.2,58.43,42.09,59.33,42.09,60.43z"/>
	<path d="M101.27,16.58c0,1.1-0.891,2-2,2c-1.1,0-2-0.9-2-2c0-1.11,0.9-2,2-2C100.379,14.58,101.27,15.47,101.27,16.58z"/>
	<path d="M25.24,118.041c0,1.109-0.9,2-2,2c-1.11,0-2-0.891-2-2c0-1.101,0.89-2,2-2C24.34,116.041,25.24,116.94,25.24,118.041z"/>
	<path d="M18.56,57.38c0,1.11-0.89,2-2,2c-1.1,0-2-0.89-2-2c0-1.1,0.9-2,2-2C17.67,55.38,18.56,56.28,18.56,57.38z"/>
	<path d="M67.86,6.94c0,1.1-0.9,2-2,2c-1.109,0-2-0.9-2-2c0-1.11,0.891-2,2-2C66.959,4.94,67.86,5.83,67.86,6.94z"/>
	<path d="M52.5,2c0,1.11-0.89,2-2,2c-1.1,0-2-0.89-2-2c0-1.1,0.9-2,2-2C51.61,0,52.5,0.9,52.5,2z"/>
	<path d="M32.56,129.21c0,1.1-0.9,2-2,2c-1.11,0-2-0.9-2-2s0.89-2,2-2C31.66,127.21,32.56,128.111,32.56,129.21z"/>
	<path d="M41.19,124.31c0,1.1-0.9,2-2,2c-1.11,0-2-0.9-2-2c0-1.109,0.89-2,2-2C40.29,122.31,41.19,123.201,41.19,124.31z"/>
	<path d="M77.76,4.91c0,1.1-0.9,2-2,2c-1.11,0-2-0.9-2-2s0.89-2,2-2C76.86,2.91,77.76,3.81,77.76,4.91z"/>
	<path d="M61.379,116.419c0,1.101-0.899,2-2,2c-1.11,0-2-0.899-2-2c0-1.109,0.89-2,2-2C60.48,114.419,61.379,115.31,61.379,116.419z
		"/>
	<path d="M60.75,64.37c0,1.1-0.891,2-2,2c-1.1,0-2-0.9-2-2c0-1.11,0.9-2,2-2C59.86,62.37,60.75,63.26,60.75,64.37z"/>
	<path d="M63.67,118.01c0,1.11-0.891,2-2,2c-1.101,0-2-0.89-2-2c0-1.101,0.9-2,2-2C62.78,116.01,63.67,116.91,63.67,118.01z"/>
	<path d="M31.39,50.14c0,1.1-0.9,2-2,2c-1.11,0-2-0.9-2-2s0.89-2,2-2C30.49,48.14,31.39,49.04,31.39,50.14z"/>
	<path d="M12.3,128.83c0,1.101-0.9,2-2,2s-2-0.899-2-2c0-1.109,0.9-2,2-2S12.3,127.72,12.3,128.83z"/>
	<path d="M58.24,13.06c0,1.11-0.9,2-2,2c-1.11,0-2-0.89-2-2c0-1.1,0.89-2,2-2C57.34,11.06,58.24,11.96,58.24,13.06z"/>
	<path d="M91.969,121.99c0,1.11-0.89,2-2,2c-1.1,0-2-0.89-2-2c0-1.1,0.9-2,2-2C91.08,119.99,91.969,120.89,91.969,121.99z"/>
	<path d="M77.75,69.73c0,1.1-0.891,2-2,2c-1.101,0-2-0.9-2-2c0-1.11,0.899-2,2-2C76.86,67.73,77.75,68.62,77.75,69.73z"/>
	<path d="M68.29,23.55c0,1.1-0.9,2-2,2c-1.109,0-2-0.9-2-2c0-1.11,0.891-2,2-2C67.389,21.55,68.29,22.44,68.29,23.55z"/>
	<path d="M103.309,24.41c0,1.1-0.898,2-2,2c-1.109,0-2-0.9-2-2c0-1.11,0.891-2,2-2C102.411,22.41,103.309,23.3,103.309,24.41z"/>
	<path d="M47.43,52.02c0,1.11-0.9,2-2,2c-1.11,0-2-0.89-2-2c0-1.1,0.89-2,2-2C46.53,50.02,47.43,50.92,47.43,52.02z"/>
	<path d="M46.28,82.39c0,1.1-0.89,2-2,2c-1.1,0-2-0.9-2-2c0-1.109,0.9-2,2-2C45.39,80.39,46.28,81.281,46.28,82.39z"/>
	<path d="M40.13,19.79c0,1.11-0.9,2-2,2c-1.11,0-2-0.89-2-2c0-1.1,0.89-2,2-2C39.23,17.79,40.13,18.69,40.13,19.79z"/>
	<path d="M22.93,53.43c0,1.1-0.89,2-2,2c-1.1,0-2-0.9-2-2c0-1.11,0.9-2,2-2C22.04,51.43,22.93,52.32,22.93,53.43z"/>
	<path d="M75.309,114.9c0,1.1-0.889,2-2,2c-1.1,0-2-0.9-2-2c0-1.109,0.9-2,2-2C74.42,112.9,75.309,113.791,75.309,114.9z"/>
	<path d="M97.59,13.16c0,1.11-0.9,2-2,2c-1.111,0-2-0.89-2-2c0-1.1,0.889-2,2-2C96.69,11.16,97.59,12.06,97.59,13.16z"/>
	<path d="M20.62,118.89c0,1.1-0.9,2-2,2c-1.11,0-2-0.9-2-2c0-1.109,0.89-2,2-2C19.72,116.89,20.62,117.781,20.62,118.89z"/>
	<path d="M99.139,101.02c0,1.101-0.898,2-2,2c-1.109,0-2-0.899-2-2c0-1.11,0.891-2,2-2C98.241,99.02,99.139,99.91,99.139,101.02z"/>
	<path d="M11.88,113.531c0,1.1-0.89,2-2,2c-1.1,0-2-0.9-2-2c0-1.111,0.9-2,2-2C10.99,111.531,11.88,112.419,11.88,113.531z"/>
	<path d="M43.18,73.13c0,1.1-0.9,2-2,2c-1.11,0-2-0.9-2-2c0-1.11,0.89-2,2-2C42.28,71.13,43.18,72.02,43.18,73.13z"/>
	<path d="M103.081,93.531c0,1.109-0.891,2-2,2c-1.102,0-2-0.891-2-2c0-1.101,0.898-2,2-2
		C102.19,91.531,103.081,92.43,103.081,93.531z"/>
	<path d="M21.48,63.04c0,1.11-0.89,2-2,2c-1.1,0-2-0.89-2-2c0-1.1,0.9-2,2-2C20.59,61.04,21.48,61.94,21.48,63.04z"/>
	<path d="M12.01,43.52c0,1.11-0.9,2-2,2c-1.11,0-2-0.89-2-2c0-1.1,0.89-2,2-2C11.11,41.52,12.01,42.42,12.01,43.52z"/>
	<path d="M70.059,16.3c0,1.1-0.889,2-2,2c-1.1,0-2-0.9-2-2c0-1.11,0.9-2,2-2C69.17,14.3,70.059,15.19,70.059,16.3z"/>
	<path d="M15.99,42.95c0,1.11-0.9,2-2,2c-1.11,0-2-0.89-2-2c0-1.1,0.89-2,2-2C15.09,40.95,15.99,41.85,15.99,42.95z"/>
	<path d="M57.74,81.541c0,1.109-0.9,2-2,2c-1.11,0-2-0.891-2-2c0-1.101,0.89-2,2-2C56.84,79.541,57.74,80.44,57.74,81.541z"/>
	<path d="M27.14,61.25c0,1.1-0.9,2-2,2c-1.1,0-2-0.9-2-2c0-1.11,0.9-2,2-2C26.24,59.25,27.14,60.14,27.14,61.25z"/>
	<path d="M77.98,91.951c0,1.109-0.89,2-2,2c-1.101,0-2-0.891-2-2c0-1.101,0.899-2,2-2C77.09,89.951,77.98,90.85,77.98,91.951z"/>
	<path d="M25.89,26.7c0,1.1-0.89,2-2,2c-1.1,0-2-0.9-2-2c0-1.11,0.9-2,2-2C25,24.7,25.89,25.59,25.89,26.7z"/>
	<path d="M9.9,127.69c0,1.11-0.89,2-2,2c-1.1,0-2-0.89-2-2c0-1.1,0.9-2,2-2C9.01,125.69,9.9,126.59,9.9,127.69z"/>
	<path d="M102.28,111.16c0,1.101-0.891,2-2,2c-1.1,0-2-0.899-2-2c0-1.109,0.9-2,2-2C101.389,109.16,102.28,110.05,102.28,111.16z"/>
	<path d="M43.01,125.361c0,1.109-0.89,2-2,2c-1.1,0-2-0.891-2-2c0-1.101,0.9-2,2-2C42.12,123.361,43.01,124.26,43.01,125.361z"/>
	<path d="M90.19,101.26c0,1.101-0.891,2-2,2c-1.1,0-2-0.899-2-2c0-1.11,0.9-2,2-2C89.299,99.26,90.19,100.15,90.19,101.26z"/>
	<path d="M16.5,52.35c0,1.1-0.89,2-2,2c-1.1,0-2-0.9-2-2c0-1.11,0.9-2,2-2C15.61,50.35,16.5,51.24,16.5,52.35z"/>
	<path d="M103.831,102.871c0,1.109-0.9,2-2,2c-1.111,0-2-0.891-2-2c0-1.101,0.889-2,2-2
		C102.93,100.871,103.831,101.77,103.831,102.871z"/>
	<path d="M78.23,68.83c0,1.1-0.89,2-2,2c-1.101,0-2-0.9-2-2s0.899-2,2-2C77.34,66.83,78.23,67.73,78.23,68.83z"/>
	<path d="M23.82,36.57c0,1.1-0.9,2-2,2s-2-0.9-2-2c0-1.11,0.9-2,2-2S23.82,35.46,23.82,36.57z"/>
	<path d="M43.66,133.22c0,1.1-0.9,2-2,2c-1.11,0-2-0.9-2-2c0-1.109,0.89-2,2-2C42.76,131.22,43.66,132.111,43.66,133.22z"/>
	<path d="M78.53,120.74c0,1.101-0.891,2-2,2c-1.1,0-2-0.899-2-2c0-1.109,0.9-2,2-2C77.639,118.74,78.53,119.63,78.53,120.74z"/>
	<path d="M17.7,106.4c0,1.11-0.9,2-2,2c-1.11,0-2-0.89-2-2c0-1.1,0.89-2,2-2C16.8,104.4,17.7,105.3,17.7,106.4z"/>
	<path d="M15.56,111.07c0,1.11-0.9,2-2,2c-1.11,0-2-0.89-2-2c0-1.1,0.89-2,2-2C14.66,109.07,15.56,109.97,15.56,111.07z"/>
	<path d="M8.55,43.29c0,1.1-0.9,2-2,2c-1.11,0-2-0.9-2-2c0-1.11,0.89-2,2-2C7.65,41.29,8.55,42.18,8.55,43.29z"/>
	<path d="M43.35,54.7c0,1.1-0.89,2-2,2c-1.1,0-2-0.9-2-2c0-1.11,0.9-2,2-2C42.46,52.7,43.35,53.59,43.35,54.7z"/>
	<path d="M103.059,8.54c0,1.1-0.889,2-2,2c-1.1,0-2-0.9-2-2c0-1.11,0.9-2,2-2C102.17,6.54,103.059,7.43,103.059,8.54z"/>
	<path d="M27.47,107.88c0,1.109-0.9,2-2,2c-1.11,0-2-0.891-2-2c0-1.1,0.89-2,2-2C26.57,105.88,27.47,106.781,27.47,107.88z"/>
	<path d="M22.49,12.11c0,1.11-0.9,2-2,2c-1.11,0-2-0.89-2-2c0-1.1,0.89-2,2-2C21.59,10.11,22.49,11.01,22.49,12.11z"/>
	<path d="M78.78,122.55c0,1.109-0.9,2-2,2c-1.109,0-2-0.891-2-2c0-1.1,0.891-2,2-2C77.879,120.55,78.78,121.451,78.78,122.55z"/>
	<path d="M105.639,115.98c0,1.1-0.889,2-2,2c-1.1,0-2-0.9-2-2c0-1.109,0.9-2,2-2C104.75,113.98,105.639,114.871,105.639,115.98z"/>
	<path d="M112.77,86.121c0,1.1-0.891,2-2,2c-1.1,0-2-0.9-2-2c0-1.11,0.9-2,2-2C111.879,84.121,112.77,85.01,112.77,86.121z"/>
	<path d="M28.02,50.01c0,1.1-0.89,2-2,2c-1.1,0-2-0.9-2-2c0-1.11,0.9-2,2-2C27.13,48.01,28.02,48.9,28.02,50.01z"/>
	<path d="M95.569,87.09c0,1.11-0.889,2-2,2c-1.1,0-1.999-0.89-1.999-2c0-1.101,0.899-2,1.999-2
		C94.68,85.09,95.569,85.99,95.569,87.09z"/>
	<path d="M21.22,12.6c0,1.11-0.9,2-2,2s-2-0.89-2-2c0-1.1,0.9-2,2-2S21.22,11.5,21.22,12.6z"/>
	<path d="M74.379,125.6c0,1.101-0.89,2-2,2c-1.1,0-2-0.899-2-2c0-1.11,0.9-2,2-2C73.49,123.6,74.379,124.49,74.379,125.6z"/>
	<path d="M15.31,127.419c0,1.111-0.9,2-2,2c-1.1,0-2-0.889-2-2c0-1.1,0.9-2,2-2C14.41,125.419,15.31,126.32,15.31,127.419z"/>
	<path d="M52.95,17.25c0,1.1-0.89,2-2,2c-1.1,0-2-0.9-2-2c0-1.11,0.9-2,2-2C52.06,15.25,52.95,16.14,52.95,17.25z"/>
	<path d="M7.7,104.05c0,1.1-0.89,2-2,2c-1.1,0-2-0.9-2-2c0-1.11,0.9-2,2-2C6.81,102.05,7.7,102.94,7.7,104.05z"/>
	<path d="M85.42,92.83c0,1.101-0.891,2-2,2c-1.101,0-2-0.899-2-2c0-1.1,0.899-2,2-2C84.53,90.83,85.42,91.73,85.42,92.83z"/>
	<path d="M41.38,14.36c0,1.11-0.9,2-2,2c-1.11,0-2-0.89-2-2c0-1.1,0.89-2,2-2C40.48,12.36,41.38,13.26,41.38,14.36z"/>
	<path d="M75.86,132.451c0,1.1-0.9,2-2,2c-1.109,0-2-0.9-2-2c0-1.11,0.891-2,2-2C74.959,130.451,75.86,131.34,75.86,132.451z"/>
	<path d="M57.34,13.29c0,1.1-0.89,2-2,2c-1.1,0-2-0.9-2-2c0-1.11,0.9-2,2-2C56.45,11.29,57.34,12.18,57.34,13.29z"/>
	<path d="M103.45,92.8c0,1.109-0.891,2-2,2c-1.1,0-2-0.891-2-2c0-1.1,0.9-2,2-2C102.559,90.8,103.45,91.701,103.45,92.8z"/>
	<path d="M67.67,129.111c0,1.109-0.9,2-2,2c-1.111,0-2-0.891-2-2c0-1.101,0.889-2,2-2C66.77,127.111,67.67,128.01,67.67,129.111z"/>
	<path d="M65.35,71.01c0,1.11-0.891,2-2,2c-1.1,0-2-0.89-2-2c0-1.1,0.9-2,2-2C64.459,69.01,65.35,69.91,65.35,71.01z"/>
	<path d="M17.81,68.63c0,1.1-0.9,2-2,2c-1.11,0-2-0.9-2-2c0-1.11,0.89-2,2-2C16.91,66.63,17.81,67.52,17.81,68.63z"/>
	<path d="M105.661,69.77c0,1.1-0.9,2-2,2c-1.111,0-2-0.9-2-2c0-1.11,0.889-2,2-2C104.76,67.77,105.661,68.66,105.661,69.77z"/>
	<path d="M80.9,60.77c0,1.1-0.89,2-2,2c-1.101,0-2-0.9-2-2c0-1.11,0.899-2,2-2C80.01,58.77,80.9,59.66,80.9,60.77z"/>
	<path d="M11.55,124.91c0,1.11-0.9,2-2,2s-2-0.89-2-2c0-1.1,0.9-2,2-2S11.55,123.81,11.55,124.91z"/>
	<path d="M54.28,55.14c0,1.1-0.89,2-2,2c-1.1,0-2-0.9-2-2c0-1.11,0.9-2,2-2C53.39,53.14,54.28,54.03,54.28,55.14z"/>
	<path d="M93.459,25.67c0,1.11-0.891,2-2,2c-1.1,0-2-0.89-2-2c0-1.1,0.9-2,2-2C92.569,23.67,93.459,24.57,93.459,25.67z"/>
	<path d="M99.17,66.94c0,1.1-0.9,2-2,2c-1.102,0-2-0.9-2-2c0-1.11,0.898-2,2-2C98.27,64.94,99.17,65.83,99.17,66.94z"/>
	<path d="M93.36,81.05c0,1.1-0.9,2-2,2c-1.109,0-2-0.9-2-2s0.891-2,2-2C92.459,79.05,93.36,79.951,93.36,81.05z"/>
	<path d="M80.219,59.16c0,1.1-0.899,2-2,2c-1.109,0-2-0.9-2-2c0-1.11,0.891-2,2-2C79.32,57.16,80.219,58.05,80.219,59.16z"/>
	<path d="M31.58,58.59c0,1.1-0.89,2-2,2c-1.1,0-2-0.9-2-2c0-1.11,0.9-2,2-2C30.69,56.59,31.58,57.48,31.58,58.59z"/>
	<path d="M47.25,56.32c0,1.1-0.9,2-2,2c-1.1,0-2-0.9-2-2c0-1.11,0.9-2,2-2C46.35,54.32,47.25,55.21,47.25,56.32z"/>
	<path d="M63.93,133.76c0,1.11-0.891,1.999-2,1.999c-1.101,0-2-0.889-2-1.999c0-1.101,0.9-2,2-2
		C63.04,131.76,63.93,132.66,63.93,133.76z"/>
	<path d="M95.68,67.9c0,1.1-0.9,2-2,2c-1.111,0-2-0.9-2-2c0-1.1,0.889-2,2-2C94.78,65.9,95.68,66.8,95.68,67.9z"/>
	<path d="M107.18,38.49c0,1.1-0.891,2-2,2c-1.1,0-2-0.9-2-2c0-1.11,0.9-2,2-2C106.29,36.49,107.18,37.38,107.18,38.49z"/>
	<path d="M81.12,65.78c0,1.1-0.89,2-2,2c-1.1,0-2-0.9-2-2c0-1.11,0.9-2,2-2C80.23,63.78,81.12,64.67,81.12,65.78z"/>
	<path d="M21.31,109.871c0,1.1-0.89,2-2,2c-1.1,0-2-0.9-2-2c0-1.11,0.9-2,2-2C20.42,107.871,21.31,108.76,21.31,109.871z"/>
	<path d="M85.129,77.65c0,1.1-0.89,2-2,2c-1.1,0-2-0.9-2-2c0-1.109,0.9-2,2-2C84.24,75.65,85.129,76.541,85.129,77.65z"/>
	<path d="M70.66,117.611c0,1.109-0.89,2-2,2c-1.101,0-2-0.891-2-2c0-1.101,0.899-2,2-2C69.77,115.611,70.66,116.51,70.66,117.611z"
		/>
	<path d="M81.52,9.66c0,1.11-0.891,2-2,2c-1.1,0-2-0.89-2-2c0-1.1,0.9-2,2-2C80.629,7.66,81.52,8.56,81.52,9.66z"/>
	<path d="M32.35,124.05c0,1.109-0.9,2-2,2c-1.11,0-2-0.891-2-2c0-1.1,0.89-2,2-2C31.45,122.05,32.35,122.951,32.35,124.05z"/>
	<path d="M48.05,55.48c0,1.11-0.89,2-2,2c-1.1,0-2-0.89-2-2c0-1.1,0.9-2,2-2C47.16,53.48,48.05,54.38,48.05,55.48z"/>
	<path d="M50.85,11.25c0,1.1-0.9,2-2,2c-1.11,0-2-0.9-2-2c0-1.11,0.89-2,2-2C49.95,9.25,50.85,10.14,50.85,11.25z"/>
	<path d="M39.25,31.6c0,1.1-0.89,2-2,2c-1.1,0-2-0.9-2-2c0-1.11,0.9-2,2-2C38.36,29.6,39.25,30.49,39.25,31.6z"/>
	<path d="M85.87,123.281c0,1.1-0.89,2-2,2c-1.1,0-2-0.9-2-2c0-1.111,0.9-2,2-2C84.98,121.281,85.87,122.169,85.87,123.281z"/>
	<path d="M108.299,73.44c0,1.101-0.889,2-2,2c-1.1,0-2-0.899-2-2c0-1.11,0.9-2,2-2C107.411,71.44,108.299,72.33,108.299,73.44z"/>
	<path d="M112.831,99.13c0,1.109-0.9,2-2,2c-1.111,0-2-0.891-2-2c0-1.1,0.889-2,2-2C111.93,97.13,112.831,98.031,112.831,99.13z"/>
	<path d="M35.74,13.14c0,1.11-0.89,2-2,2c-1.101,0-2-0.89-2-2c0-1.1,0.9-2,2-2C34.85,11.14,35.74,12.04,35.74,13.14z"/>
	<path d="M79.049,131.611c0,1.1-0.899,2-2,2c-1.109,0-2-0.9-2-2c0-1.111,0.891-2,2-2C78.15,129.611,79.049,130.5,79.049,131.611z"/>
	<path d="M10.18,127.85c0,1.11-0.89,2-2,2c-1.1,0-2-0.89-2-2c0-1.101,0.9-2,2-2C9.29,125.85,10.18,126.75,10.18,127.85z"/>
	<path d="M105.969,33.25c0,1.1-0.889,2-2,2c-1.1,0-2-0.9-2-2c0-1.11,0.9-2,2-2C105.081,31.25,105.969,32.14,105.969,33.25z"/>
	<path d="M20.01,17.53c0,1.1-0.9,2-2,2s-2-0.9-2-2c0-1.1,0.9-2,2-2S20.01,16.43,20.01,17.53z"/>
	<path d="M87.79,12.78c0,1.1-0.9,2-2,2s-2-0.9-2-2c0-1.11,0.9-2,2-2S87.79,11.67,87.79,12.78z"/>
	<path d="M103.52,75.52c0,1.101-0.891,2-2,2c-1.1,0-2-0.899-2-2c0-1.11,0.9-2,2-2C102.629,73.52,103.52,74.41,103.52,75.52z"/>
	<path d="M46.72,61.64c0,1.1-0.9,2-2,2c-1.11,0-2-0.9-2-2c0-1.11,0.89-2,2-2C45.82,59.64,46.72,60.53,46.72,61.64z"/>
	<path d="M64.54,75.4c0,1.1-0.9,2-2,2s-2-0.9-2-2c0-1.109,0.9-2,2-2S64.54,74.291,64.54,75.4z"/>
	<path d="M41.58,61.64c0,1.1-0.9,2-2,2c-1.11,0-2-0.9-2-2c0-1.11,0.89-2,2-2C40.68,59.64,41.58,60.53,41.58,61.64z"/>
	<path d="M60.48,24.22c0,1.1-0.9,2-2,2c-1.11,0-2-0.9-2-2c0-1.11,0.89-2,2-2C59.58,22.22,60.48,23.11,60.48,24.22z"/>
	<path d="M38.81,80.169c0,1.101-0.89,2-2,2c-1.1,0-2-0.899-2-2c0-1.109,0.9-2,2-2C37.92,78.169,38.81,79.06,38.81,80.169z"/>
	<path d="M72.95,131.99c0,1.101-0.891,2-2,2c-1.1,0-2-0.899-2-2c0-1.109,0.9-2,2-2C72.059,129.99,72.95,130.88,72.95,131.99z"/>
	<path d="M94.25,31.29c0,1.11-0.891,2-2,2c-1.101,0-2-0.89-2-2c0-1.1,0.899-2,2-2C93.36,29.29,94.25,30.19,94.25,31.29z"/>
	<path d="M4,110.18c0,1.101-0.89,2-2,2c-1.1,0-2-0.899-2-2c0-1.11,0.9-2,2-2C3.11,108.18,4,109.07,4,110.18z"/>
	<path d="M96.2,105.419c0,1.101-0.9,2-2,2c-1.109,0-2-0.899-2-2c0-1.109,0.891-2,2-2C95.299,103.419,96.2,104.31,96.2,105.419z"/>
	<path d="M20.17,37.33c0,1.1-0.89,2-2,2c-1.1,0-2-0.9-2-2c0-1.11,0.9-2,2-2C19.28,35.33,20.17,36.22,20.17,37.33z"/>
	<path d="M22.25,41.07c0,1.1-0.89,2-2,2c-1.1,0-2-0.9-2-2c0-1.1,0.9-2,2-2C21.36,39.07,22.25,39.97,22.25,41.07z"/>
	<path d="M40.33,17.95c0,1.11-0.89,2-2,2c-1.1,0-2-0.89-2-2c0-1.1,0.9-2,2-2C39.44,15.95,40.33,16.85,40.33,17.95z"/>
	<path d="M85.87,105.58c0,1.101-0.9,2-2,2c-1.109,0-2-0.899-2-2c0-1.109,0.891-2,2-2C84.969,103.58,85.87,104.47,85.87,105.58z"/>
	<path d="M64.24,115.35c0,1.101-0.899,2-2,2c-1.11,0-2-0.899-2-2c0-1.11,0.89-2,2-2C63.34,113.35,64.24,114.24,64.24,115.35z"/>
	<path d="M91.59,123.33c0,1.11-0.9,2-2,2c-1.11,0-2-0.89-2-2c0-1.1,0.89-2,2-2C90.69,121.33,91.59,122.23,91.59,123.33z"/>
	<path d="M77.75,108.361c0,1.1-0.891,2-2,2c-1.101,0-2-0.9-2-2c0-1.101,0.899-2,2-2C76.86,106.361,77.75,107.26,77.75,108.361z"/>
	<path d="M100.1,115.74c0,1.101-0.891,2-2,2c-1.1,0-2-0.899-2-2c0-1.109,0.9-2,2-2C99.209,113.74,100.1,114.63,100.1,115.74z"/>
	<path d="M24.78,47.03c0,1.1-0.9,2-2,2s-2-0.9-2-2c0-1.11,0.9-2,2-2S24.78,45.92,24.78,47.03z"/>
	<path d="M93.161,80.52c0,1.11-0.891,2-2.001,2c-1.101,0-2-0.89-2-2c0-1.101,0.899-2,2-2C92.27,78.52,93.161,79.419,93.161,80.52z"
		/>
	<path d="M34.169,129.55c0,1.109-0.896,2-1.999,2c-1.11,0-2-0.891-2-2c0-1.1,0.89-2,2-2C33.273,127.55,34.169,128.451,34.169,129.55
		z"/>
	<path d="M55.42,121.82c0,1.11-0.89,2-2,2c-1.1,0-2-0.89-2-2c0-1.1,0.9-2,2-2C54.53,119.82,55.42,120.72,55.42,121.82z"/>
	<path d="M87.2,123.3c0,1.109-0.9,2-2,2c-1.109,0-2-0.891-2-2c0-1.1,0.891-2,2-2C86.299,121.3,87.2,122.201,87.2,123.3z"/>
	<path d="M5.34,111.531c0,1.109-0.9,2-2,2c-1.11,0-2-0.891-2-2c0-1.101,0.89-2,2-2C4.44,109.531,5.34,110.43,5.34,111.531z"/>
	<path d="M32.63,44.67c0,1.11-0.89,2-2,2c-1.1,0-2-0.89-2-2c0-1.1,0.9-2,2-2C31.74,42.67,32.63,43.57,32.63,44.67z"/>
	<path d="M37.74,17.83c0,1.11-0.9,2-2,2c-1.108,0-2.003-0.89-2.003-2c0-1.1,0.896-2,2.003-2C36.84,15.83,37.74,16.73,37.74,17.83z"
		/>
	<path d="M34.92,69.28c0,1.11-0.895,2-1.999,2c-1.101,0-2.001-0.891-2.001-2c0-1.1,0.9-2,2.001-2
		C34.025,67.28,34.92,68.18,34.92,69.28z"/>
	<path d="M18.53,35.18c0,1.1-0.89,2-2,2c-1.1,0-2-0.9-2-2c0-1.11,0.9-2,2-2C17.64,33.18,18.53,34.07,18.53,35.18z"/>
	<path d="M57.89,80.13c0,1.109-0.9,2-2,2c-1.1,0-2-0.891-2-2c0-1.1,0.9-2,2-2C56.99,78.13,57.89,79.031,57.89,80.13z"/>
	<path d="M105.069,12.72c0,1.1-0.898,2-2,2c-1.109,0-2-0.9-2-2c0-1.11,0.891-2,2-2C104.17,10.72,105.069,11.61,105.069,12.72z"/>
	<path d="M26.06,110.19c0,1.11-0.89,2-2,2c-1.1,0-2-0.89-2-2c0-1.1,0.9-2,2-2C25.17,108.19,26.06,109.09,26.06,110.19z"/>
	<path d="M43.34,131.82c0,1.11-0.89,2-2,2c-1.1,0-2-0.89-2-2c0-1.1,0.9-2,2-2C42.45,129.82,43.34,130.72,43.34,131.82z"/>
	<path d="M53.32,20.02c0,1.11-0.89,2-2,2c-1.1,0-2-0.89-2-2c0-1.1,0.9-2,2-2C52.43,18.02,53.32,18.92,53.32,20.02z"/>
	<path d="M48.56,72.6c0,1.101-0.9,2-2,2c-1.11,0-2-0.899-2-2s0.89-2,2-2C47.66,70.6,48.56,71.5,48.56,72.6z"/>
	<path d="M82.48,114.09c0,1.11-0.9,2-2,2c-1.11,0-2-0.89-2-2c0-1.101,0.89-2,2-2C81.58,112.09,82.48,112.99,82.48,114.09z"/>
	<path d="M28.18,27.03c0,1.1-0.89,2-2,2c-1.1,0-2-0.9-2-2c0-1.11,0.9-2,2-2C27.29,25.03,28.18,25.92,28.18,27.03z"/>
	<path d="M31.47,25.75c0,1.11-0.89,2-2,2c-1.1,0-2-0.89-2-2c0-1.1,0.9-2,2-2C30.58,23.75,31.47,24.65,31.47,25.75z"/>
	<path d="M51.11,80.4c0,1.11-0.9,2-2,2s-2-0.89-2-2c0-1.1,0.9-2,2-2S51.11,79.3,51.11,80.4z"/>
	<path d="M36.36,43.94c0,1.1-0.9,2-2.003,2c-1.105,0-1.997-0.9-1.997-2c0-1.1,0.892-2,1.997-2C35.46,41.94,36.36,42.84,36.36,43.94z
		"/>
	<path d="M35.47,34.96c0,1.1-0.892,2-1.996,2c-1.104,0-2.004-0.9-2.004-2c0-1.11,0.9-2,2.004-2
		C34.578,32.96,35.47,33.85,35.47,34.96z"/>
	<path d="M13.13,20.22c0,1.1-0.9,2-2,2c-1.11,0-2-0.9-2-2c0-1.11,0.89-2,2-2C12.23,18.22,13.13,19.11,13.13,20.22z"/>
	<path d="M69.58,125.58c0,1.11-0.899,2-2,2c-1.11,0-2-0.89-2-2c0-1.1,0.89-2,2-2C68.68,123.58,69.58,124.48,69.58,125.58z"/>
	<path d="M25.33,130.419c0,1.101-0.9,2-2,2c-1.11,0-2-0.899-2-2c0-1.1,0.89-2,2-2C24.43,128.419,25.33,129.32,25.33,130.419z"/>
	<path d="M88.58,19.73c0,1.1-0.899,2-2,2c-1.11,0-2-0.9-2-2c0-1.11,0.89-2,2-2C87.68,17.73,88.58,18.62,88.58,19.73z"/>
	<path d="M71.049,88.31c0,1.109-0.89,2-2,2c-1.1,0-2-0.891-2-2c0-1.1,0.9-2,2-2C70.16,86.31,71.049,87.21,71.049,88.31z"/>
	<path d="M61.61,83.621c0,1.1-0.891,2-2,2c-1.1,0-2-0.9-2-2c0-1.11,0.9-2,2-2C60.719,81.621,61.61,82.51,61.61,83.621z"/>
	<path d="M66.219,130.96c0,1.1-0.899,2-2,2c-1.109,0-2-0.9-2-2c0-1.11,0.891-2,2-2C65.32,128.96,66.219,129.85,66.219,130.96z"/>
	<path d="M99.11,26.18c0,1.1-0.9,2-2,2c-1.109,0-2-0.9-2-2c0-1.11,0.891-2,2-2C98.209,24.18,99.11,25.07,99.11,26.18z"/>
	<path d="M21.14,28.83c0,1.11-0.9,2-2,2c-1.11,0-2-0.89-2-2c0-1.1,0.89-2,2-2C20.24,26.83,21.14,27.73,21.14,28.83z"/>
	<path d="M19.71,53.79c0,1.1-0.89,2-2,2c-1.1,0-2-0.9-2-2c0-1.11,0.9-2,2-2C18.82,51.79,19.71,52.68,19.71,53.79z"/>
	<path d="M9.99,24.51c0,1.1-0.9,2-2,2s-2-0.9-2-2c0-1.11,0.9-2,2-2S9.99,23.4,9.99,24.51z"/>
	<path d="M49.38,7.97c0,1.11-0.9,2-2,2c-1.11,0-2-0.89-2-2c0-1.1,0.89-2,2-2C48.48,5.97,49.38,6.87,49.38,7.97z"/>
	<path d="M68.6,129.73c0,1.1-0.891,2-2,2c-1.1,0-2-0.9-2-2c0-1.109,0.9-2,2-2C67.709,127.73,68.6,128.621,68.6,129.73z"/>
	<path d="M64.15,61.5c0,1.11-0.899,2-2,2s-2-0.89-2-2c0-1.1,0.899-2,2-2S64.15,60.4,64.15,61.5z"/>
	<path d="M43.19,49.72c0,1.1-0.89,2-2,2c-1.1,0-2-0.9-2-2c0-1.11,0.9-2,2-2C42.3,47.72,43.19,48.61,43.19,49.72z"/>
	<path d="M53.8,70.23c0,1.11-0.9,2-2,2c-1.11,0-2-0.89-2-2c0-1.1,0.89-2,2-2C52.9,68.23,53.8,69.13,53.8,70.23z"/>
	<path d="M106.049,112.02c0,1.11-0.889,2-2,2c-1.1,0-2-0.89-2-2c0-1.101,0.9-2,2-2C105.161,110.02,106.049,110.919,106.049,112.02z"
		/>
	<path d="M77.65,120.541c0,1.1-0.899,2-2,2c-1.11,0-2-0.9-2-2c0-1.11,0.89-2,2-2C76.75,118.541,77.65,119.43,77.65,120.541z"/>
	<path d="M31.49,117.51c0,1.101-0.9,2-2,2s-2-0.899-2-2c0-1.11,0.9-2,2-2S31.49,116.4,31.49,117.51z"/>
	<path d="M96.67,107.111c0,1.1-0.891,2-2,2c-1.102,0-2-0.9-2-2c0-1.111,0.898-2,2-2C95.78,105.111,96.67,106,96.67,107.111z"/>
	<path d="M25.39,114.031c0,1.1-0.9,2-2,2c-1.11,0-2-0.9-2-2c0-1.111,0.89-2,2-2C24.49,112.031,25.39,112.919,25.39,114.031z"/>
	<path d="M16.4,28.17c0,1.1-0.9,2-2,2c-1.11,0-2-0.9-2-2c0-1.11,0.89-2,2-2C15.5,26.17,16.4,27.06,16.4,28.17z"/>
	<path d="M5.93,50.32c0,1.1-0.9,2-2,2c-1.11,0-2-0.9-2-2c0-1.11,0.89-2,2-2C5.03,48.32,5.93,49.21,5.93,50.32z"/>
	<path d="M54.32,5.55c0,1.11-0.89,2-2,2c-1.1,0-2-0.89-2-2c0-1.1,0.9-2,2-2C53.43,3.55,54.32,4.45,54.32,5.55z"/>
	<path d="M93.79,91.96c0,1.1-0.9,2-2,2c-1.109,0-2-0.9-2-2c0-1.11,0.891-2,2-2C92.889,89.96,93.79,90.85,93.79,91.96z"/>
	<path d="M60.05,117.419c0,1.101-0.9,2-2,2s-2-0.899-2-2c0-1.109,0.9-2,2-2S60.05,116.31,60.05,117.419z"/>
	<path d="M11.95,34.32c0,1.11-0.9,2-2,2c-1.11,0-2-0.89-2-2c0-1.1,0.89-2,2-2C11.05,32.32,11.95,33.22,11.95,34.32z"/>
	<path d="M47.79,8.02c0,1.1-0.9,2-2,2c-1.1,0-2-0.9-2-2c0-1.11,0.9-2,2-2C46.89,6.02,47.79,6.91,47.79,8.02z"/>
	<path d="M76.78,58.19c0,1.1-0.891,2-2,2c-1.1,0-2-0.9-2-2c0-1.11,0.9-2,2-2C75.889,56.19,76.78,57.08,76.78,58.19z"/>
	<path d="M111.831,91.4c0,1.11-0.891,2-2,2c-1.102,0-2-0.89-2-2c0-1.1,0.898-2,2-2C110.94,89.4,111.831,90.3,111.831,91.4z"/>
	<path d="M8.58,39.63c0,1.1-0.9,2-2,2c-1.11,0-2-0.9-2-2c0-1.11,0.89-2,2-2C7.68,37.63,8.58,38.52,8.58,39.63z"/>
</g>
</svg>
