<?xml version="1.0" encoding="utf-8"?>
<!-- Generator: Adobe Illustrator 13.0.1, SVG Export Plug-In . SVG Version: 6.00 Build 14948)  -->
<!DOCTYPE svg PUBLIC "-//W3C//DTD SVG 1.1 Basic//EN" "http://www.w3.org/Graphics/SVG/1.1/DTD/svg11-basic.dtd">
<svg version="1.1" baseProfile="basic" id="Laag_1" xmlns="http://www.w3.org/2000/svg" xmlns:xlink="http://www.w3.org/1999/xlink"
	 x="0px" y="0px" width="160.59px" height="156.625px" viewBox="0 0 160.59 156.625" xml:space="preserve">
<g>
	<defs>
		<rect id="SVGID_1_" width="160.59" height="156.625"/>
	</defs>
	<clipPath id="SVGID_2_">
		<use xlink:href="#SVGID_1_"  overflow="visible"/>
	</clipPath>
	<path clip-path="url(#SVGID_2_)" d="M144.757,75.703c-1.816,0-3.609-0.312-5.33-0.927c-3.981-1.424-7.168-4.313-8.975-8.135
		c-1.807-3.82-2.016-8.116-0.592-12.096c2.246-6.276,8.232-10.494,14.898-10.494c1.816,0,3.609,0.312,5.33,0.928
		c3.98,1.425,7.166,4.312,8.973,8.133c1.809,3.822,2.02,8.117,0.594,12.097C157.409,71.487,151.421,75.703,144.757,75.703
		 M144.759,54.051c-2.453,0-4.656,1.553-5.482,3.863c-0.525,1.466-0.447,3.047,0.217,4.453c0.664,1.407,1.838,2.469,3.303,2.994
		c0.635,0.227,1.295,0.342,1.961,0.342c2.453,0,4.656-1.552,5.484-3.865c0.523-1.463,0.447-3.044-0.219-4.45
		c-0.666-1.406-1.838-2.47-3.303-2.993C146.083,54.167,145.423,54.051,144.759,54.051"/>
	<path clip-path="url(#SVGID_2_)" d="M30.644,156.625c-1.814,0-3.607-0.311-5.328-0.926c-3.983-1.426-7.168-4.314-8.975-8.135
		c-1.806-3.821-2.017-8.117-0.593-12.098c2.246-6.275,8.234-10.494,14.898-10.494c1.816,0,3.611,0.312,5.332,0.93
		c3.979,1.425,7.166,4.312,8.973,8.133c1.806,3.82,2.017,8.117,0.593,12.096C43.296,152.409,37.31,156.625,30.644,156.625
		 M30.646,134.973c-2.451,0-4.656,1.553-5.482,3.865c-0.524,1.465-0.448,3.045,0.218,4.451c0.664,1.406,1.836,2.469,3.301,2.995
		c0.637,0.226,1.297,0.341,1.961,0.341c2.453,0,4.658-1.553,5.486-3.863c0.524-1.465,0.446-3.045-0.218-4.451
		c-0.666-1.406-1.84-2.469-3.303-2.994C31.972,135.09,31.312,134.973,30.646,134.973"/>
	<path clip-path="url(#SVGID_2_)" fill="none" stroke="#000000" stroke-width="8" stroke-miterlimit="10" d="M30.646,134.57
		c0,0,0.049-135.902,108.818-77.828"/>
	
		<rect x="4.843" y="70.787" transform="matrix(0.957 0.29 -0.29 0.957 23.2891 -2.992)" clip-path="url(#SVGID_2_)" fill="none" stroke="#000000" stroke-width="6" stroke-miterlimit="10" width="33.796" height="12.613"/>
	
		<rect x="14.498" y="50.361" transform="matrix(0.8564 0.5164 -0.5164 0.8564 33.7728 -8.0724)" clip-path="url(#SVGID_2_)" fill="none" stroke="#000000" stroke-width="6" stroke-miterlimit="10" width="33.797" height="12.614"/>
	
		<rect x="30.579" y="30.248" transform="matrix(0.5932 0.805 -0.805 0.5932 48.741 -23.3507)" clip-path="url(#SVGID_2_)" fill="none" stroke="#000000" stroke-width="6" stroke-miterlimit="10" width="33.796" height="12.613"/>
	
		<rect x="53.621" y="18.074" transform="matrix(0.2553 0.9669 -0.9669 0.2553 76.0869 -50.0266)" clip-path="url(#SVGID_2_)" fill="none" stroke="#000000" stroke-width="6" stroke-miterlimit="10" width="33.797" height="12.613"/>
	
		<rect x="79.02" y="14.161" transform="matrix(0.0658 -0.9978 0.9978 0.0658 69.1867 114.8328)" clip-path="url(#SVGID_2_)" fill="none" stroke="#000000" stroke-width="6" stroke-miterlimit="10" width="33.797" height="12.614"/>
	
		<rect x="101.878" y="19.402" transform="matrix(0.281 -0.9597 0.9597 0.281 60.7284 132.4776)" clip-path="url(#SVGID_2_)" fill="none" stroke="#000000" stroke-width="6" stroke-miterlimit="10" width="33.797" height="12.616"/>
</g>
</svg>
