<?xml version="1.0" encoding="utf-8"?>
<!-- Generator: Adobe Illustrator 13.0.1, SVG Export Plug-In . SVG Version: 6.00 Build 14948)  -->
<svg version="1.2" baseProfile="tiny" id="Laag_1" xmlns="http://www.w3.org/2000/svg" xmlns:xlink="http://www.w3.org/1999/xlink"
	 x="0px" y="0px" width="175.483px" height="174.849px" viewBox="0 0 175.483 174.849" xml:space="preserve">
<line fill="none" stroke="#000000" stroke-width="6.5107" x1="175.483" y1="127.028" x2="0" y2="127.028"/>
<line fill="none" stroke="#000000" stroke-width="6" x1="127.385" y1="174.844" x2="127.097" y2="0.005"/>
<path d="M41.66,34.851c0,10.888-8.824,19.713-19.715,19.713c-10.889,0-19.71-8.825-19.71-19.713c0-10.885,8.821-19.71,19.71-19.71
	C32.835,15.14,41.66,23.965,41.66,34.851z"/>
<path fill="none" stroke="#000000" stroke-width="6" d="M146.822,127.108c0,10.888-8.824,19.713-19.715,19.713
	c-10.89,0-19.711-8.825-19.711-19.713c0-10.885,8.821-19.71,19.711-19.71C137.998,107.398,146.822,116.223,146.822,127.108z"/>
<polygon points="106.895,107.832 90.984,70.125 84.673,77.483 48.85,46.36 37.572,59.514 73.396,90.631 66.118,99.113 "/>
</svg>
