<?xml version="1.0" encoding="utf-8"?>
<!-- Generator: Adobe Illustrator 13.0.1, SVG Export Plug-In . SVG Version: 6.00 Build 14948)  -->
<!DOCTYPE svg PUBLIC "-//W3C//DTD SVG 1.1 Basic//EN" "http://www.w3.org/Graphics/SVG/1.1/DTD/svg11-basic.dtd">
<svg version="1.1" baseProfile="basic" id="Laag_1" xmlns="http://www.w3.org/2000/svg" xmlns:xlink="http://www.w3.org/1999/xlink"
	 x="0px" y="0px" width="86.372px" height="84.146px" viewBox="0 0 86.372 84.146" xml:space="preserve">
<g>
	<defs>
		<rect id="SVGID_1_" width="86.372" height="84.146"/>
	</defs>
	<clipPath id="SVGID_2_">
		<use xlink:href="#SVGID_1_"  overflow="visible"/>
	</clipPath>
	<path clip-path="url(#SVGID_2_)" d="M83.414,41.147l-5.76,1.687c2.749,9.442-2.516,19.288-11.805,22.315l-1.051-2.819l-8.963,8.53
		l12.148,2.347l-0.494-2.271C79.998,67.007,87.112,53.784,83.414,41.147"/>
	<path clip-path="url(#SVGID_2_)" d="M29.781,74.427l-0.09-6c-9.833,0.132-17.917-7.57-18.356-17.33l2.997-0.261l-5.83-10.913
		L3,51.006l2.319,0.129C5.77,64.237,16.617,74.623,29.781,74.427"/>
	<path clip-path="url(#SVGID_2_)" d="M22.036,12.716l5.288,2.838C31.987,6.896,42.646,3.57,51.392,7.93l-1.23,2.746l12.372,0.208
		L55.521,0.688l-1.242,1.964C42.609-3.319,28.264,1.115,22.036,12.716"/>
	
		<circle clip-path="url(#SVGID_2_)" fill="none" stroke="#000000" stroke-width="6" stroke-linecap="round" stroke-miterlimit="10" cx="73.613" cy="25.312" r="9.759"/>
	<polygon clip-path="url(#SVGID_2_)" fill="none" stroke="#000000" stroke-width="6" stroke-miterlimit="10" points="43.627,81.146 
		34.46,81.146 39.044,73.208 43.627,65.268 48.21,73.208 52.794,81.146 	"/>
	
		<rect x="3" y="17.881" clip-path="url(#SVGID_2_)" fill="none" stroke="#000000" stroke-width="6" stroke-miterlimit="10" width="14.865" height="14.865"/>
</g>
</svg>
