<?xml version="1.0" encoding="utf-8"?>
<!-- Generator: Adobe Illustrator 13.0.1, SVG Export Plug-In . SVG Version: 6.00 Build 14948)  -->
<svg version="1.2" baseProfile="tiny" id="Laag_1" xmlns="http://www.w3.org/2000/svg" xmlns:xlink="http://www.w3.org/1999/xlink"
	 x="0px" y="0px" width="138.838px" height="236.46px" viewBox="0 0 138.838 236.46" xml:space="preserve">
<g>
	<path stroke="#FFFFFF" stroke-width="6" d="M135.837,228.446c-6.079,1.567-12.522,2.794-19.336,3.683
		c-6.812,0.888-15.146,1.331-24.995,1.331c-22.009,0-38.385-4.453-49.126-13.361c-10.742-8.906-16.112-24.155-16.112-45.746V91.818
		H3V53.462h23.268V3h56.751v50.462h52.818v38.356H83.018v62.663c0,6.194,0.052,11.599,0.155,16.217
		c0.104,4.617,0.94,8.765,2.51,12.438c1.462,3.676,4.048,6.587,7.757,8.737c3.709,2.151,9.118,3.229,16.224,3.229
		c2.924,0,6.763-0.629,11.521-1.887c4.755-1.258,8.071-2.409,9.955-3.459h4.699L135.837,228.446L135.837,228.446z"/>
</g>
</svg>
