<?xml version="1.0" encoding="utf-8"?>
<!-- Generator: Adobe Illustrator 13.0.1, SVG Export Plug-In . SVG Version: 6.00 Build 14948)  -->
<!DOCTYPE svg PUBLIC "-//W3C//DTD SVG 1.1 Basic//EN" "http://www.w3.org/Graphics/SVG/1.1/DTD/svg11-basic.dtd">
<svg version="1.1" baseProfile="basic" id="Laag_1" xmlns="http://www.w3.org/2000/svg" xmlns:xlink="http://www.w3.org/1999/xlink"
	 x="0px" y="0px" width="165.039px" height="162.357px" viewBox="0 0 165.039 162.357" xml:space="preserve">
<g>
	<defs>
		<rect id="SVGID_1_" y="0.601" width="165.039" height="161.756"/>
	</defs>
	<clipPath id="SVGID_2_">
		<use xlink:href="#SVGID_1_"  overflow="visible"/>
	</clipPath>
	<path clip-path="url(#SVGID_2_)" d="M149.206,81.434c-1.815,0-3.608-0.312-5.329-0.927c-3.982-1.424-7.168-4.313-8.975-8.135
		c-1.807-3.82-2.017-8.116-0.593-12.096c2.246-6.276,8.233-10.494,14.898-10.494c1.816,0,3.61,0.312,5.331,0.928
		c3.979,1.425,7.166,4.312,8.973,8.133c1.808,3.822,2.019,8.117,0.594,12.097C161.858,77.218,155.871,81.434,149.206,81.434
		 M149.208,59.782c-2.452,0-4.656,1.553-5.482,3.863c-0.524,1.466-0.447,3.047,0.218,4.453c0.664,1.407,1.837,2.469,3.302,2.994
		c0.636,0.227,1.296,0.342,1.961,0.342c2.453,0,4.657-1.552,5.485-3.865c0.523-1.463,0.446-3.044-0.219-4.45
		c-0.666-1.406-1.839-2.47-3.303-2.993C150.533,59.897,149.873,59.782,149.208,59.782"/>
	<path clip-path="url(#SVGID_2_)" d="M35.094,162.357c-1.815,0-3.608-0.312-5.329-0.928c-3.982-1.424-7.168-4.312-8.975-8.135
		c-1.806-3.819-2.016-8.115-0.592-12.096c2.246-6.275,8.233-10.494,14.898-10.494c1.816,0,3.61,0.312,5.331,0.928
		c3.98,1.427,7.166,4.312,8.973,8.134c1.807,3.821,2.018,8.116,0.593,12.097C47.746,158.141,41.759,162.357,35.094,162.357
		 M35.096,140.705c-2.452,0-4.656,1.553-5.482,3.863c-0.525,1.467-0.448,3.047,0.217,4.453c0.664,1.406,1.837,2.469,3.302,2.995
		c0.636,0.226,1.296,0.341,1.961,0.341c2.453,0,4.657-1.553,5.485-3.865c0.524-1.463,0.447-3.043-0.218-4.449
		c-0.666-1.406-1.839-2.471-3.303-2.994C36.421,140.82,35.761,140.705,35.096,140.705"/>
	<path clip-path="url(#SVGID_2_)" fill="none" stroke="#000000" stroke-width="8" stroke-miterlimit="10" d="M35.096,140.3
		c0,0,0.049-135.901,108.817-77.827"/>
	<g clip-path="url(#SVGID_2_)">
		<text transform="matrix(0.4615 -0.8871 0.8871 0.4615 43.2764 90.061)" font-family="'Verdana-Bold'" font-size="55">t</text>
	</g>
</g>
<text transform="matrix(0.7862 -0.618 0.618 0.7862 51.2412 69.4478)" font-family="'Verdana-Bold'" font-size="55">e</text>
<g>
	<defs>
		<rect id="SVGID_3_" y="0.601" width="165.039" height="161.756"/>
	</defs>
	<clipPath id="SVGID_4_">
		<use xlink:href="#SVGID_3_"  overflow="visible"/>
	</clipPath>
	<g clip-path="url(#SVGID_4_)">
		<text transform="matrix(0.9995 -0.0326 0.0326 0.9995 75.6738 48.668)" font-family="'Verdana-Bold'" font-size="55">x</text>
	</g>
	<g clip-path="url(#SVGID_4_)">
		<text transform="matrix(0.9494 0.314 -0.314 0.9494 109.2793 48.5894)" font-family="'Verdana-Bold'" font-size="55">t</text>
	</g>
</g>
</svg>
