<?xml version="1.0" encoding="utf-8"?>
<!-- Generator: Adobe Illustrator 13.0.1, SVG Export Plug-In . SVG Version: 6.00 Build 14948)  -->
<svg version="1.2" baseProfile="tiny" id="Laag_1" xmlns="http://www.w3.org/2000/svg" xmlns:xlink="http://www.w3.org/1999/xlink"
	 x="0px" y="0px" width="64.475px" height="63.18px" viewBox="0 0 64.475 63.18" xml:space="preserve">
<polygon points="56.646,36.77 54.48,40.917 34.087,32.05 38.013,23.02 41.241,24.062 40.431,11.714 30.848,19.543 33.669,21.131 
	29.743,30.161 10.792,21.921 12.348,17.509 0,18.319 7.829,27.902 9.995,23.755 28.946,31.995 25.173,40.673 22.086,39.693 
	22.897,52.04 32.48,44.212 29.517,42.562 33.29,33.884 53.683,42.751 52.127,47.163 64.475,46.353 "/>
<path d="M44.604,50.464l-5.288-2.838c-4.663,8.658-15.323,11.982-24.068,7.624l1.23-2.746L4.106,52.296l7.013,10.195l1.242-1.964
	C24.03,66.499,38.377,62.064,44.604,50.464z"/>
<path d="M19.106,12.716l5.288,2.838C29.057,6.896,39.717,3.571,48.462,7.93l-1.23,2.746l12.372,0.208L52.591,0.688l-1.242,1.964
	C39.68-3.319,25.333,1.115,19.106,12.716z"/>
</svg>
