<?xml version="1.0" encoding="utf-8"?>
<!-- Generator: Adobe Illustrator 13.0.1, SVG Export Plug-In . SVG Version: 6.00 Build 14948)  -->
<svg version="1.2" baseProfile="tiny" id="Laag_1" xmlns="http://www.w3.org/2000/svg" xmlns:xlink="http://www.w3.org/1999/xlink"
	 x="0px" y="0px" width="200.367px" height="152.35px" viewBox="0 0 200.367 152.35" xml:space="preserve">
<g>
	<polygon fill="#FFFFFF" stroke="#000000" stroke-width="6" points="196.238,9.446 192.408,23.246 189.218,30.706 183.958,48.605 
		187.168,58.156 177.208,58.486 172.948,67.286 175.038,88.656 167.019,94.666 167.979,106.556 172.229,113.156 166.578,126.186 
		164.718,137.525 157.878,147.496 142.729,137.696 142.428,145.376 128.838,138.426 119.388,131.496 111.918,125.565 
		112.358,121.636 117.178,111.656 110.108,93.355 102.598,91.396 97.328,79.396 103.698,69.576 94.218,62.275 100.328,63.136 
		91.008,83.286 93.008,95.036 91.478,95.236 89.718,111.966 83.598,123.006 78.068,128.976 80.308,139.536 73.988,148.336 
		55.888,137.266 42.078,137.056 37.54,147.126 40.888,134.596 32.328,118.375 27.308,115.416 21.508,95.286 22.418,86.125 
		25.658,75.056 16.438,71.315 21.058,58.186 17.808,52.105 15.508,35.246 9.648,30.596 5.258,20.806 3.568,12.295 18.048,10.436 
		20.178,14.976 39.418,13.846 36.817,19.855 47.208,27.375 38.598,38.726 51.538,49.306 48.248,64.166 50.278,70.335 55.708,85.166 
		60.658,93.426 58.348,99.396 61.398,97.246 64.968,75.815 68.568,72.976 72.808,64.226 73.268,49.025 77.388,37.456 72.548,33.646 
		84.968,18.746 84.078,8.706 89.518,14.766 103.138,13.666 120.308,12.966 114.538,20.206 117.548,35.136 118.208,39.596 
		121.948,50.105 131.368,57.206 125.868,77.466 133.828,77.896 136.358,87.866 134.668,105.795 139.128,96.866 144.208,82.125 
		142.958,70.875 153.398,57.176 155.358,44.636 150.108,42.266 152.648,24.855 154.288,15.605 163.408,15.295 170.248,14.065 
		177.468,12.286 	"/>
	<polygon fill="#FFFFFF" stroke="#000000" stroke-width="6" points="196.238,9.446 192.408,23.246 189.218,30.706 183.958,48.605 
		187.168,58.156 177.208,58.486 172.948,67.286 175.038,88.656 167.019,94.666 167.979,106.556 172.229,113.156 166.578,126.186 
		164.718,137.525 157.878,147.496 142.729,137.696 142.428,145.376 128.838,138.426 119.388,131.496 111.918,125.565 
		112.358,121.636 117.178,111.656 110.108,93.355 102.598,91.396 97.328,79.396 103.698,69.576 94.218,62.275 100.328,63.136 
		91.008,83.286 93.008,95.036 91.478,95.236 89.718,111.966 83.598,123.006 78.068,128.976 80.308,139.536 73.988,148.336 
		55.888,137.266 42.078,137.056 37.54,147.126 40.888,134.596 32.328,118.375 27.308,115.416 21.508,95.286 22.418,86.125 
		25.658,75.056 16.438,71.315 21.058,58.186 17.808,52.105 15.508,35.246 9.648,30.596 5.258,20.806 3.568,12.295 18.048,10.436 
		20.178,14.976 39.418,13.846 36.817,19.855 47.208,27.375 38.598,38.726 51.538,49.306 48.248,64.166 50.278,70.335 55.708,85.166 
		60.658,93.426 58.348,99.396 61.398,97.246 64.968,75.815 68.568,72.976 72.808,64.226 73.268,49.025 77.388,37.456 72.548,33.646 
		84.968,18.746 84.078,8.706 89.518,14.766 103.138,13.666 120.308,12.966 114.538,20.206 117.548,35.136 118.208,39.596 
		121.948,50.105 131.368,57.206 125.868,77.466 133.828,77.896 136.358,87.866 134.668,105.795 139.128,96.866 144.208,82.125 
		142.958,70.875 153.398,57.176 155.358,44.636 150.108,42.266 152.648,24.855 154.288,15.605 163.408,15.295 170.248,14.065 
		177.468,12.286 	"/>
</g>
</svg>
