<?xml version="1.0" encoding="utf-8"?>
<!-- Generator: Adobe Illustrator 15.0.0, SVG Export Plug-In . SVG Version: 6.00 Build 0)  -->
<!DOCTYPE svg PUBLIC "-//W3C//DTD SVG 1.1//EN" "http://www.w3.org/Graphics/SVG/1.1/DTD/svg11.dtd">
<svg version="1.1" id="Laag_1" xmlns="http://www.w3.org/2000/svg" xmlns:xlink="http://www.w3.org/1999/xlink" x="0px" y="0px"
	 width="49.947px" height="49.947px" viewBox="0 0 49.947 49.947" enable-background="new 0 0 49.947 49.947" xml:space="preserve">
<g>
	<path d="M28.487,5.42c0,0.779-0.062,1.491-0.186,2.135c-0.121,0.644-0.327,1.198-0.612,1.661c-0.284,0.463-0.657,0.822-1.118,1.077
		c-0.46,0.253-1.028,0.38-1.704,0.38c-0.639,0-1.177-0.115-1.613-0.342c-0.438-0.227-0.789-0.562-1.057-1.005
		c-0.267-0.442-0.456-0.987-0.57-1.634c-0.111-0.646-0.167-1.388-0.167-2.226c0-0.775,0.062-1.485,0.188-2.132
		c0.125-0.646,0.331-1.201,0.611-1.665c0.283-0.464,0.656-0.822,1.117-1.076c0.46-0.254,1.024-0.381,1.694-0.381
		c0.644,0,1.187,0.114,1.623,0.341c0.437,0.229,0.789,0.563,1.057,1.006c0.265,0.442,0.456,0.987,0.567,1.633
		C28.431,3.84,28.487,4.582,28.487,5.42z M27.105,5.514c0-0.507-0.02-0.963-0.056-1.367c-0.036-0.403-0.09-0.759-0.161-1.068
		c-0.07-0.309-0.162-0.574-0.275-0.797c-0.111-0.222-0.247-0.405-0.402-0.549c-0.158-0.144-0.337-0.248-0.539-0.314
		c-0.201-0.066-0.429-0.099-0.68-0.099c-0.444,0-0.806,0.105-1.084,0.315c-0.277,0.209-0.495,0.498-0.654,0.863
		c-0.161,0.367-0.269,0.795-0.327,1.288c-0.058,0.492-0.086,1.021-0.086,1.586c0,0.759,0.04,1.404,0.118,1.936
		s0.203,0.965,0.373,1.3c0.169,0.335,0.387,0.578,0.651,0.73c0.264,0.152,0.584,0.228,0.961,0.228c0.293,0,0.553-0.047,0.773-0.142
		c0.224-0.093,0.415-0.229,0.574-0.405c0.16-0.174,0.291-0.386,0.397-0.632c0.104-0.245,0.187-0.518,0.251-0.816
		c0.062-0.298,0.105-0.622,0.129-0.97C27.094,6.253,27.105,5.891,27.105,5.514z"/>
	<path d="M28.172,22.968c0,0.1-0.008,0.184-0.023,0.251c-0.014,0.068-0.036,0.124-0.062,0.165c-0.026,0.042-0.057,0.072-0.09,0.09
		c-0.034,0.019-0.07,0.028-0.107,0.028h-5.308c-0.038,0-0.071-0.009-0.102-0.028c-0.032-0.018-0.062-0.048-0.092-0.09
		c-0.028-0.042-0.05-0.097-0.065-0.165c-0.017-0.068-0.024-0.152-0.024-0.251c0-0.094,0.008-0.175,0.024-0.243
		c0.016-0.068,0.035-0.125,0.058-0.168c0.023-0.045,0.054-0.079,0.088-0.103c0.033-0.023,0.071-0.035,0.113-0.035h2.119v-7.727
		l-1.962,1.17c-0.1,0.053-0.179,0.084-0.241,0.095c-0.06,0.01-0.107-0.002-0.144-0.036c-0.037-0.034-0.062-0.09-0.075-0.168
		c-0.012-0.079-0.021-0.179-0.021-0.299c0-0.088,0.004-0.165,0.013-0.227c0.008-0.063,0.02-0.115,0.035-0.158
		c0.017-0.042,0.038-0.078,0.066-0.109c0.029-0.031,0.067-0.063,0.115-0.094l2.339-1.5c0.021-0.016,0.048-0.029,0.08-0.039
		c0.029-0.011,0.069-0.021,0.117-0.032c0.046-0.01,0.102-0.017,0.165-0.02c0.062-0.002,0.14-0.003,0.235-0.003
		c0.126,0,0.229,0.005,0.313,0.015c0.083,0.011,0.149,0.025,0.197,0.044c0.046,0.018,0.077,0.042,0.094,0.07
		c0.016,0.029,0.023,0.06,0.023,0.091v8.928h1.837c0.041,0,0.081,0.012,0.119,0.035c0.036,0.024,0.065,0.058,0.09,0.103
		c0.023,0.044,0.042,0.101,0.054,0.168C28.166,22.793,28.172,22.875,28.172,22.968z"/>
	<path d="M28.172,35.946c0,0.1-0.008,0.183-0.023,0.251c-0.014,0.068-0.036,0.123-0.062,0.165c-0.026,0.042-0.057,0.072-0.09,0.09
		c-0.034,0.02-0.07,0.028-0.107,0.028h-5.308c-0.038,0-0.071-0.009-0.102-0.028c-0.032-0.018-0.062-0.048-0.092-0.09
		c-0.028-0.042-0.05-0.097-0.065-0.165c-0.017-0.068-0.024-0.151-0.024-0.251c0-0.094,0.008-0.176,0.024-0.243
		c0.016-0.068,0.035-0.125,0.058-0.169c0.023-0.045,0.054-0.079,0.088-0.103c0.033-0.023,0.071-0.035,0.113-0.035h2.119v-7.728
		l-1.962,1.171c-0.1,0.053-0.179,0.083-0.241,0.095c-0.06,0.01-0.107-0.002-0.144-0.036c-0.037-0.034-0.062-0.09-0.075-0.169
		c-0.012-0.078-0.021-0.178-0.021-0.299c0-0.089,0.004-0.164,0.013-0.227c0.008-0.063,0.02-0.115,0.035-0.158
		c0.017-0.042,0.038-0.077,0.066-0.109c0.029-0.031,0.067-0.062,0.115-0.094l2.339-1.5c0.021-0.017,0.048-0.029,0.08-0.039
		c0.029-0.011,0.069-0.021,0.117-0.032c0.046-0.01,0.102-0.017,0.165-0.02c0.062-0.002,0.14-0.003,0.235-0.003
		c0.126,0,0.229,0.005,0.313,0.015c0.083,0.011,0.149,0.025,0.197,0.044c0.046,0.018,0.077,0.042,0.094,0.07
		c0.016,0.028,0.023,0.06,0.023,0.09v8.929h1.837c0.041,0,0.081,0.012,0.119,0.035c0.036,0.023,0.065,0.058,0.09,0.103
		c0.023,0.044,0.042,0.101,0.054,0.169C28.166,35.771,28.172,35.853,28.172,35.946z"/>
	<path d="M28.487,44.355c0,0.779-0.062,1.491-0.186,2.135c-0.121,0.644-0.327,1.198-0.612,1.661
		c-0.284,0.463-0.657,0.822-1.118,1.076c-0.46,0.253-1.028,0.381-1.704,0.381c-0.639,0-1.177-0.114-1.613-0.342
		c-0.438-0.228-0.789-0.562-1.057-1.005c-0.267-0.442-0.456-0.987-0.57-1.634c-0.111-0.646-0.167-1.389-0.167-2.226
		c0-0.774,0.062-1.485,0.188-2.133c0.125-0.646,0.331-1.201,0.611-1.664c0.283-0.464,0.656-0.821,1.117-1.076
		c0.46-0.254,1.024-0.381,1.694-0.381c0.644,0,1.187,0.114,1.623,0.341c0.437,0.229,0.789,0.563,1.057,1.006
		c0.265,0.443,0.456,0.987,0.567,1.633C28.431,42.775,28.487,43.517,28.487,44.355z M27.105,44.449c0-0.508-0.02-0.963-0.056-1.367
		c-0.036-0.402-0.09-0.759-0.161-1.067c-0.07-0.309-0.162-0.574-0.275-0.798c-0.111-0.222-0.247-0.404-0.402-0.549
		c-0.158-0.144-0.337-0.248-0.539-0.314c-0.201-0.065-0.429-0.099-0.68-0.099c-0.444,0-0.806,0.105-1.084,0.315
		c-0.277,0.209-0.495,0.497-0.654,0.863c-0.161,0.366-0.269,0.795-0.327,1.288c-0.058,0.492-0.086,1.021-0.086,1.586
		c0,0.759,0.04,1.404,0.118,1.936s0.203,0.965,0.373,1.3c0.169,0.335,0.387,0.578,0.651,0.729c0.264,0.152,0.584,0.229,0.961,0.229
		c0.293,0,0.553-0.047,0.773-0.142c0.224-0.094,0.415-0.229,0.574-0.404c0.16-0.175,0.291-0.386,0.397-0.633
		c0.104-0.245,0.187-0.518,0.251-0.816c0.062-0.298,0.105-0.622,0.129-0.97C27.094,45.188,27.105,44.825,27.105,44.449z"/>
</g>
</svg>
