<?xml version="1.0" encoding="utf-8"?>
<!-- Generator: Adobe Illustrator 15.0.0, SVG Export Plug-In . SVG Version: 6.00 Build 0)  -->
<!DOCTYPE svg PUBLIC "-//W3C//DTD SVG 1.1//EN" "http://www.w3.org/Graphics/SVG/1.1/DTD/svg11.dtd">
<svg version="1.1" id="Laag_1" xmlns="http://www.w3.org/2000/svg" xmlns:xlink="http://www.w3.org/1999/xlink" x="0px" y="0px"
	 width="49.947px" height="49.947px" viewBox="0 0 49.947 49.947" enable-background="new 0 0 49.947 49.947" xml:space="preserve">
<g enable-background="new    ">
	<path d="M1.666,23.355v1.122c0,0.154-0.016,0.279-0.049,0.374c-0.032,0.095-0.083,0.169-0.151,0.222
		c-0.069,0.054-0.155,0.089-0.258,0.107c-0.104,0.018-0.227,0.027-0.369,0.027c-0.143,0-0.264-0.009-0.365-0.027
		c-0.101-0.018-0.184-0.053-0.25-0.107c-0.065-0.053-0.114-0.127-0.147-0.222c-0.032-0.095-0.049-0.22-0.049-0.374
		c0-0.178,0.009-0.343,0.027-0.494c0.018-0.151,0.046-0.295,0.084-0.432c0.039-0.136,0.092-0.271,0.16-0.405
		c0.068-0.133,0.15-0.274,0.245-0.422l1.201-1.824c0.03-0.047,0.062-0.086,0.098-0.116c0.036-0.029,0.08-0.055,0.133-0.076
		c0.054-0.021,0.117-0.037,0.191-0.049c0.074-0.012,0.165-0.018,0.271-0.018c0.095,0,0.173,0.004,0.236,0.013
		c0.062,0.009,0.11,0.024,0.142,0.044c0.033,0.021,0.049,0.049,0.049,0.084s-0.012,0.077-0.036,0.125L1.666,23.355z M4.852,23.355
		v1.122c0,0.154-0.016,0.279-0.049,0.374s-0.083,0.169-0.151,0.222c-0.069,0.054-0.155,0.089-0.258,0.107
		c-0.104,0.018-0.227,0.027-0.37,0.027c-0.142,0-0.264-0.009-0.364-0.027c-0.101-0.018-0.185-0.053-0.25-0.107
		c-0.065-0.053-0.114-0.127-0.147-0.222c-0.032-0.095-0.049-0.22-0.049-0.374c0-0.178,0.009-0.343,0.026-0.494
		c0.018-0.151,0.046-0.295,0.085-0.432c0.038-0.136,0.092-0.271,0.16-0.405c0.068-0.133,0.15-0.274,0.245-0.422l1.201-1.824
		c0.03-0.047,0.062-0.086,0.098-0.116c0.036-0.029,0.08-0.055,0.133-0.076c0.053-0.021,0.117-0.037,0.191-0.049
		c0.074-0.012,0.165-0.018,0.271-0.018c0.095,0,0.175,0.004,0.24,0.013c0.065,0.009,0.113,0.024,0.143,0.044
		s0.046,0.049,0.049,0.084c0.003,0.036-0.011,0.077-0.041,0.125L4.852,23.355z"/>
	<path d="M15.049,27.314c0,0.884-0.07,1.691-0.209,2.42c-0.14,0.73-0.371,1.357-0.694,1.883c-0.324,0.524-0.746,0.931-1.268,1.219
		s-1.166,0.432-1.931,0.432c-0.724,0-1.333-0.129-1.828-0.387c-0.496-0.259-0.895-0.638-1.197-1.14
		c-0.303-0.501-0.518-1.118-0.646-1.85c-0.127-0.733-0.191-1.574-0.191-2.523c0-0.878,0.071-1.683,0.213-2.416
		c0.143-0.732,0.374-1.361,0.694-1.886c0.32-0.525,0.741-0.932,1.263-1.219s1.163-0.432,1.922-0.432
		c0.729,0,1.342,0.129,1.837,0.387c0.495,0.258,0.894,0.638,1.197,1.139c0.302,0.501,0.517,1.119,0.645,1.851
		C14.985,25.525,15.049,26.366,15.049,27.314z M13.483,27.422c0-0.575-0.021-1.092-0.062-1.548
		c-0.042-0.458-0.103-0.861-0.182-1.211c-0.081-0.35-0.185-0.651-0.312-0.903c-0.127-0.251-0.28-0.459-0.458-0.623
		c-0.178-0.163-0.381-0.281-0.61-0.356c-0.229-0.074-0.484-0.111-0.77-0.111c-0.504,0-0.913,0.119-1.228,0.356
		S9.3,23.59,9.119,24.005c-0.182,0.415-0.305,0.902-0.37,1.459c-0.066,0.558-0.098,1.157-0.098,1.798
		c0,0.86,0.044,1.591,0.133,2.192c0.089,0.603,0.229,1.094,0.423,1.474c0.192,0.379,0.438,0.655,0.738,0.827
		c0.299,0.172,0.663,0.258,1.09,0.258c0.332,0,0.624-0.053,0.876-0.16c0.252-0.106,0.468-0.259,0.649-0.458
		c0.181-0.198,0.331-0.438,0.45-0.716c0.119-0.279,0.213-0.587,0.285-0.926c0.071-0.338,0.12-0.705,0.147-1.1
		C13.469,28.26,13.483,27.849,13.483,27.422z"/>
	<path d="M23.928,32.494c0,0.112-0.009,0.207-0.026,0.284s-0.042,0.14-0.071,0.187c-0.029,0.048-0.063,0.082-0.103,0.103
		c-0.038,0.021-0.078,0.031-0.12,0.031h-6.015c-0.042,0-0.08-0.011-0.115-0.031c-0.036-0.021-0.07-0.055-0.103-0.103
		c-0.033-0.047-0.058-0.109-0.076-0.187c-0.018-0.077-0.026-0.172-0.026-0.284c0-0.107,0.008-0.2,0.026-0.276
		c0.018-0.077,0.041-0.142,0.067-0.191c0.026-0.051,0.059-0.089,0.098-0.116c0.038-0.026,0.082-0.04,0.129-0.04h2.403v-8.755
		l-2.225,1.326c-0.113,0.059-0.204,0.095-0.272,0.106c-0.068,0.012-0.123-0.001-0.164-0.04c-0.042-0.038-0.07-0.103-0.084-0.191
		c-0.015-0.089-0.022-0.201-0.022-0.338c0-0.101,0.004-0.187,0.013-0.258c0.009-0.071,0.022-0.13,0.04-0.178
		c0.018-0.047,0.043-0.089,0.076-0.124c0.033-0.036,0.076-0.072,0.129-0.107l2.651-1.699c0.023-0.018,0.053-0.033,0.089-0.045
		c0.036-0.011,0.08-0.023,0.133-0.035c0.054-0.012,0.116-0.019,0.187-0.022c0.071-0.003,0.16-0.004,0.267-0.004
		c0.143,0,0.261,0.006,0.356,0.018c0.095,0.012,0.169,0.028,0.223,0.048c0.053,0.021,0.089,0.048,0.106,0.081
		c0.018,0.032,0.026,0.066,0.026,0.103V31.87h2.082c0.048,0,0.092,0.014,0.134,0.04c0.042,0.027,0.076,0.065,0.102,0.116
		c0.027,0.05,0.048,0.114,0.063,0.191C23.922,32.294,23.928,32.387,23.928,32.494z"/>
	<path d="M33.165,32.494c0,0.112-0.009,0.207-0.026,0.284c-0.019,0.077-0.042,0.14-0.072,0.187
		c-0.029,0.048-0.062,0.082-0.102,0.103s-0.079,0.031-0.12,0.031H26.83c-0.042,0-0.081-0.011-0.116-0.031s-0.069-0.055-0.102-0.103
		c-0.033-0.047-0.059-0.109-0.076-0.187c-0.019-0.077-0.027-0.172-0.027-0.284c0-0.107,0.009-0.2,0.027-0.276
		c0.018-0.077,0.04-0.142,0.066-0.191c0.027-0.051,0.06-0.089,0.098-0.116c0.039-0.026,0.082-0.04,0.13-0.04h2.402v-8.755
		l-2.225,1.326c-0.112,0.059-0.203,0.095-0.271,0.106c-0.068,0.012-0.123-0.001-0.165-0.04c-0.041-0.038-0.069-0.103-0.085-0.191
		c-0.014-0.089-0.021-0.201-0.021-0.338c0-0.101,0.005-0.187,0.013-0.258c0.009-0.071,0.022-0.13,0.04-0.178
		c0.019-0.047,0.044-0.089,0.076-0.124c0.033-0.036,0.076-0.072,0.129-0.107l2.651-1.699c0.024-0.018,0.054-0.033,0.09-0.045
		c0.035-0.011,0.079-0.023,0.133-0.035c0.054-0.012,0.116-0.019,0.187-0.022c0.072-0.003,0.161-0.004,0.268-0.004
		c0.142,0,0.261,0.006,0.355,0.018c0.095,0.012,0.17,0.028,0.223,0.048c0.054,0.021,0.089,0.048,0.107,0.081
		c0.018,0.032,0.026,0.066,0.026,0.103V31.87h2.082c0.047,0,0.092,0.014,0.134,0.04c0.041,0.027,0.075,0.065,0.102,0.116
		c0.027,0.05,0.048,0.114,0.062,0.191C33.157,32.294,33.165,32.387,33.165,32.494z"/>
	<path d="M42.757,27.314c0,0.884-0.07,1.691-0.209,2.42c-0.14,0.73-0.371,1.357-0.694,1.883c-0.323,0.524-0.746,0.931-1.268,1.219
		c-0.522,0.288-1.166,0.432-1.931,0.432c-0.724,0-1.333-0.129-1.829-0.387c-0.495-0.259-0.895-0.638-1.197-1.14
		c-0.302-0.501-0.517-1.118-0.645-1.85c-0.128-0.733-0.191-1.574-0.191-2.523c0-0.878,0.071-1.683,0.214-2.416
		c0.143-0.732,0.374-1.361,0.693-1.886c0.321-0.525,0.742-0.932,1.264-1.219c0.522-0.288,1.163-0.432,1.922-0.432
		c0.73,0,1.342,0.129,1.838,0.387c0.495,0.258,0.895,0.638,1.197,1.139c0.302,0.501,0.517,1.119,0.645,1.851
		C42.693,25.525,42.757,26.366,42.757,27.314z M41.19,27.422c0-0.575-0.021-1.092-0.062-1.548c-0.041-0.458-0.102-0.861-0.182-1.211
		c-0.081-0.35-0.184-0.651-0.312-0.903c-0.127-0.251-0.279-0.459-0.457-0.623c-0.179-0.163-0.382-0.281-0.61-0.356
		c-0.229-0.074-0.484-0.111-0.77-0.111c-0.504,0-0.913,0.119-1.228,0.356s-0.562,0.564-0.743,0.979s-0.304,0.902-0.369,1.459
		c-0.065,0.558-0.098,1.157-0.098,1.798c0,0.86,0.045,1.591,0.134,2.192c0.089,0.603,0.229,1.094,0.423,1.474
		c0.192,0.379,0.438,0.655,0.737,0.827c0.3,0.172,0.663,0.258,1.091,0.258c0.332,0,0.624-0.053,0.876-0.16
		c0.252-0.106,0.469-0.259,0.649-0.458c0.181-0.198,0.331-0.438,0.449-0.716c0.119-0.279,0.214-0.587,0.285-0.926
		c0.07-0.338,0.12-0.705,0.146-1.1C41.177,28.26,41.19,27.849,41.19,27.422z"/>
	<path d="M46.618,21.362c0,0.185-0.009,0.352-0.026,0.503s-0.047,0.295-0.085,0.432s-0.092,0.271-0.16,0.405
		c-0.067,0.134-0.149,0.271-0.245,0.414l-1.209,1.825c-0.024,0.047-0.056,0.087-0.094,0.12c-0.038,0.033-0.084,0.06-0.138,0.081
		c-0.054,0.02-0.115,0.037-0.187,0.048c-0.072,0.012-0.16,0.018-0.268,0.018c-0.095,0-0.175-0.004-0.24-0.014
		c-0.065-0.009-0.112-0.025-0.143-0.048c-0.029-0.024-0.046-0.054-0.049-0.089s0.008-0.08,0.031-0.133l1.175-2.429v-1.13
		c0-0.154,0.014-0.278,0.044-0.374c0.029-0.095,0.079-0.167,0.147-0.218c0.067-0.051,0.154-0.084,0.257-0.102
		c0.104-0.018,0.23-0.027,0.379-0.027c0.143,0,0.264,0.009,0.365,0.027c0.101,0.018,0.184,0.051,0.249,0.102
		c0.065,0.05,0.113,0.123,0.146,0.218C46.601,21.083,46.618,21.208,46.618,21.362z M49.803,21.362c0,0.185-0.009,0.352-0.027,0.503
		c-0.017,0.151-0.045,0.295-0.084,0.432c-0.038,0.136-0.092,0.271-0.159,0.405c-0.069,0.134-0.151,0.271-0.245,0.414l-1.211,1.825
		c-0.023,0.047-0.054,0.087-0.093,0.12c-0.039,0.033-0.085,0.06-0.139,0.081c-0.053,0.02-0.115,0.037-0.187,0.048
		c-0.07,0.012-0.16,0.018-0.267,0.018c-0.095,0-0.174-0.004-0.235-0.014c-0.062-0.009-0.11-0.025-0.143-0.048
		c-0.033-0.024-0.05-0.054-0.05-0.089s0.009-0.08,0.027-0.133l1.175-2.429v-1.13c0-0.154,0.015-0.278,0.045-0.374
		c0.029-0.095,0.077-0.167,0.146-0.218c0.068-0.051,0.153-0.084,0.258-0.102c0.104-0.018,0.229-0.027,0.378-0.027
		c0.136,0,0.257,0.009,0.36,0.027c0.104,0.018,0.188,0.051,0.253,0.102c0.066,0.05,0.115,0.123,0.147,0.218
		C49.787,21.083,49.803,21.208,49.803,21.362z"/>
</g>
</svg>
