<?xml version="1.0" encoding="utf-8"?>
<!-- Generator: Adobe Illustrator 15.0.0, SVG Export Plug-In . SVG Version: 6.00 Build 0)  -->
<!DOCTYPE svg PUBLIC "-//W3C//DTD SVG 1.1//EN" "http://www.w3.org/Graphics/SVG/1.1/DTD/svg11.dtd">
<svg version="1.1" id="Laag_1" xmlns="http://www.w3.org/2000/svg" xmlns:xlink="http://www.w3.org/1999/xlink" x="0px" y="0px"
	 width="49.947px" height="49.947px" viewBox="0 0 49.947 49.947" enable-background="new 0 0 49.947 49.947" xml:space="preserve">
<g>
	<path d="M29.954,11.059c0,0.094-0.031,0.164-0.094,0.211s-0.148,0.082-0.258,0.105s-0.27,0.035-0.48,0.035
		c-0.203,0-0.365-0.012-0.486-0.035s-0.209-0.059-0.264-0.105s-0.082-0.117-0.082-0.211v-1.055
		c-0.461,0.492-0.975,0.875-1.541,1.148s-1.166,0.41-1.799,0.41c-0.555,0-1.057-0.072-1.506-0.217s-0.832-0.354-1.148-0.627
		s-0.562-0.609-0.738-1.008s-0.264-0.852-0.264-1.359c0-0.594,0.121-1.109,0.363-1.547s0.59-0.801,1.043-1.09
		s1.008-0.506,1.664-0.65s1.395-0.217,2.215-0.217h1.453v-0.82c0-0.406-0.043-0.766-0.129-1.078s-0.225-0.572-0.416-0.779
		s-0.439-0.363-0.744-0.469s-0.68-0.158-1.125-0.158c-0.477,0-0.904,0.057-1.283,0.17s-0.711,0.238-0.996,0.375
		s-0.523,0.262-0.715,0.375s-0.334,0.17-0.428,0.17c-0.062,0-0.117-0.016-0.164-0.047s-0.088-0.078-0.123-0.141
		s-0.061-0.143-0.076-0.24S21.809,2,21.809,1.883c0-0.195,0.014-0.35,0.041-0.463s0.094-0.221,0.199-0.322s0.287-0.221,0.545-0.357
		s0.555-0.262,0.891-0.375s0.703-0.207,1.102-0.281s0.801-0.111,1.207-0.111c0.758,0,1.402,0.086,1.934,0.258
		s0.961,0.424,1.289,0.756s0.566,0.744,0.715,1.236s0.223,1.066,0.223,1.723V11.059z M28.032,6.242H26.38
		c-0.531,0-0.992,0.045-1.383,0.135S24.282,6.6,24.024,6.775s-0.447,0.387-0.568,0.633s-0.182,0.529-0.182,0.85
		c0,0.547,0.174,0.982,0.521,1.307s0.834,0.486,1.459,0.486c0.508,0,0.979-0.129,1.412-0.387s0.889-0.652,1.365-1.184V6.242z"/>
</g>
<g>
	<path d="M18.158,41.637c0,1.164-0.092,2.227-0.275,3.188s-0.488,1.787-0.914,2.479s-0.982,1.227-1.67,1.605
		s-1.535,0.568-2.543,0.568c-0.953,0-1.756-0.17-2.408-0.51s-1.178-0.84-1.576-1.5s-0.682-1.473-0.85-2.438S7.67,42.957,7.67,41.707
		c0-1.156,0.094-2.217,0.281-3.182s0.492-1.793,0.914-2.484s0.977-1.227,1.664-1.605s1.531-0.568,2.531-0.568
		c0.961,0,1.768,0.17,2.42,0.51s1.178,0.84,1.576,1.5s0.682,1.473,0.85,2.438S18.158,40.387,18.158,41.637z M16.095,41.777
		c0-0.758-0.027-1.438-0.082-2.039s-0.135-1.133-0.24-1.594s-0.242-0.857-0.41-1.189s-0.369-0.605-0.604-0.82
		s-0.502-0.371-0.803-0.469s-0.639-0.146-1.014-0.146c-0.664,0-1.203,0.156-1.617,0.469s-0.74,0.742-0.979,1.289
		s-0.4,1.188-0.486,1.922s-0.129,1.523-0.129,2.367c0,1.133,0.059,2.096,0.176,2.889s0.303,1.439,0.557,1.939
		s0.578,0.863,0.973,1.09s0.873,0.34,1.436,0.34c0.438,0,0.822-0.07,1.154-0.211s0.617-0.342,0.855-0.604s0.436-0.576,0.592-0.943
		s0.281-0.773,0.375-1.219s0.158-0.928,0.193-1.447S16.095,42.34,16.095,41.777z"/>
	<path d="M29.935,41.074c0,0.656-0.039,1.32-0.117,1.992s-0.211,1.318-0.398,1.939s-0.439,1.203-0.756,1.746
		s-0.715,1.018-1.195,1.424s-1.051,0.725-1.711,0.955s-1.428,0.346-2.303,0.346c-0.336,0-0.662-0.021-0.979-0.064
		s-0.602-0.096-0.855-0.158s-0.467-0.129-0.639-0.199s-0.297-0.141-0.375-0.211s-0.135-0.166-0.17-0.287s-0.053-0.283-0.053-0.486
		c0-0.172,0.006-0.309,0.018-0.41s0.029-0.18,0.053-0.234s0.057-0.092,0.1-0.111s0.096-0.029,0.158-0.029
		c0.086,0,0.207,0.029,0.363,0.088s0.354,0.123,0.592,0.193s0.518,0.135,0.838,0.193s0.68,0.088,1.078,0.088
		c0.758,0,1.408-0.146,1.951-0.439s0.986-0.686,1.33-1.178s0.602-1.062,0.773-1.711s0.266-1.332,0.281-2.051
		c-0.414,0.242-0.91,0.457-1.488,0.645s-1.242,0.281-1.992,0.281c-0.844,0-1.553-0.115-2.127-0.346s-1.035-0.545-1.383-0.943
		s-0.598-0.871-0.75-1.418s-0.229-1.145-0.229-1.793c0-0.672,0.098-1.311,0.293-1.916s0.5-1.139,0.914-1.6s0.941-0.828,1.582-1.102
		s1.406-0.41,2.297-0.41c0.633,0,1.193,0.08,1.682,0.24s0.912,0.391,1.271,0.691s0.664,0.664,0.914,1.09s0.451,0.908,0.604,1.447
		s0.262,1.123,0.328,1.752S29.935,40.379,29.935,41.074z M27.885,40.852c0-1-0.066-1.842-0.199-2.525s-0.328-1.236-0.586-1.658
		s-0.574-0.727-0.949-0.914s-0.809-0.281-1.301-0.281c-0.508,0-0.941,0.092-1.301,0.275s-0.654,0.43-0.885,0.738
		s-0.4,0.658-0.51,1.049s-0.164,0.793-0.164,1.207c0,0.461,0.049,0.883,0.146,1.266s0.256,0.707,0.475,0.973
		s0.504,0.471,0.855,0.615s0.785,0.217,1.301,0.217c0.586,0,1.152-0.088,1.699-0.264S27.486,41.141,27.885,40.852z"/>
	<path d="M42.205,34.957c0,0.141-0.006,0.268-0.018,0.381s-0.027,0.223-0.047,0.328s-0.047,0.207-0.082,0.305
		s-0.076,0.201-0.123,0.311l-5.461,12.586c-0.039,0.094-0.088,0.17-0.146,0.229s-0.133,0.105-0.223,0.141s-0.205,0.059-0.346,0.07
		s-0.312,0.018-0.516,0.018c-0.266,0-0.473-0.012-0.621-0.035s-0.256-0.061-0.322-0.111s-0.096-0.113-0.088-0.188
		s0.035-0.162,0.082-0.264l5.742-12.867H32.76c-0.148,0-0.26-0.078-0.334-0.234s-0.111-0.375-0.111-0.656
		c0-0.148,0.01-0.277,0.029-0.387s0.049-0.201,0.088-0.275s0.086-0.129,0.141-0.164s0.117-0.053,0.188-0.053h8.836
		c0.109,0,0.205,0.012,0.287,0.035s0.145,0.07,0.188,0.141s0.076,0.16,0.1,0.27S42.205,34.785,42.205,34.957z"/>
</g>
<polygon points="28.259,22.873 28.259,15.86 24.083,15.86 24.083,22.873 20.216,22.873 23.193,26.673 26.171,30.474 29.148,26.673 
	32.126,22.873 "/>
</svg>
