<?xml version="1.0" encoding="utf-8"?>
<!-- Generator: Adobe Illustrator 15.0.0, SVG Export Plug-In . SVG Version: 6.00 Build 0)  -->
<!DOCTYPE svg PUBLIC "-//W3C//DTD SVG 1.1//EN" "http://www.w3.org/Graphics/SVG/1.1/DTD/svg11.dtd">
<svg version="1.1" id="Laag_1" xmlns="http://www.w3.org/2000/svg" xmlns:xlink="http://www.w3.org/1999/xlink" x="0px" y="0px"
	 width="49.947px" height="49.947px" viewBox="0 0 49.947 49.947" enable-background="new 0 0 49.947 49.947" xml:space="preserve">
<polygon points="28.154,24.684 28.154,17.753 24.028,17.753 24.028,24.684 20.206,24.684 23.149,28.438 26.091,32.194 
	29.033,28.438 31.975,24.684 "/>
<g>
	<path d="M16.63,11.328c0,0.202-0.014,0.363-0.042,0.481c-0.028,0.119-0.07,0.206-0.125,0.261c-0.056,0.056-0.14,0.108-0.251,0.157
		s-0.239,0.089-0.381,0.12c-0.143,0.031-0.294,0.058-0.455,0.079c-0.16,0.021-0.32,0.031-0.48,0.031
		c-0.488,0-0.906-0.064-1.254-0.193c-0.348-0.129-0.634-0.324-0.856-0.585c-0.223-0.261-0.385-0.592-0.486-0.993
		c-0.101-0.4-0.151-0.873-0.151-1.416V3.773H10.83c-0.104,0-0.188-0.056-0.25-0.167c-0.063-0.111-0.094-0.292-0.094-0.543
		c0-0.132,0.009-0.244,0.026-0.334c0.017-0.09,0.04-0.166,0.068-0.225s0.064-0.101,0.11-0.125c0.045-0.024,0.096-0.037,0.151-0.037
		h1.306V0.105c0-0.048,0.012-0.094,0.037-0.136c0.024-0.042,0.069-0.078,0.136-0.109c0.066-0.032,0.155-0.054,0.267-0.068
		c0.111-0.014,0.251-0.021,0.418-0.021c0.174,0,0.317,0.007,0.428,0.021c0.111,0.014,0.199,0.037,0.261,0.068
		c0.063,0.031,0.108,0.068,0.136,0.109c0.028,0.042,0.042,0.087,0.042,0.136v2.236h2.414c0.056,0,0.104,0.012,0.146,0.037
		c0.042,0.024,0.078,0.066,0.109,0.125s0.054,0.134,0.068,0.225c0.014,0.091,0.021,0.202,0.021,0.334
		c0,0.251-0.031,0.432-0.094,0.543c-0.063,0.111-0.146,0.167-0.251,0.167h-2.414v5.246c0,0.648,0.096,1.137,0.288,1.468
		c0.191,0.331,0.535,0.496,1.029,0.496c0.16,0,0.303-0.016,0.428-0.047s0.237-0.064,0.334-0.099c0.098-0.035,0.181-0.068,0.251-0.1
		c0.069-0.031,0.132-0.047,0.188-0.047c0.035,0,0.068,0.009,0.099,0.026c0.031,0.017,0.056,0.05,0.073,0.099
		s0.033,0.115,0.047,0.198C16.623,11.099,16.63,11.203,16.63,11.328z"/>
	<path d="M26.704,6.908c0,0.271-0.068,0.465-0.205,0.58c-0.137,0.115-0.291,0.172-0.467,0.172h-6.194
		c0,0.522,0.052,0.993,0.157,1.411s0.28,0.777,0.525,1.076c0.245,0.3,0.564,0.53,0.955,0.69c0.393,0.16,0.873,0.24,1.439,0.24
		c0.447,0,0.848-0.037,1.197-0.11s0.652-0.155,0.908-0.246c0.256-0.09,0.465-0.172,0.631-0.246c0.164-0.073,0.287-0.109,0.371-0.109
		c0.051,0,0.094,0.012,0.133,0.036c0.037,0.025,0.068,0.062,0.088,0.11c0.021,0.049,0.037,0.117,0.047,0.204
		c0.012,0.087,0.018,0.193,0.018,0.318c0,0.091-0.004,0.169-0.012,0.235c-0.006,0.066-0.016,0.125-0.025,0.178
		s-0.027,0.099-0.053,0.141c-0.023,0.042-0.055,0.082-0.094,0.12c-0.039,0.038-0.152,0.101-0.34,0.188s-0.432,0.172-0.73,0.256
		c-0.301,0.083-0.646,0.159-1.041,0.225c-0.393,0.066-0.812,0.1-1.26,0.1c-0.771,0-1.449-0.108-2.031-0.324
		s-1.071-0.536-1.469-0.961c-0.397-0.425-0.696-0.958-0.898-1.599s-0.303-1.386-0.303-2.236c0-0.808,0.104-1.534,0.313-2.179
		s0.51-1.191,0.904-1.641c0.393-0.449,0.869-0.794,1.426-1.035s1.181-0.36,1.87-0.36c0.738,0,1.367,0.119,1.887,0.355
		c0.52,0.237,0.945,0.556,1.279,0.957c0.336,0.4,0.58,0.871,0.738,1.411c0.156,0.54,0.234,1.116,0.234,1.729V6.908z M24.969,6.396
		c0.02-0.905-0.182-1.616-0.605-2.132c-0.424-0.515-1.053-0.773-1.887-0.773c-0.428,0-0.803,0.08-1.125,0.24
		s-0.592,0.373-0.81,0.637c-0.218,0.265-0.386,0.573-0.505,0.925c-0.119,0.352-0.186,0.72-0.2,1.103H24.969z"/>
	<path d="M36.13,11.819c0.056,0.098,0.084,0.18,0.084,0.246c0,0.066-0.033,0.12-0.1,0.162s-0.167,0.071-0.303,0.089
		c-0.136,0.017-0.312,0.026-0.528,0.026c-0.209,0-0.374-0.005-0.496-0.016c-0.122-0.01-0.22-0.028-0.293-0.052
		s-0.129-0.056-0.167-0.094c-0.038-0.039-0.071-0.082-0.099-0.131l-2.258-3.73l-2.246,3.73c-0.028,0.049-0.062,0.092-0.1,0.131
		c-0.038,0.038-0.094,0.069-0.167,0.094s-0.169,0.042-0.288,0.052c-0.118,0.011-0.274,0.016-0.47,0.016
		c-0.202,0-0.367-0.009-0.496-0.026c-0.129-0.018-0.224-0.047-0.282-0.089c-0.06-0.042-0.088-0.096-0.084-0.162
		c0.004-0.066,0.037-0.148,0.1-0.246l2.926-4.587l-2.77-4.42c-0.056-0.097-0.085-0.179-0.089-0.246
		c-0.003-0.066,0.028-0.122,0.095-0.167c0.065-0.045,0.167-0.075,0.303-0.089c0.136-0.014,0.315-0.021,0.538-0.021
		c0.202,0,0.364,0.005,0.486,0.016c0.121,0.011,0.217,0.026,0.287,0.047c0.069,0.021,0.122,0.049,0.156,0.083
		c0.035,0.035,0.066,0.077,0.095,0.125l2.142,3.5l2.174-3.5c0.027-0.042,0.06-0.08,0.094-0.115c0.035-0.035,0.082-0.064,0.142-0.089
		c0.059-0.024,0.143-0.042,0.251-0.052c0.107-0.01,0.256-0.016,0.443-0.016c0.202,0,0.368,0.007,0.497,0.021
		c0.129,0.014,0.225,0.04,0.287,0.079c0.062,0.038,0.091,0.092,0.084,0.162c-0.008,0.07-0.042,0.157-0.104,0.261L33.224,7.18
		L36.13,11.819z"/>
	<path d="M43.225,11.328c0,0.202-0.014,0.363-0.042,0.481c-0.027,0.119-0.069,0.206-0.125,0.261s-0.14,0.108-0.251,0.157
		s-0.238,0.089-0.381,0.12c-0.144,0.031-0.295,0.058-0.455,0.079c-0.16,0.021-0.32,0.031-0.48,0.031
		c-0.488,0-0.906-0.064-1.254-0.193c-0.349-0.129-0.635-0.324-0.857-0.585s-0.385-0.592-0.485-0.993
		c-0.102-0.4-0.151-0.873-0.151-1.416V3.773h-1.317c-0.104,0-0.188-0.056-0.251-0.167c-0.062-0.111-0.094-0.292-0.094-0.543
		c0-0.132,0.009-0.244,0.026-0.334c0.018-0.09,0.04-0.166,0.067-0.225c0.028-0.059,0.064-0.101,0.11-0.125
		c0.045-0.024,0.096-0.037,0.151-0.037h1.307V0.105c0-0.048,0.012-0.094,0.036-0.136c0.024-0.042,0.069-0.078,0.136-0.109
		c0.066-0.032,0.155-0.054,0.267-0.068c0.111-0.014,0.251-0.021,0.418-0.021c0.174,0,0.317,0.007,0.429,0.021
		c0.111,0.014,0.198,0.037,0.261,0.068c0.062,0.031,0.108,0.068,0.136,0.109c0.028,0.042,0.042,0.087,0.042,0.136v2.236h2.414
		c0.056,0,0.104,0.012,0.146,0.037s0.078,0.066,0.109,0.125s0.054,0.134,0.068,0.225c0.014,0.091,0.021,0.202,0.021,0.334
		c0,0.251-0.031,0.432-0.094,0.543s-0.146,0.167-0.251,0.167h-2.414v5.246c0,0.648,0.096,1.137,0.287,1.468
		c0.192,0.331,0.535,0.496,1.029,0.496c0.16,0,0.304-0.016,0.429-0.047c0.126-0.031,0.237-0.064,0.335-0.099
		c0.097-0.035,0.181-0.068,0.25-0.1c0.07-0.031,0.133-0.047,0.188-0.047c0.035,0,0.068,0.009,0.1,0.026
		c0.031,0.017,0.056,0.05,0.073,0.099c0.017,0.049,0.032,0.115,0.047,0.198C43.219,11.099,43.225,11.203,43.225,11.328z"/>
</g>
<g>
	<path d="M17.079,37.198c0,0.133-0.007,0.248-0.021,0.345c-0.014,0.098-0.037,0.177-0.068,0.235c-0.032,0.06-0.07,0.103-0.115,0.131
		c-0.045,0.027-0.096,0.042-0.151,0.042h-3.804v11.725c0,0.056-0.014,0.104-0.042,0.146c-0.028,0.041-0.077,0.074-0.146,0.099
		c-0.07,0.024-0.162,0.046-0.277,0.062c-0.115,0.018-0.259,0.026-0.434,0.026c-0.167,0-0.31-0.009-0.428-0.026
		c-0.119-0.017-0.213-0.038-0.282-0.062c-0.07-0.024-0.119-0.058-0.146-0.099c-0.028-0.042-0.042-0.091-0.042-0.146V37.951H7.32
		c-0.056,0-0.106-0.015-0.152-0.042c-0.045-0.028-0.082-0.071-0.109-0.131C7.03,37.72,7.008,37.641,6.99,37.543
		c-0.018-0.097-0.026-0.212-0.026-0.345c0-0.132,0.009-0.249,0.026-0.35c0.017-0.102,0.04-0.184,0.068-0.246
		c0.027-0.062,0.064-0.107,0.109-0.136c0.045-0.027,0.096-0.042,0.152-0.042h9.405c0.056,0,0.106,0.015,0.151,0.042
		c0.045,0.028,0.083,0.073,0.115,0.136c0.031,0.062,0.054,0.145,0.068,0.246C17.073,36.949,17.079,37.066,17.079,37.198z"/>
	<path d="M24.958,44.576c0,0.271-0.068,0.465-0.204,0.58c-0.137,0.114-0.292,0.172-0.468,0.172h-6.193
		c0,0.522,0.052,0.993,0.157,1.411s0.28,0.776,0.525,1.076c0.245,0.3,0.563,0.529,0.956,0.689c0.391,0.16,0.871,0.24,1.438,0.24
		c0.448,0,0.848-0.036,1.197-0.109c0.351-0.073,0.653-0.155,0.908-0.245c0.256-0.091,0.466-0.173,0.631-0.246
		c0.164-0.073,0.288-0.109,0.372-0.109c0.05,0,0.093,0.012,0.132,0.036c0.038,0.024,0.068,0.062,0.089,0.11
		c0.021,0.049,0.037,0.116,0.047,0.203c0.011,0.088,0.017,0.193,0.017,0.319c0,0.09-0.004,0.169-0.011,0.234
		c-0.007,0.066-0.016,0.126-0.026,0.178c-0.01,0.053-0.027,0.1-0.052,0.142s-0.056,0.082-0.095,0.12
		c-0.038,0.038-0.151,0.101-0.339,0.188c-0.188,0.088-0.433,0.173-0.731,0.257c-0.3,0.083-0.646,0.158-1.04,0.225
		c-0.394,0.065-0.813,0.099-1.26,0.099c-0.772,0-1.451-0.107-2.032-0.323s-1.071-0.537-1.468-0.962
		c-0.397-0.425-0.696-0.958-0.898-1.599s-0.303-1.387-0.303-2.236c0-0.808,0.104-1.534,0.313-2.179s0.51-1.191,0.904-1.641
		c0.393-0.449,0.869-0.794,1.426-1.034c0.557-0.241,1.18-0.361,1.871-0.361c0.738,0,1.367,0.119,1.886,0.355
		c0.52,0.237,0.946,0.556,1.28,0.956c0.335,0.401,0.58,0.871,0.737,1.411c0.156,0.54,0.234,1.116,0.234,1.729V44.576z
		 M23.224,44.064c0.021-0.906-0.181-1.616-0.604-2.132s-1.054-0.773-1.888-0.773c-0.428,0-0.803,0.08-1.125,0.24
		c-0.323,0.16-0.592,0.373-0.81,0.638c-0.218,0.265-0.386,0.572-0.505,0.925c-0.119,0.352-0.186,0.719-0.2,1.103H23.224z"/>
	<path d="M34.384,49.487c0.056,0.098,0.084,0.18,0.084,0.246s-0.033,0.12-0.1,0.161c-0.066,0.042-0.167,0.072-0.303,0.089
		c-0.136,0.018-0.312,0.026-0.528,0.026c-0.209,0-0.374-0.005-0.496-0.016s-0.22-0.027-0.293-0.052s-0.129-0.056-0.167-0.095
		c-0.038-0.038-0.071-0.081-0.099-0.13l-2.258-3.731l-2.246,3.731c-0.028,0.049-0.062,0.092-0.1,0.13
		c-0.038,0.039-0.094,0.07-0.167,0.095s-0.169,0.041-0.288,0.052c-0.118,0.011-0.274,0.016-0.47,0.016
		c-0.202,0-0.367-0.009-0.496-0.026c-0.129-0.017-0.224-0.047-0.282-0.089c-0.06-0.041-0.088-0.095-0.084-0.161
		s0.037-0.148,0.1-0.246l2.926-4.587l-2.77-4.421c-0.056-0.098-0.085-0.179-0.089-0.245c-0.003-0.066,0.028-0.122,0.095-0.167
		c0.065-0.046,0.167-0.075,0.303-0.089c0.136-0.015,0.315-0.021,0.538-0.021c0.202,0,0.364,0.006,0.486,0.016
		c0.121,0.011,0.217,0.026,0.287,0.047c0.069,0.021,0.122,0.049,0.156,0.084c0.035,0.035,0.066,0.077,0.095,0.125l2.142,3.501
		l2.174-3.501c0.027-0.041,0.06-0.08,0.094-0.114c0.035-0.035,0.082-0.064,0.142-0.089c0.059-0.024,0.143-0.042,0.251-0.053
		c0.107-0.01,0.256-0.016,0.443-0.016c0.202,0,0.368,0.007,0.497,0.021c0.129,0.014,0.225,0.04,0.287,0.078s0.091,0.092,0.084,0.162
		c-0.008,0.069-0.042,0.156-0.104,0.261l-2.749,4.368L34.384,49.487z"/>
	<path d="M41.479,48.996c0,0.202-0.014,0.362-0.042,0.48c-0.027,0.119-0.069,0.206-0.125,0.262s-0.14,0.108-0.251,0.156
		c-0.111,0.049-0.238,0.089-0.381,0.121c-0.144,0.031-0.295,0.057-0.455,0.078c-0.16,0.021-0.32,0.031-0.48,0.031
		c-0.488,0-0.906-0.064-1.254-0.193c-0.349-0.129-0.635-0.324-0.857-0.585c-0.223-0.262-0.385-0.593-0.485-0.993
		c-0.102-0.4-0.151-0.872-0.151-1.416v-5.496h-1.317c-0.104,0-0.188-0.056-0.251-0.168c-0.062-0.111-0.094-0.292-0.094-0.543
		c0-0.132,0.009-0.244,0.026-0.334c0.018-0.091,0.04-0.166,0.067-0.225c0.028-0.06,0.064-0.102,0.11-0.126
		c0.045-0.024,0.096-0.036,0.151-0.036h1.307v-2.236c0-0.049,0.012-0.095,0.036-0.136c0.024-0.042,0.069-0.079,0.136-0.11
		s0.155-0.054,0.267-0.067s0.251-0.021,0.418-0.021c0.174,0,0.317,0.008,0.429,0.021s0.198,0.036,0.261,0.067
		s0.108,0.068,0.136,0.11c0.028,0.041,0.042,0.087,0.042,0.136v2.236h2.414c0.056,0,0.104,0.012,0.146,0.036
		s0.078,0.066,0.109,0.126c0.031,0.059,0.054,0.134,0.068,0.225c0.014,0.09,0.021,0.202,0.021,0.334
		c0,0.251-0.031,0.432-0.094,0.543c-0.062,0.112-0.146,0.168-0.251,0.168H38.72v5.245c0,0.648,0.096,1.138,0.287,1.469
		c0.192,0.331,0.535,0.496,1.029,0.496c0.16,0,0.304-0.016,0.429-0.047c0.126-0.031,0.237-0.064,0.335-0.1
		c0.097-0.034,0.181-0.067,0.25-0.099c0.07-0.031,0.133-0.047,0.188-0.047c0.035,0,0.068,0.009,0.1,0.025
		c0.031,0.018,0.056,0.051,0.073,0.1c0.017,0.049,0.032,0.115,0.047,0.198C41.472,48.767,41.479,48.871,41.479,48.996z"/>
</g>
</svg>
