<?xml version="1.0" encoding="utf-8"?>
<!-- Generator: Adobe Illustrator 15.0.0, SVG Export Plug-In . SVG Version: 6.00 Build 0)  -->
<!DOCTYPE svg PUBLIC "-//W3C//DTD SVG 1.1//EN" "http://www.w3.org/Graphics/SVG/1.1/DTD/svg11.dtd">
<svg version="1.1" id="Laag_1" xmlns="http://www.w3.org/2000/svg" xmlns:xlink="http://www.w3.org/1999/xlink" x="0px" y="0px"
	 width="49.947px" height="49.947px" viewBox="0 0 49.947 49.947" enable-background="new 0 0 49.947 49.947" xml:space="preserve">
<g>
	<path d="M8.226,20.668c0,0.133-0.004,0.248-0.012,0.346s-0.021,0.18-0.041,0.246s-0.043,0.125-0.07,0.176s-0.09,0.125-0.188,0.223
		s-0.264,0.219-0.498,0.363s-0.498,0.273-0.791,0.387s-0.611,0.205-0.955,0.275s-0.699,0.105-1.066,0.105
		c-0.758,0-1.43-0.125-2.016-0.375s-1.076-0.615-1.471-1.096s-0.695-1.07-0.902-1.77s-0.311-1.506-0.311-2.42
		c0-1.039,0.127-1.932,0.381-2.678s0.602-1.357,1.043-1.834s0.961-0.83,1.559-1.061s1.244-0.346,1.939-0.346
		c0.336,0,0.662,0.031,0.979,0.094s0.607,0.145,0.873,0.246s0.502,0.219,0.709,0.352s0.357,0.246,0.451,0.34
		s0.158,0.168,0.193,0.223s0.064,0.119,0.088,0.193s0.039,0.158,0.047,0.252s0.012,0.211,0.012,0.352
		c0,0.305-0.035,0.518-0.105,0.639s-0.156,0.182-0.258,0.182c-0.117,0-0.252-0.064-0.404-0.193s-0.346-0.271-0.58-0.428
		s-0.518-0.299-0.85-0.428S5.258,12.84,4.804,12.84c-0.93,0-1.643,0.357-2.139,1.072s-0.744,1.752-0.744,3.111
		c0,0.68,0.064,1.275,0.193,1.787s0.318,0.939,0.568,1.283s0.557,0.6,0.92,0.768s0.779,0.252,1.248,0.252
		c0.445,0,0.836-0.07,1.172-0.211s0.627-0.295,0.873-0.463s0.453-0.32,0.621-0.457s0.299-0.205,0.393-0.205
		c0.055,0,0.102,0.016,0.141,0.047s0.072,0.084,0.1,0.158s0.047,0.168,0.059,0.281S8.226,20.512,8.226,20.668z"/>
	<path d="M19.875,22.273c0,0.062-0.016,0.115-0.047,0.158s-0.082,0.08-0.152,0.111s-0.168,0.055-0.293,0.07
		s-0.281,0.023-0.469,0.023c-0.195,0-0.355-0.008-0.48-0.023s-0.223-0.039-0.293-0.07s-0.121-0.068-0.152-0.111
		s-0.047-0.096-0.047-0.158v-6.176c0-0.602-0.047-1.086-0.141-1.453s-0.23-0.684-0.41-0.949s-0.412-0.469-0.697-0.609
		s-0.615-0.211-0.99-0.211c-0.484,0-0.969,0.172-1.453,0.516s-0.992,0.848-1.523,1.512v7.371c0,0.062-0.016,0.115-0.047,0.158
		s-0.082,0.08-0.152,0.111s-0.168,0.055-0.293,0.07s-0.285,0.023-0.48,0.023c-0.188,0-0.344-0.008-0.469-0.023
		s-0.225-0.039-0.299-0.07s-0.125-0.068-0.152-0.111s-0.041-0.096-0.041-0.158V6.617c0-0.062,0.014-0.117,0.041-0.164
		s0.078-0.086,0.152-0.117s0.174-0.055,0.299-0.07s0.281-0.023,0.469-0.023c0.195,0,0.355,0.008,0.48,0.023s0.223,0.039,0.293,0.07
		s0.121,0.07,0.152,0.117s0.047,0.102,0.047,0.164v6.316c0.555-0.586,1.113-1.021,1.676-1.307s1.129-0.428,1.699-0.428
		c0.703,0,1.295,0.119,1.775,0.357s0.869,0.557,1.166,0.955s0.51,0.865,0.639,1.4s0.193,1.182,0.193,1.939V22.273z"/>
	<path d="M31.347,22.285c0,0.094-0.031,0.164-0.094,0.211s-0.148,0.082-0.258,0.105s-0.27,0.035-0.48,0.035
		c-0.203,0-0.365-0.012-0.486-0.035s-0.209-0.059-0.264-0.105s-0.082-0.117-0.082-0.211V21.23c-0.461,0.492-0.975,0.875-1.541,1.148
		s-1.166,0.41-1.799,0.41c-0.555,0-1.057-0.072-1.506-0.217s-0.832-0.354-1.148-0.627s-0.562-0.609-0.738-1.008
		s-0.264-0.852-0.264-1.359c0-0.594,0.121-1.109,0.363-1.547s0.59-0.801,1.043-1.09s1.008-0.506,1.664-0.65s1.395-0.217,2.215-0.217
		h1.453v-0.82c0-0.406-0.043-0.766-0.129-1.078s-0.225-0.572-0.416-0.779s-0.439-0.363-0.744-0.469s-0.68-0.158-1.125-0.158
		c-0.477,0-0.904,0.057-1.283,0.17s-0.711,0.238-0.996,0.375s-0.523,0.262-0.715,0.375s-0.334,0.17-0.428,0.17
		c-0.062,0-0.117-0.016-0.164-0.047s-0.088-0.078-0.123-0.141s-0.061-0.143-0.076-0.24s-0.023-0.205-0.023-0.322
		c0-0.195,0.014-0.35,0.041-0.463s0.094-0.221,0.199-0.322s0.287-0.221,0.545-0.357s0.555-0.262,0.891-0.375
		s0.703-0.207,1.102-0.281s0.801-0.111,1.207-0.111c0.758,0,1.402,0.086,1.934,0.258s0.961,0.424,1.289,0.756
		s0.566,0.744,0.715,1.236s0.223,1.066,0.223,1.723V22.285z M29.426,17.469h-1.652c-0.531,0-0.992,0.045-1.383,0.135
		s-0.715,0.223-0.973,0.398s-0.447,0.387-0.568,0.633s-0.182,0.529-0.182,0.85c0,0.547,0.174,0.982,0.521,1.307
		s0.834,0.486,1.459,0.486c0.508,0,0.979-0.129,1.412-0.387s0.889-0.652,1.365-1.184V17.469z"/>
	<path d="M41.062,12.418c0,0.172-0.004,0.316-0.012,0.434s-0.023,0.209-0.047,0.275s-0.053,0.117-0.088,0.152
		s-0.084,0.053-0.146,0.053s-0.139-0.018-0.229-0.053s-0.191-0.07-0.305-0.105s-0.24-0.068-0.381-0.1s-0.293-0.047-0.457-0.047
		c-0.195,0-0.387,0.039-0.574,0.117s-0.385,0.207-0.592,0.387s-0.424,0.418-0.65,0.715s-0.477,0.66-0.75,1.09v6.938
		c0,0.062-0.016,0.115-0.047,0.158s-0.082,0.08-0.152,0.111s-0.168,0.055-0.293,0.07s-0.285,0.023-0.48,0.023
		c-0.188,0-0.344-0.008-0.469-0.023s-0.225-0.039-0.299-0.07s-0.125-0.068-0.152-0.111s-0.041-0.096-0.041-0.158V11.727
		c0-0.062,0.012-0.115,0.035-0.158s0.07-0.082,0.141-0.117s0.16-0.059,0.27-0.07s0.254-0.018,0.434-0.018
		c0.172,0,0.314,0.006,0.428,0.018s0.201,0.035,0.264,0.07s0.107,0.074,0.135,0.117s0.041,0.096,0.041,0.158v1.535
		c0.289-0.422,0.561-0.766,0.814-1.031s0.494-0.475,0.721-0.627s0.451-0.258,0.674-0.316s0.447-0.088,0.674-0.088
		c0.102,0,0.217,0.006,0.346,0.018s0.264,0.033,0.404,0.064s0.268,0.066,0.381,0.105s0.193,0.078,0.24,0.117
		s0.078,0.076,0.094,0.111s0.029,0.08,0.041,0.135s0.02,0.135,0.023,0.24S41.062,12.238,41.062,12.418z"/>
	<path d="M49.476,19.402c0,0.539-0.1,1.02-0.299,1.441s-0.482,0.777-0.85,1.066s-0.805,0.508-1.312,0.656s-1.066,0.223-1.676,0.223
		c-0.375,0-0.732-0.029-1.072-0.088s-0.645-0.133-0.914-0.223s-0.498-0.184-0.686-0.281s-0.324-0.186-0.41-0.264
		s-0.148-0.188-0.188-0.328s-0.059-0.332-0.059-0.574c0-0.148,0.008-0.273,0.023-0.375s0.035-0.184,0.059-0.246
		s0.057-0.107,0.1-0.135s0.092-0.041,0.146-0.041c0.086,0,0.213,0.053,0.381,0.158s0.375,0.221,0.621,0.346s0.537,0.24,0.873,0.346
		s0.723,0.158,1.16,0.158c0.328,0,0.625-0.035,0.891-0.105s0.496-0.174,0.691-0.311s0.346-0.311,0.451-0.521s0.158-0.461,0.158-0.75
		c0-0.297-0.076-0.547-0.229-0.75s-0.354-0.383-0.604-0.539s-0.531-0.295-0.844-0.416s-0.635-0.248-0.967-0.381
		s-0.656-0.283-0.973-0.451s-0.6-0.373-0.85-0.615s-0.451-0.531-0.604-0.867s-0.229-0.738-0.229-1.207
		c0-0.414,0.08-0.811,0.24-1.189s0.4-0.711,0.721-0.996s0.721-0.514,1.201-0.686s1.041-0.258,1.682-0.258
		c0.281,0,0.562,0.023,0.844,0.07s0.535,0.105,0.762,0.176s0.42,0.146,0.58,0.229s0.281,0.154,0.363,0.217s0.137,0.117,0.164,0.164
		s0.047,0.1,0.059,0.158s0.023,0.131,0.035,0.217s0.018,0.191,0.018,0.316c0,0.133-0.006,0.248-0.018,0.346s-0.031,0.178-0.059,0.24
		s-0.061,0.107-0.1,0.135s-0.082,0.041-0.129,0.041c-0.07,0-0.172-0.043-0.305-0.129s-0.305-0.178-0.516-0.275
		s-0.459-0.189-0.744-0.275s-0.611-0.129-0.979-0.129c-0.328,0-0.617,0.037-0.867,0.111s-0.455,0.18-0.615,0.316
		s-0.281,0.299-0.363,0.486s-0.123,0.391-0.123,0.609c0,0.305,0.078,0.561,0.234,0.768s0.359,0.389,0.609,0.545
		s0.535,0.297,0.855,0.422s0.646,0.254,0.979,0.387s0.66,0.281,0.984,0.445s0.611,0.363,0.861,0.598s0.451,0.516,0.604,0.844
		S49.476,18.949,49.476,19.402z"/>
</g>
<g>
	<path d="M40.661,39.105c0,0.172-0.004,0.316-0.012,0.434s-0.023,0.209-0.047,0.275s-0.053,0.117-0.088,0.152
		s-0.084,0.053-0.146,0.053s-0.139-0.018-0.229-0.053s-0.191-0.07-0.305-0.105s-0.24-0.068-0.381-0.1s-0.293-0.047-0.457-0.047
		c-0.195,0-0.387,0.039-0.574,0.117s-0.385,0.207-0.592,0.387s-0.424,0.418-0.65,0.715s-0.477,0.66-0.75,1.09v6.938
		c0,0.062-0.016,0.115-0.047,0.158s-0.082,0.08-0.152,0.111s-0.168,0.055-0.293,0.07s-0.285,0.023-0.48,0.023
		c-0.188,0-0.344-0.008-0.469-0.023s-0.225-0.039-0.299-0.07s-0.125-0.068-0.152-0.111s-0.041-0.096-0.041-0.158V38.414
		c0-0.062,0.012-0.115,0.035-0.158s0.07-0.082,0.141-0.117s0.16-0.059,0.27-0.07s0.254-0.018,0.434-0.018
		c0.172,0,0.314,0.006,0.428,0.018s0.201,0.035,0.264,0.07s0.107,0.074,0.135,0.117s0.041,0.096,0.041,0.158v1.535
		c0.289-0.422,0.561-0.766,0.814-1.031s0.494-0.475,0.721-0.627s0.451-0.258,0.674-0.316s0.447-0.088,0.674-0.088
		c0.102,0,0.217,0.006,0.346,0.018s0.264,0.033,0.404,0.064s0.268,0.066,0.381,0.105s0.193,0.078,0.24,0.117
		s0.078,0.076,0.094,0.111s0.029,0.08,0.041,0.135s0.02,0.135,0.023,0.24S40.661,38.926,40.661,39.105z"/>
</g>
<polygon points="39.231,4.774 39.231,0 36.389,0 36.389,4.774 33.757,4.774 35.784,7.362 37.811,9.95 39.839,7.362 41.866,4.774 "/>
<polygon points="39.231,29.748 39.231,24.974 36.389,24.974 36.389,29.748 33.757,29.748 35.784,32.336 37.811,34.924 
	39.839,32.336 41.866,29.748 "/>
</svg>
