<?xml version="1.0" encoding="utf-8"?>
<!-- Generator: Adobe Illustrator 15.0.0, SVG Export Plug-In . SVG Version: 6.00 Build 0)  -->
<!DOCTYPE svg PUBLIC "-//W3C//DTD SVG 1.1//EN" "http://www.w3.org/Graphics/SVG/1.1/DTD/svg11.dtd">
<svg version="1.1" id="Laag_1" xmlns="http://www.w3.org/2000/svg" xmlns:xlink="http://www.w3.org/1999/xlink" x="0px" y="0px"
	 width="49.947px" height="49.947px" viewBox="0 0 49.947 49.947" enable-background="new 0 0 49.947 49.947" xml:space="preserve">
<g>
	<path d="M2.239,3.565v0.881c0,0.121-0.013,0.219-0.038,0.293C2.175,4.815,2.135,4.874,2.081,4.916
		C2.028,4.957,1.96,4.985,1.879,4.999C1.797,5.013,1.7,5.02,1.588,5.02S1.381,5.013,1.302,4.999
		c-0.08-0.014-0.145-0.042-0.196-0.083C1.054,4.874,1.016,4.815,0.99,4.74C0.965,4.666,0.951,4.568,0.951,4.447
		c0-0.14,0.007-0.27,0.021-0.388c0.014-0.119,0.036-0.232,0.066-0.339s0.072-0.213,0.126-0.318s0.118-0.216,0.192-0.333l0.944-1.434
		c0.023-0.037,0.049-0.067,0.077-0.091S2.442,1.5,2.484,1.484c0.042-0.016,0.092-0.029,0.15-0.038
		c0.058-0.009,0.129-0.014,0.213-0.014c0.075,0,0.136,0.003,0.186,0.01c0.049,0.007,0.086,0.019,0.112,0.035
		C3.17,1.494,3.183,1.516,3.183,1.543s-0.01,0.061-0.028,0.098L2.239,3.565z M4.743,3.565v0.881c0,0.121-0.013,0.219-0.038,0.293
		C4.679,4.815,4.639,4.874,4.586,4.916c-0.054,0.042-0.121,0.07-0.203,0.083C4.301,5.013,4.204,5.02,4.093,5.02
		S3.885,5.013,3.806,4.999C3.726,4.985,3.661,4.957,3.61,4.916C3.558,4.874,3.52,4.815,3.494,4.74
		C3.469,4.666,3.456,4.568,3.456,4.447c0-0.14,0.007-0.27,0.021-0.388c0.014-0.119,0.036-0.232,0.066-0.339s0.072-0.213,0.126-0.318
		s0.118-0.216,0.192-0.333l0.944-1.434c0.023-0.037,0.049-0.067,0.077-0.091S4.946,1.5,4.988,1.484
		C5.03,1.468,5.08,1.455,5.138,1.446c0.058-0.009,0.129-0.014,0.213-0.014c0.074,0,0.137,0.003,0.189,0.01
		c0.051,0.007,0.088,0.019,0.112,0.035c0.023,0.017,0.036,0.039,0.039,0.066c0.002,0.028-0.008,0.061-0.032,0.098L4.743,3.565z"/>
	<path d="M10.927,10.092c0,0.08-0.002,0.148-0.007,0.207c-0.005,0.058-0.013,0.107-0.024,0.147c-0.012,0.04-0.026,0.074-0.042,0.104
		c-0.017,0.031-0.054,0.075-0.112,0.133c-0.059,0.058-0.158,0.13-0.297,0.217c-0.14,0.086-0.297,0.163-0.472,0.231
		c-0.175,0.067-0.365,0.122-0.57,0.164s-0.417,0.063-0.637,0.063c-0.452,0-0.854-0.075-1.203-0.224
		c-0.35-0.149-0.643-0.367-0.878-0.654c-0.235-0.287-0.415-0.639-0.539-1.056S5.96,8.525,5.96,7.979
		c0-0.621,0.076-1.153,0.228-1.599s0.359-0.81,0.623-1.095s0.574-0.496,0.93-0.633c0.357-0.137,0.743-0.206,1.158-0.206
		c0.201,0,0.396,0.019,0.584,0.056c0.189,0.038,0.362,0.086,0.521,0.147s0.3,0.131,0.423,0.21s0.213,0.147,0.269,0.203
		c0.056,0.056,0.095,0.101,0.116,0.133s0.039,0.071,0.052,0.115c0.014,0.044,0.023,0.094,0.028,0.15
		c0.004,0.056,0.007,0.126,0.007,0.21c0,0.182-0.021,0.309-0.063,0.381s-0.093,0.108-0.154,0.108c-0.07,0-0.15-0.039-0.242-0.116
		c-0.091-0.077-0.206-0.162-0.346-0.255c-0.14-0.093-0.309-0.178-0.507-0.255C9.389,5.458,9.155,5.419,8.885,5.419
		c-0.555,0-0.98,0.213-1.277,0.64C7.312,6.486,7.164,7.105,7.164,7.917c0,0.406,0.038,0.761,0.115,1.066
		c0.077,0.306,0.19,0.561,0.339,0.766c0.149,0.206,0.332,0.358,0.549,0.458c0.217,0.101,0.465,0.151,0.745,0.151
		c0.266,0,0.499-0.042,0.7-0.126c0.2-0.084,0.374-0.176,0.521-0.276c0.147-0.101,0.271-0.191,0.371-0.273
		c0.101-0.082,0.179-0.123,0.234-0.123c0.033,0,0.061,0.01,0.084,0.028s0.043,0.05,0.06,0.094c0.016,0.044,0.028,0.101,0.035,0.168
		C10.924,9.918,10.927,9.999,10.927,10.092z"/>
	<path d="M17.88,11.05c0,0.037-0.009,0.069-0.028,0.094c-0.019,0.026-0.049,0.048-0.091,0.066s-0.1,0.033-0.175,0.042
		s-0.168,0.014-0.28,0.014c-0.117,0-0.212-0.005-0.287-0.014c-0.075-0.009-0.133-0.023-0.175-0.042s-0.073-0.041-0.091-0.066
		c-0.019-0.025-0.028-0.057-0.028-0.094V7.364c0-0.359-0.028-0.648-0.084-0.868c-0.056-0.219-0.138-0.408-0.245-0.566
		c-0.107-0.159-0.246-0.28-0.417-0.364c-0.17-0.084-0.367-0.126-0.591-0.126c-0.29,0-0.579,0.103-0.868,0.308
		c-0.289,0.206-0.592,0.506-0.909,0.902v4.4c0,0.037-0.009,0.069-0.028,0.094c-0.019,0.026-0.049,0.048-0.091,0.066
		s-0.1,0.033-0.175,0.042s-0.17,0.014-0.287,0.014c-0.112,0-0.206-0.005-0.28-0.014c-0.075-0.009-0.134-0.023-0.179-0.042
		s-0.075-0.041-0.091-0.066c-0.016-0.025-0.024-0.057-0.024-0.094V1.705c0-0.038,0.008-0.07,0.024-0.098s0.046-0.051,0.091-0.07
		s0.104-0.033,0.179-0.042c0.074-0.009,0.167-0.014,0.28-0.014c0.116,0,0.212,0.005,0.287,0.014s0.133,0.023,0.175,0.042
		s0.072,0.042,0.091,0.07c0.019,0.028,0.028,0.061,0.028,0.098v3.771c0.331-0.35,0.665-0.61,1-0.78
		c0.335-0.17,0.674-0.255,1.014-0.255c0.419,0,0.773,0.071,1.06,0.213c0.287,0.143,0.519,0.333,0.696,0.57s0.304,0.517,0.381,0.836
		c0.077,0.319,0.115,0.706,0.115,1.158V11.05z"/>
	<path d="M24.729,11.057c0,0.056-0.019,0.098-0.056,0.126c-0.038,0.028-0.089,0.049-0.154,0.063
		c-0.065,0.014-0.161,0.021-0.287,0.021c-0.121,0-0.218-0.007-0.29-0.021c-0.073-0.014-0.125-0.035-0.158-0.063
		s-0.049-0.07-0.049-0.126v-0.629c-0.275,0.293-0.582,0.522-0.92,0.686c-0.338,0.163-0.696,0.245-1.074,0.245
		c-0.331,0-0.631-0.043-0.899-0.129c-0.268-0.086-0.497-0.211-0.686-0.374c-0.189-0.164-0.336-0.364-0.441-0.602
		s-0.157-0.508-0.157-0.812c0-0.354,0.072-0.662,0.217-0.923s0.352-0.478,0.623-0.651C20.669,7.695,21,7.565,21.392,7.479
		c0.392-0.086,0.832-0.129,1.322-0.129h0.868V6.86c0-0.242-0.026-0.457-0.077-0.644s-0.134-0.341-0.248-0.465
		c-0.115-0.124-0.263-0.217-0.444-0.28c-0.182-0.062-0.406-0.094-0.671-0.094c-0.285,0-0.54,0.034-0.766,0.102
		c-0.227,0.067-0.424,0.142-0.595,0.224s-0.312,0.156-0.427,0.224c-0.114,0.067-0.199,0.101-0.255,0.101
		C20.061,6.027,20.028,6.018,20,6c-0.028-0.019-0.053-0.046-0.074-0.084c-0.021-0.037-0.036-0.085-0.045-0.143
		c-0.009-0.059-0.014-0.123-0.014-0.192c0-0.117,0.008-0.209,0.025-0.276c0.016-0.068,0.056-0.132,0.119-0.192
		s0.171-0.132,0.325-0.213s0.331-0.156,0.532-0.224c0.201-0.067,0.42-0.124,0.658-0.168c0.238-0.044,0.478-0.066,0.72-0.066
		c0.453,0,0.837,0.052,1.154,0.154c0.317,0.103,0.574,0.253,0.77,0.451s0.338,0.444,0.427,0.738s0.133,0.637,0.133,1.028V11.057z
		 M23.582,8.182h-0.986c-0.317,0-0.592,0.027-0.826,0.081c-0.233,0.054-0.427,0.133-0.581,0.238s-0.267,0.231-0.339,0.377
		c-0.072,0.147-0.108,0.316-0.108,0.507c0,0.327,0.104,0.586,0.312,0.78c0.208,0.193,0.498,0.29,0.871,0.29
		c0.303,0,0.584-0.077,0.843-0.231s0.53-0.389,0.815-0.707V8.182z"/>
	<path d="M30.528,5.167c0,0.103-0.003,0.189-0.007,0.259c-0.005,0.07-0.015,0.125-0.028,0.165s-0.031,0.07-0.053,0.091
		c-0.021,0.021-0.05,0.032-0.087,0.032c-0.038,0-0.083-0.011-0.137-0.032s-0.114-0.042-0.182-0.063s-0.144-0.041-0.228-0.059
		s-0.175-0.028-0.272-0.028c-0.117,0-0.231,0.023-0.343,0.07c-0.112,0.046-0.23,0.124-0.354,0.23
		c-0.124,0.107-0.253,0.25-0.389,0.427c-0.135,0.177-0.284,0.394-0.447,0.651v4.141c0,0.037-0.01,0.069-0.028,0.094
		c-0.019,0.026-0.049,0.048-0.091,0.066s-0.101,0.033-0.175,0.042s-0.17,0.014-0.287,0.014c-0.111,0-0.205-0.005-0.279-0.014
		c-0.075-0.009-0.135-0.023-0.179-0.042s-0.074-0.041-0.091-0.066c-0.017-0.025-0.024-0.057-0.024-0.094V4.754
		c0-0.037,0.007-0.069,0.021-0.094c0.015-0.026,0.042-0.049,0.084-0.07s0.096-0.035,0.161-0.042c0.065-0.007,0.151-0.01,0.259-0.01
		c0.103,0,0.188,0.003,0.256,0.01c0.067,0.007,0.12,0.021,0.157,0.042s0.063,0.044,0.08,0.07c0.017,0.025,0.024,0.057,0.024,0.094
		v0.917c0.173-0.252,0.335-0.457,0.486-0.616s0.295-0.283,0.431-0.374c0.135-0.091,0.269-0.154,0.402-0.189
		c0.133-0.035,0.267-0.053,0.401-0.053c0.061,0,0.13,0.003,0.207,0.011c0.077,0.007,0.157,0.02,0.241,0.039s0.159,0.04,0.228,0.063
		c0.067,0.023,0.115,0.046,0.144,0.07c0.027,0.023,0.046,0.045,0.056,0.066c0.009,0.021,0.018,0.048,0.024,0.081
		s0.012,0.08,0.014,0.143C30.527,4.975,30.528,5.06,30.528,5.167z"/>
	<path d="M35.551,9.336c0,0.322-0.06,0.608-0.178,0.86c-0.119,0.252-0.288,0.464-0.508,0.637c-0.219,0.172-0.48,0.303-0.783,0.392
		c-0.304,0.088-0.637,0.133-1,0.133c-0.225,0-0.438-0.018-0.641-0.052c-0.203-0.035-0.385-0.08-0.546-0.133
		c-0.16-0.054-0.297-0.11-0.409-0.168c-0.111-0.059-0.193-0.111-0.244-0.158c-0.052-0.046-0.089-0.112-0.112-0.196
		s-0.035-0.198-0.035-0.343c0-0.088,0.005-0.163,0.015-0.224c0.009-0.061,0.021-0.11,0.034-0.147
		c0.015-0.037,0.034-0.064,0.06-0.081c0.025-0.016,0.055-0.024,0.088-0.024c0.051,0,0.127,0.032,0.228,0.094
		c0.1,0.063,0.224,0.132,0.37,0.207c0.147,0.075,0.321,0.144,0.521,0.207s0.432,0.094,0.692,0.094c0.196,0,0.373-0.021,0.531-0.063
		c0.159-0.042,0.297-0.104,0.413-0.185s0.206-0.186,0.27-0.312c0.062-0.126,0.095-0.275,0.095-0.448
		c0-0.177-0.046-0.326-0.137-0.448c-0.091-0.121-0.211-0.229-0.36-0.322S33.596,8.482,33.41,8.41s-0.379-0.148-0.577-0.228
		c-0.198-0.079-0.392-0.169-0.58-0.27c-0.189-0.1-0.358-0.223-0.508-0.367c-0.148-0.145-0.269-0.317-0.36-0.518
		c-0.091-0.2-0.136-0.44-0.136-0.721c0-0.247,0.048-0.483,0.144-0.71c0.095-0.226,0.238-0.424,0.43-0.594
		c0.191-0.17,0.431-0.307,0.717-0.409c0.287-0.103,0.622-0.154,1.004-0.154c0.168,0,0.336,0.014,0.504,0.042
		c0.168,0.028,0.319,0.063,0.455,0.105c0.135,0.042,0.25,0.087,0.346,0.137c0.096,0.049,0.168,0.092,0.217,0.129
		c0.05,0.037,0.082,0.07,0.099,0.098c0.016,0.028,0.027,0.06,0.034,0.095c0.008,0.035,0.015,0.078,0.021,0.129
		s0.011,0.114,0.011,0.188c0,0.08-0.004,0.148-0.011,0.207c-0.007,0.059-0.019,0.106-0.035,0.144
		c-0.017,0.037-0.036,0.064-0.06,0.08C35.1,5.81,35.075,5.818,35.047,5.818c-0.042,0-0.103-0.026-0.182-0.077
		s-0.182-0.106-0.308-0.165c-0.126-0.058-0.274-0.113-0.444-0.164s-0.365-0.077-0.584-0.077c-0.196,0-0.368,0.022-0.518,0.066
		c-0.149,0.044-0.271,0.107-0.367,0.189s-0.168,0.178-0.217,0.291c-0.049,0.112-0.073,0.233-0.073,0.364
		c0,0.182,0.046,0.334,0.14,0.458c0.093,0.124,0.214,0.232,0.363,0.325s0.319,0.177,0.511,0.252s0.386,0.151,0.584,0.231
		c0.198,0.079,0.395,0.167,0.588,0.266s0.365,0.217,0.515,0.357c0.148,0.14,0.269,0.308,0.36,0.503
		C35.506,8.833,35.551,9.066,35.551,9.336z"/>
	<path d="M38.671,1.998c0,0.145-0.007,0.276-0.021,0.396c-0.015,0.119-0.036,0.232-0.066,0.339c-0.03,0.107-0.072,0.213-0.126,0.318
		c-0.054,0.104-0.118,0.213-0.192,0.325l-0.951,1.434c-0.02,0.037-0.044,0.069-0.074,0.094c-0.03,0.026-0.066,0.047-0.108,0.063
		c-0.042,0.017-0.091,0.029-0.146,0.039s-0.126,0.014-0.21,0.014c-0.074,0-0.138-0.003-0.188-0.01
		c-0.052-0.007-0.089-0.02-0.112-0.039s-0.036-0.042-0.038-0.07c-0.003-0.028,0.006-0.063,0.024-0.105l0.923-1.91V1.998
		c0-0.121,0.012-0.219,0.035-0.293s0.062-0.132,0.115-0.171s0.121-0.066,0.203-0.081c0.081-0.014,0.181-0.021,0.297-0.021
		c0.112,0,0.208,0.007,0.287,0.021s0.145,0.041,0.196,0.081c0.051,0.04,0.09,0.097,0.115,0.171S38.671,1.877,38.671,1.998z
		 M41.176,1.998c0,0.145-0.007,0.276-0.021,0.396c-0.014,0.119-0.036,0.232-0.066,0.339c-0.03,0.107-0.072,0.213-0.126,0.318
		c-0.054,0.104-0.117,0.213-0.192,0.325l-0.951,1.434c-0.019,0.037-0.043,0.069-0.073,0.094c-0.03,0.026-0.066,0.047-0.108,0.063
		c-0.042,0.017-0.091,0.029-0.147,0.039c-0.056,0.009-0.126,0.014-0.21,0.014c-0.074,0-0.136-0.003-0.185-0.01
		c-0.05-0.007-0.087-0.02-0.112-0.039s-0.038-0.042-0.038-0.07s0.007-0.063,0.021-0.105l0.924-1.91V1.998
		c0-0.121,0.012-0.219,0.034-0.293c0.023-0.075,0.062-0.132,0.116-0.171s0.121-0.066,0.202-0.081
		c0.082-0.014,0.181-0.021,0.298-0.021c0.107,0,0.201,0.007,0.283,0.021c0.081,0.014,0.147,0.041,0.199,0.081
		s0.09,0.097,0.115,0.171S41.176,1.877,41.176,1.998z"/>
</g>
<path d="M48.752,13.052c0,0.077-0.002,0.144-0.007,0.201c-0.004,0.056-0.012,0.104-0.024,0.142c-0.011,0.039-0.023,0.073-0.04,0.102
	c-0.016,0.03-0.052,0.073-0.109,0.13c-0.057,0.057-0.152,0.126-0.289,0.21c-0.136,0.084-0.287,0.159-0.458,0.225
	c-0.17,0.065-0.354,0.119-0.555,0.159c-0.199,0.041-0.404,0.061-0.619,0.061c-0.438,0-0.828-0.072-1.168-0.217
	c-0.34-0.145-0.625-0.357-0.853-0.636c-0.229-0.279-0.404-0.621-0.522-1.026c-0.12-0.405-0.181-0.873-0.181-1.403
	c0-0.603,0.073-1.12,0.221-1.553c0.147-0.432,0.349-0.787,0.604-1.063c0.256-0.276,0.558-0.481,0.904-0.615
	c0.347-0.133,0.722-0.2,1.124-0.2c0.196,0,0.385,0.018,0.568,0.054c0.184,0.037,0.352,0.084,0.506,0.143
	c0.154,0.059,0.292,0.127,0.412,0.204c0.119,0.077,0.206,0.143,0.261,0.197c0.054,0.055,0.092,0.098,0.112,0.13
	c0.021,0.032,0.039,0.068,0.052,0.111c0.013,0.043,0.022,0.092,0.026,0.146s0.008,0.122,0.008,0.204c0,0.176-0.021,0.3-0.062,0.37
	c-0.041,0.07-0.09,0.105-0.149,0.105c-0.068,0-0.146-0.038-0.235-0.112c-0.088-0.075-0.2-0.157-0.336-0.249
	c-0.137-0.09-0.3-0.173-0.493-0.248c-0.191-0.075-0.419-0.112-0.683-0.112c-0.54,0-0.953,0.207-1.241,0.622
	c-0.286,0.415-0.432,1.017-0.432,1.805c0,0.394,0.039,0.74,0.112,1.036c0.076,0.297,0.186,0.546,0.331,0.745
	c0.144,0.2,0.321,0.348,0.532,0.445c0.211,0.098,0.452,0.147,0.725,0.147c0.258,0,0.484-0.041,0.68-0.123
	c0.193-0.082,0.363-0.171,0.506-0.269s0.263-0.186,0.359-0.265c0.099-0.08,0.175-0.119,0.229-0.119c0.032,0,0.059,0.009,0.081,0.027
	c0.022,0.019,0.042,0.048,0.059,0.092c0.016,0.043,0.026,0.098,0.034,0.163C48.749,12.883,48.752,12.961,48.752,13.052z"/>
<path d="M49.349,24.868c0,0.036-0.009,0.066-0.027,0.091c-0.018,0.025-0.048,0.046-0.088,0.065
	c-0.041,0.018-0.098,0.032-0.171,0.041c-0.072,0.009-0.162,0.015-0.271,0.015c-0.112,0-0.206-0.006-0.278-0.015
	c-0.071-0.009-0.129-0.023-0.17-0.041c-0.04-0.019-0.071-0.04-0.089-0.065c-0.019-0.025-0.027-0.055-0.027-0.091v-3.582
	c0-0.349-0.027-0.63-0.081-0.843s-0.134-0.396-0.238-0.55s-0.238-0.272-0.403-0.354c-0.166-0.082-0.357-0.123-0.575-0.123
	c-0.281,0-0.562,0.1-0.843,0.299c-0.281,0.2-0.575,0.492-0.882,0.876v4.275c0,0.036-0.01,0.066-0.027,0.091
	c-0.02,0.025-0.049,0.046-0.09,0.065c-0.041,0.018-0.098,0.032-0.17,0.041s-0.165,0.015-0.278,0.015
	c-0.108,0-0.199-0.006-0.272-0.015c-0.072-0.009-0.129-0.023-0.172-0.041c-0.044-0.019-0.074-0.04-0.089-0.065
	c-0.016-0.025-0.023-0.055-0.023-0.091v-9.08c0-0.037,0.008-0.068,0.023-0.095c0.015-0.027,0.045-0.05,0.089-0.068
	c0.043-0.018,0.1-0.032,0.172-0.041c0.073-0.009,0.164-0.014,0.272-0.014c0.113,0,0.206,0.005,0.278,0.014
	c0.072,0.009,0.129,0.023,0.17,0.041s0.07,0.041,0.09,0.068c0.018,0.027,0.027,0.059,0.027,0.095v3.663
	c0.319-0.34,0.645-0.592,0.971-0.758c0.327-0.165,0.655-0.248,0.985-0.248c0.407,0,0.751,0.069,1.03,0.207
	c0.279,0.139,0.503,0.323,0.676,0.554s0.296,0.502,0.37,0.812c0.075,0.311,0.112,0.686,0.112,1.125V24.868z"/>
<path d="M48.85,32.901c0,0.054-0.019,0.094-0.054,0.122c-0.037,0.026-0.087,0.047-0.149,0.06c-0.064,0.015-0.157,0.021-0.279,0.021
	c-0.117,0-0.212-0.007-0.282-0.021c-0.07-0.013-0.122-0.033-0.152-0.06c-0.032-0.028-0.048-0.068-0.048-0.122v-0.612
	c-0.268,0.285-0.565,0.508-0.895,0.666c-0.328,0.158-0.676,0.238-1.043,0.238c-0.321,0-0.611-0.042-0.873-0.126
	c-0.261-0.084-0.482-0.206-0.666-0.364s-0.326-0.353-0.428-0.585c-0.103-0.23-0.153-0.493-0.153-0.787
	c0-0.346,0.07-0.645,0.21-0.896c0.141-0.255,0.343-0.465,0.605-0.634c0.264-0.167,0.584-0.293,0.966-0.376
	c0.38-0.084,0.809-0.127,1.284-0.127h0.843v-0.475c0-0.235-0.025-0.444-0.075-0.625c-0.05-0.182-0.13-0.333-0.241-0.452
	c-0.111-0.12-0.255-0.212-0.431-0.272c-0.178-0.061-0.395-0.092-0.652-0.092c-0.277,0-0.525,0.033-0.744,0.099
	c-0.221,0.066-0.413,0.139-0.579,0.218c-0.165,0.079-0.304,0.151-0.413,0.218c-0.112,0.065-0.194,0.098-0.25,0.098
	c-0.035,0-0.067-0.009-0.094-0.026c-0.027-0.018-0.052-0.045-0.073-0.082c-0.02-0.036-0.034-0.082-0.042-0.139
	c-0.011-0.058-0.014-0.119-0.014-0.188c0-0.113,0.008-0.203,0.023-0.269s0.054-0.128,0.115-0.188
	c0.062-0.058,0.167-0.127,0.316-0.206c0.149-0.08,0.32-0.152,0.517-0.219c0.195-0.065,0.407-0.119,0.64-0.163
	c0.23-0.043,0.463-0.064,0.698-0.064c0.439,0,0.813,0.051,1.122,0.15c0.308,0.099,0.556,0.245,0.747,0.438
	c0.191,0.192,0.33,0.431,0.414,0.717c0.086,0.285,0.13,0.618,0.13,1V32.901z M47.736,30.107h-0.958
	c-0.309,0-0.576,0.025-0.802,0.078c-0.227,0.052-0.416,0.129-0.564,0.231c-0.15,0.102-0.26,0.224-0.33,0.366
	c-0.07,0.144-0.105,0.307-0.105,0.494c0,0.316,0.102,0.568,0.303,0.757c0.201,0.188,0.483,0.282,0.847,0.282
	c0.294,0,0.566-0.074,0.818-0.226c0.252-0.148,0.516-0.377,0.792-0.686V30.107z"/>
<path d="M48.504,35.489c0,0.101-0.004,0.185-0.008,0.252c-0.005,0.067-0.014,0.121-0.026,0.159
	c-0.015,0.039-0.031,0.068-0.052,0.089c-0.021,0.021-0.05,0.03-0.086,0.03c-0.035,0-0.079-0.01-0.133-0.03
	c-0.051-0.021-0.11-0.041-0.176-0.061c-0.066-0.021-0.139-0.04-0.22-0.059c-0.083-0.018-0.172-0.027-0.266-0.027
	c-0.115,0-0.225,0.022-0.333,0.068c-0.11,0.046-0.224,0.119-0.343,0.224c-0.121,0.104-0.247,0.243-0.379,0.415
	c-0.13,0.173-0.276,0.383-0.434,0.632v4.023c0,0.036-0.01,0.067-0.027,0.092c-0.019,0.025-0.049,0.048-0.088,0.065
	c-0.042,0.018-0.098,0.03-0.172,0.04c-0.071,0.009-0.164,0.014-0.277,0.014c-0.109,0-0.2-0.005-0.272-0.014
	c-0.072-0.01-0.13-0.022-0.173-0.04s-0.072-0.04-0.089-0.065c-0.016-0.024-0.023-0.056-0.023-0.092v-6.116
	c0-0.036,0.007-0.067,0.02-0.091c0.015-0.025,0.042-0.049,0.083-0.068c0.04-0.021,0.092-0.034,0.156-0.042
	c0.062-0.006,0.146-0.01,0.25-0.01c0.102,0,0.184,0.004,0.248,0.01c0.067,0.008,0.118,0.021,0.154,0.042
	c0.036,0.02,0.062,0.043,0.078,0.068c0.016,0.023,0.024,0.055,0.024,0.091v0.89c0.167-0.243,0.325-0.443,0.471-0.598
	c0.147-0.153,0.287-0.275,0.419-0.363s0.262-0.149,0.39-0.184c0.13-0.034,0.26-0.051,0.392-0.051c0.06,0,0.126,0.002,0.2,0.01
	c0.074,0.007,0.153,0.021,0.235,0.038s0.154,0.038,0.221,0.06c0.065,0.023,0.112,0.047,0.14,0.068
	c0.027,0.023,0.044,0.044,0.054,0.065c0.009,0.021,0.017,0.046,0.024,0.077c0.005,0.032,0.012,0.078,0.013,0.14
	C48.501,35.303,48.504,35.386,48.504,35.489z"/>
<path d="M48.504,47.325c0,0.312-0.058,0.592-0.173,0.835c-0.116,0.245-0.28,0.451-0.493,0.619c-0.214,0.168-0.466,0.294-0.762,0.381
	c-0.295,0.086-0.619,0.129-0.972,0.129c-0.218,0-0.425-0.018-0.622-0.052c-0.196-0.033-0.374-0.077-0.529-0.129
	c-0.157-0.053-0.289-0.106-0.397-0.163c-0.109-0.055-0.189-0.106-0.238-0.153c-0.05-0.044-0.085-0.107-0.108-0.188
	c-0.022-0.083-0.034-0.193-0.034-0.333c0-0.087,0.004-0.159,0.014-0.219c0.009-0.059,0.021-0.106,0.034-0.142
	c0.013-0.036,0.031-0.062,0.058-0.078c0.024-0.017,0.053-0.024,0.084-0.024c0.051,0,0.124,0.031,0.222,0.092
	c0.098,0.062,0.217,0.128,0.359,0.201c0.143,0.072,0.312,0.138,0.507,0.199c0.195,0.062,0.42,0.093,0.674,0.093
	c0.189,0,0.362-0.021,0.516-0.062c0.154-0.041,0.287-0.102,0.4-0.181c0.114-0.079,0.201-0.18,0.262-0.303
	c0.062-0.121,0.092-0.267,0.092-0.435c0-0.171-0.044-0.316-0.132-0.434c-0.089-0.119-0.204-0.224-0.351-0.313
	c-0.145-0.09-0.308-0.171-0.488-0.241c-0.182-0.07-0.369-0.145-0.561-0.222c-0.193-0.076-0.382-0.163-0.565-0.261
	c-0.183-0.097-0.348-0.217-0.492-0.357s-0.261-0.308-0.351-0.503c-0.088-0.193-0.132-0.428-0.132-0.7
	c0-0.239,0.047-0.47,0.139-0.689c0.094-0.22,0.233-0.412,0.418-0.578c0.186-0.164,0.418-0.297,0.697-0.397
	c0.278-0.1,0.604-0.149,0.975-0.149c0.164,0,0.327,0.014,0.489,0.042c0.164,0.026,0.311,0.061,0.441,0.101
	c0.132,0.041,0.244,0.086,0.338,0.134c0.092,0.047,0.162,0.089,0.211,0.125c0.047,0.036,0.078,0.068,0.095,0.096
	c0.017,0.026,0.027,0.057,0.034,0.091c0.006,0.034,0.014,0.076,0.02,0.127c0.008,0.049,0.011,0.11,0.011,0.182
	c0,0.077-0.003,0.146-0.011,0.201c-0.006,0.057-0.017,0.104-0.034,0.139c-0.016,0.037-0.034,0.062-0.058,0.079
	c-0.021,0.017-0.047,0.024-0.074,0.024c-0.041,0-0.101-0.025-0.177-0.076c-0.076-0.048-0.177-0.104-0.298-0.159
	c-0.124-0.056-0.268-0.11-0.434-0.159c-0.164-0.05-0.354-0.075-0.567-0.075c-0.189,0-0.357,0.021-0.503,0.065
	c-0.144,0.043-0.264,0.104-0.356,0.184s-0.163,0.173-0.21,0.281c-0.049,0.108-0.071,0.226-0.071,0.354
	c0,0.177,0.045,0.324,0.135,0.445c0.092,0.12,0.209,0.225,0.354,0.315c0.146,0.091,0.312,0.173,0.497,0.245s0.375,0.146,0.567,0.224
	c0.193,0.078,0.383,0.164,0.571,0.26c0.188,0.094,0.354,0.21,0.499,0.346c0.145,0.135,0.261,0.299,0.351,0.489
	C48.46,46.835,48.504,47.062,48.504,47.325z"/>
<path d="M30.482,27.3l-5.509-3.181v4.36c-7.798,0-14.143-6.345-14.143-14.144h-4c0,10.004,8.139,18.144,18.143,18.144V30.48
	l0.001,6.359l5.508-3.18l5.508-3.18L30.482,27.3z"/>
</svg>
