<?xml version="1.0" encoding="utf-8"?>
<!-- Generator: Adobe Illustrator 15.0.0, SVG Export Plug-In . SVG Version: 6.00 Build 0)  -->
<!DOCTYPE svg PUBLIC "-//W3C//DTD SVG 1.1//EN" "http://www.w3.org/Graphics/SVG/1.1/DTD/svg11.dtd">
<svg version="1.1" id="Laag_1" xmlns="http://www.w3.org/2000/svg" xmlns:xlink="http://www.w3.org/1999/xlink" x="0px" y="0px"
	 width="49.947px" height="49.947px" viewBox="0 0 49.947 49.947" enable-background="new 0 0 49.947 49.947" xml:space="preserve">
<g>
	<path d="M11.844,16.117c0,0.094-0.031,0.164-0.094,0.211s-0.148,0.082-0.258,0.105s-0.27,0.035-0.48,0.035
		c-0.203,0-0.365-0.012-0.486-0.035s-0.209-0.059-0.264-0.105s-0.082-0.117-0.082-0.211v-1.055
		c-0.461,0.492-0.975,0.875-1.541,1.148s-1.166,0.41-1.799,0.41c-0.555,0-1.057-0.072-1.506-0.217s-0.832-0.354-1.148-0.627
		s-0.562-0.609-0.738-1.008s-0.264-0.852-0.264-1.359c0-0.594,0.121-1.109,0.363-1.547s0.59-0.801,1.043-1.09
		s1.008-0.506,1.664-0.65s1.395-0.217,2.215-0.217h1.453v-0.82c0-0.406-0.043-0.766-0.129-1.078S9.569,7.435,9.378,7.228
		S8.938,6.865,8.634,6.759s-0.68-0.158-1.125-0.158c-0.477,0-0.904,0.057-1.283,0.17S5.514,7.009,5.229,7.146
		S4.706,7.408,4.514,7.521s-0.334,0.17-0.428,0.17c-0.062,0-0.117-0.016-0.164-0.047S3.835,7.566,3.8,7.503s-0.061-0.143-0.076-0.24
		S3.7,7.058,3.7,6.941c0-0.195,0.014-0.35,0.041-0.463S3.835,6.257,3.94,6.156s0.287-0.221,0.545-0.357S5.04,5.537,5.376,5.423
		s0.703-0.207,1.102-0.281s0.801-0.111,1.207-0.111c0.758,0,1.402,0.086,1.934,0.258s0.961,0.424,1.289,0.756
		s0.566,0.744,0.715,1.236s0.223,1.066,0.223,1.723V16.117z M9.923,11.3H8.27c-0.531,0-0.992,0.045-1.383,0.135
		s-0.715,0.223-0.973,0.398s-0.447,0.387-0.568,0.633s-0.182,0.529-0.182,0.85c0,0.547,0.174,0.982,0.521,1.307
		s0.834,0.486,1.459,0.486c0.508,0,0.979-0.129,1.412-0.387s0.889-0.652,1.365-1.184V11.3z"/>
	<path d="M25.098,10.691c0,0.914-0.1,1.736-0.299,2.467s-0.492,1.354-0.879,1.869s-0.861,0.91-1.424,1.184s-1.207,0.41-1.934,0.41
		c-0.336,0-0.646-0.033-0.932-0.1s-0.564-0.174-0.838-0.322s-0.547-0.336-0.82-0.562s-0.562-0.5-0.867-0.82v1.289
		c0,0.062-0.016,0.117-0.047,0.164s-0.082,0.084-0.152,0.111s-0.158,0.049-0.264,0.064s-0.24,0.023-0.404,0.023
		c-0.156,0-0.289-0.008-0.398-0.023s-0.199-0.037-0.27-0.064s-0.117-0.064-0.141-0.111s-0.035-0.102-0.035-0.164V0.449
		c0-0.062,0.014-0.117,0.041-0.164s0.078-0.086,0.152-0.117s0.174-0.055,0.299-0.07s0.281-0.023,0.469-0.023
		c0.195,0,0.355,0.008,0.48,0.023s0.223,0.039,0.293,0.07s0.121,0.07,0.152,0.117s0.047,0.102,0.047,0.164v6.316
		c0.312-0.32,0.615-0.59,0.908-0.809s0.58-0.396,0.861-0.533s0.562-0.236,0.844-0.299s0.578-0.094,0.891-0.094
		c0.766,0,1.42,0.152,1.963,0.457s0.984,0.713,1.324,1.225s0.588,1.111,0.744,1.799S25.098,9.925,25.098,10.691z M23.094,10.914
		c0-0.539-0.041-1.062-0.124-1.57c-0.082-0.508-0.226-0.957-0.431-1.348c-0.204-0.391-0.475-0.705-0.813-0.943
		c-0.338-0.238-0.758-0.357-1.261-0.357c-0.252,0-0.5,0.035-0.743,0.105c-0.244,0.07-0.491,0.188-0.743,0.352
		c-0.251,0.164-0.513,0.375-0.784,0.633c-0.271,0.258-0.56,0.582-0.866,0.973v4.207c0.534,0.648,1.045,1.143,1.533,1.482
		c0.486,0.34,0.994,0.51,1.521,0.51c0.487,0,0.904-0.117,1.25-0.352s0.627-0.545,0.843-0.932s0.373-0.82,0.472-1.301
		S23.094,11.406,23.094,10.914z"/>
	<path d="M35.587,14.5c0,0.133-0.004,0.248-0.012,0.346s-0.021,0.18-0.041,0.246s-0.043,0.125-0.07,0.176s-0.09,0.125-0.188,0.223
		s-0.264,0.219-0.498,0.363s-0.498,0.273-0.791,0.387s-0.611,0.205-0.955,0.275s-0.699,0.105-1.066,0.105
		c-0.758,0-1.43-0.125-2.016-0.375s-1.076-0.615-1.471-1.096s-0.695-1.07-0.902-1.77s-0.311-1.506-0.311-2.42
		c0-1.039,0.127-1.932,0.381-2.678s0.602-1.357,1.043-1.834s0.961-0.83,1.559-1.061s1.244-0.346,1.939-0.346
		c0.336,0,0.662,0.031,0.979,0.094s0.607,0.145,0.873,0.246s0.502,0.219,0.709,0.352s0.357,0.246,0.451,0.34
		s0.158,0.168,0.193,0.223s0.064,0.119,0.088,0.193s0.039,0.158,0.047,0.252s0.012,0.211,0.012,0.352
		c0,0.305-0.035,0.518-0.105,0.639s-0.156,0.182-0.258,0.182c-0.117,0-0.252-0.064-0.404-0.193s-0.346-0.271-0.58-0.428
		s-0.518-0.299-0.85-0.428s-0.725-0.193-1.178-0.193c-0.93,0-1.643,0.357-2.139,1.072s-0.744,1.752-0.744,3.111
		c0,0.68,0.064,1.275,0.193,1.787s0.318,0.939,0.568,1.283s0.557,0.6,0.92,0.768s0.779,0.252,1.248,0.252
		c0.445,0,0.836-0.07,1.172-0.211s0.627-0.295,0.873-0.463s0.453-0.32,0.621-0.457s0.299-0.205,0.393-0.205
		c0.055,0,0.102,0.016,0.141,0.047s0.072,0.084,0.1,0.158s0.047,0.168,0.059,0.281S35.587,14.343,35.587,14.5z"/>
	<path d="M47.188,16.105c0,0.062-0.014,0.117-0.041,0.164s-0.074,0.084-0.141,0.111s-0.154,0.049-0.264,0.064
		s-0.242,0.023-0.398,0.023c-0.164,0-0.301-0.008-0.41-0.023s-0.199-0.037-0.27-0.064s-0.121-0.064-0.152-0.111
		s-0.047-0.102-0.047-0.164V14.71c-0.555,0.602-1.131,1.07-1.729,1.406s-1.252,0.504-1.963,0.504c-0.773,0-1.434-0.15-1.98-0.451
		s-0.99-0.707-1.33-1.219s-0.588-1.113-0.744-1.805s-0.234-1.42-0.234-2.186c0-0.906,0.098-1.725,0.293-2.455
		s0.484-1.354,0.867-1.869s0.857-0.912,1.424-1.189s1.221-0.416,1.963-0.416c0.617,0,1.182,0.135,1.693,0.404
		s1.018,0.666,1.518,1.189V0.496c0-0.055,0.014-0.107,0.041-0.158s0.08-0.09,0.158-0.117s0.178-0.051,0.299-0.07
		s0.275-0.029,0.463-0.029c0.195,0,0.355,0.01,0.48,0.029s0.223,0.043,0.293,0.07s0.123,0.066,0.158,0.117s0.053,0.104,0.053,0.158
		V16.105z M45.243,8.687c-0.523-0.648-1.029-1.143-1.518-1.482s-0.998-0.51-1.529-0.51c-0.492,0-0.91,0.117-1.254,0.352
		s-0.623,0.543-0.838,0.926s-0.371,0.816-0.469,1.301s-0.146,0.977-0.146,1.477c0,0.531,0.041,1.051,0.123,1.559
		s0.225,0.959,0.428,1.354s0.473,0.711,0.809,0.949s0.758,0.357,1.266,0.357c0.258,0,0.506-0.035,0.744-0.105
		s0.482-0.188,0.732-0.352s0.512-0.377,0.785-0.639s0.562-0.584,0.867-0.967V8.687z"/>
</g>
<g>
	<path d="M30.553,44.941c0,0.258-0.039,0.461-0.117,0.609s-0.188,0.223-0.328,0.223h-1.711v3.188c0,0.062-0.016,0.115-0.049,0.158
		c-0.031,0.043-0.088,0.08-0.17,0.111c-0.08,0.031-0.184,0.055-0.312,0.07s-0.295,0.023-0.496,0.023
		c-0.191,0-0.354-0.008-0.482-0.023s-0.23-0.039-0.307-0.07c-0.078-0.031-0.129-0.068-0.158-0.111
		c-0.027-0.043-0.041-0.096-0.041-0.158v-3.188h-6.205c-0.093,0-0.17-0.012-0.232-0.035c-0.062-0.023-0.118-0.066-0.168-0.129
		c-0.051-0.062-0.085-0.152-0.104-0.27s-0.029-0.27-0.029-0.457c0-0.148,0.004-0.281,0.012-0.398s0.023-0.225,0.046-0.322
		c0.023-0.098,0.055-0.191,0.093-0.281c0.039-0.09,0.086-0.186,0.14-0.287l5.405-9.211c0.04-0.062,0.098-0.117,0.172-0.164
		c0.076-0.047,0.174-0.086,0.293-0.117s0.268-0.053,0.443-0.064c0.174-0.012,0.381-0.018,0.621-0.018
		c0.262,0,0.492,0.01,0.688,0.029c0.193,0.02,0.352,0.045,0.471,0.076s0.211,0.072,0.275,0.123c0.062,0.051,0.096,0.111,0.096,0.182
		v9.68h1.711c0.133,0,0.24,0.068,0.322,0.205S30.553,44.66,30.553,44.941z M26.382,35.789h-0.023l-4.875,8.32h4.899V35.789z"/>
</g>
<polygon points="9.893,25.535 9.893,20.761 7.051,20.761 7.051,25.535 4.418,25.535 6.446,28.123 8.473,30.711 10.5,28.123 
	12.528,25.535 "/>
<polygon points="21.477,25.535 21.477,20.761 18.635,20.761 18.635,25.535 16.003,25.535 18.03,28.123 20.057,30.711 22.085,28.123 
	24.113,25.535 "/>
<polygon points="34.124,25.535 34.124,20.761 31.282,20.761 31.282,25.535 28.649,25.535 30.677,28.123 32.704,30.711 
	34.731,28.123 36.759,25.535 "/>
<polygon points="45.407,25.535 45.407,20.761 42.565,20.761 42.565,25.535 39.932,25.535 41.96,28.123 43.987,30.711 46.014,28.123 
	48.042,25.535 "/>
</svg>
