<?xml version="1.0" encoding="utf-8"?>
<!-- Generator: Adobe Illustrator 15.0.0, SVG Export Plug-In . SVG Version: 6.00 Build 0)  -->
<!DOCTYPE svg PUBLIC "-//W3C//DTD SVG 1.1//EN" "http://www.w3.org/Graphics/SVG/1.1/DTD/svg11.dtd">
<svg version="1.1" id="Laag_1" xmlns="http://www.w3.org/2000/svg" xmlns:xlink="http://www.w3.org/1999/xlink" x="0px" y="0px"
	 width="49.947px" height="49.947px" viewBox="0 0 49.947 49.947" enable-background="new 0 0 49.947 49.947" xml:space="preserve">
<polygon fill="none" stroke="#000000" stroke-width="3" stroke-linejoin="round" stroke-miterlimit="68" points="46.516,37.194 
	25.516,48.231 25.516,23.706 46.516,12.667 "/>
<polygon fill="none" stroke="#000000" stroke-width="3" stroke-linejoin="round" stroke-miterlimit="68" points="4.516,37.194 
	25.516,48.231 25.516,23.706 4.516,12.667 "/>
<polygon fill="none" stroke="#000000" stroke-width="3" stroke-linejoin="round" stroke-miterlimit="10" points="4.516,12.667 
	25.516,1.631 46.516,12.667 25.516,23.706 "/>
<g>
	<g>
		<g enable-background="new    ">
			<defs>
				<polygon id="SVGID_1_" enable-background="new    " points="32.493,38.58 32.361,26.306 39.8,23.144 39.931,35.418 				"/>
			</defs>
			<clipPath id="SVGID_2_">
				<use xlink:href="#SVGID_1_"  overflow="visible"/>
			</clipPath>
			<g clip-path="url(#SVGID_2_)">
				<g>
					<g>
						<g>
							<path d="M35.875,35.536c-0.537,0.229-0.951,0.233-1.257,0.015c-0.305-0.211-0.453-0.61-0.459-1.191
								c-0.004-0.339,0.045-0.668,0.141-0.968c0.102-0.304,0.263-0.599,0.483-0.88c0.221-0.28,0.494-0.534,0.827-0.772
								c0.339-0.242,0.731-0.457,1.19-0.652l1.42-0.604l0.025,2.373c-0.406,0.74-0.788,1.325-1.158,1.75
								C36.718,35.04,36.313,35.35,35.875,35.536 M36.224,24.664c-0.348,0.147-0.693,0.328-1.033,0.553
								c-0.347,0.229-0.659,0.459-0.946,0.703c-0.287,0.244-0.54,0.481-0.762,0.722c-0.215,0.236-0.377,0.436-0.461,0.577
								c-0.09,0.151-0.147,0.29-0.166,0.411c-0.025,0.132-0.036,0.308-0.034,0.509c0.001,0.121,0.009,0.24,0.023,0.331
								c0.021,0.097,0.041,0.177,0.068,0.23l0.112,0.106l0.139-0.01c0.078-0.033,0.202-0.151,0.364-0.342
								c0.162-0.183,0.37-0.409,0.611-0.657c0.24-0.249,0.527-0.5,0.854-0.761c0.319-0.258,0.692-0.473,1.098-0.645
								c0.38-0.161,0.708-0.245,0.971-0.251c0.264,0.002,0.475,0.083,0.641,0.23c0.166,0.148,0.293,0.371,0.369,0.67
								c0.075,0.301,0.118,0.664,0.123,1.1l0.01,0.864l-1.251,0.531c-0.707,0.301-1.334,0.648-1.896,1.042
								c-0.567,0.396-1.036,0.822-1.426,1.296c-0.383,0.471-0.68,0.986-0.884,1.536c-0.198,0.546-0.298,1.141-0.291,1.771
								c0.006,0.54,0.083,0.986,0.238,1.342c0.155,0.363,0.375,0.628,0.646,0.796c0.278,0.183,0.608,0.261,0.996,0.25
								s0.82-0.121,1.292-0.322c0.544-0.23,1.06-0.596,1.541-1.093c0.487-0.492,0.922-1.09,1.315-1.777l0.013,1.115
								c0.001,0.097,0.021,0.169,0.067,0.198c0.046,0.029,0.125,0.036,0.23,0.016c0.104-0.021,0.242-0.071,0.419-0.146
								c0.177-0.076,0.321-0.145,0.412-0.208c0.092-0.063,0.163-0.134,0.222-0.208c0.052-0.07,0.077-0.162,0.076-0.26l-0.081-7.533
								c-0.008-0.694-0.079-1.28-0.209-1.744c-0.138-0.469-0.345-0.819-0.631-1.046c-0.285-0.236-0.66-0.344-1.114-0.337
								C37.43,24.24,36.88,24.385,36.224,24.664"/>
						</g>
					</g>
				</g>
			</g>
		</g>
	</g>
</g>
<g>
	<g>
		<g enable-background="new    ">
			<defs>
				<polygon id="SVGID_3_" enable-background="new    " points="10.684,35.647 10.827,19.059 18.499,22.788 18.356,39.376 				"/>
			</defs>
			<clipPath id="SVGID_4_">
				<use xlink:href="#SVGID_3_"  overflow="visible"/>
			</clipPath>
			<g clip-path="url(#SVGID_4_)">
				<g>
					<g>
						<g>
							<path d="M14.641,35.892c-0.415-0.201-0.815-0.563-1.195-1.092c-0.386-0.532-0.784-1.22-1.199-2.069l0.036-4.219
								c0.242-0.274,0.478-0.488,0.693-0.646c0.216-0.151,0.425-0.265,0.627-0.327c0.196-0.072,0.392-0.097,0.587-0.074
								c0.195,0.023,0.391,0.086,0.591,0.184c0.396,0.192,0.727,0.474,0.995,0.843c0.262,0.367,0.472,0.79,0.632,1.259
								c0.16,0.47,0.269,0.978,0.328,1.511c0.064,0.543,0.091,1.083,0.087,1.625c-0.004,0.493-0.046,0.96-0.132,1.405
								c-0.079,0.441-0.208,0.818-0.381,1.126c-0.173,0.3-0.402,0.509-0.674,0.607C15.358,36.128,15.031,36.081,14.641,35.892
								 M11.586,19.428c-0.144-0.07-0.27-0.123-0.371-0.156c-0.101-0.033-0.176-0.046-0.233-0.042l-0.126,0.059l-0.033,0.145
								L10.688,35.13l0.03,0.183l0.105,0.163c0.057,0.052,0.125,0.109,0.213,0.168c0.088,0.058,0.194,0.118,0.314,0.177
								c0.132,0.063,0.239,0.107,0.32,0.131c0.088,0.027,0.157,0.037,0.214,0.04l0.12-0.054l0.04-0.148l0.011-1.289
								c0.236,0.434,0.46,0.814,0.678,1.152c0.211,0.334,0.43,0.624,0.642,0.879c0.219,0.258,0.438,0.469,0.663,0.642
								c0.226,0.182,0.47,0.333,0.734,0.461c0.578,0.281,1.087,0.393,1.529,0.328c0.448-0.055,0.828-0.271,1.141-0.638
								c0.312-0.368,0.543-0.878,0.713-1.531c0.163-0.656,0.246-1.448,0.253-2.363c0.006-0.764-0.05-1.526-0.164-2.27
								c-0.12-0.754-0.309-1.445-0.575-2.094c-0.265-0.641-0.607-1.223-1.038-1.735c-0.424-0.51-0.944-0.922-1.547-1.215
								c-0.245-0.119-0.484-0.203-0.704-0.246c-0.227-0.046-0.447-0.05-0.674-0.024c-0.221,0.028-0.449,0.094-0.683,0.204
								c-0.234,0.109-0.475,0.257-0.723,0.464l0.055-6.336L12.319,20l-0.118-0.178c-0.057-0.059-0.138-0.123-0.232-0.184
								C11.869,19.574,11.743,19.504,11.586,19.428"/>
						</g>
					</g>
				</g>
			</g>
		</g>
	</g>
</g>
<g>
	<g>
		<g enable-background="new    ">
			<defs>
				<polygon id="SVGID_5_" enable-background="new    " points="17.724,12.735 26.854,6.577 32.915,10.837 23.785,16.996 				"/>
			</defs>
			<clipPath id="SVGID_6_">
				<use xlink:href="#SVGID_5_"  overflow="visible"/>
			</clipPath>
			<g clip-path="url(#SVGID_6_)">
				<g>
					<g>
						<g>
							<path d="M30.439,9.097c-0.506-0.355-1.068-0.623-1.68-0.807c-0.624-0.184-1.278-0.263-1.972-0.232
								c-0.7,0.027-1.438,0.172-2.208,0.44c-0.77,0.268-1.574,0.675-2.393,1.228c-0.72,0.485-1.281,0.973-1.676,1.45
								c-0.408,0.477-0.65,0.943-0.747,1.402c-0.089,0.456-0.021,0.904,0.209,1.338c0.235,0.429,0.624,0.839,1.178,1.229
								c0.269,0.189,0.551,0.351,0.854,0.491c0.31,0.136,0.614,0.25,0.913,0.341c0.306,0.088,0.6,0.158,0.883,0.203
								c0.29,0.04,0.503,0.063,0.65,0.057c0.152-0.002,0.248-0.007,0.312-0.017l0.187-0.06c0.071-0.022,0.143-0.063,0.229-0.112
								s0.171-0.107,0.277-0.178c0.125-0.084,0.23-0.156,0.304-0.222c0.087-0.067,0.147-0.124,0.183-0.182L26,15.333l-0.07-0.095
								c-0.067-0.047-0.218-0.08-0.445-0.095c-0.228-0.014-0.505-0.037-0.814-0.072c-0.315-0.04-0.647-0.109-1.003-0.205
								c-0.356-0.096-0.689-0.257-1.018-0.489c-0.342-0.24-0.575-0.495-0.711-0.772c-0.13-0.273-0.151-0.57-0.064-0.881
								c0.088-0.311,0.291-0.632,0.596-0.972c0.312-0.336,0.731-0.687,1.272-1.052c1.069-0.722,2.07-1.145,2.991-1.271
								c0.928-0.13,1.729,0.052,2.406,0.528c0.329,0.231,0.569,0.463,0.702,0.702c0.145,0.238,0.24,0.459,0.285,0.664
								s0.08,0.375,0.084,0.523c0.011,0.144,0.056,0.248,0.146,0.312c0.074,0.052,0.181,0.063,0.329,0.031
								c0.146-0.023,0.336-0.118,0.581-0.283c0.111-0.075,0.204-0.138,0.271-0.191c0.066-0.053,0.12-0.106,0.161-0.159l0.085-0.149
								c0.022-0.048,0.038-0.119,0.038-0.219c0.005-0.096-0.019-0.231-0.065-0.41c-0.04-0.174-0.125-0.361-0.234-0.547
								c-0.109-0.195-0.264-0.386-0.442-0.584C30.9,9.458,30.689,9.272,30.439,9.097"/>
						</g>
					</g>
				</g>
			</g>
		</g>
	</g>
</g>
</svg>
