<?xml version="1.0" encoding="utf-8"?>
<!-- Generator: Adobe Illustrator 15.0.0, SVG Export Plug-In . SVG Version: 6.00 Build 0)  -->
<!DOCTYPE svg PUBLIC "-//W3C//DTD SVG 1.1//EN" "http://www.w3.org/Graphics/SVG/1.1/DTD/svg11.dtd">
<svg version="1.1" id="Laag_1" xmlns="http://www.w3.org/2000/svg" xmlns:xlink="http://www.w3.org/1999/xlink" x="0px" y="0px"
	 width="49.947px" height="49.947px" viewBox="0 0 49.947 49.947" enable-background="new 0 0 49.947 49.947" xml:space="preserve">
<g>
	<path d="M1.76,4.037v1.061c0,0.146-0.016,0.264-0.046,0.354s-0.079,0.16-0.143,0.21c-0.064,0.05-0.146,0.084-0.244,0.101
		c-0.098,0.017-0.215,0.025-0.35,0.025s-0.25-0.008-0.345-0.025C0.536,5.746,0.458,5.712,0.396,5.662
		c-0.062-0.051-0.108-0.121-0.139-0.21S0.211,5.243,0.211,5.097c0-0.168,0.008-0.324,0.025-0.467
		c0.017-0.143,0.043-0.279,0.08-0.408c0.036-0.129,0.087-0.257,0.151-0.383c0.064-0.126,0.142-0.26,0.231-0.4l1.137-1.726
		c0.028-0.045,0.059-0.082,0.093-0.11c0.034-0.028,0.076-0.052,0.126-0.071c0.051-0.02,0.111-0.035,0.181-0.046
		s0.156-0.017,0.257-0.017c0.09,0,0.164,0.004,0.223,0.012C2.775,1.49,2.819,1.504,2.85,1.523c0.031,0.02,0.046,0.046,0.046,0.08
		c0,0.034-0.012,0.073-0.034,0.118L1.76,4.037z M4.774,4.037v1.061c0,0.146-0.016,0.264-0.046,0.354s-0.079,0.16-0.143,0.21
		C4.52,5.712,4.439,5.746,4.341,5.763c-0.098,0.017-0.215,0.025-0.35,0.025s-0.25-0.008-0.345-0.025
		C3.551,5.746,3.472,5.712,3.41,5.662c-0.062-0.051-0.108-0.121-0.139-0.21S3.225,5.243,3.225,5.097
		c0-0.168,0.008-0.324,0.025-0.467c0.017-0.143,0.043-0.279,0.08-0.408c0.036-0.129,0.087-0.257,0.151-0.383
		c0.064-0.126,0.142-0.26,0.231-0.4L4.85,1.713c0.028-0.045,0.059-0.082,0.093-0.11c0.034-0.028,0.076-0.052,0.126-0.071
		c0.051-0.02,0.111-0.035,0.181-0.046s0.156-0.017,0.257-0.017c0.09,0,0.166,0.004,0.228,0.012C5.796,1.49,5.841,1.504,5.868,1.523
		c0.028,0.02,0.043,0.046,0.046,0.08c0.003,0.034-0.01,0.073-0.038,0.118L4.774,4.037z"/>
	<path d="M15.408,12.49c0,0.163-0.011,0.292-0.034,0.387c-0.022,0.096-0.056,0.166-0.101,0.21s-0.112,0.087-0.202,0.126
		c-0.09,0.039-0.192,0.071-0.307,0.097c-0.115,0.025-0.237,0.046-0.366,0.063c-0.129,0.017-0.258,0.025-0.387,0.025
		c-0.393,0-0.73-0.052-1.011-0.156c-0.28-0.104-0.511-0.261-0.69-0.471c-0.18-0.211-0.311-0.477-0.392-0.8
		c-0.082-0.322-0.122-0.703-0.122-1.141V6.402h-1.061c-0.084,0-0.151-0.045-0.202-0.135c-0.05-0.09-0.076-0.236-0.076-0.438
		c0-0.107,0.007-0.197,0.021-0.27s0.032-0.133,0.055-0.181c0.022-0.047,0.052-0.081,0.088-0.101c0.037-0.02,0.077-0.029,0.122-0.029
		h1.053V3.447c0-0.04,0.01-0.076,0.029-0.109s0.056-0.063,0.109-0.088c0.053-0.025,0.125-0.043,0.215-0.055
		c0.09-0.011,0.202-0.017,0.337-0.017c0.14,0,0.255,0.006,0.345,0.017c0.089,0.012,0.16,0.03,0.21,0.055
		c0.05,0.025,0.087,0.055,0.109,0.088s0.034,0.07,0.034,0.109v1.802h1.945c0.045,0,0.084,0.01,0.118,0.029
		c0.034,0.02,0.063,0.054,0.088,0.101c0.025,0.048,0.043,0.108,0.055,0.181c0.011,0.073,0.017,0.163,0.017,0.27
		c0,0.202-0.025,0.348-0.076,0.438c-0.051,0.09-0.118,0.135-0.202,0.135h-1.945v4.227c0,0.522,0.077,0.917,0.231,1.183
		s0.431,0.4,0.829,0.4c0.129,0,0.244-0.013,0.345-0.038c0.101-0.025,0.191-0.052,0.27-0.08c0.079-0.028,0.146-0.055,0.202-0.08
		c0.056-0.025,0.106-0.038,0.151-0.038c0.028,0,0.055,0.007,0.08,0.021c0.025,0.014,0.045,0.041,0.059,0.08
		c0.014,0.04,0.026,0.093,0.038,0.16C15.402,12.305,15.408,12.389,15.408,12.49z"/>
	<path d="M21.672,5.964c0,0.124-0.003,0.228-0.008,0.312c-0.006,0.084-0.017,0.15-0.034,0.198c-0.017,0.047-0.038,0.084-0.063,0.109
		c-0.025,0.025-0.061,0.038-0.105,0.038s-0.1-0.012-0.164-0.038c-0.065-0.025-0.138-0.051-0.219-0.076
		c-0.081-0.025-0.172-0.049-0.273-0.072s-0.21-0.034-0.328-0.034c-0.141,0-0.278,0.028-0.413,0.084s-0.277,0.148-0.425,0.278
		c-0.149,0.129-0.305,0.3-0.467,0.513c-0.163,0.213-0.342,0.475-0.539,0.783v4.984c0,0.045-0.011,0.083-0.034,0.114
		s-0.059,0.058-0.109,0.08c-0.05,0.022-0.121,0.039-0.21,0.05s-0.205,0.017-0.345,0.017c-0.135,0-0.247-0.005-0.337-0.017
		s-0.161-0.028-0.214-0.05c-0.054-0.022-0.09-0.049-0.109-0.08c-0.02-0.031-0.03-0.069-0.03-0.114V5.468
		c0-0.045,0.008-0.083,0.025-0.114c0.017-0.031,0.05-0.059,0.101-0.084c0.05-0.025,0.115-0.042,0.193-0.051
		c0.079-0.008,0.183-0.012,0.312-0.012c0.124,0,0.226,0.004,0.308,0.012c0.081,0.009,0.145,0.025,0.189,0.051
		s0.077,0.053,0.097,0.084c0.02,0.031,0.029,0.069,0.029,0.114v1.103c0.208-0.303,0.403-0.55,0.585-0.741
		c0.182-0.191,0.355-0.341,0.518-0.451c0.163-0.109,0.324-0.185,0.484-0.228c0.16-0.042,0.321-0.063,0.484-0.063
		c0.073,0,0.156,0.004,0.249,0.013s0.189,0.024,0.291,0.046s0.192,0.048,0.273,0.076c0.082,0.028,0.139,0.056,0.173,0.084
		c0.034,0.028,0.056,0.055,0.067,0.08c0.011,0.025,0.021,0.058,0.029,0.097c0.008,0.039,0.014,0.097,0.017,0.172
		C21.671,5.733,21.672,5.835,21.672,5.964z"/>
	<path d="M24.804,2.908c0,0.326-0.062,0.547-0.185,0.665c-0.124,0.118-0.351,0.177-0.682,0.177c-0.326,0-0.549-0.057-0.669-0.172
		c-0.121-0.115-0.181-0.333-0.181-0.652c0-0.326,0.062-0.547,0.186-0.666c0.123-0.118,0.351-0.177,0.682-0.177
		c0.326,0,0.549,0.058,0.669,0.173S24.804,2.588,24.804,2.908z M24.644,13.045c0,0.045-0.011,0.083-0.034,0.114
		s-0.059,0.058-0.109,0.08c-0.05,0.022-0.121,0.039-0.21,0.05s-0.205,0.017-0.345,0.017c-0.135,0-0.247-0.005-0.337-0.017
		s-0.161-0.028-0.214-0.05c-0.054-0.022-0.09-0.049-0.109-0.08c-0.02-0.031-0.03-0.069-0.03-0.114V5.468
		c0-0.039,0.01-0.076,0.03-0.109c0.02-0.034,0.056-0.062,0.109-0.084c0.053-0.022,0.125-0.039,0.214-0.05s0.202-0.017,0.337-0.017
		c0.14,0,0.255,0.005,0.345,0.017s0.16,0.028,0.21,0.05c0.051,0.023,0.087,0.051,0.109,0.084s0.034,0.07,0.034,0.109V13.045z"/>
	<path d="M38.452,13.045c0,0.045-0.012,0.083-0.034,0.114s-0.059,0.058-0.109,0.08c-0.05,0.022-0.12,0.039-0.21,0.05
		s-0.202,0.017-0.337,0.017c-0.141,0-0.256-0.005-0.346-0.017s-0.161-0.028-0.214-0.05c-0.054-0.022-0.092-0.049-0.114-0.08
		s-0.033-0.069-0.033-0.114V8.44c0-0.32-0.028-0.612-0.084-0.875c-0.057-0.264-0.146-0.491-0.27-0.682
		c-0.124-0.191-0.281-0.337-0.472-0.438c-0.191-0.101-0.416-0.151-0.674-0.151c-0.32,0-0.642,0.124-0.964,0.371
		c-0.323,0.247-0.678,0.609-1.065,1.086v5.296c0,0.045-0.011,0.083-0.033,0.114s-0.061,0.058-0.114,0.08
		c-0.053,0.022-0.125,0.039-0.214,0.05c-0.09,0.011-0.202,0.017-0.337,0.017c-0.13,0-0.24-0.005-0.333-0.017
		s-0.165-0.028-0.219-0.05c-0.054-0.022-0.09-0.049-0.109-0.08s-0.029-0.069-0.029-0.114V8.44c0-0.32-0.031-0.612-0.093-0.875
		C31.983,7.3,31.89,7.073,31.766,6.882c-0.123-0.191-0.279-0.337-0.467-0.438c-0.188-0.101-0.411-0.151-0.67-0.151
		c-0.319,0-0.643,0.124-0.968,0.371s-0.68,0.609-1.061,1.086v5.296c0,0.045-0.012,0.083-0.034,0.114s-0.059,0.058-0.109,0.08
		c-0.051,0.022-0.121,0.039-0.21,0.05c-0.09,0.011-0.205,0.017-0.346,0.017c-0.135,0-0.247-0.005-0.337-0.017
		s-0.161-0.028-0.215-0.05c-0.053-0.022-0.09-0.049-0.109-0.08s-0.029-0.069-0.029-0.114V5.468c0-0.045,0.009-0.083,0.025-0.114
		c0.017-0.031,0.051-0.059,0.101-0.084c0.051-0.025,0.115-0.042,0.194-0.051c0.078-0.008,0.182-0.012,0.312-0.012
		c0.123,0,0.226,0.004,0.307,0.012c0.082,0.009,0.145,0.025,0.189,0.051s0.077,0.053,0.098,0.084
		c0.02,0.031,0.029,0.069,0.029,0.114V6.47c0.426-0.477,0.84-0.827,1.241-1.048s0.808-0.333,1.217-0.333
		c0.314,0,0.597,0.037,0.847,0.109c0.249,0.073,0.47,0.176,0.66,0.308c0.191,0.132,0.354,0.289,0.489,0.471
		c0.134,0.183,0.246,0.386,0.336,0.61c0.253-0.275,0.493-0.508,0.721-0.699c0.227-0.19,0.445-0.345,0.656-0.463
		c0.211-0.118,0.415-0.204,0.614-0.257s0.4-0.08,0.603-0.08c0.488,0,0.897,0.086,1.229,0.257c0.331,0.171,0.599,0.4,0.804,0.686
		c0.205,0.287,0.351,0.622,0.438,1.006s0.131,0.79,0.131,1.217V13.045z"/>
	<path d="M46.653,2.15c0,0.174-0.009,0.333-0.025,0.476c-0.017,0.143-0.044,0.279-0.08,0.408c-0.037,0.129-0.087,0.257-0.151,0.383
		c-0.064,0.126-0.143,0.257-0.231,0.392l-1.146,1.726c-0.022,0.045-0.052,0.083-0.088,0.114c-0.037,0.031-0.08,0.056-0.131,0.076
		s-0.109,0.035-0.177,0.046s-0.151,0.017-0.253,0.017c-0.09,0-0.165-0.004-0.228-0.013c-0.062-0.008-0.106-0.023-0.135-0.046
		c-0.027-0.022-0.043-0.051-0.046-0.084s0.007-0.076,0.029-0.126l1.111-2.299V2.15c0-0.146,0.015-0.264,0.042-0.354
		c0.028-0.09,0.074-0.159,0.14-0.206c0.064-0.048,0.146-0.08,0.244-0.097c0.098-0.017,0.217-0.025,0.357-0.025
		c0.135,0,0.25,0.008,0.346,0.025c0.095,0.017,0.174,0.049,0.235,0.097c0.062,0.047,0.108,0.116,0.139,0.206
		C46.637,1.887,46.653,2.004,46.653,2.15z M49.667,2.15c0,0.174-0.008,0.333-0.025,0.476c-0.017,0.143-0.043,0.279-0.08,0.408
		c-0.036,0.129-0.087,0.257-0.151,0.383c-0.064,0.126-0.142,0.257-0.231,0.392l-1.145,1.726c-0.022,0.045-0.053,0.083-0.089,0.114
		s-0.08,0.056-0.131,0.076c-0.05,0.02-0.109,0.035-0.177,0.046s-0.151,0.017-0.252,0.017c-0.09,0-0.164-0.004-0.224-0.013
		c-0.059-0.008-0.104-0.023-0.135-0.046c-0.03-0.022-0.046-0.051-0.046-0.084s0.008-0.076,0.025-0.126l1.111-2.299V2.15
		c0-0.146,0.014-0.264,0.042-0.354s0.074-0.159,0.139-0.206c0.064-0.048,0.146-0.08,0.244-0.097
		c0.099-0.017,0.218-0.025,0.358-0.025c0.129,0,0.242,0.008,0.341,0.025c0.098,0.017,0.178,0.049,0.239,0.097
		c0.062,0.047,0.108,0.116,0.14,0.206C49.651,1.887,49.667,2.004,49.667,2.15z"/>
</g>
<g>
	<path d="M6.281,40.728v1.061c0,0.146-0.016,0.265-0.046,0.354s-0.079,0.159-0.143,0.21s-0.146,0.084-0.244,0.102
		c-0.098,0.017-0.215,0.025-0.35,0.025s-0.25-0.009-0.345-0.025c-0.095-0.018-0.174-0.051-0.236-0.102
		c-0.062-0.051-0.108-0.12-0.139-0.21s-0.046-0.208-0.046-0.354c0-0.168,0.008-0.323,0.025-0.467
		c0.017-0.143,0.043-0.279,0.08-0.408c0.036-0.129,0.087-0.257,0.151-0.383c0.064-0.127,0.142-0.26,0.231-0.4l1.137-1.726
		c0.028-0.045,0.059-0.081,0.093-0.11c0.034-0.027,0.076-0.051,0.126-0.07c0.051-0.02,0.111-0.035,0.181-0.047
		s0.156-0.017,0.257-0.017c0.09,0,0.164,0.004,0.223,0.013c0.059,0.008,0.104,0.022,0.135,0.042c0.031,0.02,0.046,0.046,0.046,0.079
		c0,0.034-0.012,0.074-0.034,0.119L6.281,40.728z M9.295,40.728v1.061c0,0.146-0.016,0.265-0.046,0.354s-0.079,0.159-0.143,0.21
		s-0.146,0.084-0.244,0.102c-0.098,0.017-0.215,0.025-0.35,0.025s-0.25-0.009-0.345-0.025c-0.095-0.018-0.174-0.051-0.236-0.102
		c-0.062-0.051-0.108-0.12-0.139-0.21s-0.046-0.208-0.046-0.354c0-0.168,0.008-0.323,0.025-0.467
		c0.017-0.143,0.043-0.279,0.08-0.408c0.036-0.129,0.087-0.257,0.151-0.383c0.064-0.127,0.142-0.26,0.231-0.4l1.137-1.726
		c0.028-0.045,0.059-0.081,0.093-0.11c0.034-0.027,0.076-0.051,0.126-0.07c0.051-0.02,0.111-0.035,0.181-0.047
		s0.156-0.017,0.257-0.017c0.09,0,0.166,0.004,0.228,0.013c0.062,0.008,0.106,0.022,0.134,0.042c0.028,0.02,0.043,0.046,0.046,0.079
		c0.003,0.034-0.01,0.074-0.038,0.119L9.295,40.728z"/>
	<path d="M16.03,49.181c0,0.163-0.011,0.293-0.034,0.388c-0.022,0.096-0.056,0.165-0.101,0.21s-0.112,0.088-0.202,0.127
		s-0.192,0.071-0.307,0.097c-0.115,0.025-0.237,0.046-0.366,0.063c-0.129,0.017-0.258,0.025-0.387,0.025
		c-0.393,0-0.73-0.053-1.011-0.156c-0.28-0.104-0.511-0.261-0.69-0.471c-0.18-0.211-0.311-0.478-0.392-0.801
		c-0.082-0.322-0.122-0.703-0.122-1.141v-4.429h-1.061c-0.084,0-0.151-0.045-0.202-0.135c-0.05-0.09-0.076-0.235-0.076-0.438
		c0-0.106,0.007-0.196,0.021-0.27s0.032-0.134,0.055-0.181c0.022-0.048,0.052-0.082,0.088-0.102s0.077-0.029,0.122-0.029h1.053
		v-1.802c0-0.04,0.01-0.075,0.029-0.109s0.056-0.063,0.109-0.089s0.125-0.043,0.215-0.055c0.09-0.011,0.202-0.017,0.337-0.017
		c0.14,0,0.255,0.006,0.345,0.017c0.089,0.012,0.16,0.029,0.21,0.055c0.05,0.025,0.087,0.055,0.109,0.089s0.034,0.069,0.034,0.109
		v1.802h1.945c0.045,0,0.084,0.01,0.118,0.029s0.063,0.054,0.088,0.102c0.025,0.047,0.043,0.107,0.055,0.181
		c0.011,0.073,0.017,0.163,0.017,0.27c0,0.202-0.025,0.348-0.076,0.438c-0.051,0.09-0.118,0.135-0.202,0.135h-1.945v4.227
		c0,0.522,0.077,0.917,0.231,1.183c0.154,0.268,0.431,0.4,0.829,0.4c0.129,0,0.244-0.013,0.345-0.038
		c0.101-0.024,0.191-0.052,0.27-0.08s0.146-0.055,0.202-0.079c0.056-0.025,0.106-0.039,0.151-0.039c0.028,0,0.055,0.008,0.08,0.021
		s0.045,0.041,0.059,0.08c0.014,0.039,0.026,0.093,0.038,0.16C16.024,48.996,16.03,49.08,16.03,49.181z"/>
	<path d="M22.294,42.655c0,0.124-0.003,0.229-0.008,0.312c-0.006,0.084-0.017,0.15-0.034,0.197
		c-0.017,0.048-0.038,0.084-0.063,0.109c-0.025,0.025-0.061,0.038-0.105,0.038s-0.1-0.013-0.164-0.038
		c-0.065-0.025-0.138-0.051-0.219-0.075c-0.081-0.025-0.172-0.05-0.273-0.071c-0.101-0.023-0.21-0.034-0.328-0.034
		c-0.141,0-0.278,0.028-0.413,0.085c-0.135,0.056-0.277,0.148-0.425,0.277c-0.149,0.129-0.305,0.301-0.467,0.514
		c-0.163,0.213-0.342,0.475-0.539,0.783v4.984c0,0.045-0.011,0.082-0.034,0.113s-0.059,0.058-0.109,0.08
		c-0.05,0.021-0.121,0.039-0.21,0.051c-0.09,0.011-0.205,0.016-0.345,0.016c-0.135,0-0.247-0.005-0.337-0.016
		c-0.09-0.012-0.161-0.029-0.214-0.051c-0.054-0.022-0.09-0.049-0.109-0.08c-0.02-0.031-0.03-0.068-0.03-0.113v-7.578
		c0-0.045,0.008-0.082,0.025-0.113c0.017-0.031,0.05-0.059,0.101-0.084c0.05-0.025,0.115-0.043,0.193-0.051
		c0.079-0.009,0.183-0.013,0.312-0.013c0.124,0,0.226,0.004,0.308,0.013c0.081,0.008,0.145,0.025,0.189,0.051
		s0.077,0.053,0.097,0.084s0.029,0.068,0.029,0.113v1.104c0.208-0.304,0.403-0.551,0.585-0.741c0.182-0.19,0.355-0.341,0.518-0.45
		c0.163-0.109,0.324-0.186,0.484-0.229c0.16-0.041,0.321-0.062,0.484-0.062c0.073,0,0.156,0.004,0.249,0.013
		s0.189,0.024,0.291,0.046c0.101,0.023,0.192,0.049,0.273,0.076c0.082,0.028,0.139,0.057,0.173,0.084
		c0.034,0.028,0.056,0.055,0.067,0.08c0.011,0.025,0.021,0.058,0.029,0.098c0.008,0.039,0.014,0.096,0.017,0.172
		C22.293,42.425,22.294,42.526,22.294,42.655z"/>
	<path d="M25.427,39.6c0,0.325-0.062,0.548-0.185,0.665c-0.124,0.118-0.351,0.177-0.682,0.177c-0.326,0-0.549-0.058-0.669-0.173
		c-0.121-0.114-0.181-0.332-0.181-0.652c0-0.325,0.062-0.547,0.186-0.665c0.123-0.118,0.351-0.177,0.682-0.177
		c0.326,0,0.549,0.058,0.669,0.173S25.427,39.28,25.427,39.6z M25.266,49.737c0,0.045-0.011,0.082-0.034,0.113
		s-0.059,0.058-0.109,0.08c-0.05,0.021-0.121,0.039-0.21,0.051c-0.09,0.011-0.205,0.016-0.345,0.016
		c-0.135,0-0.247-0.005-0.337-0.016c-0.09-0.012-0.161-0.029-0.214-0.051c-0.054-0.022-0.09-0.049-0.109-0.08
		c-0.02-0.031-0.03-0.068-0.03-0.113v-7.578c0-0.039,0.01-0.076,0.03-0.109c0.02-0.033,0.056-0.062,0.109-0.084
		c0.053-0.022,0.125-0.039,0.214-0.051s0.202-0.017,0.337-0.017c0.14,0,0.255,0.005,0.345,0.017s0.16,0.028,0.21,0.051
		c0.051,0.022,0.087,0.051,0.109,0.084s0.034,0.07,0.034,0.109V49.737z"/>
	<path d="M39.074,49.737c0,0.045-0.012,0.082-0.033,0.113c-0.023,0.031-0.059,0.058-0.109,0.08
		c-0.051,0.021-0.121,0.039-0.211,0.051c-0.09,0.011-0.201,0.016-0.336,0.016c-0.141,0-0.256-0.005-0.346-0.016
		c-0.09-0.012-0.162-0.029-0.215-0.051c-0.053-0.022-0.092-0.049-0.113-0.08c-0.023-0.031-0.033-0.068-0.033-0.113v-4.605
		c0-0.32-0.029-0.612-0.084-0.876c-0.057-0.265-0.146-0.491-0.27-0.683c-0.125-0.19-0.281-0.336-0.473-0.438
		s-0.416-0.151-0.674-0.151c-0.32,0-0.641,0.124-0.963,0.37c-0.324,0.248-0.678,0.609-1.066,1.086v5.297
		c0,0.045-0.01,0.082-0.033,0.113c-0.021,0.031-0.061,0.058-0.113,0.08c-0.053,0.021-0.125,0.039-0.215,0.051
		c-0.09,0.011-0.201,0.016-0.336,0.016c-0.131,0-0.24-0.005-0.334-0.016c-0.092-0.012-0.164-0.029-0.219-0.051
		c-0.053-0.022-0.09-0.049-0.109-0.08s-0.029-0.068-0.029-0.113v-4.605c0-0.32-0.031-0.612-0.092-0.876
		c-0.062-0.265-0.154-0.491-0.279-0.683c-0.123-0.19-0.279-0.336-0.467-0.438s-0.41-0.151-0.67-0.151
		c-0.318,0-0.643,0.124-0.967,0.37c-0.326,0.248-0.68,0.609-1.062,1.086v5.297c0,0.045-0.012,0.082-0.034,0.113
		s-0.059,0.058-0.109,0.08c-0.05,0.021-0.12,0.039-0.21,0.051c-0.09,0.011-0.205,0.016-0.346,0.016
		c-0.135,0-0.247-0.005-0.337-0.016c-0.09-0.012-0.161-0.029-0.214-0.051c-0.054-0.022-0.09-0.049-0.109-0.08
		c-0.021-0.031-0.03-0.068-0.03-0.113v-7.578c0-0.045,0.009-0.082,0.025-0.113s0.051-0.059,0.102-0.084
		c0.05-0.025,0.114-0.043,0.193-0.051c0.078-0.009,0.183-0.013,0.312-0.013c0.123,0,0.226,0.004,0.308,0.013
		c0.081,0.008,0.145,0.025,0.189,0.051s0.077,0.053,0.097,0.084s0.029,0.068,0.029,0.113v1.002c0.427-0.477,0.841-0.826,1.242-1.049
		c0.401-0.221,0.808-0.332,1.216-0.332c0.314,0,0.598,0.037,0.848,0.109c0.248,0.073,0.469,0.176,0.66,0.308
		s0.354,0.289,0.488,0.472c0.135,0.182,0.246,0.386,0.336,0.609c0.254-0.274,0.494-0.508,0.721-0.698s0.445-0.345,0.656-0.463
		s0.416-0.204,0.615-0.257s0.4-0.08,0.602-0.08c0.488,0,0.898,0.086,1.23,0.257c0.33,0.171,0.598,0.399,0.803,0.687
		c0.205,0.286,0.352,0.621,0.438,1.006c0.088,0.385,0.131,0.79,0.131,1.217V49.737z"/>
	<path d="M43.377,38.842c0,0.175-0.009,0.333-0.025,0.476c-0.017,0.144-0.044,0.279-0.08,0.408
		c-0.037,0.129-0.087,0.258-0.151,0.383c-0.064,0.127-0.143,0.258-0.231,0.393l-1.146,1.726c-0.022,0.045-0.052,0.083-0.088,0.114
		c-0.037,0.03-0.08,0.056-0.131,0.075s-0.109,0.035-0.177,0.046c-0.067,0.012-0.151,0.018-0.253,0.018
		c-0.09,0-0.165-0.004-0.228-0.014c-0.062-0.008-0.106-0.023-0.135-0.045c-0.027-0.023-0.043-0.051-0.046-0.085
		s0.007-0.075,0.029-0.126l1.111-2.299v-1.069c0-0.146,0.015-0.264,0.042-0.354c0.028-0.09,0.074-0.159,0.14-0.206
		c0.064-0.048,0.146-0.08,0.244-0.098c0.098-0.016,0.217-0.024,0.357-0.024c0.135,0,0.25,0.009,0.346,0.024
		c0.095,0.018,0.174,0.05,0.235,0.098c0.062,0.047,0.108,0.116,0.139,0.206C43.361,38.578,43.377,38.696,43.377,38.842z
		 M46.39,38.842c0,0.175-0.008,0.333-0.025,0.476c-0.017,0.144-0.043,0.279-0.08,0.408c-0.036,0.129-0.087,0.258-0.151,0.383
		c-0.064,0.127-0.142,0.258-0.231,0.393l-1.145,1.726c-0.022,0.045-0.053,0.083-0.089,0.114c-0.036,0.03-0.08,0.056-0.131,0.075
		c-0.05,0.02-0.109,0.035-0.177,0.046c-0.067,0.012-0.151,0.018-0.252,0.018c-0.09,0-0.164-0.004-0.224-0.014
		c-0.059-0.008-0.104-0.023-0.135-0.045c-0.03-0.023-0.046-0.051-0.046-0.085s0.008-0.075,0.025-0.126l1.111-2.299v-1.069
		c0-0.146,0.014-0.264,0.042-0.354s0.074-0.159,0.139-0.206c0.064-0.048,0.146-0.08,0.244-0.098
		c0.099-0.016,0.218-0.024,0.358-0.024c0.129,0,0.242,0.009,0.341,0.024c0.098,0.018,0.178,0.05,0.239,0.098
		c0.062,0.047,0.108,0.116,0.14,0.206C46.375,38.578,46.39,38.696,46.39,38.842z"/>
</g>
<polygon points="27.024,26.259 27.024,19.37 22.923,19.37 22.923,26.259 19.125,26.259 22.05,29.99 24.973,33.724 27.898,29.99 
	30.822,26.259 "/>
</svg>
