<?xml version="1.0" encoding="utf-8"?>
<!-- Generator: Adobe Illustrator 15.0.0, SVG Export Plug-In . SVG Version: 6.00 Build 0)  -->
<!DOCTYPE svg PUBLIC "-//W3C//DTD SVG 1.1//EN" "http://www.w3.org/Graphics/SVG/1.1/DTD/svg11.dtd">
<svg version="1.1" id="Laag_1" xmlns="http://www.w3.org/2000/svg" xmlns:xlink="http://www.w3.org/1999/xlink" x="0px" y="0px"
	 width="49.947px" height="49.947px" viewBox="0 0 49.947 49.947" enable-background="new 0 0 49.947 49.947" xml:space="preserve">
<rect x="5.238" y="-0.013" width="5.809" height="2.383"/>
<rect x="12.908" y="-0.013" width="7.671" height="2.383"/>
<rect x="22.553" y="-0.013" width="5.399" height="2.383"/>
<rect x="29.665" y="-0.013" width="7.969" height="2.383"/>
<rect x="39.644" y="-0.013" width="6.106" height="2.383"/>
<rect x="5.238" y="4.307" width="2.905" height="2.383"/>
<rect x="9.929" y="4.307" width="6.926" height="2.383"/>
<rect x="18.718" y="4.307" width="6.535" height="2.383"/>
<rect x="26.909" y="4.307" width="7.15" height="2.383"/>
<rect x="35.922" y="4.307" width="9.829" height="2.383"/>
<rect x="5.238" y="8.626" width="5.809" height="2.383"/>
<rect x="12.908" y="8.626" width="5.809" height="2.383"/>
<rect x="20.579" y="8.626" width="5.809" height="2.383"/>
<rect x="28.251" y="8.626" width="12.063" height="2.383"/>
<rect x="41.953" y="8.626" width="3.798" height="2.383"/>
<rect x="5.238" y="30.298" width="5.809" height="2.384"/>
<rect x="12.908" y="30.298" width="5.809" height="2.384"/>
<rect x="20.579" y="30.298" width="5.809" height="2.384"/>
<rect x="28.251" y="30.298" width="12.063" height="2.384"/>
<rect x="41.953" y="30.298" width="3.798" height="2.384"/>
<rect x="5.238" y="12.945" width="9.458" height="2.383"/>
<rect x="12.908" y="12.945" width="4.468" height="2.383"/>
<rect x="18.718" y="12.945" width="11.767" height="2.383"/>
<rect x="33.649" y="12.945" width="3.239" height="2.383"/>
<rect x="38.527" y="12.945" width="7.224" height="2.383"/>
<rect x="5.238" y="17.265" width="5.809" height="2.383"/>
<rect x="12.908" y="17.265" width="5.809" height="2.383"/>
<rect x="20.579" y="17.265" width="8.192" height="2.383"/>
<rect x="30.484" y="17.265" width="3.575" height="2.383"/>
<rect x="37.186" y="17.265" width="8.564" height="2.383"/>
<rect x="5.238" y="21.584" width="8.639" height="2.383"/>
<rect x="12.908" y="21.584" width="3.202" height="2.383"/>
<rect x="17.898" y="21.584" width="8.49" height="2.383"/>
<rect x="28.251" y="21.584" width="11.394" height="2.383"/>
<rect x="41.469" y="21.584" width="4.282" height="2.383"/>
<rect x="5.238" y="25.903" width="4.32" height="2.383"/>
<rect x="11.047" y="25.903" width="6.33" height="2.383"/>
<rect x="18.718" y="25.903" width="9.533" height="2.383"/>
<rect x="29.665" y="25.903" width="4.395" height="2.383"/>
<rect x="35.922" y="25.903" width="9.829" height="2.383"/>
<g>
	<path d="M22.746,40.697c0,0.318-0.046,0.538-0.138,0.661c-0.091,0.123-0.195,0.185-0.314,0.185h-9c-0.119,0-0.222-0.062-0.31-0.185
		s-0.131-0.343-0.131-0.661c0-0.285,0.04-0.495,0.119-0.631c0.079-0.135,0.186-0.202,0.321-0.202h9c0.143,0,0.254,0.067,0.333,0.202
		C22.706,40.202,22.746,40.412,22.746,40.697z M22.746,45.328c0,0.317-0.046,0.536-0.138,0.655
		c-0.091,0.119-0.195,0.179-0.314,0.179h-9c-0.119,0-0.222-0.06-0.31-0.179s-0.131-0.338-0.131-0.655
		c0-0.293,0.04-0.508,0.119-0.643c0.079-0.135,0.186-0.202,0.321-0.202h9c0.143,0,0.254,0.067,0.333,0.202
		S22.746,45.035,22.746,45.328z"/>
	<path d="M35.531,45.495c0,0.262-0.04,0.469-0.119,0.619s-0.19,0.227-0.333,0.227h-1.738v3.237c0,0.063-0.017,0.117-0.049,0.161
		c-0.033,0.044-0.09,0.081-0.172,0.113c-0.082,0.031-0.188,0.055-0.318,0.071c-0.131,0.016-0.299,0.023-0.503,0.023
		c-0.196,0-0.359-0.008-0.49-0.023c-0.131-0.017-0.235-0.04-0.312-0.071c-0.078-0.032-0.131-0.069-0.16-0.113
		c-0.028-0.044-0.043-0.098-0.043-0.161v-3.237h-6.302c-0.095,0-0.173-0.013-0.236-0.036c-0.062-0.023-0.12-0.067-0.171-0.131
		s-0.087-0.155-0.106-0.274c-0.02-0.118-0.029-0.273-0.029-0.464c0-0.15,0.004-0.285,0.012-0.404s0.023-0.229,0.048-0.328
		c0.023-0.099,0.055-0.194,0.094-0.285c0.039-0.092,0.086-0.188,0.142-0.292l5.491-9.356c0.04-0.063,0.099-0.119,0.176-0.167
		c0.076-0.048,0.176-0.087,0.297-0.119c0.121-0.031,0.271-0.054,0.449-0.065s0.389-0.018,0.631-0.018c0.268,0,0.5,0.01,0.698,0.029
		c0.198,0.021,0.358,0.046,0.479,0.078c0.121,0.031,0.214,0.073,0.279,0.125c0.064,0.051,0.097,0.112,0.097,0.184v9.834h1.738
		c0.135,0,0.244,0.069,0.327,0.208S35.531,45.209,35.531,45.495z M31.293,36.198h-0.023l-4.952,8.452h4.976V36.198z"/>
	<path d="M47.233,48.995c0,0.143-0.011,0.27-0.03,0.381s-0.048,0.204-0.083,0.279c-0.036,0.076-0.083,0.132-0.143,0.167
		c-0.06,0.036-0.125,0.054-0.197,0.054h-8.511c-0.111,0-0.209-0.014-0.292-0.042c-0.083-0.027-0.155-0.073-0.215-0.137
		s-0.103-0.154-0.131-0.273c-0.027-0.119-0.041-0.266-0.041-0.44c0-0.159,0.006-0.298,0.019-0.417
		c0.012-0.119,0.038-0.224,0.079-0.315c0.041-0.091,0.092-0.183,0.153-0.273c0.062-0.092,0.142-0.188,0.239-0.292l3.079-3.167
		c0.712-0.729,1.282-1.385,1.711-1.964c0.43-0.579,0.761-1.107,0.994-1.583c0.232-0.477,0.386-0.909,0.46-1.298
		c0.073-0.389,0.11-0.754,0.11-1.095c0-0.342-0.058-0.665-0.172-0.971c-0.115-0.306-0.28-0.573-0.497-0.804
		c-0.218-0.229-0.49-0.412-0.817-0.548c-0.327-0.135-0.704-0.202-1.13-0.202c-0.5,0-0.948,0.067-1.345,0.202
		c-0.397,0.136-0.746,0.282-1.045,0.441c-0.299,0.158-0.549,0.305-0.749,0.44c-0.2,0.135-0.35,0.202-0.448,0.202
		c-0.058,0-0.108-0.016-0.153-0.048c-0.045-0.031-0.082-0.083-0.11-0.154c-0.029-0.072-0.052-0.167-0.068-0.286
		c-0.016-0.119-0.024-0.262-0.024-0.429c0-0.119,0.004-0.222,0.012-0.31c0.008-0.087,0.022-0.162,0.042-0.226
		s0.046-0.123,0.077-0.179c0.032-0.056,0.096-0.125,0.19-0.209c0.096-0.083,0.26-0.196,0.494-0.339s0.528-0.283,0.881-0.423
		c0.354-0.139,0.742-0.256,1.167-0.351c0.425-0.096,0.871-0.144,1.339-0.144c0.746,0,1.399,0.105,1.959,0.315
		c0.56,0.211,1.023,0.498,1.393,0.863s0.645,0.79,0.827,1.274c0.183,0.483,0.273,0.999,0.273,1.547c0,0.492-0.043,0.982-0.131,1.471
		c-0.087,0.488-0.271,1.016-0.553,1.583c-0.282,0.567-0.689,1.198-1.221,1.893c-0.532,0.694-1.238,1.494-2.119,2.399l-2.44,2.547
		h6.702c0.063,0,0.125,0.019,0.185,0.054c0.06,0.036,0.111,0.09,0.155,0.161c0.043,0.071,0.075,0.16,0.095,0.268
		S47.233,48.853,47.233,48.995z"/>
</g>
</svg>
