<?xml version="1.0" encoding="utf-8"?>
<!-- Generator: Adobe Illustrator 15.0.0, SVG Export Plug-In . SVG Version: 6.00 Build 0)  -->
<!DOCTYPE svg PUBLIC "-//W3C//DTD SVG 1.1 Tiny//EN" "http://www.w3.org/Graphics/SVG/1.1/DTD/svg11-tiny.dtd">
<svg version="1.1" baseProfile="tiny" id="Laag_1" xmlns="http://www.w3.org/2000/svg" xmlns:xlink="http://www.w3.org/1999/xlink"
	 x="0px" y="0px" width="128px" height="128px" viewBox="20.594 20.594 128 128" overflow="inherit" xml:space="preserve">
<g>
	<rect x="59.929" y="81.982" width="9.846" height="4.923"/>
	<rect x="40.236" y="81.982" width="9.847" height="4.923"/>
	<rect x="20.544" y="81.982" width="9.846" height="4.923"/>
	<rect x="119.005" y="81.982" width="9.847" height="4.923"/>
	<rect x="99.314" y="81.982" width="9.847" height="4.923"/>
	<rect x="138.698" y="81.982" width="9.847" height="4.923"/>
	<rect x="82.251" y="59.979" width="4.922" height="9.846"/>
	<rect x="82.251" y="20.594" width="4.922" height="9.846"/>
	<rect x="82.251" y="99.364" width="4.922" height="9.847"/>
	<rect x="82.251" y="40.286" width="4.922" height="9.847"/>
	<rect x="82.251" y="119.055" width="4.922" height="9.847"/>
	<polygon points="87.173,79.671 82.251,79.671 82.251,81.982 79.621,81.982 79.621,86.906 82.251,86.906 82.251,89.518 
		87.173,89.518 87.173,86.906 89.467,86.906 89.467,81.982 87.173,81.982 	"/>
	<rect x="82.251" y="138.747" width="4.922" height="9.847"/>
</g>
<rect x="93.859" y="44.677" width="30.604" height="30.603"/>
</svg>
