<?xml version="1.0" encoding="utf-8"?>
<!-- Generator: Adobe Illustrator 15.0.0, SVG Export Plug-In . SVG Version: 6.00 Build 0)  -->
<!DOCTYPE svg PUBLIC "-//W3C//DTD SVG 1.1//EN" "http://www.w3.org/Graphics/SVG/1.1/DTD/svg11.dtd">
<svg version="1.1" id="Laag_1" xmlns="http://www.w3.org/2000/svg" xmlns:xlink="http://www.w3.org/1999/xlink" x="0px" y="0px"
	 width="128px" height="128px" viewBox="0 0 128 128" enable-background="new 0 0 128 128" xml:space="preserve">
<g>
	<rect x="39.385" y="61.389" width="9.846" height="4.922"/>
	<rect x="19.692" y="61.389" width="9.847" height="4.922"/>
	<rect y="61.389" width="9.846" height="4.922"/>
	<rect x="98.461" y="61.389" width="9.847" height="4.922"/>
	<rect x="78.771" y="61.389" width="9.847" height="4.922"/>
	<rect x="118.154" y="61.389" width="9.847" height="4.922"/>
	<rect x="61.707" y="39.385" width="4.922" height="9.846"/>
	<rect x="61.707" width="4.922" height="9.846"/>
	<rect x="61.707" y="78.771" width="4.922" height="9.847"/>
	<rect x="61.707" y="19.692" width="4.922" height="9.847"/>
	<rect x="61.707" y="98.461" width="4.922" height="9.848"/>
	<polygon points="66.629,59.077 61.707,59.077 61.707,61.389 59.077,61.389 59.077,66.312 61.707,66.312 61.707,68.924 
		66.629,68.924 66.629,66.312 68.923,66.312 68.923,61.389 66.629,61.389 	"/>
	<rect x="61.707" y="118.153" width="4.922" height="9.847"/>
</g>
<rect x="73.315" y="24.083" width="30.604" height="30.603"/>
</svg>
