<?xml version="1.0" encoding="utf-8"?>
<!-- Generator: Adobe Illustrator 15.0.2, SVG Export Plug-In . SVG Version: 6.00 Build 0)  -->
<!DOCTYPE svg PUBLIC "-//W3C//DTD SVG 1.1//EN" "http://www.w3.org/Graphics/SVG/1.1/DTD/svg11.dtd">
<svg version="1.1" id="Laag_1" xmlns="http://www.w3.org/2000/svg" xmlns:xlink="http://www.w3.org/1999/xlink" x="0px" y="0px"
	 width="128px" height="128px" viewBox="0 0 128 128" enable-background="new 0 0 128 128" xml:space="preserve">
<g>
	<path fill="none" d="M66.415,52.147L80.93,36.136L49.936,11.299l9.989,39.003c0.289-0.027,0.582-0.044,0.878-0.044
		C62.912,50.258,64.852,50.967,66.415,52.147z"/>
	<path fill="none" d="M57.023,51.066l-9.561-37.33L32.532,55.603l19.223,1.748C52.452,54.537,54.423,52.225,57.023,51.066z"/>
	<path fill="none" d="M56.304,67.769l-42.094,46.437l52.517-25.25l-5.138-20.064c-0.26,0.022-0.521,0.04-0.786,0.04
		C59.172,68.931,57.639,68.508,56.304,67.769z"/>
	<path fill="none" d="M31.491,58.521l-18.904,53.007l41.358-45.623c-1.372-1.492-2.266-3.425-2.437-5.564L31.491,58.521z"/>
	<path fill="none" d="M64.499,68.164l4.985,19.466l44.874-21.575l-44.543-4.05C69.071,64.774,67.093,67.042,64.499,68.164z"/>
	<path fill="none" d="M114.527,63.058L83.275,38.015L68.5,54.314c0.933,1.354,1.508,2.967,1.614,4.705L114.527,63.058z"/>
	<path d="M45.867,0.35L0.545,127.434l127.446-61.276L45.867,0.35z M114.527,63.058L70.114,59.02
		c-0.106-1.738-0.682-3.351-1.614-4.705l14.775-16.3L114.527,63.058z M80.93,36.136L66.415,52.147
		c-1.563-1.18-3.503-1.889-5.612-1.889c-0.296,0-0.589,0.017-0.878,0.044l-9.989-39.003L80.93,36.136z M63.192,63.061
		c-0.68,0.469-1.502,0.747-2.389,0.747c-0.182,0-0.354-0.031-0.53-0.054c-0.1-0.013-0.204-0.011-0.301-0.031
		c-1.045-0.211-1.943-0.817-2.555-1.649c-0.275-0.375-0.481-0.798-0.622-1.252c-0.121-0.393-0.205-0.801-0.205-1.233
		c0-0.631,0.149-1.224,0.399-1.762c0.304-0.654,0.769-1.216,1.346-1.637c0.696-0.508,1.544-0.816,2.467-0.816
		c0.148,0,0.288,0.029,0.432,0.044c0.62,0.064,1.198,0.256,1.709,0.56c0.896,0.532,1.569,1.381,1.879,2.395
		c0.018,0.058,0.039,0.113,0.054,0.172c0.087,0.336,0.148,0.682,0.148,1.045c0,0.702-0.188,1.354-0.493,1.936
		C64.211,62.138,63.758,62.67,63.192,63.061z M47.463,13.736l9.561,37.33c-2.601,1.159-4.571,3.471-5.269,6.285l-19.223-1.748
		L47.463,13.736z M31.491,58.521l20.018,1.82c0.17,2.139,1.064,4.072,2.437,5.564l-41.358,45.623L31.491,58.521z M14.209,114.205
		l42.094-46.437c1.335,0.739,2.868,1.162,4.499,1.162c0.265,0,0.526-0.018,0.786-0.04l5.138,20.064L14.209,114.205z M69.484,87.63
		l-4.985-19.466c2.594-1.122,4.572-3.39,5.316-6.159l44.543,4.05L69.484,87.63z"/>
</g>
</svg>
