<?xml version="1.0" encoding="utf-8"?>
<!-- Generator: Adobe Illustrator 15.0.0, SVG Export Plug-In . SVG Version: 6.00 Build 0)  -->
<!DOCTYPE svg PUBLIC "-//W3C//DTD SVG 1.1//EN" "http://www.w3.org/Graphics/SVG/1.1/DTD/svg11.dtd">
<svg version="1.1" id="Laag_1" xmlns="http://www.w3.org/2000/svg" xmlns:xlink="http://www.w3.org/1999/xlink" x="0px" y="0px"
	 width="128px" height="128px" viewBox="0 0 128 128" enable-background="new 0 0 128 128" xml:space="preserve">
<path d="M120.364,28.944c16.845,14.48,2.433,24.865-6.797,27.547c-11.665,3.392-17.369,8.444-16.458,12.522
	c1.032,4.608,10.486,2.436,16.458,1.072c4.46-1.02,22.051,1.419,6.438,16.814c-18.914,18.654-57.233,20.748-76.203,16.1
	C26.273,98.708-3.422,82.25,0.156,51.483C3.734,20.715,40.565,10.15,64.196,10.34C82.104,10.485,104.246,15.087,120.364,28.944z
	 M92.328,36.643c-6.232,0-11.285,3.061-11.285,6.834c0,3.775,5.053,6.835,11.285,6.835c6.233,0,11.285-3.061,11.285-6.835
	C103.614,39.703,98.562,36.643,92.328,36.643z"/>
</svg>
