<?xml version="1.0" encoding="utf-8"?>
<!-- Generator: Adobe Illustrator 15.0.0, SVG Export Plug-In . SVG Version: 6.00 Build 0)  -->
<!DOCTYPE svg PUBLIC "-//W3C//DTD SVG 1.1 Tiny//EN" "http://www.w3.org/Graphics/SVG/1.1/DTD/svg11-tiny.dtd">
<svg version="1.1" baseProfile="tiny" id="Laag_1" xmlns="http://www.w3.org/2000/svg" xmlns:xlink="http://www.w3.org/1999/xlink"
	 x="0px" y="0px" width="128px" height="128px" viewBox="26.139 2.721 128 128" overflow="inherit" xml:space="preserve">
<path d="M146.505,37.944c16.844,14.48,2.432,24.865-6.797,27.547c-11.665,3.392-17.369,8.444-16.458,12.522
	c1.032,4.609,10.487,2.436,16.458,1.073c4.46-1.019,22.051,1.419,6.439,16.814C127.233,114.554,88.913,116.648,69.944,112
	c-17.53-4.292-47.225-20.75-43.647-51.517c3.578-30.768,40.409-41.333,64.04-41.143C108.244,19.485,130.386,24.087,146.505,37.944z
	 M118.469,45.643c-6.233,0-11.285,3.061-11.285,6.834c0,3.775,5.053,6.835,11.285,6.835c6.233,0,11.285-3.061,11.285-6.835
	C129.755,48.703,124.703,45.643,118.469,45.643z"/>
</svg>
