<?xml version="1.0" encoding="utf-8"?>
<!-- Generator: Adobe Illustrator 15.0.0, SVG Export Plug-In . SVG Version: 6.00 Build 0)  -->
<!DOCTYPE svg PUBLIC "-//W3C//DTD SVG 1.1 Tiny//EN" "http://www.w3.org/Graphics/SVG/1.1/DTD/svg11-tiny.dtd">
<svg version="1.1" baseProfile="tiny" id="Laag_1" xmlns="http://www.w3.org/2000/svg" xmlns:xlink="http://www.w3.org/1999/xlink"
	 x="0px" y="0px" width="128px" height="128px" viewBox="-1.96 -18.997 128 128" overflow="inherit" xml:space="preserve">
<path fill="#010101" d="M116.232,1.878c-3.195,0-6.033,1.537-7.833,3.903c-5.467-1.113-11.55-1.63-17.408-1.48
	c-1.559-3.389-4.978-5.753-8.945-5.753c-5.125,0-9.343,3.937-9.802,8.944c-1.06,0.374-2.102,0.767-3.091,1.202
	c-4.356,1.913-8.676,4.62-11.401,6.831c-0.53-0.089-1.07-0.146-1.625-0.146c-5.43,0-9.848,4.417-9.848,9.847
	c0,4.389,2.887,8.113,6.861,9.381c1.15,2.861,3.004,6.297,4.511,8.967c1.226,2.171,2.47,4.402,3.466,6.604
	c-2.57,1.777-4.261,4.742-4.261,8.098c0,3.004,1.355,5.694,3.482,7.501c-2.74,3.826-5.946,6.755-9.562,8.716
	c-1.769-1.688-4.157-2.731-6.79-2.731c-3.861,0-7.2,2.238-8.812,5.48c-5.967-0.715-12.244-3.225-17.9-7.16
	c0.271-0.898,0.42-1.849,0.42-2.834c0-5.429-4.418-9.846-9.848-9.846S-2,61.819-2,67.248c0,5.431,4.418,9.848,9.848,9.848
	c1.379,0,2.692-0.287,3.885-0.801c7.29,5.275,15.308,8.464,23.235,9.251c1.522,3.475,4.99,5.911,9.021,5.911
	c5.227,0,9.503-4.096,9.817-9.246c5.32-2.673,9.942-6.789,13.731-12.289c0.458-0.665,0.871-1.344,1.248-2.021
	c4.434-0.957,7.769-4.907,7.769-9.624c0-4.4-2.904-8.137-6.896-9.394c-1.427-3.069-3.562-7.153-4.814-9.369
	c-1.208-2.139-2.35-4.179-3.224-6.118c2.626-1.771,4.356-4.772,4.356-8.17c0-1.706-0.438-3.311-1.204-4.711
	c1.967-1.443,4.545-2.873,7.703-4.26c0.808-0.354,1.662-0.677,2.535-0.984c1.789,1.832,4.28,2.972,7.036,2.972
	c3.939,0,7.336-2.331,8.91-5.68c5.279-0.155,10.754,0.292,15.664,1.282c0.973,4.414,4.911,7.728,9.612,7.728
	c5.43,0,9.847-4.417,9.847-9.847C126.079,6.296,121.662,1.878,116.232,1.878z M7.848,70.902c-2.015,0-3.654-1.639-3.654-3.654
	c0-2.014,1.639-3.652,3.654-3.652s3.654,1.639,3.654,3.652C11.502,69.264,9.863,70.902,7.848,70.902z M43.988,85.264
	c-2.014,0-3.653-1.64-3.653-3.654c0-2.016,1.639-3.654,3.653-3.654c2.015,0,3.654,1.639,3.654,3.654
	C47.642,83.624,46.003,85.264,43.988,85.264z M56.127,21.572c2.015,0,3.654,1.639,3.654,3.654c0,2.015-1.639,3.654-3.654,3.654
	s-3.654-1.639-3.654-3.654C52.473,23.211,54.112,21.572,56.127,21.572z M66.705,61.932c-2.015,0-3.654-1.64-3.654-3.655
	c0-2.014,1.64-3.652,3.654-3.652c2.016,0,3.654,1.639,3.654,3.652C70.359,60.292,68.72,61.932,66.705,61.932z M82.045,12.05
	c-2.015,0-3.653-1.639-3.653-3.654s1.639-3.654,3.653-3.654s3.655,1.639,3.655,3.654S84.06,12.05,82.045,12.05z M116.232,15.38
	c-2.015,0-3.655-1.639-3.655-3.654s1.641-3.654,3.655-3.654s3.653,1.639,3.653,3.654S118.247,15.38,116.232,15.38z"/>
</svg>
