<?xml version="1.0" encoding="utf-8"?>
<!-- Generator: Adobe Illustrator 15.0.0, SVG Export Plug-In . SVG Version: 6.00 Build 0)  -->
<!DOCTYPE svg PUBLIC "-//W3C//DTD SVG 1.1//EN" "http://www.w3.org/Graphics/SVG/1.1/DTD/svg11.dtd">
<svg version="1.1" id="Laag_1" xmlns="http://www.w3.org/2000/svg" xmlns:xlink="http://www.w3.org/1999/xlink" x="0px" y="0px"
	 width="128px" height="128px" viewBox="0 0 128 128" enable-background="new 0 0 128 128" xml:space="preserve">
<path fill="#010101" d="M118.193,19.878c-3.195,0-6.033,1.537-7.834,3.903c-5.467-1.113-11.549-1.63-17.408-1.48
	c-1.559-3.389-4.977-5.753-8.945-5.753c-5.125,0-9.342,3.937-9.801,8.944c-1.061,0.374-2.102,0.767-3.092,1.202
	c-4.355,1.913-8.676,4.62-11.401,6.831c-0.53-0.089-1.07-0.146-1.625-0.146c-5.43,0-9.848,4.417-9.848,9.847
	c0,4.389,2.887,8.113,6.861,9.381c1.15,2.861,3.004,6.297,4.511,8.967c1.226,2.171,2.47,4.402,3.466,6.604
	c-2.57,1.777-4.261,4.742-4.261,8.098c0,3.004,1.355,5.695,3.482,7.502c-2.74,3.826-5.946,6.755-9.562,8.716
	c-1.769-1.688-4.157-2.731-6.79-2.731c-3.861,0-7.2,2.238-8.812,5.48c-5.967-0.715-12.244-3.225-17.9-7.16
	c0.271-0.898,0.42-1.85,0.42-2.834c0-5.43-4.418-9.846-9.848-9.846c-5.43,0-9.846,4.416-9.846,9.846
	c0,5.432,4.418,9.848,9.848,9.848c1.379,0,2.692-0.287,3.885-0.801c7.29,5.275,15.308,8.464,23.235,9.251
	c1.522,3.476,4.99,5.911,9.021,5.911c5.227,0,9.503-4.096,9.817-9.246c5.32-2.673,9.942-6.789,13.731-12.289
	c0.457-0.665,0.871-1.344,1.248-2.021c4.434-0.957,7.77-4.906,7.77-9.623c0-4.4-2.904-8.137-6.896-9.395
	c-1.428-3.069-3.562-7.153-4.814-9.369c-1.208-2.139-2.35-4.179-3.224-6.118c2.626-1.771,4.357-4.772,4.357-8.17
	c0-1.706-0.439-3.311-1.205-4.711c1.967-1.443,4.545-2.873,7.703-4.26c0.809-0.354,1.662-0.677,2.535-0.984
	c1.789,1.832,4.279,2.972,7.035,2.972c3.939,0,7.336-2.331,8.91-5.68c5.279-0.155,10.754,0.292,15.664,1.282
	c0.973,4.414,4.912,7.728,9.613,7.728c5.43,0,9.846-4.417,9.846-9.847S123.623,19.878,118.193,19.878z M9.809,88.902
	c-2.015,0-3.654-1.639-3.654-3.654c0-2.014,1.639-3.652,3.654-3.652c2.015,0,3.654,1.639,3.654,3.652
	C13.462,87.264,11.823,88.902,9.809,88.902z M45.948,103.264c-2.014,0-3.653-1.64-3.653-3.654c0-2.016,1.639-3.653,3.653-3.653
	c2.015,0,3.654,1.64,3.654,3.653C49.603,101.624,47.963,103.264,45.948,103.264z M58.087,39.572c2.015,0,3.654,1.639,3.654,3.654
	s-1.639,3.654-3.654,3.654s-3.654-1.639-3.654-3.654S56.072,39.572,58.087,39.572z M68.666,79.932c-2.016,0-3.654-1.64-3.654-3.654
	c0-2.014,1.641-3.652,3.654-3.652c2.016,0,3.654,1.639,3.654,3.652C72.32,78.292,70.682,79.932,68.666,79.932z M84.006,30.05
	c-2.016,0-3.652-1.639-3.652-3.654s1.639-3.654,3.652-3.654s3.654,1.639,3.654,3.654S86.021,30.05,84.006,30.05z M118.193,33.38
	c-2.016,0-3.656-1.639-3.656-3.654s1.641-3.654,3.656-3.654c2.014,0,3.652,1.639,3.652,3.654S120.207,33.38,118.193,33.38z"/>
</svg>
