<?xml version="1.0" encoding="utf-8"?>
<!-- Generator: Adobe Illustrator 15.0.2, SVG Export Plug-In . SVG Version: 6.00 Build 0)  -->
<!DOCTYPE svg PUBLIC "-//W3C//DTD SVG 1.1//EN" "http://www.w3.org/Graphics/SVG/1.1/DTD/svg11.dtd">
<svg version="1.1" id="Laag_1" xmlns="http://www.w3.org/2000/svg" xmlns:xlink="http://www.w3.org/1999/xlink" x="0px" y="0px"
	 width="128px" height="128px" viewBox="0 0 128 128" enable-background="new 0 0 128 128" xml:space="preserve">
<path d="M7.522,59.746C6.401,55.964,5.79,51.965,5.79,47.824C5.79,24.646,24.646,5.79,47.824,5.79c4.141,0,8.14,0.611,11.922,1.732
	C53.497,2.804,45.725,0,37.31,0C16.737,0,0,16.737,0,37.31C0,45.726,2.804,53.497,7.522,59.746z"/>
<path d="M20.614,72.838c-1.121-3.782-1.733-7.781-1.733-11.922c0-23.178,18.857-42.035,42.035-42.035
	c4.141,0,8.14,0.612,11.922,1.733c-6.249-4.719-14.021-7.522-22.436-7.522c-20.573,0-37.31,16.737-37.31,37.31
	C13.092,58.817,15.896,66.589,20.614,72.838z"/>
<path d="M33.706,85.93c-1.121-3.782-1.732-7.78-1.732-11.922c0-23.178,18.856-42.034,42.034-42.034c4.142,0,8.14,0.611,11.922,1.732
	c-6.248-4.718-14.021-7.522-22.436-7.522c-20.573,0-37.31,16.737-37.31,37.31C26.184,71.909,28.988,79.682,33.706,85.93z"/>
<path d="M46.798,99.021c-1.121-3.781-1.732-7.779-1.732-11.921c0-23.178,18.857-42.035,42.035-42.035
	c4.142,0,8.14,0.611,11.921,1.732c-6.248-4.718-14.021-7.522-22.437-7.522c-20.572,0-37.309,16.737-37.309,37.309
	C39.276,85.001,42.08,92.773,46.798,99.021z"/>
<circle fill="#1D1D1B" cx="89.969" cy="90.166" r="37.603"/>
</svg>
