<?xml version="1.0" encoding="utf-8"?>
<!-- Generator: Adobe Illustrator 15.0.2, SVG Export Plug-In . SVG Version: 6.00 Build 0)  -->
<!DOCTYPE svg PUBLIC "-//W3C//DTD SVG 1.1//EN" "http://www.w3.org/Graphics/SVG/1.1/DTD/svg11.dtd">
<svg version="1.1" id="Laag_1" xmlns="http://www.w3.org/2000/svg" xmlns:xlink="http://www.w3.org/1999/xlink" x="0px" y="0px"
	 width="128px" height="128px" viewBox="0 0 128 128" enable-background="new 0 0 128 128" xml:space="preserve">
<g>
	<path d="M38.827,104.642l-5.027,4.486c2.853,3.196,6.088,6.045,9.618,8.467l3.813-5.555
		C44.147,109.923,41.319,107.434,38.827,104.642z"/>
	<path d="M54.578,23.988c-3.996,1.52-7.81,3.529-11.336,5.97l3.836,5.54c3.079-2.132,6.409-3.885,9.896-5.212L54.578,23.988z"/>
	<path d="M119.936,73.62l6.738-0.014c-0.009-4.302-0.533-8.58-1.558-12.717l-6.541,1.62C119.47,66.121,119.928,69.859,119.936,73.62
		z"/>
	<path d="M21.882,86.648c1.038,4.154,2.584,8.182,4.594,11.969l5.952-3.158c-1.754-3.306-3.103-6.819-4.009-10.445L21.882,86.648z"
		/>
	<path d="M33.66,38.461c-2.845,3.211-5.295,6.758-7.285,10.544l5.965,3.135c1.737-3.306,3.878-6.405,6.364-9.211L33.66,38.461z"/>
	<path d="M54.786,123.523c4.01,1.505,8.203,2.521,12.463,3.019l0.783-6.693c-3.719-0.435-7.379-1.32-10.879-2.634L54.786,123.523z"
		/>
	<path d="M92.289,23.948l-2.383,6.303c3.493,1.32,6.828,3.068,9.914,5.196l3.824-5.548C100.111,27.462,96.291,25.46,92.289,23.948z"
		/>
	<path d="M99.972,111.88l3.848,5.531c3.514-2.443,6.732-5.312,9.564-8.522l-5.053-4.457
		C105.855,107.237,103.043,109.743,99.972,111.88z"/>
	<path d="M113.244,38.385l-5.035,4.478c2.49,2.801,4.637,5.895,6.38,9.195l5.959-3.146C118.552,45.131,116.095,41.59,113.244,38.385
		z"/>
	<path d="M79.232,119.814l0.824,6.688c4.259-0.525,8.443-1.567,12.438-3.097l-2.408-6.293
		C86.601,118.446,82.948,119.355,79.232,119.814z"/>
	<path d="M114.677,95.208l5.971,3.123c1.987-3.8,3.509-7.838,4.521-12.002l-6.547-1.593
		C117.738,88.369,116.411,91.893,114.677,95.208z"/>
	<path d="M79.83,20.902c-0.908-0.108-1.826-0.181-2.745-0.242V0H0v77.085h23.667h6v-6.738H27.17
		c0.188-2.618,0.582-5.213,1.203-7.744l-6.544-1.607c-0.75,3.056-1.224,6.19-1.422,9.351H6.738V6.738h63.608v13.887
		c-1.114,0.064-2.224,0.159-3.322,0.292l0.811,6.689c0.83-0.101,1.67-0.171,2.512-0.227v2.524h6.738l-0.005-2.482
		c0.654,0.05,1.309,0.095,1.955,0.172L79.83,20.902z"/>
	<rect x="42.35" y="70.347" width="12.683" height="6.738"/>
	<polygon points="70.347,70.347 67.716,70.347 67.716,77.085 77.085,77.085 77.085,67.716 70.347,67.716 	"/>
	<rect x="70.347" y="42.508" width="6.738" height="12.604"/>
</g>
</svg>
