<?xml version="1.0" encoding="utf-8"?>
<!-- Generator: Adobe Illustrator 15.0.0, SVG Export Plug-In . SVG Version: 6.00 Build 0)  -->
<!DOCTYPE svg PUBLIC "-//W3C//DTD SVG 1.1//EN" "http://www.w3.org/Graphics/SVG/1.1/DTD/svg11.dtd">
<svg version="1.1" id="Laag_1" xmlns="http://www.w3.org/2000/svg" xmlns:xlink="http://www.w3.org/1999/xlink" x="0px" y="0px"
	 width="128px" height="128px" viewBox="0 0 128 128" enable-background="new 0 0 128 128" xml:space="preserve">
<path d="M120.264,6.92H75.055c-0.173,0-0.339,0.029-0.506,0.051c-1.48-3.971-5.3-6.812-9.781-6.812c-4.464,0-8.271,2.82-9.765,6.768
	c-0.02-0.001-0.039-0.007-0.059-0.007H9.736c-2.035,0-3.685,1.65-3.685,3.685c0,2.036,1.65,3.685,3.685,3.685h45.209
	c0.02,0,0.04-0.005,0.06-0.006c1.493,3.947,5.3,6.766,9.765,6.766c4.479,0,8.301-2.84,9.779-6.812
	c0.168,0.023,0.334,0.051,0.508,0.051h45.209c2.035,0,3.685-1.649,3.685-3.685C123.949,8.569,122.3,6.92,120.264,6.92z
	 M64.768,16.137c-3.051,0-5.533-2.482-5.533-5.534c0-3.05,2.482-5.532,5.533-5.532c3.053,0,5.534,2.482,5.534,5.532
	C70.302,13.655,67.82,16.137,64.768,16.137z"/>
<path d="M120.264,33.617H75.055c-0.173,0-0.339,0.029-0.506,0.051c-1.48-3.971-5.3-6.813-9.781-6.813
	c-4.464,0-8.271,2.82-9.765,6.769c-0.02-0.001-0.039-0.007-0.059-0.007H9.736c-2.035,0-3.685,1.65-3.685,3.685
	c0,2.036,1.65,3.685,3.685,3.685h45.209c0.02,0,0.04-0.005,0.06-0.006c1.493,3.947,5.3,6.767,9.765,6.767
	c4.479,0,8.301-2.841,9.779-6.812c0.168,0.023,0.334,0.051,0.508,0.051h45.209c2.035,0,3.685-1.649,3.685-3.685
	C123.949,35.268,122.3,33.617,120.264,33.617z M64.768,42.834c-3.051,0-5.533-2.483-5.533-5.534c0-3.051,2.482-5.532,5.533-5.532
	c3.053,0,5.534,2.481,5.534,5.532C70.302,40.352,67.82,42.834,64.768,42.834z"/>
<path d="M120.264,60.314H75.055c-0.173,0-0.339,0.028-0.506,0.052c-1.48-3.972-5.3-6.812-9.781-6.812
	c-4.464,0-8.271,2.818-9.765,6.768c-0.02,0-0.039-0.006-0.059-0.006H9.736c-2.035,0-3.685,1.65-3.685,3.686
	c0,2.033,1.65,3.685,3.685,3.685h45.209c0.02,0,0.04-0.005,0.06-0.007c1.493,3.947,5.302,6.768,9.765,6.768
	c4.479,0,8.301-2.841,9.779-6.812c0.168,0.022,0.334,0.052,0.508,0.052h45.209c2.035,0,3.685-1.65,3.685-3.685
	C123.949,61.964,122.3,60.314,120.264,60.314z M64.768,69.531c-3.051,0-5.533-2.483-5.533-5.532c0-3.052,2.482-5.535,5.533-5.535
	c3.053,0,5.534,2.483,5.534,5.535C70.302,67.048,67.82,69.531,64.768,69.531z"/>
<path d="M120.264,87.011H75.055c-0.173,0-0.339,0.027-0.507,0.052c-1.479-3.972-5.3-6.812-9.78-6.812
	c-4.464,0-8.271,2.819-9.764,6.768c-0.02,0-0.04-0.006-0.06-0.006H9.736c-2.035,0-3.685,1.648-3.685,3.685
	c0,2.034,1.65,3.685,3.685,3.685h45.209c0.02,0,0.04-0.006,0.06-0.006c1.493,3.947,5.3,6.768,9.765,6.768
	c4.479,0,8.301-2.842,9.779-6.812c0.168,0.023,0.334,0.053,0.508,0.053h45.209c2.035,0,3.685-1.65,3.685-3.686
	C123.949,88.661,122.3,87.011,120.264,87.011z M64.768,96.23c-3.051,0-5.533-2.483-5.533-5.534s2.482-5.533,5.533-5.533
	c3.053,0,5.534,2.482,5.534,5.533S67.82,96.23,64.768,96.23z"/>
<path d="M120.264,113.708H75.055c-0.173,0-0.339,0.028-0.507,0.053c-1.479-3.973-5.3-6.812-9.78-6.812
	c-4.464,0-8.271,2.818-9.764,6.768c-0.02,0-0.04-0.006-0.06-0.006H9.736c-2.035,0-3.685,1.649-3.685,3.685
	c0,2.034,1.65,3.685,3.685,3.685h45.209c0.02,0,0.04-0.006,0.06-0.007c1.493,3.948,5.3,6.769,9.765,6.769
	c4.479,0,8.301-2.842,9.779-6.812c0.168,0.022,0.334,0.052,0.508,0.052h45.209c2.035,0,3.685-1.65,3.685-3.686
	C123.949,115.358,122.3,113.708,120.264,113.708z M64.768,122.925c-3.051,0-5.533-2.48-5.533-5.532s2.482-5.532,5.533-5.532
	c3.053,0,5.534,2.48,5.534,5.532S67.82,122.925,64.768,122.925z"/>
</svg>
