<?xml version="1.0" encoding="utf-8"?>
<!-- Generator: Adobe Illustrator 15.0.0, SVG Export Plug-In . SVG Version: 6.00 Build 0)  -->
<!DOCTYPE svg PUBLIC "-//W3C//DTD SVG 1.1//EN" "http://www.w3.org/Graphics/SVG/1.1/DTD/svg11.dtd">
<svg version="1.1" id="Laag_1" xmlns="http://www.w3.org/2000/svg" xmlns:xlink="http://www.w3.org/1999/xlink" x="0px" y="0px"
	 width="128px" height="128px" viewBox="0 0 128 128" enable-background="new 0 0 128 128" xml:space="preserve">
<polygon points="91.409,63.096 127.837,93.363 114.472,97.154 126.938,115.74 121.19,119.191 110.638,99.457 101.013,109.474 "/>
<path d="M83.222,52.562c-2.144-2.235-4.287-4.472-6.428-6.708c-4.5-4.697-9-9.393-13.498-14.089
	c-3.964-4.138-7.929-8.274-11.893-12.413c-0.879-0.917-1.756-1.833-2.633-2.749c-0.043-0.045-0.088-0.09-0.131-0.136
	c-0.015-0.016,0.293-0.715,0.317-0.791c0.103-0.333,0.173-0.675,0.209-1.022c0.065-0.644,0.013-1.3-0.157-1.925
	c-0.604-2.236-2.666-3.856-4.98-3.918c-2.321-0.062-4.469,1.447-5.19,3.655c-0.729,2.226,0.129,4.729,2.063,6.044
	c0.981,0.668,2.178,0.988,3.361,0.903c0.368-0.026,0.734-0.092,1.088-0.195c0.064-0.019,0.664-0.262,0.68-0.246
	c0.021,0.022,0.042,0.045,0.062,0.067c0.355,0.371,0.711,0.741,1.065,1.111c4,4.177,8.001,8.353,12.003,12.529
	c3.311,3.455,6.621,6.91,9.929,10.364c0.048,0.048,0.093,0.096,0.14,0.144c-4.94-2.502-10.236-4.124-15.769-4.54
	c-5.628-0.424-11.34,0.035-16.845,1.268c-5.926,1.328-11.672,3.563-16.872,6.707c-2.572,1.553-5.011,3.332-7.244,5.343
	c-0.162,0.146-0.485,0.598-0.708,0.598c-0.129,0-0.258,0-0.388,0c-0.525,0-1.05,0-1.573,0c-2.988,0-5.976,0-8.963,0
	c-0.094,0-0.612-0.071-0.682,0c-0.051,0.052,0,0.405,0,0.474c0,1.062,0,2.125,0,3.188c0,3.262,0,6.525,0,9.787
	c0,1.143,0,2.283,0,3.427c0,0.218,0,0.433,0,0.65c0,0.044,0.736,0.021,0.892,0.021c4.938,0,9.877,0,14.815,0c0.529,0,1.06,0,1.59,0
	c0.082,0,0.164,0,0.248,0c0.002,0,0-0.684,0-0.728c0-0.83,0-1.659,0-2.49c0-2.978,0-5.956,0-8.935c0-0.277,0-0.556,0-0.834
	c0-0.092,0.451-0.395,0.529-0.461c0.27-0.228,0.543-0.451,0.816-0.672c0.605-0.484,1.227-0.951,1.859-1.4
	c2.494-1.77,5.184-3.258,7.982-4.484c5.682-2.49,11.844-3.933,18.04-4.22c3.963-0.185,7.899,0.187,11.738,1.209
	c4.729,1.261,9.19,3.403,13.293,6.052c2.753,1.775,5.354,3.779,7.821,5.934c0-1.615,0-3.229,0-4.846c0.115,4.906,0,9.833,0,14.742
	c0,0.346,0,0.691,0,1.038c0,0.158,0.129,0.094,0.274,0.094c1.175,0,2.349,0,3.522,0c2.386,0,4.771,0,7.158,0
	c-0.258-1.243-0.516-2.487-0.772-3.731c-0.086-0.413-0.028-0.403-0.442-0.403c-0.687,0-1.373,0-2.062,0
	c-0.237,0-3.543,0.004-3.543-0.003c0-1.273,0-2.551,0-3.825c0-0.948,0-1.897,0-2.845c0-0.764,0-1.526,0-2.289
	c0-0.434,0.097-0.314,0.526-0.314c2.5,0,5,0,7.5,0c0.073,0,1.248-0.002,1.248,0.002c0,0.383,0,0.766,0,1.148
	c0,1.386,0,2.773,0.002,4.159c0,0.3-0.041,0.342,0.182,0.526c0.46,0.381,0.92,0.765,1.38,1.146c0.856,0.713,1.715,1.426,2.573,2.138
	c0-1.297,0.049-13.256-0.049-13.256C92.616,52.562,87.916,52.562,83.222,52.562L83.222,52.562z M13.597,61.453
	c0,1.285,0,2.567,0,3.853c0,0.207,0,0.413,0,0.62c0,0.104-0.259,0.047-0.34,0.047c-0.755,0-1.511,0-2.265,0c-2.222,0-4.44,0-6.662,0
	c-0.018,0-0.01-6.379-0.01-6.822c0-0.695,0-1.39,0-2.084c0-0.449,0.005-0.369,0.466-0.369c1.128,0,2.257,0,3.385,0
	c1.805,0,3.61,0,5.416,0C13.606,56.697,13.597,60.996,13.597,61.453L13.597,61.453z"/>
</svg>
