<?xml version="1.0" encoding="utf-8"?>
<!-- Generator: Adobe Illustrator 15.0.2, SVG Export Plug-In . SVG Version: 6.00 Build 0)  -->
<!DOCTYPE svg PUBLIC "-//W3C//DTD SVG 1.1//EN" "http://www.w3.org/Graphics/SVG/1.1/DTD/svg11.dtd">
<svg version="1.1" id="Laag_1" xmlns="http://www.w3.org/2000/svg" xmlns:xlink="http://www.w3.org/1999/xlink" x="0px" y="0px"
	 width="128px" height="128px" viewBox="0 0 128 128" enable-background="new 0 0 128 128" xml:space="preserve">
<polygon points="29.84,61.711 10,51.929 10.023,57.63 0,57.655 0,66.013 10.023,66.038 10,71.739 29.84,61.957 "/>
<polygon points="128,61.711 108.16,51.929 108.184,57.63 98.16,57.655 98.16,66.013 108.184,66.038 108.16,71.739 128,61.957 "/>
<path d="M94.179,93.501H31.512V30.834h62.667V93.501z M74.305,61.834L63.034,83.848h-0.38l-11.27-22.014H38.178v26.333h49.333
	V61.834H74.305z M62.968,67.256l9.782-19.84l-5.701,0.023l-0.025-10.023h-8.357l-0.025,10.023l-5.701-0.023l9.782,19.84H62.968z"/>
</svg>
