<?xml version="1.0" encoding="utf-8"?>
<!-- Generator: Adobe Illustrator 15.0.2, SVG Export Plug-In . SVG Version: 6.00 Build 0)  -->
<!DOCTYPE svg PUBLIC "-//W3C//DTD SVG 1.1//EN" "http://www.w3.org/Graphics/SVG/1.1/DTD/svg11.dtd">
<svg version="1.1" id="Laag_1" xmlns="http://www.w3.org/2000/svg" xmlns:xlink="http://www.w3.org/1999/xlink" x="0px" y="0px"
	 width="128px" height="128px" viewBox="0 0 128 128" enable-background="new 0 0 128 128" xml:space="preserve">
<path d="M0.084-0.416v128h128v-128H0.084z M118.072,60c-0.772-11.749-5.301-22.486-12.407-31.012l12.407-12.35V60z M56.989,63.313
	L28.297,91.872c-6.166-7.783-9.861-17.609-9.861-28.288c0-10.817,3.79-20.762,10.101-28.592L56.989,63.313z M35.631,27.927
	c7.81-6.245,17.7-9.991,28.454-9.991c10.753,0,20.644,3.747,28.454,9.992L64.084,56.25L35.631,27.927z M64.084,70.377l28.757,28.625
	c-7.855,6.392-17.865,10.231-28.757,10.231c-10.893,0-20.902-3.84-28.757-10.23L64.084,70.377z M71.182,63.313l28.451-28.321
	c6.312,7.831,10.101,17.775,10.101,28.592c0,10.678-3.695,20.503-9.861,28.288L71.182,63.313z M98.578,21.915
	c-8.504-7.053-19.196-11.544-30.891-12.317h43.266L98.578,21.915z M60.481,9.598c-11.693,0.773-22.386,5.265-30.891,12.317
	L17.216,9.598H60.481z M22.504,28.987c-7.103,8.521-11.63,19.252-12.407,30.994V16.638L22.504,28.987z M10.098,67.188
	c0.768,11.605,5.197,22.225,12.159,30.698l-12.159,12.103V67.188z M29.3,105.002c8.553,7.195,19.355,11.788,31.187,12.569H16.673
	L29.3,105.002z M67.682,117.571c11.832-0.781,22.635-5.374,31.188-12.569l12.628,12.569H67.682z M105.913,97.885
	c6.965-8.478,11.396-19.104,12.159-30.716v42.819L105.913,97.885z"/>
</svg>
