<?xml version="1.0" encoding="utf-8"?>
<!-- Generator: Adobe Illustrator 15.0.0, SVG Export Plug-In . SVG Version: 6.00 Build 0)  -->
<svg version="1.2" baseProfile="tiny" id="Laag_1" xmlns="http://www.w3.org/2000/svg" xmlns:xlink="http://www.w3.org/1999/xlink"
	 x="0px" y="0px" width="128px" height="128px" viewBox="0.217 0.217 128 128" overflow="inherit" xml:space="preserve">
<path d="M123.584,107.472c-0.352-0.35-0.74-0.66-1.154-0.933c-0.495-0.327-0.521-0.58-0.869-1.039
	c-0.166-0.219-0.365-0.407-0.558-0.601c-0.762-0.763-1.523-1.522-2.286-2.285c-1.322-1.323-2.643-2.651-3.967-3.976
	c-1.343-1.343-2.689-2.682-4.033-4.024c-6.974-6.975-13.947-13.948-20.921-20.923c-3.019-3.02-6.038-6.038-9.056-9.056
	c-1.571-1.571-3.203-3.53-5.07-4.734c-3.543-2.283-7.085-4.567-10.627-6.851c-1.336-0.863-2.674-1.724-4.012-2.586
	c-0.865-0.558-1.872-1.034-2.832-1.401c-0.863-0.329-1.776-0.535-2.703-0.526c-0.461,0.005-2.604,0.681-2.748,0.538
	c-0.998-0.998-1.96-2.057-3.023-2.987c4.317-1.977,8.024-4.954,11.787-7.799c3.971-3.001,7.975-5.892,11.622-9.295
	c2.842-2.652,5.475-5.527,7.823-8.625c2.095-2.763,4.104-5.956,4.493-9.477c0.401-3.661-1.496-7.112-4.816-8.707
	C77.607,0.73,74.04,0.72,70.762,0.999C62.29,1.722,53.969,3.914,46.407,7.836c-8.661,4.491-16.051,10.929-23.765,16.81
	C20.16,26.537,9.929,36.072,7.528,29.523c-1.224-3.336,0.845-7.534,2.413-10.396c1.009-1.841,2.255-3.49,3.414-5.232
	c1.097-1.648,2.042-3.393,3.144-5.039c0.412-0.617,0.834-1.251,1.352-1.786c0.517-0.533,1.154-0.822,1.562-1.483
	c0.999-1.617,0.489-3.807-1.13-4.81c-3.898-2.415-7.298,3.611-8.895,6.235C6.061,12.473,2.01,17.487,0.624,23.898
	c-0.734,3.398-0.58,7.05,1.322,10.057c1.995,3.156,5.322,5.102,9.088,4.803c6.937-0.553,13.144-6.426,18.357-10.493
	c7.756-6.049,15.424-12.483,24.619-16.248c4.35-1.782,8.891-2.946,13.543-3.59c2.95-0.408,6.938-1.276,9.824-0.08
	c4.981,2.066-7.489,14.132-9.25,15.76c-3.704,3.424-7.807,6.296-11.806,9.351c-3.637,2.777-7.327,5.737-11.742,7.169
	c-1.773,0.575-3.6,0.847-4.164,2.931c-0.504,1.861,0.657,3.831,2.523,4.3c1.161,0.292,0.744,0.303,1.341,1.395
	c0.382,0.696,0.891,1.305,1.45,1.864c0.779,0.779,1.558,1.558,2.337,2.337c0.405,0.406-0.3,1.23-0.439,1.751
	c-0.26,0.984-0.25,2.008-0.046,3c0.269,1.302,0.771,2.695,1.463,3.834c0.913,1.505,1.825,3.011,2.737,4.516
	c2.193,3.617,4.387,7.234,6.58,10.852c0.548,0.903,1.481,1.478,2.226,2.221c0.679,0.68,1.358,1.358,2.037,2.038
	c2.67,2.67,5.341,5.341,8.012,8.011c7.355,7.357,14.713,14.714,22.069,22.07c2.837,2.838,5.675,5.674,8.512,8.512
	c1.292,1.292,3.091,2.645,4.184,4.082c4.291,5.642,12.514,2.494,16.492-1.737C125.549,118.715,127.907,111.796,123.584,107.472
	C123.115,107.004,127.356,111.243,123.584,107.472z M54.426,56.89c0.328-0.492,0.784-0.969,1.256-1.322
	c0.572,0.238,1.194,0.532,1.714,0.869c0.795,0.512,1.59,1.024,2.385,1.537c1.786,1.151,3.571,2.303,5.357,3.454
	c-2.086,1.305-3.861,3.081-5.17,5.165c-0.94-1.545-1.879-3.092-2.819-4.638C56.193,60.381,54.892,58.707,54.426,56.89
	C54.524,56.744,54.535,57.316,54.426,56.89z M64.937,72.573c0.393-2.013,1.868-3.808,3.509-4.965c0.914-0.645,3.349-2.035,4.4-0.983
	c0.532,0.532,1.064,1.064,1.598,1.598c2.882,2.882,5.766,5.766,8.649,8.649c6.479,6.479,12.959,12.96,19.438,19.438
	c0.402,0.403,0.805,0.805,1.206,1.206c-3.332,1.555-6.131,4.362-7.681,7.695C85.752,94.908,75.449,84.605,65.146,74.3
	C64.731,73.886,64.838,73.078,64.937,72.573C65.19,71.273,64.784,73.358,64.937,72.573z M116.581,118.043
	c-0.75,0.751-4.657,3.708-5.729,1.93c-1.013-1.682,1.094-4.429,2.161-5.498c0.75-0.751,4.657-3.709,5.73-1.93
	C119.755,114.225,117.65,116.974,116.581,118.043C114.856,119.767,118.966,115.657,116.581,118.043z"/>
</svg>
