<?xml version="1.0" encoding="utf-8"?>
<!-- Generator: Adobe Illustrator 15.0.2, SVG Export Plug-In . SVG Version: 6.00 Build 0)  -->
<!DOCTYPE svg PUBLIC "-//W3C//DTD SVG 1.1//EN" "http://www.w3.org/Graphics/SVG/1.1/DTD/svg11.dtd">
<svg version="1.1" id="Laag_1" xmlns="http://www.w3.org/2000/svg" xmlns:xlink="http://www.w3.org/1999/xlink" x="0px" y="0px"
	 width="128px" height="128px" viewBox="0 0 128 128" enable-background="new 0 0 128 128" xml:space="preserve">
<polygon points="128.089,62.044 101.354,48.86 101.384,56.543 87.876,56.579 87.938,67.075 101.439,67.04 101.479,76.68 "/>
<path d="M81.332,67.168V56.5h-5.065c-0.41-2.725-1.137-5.345-2.129-7.833l4.414-2.548l-5.334-9.239l-4.468,2.58
	c-1.694-2.097-3.621-3.995-5.74-5.662l2.606-4.513l-9.239-5.335l-2.642,4.575c-2.46-0.944-5.049-1.623-7.735-2.002v-5.356H35.333
	v5.454c-2.646,0.424-5.194,1.145-7.614,2.12l-2.767-4.793l-9.238,5.333l2.816,4.878c-2.026,1.648-3.864,3.516-5.487,5.563
	l-4.928-2.844l-5.333,9.238l4.957,2.861c-0.929,2.395-1.613,4.911-2.006,7.522H0v10.667h5.733c0.393,2.61,1.077,5.124,2.005,7.518
	L2.78,77.548l5.333,9.237l4.928-2.846c1.624,2.049,3.462,3.918,5.489,5.566l-2.817,4.88l9.239,5.334l2.768-4.794
	c2.419,0.975,4.967,1.694,7.613,2.119v5.454h10.668v-5.356c2.688-0.379,5.279-1.059,7.741-2.004l2.643,4.577l9.238-5.333
	l-2.608-4.518c2.117-1.667,4.043-3.564,5.736-5.659l4.469,2.58l5.334-9.239l-4.415-2.549c0.992-2.486,1.719-5.106,2.129-7.83H81.332
	z M68.667,61.833C68.667,77.089,56.256,89.5,41,89.5S13.333,77.089,13.333,61.833S25.744,34.166,41,34.166
	S68.667,46.577,68.667,61.833z"/>
<circle cx="41" cy="61.833" r="15"/>
</svg>
