<?xml version="1.0" encoding="utf-8"?>
<!-- Generator: Adobe Illustrator 16.0.1, SVG Export Plug-In . SVG Version: 6.00 Build 0)  -->
<!DOCTYPE svg PUBLIC "-//W3C//DTD SVG 1.1//EN" "http://www.w3.org/Graphics/SVG/1.1/DTD/svg11.dtd">
<svg version="1.1" id="Laag_1" xmlns="http://www.w3.org/2000/svg" xmlns:xlink="http://www.w3.org/1999/xlink" x="0px" y="0px"
	 width="128px" height="128px" viewBox="0 0 128 128" enable-background="new 0 0 128 128" xml:space="preserve">
<path d="M32.557,93.069H20.288V53.654c0.864,1.275,1.859,2.525,3.004,3.718c6.099,6.364,14.879,9.589,26.104,9.589h29.162
	c9.584,0,16.969,2.623,21.947,7.795c6.369,6.614,7.084,15.678,7.151,18.312H95.444c-1.275,0-2.312,1.035-2.312,2.312v30.078
	c0,1.279,1.037,2.314,2.312,2.314h30.08c1.276,0,2.312-1.035,2.312-2.314V95.382c0-1.277-1.033-2.312-2.312-2.312H113.36
	c-0.057-3.288-0.859-14.032-8.702-22.215c-6.097-6.363-14.88-9.591-26.103-9.591h-29.16c-9.584,0-16.97-2.621-21.948-7.792
	c-6.569-6.821-7.124-16.249-7.157-18.543h12.269l0,0c1.276,0,2.312-1.035,2.312-2.314V2.538c0-1.279-1.036-2.314-2.312-2.314H2.48
	c-1.278,0-2.314,1.035-2.314,2.314v30.077c0,1.278,1.035,2.314,2.314,2.314H14.59c0,0.018,0,0.039,0,0.058v58.085H2.48
	c-1.278,0-2.314,1.035-2.314,2.312v30.078c0,1.279,1.035,2.314,2.314,2.314h30.078c1.276,0,2.312-1.035,2.312-2.314V95.384
	C34.871,94.104,33.835,93.069,32.557,93.069z"/>
</svg>
