<?xml version="1.0" encoding="utf-8"?>
<!-- Generator: Adobe Illustrator 15.0.0, SVG Export Plug-In . SVG Version: 6.00 Build 0)  -->
<!DOCTYPE svg PUBLIC "-//W3C//DTD SVG 1.1//EN" "http://www.w3.org/Graphics/SVG/1.1/DTD/svg11.dtd">
<svg version="1.1" id="Laag_1" xmlns="http://www.w3.org/2000/svg" xmlns:xlink="http://www.w3.org/1999/xlink" x="0px" y="0px"
	 width="128px" height="128px" viewBox="0 0 128 128" enable-background="new 0 0 128 128" xml:space="preserve">
<path d="M95.385,34.87h30.078c1.279,0,2.314-1.036,2.314-2.313V2.479c0-1.279-1.035-2.314-2.314-2.314H95.385
	c-1.278,0-2.313,1.036-2.313,2.314v12.11H34.987c-0.019,0-0.04,0-0.058,0V2.479c0-1.279-1.036-2.314-2.314-2.314H2.538
	c-1.279,0-2.314,1.036-2.314,2.314v30.078c0,1.277,1.035,2.313,2.314,2.313h30.077c1.279,0,2.314-1.036,2.314-2.313l0,0V20.289
	c2.294,0.033,11.722,0.588,18.543,7.157c5.171,4.979,7.792,12.364,7.792,21.948v29.16c0,11.224,3.228,20.006,9.591,26.103
	c8.183,7.843,18.927,8.646,22.215,8.702v12.164c0,1.279,1.035,2.312,2.313,2.312h30.078c1.279,0,2.314-1.035,2.314-2.312V95.444
	c0-1.276-1.035-2.313-2.314-2.313H95.383c-1.278,0-2.313,1.037-2.313,2.313v12.211c-2.635-0.067-11.698-0.782-18.312-7.151
	c-5.172-4.979-7.795-12.363-7.795-21.947V49.394c0-11.224-3.226-20.005-9.59-26.103c-1.193-1.145-2.443-2.14-3.718-3.004H93.07
	v12.268C93.07,33.834,94.105,34.87,95.385,34.87z"/>
</svg>
