<?xml version="1.0" encoding="utf-8"?>
<!-- Generator: Adobe Illustrator 15.0.0, SVG Export Plug-In . SVG Version: 6.00 Build 0)  -->
<svg version="1.2" baseProfile="tiny" id="Laag_1" xmlns="http://www.w3.org/2000/svg" xmlns:xlink="http://www.w3.org/1999/xlink"
	 x="0px" y="0px" width="128px" height="128px" viewBox="47.908 48.011 128 128" overflow="inherit" xml:space="preserve">
<path d="M143.071,82.718h30.077c1.28,0,2.315-1.037,2.315-2.314V50.326c0-1.279-1.035-2.314-2.315-2.314h-30.077
	c-1.279,0-2.314,1.036-2.314,2.314v12.11H82.673c-0.019,0-0.04,0-0.058,0V50.326c0-1.279-1.036-2.314-2.314-2.314H50.223
	c-1.279,0-2.314,1.036-2.314,2.314v30.078c0,1.278,1.035,2.314,2.314,2.314H80.3c1.279,0,2.314-1.037,2.314-2.314h0V68.137
	c2.294,0.033,11.722,0.588,18.543,7.157c5.171,4.979,7.792,12.364,7.792,21.948v29.161c0,11.223,3.228,20.005,9.591,26.102
	c8.183,7.842,18.927,8.646,22.215,8.702v12.164c0,1.279,1.035,2.313,2.314,2.313h30.077c1.28,0,2.315-1.036,2.315-2.313v-30.079
	c0-1.277-1.035-2.313-2.315-2.313h-30.077c-1.279,0-2.314,1.036-2.314,2.313v12.211c-2.635-0.067-11.699-0.782-18.312-7.151
	c-5.172-4.979-7.794-12.364-7.794-21.948V97.241c0-11.223-3.226-20.005-9.59-26.102c-1.194-1.145-2.444-2.14-3.718-3.004h39.415
	v12.268C140.756,81.682,141.791,82.718,143.071,82.718z"/>
</svg>
