<?xml version="1.0" encoding="utf-8"?>
<!-- Generator: Adobe Illustrator 15.0.0, SVG Export Plug-In . SVG Version: 6.00 Build 0)  -->
<svg version="1.2" baseProfile="tiny" id="Layer_1" xmlns="http://www.w3.org/2000/svg" xmlns:xlink="http://www.w3.org/1999/xlink"
	 x="0px" y="0px" width="128px" height="128px" viewBox="26 26 128 128" overflow="inherit" xml:space="preserve">
<path d="M153.833,90c0-6.571-4.966-11.977-11.349-12.684V51.617c6.383-0.707,11.349-6.113,11.349-12.684
	c0-7.051-5.716-12.767-12.767-12.767c-6.571,0-11.977,4.966-12.684,11.348h-25.699C101.977,31.133,96.571,26.167,90,26.167
	c-6.571,0-11.977,4.966-12.684,11.348H51.617c-0.707-6.382-6.113-11.348-12.684-11.348c-7.051,0-12.767,5.716-12.767,12.767
	c0,6.571,4.966,11.977,11.348,12.684v25.699C31.133,78.023,26.167,83.429,26.167,90c0,6.571,4.966,11.977,11.348,12.684v25.699
	c-6.382,0.707-11.348,6.112-11.348,12.684c0,7.051,5.716,12.767,12.767,12.767c6.571,0,11.977-4.966,12.684-11.348h25.699
	c0.707,6.382,6.113,11.348,12.684,11.348c6.571,0,11.977-4.966,12.684-11.348h25.699c0.707,6.382,6.112,11.348,12.684,11.348
	c7.051,0,12.767-5.716,12.767-12.767c0-6.571-4.966-11.977-11.349-12.684v-25.699C148.867,101.977,153.833,96.571,153.833,90z
	 M128.383,139.647h-25.699c-0.654-5.916-5.349-10.61-11.266-11.265v-25.699c5.917-0.654,10.611-5.349,11.266-11.265h25.699
	c0.654,5.916,5.349,10.61,11.265,11.265v25.699C133.731,129.037,129.037,133.731,128.383,139.647z M77.316,139.647H51.617
	c-0.655-5.916-5.349-10.61-11.265-11.265v-25.699c5.916-0.654,10.61-5.349,11.265-11.265h25.699
	c0.655,5.916,5.349,10.61,11.265,11.265v25.699C82.666,129.037,77.971,133.731,77.316,139.647z M51.617,40.352h25.699
	c0.655,5.916,5.349,10.61,11.265,11.265v25.699c-5.916,0.655-10.61,5.349-11.265,11.265H51.617
	c-0.655-5.916-5.349-10.61-11.265-11.265V51.617C46.268,50.962,50.962,46.268,51.617,40.352z M128.383,88.582h-25.699
	c-0.654-5.916-5.349-10.61-11.266-11.265V51.617c5.917-0.655,10.611-5.349,11.266-11.265h25.699
	c0.654,5.916,5.349,10.61,11.265,11.265v25.699C133.731,77.971,129.037,82.666,128.383,88.582z"/>
</svg>
