<?xml version="1.0" encoding="utf-8"?>
<!-- Generator: Adobe Illustrator 15.0.0, SVG Export Plug-In . SVG Version: 6.00 Build 0)  -->
<!DOCTYPE svg PUBLIC "-//W3C//DTD SVG 1.1//EN" "http://www.w3.org/Graphics/SVG/1.1/DTD/svg11.dtd">
<svg version="1.1" id="Layer_1" xmlns="http://www.w3.org/2000/svg" xmlns:xlink="http://www.w3.org/1999/xlink" x="0px" y="0px"
	 width="128px" height="128px" viewBox="0 0 128 128" enable-background="new 0 0 128 128" xml:space="preserve">
<path d="M127.833,64c0-6.57-4.966-11.977-11.349-12.684V25.617c6.383-0.707,11.349-6.113,11.349-12.684
	c0-7.051-5.716-12.767-12.767-12.767c-6.571,0-11.978,4.966-12.685,11.348H76.684C75.977,5.133,70.57,0.167,64,0.167
	S52.023,5.133,51.316,11.515H25.617C24.91,5.133,19.504,0.167,12.933,0.167c-7.051,0-12.767,5.716-12.767,12.767
	c0,6.571,4.966,11.977,11.348,12.684v25.698C5.133,52.023,0.167,57.43,0.167,64s4.966,11.977,11.348,12.684v25.699
	c-6.382,0.707-11.348,6.112-11.348,12.684c0,7.052,5.716,12.768,12.767,12.768c6.571,0,11.977-4.966,12.684-11.348h25.698
	c0.707,6.382,6.113,11.348,12.685,11.348s11.978-4.966,12.685-11.348h25.698c0.707,6.382,6.112,11.348,12.685,11.348
	c7.051,0,12.767-5.716,12.767-12.768c0-6.57-4.966-11.977-11.349-12.684V76.684C122.867,75.977,127.833,70.57,127.833,64z
	 M102.383,113.646H76.684c-0.654-5.916-5.349-10.609-11.266-11.265V76.684c5.917-0.654,10.611-5.35,11.266-11.266h25.699
	c0.654,5.916,5.35,10.609,11.266,11.266v25.698C107.73,103.037,103.037,107.73,102.383,113.646z M51.316,113.646H25.617
	c-0.655-5.916-5.349-10.609-11.265-11.265V76.684c5.916-0.654,10.61-5.35,11.265-11.266h25.699
	c0.654,5.916,5.349,10.609,11.265,11.266v25.698C56.666,103.037,51.971,107.73,51.316,113.646z M25.617,14.352h25.699
	c0.654,5.916,5.349,10.61,11.265,11.265v25.699c-5.916,0.654-10.61,5.349-11.265,11.265H25.617
	c-0.655-5.916-5.349-10.61-11.265-11.265V25.617C20.268,24.962,24.962,20.268,25.617,14.352z M102.383,62.582H76.684
	c-0.654-5.916-5.349-10.609-11.266-11.266V25.617c5.917-0.655,10.611-5.349,11.266-11.265h25.699
	c0.654,5.916,5.35,10.61,11.266,11.265v25.699C107.73,51.971,103.037,56.666,102.383,62.582z"/>
</svg>
