<?xml version="1.0" encoding="utf-8"?>
<!-- Generator: Adobe Illustrator 15.0.2, SVG Export Plug-In . SVG Version: 6.00 Build 0)  -->
<!DOCTYPE svg PUBLIC "-//W3C//DTD SVG 1.1//EN" "http://www.w3.org/Graphics/SVG/1.1/DTD/svg11.dtd">
<svg version="1.1" id="Laag_1" xmlns="http://www.w3.org/2000/svg" xmlns:xlink="http://www.w3.org/1999/xlink" x="0px" y="0px"
	 width="128px" height="128px" viewBox="0 0 128 128" enable-background="new 0 0 128 128" xml:space="preserve">
<g>
	<polygon points="39.221,86.969 0.132,86.969 19.675,53.118 39.221,19.265 58.765,53.118 78.309,86.969 	"/>
</g>
<path d="M86.62,46.97c-8.529,0-16.318,3.157-22.278,8.359l0.851,1.476l19.544,33.851H54.15c4.196,13.959,17.144,24.132,32.47,24.132
	c18.729,0,33.909-15.18,33.909-33.908C120.529,62.151,105.35,46.97,86.62,46.97z"/>
<g>
	<g>
		<path d="M68.188,19.676v29.23c5.513-3.306,11.956-5.213,18.838-5.213c19.939,0,36.208,15.972,36.71,35.795H128V19.676H68.188z"/>
	</g>
</g>
</svg>
