<?xml version="1.0" encoding="utf-8"?>
<!-- Generator: Adobe Illustrator 15.0.0, SVG Export Plug-In . SVG Version: 6.00 Build 0)  -->
<!DOCTYPE svg PUBLIC "-//W3C//DTD SVG 1.1 Tiny//EN" "http://www.w3.org/Graphics/SVG/1.1/DTD/svg11-tiny.dtd">
<svg version="1.1" baseProfile="tiny" id="Laag_1" xmlns="http://www.w3.org/2000/svg" xmlns:xlink="http://www.w3.org/1999/xlink"
	 x="0px" y="0px" width="128px" height="128px" viewBox="0.217 0.217 128 128" overflow="inherit" xml:space="preserve">
<path d="M115.554,103.462c-2.256,0-4.362,0.633-6.172,1.713L22.692,18.483c1.081-1.81,1.713-3.916,1.713-6.172
	c0-6.669-5.425-12.095-12.093-12.095c-6.669,0-12.095,5.426-12.095,12.095c0,6.668,5.426,12.093,12.095,12.093
	c2.256,0,4.362-0.632,6.172-1.713l86.69,86.692c-1.08,1.81-1.713,3.916-1.713,6.172c0,6.669,5.426,12.095,12.094,12.095
	c6.669,0,12.095-5.426,12.095-12.095C127.649,108.887,122.223,103.462,115.554,103.462z M6.17,12.311
	c0-3.387,2.755-6.142,6.142-6.142c3.385,0,6.14,2.755,6.14,6.142c0,3.385-2.755,6.14-6.14,6.14
	C8.925,18.451,6.17,15.697,6.17,12.311z M115.554,121.696c-3.386,0-6.14-2.754-6.14-6.141c0-3.386,2.754-6.14,6.14-6.14
	c3.387,0,6.142,2.754,6.142,6.14C121.696,118.942,118.941,121.696,115.554,121.696z"/>
</svg>
