<?xml version="1.0" encoding="utf-8"?>
<!-- Generator: Adobe Illustrator 15.0.2, SVG Export Plug-In . SVG Version: 6.00 Build 0)  -->
<!DOCTYPE svg PUBLIC "-//W3C//DTD SVG 1.1//EN" "http://www.w3.org/Graphics/SVG/1.1/DTD/svg11.dtd">
<svg version="1.1" id="Laag_1" xmlns="http://www.w3.org/2000/svg" xmlns:xlink="http://www.w3.org/1999/xlink" x="0px" y="0px"
	 width="128px" height="128px" viewBox="0 0 128 128" enable-background="new 0 0 128 128" xml:space="preserve">
<path d="M21.597,110.185l7.86-4.272c-6.984-12.891-2.42-28.902,10.165-36.244l2.417,3.781l10.374-15.258l-18.447,0.41l1.431,3.155
	C18.416,71.426,12.222,92.939,21.597,110.185z"/>
<polygon points="20.375,20.838 29.931,49.075 37.166,41.804 46.685,51.461 51.377,46.701 41.858,37.049 49.533,29.336 "/>
<path d="M12.312,0.216c-6.669,0-12.095,5.426-12.095,12.095c0,6.668,5.426,12.093,12.095,12.093c2.256,0,4.362-0.632,6.172-1.713
	l4.208-4.208c1.081-1.81,1.713-3.916,1.713-6.172C24.405,5.642,18.98,0.216,12.312,0.216z M12.312,18.451
	c-3.387,0-6.142-2.754-6.142-6.14c0-3.387,2.755-6.142,6.142-6.142c3.385,0,6.14,2.755,6.14,6.142
	C18.452,15.696,15.697,18.451,12.312,18.451z M115.555,103.462c-2.091,0-4.049,0.548-5.765,1.486l-9.343-9.344l-4.885,4.887
	l9.354,9.354c-0.442,0.82-0.796,1.694-1.043,2.612l-13.331-0.001v6.91l13.543-0.001c1.601,4.806,6.133,8.284,11.469,8.284
	c6.67,0,12.096-5.426,12.096-12.096C127.648,108.887,122.223,103.462,115.555,103.462z M115.555,121.695
	c-3.387,0-6.141-2.754-6.141-6.141c0-3.386,2.754-6.14,6.141-6.14s6.141,2.754,6.141,6.14
	C121.695,118.941,118.941,121.695,115.555,121.695z M71.129,66.287l-9.771-9.772l-4.887,4.887l9.773,9.771L71.129,66.287z
	 M80.902,76.06l-4.885,4.887l9.771,9.771l4.885-4.886L80.902,76.06z M7.621,119.367h13.82v-6.91H7.621V119.367z M35.261,119.368
	l13.819-0.001v-6.909l-13.819-0.001V119.368z M62.902,112.457v6.91h13.821l-0.002-6.909L62.902,112.457z"/>
</svg>
