<?xml version="1.0" encoding="utf-8"?>
<!-- Generator: Adobe Illustrator 15.0.0, SVG Export Plug-In . SVG Version: 6.00 Build 0)  -->
<!DOCTYPE svg PUBLIC "-//W3C//DTD SVG 1.1//EN" "http://www.w3.org/Graphics/SVG/1.1/DTD/svg11.dtd">
<svg version="1.1" id="Laag_1" xmlns="http://www.w3.org/2000/svg" xmlns:xlink="http://www.w3.org/1999/xlink" x="0px" y="0px"
	 width="149.609px" height="153.039px" viewBox="0 0 149.609 153.039" enable-background="new 0 0 149.609 153.039"
	 xml:space="preserve">
<g>
	<path d="M96.932,71.932c-7.087,0-13.666,2.166-19.116,5.87l18.213,31.546H63.045c1.689,17.229,16.214,30.691,33.889,30.691
		c18.808,0,34.055-15.247,34.055-34.055C130.988,87.176,115.74,71.932,96.932,71.932z"/>
</g>
<polygon points="0,103.4 42.339,30.068 84.678,103.4 "/>
<path d="M85.854,23.255v4.515c-0.009,0.002-0.021,0.005-0.028,0.007v5.918c0.009,0.001,0.021,0,0.028,0v21.55
	c-0.011,0.001-0.02,0.003-0.028,0.005v12.677c4.286-1.946,9.037-3.05,14.053-3.05c14.624,0,27.093,9.221,31.916,22.162h17.814
	V23.255H85.854z"/>
</svg>
