<?xml version="1.0" encoding="utf-8"?>
<!-- Generator: Adobe Illustrator 13.0.1, SVG Export Plug-In . SVG Version: 6.00 Build 14948)  -->
<svg version="1.2" baseProfile="tiny" id="Laag_1" xmlns="http://www.w3.org/2000/svg" xmlns:xlink="http://www.w3.org/1999/xlink"
	 x="0px" y="0px" width="149.609px" height="153.039px" viewBox="0 0 149.609 153.039" xml:space="preserve">
<g>
	<path d="M96.932,84.932c-7.087,0-13.666,2.166-19.116,5.87l18.213,31.546H63.045c1.689,17.229,16.214,30.691,33.888,30.691
		c18.808,0,34.055-15.247,34.055-34.055S115.74,84.932,96.932,84.932z"/>
</g>
<polygon points="0,116.4 42.339,43.068 84.678,116.4 "/>
<path d="M85.854,36.255v4.515c-0.009,0.002-0.02,0.005-0.028,0.007v5.918c0.009,0.001,0.02,0,0.028,0v21.55
	c-0.01,0.001-0.019,0.003-0.028,0.005v12.677c4.286-1.946,9.037-3.05,14.053-3.05c14.624,0,27.092,9.221,31.916,22.162h17.814
	V36.255H85.854z"/>
</svg>
