<?xml version="1.0" encoding="utf-8"?>
<!-- Generator: Adobe Illustrator 15.0.2, SVG Export Plug-In . SVG Version: 6.00 Build 0)  -->
<!DOCTYPE svg PUBLIC "-//W3C//DTD SVG 1.1//EN" "http://www.w3.org/Graphics/SVG/1.1/DTD/svg11.dtd">
<svg version="1.1" id="Layer_1" xmlns="http://www.w3.org/2000/svg" xmlns:xlink="http://www.w3.org/1999/xlink" x="0px" y="0px"
	 width="128px" height="128px" viewBox="0 0 128 128" enable-background="new 0 0 128 128" xml:space="preserve">
<path d="M115.09,51.054c-6.676,0-12.168,5.068-12.84,11.566v-0.109H86.779V40.266H65.418V25.677
	c6.445-0.723,11.457-6.186,11.457-12.824c0-7.13-5.78-12.911-12.91-12.911c-7.13,0-12.911,5.78-12.911,12.911
	c0,6.663,5.047,12.144,11.527,12.834v14.579H40.443v22.246H25.84c-0.803-6.359-6.219-11.28-12.796-11.28
	c-7.13,0-12.91,5.779-12.91,12.91s5.78,12.91,12.91,12.91c6.724,0,12.24-5.139,12.849-11.703h14.55v21.253h22.138v15.643
	c-6.472,0.697-11.513,6.174-11.513,12.832c0,7.131,5.78,12.91,12.91,12.91c7.131,0,12.91-5.779,12.91-12.91
	c0-6.644-5.019-12.109-11.471-12.825V86.602h21.361V65.349h15.471v-0.04c0.672,6.499,6.164,11.566,12.84,11.566
	c7.131,0,12.91-5.779,12.91-12.91C128,56.834,122.221,51.054,115.09,51.054z"/>
</svg>
