<?xml version="1.0" encoding="utf-8"?>
<!-- Generator: Adobe Illustrator 15.0.0, SVG Export Plug-In . SVG Version: 6.00 Build 0)  -->
<!DOCTYPE svg PUBLIC "-//W3C//DTD SVG 1.1 Tiny//EN" "http://www.w3.org/Graphics/SVG/1.1/DTD/svg11-tiny.dtd">
<svg version="1.1" baseProfile="tiny" id="Laag_1" xmlns="http://www.w3.org/2000/svg" xmlns:xlink="http://www.w3.org/1999/xlink"
	 x="0px" y="0px" width="128px" height="128px" viewBox="-10.5 -10.5 128 128" overflow="inherit" xml:space="preserve">
<path d="M102.244,12.19l14.509-14.509l-7.602-7.604l-14.51,14.51C83.512-4.819,69.131-10.5,53.417-10.5
	c-35.3,0-63.917,28.618-63.917,63.917c0,15.713,5.681,30.095,15.088,41.225L-10.32,109.55l7.604,7.603l14.907-14.908
	c11.13,9.407,25.511,15.089,41.226,15.089c35.299,0,63.917-28.617,63.917-63.917C117.333,37.702,111.651,23.321,102.244,12.19z
	 M10.605,53.417c0-23.645,19.166-42.811,42.81-42.811c9.884,0,18.979,3.358,26.224,8.984l-60.05,60.051
	C13.964,72.395,10.605,63.301,10.605,53.417z M53.417,96.228c-9.884,0-18.978-3.357-26.225-8.983l60.05-60.052
	c5.626,7.246,8.984,16.34,8.984,26.224C96.227,77.061,77.061,96.228,53.417,96.228z"/>
</svg>
