<?xml version="1.0" encoding="utf-8"?>
<!-- Generator: Adobe Illustrator 15.0.0, SVG Export Plug-In . SVG Version: 6.00 Build 0)  -->
<!DOCTYPE svg PUBLIC "-//W3C//DTD SVG 1.1//EN" "http://www.w3.org/Graphics/SVG/1.1/DTD/svg11.dtd">
<svg version="1.1" id="Laag_1" xmlns="http://www.w3.org/2000/svg" xmlns:xlink="http://www.w3.org/1999/xlink" x="0px" y="0px"
	 width="128px" height="128px" viewBox="0 0 128 128" enable-background="new 0 0 128 128" xml:space="preserve">
<path d="M112.827,22.773l14.509-14.509l-7.603-7.604l-14.51,14.51C94.095,5.764,79.714,0.083,64,0.083
	C28.7,0.083,0.083,28.701,0.083,64c0,15.713,5.681,30.095,15.088,41.226L0.263,120.133l7.604,7.603l14.907-14.907
	c11.13,9.407,25.511,15.089,41.226,15.089c35.299,0,63.917-28.617,63.917-63.917C127.916,48.285,122.233,33.904,112.827,22.773z
	 M21.188,64c0-23.645,19.166-42.811,42.81-42.811c9.884,0,18.979,3.358,26.224,8.984l-60.05,60.051
	C24.547,82.978,21.188,73.884,21.188,64z M64,106.812c-9.884,0-18.978-3.357-26.225-8.983l60.05-60.052
	c5.626,7.246,8.984,16.34,8.984,26.224C106.81,87.644,87.644,106.812,64,106.812z"/>
</svg>
