<?xml version="1.0" encoding="utf-8"?>
<!-- Generator: Adobe Illustrator 15.0.0, SVG Export Plug-In . SVG Version: 6.00 Build 0)  -->
<!DOCTYPE svg PUBLIC "-//W3C//DTD SVG 1.1//EN" "http://www.w3.org/Graphics/SVG/1.1/DTD/svg11.dtd">
<svg version="1.1" id="Laag_1" xmlns="http://www.w3.org/2000/svg" xmlns:xlink="http://www.w3.org/1999/xlink" x="0px" y="0px"
	 width="128px" height="128px" viewBox="0 0 128 128" enable-background="new 0 0 128 128" xml:space="preserve">
<polygon points="46.037,0.031 45.818,26.303 14.829,26.409 66.299,77.459 117.855,26.072 87.599,26.178 87.812,0.031 "/>
<path d="M128.001,79.344h-30.96c-0.926-5.439-4.84-9.834-9.785-12.797c-0.295-0.18-0.614-0.335-0.919-0.506l-6.284,6.285
	c1.027,0.438,1.984,0.926,2.844,1.446c4.178,2.542,5.951,5.479,5.918,7.978c0.034,2.496-1.74,5.431-5.918,7.975
	c-4.1,2.492-10.213,4.204-17.025,4.193c-6.812,0.011-12.926-1.703-17.025-4.193c-4.175-2.544-5.952-5.479-5.916-7.975
	c-0.036-2.497,1.741-5.436,5.916-7.978c1.017-0.618,2.169-1.179,3.417-1.684l-6.335-6.334c-0.489,0.258-0.98,0.514-1.445,0.791
	c-4.944,2.963-8.855,7.356-9.784,12.797H0v5.627h34.871c1.162,5.062,4.918,9.169,9.612,11.983c1.025,0.615,2.123,1.164,3.253,1.684
	L22.384,123.99l3.978,3.979l27.22-27.221c3.793,1.037,7.933,1.607,12.288,1.613c8.19-0.012,15.658-1.967,21.387-5.408
	c4.695-2.812,8.451-6.92,9.613-11.982h31.132V79.344z"/>
<path d="M75.228,76.449l-9.477,9.477l-9.381-9.381c-2.5,1.181-4.076,2.918-4.076,5.203c0,4.527,6.081,6.781,13.581,6.781
	c7.498,0,13.58-2.257,13.58-6.781C79.455,79.41,77.828,77.629,75.228,76.449z"/>
</svg>
