<?xml version="1.0" encoding="utf-8"?>
<!-- Generator: Adobe Illustrator 15.0.0, SVG Export Plug-In . SVG Version: 6.00 Build 0)  -->
<!DOCTYPE svg PUBLIC "-//W3C//DTD SVG 1.1 Tiny//EN" "http://www.w3.org/Graphics/SVG/1.1/DTD/svg11-tiny.dtd">
<svg version="1.1" baseProfile="tiny" id="Laag_1" xmlns="http://www.w3.org/2000/svg" xmlns:xlink="http://www.w3.org/1999/xlink"
	 x="0px" y="0px" width="128px" height="128px" viewBox="-19.385 -18.524 128 128" overflow="inherit" xml:space="preserve">
<polygon points="26.652,-18.403 26.433,7.748 -4.556,7.854 46.914,58.904 98.47,7.517 68.214,7.623 68.428,-18.524 "/>
<path d="M107.615,60.789H77.656c-0.925-5.44-4.839-9.834-9.785-12.797c-0.295-0.179-0.614-0.335-0.919-0.505l-6.284,6.284
	c1.027,0.439,1.984,0.926,2.844,1.447c4.177,2.542,5.951,5.479,5.918,7.978c0.034,2.495-1.741,5.43-5.918,7.974
	c-4.1,2.492-10.213,4.204-17.026,4.193c-6.812,0.011-12.926-1.703-17.025-4.193c-4.175-2.544-5.952-5.479-5.916-7.974
	c-0.036-2.498,1.741-5.436,5.916-7.978c1.017-0.618,2.169-1.179,3.417-1.684l-6.335-6.334c-0.489,0.258-0.98,0.514-1.445,0.791
	c-4.944,2.963-8.855,7.356-9.784,12.797h-33.232v5.627h33.404c1.162,5.062,4.918,9.169,9.612,11.983
	c1.025,0.616,2.123,1.165,3.253,1.684L2.999,105.435l3.978,3.979l27.22-27.22c3.793,1.036,7.933,1.607,12.287,1.613
	c8.191-0.012,15.659-1.967,21.387-5.408c4.696-2.812,8.452-6.92,9.614-11.983h30.129L107.615,60.789z"/>
<path d="M55.843,57.895l-9.477,9.476l-9.381-9.381c-2.5,1.181-4.076,2.918-4.076,5.204c0,4.526,6.081,6.78,13.581,6.78
	c7.499,0,13.58-2.256,13.58-6.78C60.07,60.856,58.443,59.074,55.843,57.895z"/>
</svg>
