<?xml version="1.0" encoding="utf-8"?>
<!-- Generator: Adobe Illustrator 15.0.2, SVG Export Plug-In . SVG Version: 6.00 Build 0)  -->
<!DOCTYPE svg PUBLIC "-//W3C//DTD SVG 1.1//EN" "http://www.w3.org/Graphics/SVG/1.1/DTD/svg11.dtd">
<svg version="1.1" id="Laag_1" xmlns="http://www.w3.org/2000/svg" xmlns:xlink="http://www.w3.org/1999/xlink" x="0px" y="0px"
	 width="128px" height="128px" viewBox="0 0 128 128" enable-background="new 0 0 128 128" xml:space="preserve">
<path fill="#010101" d="M71.318,20.963C69.3,19.129,66.627,18,63.686,18c-6.26,0-11.358,5.097-11.358,11.359
	c0,1.46,0.287,2.853,0.79,4.136c-3.479,6.531-4.21,17.006,6.616,32.863c11.181,16.375,14.055,28.559,7.885,33.427
	c-11.122,8.773-45.22-0.914-59.813-16.994l-7.405,6.721c8.326,9.174,22.053,17.014,36.719,20.971
	c6.356,1.715,12.333,2.562,17.705,2.562c7.871,0,14.442-1.821,18.989-5.409c7.771-6.133,13.07-19.25-5.82-46.917
	c-4.188-6.133-8.319-14.131-6.861-20.295c0.822,0.19,1.675,0.301,2.555,0.301c5.952,0,10.843-4.603,11.32-10.435
	c13.679-3.302,34.401-1.39,49.066,4.313l3.625-9.32C114.087,19.991,89.158,16.179,71.318,20.963z M66.452,33.668
	c-0.8,0.515-1.746,0.822-2.767,0.822c-2.822,0-5.128-2.305-5.128-5.135c0-1.21,0.44-2.309,1.145-3.188
	c0.739-0.92,1.77-1.596,2.967-1.839c0.329-0.066,0.669-0.103,1.017-0.103c2.834,0,5.137,2.306,5.137,5.13
	c0,1.75-0.884,3.295-2.226,4.223C66.549,33.608,66.5,33.638,66.452,33.668z"/>
</svg>
