<?xml version="1.0" encoding="utf-8"?>
<!-- Generator: Adobe Illustrator 15.0.2, SVG Export Plug-In . SVG Version: 6.00 Build 0)  -->
<!DOCTYPE svg PUBLIC "-//W3C//DTD SVG 1.1//EN" "http://www.w3.org/Graphics/SVG/1.1/DTD/svg11.dtd">
<svg version="1.1" id="Laag_1" xmlns="http://www.w3.org/2000/svg" xmlns:xlink="http://www.w3.org/1999/xlink" x="0px" y="0px"
	 width="128px" height="128px" viewBox="0 0 128 128" enable-background="new 0 0 128 128" xml:space="preserve">
<path d="M97.509,114.2c0-2.374-0.828-4.555-2.203-6.282l0.178,0.054c8.637-28.817,6.396-51.504-6.656-67.433
	C67.674,14.724,25.705,16.266,17.934,16.792c-1.858-2.252-4.668-3.69-7.809-3.69C4.542,13.102,0,17.64,0,23.22
	c0,5.583,4.542,10.127,10.125,10.129c4.021,0,7.491-2.361,9.122-5.769c7.783-0.425,43.976-1.182,61.193,19.83
	c10.55,12.875,12.161,32.024,4.812,56.902c-4.56,0.984-7.988,5.041-7.988,9.888c0,5.583,4.542,10.126,10.125,10.128
	C92.967,124.328,97.509,119.791,97.509,114.2z M5.554,23.22c0-2.514,2.054-4.568,4.574-4.568c2.518,0,4.571,2.054,4.571,4.568
	c0,2.524-2.055,4.577-4.571,4.579C7.608,27.798,5.554,25.744,5.554,23.22z M82.816,114.2c0-2.514,2.055-4.567,4.574-4.567
	c2.519,0,4.572,2.054,4.572,4.567c0,2.524-2.056,4.576-4.572,4.579C84.871,118.779,82.816,116.725,82.816,114.2z"/>
<circle cx="106.271" cy="25.217" r="4.891"/>
<circle cx="122.819" cy="41.766" r="4.891"/>
</svg>
