<?xml version="1.0" encoding="utf-8"?>
<!-- Generator: Adobe Illustrator 15.0.0, SVG Export Plug-In . SVG Version: 6.00 Build 0)  -->
<!DOCTYPE svg PUBLIC "-//W3C//DTD SVG 1.1//EN" "http://www.w3.org/Graphics/SVG/1.1/DTD/svg11.dtd">
<svg version="1.1" id="Laag_1" xmlns="http://www.w3.org/2000/svg" xmlns:xlink="http://www.w3.org/1999/xlink" x="0px" y="0px"
	 width="128px" height="128px" viewBox="0 0 128 128" enable-background="new 0 0 128 128" xml:space="preserve">
<path d="M123.446,124.16l-8.598-8.598l2.591-2.594l8.6,8.6L123.446,124.16z M106.25,106.963l-8.6-8.598l2.592-2.592l8.6,8.598
	L106.25,106.963z M89.054,89.768l-8.598-8.599l2.59-2.593l8.599,8.6L89.054,89.768z M71.857,72.572l-8.599-8.6l2.592-2.591
	l8.598,8.599L71.857,72.572z M54.661,55.375l-8.598-8.598l2.591-2.591l8.599,8.598L54.661,55.375z"/>
<path d="M105.709,121.041l-10.751-5.682l1.715-3.24l10.749,5.684L105.709,121.041z M84.21,109.676l-10.75-5.684l1.713-3.24
	l10.75,5.684L84.21,109.676z M62.712,98.309l-10.75-5.685l1.712-3.239l10.75,5.686L62.712,98.309z M41.211,86.941l-10.75-5.685
	l1.712-3.237l10.75,5.684L41.211,86.941z M19.712,75.574l-10.75-5.684l1.712-3.238l10.75,5.683L19.712,75.574z"/>
<path d="M124.619,112.52l-5.546-10.82l3.261-1.672l5.545,10.822L124.619,112.52z M113.53,90.875l-5.547-10.821l3.263-1.671
	l5.545,10.822L113.53,90.875z M102.438,69.232L96.894,58.41l3.263-1.67l5.545,10.823L102.438,69.232z M91.35,47.588l-5.545-10.822
	l3.262-1.67l5.545,10.822L91.35,47.588z"/>
<path d="M0.425,64.826l11.599-1.319C9.892,44.508,23.257,27.385,42.068,24.674l1.267,8.909l19.82-16.522L40.984,4.187l-0.151,8.851
	C15.566,16.41-2.462,39.384,0.425,64.826z"/>
<g>
	<path d="M79.362,29.725c-7.369,0-13.363-5.997-13.363-13.368c0-7.369,6-13.357,13.363-13.357c7.374,0,13.369,5.994,13.369,13.357
		C92.733,23.728,86.733,29.725,79.362,29.725z M79.362,10.321c-3.324,0-6.033,2.703-6.033,6.027c0,3.332,2.709,6.041,6.033,6.041
		c3.332,0,6.041-2.709,6.041-6.041C85.406,13.024,82.697,10.321,79.362,10.321z"/>
</g>
</svg>
