<?xml version="1.0" encoding="utf-8"?>
<!-- Generator: Adobe Illustrator 15.0.0, SVG Export Plug-In . SVG Version: 6.00 Build 0)  -->
<!DOCTYPE svg PUBLIC "-//W3C//DTD SVG 1.1//EN" "http://www.w3.org/Graphics/SVG/1.1/DTD/svg11.dtd">
<svg version="1.1" id="Laag_1" xmlns="http://www.w3.org/2000/svg" xmlns:xlink="http://www.w3.org/1999/xlink" x="0px" y="0px"
	 width="128px" height="128px" viewBox="0 0 128 128" enable-background="new 0 0 128 128" xml:space="preserve">
<g>
	<path d="M121.629,117.227h-0.358c-0.623,0-1.218,0.109-1.772,0.306l-7.617-9.776c0.835-1.775,0.669-3.942-0.616-5.596l-0.222-0.281
		c-1.287-1.652-3.348-2.344-5.272-1.969l-7.034-9.031c0.863-1.784,0.709-3.979-0.593-5.649l-0.22-0.282
		c-1.301-1.671-3.391-2.357-5.334-1.955l-5.465-7.018c0.734-1.273,0.912-2.805,0.492-4.219c2.963-1.774,5.612-3.734,7.945-5.864
		c0.773,0.401,1.623,0.604,2.473,0.603c1.373,0,2.746-0.521,3.795-1.565c0.097-0.099,0.193-0.193,0.287-0.288
		c1.928-1.958,2.047-5.018,0.379-7.115c1.463-2.512,2.586-5.299,3.369-8.348c2.441-0.233,4.487-2.129,4.813-4.666
		c0.019-0.133,0.034-0.268,0.052-0.4c0.305-2.543-1.221-4.88-3.537-5.703c0.004-0.201,0.01-0.4,0.01-0.605
		c0-4.084-0.537-7.781-1.596-11.063c2.023-1.63,2.625-4.531,1.289-6.857c-0.072-0.129-0.148-0.256-0.224-0.383
		c-1.354-2.272-4.12-3.179-6.511-2.277c-2.315-2.704-5.08-5.036-8.281-6.941c-0.291-0.176-0.588-0.336-0.883-0.503
		c0.412-2.439-0.905-4.921-3.295-5.879c-0.129-0.05-0.254-0.101-0.381-0.15c-2.365-0.927-4.988-0.057-6.373,1.947
		c-1.237-0.317-2.492-0.578-3.764-0.779c-2.365-0.374-4.97-0.658-7.775-0.857c-0.604-2.229-2.605-3.898-5.032-3.968
		c-0.124-0.004-0.248-0.008-0.372-0.011c-2.409-0.064-4.49,1.466-5.23,3.631H47.463c-0.708-2.143-2.725-3.691-5.102-3.691h-0.359
		c-2.381,0-4.396,1.548-5.104,3.691h-6.241c-0.708-2.143-2.723-3.691-5.103-3.691h-0.358c-2.38,0-4.395,1.548-5.103,3.691h-6.241
		C13.145,1.571,11.13,0.023,8.75,0.023c-2.969,0-5.376,2.407-5.376,5.375v0.359c0,2.138,1.25,3.978,3.058,4.844v14.344
		c-1.808,0.867-3.058,2.708-3.058,4.846v0.358c0,2.138,1.25,3.978,3.058,4.843v13.079c-1.808,0.867-3.058,2.708-3.058,4.845v0.358
		c0,2.138,1.25,3.979,3.058,4.847v12.445c-1.808,0.868-3.058,2.708-3.058,4.846v0.357c0,2.138,1.25,3.979,3.058,4.845v12.026
		c-1.808,0.867-3.058,2.707-3.058,4.846v0.357c0,2.137,1.25,3.978,3.058,4.845v15.503c-1.395,0.971-2.31,2.583-2.31,4.413
		c0,2.969,2.408,5.375,5.376,5.375h0.359c2.221,0,4.126-1.349,4.946-3.269h18.354c0.82,1.92,2.728,3.269,4.948,3.269h0.357
		c2.969,0,5.376-2.406,5.376-5.375c0-2.326-1.479-4.301-3.546-5.051v-9.671c2.251-0.643,3.901-2.709,3.901-5.166v-0.357
		c0-2.457-1.649-4.523-3.901-5.166V86.864c2.239-0.641,3.883-2.692,3.899-5.133h4.822c-0.001,1.114,0.338,2.237,1.053,3.202
		l0.213,0.287c1.055,1.421,2.678,2.173,4.321,2.173c0.325,0,0.649-0.037,0.972-0.097l8.229,11.091
		c-1.241,1.839-1.263,4.329,0.132,6.21l0.215,0.287c1.055,1.423,2.678,2.174,4.321,2.174c0.531,0,1.063-0.083,1.583-0.244
		l9.389,12.654c-0.895,1.76-0.787,3.945,0.471,5.641l0.211,0.287c1.057,1.42,2.679,2.171,4.324,2.171
		c1.112,0,2.234-0.346,3.197-1.058c0.666-0.494,1.18-1.113,1.542-1.801h27.134c0.817,1.92,2.724,3.269,4.944,3.269h0.358
		c2.97,0,5.375-2.406,5.375-5.375C127.005,119.633,124.599,117.227,121.629,117.227z M42.982,77.938
		c-0.986-1.206-2.484-1.976-4.162-1.976c-2.97,0-5.377,2.406-5.377,5.375v0.358c0,2.138,1.252,3.978,3.06,4.845v10.973
		c-1.808,0.865-3.06,2.708-3.06,4.845v0.358c0,2.139,1.252,3.979,3.06,4.846v9.908c-1.651,0.516-2.958,1.807-3.499,3.445H14.961
		c-0.67-2.031-2.518-3.521-4.735-3.672V103.01c2.251-0.644,3.9-2.711,3.9-5.168v-0.356c0-2.458-1.649-4.526-3.9-5.168V80.937
		c2.251-0.642,3.9-2.711,3.9-5.168V75.41c0-2.455-1.649-4.522-3.9-5.166V58.439c2.251-0.643,3.9-2.71,3.9-5.167v-0.358
		c0-2.457-1.649-4.523-3.9-5.166V35.312c2.251-0.643,3.9-2.709,3.9-5.165v-0.358c0-2.457-1.649-4.525-3.9-5.167V10.92
		c1.689-0.482,3.036-1.767,3.604-3.418h6.42c0.819,1.921,2.725,3.269,4.946,3.269h0.359c2.221,0,4.126-1.348,4.946-3.269h6.554
		c0.82,1.921,2.727,3.269,4.945,3.269h0.359c2.221,0,4.125-1.348,4.946-3.269h11.591c0.788,1.902,2.635,3.265,4.825,3.323l0,0
		c0.115,0.004,0.229,0.007,0.345,0.011c0.055,0.001,0.106,0.002,0.159,0.002c2.104,0,3.938-1.222,4.817-3.007
		c2.734,0.193,5.262,0.467,7.553,0.828c1.157,0.183,2.302,0.422,3.432,0.711c0.221,1.91,1.463,3.638,3.379,4.387
		c0.099,0.037,0.191,0.076,0.287,0.114c0.657,0.265,1.336,0.389,2.002,0.389c1.239,0,2.432-0.441,3.385-1.214
		c0.285,0.161,0.57,0.316,0.853,0.485c2.86,1.705,5.326,3.784,7.382,6.191c-0.854,1.605-0.876,3.602,0.122,5.278
		c0.046,0.076,0.091,0.154,0.136,0.234c0.953,1.657,2.655,2.605,4.436,2.684c0.934,2.9,1.404,6.205,1.404,9.881
		c0,0.228-0.006,0.449-0.01,0.675c-1.767,0.706-3.104,2.329-3.347,4.352h-0.002c-0.011,0.104-0.024,0.208-0.038,0.312
		c-0.262,2.023,0.641,3.931,2.188,5.048c-0.691,2.71-1.68,5.177-2.961,7.388c-1.686-0.303-3.488,0.203-4.781,1.518
		c-0.072,0.074-0.146,0.146-0.219,0.22c-1.563,1.556-1.967,3.834-1.211,5.765c-2.218,2.027-4.764,3.893-7.621,5.583
		c-1.891-1.374-4.528-1.401-6.465,0.106c-2.342,1.824-2.762,5.203-0.938,7.546l0.22,0.28c1.062,1.36,2.646,2.072,4.246,2.072
		c0.578,0,1.159-0.092,1.72-0.281l5.186,6.656c-1.414,1.893-1.457,4.562,0.062,6.516l0.221,0.281
		c1.061,1.361,2.644,2.074,4.246,2.074c0.696,0,1.397-0.14,2.06-0.412l6.563,8.428c-1.445,1.894-1.502,4.592,0.028,6.561
		l0.222,0.282c1.062,1.36,2.645,2.073,4.246,2.073c0.715,0,1.436-0.144,2.113-0.436l7.446,9.562
		c-0.168,0.299-0.31,0.617-0.417,0.947H89.673c-0.165-0.677-0.466-1.332-0.906-1.927l-0.214-0.289
		c-1.48-1.995-4.078-2.664-6.284-1.794l-9.213-12.418c1.108-1.816,1.078-4.195-0.267-6.008l-0.213-0.288
		c-1.346-1.812-3.614-2.532-5.674-1.998L58.836,85.32c1.453-1.857,1.558-4.523,0.084-6.507l-0.215-0.289
		c-1.769-2.386-5.135-2.885-7.521-1.112c-0.216,0.16-0.413,0.338-0.599,0.523h-7.604V77.938z"/>
	<path d="M51.022,60.592c0.833,1.967,2.796,3.33,5.062,3.281l0,0l0,0c0.125-0.002,0.25-0.006,0.375-0.009
		c2.527-0.061,4.602-1.86,5.117-4.227c1.478-0.31,2.852-0.75,4.127-1.315c0.985,0.789,2.17,1.18,3.349,1.18
		c1.503,0,2.997-0.627,4.06-1.851c0.106-0.122,0.211-0.245,0.314-0.368c1.503-1.816,1.609-4.324,0.445-6.23
		c0.151-0.266,0.297-0.533,0.43-0.805c0.535-1.08,0.934-2.306,1.206-3.685c2.478-0.479,4.347-2.66,4.347-5.276
		c0-0.149-0.001-0.3-0.004-0.449c-0.046-2.744-2.145-4.971-4.806-5.25c-0.31-0.916-0.689-1.783-1.155-2.592
		c-0.436-0.755-0.973-1.455-1.59-2.111c0.041-0.188,0.076-0.379,0.102-0.574c0.344-2.95-1.771-5.619-4.72-5.961v-0.001
		c-0.142-0.015-0.28-0.031-0.423-0.046c-1.77-0.183-3.424,0.519-4.536,1.743c-1.178-0.234-2.42-0.4-3.729-0.488
		c-0.146-0.01-0.299-0.019-0.447-0.027c-0.562-2.052-2.317-3.66-4.561-3.919V21.61c-0.141-0.017-0.281-0.032-0.424-0.046
		c-2.578-0.268-4.921,1.336-5.677,3.714H43.99c-0.709-2.143-2.725-3.69-5.104-3.69h-0.068c-1.414,0-2.8,0.573-3.801,1.575
		c-1,1-1.574,2.384-1.574,3.801v0.291c0,2.138,1.252,3.979,3.059,4.845v21.507c-1.809,0.866-3.059,2.707-3.059,4.846v0.358
		c0,2.968,2.407,5.376,5.375,5.377c2.328,0,4.305-1.483,5.053-3.552h3.815C48.842,60.635,49.951,60.621,51.022,60.592z
		 M61.328,29.656c0,2.719,2.058,5.053,4.82,5.34c0.1,0.012,0.193,0.021,0.291,0.032c0.211,0.025,0.422,0.037,0.629,0.037
		c1.106,0,2.149-0.347,3.019-0.94c0.188,0.248,0.364,0.5,0.516,0.764c0.3,0.517,0.548,1.074,0.763,1.66
		c-1.396,0.994-2.295,2.633-2.264,4.474c0.001,0.088,0.001,0.177,0.001,0.267c0,1.978,1.07,3.7,2.659,4.635
		c-0.206,1.01-0.491,1.898-0.859,2.648c-0.022,0.044-0.05,0.088-0.072,0.131c-2.004-0.6-4.262,0.006-5.68,1.721
		c-0.052,0.059-0.102,0.117-0.154,0.178c-1.1,1.266-1.5,2.9-1.239,4.434c-0.851,0.346-1.761,0.625-2.731,0.84
		c-0.939-1.686-2.758-2.809-4.824-2.758c-0.112,0.004-0.227,0.006-0.342,0.008c-2.337,0.049-4.287,1.582-4.984,3.68
		c-1.023,0.025-2.084,0.039-3.188,0.039h-3.736c-0.539-1.719-1.918-3.062-3.655-3.557V32.422c1.667-0.475,3-1.732,3.581-3.352h4.211
		c0.753,1.709,2.374,2.979,4.363,3.188c0.099,0.011,0.195,0.02,0.291,0.031c0.211,0.024,0.422,0.036,0.629,0.036
		c2.078,0,3.933-1.206,4.817-3.018c0.183,0.012,0.37,0.021,0.548,0.034C59.646,29.402,60.5,29.518,61.328,29.656z"/>
</g>
</svg>
