<?xml version="1.0" encoding="utf-8"?>
<!-- Generator: Adobe Illustrator 15.0.0, SVG Export Plug-In . SVG Version: 6.00 Build 0)  -->
<!DOCTYPE svg PUBLIC "-//W3C//DTD SVG 1.1 Tiny//EN" "http://www.w3.org/Graphics/SVG/1.1/DTD/svg11-tiny.dtd">
<svg version="1.1" baseProfile="tiny" id="Laag_1" xmlns="http://www.w3.org/2000/svg" xmlns:xlink="http://www.w3.org/1999/xlink"
	 x="0px" y="0px" width="128px" height="128px" viewBox="33.78 37.204 128 128" overflow="inherit" xml:space="preserve">
<g>
	<path d="M154.033,154.412h-0.358c-0.623,0-1.218,0.11-1.773,0.306l-7.617-9.777c0.835-1.775,0.669-3.942-0.616-5.595l-0.222-0.282
		c-1.287-1.652-3.348-2.343-5.272-1.969l-7.035-9.031c0.864-1.784,0.709-3.979-0.592-5.649l-0.22-0.282
		c-1.301-1.671-3.391-2.357-5.334-1.955l-5.464-7.018c0.733-1.274,0.912-2.804,0.492-4.218c2.963-1.775,5.612-3.735,7.945-5.865
		c0.773,0.401,1.623,0.604,2.473,0.602c1.372,0,2.745-0.521,3.795-1.565c0.096-0.098,0.193-0.193,0.286-0.288
		c1.928-1.958,2.048-5.017,0.379-7.115c1.463-2.512,2.587-5.299,3.369-8.348c2.442-0.233,4.488-2.128,4.814-4.666
		c0.019-0.133,0.034-0.267,0.052-0.4c0.304-2.543-1.221-4.88-3.537-5.703c0.003-0.202,0.009-0.401,0.009-0.606
		c0-4.083-0.536-7.781-1.596-11.063c2.024-1.63,2.625-4.531,1.29-6.857c-0.073-0.129-0.148-0.256-0.224-0.383
		c-1.354-2.272-4.12-3.179-6.51-2.277c-2.316-2.704-5.081-5.036-8.282-6.941c-0.291-0.176-0.588-0.336-0.882-0.503
		c0.411-2.439-0.906-4.921-3.296-5.879c-0.128-0.05-0.254-0.101-0.38-0.15c-2.366-0.927-4.988-0.057-6.374,1.947
		c-1.237-0.317-2.491-0.578-3.763-0.779c-2.365-0.374-4.97-0.658-7.775-0.857c-0.604-2.229-2.606-3.898-5.033-3.968
		c-0.124-0.004-0.248-0.008-0.372-0.011c-2.409-0.064-4.49,1.466-5.23,3.631H79.867c-0.708-2.143-2.724-3.691-5.102-3.691h-0.359
		c-2.38,0-4.396,1.548-5.104,3.691h-6.241c-0.708-2.143-2.723-3.691-5.103-3.691H57.6c-2.38,0-4.395,1.548-5.103,3.691h-6.241
		c-0.707-2.141-2.722-3.689-5.101-3.689c-2.969,0-5.376,2.407-5.376,5.375v0.359c0,2.138,1.25,3.978,3.058,4.844v14.344
		c-1.808,0.867-3.058,2.708-3.058,4.845v0.359c0,2.137,1.25,3.977,3.058,4.843v13.079c-1.808,0.867-3.058,2.708-3.058,4.845v0.358
		c0,2.138,1.25,3.979,3.058,4.846v12.446c-1.808,0.868-3.058,2.708-3.058,4.845v0.358c0,2.138,1.25,3.979,3.058,4.845v12.026
		c-1.808,0.867-3.058,2.707-3.058,4.846v0.357c0,2.137,1.25,3.978,3.058,4.845v15.503c-1.395,0.971-2.31,2.583-2.31,4.413
		c0,2.969,2.408,5.375,5.376,5.375h0.359c2.221,0,4.126-1.348,4.946-3.269h18.355c0.82,1.921,2.727,3.269,4.948,3.269h0.357
		c2.969,0,5.376-2.406,5.376-5.375c0-2.326-1.479-4.301-3.546-5.051v-9.67c2.251-0.643,3.901-2.709,3.901-5.166v-0.358
		c0-2.457-1.649-4.524-3.901-5.166V124.05c2.24-0.641,3.883-2.692,3.899-5.133h4.823c-0.001,1.114,0.338,2.238,1.052,3.202
		l0.213,0.287c1.055,1.421,2.678,2.173,4.322,2.173c0.325,0,0.649-0.037,0.972-0.097l8.229,11.091
		c-1.241,1.839-1.263,4.33,0.132,6.21l0.214,0.288c1.055,1.422,2.678,2.173,4.322,2.173c0.531,0,1.064-0.083,1.583-0.244
		l9.388,12.654c-0.894,1.76-0.786,3.946,0.471,5.641l0.212,0.287c1.056,1.42,2.678,2.171,4.323,2.171
		c1.113,0,2.235-0.346,3.198-1.057c0.666-0.495,1.179-1.114,1.542-1.802h27.133c0.818,1.921,2.724,3.269,4.945,3.269h0.358
		c2.97,0,5.376-2.406,5.376-5.375C159.409,156.818,157.003,154.412,154.033,154.412z M75.387,115.124
		c-0.986-1.206-2.484-1.976-4.163-1.976c-2.969,0-5.376,2.407-5.376,5.376v0.358c0,2.138,1.252,3.978,3.059,4.845v10.972
		c-1.808,0.866-3.059,2.708-3.059,4.845v0.358c0,2.139,1.252,3.979,3.059,4.846v9.908c-1.651,0.516-2.958,1.807-3.499,3.446H47.365
		c-0.67-2.031-2.518-3.521-4.735-3.672v-14.235c2.251-0.643,3.9-2.711,3.9-5.167v-0.357c0-2.458-1.649-4.526-3.9-5.168v-11.381
		c2.251-0.642,3.9-2.711,3.9-5.168v-0.358c0-2.455-1.649-4.523-3.9-5.166V95.625c2.251-0.643,3.9-2.71,3.9-5.167V90.1
		c0-2.457-1.649-4.524-3.9-5.167V72.498c2.251-0.642,3.9-2.709,3.9-5.165v-0.359c0-2.457-1.649-4.525-3.9-5.166V48.106
		c1.689-0.482,3.036-1.767,3.604-3.418h6.42c0.819,1.921,2.725,3.269,4.946,3.269h0.359c2.221,0,4.126-1.348,4.946-3.269h6.554
		c0.82,1.921,2.726,3.269,4.946,3.269h0.359c2.22,0,4.125-1.348,4.946-3.269h11.591c0.788,1.902,2.634,3.265,4.825,3.323h0
		c0.115,0.004,0.229,0.007,0.345,0.011c0.054,0.001,0.106,0.002,0.159,0.002c2.105,0,3.938-1.222,4.817-3.007
		c2.735,0.193,5.262,0.467,7.553,0.828c1.157,0.183,2.302,0.422,3.431,0.711c0.222,1.91,1.464,3.638,3.38,4.387
		c0.098,0.037,0.191,0.076,0.287,0.114c0.657,0.265,1.336,0.389,2.002,0.389c1.239,0,2.431-0.441,3.385-1.214
		c0.284,0.161,0.57,0.316,0.852,0.485c2.861,1.705,5.326,3.784,7.382,6.191c-0.854,1.605-0.876,3.602,0.122,5.278
		c0.046,0.076,0.091,0.154,0.136,0.234c0.952,1.657,2.655,2.606,4.435,2.684c0.933,2.9,1.404,6.204,1.404,9.881
		c0,0.227-0.006,0.449-0.01,0.674c-1.766,0.706-3.104,2.329-3.346,4.352h-0.002c-0.011,0.104-0.025,0.208-0.038,0.311
		c-0.262,2.024,0.641,3.931,2.187,5.048c-0.691,2.71-1.68,5.177-2.96,7.388c-1.686-0.303-3.489,0.203-4.782,1.517
		c-0.072,0.074-0.146,0.147-0.219,0.22c-1.563,1.556-1.967,3.834-1.211,5.765c-2.217,2.027-4.763,3.893-7.621,5.583
		c-1.89-1.374-4.528-1.401-6.464,0.106c-2.342,1.824-2.762,5.204-0.938,7.546l0.22,0.281c1.061,1.36,2.645,2.072,4.246,2.072
		c0.578,0,1.159-0.092,1.719-0.281l5.186,6.655c-1.414,1.893-1.457,4.563,0.062,6.516l0.221,0.282
		c1.061,1.361,2.644,2.074,4.247,2.074c0.696,0,1.397-0.14,2.059-0.413l6.563,8.428c-1.445,1.894-1.502,4.592,0.029,6.561
		l0.222,0.282c1.061,1.361,2.644,2.074,4.245,2.074c0.716,0,1.436-0.144,2.114-0.436l7.446,9.562
		c-0.168,0.299-0.31,0.617-0.417,0.948h-26.497c-0.165-0.677-0.466-1.333-0.906-1.927l-0.214-0.289
		c-1.481-1.995-4.078-2.664-6.284-1.794l-9.213-12.418c1.108-1.816,1.078-4.196-0.267-6.008l-0.213-0.288
		c-1.345-1.812-3.614-2.532-5.673-1.998l-8.067-10.872c1.453-1.858,1.558-4.523,0.084-6.507l-0.214-0.289
		c-1.769-2.386-5.136-2.885-7.521-1.112c-0.216,0.16-0.413,0.338-0.599,0.523H75.387z"/>
	<path d="M83.427,97.778c0.833,1.966,2.796,3.329,5.062,3.281h0v0c0.125-0.003,0.249-0.006,0.374-0.009
		c2.527-0.061,4.602-1.861,5.118-4.227c1.477-0.309,2.851-0.75,4.126-1.315c0.986,0.789,2.17,1.179,3.349,1.179
		c1.503,0,2.997-0.626,4.06-1.85c0.106-0.122,0.21-0.245,0.314-0.368c1.503-1.816,1.609-4.325,0.446-6.231
		c0.151-0.265,0.296-0.533,0.429-0.804c0.535-1.081,0.933-2.306,1.206-3.685c2.477-0.48,4.347-2.66,4.347-5.276
		c0-0.15-0.001-0.3-0.004-0.45c-0.046-2.744-2.145-4.97-4.806-5.25c-0.31-0.915-0.689-1.783-1.155-2.591
		c-0.435-0.755-0.972-1.456-1.59-2.111c0.041-0.188,0.077-0.379,0.101-0.575c0.344-2.95-1.771-5.619-4.719-5.961v-0.001
		c-0.141-0.015-0.28-0.031-0.423-0.046c-1.77-0.183-3.424,0.519-4.536,1.743c-1.178-0.234-2.42-0.4-3.73-0.488
		c-0.146-0.01-0.298-0.019-0.447-0.027c-0.562-2.052-2.317-3.66-4.561-3.919v-0.001c-0.14-0.017-0.281-0.032-0.423-0.046
		c-2.579-0.268-4.921,1.336-5.677,3.714h-3.894c-0.708-2.143-2.724-3.69-5.103-3.69h-0.068c-1.415,0-2.8,0.573-3.801,1.575
		c-1,1-1.575,2.384-1.575,3.801v0.291c0,2.138,1.252,3.979,3.059,4.845v21.507c-1.808,0.866-3.059,2.707-3.059,4.845v0.359
		c0,2.968,2.408,5.376,5.376,5.377c2.328,0,4.305-1.483,5.052-3.552h3.816C81.246,97.821,82.356,97.806,83.427,97.778z
		 M93.732,66.842c0.001,2.719,2.058,5.053,4.821,5.34c0.099,0.011,0.193,0.021,0.291,0.032c0.211,0.025,0.422,0.037,0.628,0.037
		c1.107,0,2.15-0.347,3.019-0.94c0.188,0.248,0.365,0.5,0.516,0.763c0.299,0.517,0.548,1.074,0.762,1.661
		c-1.396,0.993-2.294,2.632-2.263,4.473c0.001,0.088,0.001,0.177,0.001,0.267c0,1.977,1.07,3.7,2.659,4.634
		c-0.206,1.01-0.491,1.899-0.86,2.649c-0.022,0.044-0.049,0.087-0.071,0.13c-2.004-0.599-4.263,0.007-5.681,1.721
		c-0.051,0.059-0.101,0.118-0.153,0.178c-1.1,1.266-1.501,2.9-1.24,4.434c-0.85,0.346-1.761,0.625-2.731,0.84
		c-0.94-1.686-2.758-2.809-4.824-2.758c-0.113,0.003-0.227,0.006-0.343,0.008c-2.336,0.048-4.287,1.582-4.984,3.679
		c-1.023,0.025-2.083,0.039-3.187,0.039h-3.737c-0.538-1.718-1.917-3.062-3.655-3.557V69.608c1.667-0.475,3-1.733,3.581-3.352h4.211
		c0.753,1.709,2.374,2.979,4.364,3.187c0.098,0.011,0.195,0.02,0.291,0.031c0.211,0.025,0.421,0.037,0.628,0.037
		c2.079,0,3.933-1.207,4.818-3.018c0.183,0.012,0.37,0.021,0.548,0.034C92.051,66.588,92.905,66.703,93.732,66.842z"/>
</g>
</svg>
