<?xml version="1.0" encoding="utf-8"?>
<!-- Generator: Adobe Illustrator 15.0.0, SVG Export Plug-In . SVG Version: 6.00 Build 0)  -->
<!DOCTYPE svg PUBLIC "-//W3C//DTD SVG 1.1//EN" "http://www.w3.org/Graphics/SVG/1.1/DTD/svg11.dtd">
<svg version="1.1" id="Laag_1" xmlns="http://www.w3.org/2000/svg" xmlns:xlink="http://www.w3.org/1999/xlink" x="0px" y="0px"
	 width="128px" height="128px" viewBox="0 0 128 128" enable-background="new 0 0 128 128" xml:space="preserve">
<path d="M63.166,119.643c0,1.039-0.843,1.875-1.874,1.875c-1.04,0-1.874-0.836-1.874-1.875c0-1.029,0.834-1.873,1.874-1.873
	C62.322,117.77,63.166,118.613,63.166,119.643z"/>
<path d="M17.194,52.691c0,1.04-0.844,1.874-1.875,1.874c-1.03,0-1.874-0.834-1.874-1.874c0-1.031,0.843-1.875,1.874-1.875
	C16.35,50.816,17.194,51.66,17.194,52.691z"/>
<path d="M47.151,57.385c0,1.031-0.843,1.875-1.875,1.875c-1.04,0-1.874-0.843-1.874-1.875c0-1.04,0.834-1.874,1.874-1.874
	C46.308,55.511,47.151,56.345,47.151,57.385z"/>
<path d="M85.515,113.758c0,1.041-0.844,1.875-1.875,1.875c-1.041,0-1.875-0.834-1.875-1.875c0-1.031,0.834-1.873,1.875-1.873
	C84.671,111.885,85.515,112.729,85.515,113.758z"/>
<path d="M90.329,96.211c0,1.039-0.833,1.873-1.871,1.873c-1.033,0-1.875-0.834-1.875-1.873c0-1.033,0.842-1.875,1.875-1.875
	C89.496,94.336,90.329,95.176,90.329,96.211z"/>
<path d="M108.529,105.035c0,1.031-0.842,1.875-1.875,1.875c-1.039,0-1.874-0.844-1.874-1.875c0-1.041,0.835-1.871,1.874-1.871
	C107.688,103.164,108.529,103.994,108.529,105.035z"/>
<path d="M101.811,28.046c0,1.03-0.841,1.874-1.875,1.874c-1.039,0-1.874-0.843-1.874-1.874c0-1.041,0.835-1.875,1.874-1.875
	C100.97,26.172,101.811,27.006,101.811,28.046z"/>
<path d="M115.923,82.264c0,1.031-0.836,1.875-1.875,1.875c-1.029,0-1.873-0.844-1.873-1.875c0-1.039,0.844-1.875,1.873-1.875
	C115.087,80.389,115.923,81.223,115.923,82.264z"/>
<path d="M60.13,70.047c0,1.029-0.844,1.875-1.874,1.875c-1.041,0-1.875-0.846-1.875-1.875c0-1.041,0.833-1.873,1.875-1.873
	C59.286,68.174,60.13,69.004,60.13,70.047z"/>
<path d="M40.424,46.262c0,1.03-0.844,1.874-1.875,1.874c-1.04,0-1.875-0.844-1.875-1.874c0-1.041,0.834-1.875,1.875-1.875
	C39.58,44.388,40.424,45.222,40.424,46.262z"/>
<path d="M17.615,56.158c0,1.031-0.835,1.874-1.875,1.874c-1.031,0-1.874-0.843-1.874-1.874c0-1.031,0.843-1.875,1.874-1.875
	C16.78,54.283,17.615,55.127,17.615,56.158z"/>
<path d="M106.804,15.349c0,1.03-0.842,1.874-1.873,1.874c-1.039,0-1.875-0.844-1.875-1.874c0-1.031,0.836-1.875,1.875-1.875
	C105.962,13.474,106.804,14.318,106.804,15.349z"/>
<path d="M87.595,59.606c0,1.041-0.842,1.875-1.875,1.875c-1.039,0-1.873-0.834-1.873-1.875c0-1.031,0.834-1.874,1.873-1.874
	C86.753,57.733,87.595,58.575,87.595,59.606z"/>
<path d="M47.591,28.242c0,1.031-0.834,1.875-1.874,1.875c-1.031,0-1.875-0.843-1.875-1.875c0-1.04,0.843-1.875,1.875-1.875
	C46.758,26.368,47.591,27.203,47.591,28.242z"/>
<path d="M30.968,120.701c0,1.041-0.834,1.875-1.875,1.875c-1.031,0-1.875-0.834-1.875-1.875c0-1.029,0.844-1.871,1.875-1.871
	C30.134,118.83,30.968,119.674,30.968,120.701z"/>
<path d="M76.061,21.599c0,1.031-0.843,1.875-1.875,1.875c-1.039,0-1.874-0.844-1.874-1.875c0-1.04,0.835-1.874,1.874-1.874
	C75.216,19.725,76.061,20.559,76.061,21.599z"/>
<path d="M87.399,76.463c0,1.031-0.844,1.875-1.875,1.875c-1.04,0-1.874-0.844-1.874-1.875c0-1.039,0.834-1.873,1.874-1.873
	C86.556,74.59,87.399,75.424,87.399,76.463z"/>
<path d="M52.399,4.189c0,1.04-0.834,1.874-1.875,1.874c-1.031,0-1.874-0.834-1.874-1.874c0-1.031,0.843-1.875,1.874-1.875
	C51.565,2.314,52.399,3.157,52.399,4.189z"/>
<path d="M34.529,19.509c0,1.04-0.843,1.874-1.875,1.874c-1.04,0-1.874-0.834-1.874-1.874c0-1.031,0.834-1.874,1.874-1.874
	C33.687,17.635,34.529,18.479,34.529,19.509z"/>
<path d="M27.867,103.281c0,1.033-0.844,1.875-1.875,1.875c-1.04,0-1.874-0.842-1.874-1.875c0-1.029,0.834-1.871,1.874-1.871
	C27.023,101.41,27.867,102.252,27.867,103.281z"/>
<path d="M65.557,119.383c0,1.033-0.844,1.875-1.875,1.875c-1.041,0-1.875-0.842-1.875-1.875c0-1.041,0.834-1.875,1.875-1.875
	C64.713,117.508,65.557,118.342,65.557,119.383z"/>
<path d="M52.625,14.497c0,1.04-0.844,1.875-1.875,1.875c-1.03,0-1.874-0.834-1.874-1.875c0-1.031,0.844-1.874,1.874-1.874
	C51.78,12.623,52.625,13.465,52.625,14.497z"/>
<path d="M92.579,76.184c0,1.039-0.844,1.873-1.875,1.873c-1.029,0-1.874-0.834-1.874-1.873c0-1.031,0.845-1.875,1.874-1.875
	C91.736,74.309,92.579,75.152,92.579,76.184z"/>
<path d="M59.09,107.182c0,1.039-0.843,1.875-1.875,1.875c-1.04,0-1.874-0.836-1.874-1.875c0-1.031,0.834-1.875,1.874-1.875
	C58.246,105.307,59.09,106.15,59.09,107.182z"/>
<path d="M92.308,102.834c0,1.039-0.842,1.875-1.875,1.875c-1.039,0-1.871-0.836-1.871-1.875c0-1.033,0.832-1.875,1.871-1.875
	C91.466,100.959,92.308,101.801,92.308,102.834z"/>
<path d="M94.427,56.074c0,1.031-0.844,1.874-1.875,1.874c-1.041,0-1.873-0.843-1.873-1.874c0-1.041,0.832-1.875,1.873-1.875
	C93.583,54.199,94.427,55.033,94.427,56.074z"/>
<path d="M95.017,10.438c0,1.04-0.834,1.875-1.875,1.875c-1.03,0-1.875-0.834-1.875-1.875c0-1.031,0.845-1.874,1.875-1.874
	C94.183,8.565,95.017,9.407,95.017,10.438z"/>
<path d="M34.07,116.936c0,1.031-0.835,1.875-1.875,1.875c-1.031,0-1.875-0.844-1.875-1.875c0-1.039,0.843-1.875,1.875-1.875
	C33.236,115.061,34.07,115.895,34.07,116.936z"/>
<path d="M44.565,21.478c0,1.04-0.844,1.874-1.874,1.874c-1.036,0-1.876-0.834-1.876-1.874c0-1.031,0.84-1.875,1.876-1.875
	C43.721,19.604,44.565,20.446,44.565,21.478z"/>
<path d="M26.489,14.534c0,1.03-0.833,1.874-1.874,1.874c-1.031,0-1.875-0.843-1.875-1.874c0-1.041,0.844-1.875,1.875-1.875
	C25.655,12.659,26.489,13.493,26.489,14.534z"/>
<path d="M25.28,60.796c0,1.04-0.834,1.875-1.875,1.875c-1.03,0-1.874-0.834-1.874-1.875c0-1.031,0.843-1.875,1.874-1.875
	C24.446,58.922,25.28,59.765,25.28,60.796z"/>
<path d="M44.94,106.928c0,1.031-0.833,1.875-1.874,1.875c-1.031,0-1.87-0.844-1.87-1.875c0-1.039,0.839-1.875,1.87-1.875
	C44.106,105.053,44.94,105.889,44.94,106.928z"/>
<path d="M63.429,53.479c0,1.04-0.835,1.875-1.875,1.875c-1.031,0-1.875-0.834-1.875-1.875c0-1.031,0.844-1.874,1.875-1.874
	C62.594,51.604,63.429,52.447,63.429,53.479z"/>
<path d="M87.548,93.014c0,1.039-0.843,1.873-1.875,1.873c-1.039,0-1.873-0.834-1.873-1.873c0-1.031,0.834-1.873,1.873-1.873
	C86.705,91.141,87.548,91.982,87.548,93.014z"/>
<path d="M39.75,36.808c0,1.03-0.844,1.874-1.875,1.874c-1.04,0-1.874-0.843-1.874-1.874c0-1.041,0.833-1.875,1.874-1.875
	C38.905,34.933,39.75,35.767,39.75,36.808z"/>
<path d="M90.489,107.998c0,1.031-0.844,1.875-1.873,1.875c-1.04,0-1.874-0.844-1.874-1.875c0-1.041,0.834-1.875,1.874-1.875
	C89.646,106.123,90.489,106.955,90.489,107.998z"/>
<path d="M107.273,84.074c0,1.031-0.843,1.873-1.874,1.873c-1.039,0-1.875-0.842-1.875-1.873c0-1.033,0.836-1.875,1.875-1.875
	C106.431,82.199,107.273,83.041,107.273,84.074z"/>
<path d="M32.739,65.914c0,1.039-0.834,1.873-1.875,1.873c-1.031,0-1.874-0.836-1.874-1.873c0-1.031,0.843-1.875,1.874-1.875
	C31.905,64.039,32.739,64.883,32.739,65.914z"/>
<path d="M111.528,33.191c0,1.03-0.844,1.875-1.875,1.875c-1.04,0-1.872-0.844-1.872-1.875c0-1.041,0.832-1.875,1.872-1.875
	C110.685,31.316,111.528,32.15,111.528,33.191z"/>
<path d="M37.191,24.317c0,1.031-0.844,1.874-1.875,1.874c-1.04,0-1.874-0.843-1.874-1.874c0-1.041,0.833-1.875,1.874-1.875
	C36.347,22.442,37.191,23.276,37.191,24.317z"/>
<path d="M95.261,18.994c0,1.041-0.834,1.874-1.875,1.874c-1.032,0-1.875-0.833-1.875-1.874c0-1.03,0.843-1.875,1.875-1.875
	C94.427,17.119,95.261,17.964,95.261,18.994z"/>
<path d="M61.638,123.186c0,1.031-0.833,1.875-1.874,1.875c-1.031,0-1.875-0.844-1.875-1.875c0-1.039,0.844-1.873,1.875-1.873
	C60.804,121.312,61.638,122.145,61.638,123.186z"/>
<path d="M45.568,5.491c0,1.031-0.843,1.874-1.874,1.874c-1.041,0-1.878-0.843-1.878-1.874c0-1.031,0.838-1.875,1.878-1.875
	C44.724,3.616,45.568,4.46,45.568,5.491z"/>
<path d="M92.88,94.736c0,1.029-0.844,1.873-1.875,1.873c-1.039,0-1.873-0.844-1.873-1.873c0-1.039,0.834-1.875,1.873-1.875
	C92.034,92.861,92.88,93.697,92.88,94.736z"/>
<path d="M20.642,98.682c0,1.031-0.834,1.875-1.875,1.875c-1.031,0-1.874-0.844-1.874-1.875c0-1.041,0.843-1.875,1.874-1.875
	C19.807,96.807,20.642,97.641,20.642,98.682z"/>
<path d="M65.78,7.505c0,1.04-0.844,1.875-1.874,1.875c-1.041,0-1.875-0.834-1.875-1.875c0-1.031,0.834-1.874,1.875-1.874
	C64.938,5.632,65.78,6.474,65.78,7.505z"/>
<path d="M35.757,35.392c0,1.041-0.844,1.875-1.875,1.875c-1.03,0-1.874-0.834-1.874-1.875c0-1.03,0.843-1.875,1.874-1.875
	C34.913,33.519,35.757,34.362,35.757,35.392z"/>
<path d="M27.164,53.6c0,1.04-0.844,1.874-1.875,1.874c-1.04,0-1.874-0.834-1.874-1.874c0-1.031,0.833-1.875,1.874-1.875
	C26.32,51.725,27.164,52.569,27.164,53.6z"/>
<path d="M69.406,68.023c0,1.029-0.844,1.873-1.874,1.873s-1.875-0.844-1.875-1.873c0-1.043,0.845-1.875,1.875-1.875
	C68.563,66.146,69.406,66.98,69.406,68.023z"/>
<path d="M62.82,7.188c0,1.03-0.844,1.875-1.875,1.875c-1.041,0-1.874-0.844-1.874-1.875c0-1.041,0.833-1.874,1.874-1.874
	C61.976,5.313,62.82,6.146,62.82,7.188z"/>
<path d="M96.677,108.342c0,1.033-0.834,1.875-1.875,1.875c-1.031,0-1.875-0.842-1.875-1.875c0-1.037,0.844-1.873,1.875-1.873
	C95.843,106.469,96.677,107.305,96.677,108.342z"/>
<path d="M101.933,25.197c0,1.031-0.844,1.874-1.875,1.874c-1.038,0-1.875-0.843-1.875-1.874c0-1.04,0.837-1.875,1.875-1.875
	C101.089,23.323,101.933,24.157,101.933,25.197z"/>
<path d="M37.65,110.395c0,1.039-0.834,1.873-1.875,1.873c-1.03,0-1.874-0.834-1.874-1.873c0-1.031,0.843-1.873,1.874-1.873
	C36.816,108.521,37.65,109.365,37.65,110.395z"/>
<path d="M36.02,20.568c0,1.031-0.844,1.875-1.875,1.875c-1.04,0-1.874-0.843-1.874-1.875c0-1.04,0.834-1.874,1.874-1.874
	C35.175,18.694,36.02,19.528,36.02,20.568z"/>
<path d="M44.068,114.762c0,1.031-0.834,1.875-1.871,1.875c-1.035,0-1.877-0.844-1.877-1.875c0-1.039,0.842-1.875,1.877-1.875
	C43.234,112.887,44.068,113.721,44.068,114.762z"/>
<path d="M37.696,119.945c0,1.029-0.834,1.873-1.875,1.873c-1.03,0-1.874-0.844-1.874-1.873c0-1.041,0.843-1.875,1.874-1.875
	C36.862,118.07,37.696,118.902,37.696,119.945z"/>
<path d="M59.848,21.758c0,1.041-0.843,1.875-1.875,1.875c-1.04,0-1.874-0.834-1.874-1.875c0-1.03,0.834-1.874,1.874-1.874
	C59.005,19.884,59.848,20.729,59.848,21.758z"/>
<path d="M73.351,77.148c0,1.039-0.834,1.873-1.873,1.873c-1.031,0-1.873-0.834-1.873-1.873c0-1.031,0.842-1.873,1.873-1.873
	C72.517,75.275,73.351,76.117,73.351,77.148z"/>
<path d="M86.274,81.787c0,1.037-0.844,1.873-1.874,1.873c-1.039,0-1.875-0.836-1.875-1.873c0-1.031,0.836-1.873,1.875-1.873
	C85.431,79.914,86.274,80.756,86.274,81.787z"/>
<path d="M20.708,35.627c0,1.031-0.833,1.875-1.875,1.875c-1.03,0-1.874-0.844-1.874-1.875c0-1.04,0.843-1.875,1.874-1.875
	C19.875,33.752,20.708,34.587,20.708,35.627z"/>
<path d="M37.293,110.012c0,1.031-0.843,1.873-1.874,1.873c-1.041,0-1.875-0.842-1.875-1.873c0-1.041,0.834-1.875,1.875-1.875
	C36.45,108.137,37.293,108.971,37.293,110.012z"/>
<path d="M47.329,16.876c0,1.031-0.843,1.875-1.874,1.875c-1.04,0-1.875-0.844-1.875-1.875c0-1.04,0.834-1.875,1.875-1.875
	C46.486,15.002,47.329,15.836,47.329,16.876z"/>
<path d="M80.744,55.98c0,1.03-0.834,1.874-1.873,1.874c-1.03,0-1.875-0.844-1.875-1.874c0-1.031,0.845-1.875,1.875-1.875
	C79.91,54.106,80.744,54.949,80.744,55.98z"/>
<path d="M44.762,12.557c0,1.04-0.834,1.874-1.875,1.874c-1.032,0-1.871-0.834-1.871-1.874c0-1.031,0.839-1.875,1.871-1.875
	C43.927,10.682,44.762,11.526,44.762,12.557z"/>
<path d="M47.722,42.167c0,1.031-0.843,1.875-1.874,1.875c-1.04,0-1.875-0.844-1.875-1.875c0-1.04,0.834-1.874,1.875-1.874
	C46.88,40.293,47.722,41.127,47.722,42.167z"/>
<path d="M44.979,105.803c0,1.039-0.834,1.875-1.875,1.875c-1.032,0-1.871-0.836-1.871-1.875c0-1.031,0.839-1.875,1.871-1.875
	C44.144,103.928,44.979,104.771,44.979,105.803z"/>
<path d="M86.481,108.576c0,1.041-0.844,1.875-1.875,1.875c-1.039,0-1.874-0.834-1.874-1.875c0-1.029,0.835-1.873,1.874-1.873
	C85.636,106.703,86.481,107.547,86.481,108.576z"/>
<path d="M98.661,8.687c0,1.031-0.844,1.875-1.873,1.875c-1.039,0-1.874-0.844-1.874-1.875c0-1.04,0.835-1.874,1.874-1.874
	C97.817,6.812,98.661,7.646,98.661,8.687z"/>
<path d="M109.897,14.43c0,1.03-0.844,1.875-1.874,1.875c-1.039,0-1.875-0.844-1.875-1.875c0-1.041,0.836-1.874,1.875-1.874
	C109.054,12.557,109.897,13.39,109.897,14.43z"/>
<path d="M67.607,114.695c0,1.041-0.834,1.875-1.875,1.875c-1.03,0-1.874-0.834-1.874-1.875c0-1.029,0.844-1.873,1.874-1.873
	C66.773,112.822,67.607,113.668,67.607,114.695z"/>
<path d="M34.051,38.465c0,1.041-0.834,1.875-1.874,1.875c-1.031,0-1.874-0.833-1.874-1.875c0-1.03,0.843-1.874,1.874-1.874
	C33.217,36.592,34.051,37.437,34.051,38.465z"/>
<path d="M67.027,108.158c0,1.037-0.844,1.871-1.875,1.871c-1.04,0-1.874-0.834-1.874-1.871c0-1.033,0.833-1.875,1.874-1.875
	C66.184,106.283,67.027,107.125,67.027,108.158z"/>
<path d="M94.353,7.945c0,1.041-0.844,1.875-1.874,1.875c-1.041,0-1.875-0.834-1.875-1.875c0-1.03,0.834-1.875,1.875-1.875
	C93.509,6.071,94.353,6.916,94.353,7.945z"/>
<path d="M40.536,46.599c0,1.041-0.844,1.874-1.875,1.874c-1.04,0-1.874-0.833-1.874-1.874c0-1.03,0.834-1.875,1.874-1.875
	C39.692,44.725,40.536,45.569,40.536,46.599z"/>
<path d="M92.224,22.151c0,1.041-0.842,1.875-1.875,1.875c-1.038,0-1.873-0.833-1.873-1.875c0-1.03,0.835-1.874,1.873-1.874
	C91.38,20.277,92.224,21.122,92.224,22.151z"/>
<path d="M106.122,15.986c0,1.031-0.844,1.875-1.875,1.875c-1.039,0-1.873-0.843-1.873-1.875c0-1.04,0.834-1.875,1.873-1.875
	C105.278,14.111,106.122,14.946,106.122,15.986z"/>
<path d="M26.995,42.57c0,1.04-0.843,1.875-1.874,1.875c-1.031,0-1.875-0.834-1.875-1.875c0-1.031,0.843-1.874,1.875-1.874
	C26.152,40.696,26.995,41.54,26.995,42.57z"/>
<path d="M57.44,13.784c0,1.04-0.842,1.875-1.874,1.875c-1.04,0-1.875-0.834-1.875-1.875c0-1.031,0.835-1.875,1.875-1.875
	C56.597,11.909,57.44,12.753,57.44,13.784z"/>
<path d="M49.279,111.885c0,1.031-0.843,1.873-1.875,1.873c-1.04,0-1.874-0.842-1.874-1.873c0-1.041,0.834-1.873,1.874-1.873
	C48.436,110.012,49.279,110.844,49.279,111.885z"/>
<path d="M95.813,61.752c0,1.04-0.842,1.875-1.875,1.875c-1.039,0-1.874-0.835-1.874-1.875c0-1.031,0.835-1.874,1.874-1.874
	C94.97,59.879,95.813,60.721,95.813,61.752z"/>
<path d="M89.741,20.465c0,1.031-0.835,1.875-1.874,1.875c-1.03,0-1.875-0.844-1.875-1.875c0-1.041,0.845-1.874,1.875-1.874
	C88.907,18.591,89.741,19.424,89.741,20.465z"/>
<path d="M45.67,40.706c0,1.041-0.833,1.875-1.874,1.875c-1.031,0-1.871-0.833-1.871-1.875c0-1.03,0.84-1.874,1.871-1.874
	C44.837,38.833,45.67,39.675,45.67,40.706z"/>
<path d="M107.884,22.929c0,1.031-0.838,1.875-1.875,1.875c-1.03,0-1.873-0.844-1.873-1.875c0-1.04,0.843-1.874,1.873-1.874
	C107.046,21.056,107.884,21.889,107.884,22.929z"/>
<path d="M86.32,25.656c0,1.031-0.845,1.875-1.874,1.875c-1.039,0-1.875-0.844-1.875-1.875c0-1.04,0.836-1.874,1.875-1.874
	C85.476,23.782,86.32,24.616,86.32,25.656z"/>
<path d="M89.655,54.902c0,1.031-0.843,1.875-1.874,1.875c-1.039,0-1.875-0.843-1.875-1.875c0-1.041,0.836-1.875,1.875-1.875
	C88.813,53.027,89.655,53.861,89.655,54.902z"/>
<path d="M56.513,104.916c0,1.039-0.844,1.871-1.874,1.871c-1.041,0-1.875-0.832-1.875-1.871c0-1.033,0.833-1.875,1.875-1.875
	C55.669,103.041,56.513,103.883,56.513,104.916z"/>
<path d="M20.82,107.641c0,1.031-0.843,1.873-1.874,1.873c-1.041,0-1.875-0.842-1.875-1.873c0-1.033,0.834-1.875,1.875-1.875
	C19.976,105.766,20.82,106.607,20.82,107.641z"/>
<path d="M106.843,106.338c0,1.039-0.844,1.875-1.875,1.875c-1.041,0-1.873-0.836-1.873-1.875c0-1.031,0.832-1.873,1.873-1.873
	C105.999,104.465,106.843,105.307,106.843,106.338z"/>
<path d="M97.65,108.576c0,1.033-0.843,1.875-1.874,1.875c-1.039,0-1.873-0.842-1.873-1.875c0-1.029,0.834-1.873,1.873-1.873
	C96.806,106.703,97.65,107.547,97.65,108.576z"/>
<path d="M50.216,50.686c0,1.04-0.835,1.875-1.875,1.875c-1.031,0-1.875-0.834-1.875-1.875c0-1.031,0.843-1.875,1.875-1.875
	C49.381,48.812,50.216,49.654,50.216,50.686z"/>
<path d="M49.362,56.364c0,1.041-0.833,1.875-1.875,1.875c-1.03,0-1.874-0.834-1.874-1.875c0-1.031,0.844-1.874,1.874-1.874
	C48.529,54.49,49.362,55.333,49.362,56.364z"/>
<path d="M104.819,15.274c0,1.031-0.836,1.874-1.875,1.874c-1.031,0-1.874-0.843-1.874-1.874c0-1.04,0.843-1.874,1.874-1.874
	C103.983,13.4,104.819,14.234,104.819,15.274z"/>
<path d="M33.573,110.348c0,1.039-0.844,1.875-1.874,1.875c-1.041,0-1.875-0.836-1.875-1.875c0-1.029,0.833-1.871,1.875-1.871
	C32.73,108.477,33.573,109.318,33.573,110.348z"/>
<path d="M27.314,53.506c0,1.04-0.835,1.874-1.875,1.874c-1.031,0-1.875-0.834-1.875-1.874c0-1.031,0.843-1.875,1.875-1.875
	C26.479,51.632,27.314,52.475,27.314,53.506z"/>
<path d="M73.511,6.24c0,1.031-0.844,1.875-1.873,1.875c-1.04,0-1.876-0.843-1.876-1.875c0-1.04,0.836-1.874,1.876-1.874
	C72.667,4.366,73.511,5.2,73.511,6.24z"/>
<path d="M59.117,1.611c0,1.04-0.834,1.875-1.874,1.875c-1.031,0-1.875-0.834-1.875-1.875c0-1.031,0.844-1.874,1.875-1.874
	C58.283-0.263,59.117,0.581,59.117,1.611z"/>
<path d="M40.433,120.814c0,1.031-0.843,1.873-1.875,1.873c-1.04,0-1.875-0.842-1.875-1.873s0.835-1.873,1.875-1.873
	C39.59,118.941,40.433,119.785,40.433,120.814z"/>
<path d="M48.52,116.223c0,1.033-0.843,1.875-1.874,1.875c-1.04,0-1.874-0.842-1.874-1.875c0-1.037,0.834-1.873,1.874-1.873
	C47.676,114.35,48.52,115.186,48.52,116.223z"/>
<path d="M82.786,4.338c0,1.031-0.842,1.875-1.873,1.875c-1.039,0-1.874-0.844-1.874-1.875c0-1.031,0.835-1.873,1.874-1.873
	C81.945,2.465,82.786,3.307,82.786,4.338z"/>
<path d="M67.438,108.828c0,1.033-0.842,1.875-1.874,1.875c-1.039,0-1.874-0.842-1.874-1.875c0-1.039,0.835-1.873,1.874-1.873
	C66.596,106.955,67.438,107.789,67.438,108.828z"/>
<path d="M66.85,60.056c0,1.031-0.836,1.874-1.875,1.874c-1.03,0-1.875-0.843-1.875-1.874c0-1.041,0.843-1.875,1.875-1.875
	C66.016,58.182,66.85,59.015,66.85,60.056z"/>
<path d="M69.584,110.32c0,1.039-0.834,1.873-1.873,1.873c-1.031,0-1.875-0.834-1.875-1.873c0-1.033,0.844-1.875,1.875-1.875
	C68.75,108.445,69.584,109.291,69.584,110.32z"/>
<path d="M39.337,46.721c0,1.031-0.844,1.875-1.875,1.875c-1.041,0-1.874-0.843-1.874-1.875c0-1.031,0.833-1.874,1.874-1.874
	C38.493,44.848,39.337,45.691,39.337,46.721z"/>
<path d="M21.447,120.461c0,1.029-0.844,1.873-1.874,1.873c-1.031,0-1.875-0.844-1.875-1.873c0-1.039,0.843-1.875,1.875-1.875
	C20.604,118.586,21.447,119.42,21.447,120.461z"/>
<path d="M64.496,11.975c0,1.041-0.844,1.875-1.874,1.875c-1.04,0-1.874-0.833-1.874-1.875c0-1.03,0.834-1.874,1.874-1.874
	C63.653,10.101,64.496,10.945,64.496,11.975z"/>
<path d="M96.103,114.051c0,1.039-0.832,1.873-1.874,1.873c-1.029,0-1.875-0.834-1.875-1.873c0-1.033,0.846-1.875,1.875-1.875
	C95.271,112.176,96.103,113.018,96.103,114.051z"/>
<path d="M82.779,65.08c0,1.029-0.836,1.873-1.875,1.873c-1.03,0-1.874-0.844-1.874-1.873c0-1.042,0.844-1.875,1.874-1.875
	C81.945,63.205,82.779,64.039,82.779,65.08z"/>
<path d="M73.913,21.805c0,1.031-0.844,1.874-1.873,1.874c-1.039,0-1.874-0.843-1.874-1.874c0-1.04,0.835-1.874,1.874-1.874
	C73.07,19.931,73.913,20.765,73.913,21.805z"/>
<path d="M106.729,22.611c0,1.03-0.841,1.875-1.872,1.875c-1.039,0-1.875-0.844-1.875-1.875c0-1.041,0.836-1.875,1.875-1.875
	C105.888,20.736,106.729,21.57,106.729,22.611z"/>
<path d="M54.367,48.483c0,1.041-0.845,1.874-1.875,1.874c-1.041,0-1.875-0.833-1.875-1.874c0-1.03,0.833-1.874,1.875-1.874
	C53.523,46.609,54.367,47.453,54.367,48.483z"/>
<path d="M53.289,76.943c0,1.029-0.833,1.871-1.874,1.871c-1.031,0-1.875-0.842-1.875-1.871c0-1.039,0.844-1.875,1.875-1.875
	C52.455,75.068,53.289,75.904,53.289,76.943z"/>
<path d="M47.526,18.282c0,1.04-0.843,1.874-1.875,1.874c-1.04,0-1.874-0.833-1.874-1.874c0-1.031,0.834-1.875,1.874-1.875
	C46.683,16.407,47.526,17.251,47.526,18.282z"/>
<path d="M31.409,49.805c0,1.03-0.834,1.874-1.875,1.874c-1.03,0-1.874-0.844-1.874-1.874c0-1.041,0.843-1.875,1.874-1.875
	C30.575,47.93,31.409,48.764,31.409,49.805z"/>
<path d="M80.49,107.406c0,1.031-0.832,1.873-1.873,1.873c-1.032,0-1.874-0.842-1.874-1.873c0-1.039,0.842-1.875,1.874-1.875
	C79.658,105.531,80.49,106.367,80.49,107.406z"/>
<path d="M101.369,12.069c0,1.04-0.843,1.874-1.874,1.874c-1.041,0-1.874-0.834-1.874-1.874c0-1.031,0.833-1.875,1.874-1.875
	C100.527,10.195,101.369,11.039,101.369,12.069z"/>
<path d="M29.244,111.145c0,1.031-0.844,1.873-1.875,1.873c-1.041,0-1.874-0.842-1.874-1.873c0-1.039,0.833-1.873,1.874-1.873
	C28.401,109.271,29.244,110.105,29.244,111.145z"/>
<path d="M102.82,94.398c0,1.033-0.84,1.875-1.872,1.875c-1.041,0-1.875-0.842-1.875-1.875c0-1.039,0.834-1.873,1.875-1.873
	C101.981,92.525,102.82,93.359,102.82,94.398z"/>
<path d="M21.054,106.123c0,1.031-0.834,1.875-1.875,1.875c-1.03,0-1.874-0.844-1.874-1.875c0-1.039,0.843-1.873,1.874-1.873
	C20.22,104.25,21.054,105.082,21.054,106.123z"/>
<path d="M50.384,68.264c0,1.031-0.844,1.875-1.874,1.875c-1.041,0-1.875-0.844-1.875-1.875c0-1.039,0.833-1.873,1.875-1.873
	C49.541,66.391,50.384,67.225,50.384,68.264z"/>
<path d="M106.515,87.383c0,1.039-0.834,1.873-1.873,1.873c-1.033,0-1.873-0.834-1.873-1.873c0-1.031,0.84-1.873,1.873-1.873
	C105.681,85.508,106.515,86.35,106.515,87.383z"/>
<path d="M30.05,58.809c0,1.04-0.834,1.875-1.875,1.875c-1.03,0-1.874-0.834-1.874-1.875c0-1.031,0.844-1.874,1.874-1.874
	C29.216,56.937,30.05,57.778,30.05,58.809z"/>
<path d="M21.176,40.519c0,1.04-0.844,1.875-1.875,1.875c-1.04,0-1.874-0.834-1.874-1.875c0-1.031,0.833-1.874,1.874-1.874
	C20.333,38.645,21.176,39.487,21.176,40.519z"/>
<path d="M75.571,15.011c0,1.031-0.834,1.874-1.875,1.874c-1.029,0-1.874-0.843-1.874-1.874c0-1.04,0.845-1.875,1.874-1.875
	C74.737,13.137,75.571,13.971,75.571,15.011z"/>
<path d="M24.905,39.984c0,1.041-0.843,1.875-1.874,1.875c-1.041,0-1.875-0.834-1.875-1.875c0-1.03,0.834-1.874,1.875-1.874
	C24.062,38.11,24.905,38.955,24.905,39.984z"/>
<path d="M64.028,76.146c0,1.039-0.843,1.873-1.874,1.873c-1.04,0-1.874-0.834-1.874-1.873c0-1.031,0.833-1.873,1.874-1.873
	C63.184,74.273,64.028,75.115,64.028,76.146z"/>
<path d="M35.354,57.132c0,1.031-0.844,1.875-1.875,1.875c-1.031,0-1.875-0.843-1.875-1.875c0-1.04,0.843-1.874,1.875-1.874
	C34.51,55.258,35.354,56.092,35.354,57.132z"/>
<path d="M82.993,85.9c0,1.039-0.834,1.875-1.873,1.875c-1.031,0-1.874-0.836-1.874-1.875c0-1.031,0.843-1.873,1.874-1.873
	C82.159,84.027,82.993,84.869,82.993,85.9z"/>
<path d="M34.183,24.757c0,1.03-0.834,1.875-1.875,1.875c-1.031,0-1.874-0.844-1.874-1.875c0-1.041,0.843-1.875,1.874-1.875
	C33.349,22.882,34.183,23.716,34.183,24.757z"/>
<path d="M19.199,119.391c0,1.039-0.834,1.873-1.875,1.873c-1.031,0-1.874-0.834-1.874-1.873c0-1.029,0.842-1.873,1.874-1.873
	C18.364,117.518,19.199,118.361,19.199,119.391z"/>
<path d="M105.765,103.9c0,1.031-0.834,1.875-1.873,1.875c-1.031,0-1.875-0.844-1.875-1.875c0-1.039,0.844-1.873,1.875-1.873
	C104.931,102.027,105.765,102.861,105.765,103.9z"/>
<path d="M50.225,117.209c0,1.039-0.834,1.875-1.875,1.875c-1.03,0-1.874-0.836-1.874-1.875c0-1.031,0.843-1.875,1.874-1.875
	C49.391,115.334,50.225,116.178,50.225,117.209z"/>
<path d="M94.437,94.625c0,1.029-0.836,1.875-1.874,1.875c-1.031,0-1.875-0.846-1.875-1.875c0-1.041,0.844-1.875,1.875-1.875
	C93.601,92.75,94.437,93.584,94.437,94.625z"/>
<path d="M25.383,48.792c0,1.031-0.834,1.875-1.874,1.875c-1.031,0-1.875-0.843-1.875-1.875c0-1.04,0.843-1.874,1.875-1.874
	C24.549,46.919,25.383,47.753,25.383,48.792z"/>
<path d="M107.218,96.135c0,1.037-0.844,1.873-1.873,1.873c-1.041,0-1.873-0.836-1.873-1.873c0-1.033,0.832-1.875,1.873-1.875
	C106.374,94.26,107.218,95.102,107.218,96.135z"/>
<path d="M83.229,64.235c0,1.031-0.834,1.875-1.874,1.875c-1.031,0-1.873-0.844-1.873-1.875c0-1.03,0.842-1.873,1.873-1.873
	C82.395,62.362,83.229,63.205,83.229,64.235z"/>
<path d="M32.243,34.006c0,1.03-0.844,1.874-1.875,1.874c-1.03,0-1.874-0.844-1.874-1.874c0-1.041,0.844-1.875,1.874-1.875
	C31.399,32.131,32.243,32.965,32.243,34.006z"/>
<path d="M50.834,124.572c0,1.031-0.844,1.875-1.874,1.875c-1.041,0-1.875-0.844-1.875-1.875c0-1.039,0.834-1.873,1.875-1.873
	C49.99,122.699,50.834,123.533,50.834,124.572z"/>
<path d="M83.509,112.881c0,1.027-0.834,1.873-1.875,1.873c-1.028,0-1.871-0.846-1.871-1.873c0-1.041,0.843-1.875,1.871-1.875
	C82.675,111.006,83.509,111.838,83.509,112.881z"/>
<path d="M26.508,99.441c0,1.039-0.843,1.873-1.874,1.873c-1.041,0-1.875-0.834-1.875-1.873c0-1.033,0.834-1.875,1.875-1.875
	C25.664,97.566,26.508,98.408,26.508,99.441z"/>
<path d="M24.502,103.816c0,1.039-0.842,1.873-1.874,1.873c-1.041,0-1.875-0.834-1.875-1.873c0-1.031,0.834-1.873,1.875-1.873
	C23.66,101.943,24.502,102.785,24.502,103.816z"/>
<path d="M17.934,40.303c0,1.03-0.844,1.874-1.875,1.874c-1.04,0-1.874-0.843-1.874-1.874c0-1.041,0.834-1.875,1.874-1.875
	C17.09,38.428,17.934,39.262,17.934,40.303z"/>
<path d="M50.544,50.995c0,1.03-0.834,1.874-1.874,1.874c-1.031,0-1.875-0.843-1.875-1.874c0-1.041,0.843-1.875,1.875-1.875
	C49.709,49.12,50.544,49.955,50.544,50.995z"/>
<path d="M106.494,7.739c0,1.031-0.833,1.875-1.873,1.875c-1.032,0-1.875-0.843-1.875-1.875c0-1.04,0.843-1.874,1.875-1.874
	C105.661,5.866,106.494,6.7,106.494,7.739z"/>
<path d="M35.663,100.826c0,1.041-0.844,1.875-1.874,1.875c-1.041,0-1.875-0.834-1.875-1.875c0-1.029,0.833-1.873,1.875-1.873
	C34.819,98.953,35.663,99.799,35.663,100.826z"/>
<path d="M30.997,11.085c0,1.041-0.844,1.875-1.875,1.875c-1.041,0-1.874-0.834-1.874-1.875c0-1.03,0.833-1.874,1.874-1.874
	C30.153,9.211,30.997,10.054,30.997,11.085z"/>
<path d="M83.743,114.572c0,1.041-0.842,1.875-1.875,1.875c-1.037,0-1.872-0.834-1.872-1.875c0-1.027,0.835-1.873,1.872-1.873
	C82.898,112.699,83.743,113.545,83.743,114.572z"/>
<path d="M108.913,108.418c0,1.031-0.834,1.875-1.875,1.875c-1.031,0-1.874-0.844-1.874-1.875c0-1.039,0.843-1.873,1.874-1.873
	C108.079,106.545,108.913,107.379,108.913,108.418z"/>
<path d="M115.595,80.438c0,1.031-0.836,1.875-1.875,1.875c-1.029,0-1.873-0.844-1.873-1.875c0-1.041,0.844-1.873,1.873-1.873
	C114.759,78.564,115.595,79.396,115.595,80.438z"/>
<path d="M36.178,46.599c0,1.031-0.834,1.874-1.875,1.874c-1.03,0-1.874-0.843-1.874-1.874c0-1.04,0.844-1.875,1.874-1.875
	C35.344,44.725,36.178,45.561,36.178,46.599z"/>
<path d="M99.476,81.346c0,1.039-0.831,1.875-1.873,1.875c-1.031,0-1.873-0.836-1.873-1.875c0-1.033,0.842-1.875,1.873-1.875
	C98.645,79.471,99.476,80.314,99.476,81.346z"/>
<path d="M29.807,11.544c0,1.04-0.844,1.875-1.875,1.875c-1.031,0-1.874-0.834-1.874-1.875c0-1.031,0.843-1.875,1.874-1.875
	C28.963,9.67,29.807,10.513,29.807,11.544z"/>
<path d="M79.619,117.434c0,1.029-0.834,1.873-1.874,1.873c-1.031,0-1.875-0.844-1.875-1.873c0-1.041,0.844-1.875,1.875-1.875
	C78.785,115.559,79.619,116.393,79.619,117.434z"/>
<path d="M24.269,119.137c0,1.039-0.843,1.873-1.874,1.873c-1.031,0-1.875-0.834-1.875-1.873c0-1.031,0.844-1.875,1.875-1.875
	C23.425,117.262,24.269,118.107,24.269,119.137z"/>
<path d="M59.541,15.902c0,1.031-0.834,1.874-1.875,1.874c-1.031,0-1.875-0.842-1.875-1.874c0-1.04,0.844-1.875,1.875-1.875
	C58.705,14.027,59.541,14.862,59.541,15.902z"/>
<path d="M17.138,97.236c0,1.033-0.835,1.875-1.875,1.875c-1.031,0-1.875-0.842-1.875-1.875c0-1.039,0.843-1.873,1.875-1.873
	C16.303,95.363,17.138,96.197,17.138,97.236z"/>
<path d="M89.964,86.725c0,1.031-0.832,1.875-1.871,1.875c-1.033,0-1.875-0.844-1.875-1.875c0-1.029,0.842-1.873,1.875-1.873
	C89.132,84.852,89.964,85.695,89.964,86.725z"/>
<path d="M48.697,13.194c0,1.041-0.843,1.874-1.874,1.874c-1.04,0-1.875-0.833-1.875-1.874c0-1.031,0.834-1.875,1.875-1.875
	C47.854,11.319,48.697,12.162,48.697,13.194z"/>
<path d="M81.007,123.854c0,1.029-0.843,1.873-1.873,1.873c-1.039,0-1.875-0.844-1.875-1.873c0-1.043,0.836-1.875,1.875-1.875
	C80.162,121.979,81.007,122.811,81.007,123.854z"/>
<path d="M63.653,12.191c0,1.031-0.833,1.875-1.874,1.875c-1.03,0-1.875-0.844-1.875-1.875c0-1.04,0.844-1.874,1.875-1.874
	C62.82,10.317,63.653,11.151,63.653,12.191z"/>
<path d="M106.862,86.695c0,1.039-0.837,1.873-1.875,1.873c-1.029,0-1.874-0.834-1.874-1.873c0-1.029,0.845-1.873,1.874-1.873
	C106.026,84.822,106.862,85.668,106.862,86.695z"/>
<path d="M73.333,120.721c0,1.039-0.844,1.875-1.873,1.875c-1.042,0-1.876-0.836-1.876-1.875c0-1.031,0.834-1.873,1.876-1.873
	C72.489,118.848,73.333,119.689,73.333,120.721z"/>
<path d="M71.158,66.277c0,1.041-0.836,1.875-1.873,1.875c-1.031,0-1.874-0.834-1.874-1.875c0-1.029,0.843-1.873,1.874-1.873
	C70.322,64.405,71.158,65.248,71.158,66.277z"/>
<path d="M26.611,64.048c0,1.032-0.843,1.874-1.875,1.874c-1.04,0-1.874-0.842-1.874-1.874c0-1.04,0.834-1.874,1.874-1.874
	C25.769,62.174,26.611,63.007,26.611,64.048z"/>
<path d="M108.935,65.115c0,1.031-0.846,1.875-1.874,1.875c-1.044,0-1.875-0.844-1.875-1.875c0-1.039,0.831-1.873,1.875-1.873
	C108.087,63.243,108.935,64.077,108.935,65.115z"/>
<path d="M85.731,56.682c0,1.031-0.835,1.874-1.874,1.874c-1.033,0-1.875-0.843-1.875-1.874c0-1.04,0.842-1.874,1.875-1.874
	C84.896,54.808,85.731,55.642,85.731,56.682z"/>
<path d="M20.744,116.787c0,1.039-0.843,1.873-1.874,1.873c-1.031,0-1.875-0.834-1.875-1.873c0-1.031,0.844-1.875,1.875-1.875
	C19.901,114.912,20.744,115.756,20.744,116.787z"/>
<path d="M60.786,51.407c0,1.031-0.834,1.875-1.875,1.875c-1.03,0-1.875-0.844-1.875-1.875c0-1.041,0.844-1.875,1.875-1.875
	C59.952,49.532,60.786,50.366,60.786,51.407z"/>
<path d="M97.499,23.792c0,1.04-0.835,1.875-1.875,1.875c-1.029,0-1.873-0.834-1.873-1.875c0-1.031,0.844-1.874,1.873-1.874
	C96.664,21.918,97.499,22.76,97.499,23.792z"/>
<path d="M102.851,62.464c0,1.03-0.844,1.875-1.875,1.875c-1.032,0-1.875-0.845-1.875-1.875c0-1.04,0.843-1.874,1.875-1.874
	C102.007,60.59,102.851,61.424,102.851,62.464z"/>
<path d="M97.405,75.686c0,1.031-0.843,1.875-1.874,1.875c-1.039,0-1.875-0.844-1.875-1.875s0.836-1.875,1.875-1.875
	C96.562,73.811,97.405,74.656,97.405,75.686z"/>
<path d="M85.091,55.173c0,1.031-0.842,1.875-1.875,1.875c-1.037,0-1.871-0.843-1.871-1.875c0-1.04,0.834-1.874,1.871-1.874
	C84.249,53.3,85.091,54.134,85.091,55.173z"/>
<path d="M39.514,54.639c0,1.031-0.834,1.875-1.875,1.875c-1.03,0-1.874-0.843-1.874-1.875c0-1.04,0.843-1.874,1.874-1.874
	C38.68,52.765,39.514,53.6,39.514,54.639z"/>
<path d="M54.198,52.512c0,1.031-0.844,1.875-1.875,1.875c-1.031,0-1.875-0.844-1.875-1.875c0-1.04,0.843-1.874,1.875-1.874
	C53.355,50.638,54.198,51.472,54.198,52.512z"/>
<path d="M69.828,125.08c0,1.039-0.835,1.871-1.874,1.871c-1.03,0-1.875-0.832-1.875-1.871c0-1.033,0.845-1.875,1.875-1.875
	C68.994,123.205,69.828,124.049,69.828,125.08z"/>
<path d="M99.579,63.364c0,1.031-0.844,1.875-1.873,1.875c-1.042,0-1.873-0.843-1.873-1.875c0-1.03,0.831-1.875,1.873-1.875
	C98.736,61.489,99.579,62.333,99.579,63.364z"/>
<path d="M110.356,35.805c0,1.03-0.835,1.874-1.874,1.874c-1.031,0-1.873-0.844-1.873-1.874c0-1.041,0.842-1.875,1.873-1.875
	C109.522,33.93,110.356,34.764,110.356,35.805z"/>
<path d="M85.938,61.377c0,1.031-0.836,1.874-1.875,1.874c-1.03,0-1.874-0.843-1.874-1.874c0-1.04,0.844-1.875,1.874-1.875
	C85.103,59.503,85.938,60.337,85.938,61.377z"/>
<path d="M29.891,102.693c0,1.029-0.834,1.875-1.875,1.875c-1.03,0-1.874-0.846-1.874-1.875c0-1.041,0.844-1.873,1.874-1.873
	C29.057,100.82,29.891,101.652,29.891,102.693z"/>
<path d="M89.693,72.502c0,1.029-0.833,1.873-1.874,1.873c-1.031,0-1.874-0.844-1.874-1.873c0-1.039,0.843-1.875,1.874-1.875
	C88.86,70.627,89.693,71.463,89.693,72.502z"/>
<path d="M76.134,109.945c0,1.039-0.834,1.873-1.873,1.873c-1.031,0-1.875-0.834-1.875-1.873c0-1.031,0.844-1.873,1.875-1.873
	C75.3,108.072,76.134,108.914,76.134,109.945z"/>
<path d="M86.312,8.79c0,1.04-0.836,1.875-1.874,1.875c-1.031,0-1.873-0.835-1.873-1.875c0-1.031,0.842-1.874,1.873-1.874
	C85.476,6.916,86.312,7.758,86.312,8.79z"/>
<path d="M40.236,115.979c0,1.041-0.844,1.875-1.875,1.875c-1.04,0-1.874-0.834-1.874-1.875c0-1.029,0.834-1.875,1.874-1.875
	C39.392,114.104,40.236,114.951,40.236,115.979z"/>
<path d="M54.947,51.725c0,1.04-0.834,1.875-1.874,1.875c-1.031,0-1.875-0.834-1.875-1.875c0-1.031,0.844-1.874,1.875-1.874
	C54.113,49.853,54.947,50.694,54.947,51.725z"/>
<path d="M57.571,10.279c0,1.031-0.843,1.875-1.875,1.875c-1.04,0-1.874-0.844-1.874-1.875c0-1.04,0.834-1.874,1.874-1.874
	C56.729,8.405,57.571,9.239,57.571,10.279z"/>
<path d="M46.701,29.349c0,1.031-0.834,1.874-1.874,1.874c-1.031,0-1.875-0.843-1.875-1.874c0-1.04,0.844-1.875,1.875-1.875
	C45.867,27.474,46.701,28.309,46.701,29.349z"/>
<path d="M90.388,115.26c0,1.031-0.834,1.875-1.873,1.875c-1.031,0-1.875-0.844-1.875-1.875c0-1.041,0.844-1.875,1.875-1.875
	C89.554,113.385,90.388,114.217,90.388,115.26z"/>
<path d="M111.404,68.555c0,1.031-0.834,1.873-1.874,1.873c-1.031,0-1.875-0.842-1.875-1.873c0-1.039,0.844-1.873,1.875-1.873
	C110.572,66.682,111.404,67.516,111.404,68.555z"/>
<path d="M115.652,92.627c0,1.041-0.845,1.875-1.873,1.875c-1.042,0-1.874-0.834-1.874-1.875c0-1.029,0.832-1.873,1.874-1.873
	C114.808,90.754,115.652,91.6,115.652,92.627z"/>
<path d="M43.413,12.05c0,1.041-0.834,1.875-1.875,1.875c-1.032,0-1.874-0.834-1.874-1.875c0-1.031,0.843-1.874,1.874-1.874
	C42.578,10.176,43.413,11.02,43.413,12.05z"/>
<path d="M83.995,123.064c0,1.031-0.842,1.875-1.875,1.875c-1.037,0-1.874-0.844-1.874-1.875c0-1.041,0.837-1.875,1.874-1.875
	C83.154,121.189,83.995,122.023,83.995,123.064z"/>
<path d="M19.462,119.541c0,1.041-0.835,1.875-1.875,1.875c-1.031,0-1.874-0.834-1.874-1.875c0-1.031,0.843-1.873,1.874-1.873
	C18.627,117.668,19.462,118.51,19.462,119.541z"/>
<path d="M109.22,30.895c0,1.031-0.832,1.875-1.873,1.875c-1.029,0-1.873-0.844-1.873-1.875c0-1.04,0.844-1.874,1.873-1.874
	C108.39,29.021,109.22,29.854,109.22,30.895z"/>
<path d="M28.672,16.164c0,1.031-0.843,1.875-1.875,1.875c-1.03,0-1.874-0.843-1.874-1.875c0-1.03,0.844-1.874,1.874-1.874
	C27.829,14.291,28.672,15.133,28.672,16.164z"/>
<path d="M92.188,11.713c0,1.031-0.845,1.874-1.873,1.874c-1.032,0-1.875-0.843-1.875-1.874c0-1.04,0.843-1.874,1.875-1.874
	C91.343,9.839,92.188,10.673,92.188,11.713z"/>
<path d="M106.927,70.506c0,1.029-0.834,1.873-1.873,1.873c-1.031,0-1.875-0.844-1.875-1.873c0-1.041,0.844-1.875,1.875-1.875
	C106.093,68.631,106.927,69.465,106.927,70.506z"/>
<path d="M53.701,57.499c0,1.03-0.843,1.874-1.874,1.874c-1.041,0-1.875-0.843-1.875-1.874c0-1.041,0.834-1.875,1.875-1.875
	C52.858,55.625,53.701,56.458,53.701,57.499z"/>
<path d="M70.401,70.391c0,1.031-0.845,1.875-1.875,1.875s-1.874-0.844-1.874-1.875c0-1.039,0.844-1.873,1.874-1.873
	S70.401,69.352,70.401,70.391z"/>
<path d="M48.885,57.499c0,1.03-0.843,1.874-1.875,1.874c-1.04,0-1.874-0.843-1.874-1.874c0-1.041,0.834-1.875,1.874-1.875
	C48.042,55.625,48.885,56.458,48.885,57.499z"/>
<path d="M66.596,22.433c0,1.03-0.844,1.874-1.875,1.874c-1.039,0-1.874-0.843-1.874-1.874c0-1.041,0.834-1.875,1.874-1.875
	C65.752,20.559,66.596,21.394,66.596,22.433z"/>
<path d="M46.289,74.859c0,1.033-0.834,1.875-1.874,1.875c-1.031,0-1.874-0.842-1.874-1.875c0-1.039,0.843-1.875,1.874-1.875
	C45.455,72.984,46.289,73.82,46.289,74.859z"/>
<path d="M78.281,123.42c0,1.031-0.836,1.875-1.875,1.875c-1.03,0-1.874-0.844-1.874-1.875c0-1.039,0.844-1.871,1.874-1.871
	C77.445,121.549,78.281,122.381,78.281,123.42z"/>
<path d="M98.239,29.058c0,1.04-0.835,1.875-1.874,1.875c-1.03,0-1.875-0.835-1.875-1.875c0-1.031,0.845-1.874,1.875-1.874
	C97.405,27.184,98.239,28.027,98.239,29.058z"/>
<path d="M13.67,102.982c0,1.031-0.834,1.873-1.874,1.873c-1.031,0-1.875-0.842-1.875-1.873c0-1.039,0.844-1.873,1.875-1.873
	C12.836,101.109,13.67,101.943,13.67,102.982z"/>
<path d="M100.068,98.52c0,1.033-0.845,1.875-1.873,1.875c-1.041,0-1.875-0.842-1.875-1.875c0-1.037,0.834-1.873,1.875-1.873
	C99.222,96.646,100.068,97.482,100.068,98.52z"/>
<path d="M28.822,34.717c0,1.031-0.834,1.875-1.875,1.875c-1.031,0-1.874-0.843-1.874-1.875c0-1.04,0.843-1.874,1.874-1.874
	C27.988,32.844,28.822,33.678,28.822,34.717z"/>
<path d="M30.771,38.222c0,1.03-0.833,1.874-1.874,1.874c-1.031,0-1.875-0.844-1.875-1.874c0-1.031,0.844-1.875,1.875-1.875
	C29.938,36.348,30.771,37.192,30.771,38.222z"/>
<path d="M47.714,16.558c0,1.04-0.834,1.874-1.875,1.874c-1.03,0-1.874-0.834-1.874-1.874c0-1.031,0.843-1.875,1.874-1.875
	C46.88,14.683,47.714,15.527,47.714,16.558z"/>
<path d="M90.388,98.674c0,1.031-0.844,1.873-1.873,1.873c-1.039,0-1.875-0.842-1.875-1.873c0-1.039,0.836-1.873,1.875-1.873
	C89.544,96.799,90.388,97.633,90.388,98.674z"/>
<path d="M70.117,107.828c0,1.031-0.842,1.873-1.873,1.873c-1.04,0-1.874-0.842-1.874-1.873c0-1.041,0.834-1.873,1.874-1.873
	C69.275,105.955,70.117,106.787,70.117,107.828z"/>
<path d="M95.746,115.305c0,1.041-0.842,1.875-1.874,1.875c-1.039,0-1.873-0.834-1.873-1.875c0-1.031,0.834-1.873,1.873-1.873
	C94.904,113.432,95.746,114.273,95.746,115.305z"/>
<path d="M82.779,101.279c0,1.029-0.836,1.871-1.875,1.871c-1.03,0-1.874-0.842-1.874-1.871c0-1.033,0.844-1.875,1.874-1.875
	C81.945,99.404,82.779,100.246,82.779,101.279z"/>
<path d="M103.724,108.193c0,1.031-0.836,1.875-1.875,1.875c-1.03,0-1.875-0.844-1.875-1.875c0-1.039,0.845-1.875,1.875-1.875
	C102.888,106.318,103.724,107.152,103.724,108.193z"/>
<path d="M33.142,43.807c0,1.031-0.843,1.874-1.874,1.874c-1.031,0-1.875-0.843-1.875-1.874c0-1.04,0.844-1.875,1.875-1.875
	C32.299,41.933,33.142,42.767,33.142,43.807z"/>
<path d="M97.22,75.189c0,1.039-0.834,1.875-1.875,1.875c-1.031,0-1.875-0.836-1.875-1.875c0-1.033,0.844-1.875,1.875-1.875
	C96.386,73.314,97.22,74.156,97.22,75.189z"/>
<path d="M41.94,121.133c0,1.039-0.839,1.873-1.873,1.873c-1.04,0-1.875-0.834-1.875-1.873c0-1.031,0.834-1.873,1.875-1.873
	C41.1,119.26,41.94,120.104,41.94,121.133z"/>
<path d="M61.854,113.889c0,1.041-0.834,1.875-1.875,1.875c-1.031,0-1.874-0.834-1.874-1.875c0-1.029,0.843-1.873,1.874-1.873
	C61.021,112.016,61.854,112.859,61.854,113.889z"/>
<path d="M91.634,115.275c0,1.041-0.844,1.875-1.873,1.875c-1.041,0-1.873-0.834-1.873-1.875c0-1.027,0.832-1.873,1.873-1.873
	C90.788,113.402,91.634,114.248,91.634,115.275z"/>
<path d="M14.925,104.25c0,1.039-0.843,1.873-1.875,1.873c-1.04,0-1.874-0.834-1.874-1.873c0-1.031,0.834-1.873,1.874-1.873
	C14.083,102.377,14.925,103.217,14.925,104.25z"/>
<path d="M40.499,41.596c0,1.04-0.833,1.874-1.874,1.874c-1.031,0-1.874-0.834-1.874-1.874c0-1.031,0.843-1.875,1.874-1.875
	C39.666,39.721,40.499,40.565,40.499,41.596z"/>
<path d="M45.286,16.445c0,1.04-0.843,1.874-1.874,1.874c-1.039,0-1.878-0.834-1.878-1.874c0-1.031,0.84-1.875,1.878-1.875
	C44.443,14.571,45.286,15.415,45.286,16.445z"/>
<path d="M42.645,64.656c0,1.041-0.839,1.875-1.873,1.875c-1.032,0-1.875-0.836-1.875-1.875c0-1.029,0.844-1.875,1.875-1.875
	C41.805,62.782,42.645,63.627,42.645,64.656z"/>
<path d="M27.285,32.703c0,1.03-0.833,1.874-1.874,1.874c-1.03,0-1.875-0.843-1.875-1.874c0-1.041,0.844-1.875,1.875-1.875
	C26.452,30.83,27.285,31.664,27.285,32.703z"/>
<path d="M64.168,74.824c0,1.039-0.843,1.873-1.874,1.873c-1.031,0-1.874-0.834-1.874-1.873c0-1.029,0.843-1.875,1.874-1.875
	C63.325,72.949,64.168,73.795,64.168,74.824z"/>
<path d="M108.378,11.656c0,1.031-0.842,1.875-1.875,1.875c-1.039,0-1.873-0.843-1.873-1.875c0-1.04,0.834-1.874,1.873-1.874
	C107.534,9.783,108.378,10.617,108.378,11.656z"/>
<path d="M34.341,102.992c0,1.039-0.833,1.873-1.874,1.873c-1.03,0-1.874-0.834-1.874-1.873c0-1.029,0.844-1.873,1.874-1.873
	C33.508,101.119,34.341,101.963,34.341,102.992z"/>
<path d="M50.534,123.26c0,1.041-0.834,1.875-1.875,1.875c-1.03,0-1.874-0.834-1.874-1.875c0-1.029,0.844-1.873,1.874-1.873
	C49.7,121.387,50.534,122.23,50.534,123.26z"/>
<path d="M59.885,18.498c0,1.041-0.833,1.875-1.874,1.875c-1.031,0-1.875-0.834-1.875-1.875c0-1.03,0.844-1.874,1.875-1.874
	C59.052,16.624,59.885,17.466,59.885,18.498z"/>
<path d="M55.425,67.768c0,1.031-0.843,1.875-1.875,1.875c-1.04,0-1.874-0.844-1.874-1.875s0.834-1.873,1.874-1.873
	C54.583,65.895,55.425,66.738,55.425,67.768z"/>
<path d="M87.212,106.646c0,1.039-0.845,1.875-1.875,1.875c-1.039,0-1.875-0.836-1.875-1.875c0-1.033,0.836-1.875,1.875-1.875
	C86.367,104.771,87.212,105.615,87.212,106.646z"/>
<path d="M36.328,25.066c0,1.031-0.834,1.875-1.875,1.875c-1.031,0-1.874-0.844-1.874-1.875c0-1.04,0.843-1.874,1.874-1.874
	C35.494,23.192,36.328,24.026,36.328,25.066z"/>
<path d="M39.412,23.866c0,1.04-0.835,1.875-1.875,1.875c-1.031,0-1.875-0.834-1.875-1.875c0-1.031,0.843-1.875,1.875-1.875
	C38.577,21.992,39.412,22.836,39.412,23.866z"/>
<path d="M57.815,75.076c0,1.041-0.843,1.875-1.874,1.875c-1.031,0-1.875-0.834-1.875-1.875c0-1.029,0.844-1.871,1.875-1.871
	C56.972,73.205,57.815,74.047,57.815,75.076z"/>
<path d="M43.993,40.911c0,1.031-0.843,1.875-1.877,1.875c-1.035,0-1.871-0.843-1.871-1.875c0-1.031,0.836-1.874,1.871-1.874
	C43.15,39.039,43.993,39.881,43.993,40.911z"/>
<path d="M43.16,32.497c0,1.031-0.836,1.875-1.871,1.875c-1.035,0-1.877-0.843-1.877-1.875c0-1.04,0.843-1.874,1.877-1.874
	C42.323,30.624,43.16,31.458,43.16,32.497z"/>
<path d="M22.225,18.686c0,1.03-0.843,1.874-1.875,1.874c-1.04,0-1.874-0.844-1.874-1.874c0-1.041,0.834-1.875,1.874-1.875
	C21.382,16.812,22.225,17.645,22.225,18.686z"/>
<path d="M75.122,117.414c0,1.041-0.842,1.875-1.875,1.875c-1.039,0-1.873-0.834-1.873-1.875c0-1.031,0.834-1.875,1.873-1.875
	C74.279,115.539,75.122,116.383,75.122,117.414z"/>
<path d="M33.657,121.947c0,1.031-0.843,1.873-1.874,1.873c-1.04,0-1.875-0.842-1.875-1.873c0-1.029,0.834-1.873,1.875-1.873
	C32.815,120.074,33.657,120.92,33.657,121.947z"/>
<path d="M92.927,18.225c0,1.031-0.842,1.875-1.875,1.875c-1.039,0-1.873-0.843-1.873-1.875c0-1.04,0.834-1.874,1.873-1.874
	C92.083,16.353,92.927,17.187,92.927,18.225z"/>
<path d="M76.499,82.488c0,1.039-0.834,1.875-1.875,1.875c-1.029,0-1.873-0.836-1.873-1.875c0-1.029,0.844-1.873,1.873-1.873
	C75.665,80.615,76.499,81.459,76.499,82.488z"/>
<path d="M67.654,78.096c0,1.029-0.836,1.873-1.873,1.873c-1.031,0-1.874-0.844-1.874-1.873c0-1.041,0.843-1.873,1.874-1.873
	C66.818,76.223,67.654,77.055,67.654,78.096z"/>
<path d="M71.974,122.455c0,1.031-0.842,1.873-1.876,1.873c-1.039,0-1.873-0.842-1.873-1.875c0-1.037,0.834-1.871,1.873-1.871
	C71.132,120.582,71.974,121.416,71.974,122.455z"/>
<path d="M102.794,24.271c0,1.03-0.843,1.874-1.873,1.874c-1.039,0-1.875-0.843-1.875-1.874c0-1.041,0.836-1.875,1.875-1.875
	C101.949,22.396,102.794,23.229,102.794,24.271z"/>
<path d="M29.732,26.753c0,1.04-0.844,1.875-1.875,1.875c-1.04,0-1.874-0.834-1.874-1.875c0-1.031,0.834-1.874,1.874-1.874
	C28.888,24.879,29.732,25.722,29.732,26.753z"/>
<path d="M28.391,50.142c0,1.031-0.834,1.875-1.874,1.875c-1.031,0-1.875-0.844-1.875-1.875c0-1.04,0.844-1.874,1.875-1.874
	C27.557,48.269,28.391,49.103,28.391,50.142z"/>
<path d="M19.283,22.706c0,1.03-0.844,1.874-1.874,1.874c-1.031,0-1.875-0.843-1.875-1.874c0-1.041,0.843-1.875,1.875-1.875
	C18.439,20.831,19.283,21.665,19.283,22.706z"/>
<path d="M56.194,7.207c0,1.041-0.844,1.874-1.875,1.874c-1.04,0-1.874-0.833-1.874-1.874c0-1.031,0.833-1.874,1.874-1.874
	C55.35,5.333,56.194,6.174,56.194,7.207z"/>
<path d="M74.204,121.301c0,1.033-0.835,1.875-1.874,1.875c-1.03,0-1.875-0.842-1.875-1.875c0-1.037,0.845-1.873,1.875-1.873
	C73.369,119.428,74.204,120.264,74.204,121.301z"/>
<path d="M70.033,57.366c0,1.04-0.842,1.875-1.873,1.875s-1.874-0.834-1.874-1.875c0-1.031,0.843-1.874,1.874-1.874
	C69.192,55.493,70.033,56.336,70.033,57.366z"/>
<path d="M50.395,46.328c0,1.03-0.835,1.875-1.875,1.875c-1.031,0-1.874-0.844-1.874-1.875c0-1.041,0.843-1.874,1.874-1.874
	C49.559,44.455,50.395,45.287,50.395,46.328z"/>
<path d="M60.336,65.549c0,1.039-0.844,1.873-1.875,1.873c-1.04,0-1.874-0.834-1.874-1.873c0-1.031,0.833-1.875,1.874-1.875
	C59.492,63.673,60.336,64.516,60.336,65.549z"/>
<path d="M109.296,104.709c0,1.039-0.832,1.873-1.875,1.873c-1.029,0-1.873-0.834-1.873-1.873c0-1.033,0.844-1.875,1.873-1.875
	C108.466,102.834,109.296,103.676,109.296,104.709z"/>
<path d="M82.686,112.691c0,1.031-0.843,1.875-1.874,1.875c-1.039,0-1.875-0.844-1.875-1.875c0-1.041,0.836-1.875,1.875-1.875
	C81.841,110.816,82.686,111.65,82.686,112.691z"/>
<path d="M39.43,109.852c0,1.031-0.844,1.873-1.875,1.873c-1.031,0-1.874-0.842-1.874-1.873c0-1.041,0.843-1.873,1.874-1.873
	C38.586,107.979,39.43,108.811,39.43,109.852z"/>
<path d="M100.507,100.107c0,1.031-0.834,1.873-1.875,1.873c-1.029,0-1.871-0.842-1.871-1.873c0-1.041,0.842-1.875,1.871-1.875
	C99.673,98.232,100.507,99.066,100.507,100.107z"/>
<path d="M33.714,106.592c0,1.031-0.844,1.875-1.875,1.875c-1.04,0-1.874-0.844-1.874-1.875c0-1.041,0.833-1.875,1.874-1.875
	C32.87,104.717,33.714,105.549,33.714,106.592z"/>
<path d="M25.289,26.134c0,1.03-0.843,1.874-1.874,1.874c-1.04,0-1.875-0.843-1.875-1.874c0-1.041,0.834-1.875,1.875-1.875
	C24.446,24.26,25.289,25.094,25.289,26.134z"/>
<path d="M15.479,46.89c0,1.03-0.845,1.874-1.875,1.874c-1.041,0-1.874-0.843-1.874-1.874c0-1.041,0.833-1.875,1.874-1.875
	C14.634,45.016,15.479,45.85,15.479,46.89z"/>
<path d="M60.823,4.938c0,1.041-0.834,1.875-1.875,1.875c-1.03,0-1.874-0.834-1.874-1.875c0-1.03,0.844-1.874,1.874-1.874
	C59.989,3.064,60.823,3.907,60.823,4.938z"/>
<path d="M97.811,85.91c0,1.029-0.845,1.871-1.874,1.871c-1.039,0-1.875-0.842-1.875-1.871c0-1.041,0.836-1.875,1.875-1.875
	C96.966,84.035,97.811,84.869,97.811,85.91z"/>
<path d="M66.193,109.766c0,1.031-0.844,1.875-1.874,1.875c-1.031,0-1.875-0.844-1.875-1.875c0-1.039,0.844-1.875,1.875-1.875
	C65.35,107.891,66.193,108.727,66.193,109.766z"/>
<path d="M21.12,31.897c0,1.041-0.844,1.874-1.875,1.874c-1.041,0-1.875-0.833-1.875-1.874c0-1.03,0.834-1.875,1.875-1.875
	C20.276,30.023,21.12,30.867,21.12,31.897z"/>
<path d="M54.704,7.252c0,1.031-0.844,1.875-1.875,1.875c-1.03,0-1.874-0.843-1.874-1.875c0-1.04,0.844-1.874,1.874-1.874
	C53.861,5.379,54.704,6.213,54.704,7.252z"/>
<path d="M81.868,54.265c0,1.031-0.833,1.875-1.872,1.875c-1.03,0-1.875-0.844-1.875-1.875c0-1.04,0.845-1.874,1.875-1.874
	C81.035,52.391,81.868,53.225,81.868,54.265z"/>
<path d="M114.714,85.385c0,1.039-0.834,1.873-1.873,1.873c-1.033,0-1.873-0.834-1.873-1.873c0-1.031,0.84-1.875,1.873-1.875
	C113.88,83.51,114.714,84.354,114.714,85.385z"/>
<path d="M17.962,36.874c0,1.03-0.843,1.874-1.874,1.874c-1.04,0-1.874-0.843-1.874-1.874c0-1.041,0.834-1.875,1.874-1.875
	C17.118,35,17.962,35.833,17.962,36.874z"/>
</svg>
