<?xml version="1.0" encoding="utf-8"?>
<!-- Generator: Adobe Illustrator 15.0.0, SVG Export Plug-In . SVG Version: 6.00 Build 0)  -->
<!DOCTYPE svg PUBLIC "-//W3C//DTD SVG 1.1 Tiny//EN" "http://www.w3.org/Graphics/SVG/1.1/DTD/svg11-tiny.dtd">
<svg version="1.1" baseProfile="tiny" id="Laag_1" xmlns="http://www.w3.org/2000/svg" xmlns:xlink="http://www.w3.org/1999/xlink"
	 x="0px" y="0px" width="128px" height="128px" viewBox="-7.44 3.879 128 128" overflow="inherit" xml:space="preserve">
<path d="M56.803,124.178c0,1.039-0.843,1.875-1.874,1.875c-1.04,0-1.874-0.836-1.874-1.875c0-1.03,0.834-1.874,1.874-1.874
	C55.96,122.304,56.803,123.149,56.803,124.178z"/>
<path d="M10.832,57.226c0,1.04-0.844,1.874-1.875,1.874c-1.03,0-1.874-0.834-1.874-1.874c0-1.031,0.843-1.875,1.874-1.875
	C9.988,55.351,10.832,56.195,10.832,57.226z"/>
<path d="M40.789,61.92c0,1.031-0.843,1.875-1.875,1.875c-1.04,0-1.874-0.843-1.874-1.875c0-1.04,0.834-1.874,1.874-1.874
	C39.946,60.046,40.789,60.88,40.789,61.92z"/>
<path d="M79.152,118.293c0,1.041-0.843,1.874-1.874,1.874c-1.041,0-1.875-0.833-1.875-1.874c0-1.031,0.834-1.873,1.875-1.873
	C78.309,116.42,79.152,117.264,79.152,118.293z"/>
<path d="M83.967,100.745c0,1.039-0.833,1.874-1.872,1.874c-1.033,0-1.875-0.835-1.875-1.874c0-1.033,0.842-1.875,1.875-1.875
	C83.134,98.87,83.967,99.711,83.967,100.745z"/>
<path d="M102.167,109.571c0,1.03-0.842,1.874-1.875,1.874c-1.039,0-1.874-0.844-1.874-1.874c0-1.041,0.835-1.873,1.874-1.873
	C101.325,107.698,102.167,108.53,102.167,109.571z"/>
<path d="M95.448,32.581c0,1.03-0.841,1.874-1.875,1.874c-1.039,0-1.874-0.843-1.874-1.874c0-1.041,0.835-1.875,1.874-1.875
	C94.607,30.707,95.448,31.541,95.448,32.581z"/>
<path d="M109.561,86.799c0,1.03-0.836,1.874-1.875,1.874c-1.03,0-1.874-0.844-1.874-1.874c0-1.039,0.844-1.875,1.874-1.875
	C108.725,84.924,109.561,85.758,109.561,86.799z"/>
<path d="M53.768,74.581c0,1.031-0.844,1.875-1.874,1.875c-1.041,0-1.875-0.844-1.875-1.875c0-1.04,0.833-1.873,1.875-1.873
	C52.924,72.708,53.768,73.539,53.768,74.581z"/>
<path d="M34.062,50.797c0,1.03-0.844,1.874-1.875,1.874c-1.04,0-1.875-0.844-1.875-1.874c0-1.041,0.834-1.875,1.875-1.875
	C33.218,48.923,34.062,49.757,34.062,50.797z"/>
<path d="M11.253,60.693c0,1.031-0.835,1.874-1.875,1.874c-1.031,0-1.874-0.843-1.874-1.874c0-1.031,0.843-1.875,1.874-1.875
	C10.418,58.818,11.253,59.662,11.253,60.693z"/>
<path d="M100.442,19.884c0,1.03-0.842,1.874-1.874,1.874c-1.039,0-1.875-0.844-1.875-1.874c0-1.031,0.836-1.875,1.875-1.875
	C99.6,18.009,100.442,18.853,100.442,19.884z"/>
<path d="M81.232,64.141c0,1.04-0.842,1.875-1.874,1.875c-1.039,0-1.873-0.834-1.873-1.875c0-1.031,0.834-1.874,1.873-1.874
	C80.39,62.268,81.232,63.11,81.232,64.141z"/>
<path d="M41.229,32.777c0,1.031-0.834,1.875-1.874,1.875c-1.031,0-1.875-0.843-1.875-1.875c0-1.04,0.843-1.875,1.875-1.875
	C40.396,30.903,41.229,31.738,41.229,32.777z"/>
<path d="M24.606,125.237c0,1.041-0.834,1.875-1.875,1.875c-1.031,0-1.875-0.834-1.875-1.875c0-1.03,0.844-1.873,1.875-1.873
	C23.772,123.364,24.606,124.208,24.606,125.237z"/>
<path d="M69.698,26.134c0,1.031-0.842,1.875-1.875,1.875c-1.039,0-1.874-0.844-1.874-1.875c0-1.04,0.835-1.874,1.874-1.874
	C68.854,24.26,69.698,25.094,69.698,26.134z"/>
<path d="M81.037,80.998c0,1.032-0.844,1.875-1.875,1.875c-1.04,0-1.874-0.843-1.874-1.875c0-1.039,0.834-1.873,1.874-1.873
	C80.193,79.125,81.037,79.958,81.037,80.998z"/>
<path d="M46.037,8.724c0,1.04-0.834,1.874-1.875,1.874c-1.031,0-1.874-0.834-1.874-1.874c0-1.031,0.843-1.875,1.874-1.875
	C45.203,6.849,46.037,7.692,46.037,8.724z"/>
<path d="M28.167,24.044c0,1.04-0.843,1.874-1.875,1.874c-1.04,0-1.874-0.834-1.874-1.874c0-1.031,0.834-1.874,1.874-1.874
	C27.324,22.17,28.167,23.013,28.167,24.044z"/>
<path d="M21.505,107.817c0,1.033-0.844,1.875-1.875,1.875c-1.04,0-1.874-0.842-1.874-1.875c0-1.03,0.834-1.872,1.874-1.872
	C20.661,105.945,21.505,106.787,21.505,107.817z"/>
<path d="M59.194,123.917c0,1.033-0.844,1.875-1.874,1.875c-1.041,0-1.875-0.842-1.875-1.875c0-1.04,0.834-1.874,1.875-1.874
	C58.35,122.042,59.194,122.876,59.194,123.917z"/>
<path d="M46.262,19.031c0,1.04-0.844,1.875-1.875,1.875c-1.03,0-1.874-0.834-1.874-1.875c0-1.031,0.844-1.874,1.874-1.874
	C45.418,17.157,46.262,18,46.262,19.031z"/>
<path d="M86.217,80.718c0,1.039-0.844,1.874-1.875,1.874c-1.03,0-1.874-0.835-1.874-1.874c0-1.031,0.844-1.875,1.874-1.875
	C85.374,78.843,86.217,79.687,86.217,80.718z"/>
<path d="M52.728,111.716c0,1.039-0.843,1.875-1.875,1.875c-1.04,0-1.874-0.836-1.874-1.875c0-1.03,0.834-1.874,1.874-1.874
	C51.884,109.842,52.728,110.686,52.728,111.716z"/>
<path d="M85.946,107.368c0,1.039-0.842,1.875-1.875,1.875c-1.04,0-1.872-0.836-1.872-1.875c0-1.032,0.832-1.874,1.872-1.874
	C85.104,105.494,85.946,106.335,85.946,107.368z"/>
<path d="M88.064,60.609c0,1.031-0.844,1.874-1.874,1.874c-1.041,0-1.873-0.843-1.873-1.874c0-1.041,0.832-1.875,1.873-1.875
	C87.22,58.734,88.064,59.568,88.064,60.609z"/>
<path d="M88.654,14.973c0,1.04-0.834,1.875-1.874,1.875c-1.031,0-1.875-0.834-1.875-1.875c0-1.031,0.844-1.874,1.875-1.874
	C87.82,13.1,88.654,13.942,88.654,14.973z"/>
<path d="M27.708,121.47c0,1.031-0.835,1.875-1.875,1.875c-1.031,0-1.875-0.844-1.875-1.875c0-1.039,0.843-1.874,1.875-1.874
	C26.874,119.596,27.708,120.429,27.708,121.47z"/>
<path d="M38.203,26.012c0,1.04-0.844,1.874-1.874,1.874c-1.036,0-1.876-0.834-1.876-1.874c0-1.031,0.84-1.875,1.876-1.875
	C37.359,24.138,38.203,24.981,38.203,26.012z"/>
<path d="M20.127,19.069c0,1.03-0.833,1.874-1.874,1.874c-1.031,0-1.875-0.843-1.875-1.874c0-1.041,0.844-1.875,1.875-1.875
	C19.293,17.194,20.127,18.028,20.127,19.069z"/>
<path d="M18.918,65.331c0,1.04-0.834,1.875-1.875,1.875c-1.03,0-1.874-0.834-1.874-1.875c0-1.031,0.843-1.875,1.874-1.875
	C18.084,63.457,18.918,64.3,18.918,65.331z"/>
<path d="M38.578,111.462c0,1.031-0.833,1.875-1.874,1.875c-1.031,0-1.87-0.844-1.87-1.875c0-1.039,0.839-1.874,1.87-1.874
	C37.744,109.588,38.578,110.423,38.578,111.462z"/>
<path d="M57.067,58.013c0,1.04-0.835,1.875-1.875,1.875c-1.031,0-1.875-0.834-1.875-1.875c0-1.031,0.844-1.874,1.875-1.874
	C56.232,56.139,57.067,56.982,57.067,58.013z"/>
<path d="M81.185,97.548c0,1.039-0.842,1.874-1.874,1.874c-1.039,0-1.873-0.835-1.873-1.874c0-1.031,0.834-1.873,1.873-1.873
	C80.343,95.675,81.185,96.517,81.185,97.548z"/>
<path d="M33.387,41.343c0,1.03-0.844,1.874-1.875,1.874c-1.04,0-1.874-0.843-1.874-1.874c0-1.041,0.833-1.875,1.874-1.875
	C32.543,39.468,33.387,40.302,33.387,41.343z"/>
<path d="M84.127,112.533c0,1.031-0.844,1.874-1.873,1.874c-1.04,0-1.874-0.843-1.874-1.874c0-1.041,0.834-1.875,1.874-1.875
	C83.284,110.658,84.127,111.489,84.127,112.533z"/>
<path d="M100.911,88.609c0,1.031-0.842,1.873-1.874,1.873c-1.039,0-1.875-0.842-1.875-1.873c0-1.033,0.836-1.875,1.875-1.875
	C100.069,86.734,100.911,87.576,100.911,88.609z"/>
<path d="M26.377,70.448c0,1.04-0.834,1.874-1.875,1.874c-1.031,0-1.874-0.836-1.874-1.874c0-1.031,0.843-1.875,1.874-1.875
	C25.543,68.573,26.377,69.417,26.377,70.448z"/>
<path d="M105.166,37.726c0,1.03-0.844,1.875-1.875,1.875c-1.04,0-1.872-0.844-1.872-1.875c0-1.041,0.832-1.875,1.872-1.875
	C104.322,35.851,105.166,36.685,105.166,37.726z"/>
<path d="M30.829,28.852c0,1.031-0.844,1.874-1.875,1.874c-1.04,0-1.874-0.843-1.874-1.874c0-1.041,0.833-1.875,1.874-1.875
	C29.985,26.977,30.829,27.811,30.829,28.852z"/>
<path d="M88.898,23.529c0,1.041-0.834,1.874-1.875,1.874c-1.032,0-1.874-0.833-1.874-1.874c0-1.03,0.842-1.875,1.874-1.875
	C88.064,21.654,88.898,22.499,88.898,23.529z"/>
<path d="M55.276,127.721c0,1.03-0.833,1.874-1.874,1.874c-1.031,0-1.875-0.844-1.875-1.874c0-1.039,0.844-1.873,1.875-1.873
	C54.442,125.848,55.276,126.68,55.276,127.721z"/>
<path d="M39.206,10.026c0,1.031-0.843,1.874-1.874,1.874c-1.041,0-1.878-0.843-1.878-1.874c0-1.031,0.838-1.875,1.878-1.875
	C38.362,8.151,39.206,8.995,39.206,10.026z"/>
<path d="M86.518,99.271c0,1.03-0.844,1.874-1.875,1.874c-1.039,0-1.874-0.844-1.874-1.874c0-1.039,0.835-1.875,1.874-1.875
	C85.672,97.396,86.518,98.232,86.518,99.271z"/>
<path d="M14.28,103.216c0,1.031-0.834,1.875-1.875,1.875c-1.031,0-1.874-0.844-1.874-1.875c0-1.04,0.843-1.874,1.874-1.874
	C13.445,101.342,14.28,102.176,14.28,103.216z"/>
<path d="M59.418,12.04c0,1.04-0.844,1.875-1.874,1.875c-1.041,0-1.875-0.834-1.875-1.875c0-1.031,0.834-1.874,1.875-1.874
	C58.575,10.167,59.418,11.009,59.418,12.04z"/>
<path d="M29.395,39.927c0,1.041-0.844,1.875-1.875,1.875c-1.03,0-1.874-0.834-1.874-1.875c0-1.03,0.843-1.875,1.874-1.875
	C28.551,38.053,29.395,38.897,29.395,39.927z"/>
<path d="M20.802,58.135c0,1.04-0.844,1.874-1.875,1.874c-1.04,0-1.874-0.834-1.874-1.874c0-1.031,0.833-1.875,1.874-1.875
	C19.958,56.26,20.802,57.104,20.802,58.135z"/>
<path d="M63.044,72.558c0,1.029-0.844,1.874-1.874,1.874c-1.031,0-1.875-0.845-1.875-1.874c0-1.043,0.844-1.875,1.875-1.875
	C62.201,70.681,63.044,71.515,63.044,72.558z"/>
<path d="M56.458,11.722c0,1.03-0.844,1.875-1.875,1.875c-1.041,0-1.874-0.844-1.874-1.875c0-1.041,0.833-1.874,1.874-1.874
	C55.614,9.848,56.458,10.681,56.458,11.722z"/>
<path d="M90.315,112.876c0,1.033-0.835,1.875-1.876,1.875c-1.031,0-1.874-0.842-1.874-1.875c0-1.037,0.843-1.872,1.874-1.872
	C89.48,111.004,90.315,111.839,90.315,112.876z"/>
<path d="M95.57,29.732c0,1.031-0.843,1.874-1.874,1.874c-1.039,0-1.875-0.843-1.875-1.874c0-1.04,0.836-1.875,1.875-1.875
	C94.727,27.858,95.57,28.692,95.57,29.732z"/>
<path d="M31.288,114.93c0,1.039-0.834,1.873-1.875,1.873c-1.03,0-1.874-0.834-1.874-1.873c0-1.032,0.843-1.874,1.874-1.874
	C30.454,113.056,31.288,113.9,31.288,114.93z"/>
<path d="M29.657,25.103c0,1.031-0.844,1.875-1.875,1.875c-1.04,0-1.874-0.843-1.874-1.875c0-1.04,0.834-1.874,1.874-1.874
	C28.813,23.229,29.657,24.063,29.657,25.103z"/>
<path d="M37.706,119.296c0,1.031-0.834,1.875-1.871,1.875c-1.035,0-1.877-0.844-1.877-1.875c0-1.038,0.842-1.874,1.877-1.874
	C36.872,117.422,37.706,118.256,37.706,119.296z"/>
<path d="M31.334,124.481c0,1.029-0.834,1.873-1.875,1.873c-1.03,0-1.874-0.844-1.874-1.873c0-1.042,0.843-1.875,1.874-1.875
	C30.5,122.606,31.334,123.437,31.334,124.481z"/>
<path d="M53.486,26.293c0,1.041-0.843,1.875-1.875,1.875c-1.04,0-1.874-0.834-1.874-1.875c0-1.03,0.834-1.874,1.874-1.874
	C52.643,24.419,53.486,25.263,53.486,26.293z"/>
<path d="M66.989,81.684c0,1.039-0.835,1.873-1.874,1.873c-1.031,0-1.873-0.834-1.873-1.873c0-1.032,0.842-1.874,1.873-1.874
	C66.154,79.81,66.989,80.652,66.989,81.684z"/>
<path d="M79.912,86.322c0,1.038-0.844,1.873-1.874,1.873c-1.039,0-1.875-0.835-1.875-1.873c0-1.032,0.836-1.874,1.875-1.874
	C79.068,84.448,79.912,85.29,79.912,86.322z"/>
<path d="M14.345,40.162c0,1.031-0.833,1.875-1.875,1.875c-1.03,0-1.874-0.844-1.874-1.875c0-1.04,0.843-1.875,1.874-1.875
	C13.512,38.287,14.345,39.122,14.345,40.162z"/>
<path d="M30.931,114.546c0,1.032-0.843,1.874-1.874,1.874c-1.041,0-1.875-0.842-1.875-1.874c0-1.041,0.834-1.875,1.875-1.875
	C30.088,112.671,30.931,113.505,30.931,114.546z"/>
<path d="M40.967,21.411c0,1.031-0.843,1.875-1.874,1.875c-1.04,0-1.875-0.844-1.875-1.875c0-1.04,0.834-1.875,1.875-1.875
	C40.124,19.537,40.967,20.371,40.967,21.411z"/>
<path d="M74.382,60.515c0,1.03-0.834,1.874-1.873,1.874c-1.031,0-1.875-0.844-1.875-1.874c0-1.031,0.844-1.875,1.875-1.875
	C73.548,58.641,74.382,59.484,74.382,60.515z"/>
<path d="M38.4,17.092c0,1.04-0.834,1.874-1.875,1.874c-1.032,0-1.871-0.834-1.871-1.874c0-1.031,0.839-1.875,1.871-1.875
	C37.565,15.217,38.4,16.061,38.4,17.092z"/>
<path d="M41.36,46.702c0,1.031-0.843,1.875-1.874,1.875c-1.04,0-1.875-0.844-1.875-1.875c0-1.04,0.834-1.874,1.875-1.874
	C40.518,44.828,41.36,45.662,41.36,46.702z"/>
<path d="M38.616,110.338c0,1.039-0.834,1.874-1.875,1.874c-1.032,0-1.871-0.835-1.871-1.874c0-1.031,0.839-1.875,1.871-1.875
	C37.781,108.463,38.616,109.307,38.616,110.338z"/>
<path d="M80.119,113.111c0,1.041-0.844,1.875-1.875,1.875c-1.039,0-1.874-0.834-1.874-1.875c0-1.03,0.835-1.873,1.874-1.873
	C79.273,111.238,80.119,112.081,80.119,113.111z"/>
<path d="M92.299,13.221c0,1.031-0.844,1.875-1.873,1.875c-1.04,0-1.874-0.844-1.874-1.875c0-1.04,0.834-1.874,1.874-1.874
	C91.455,11.347,92.299,12.181,92.299,13.221z"/>
<path d="M103.535,18.965c0,1.03-0.843,1.875-1.874,1.875c-1.039,0-1.875-0.844-1.875-1.875c0-1.041,0.836-1.874,1.875-1.874
	C102.692,17.092,103.535,17.925,103.535,18.965z"/>
<path d="M61.245,119.231c0,1.04-0.834,1.874-1.875,1.874c-1.03,0-1.874-0.834-1.874-1.874c0-1.031,0.844-1.873,1.874-1.873
	C60.411,117.358,61.245,118.202,61.245,119.231z"/>
<path d="M27.689,43c0,1.041-0.834,1.875-1.874,1.875c-1.031,0-1.874-0.833-1.874-1.875c0-1.03,0.843-1.874,1.874-1.874
	C26.855,41.127,27.689,41.971,27.689,43z"/>
<path d="M60.665,112.693c0,1.037-0.844,1.872-1.875,1.872c-1.04,0-1.874-0.835-1.874-1.872c0-1.033,0.833-1.875,1.874-1.875
	C59.821,110.818,60.665,111.66,60.665,112.693z"/>
<path d="M87.99,12.48c0,1.041-0.844,1.875-1.874,1.875c-1.041,0-1.875-0.834-1.875-1.875c0-1.03,0.834-1.875,1.875-1.875
	C87.146,10.606,87.99,11.45,87.99,12.48z"/>
<path d="M34.174,51.134c0,1.041-0.844,1.874-1.875,1.874c-1.04,0-1.874-0.833-1.874-1.874c0-1.03,0.834-1.875,1.874-1.875
	C33.33,49.26,34.174,50.104,34.174,51.134z"/>
<path d="M85.862,26.686c0,1.041-0.842,1.875-1.875,1.875c-1.039,0-1.874-0.833-1.874-1.875c0-1.03,0.835-1.874,1.874-1.874
	C85.018,24.812,85.862,25.656,85.862,26.686z"/>
<path d="M99.76,20.521c0,1.031-0.844,1.875-1.875,1.875c-1.04,0-1.874-0.843-1.874-1.875c0-1.04,0.834-1.875,1.874-1.875
	C98.916,18.646,99.76,19.481,99.76,20.521z"/>
<path d="M20.633,47.105c0,1.04-0.843,1.875-1.874,1.875c-1.031,0-1.875-0.834-1.875-1.875c0-1.031,0.843-1.874,1.875-1.874
	C19.79,45.231,20.633,46.074,20.633,47.105z"/>
<path d="M51.078,18.319c0,1.04-0.842,1.875-1.874,1.875c-1.04,0-1.875-0.834-1.875-1.875c0-1.031,0.835-1.875,1.875-1.875
	C50.235,16.444,51.078,17.288,51.078,18.319z"/>
<path d="M42.917,116.42c0,1.031-0.843,1.873-1.875,1.873c-1.04,0-1.874-0.842-1.874-1.873c0-1.041,0.834-1.874,1.874-1.874
	C42.073,114.546,42.917,115.379,42.917,116.42z"/>
<path d="M89.451,66.287c0,1.04-0.842,1.875-1.875,1.875c-1.039,0-1.874-0.835-1.874-1.875c0-1.031,0.835-1.874,1.874-1.874
	C88.607,64.414,89.451,65.256,89.451,66.287z"/>
<path d="M83.379,25c0,1.031-0.835,1.875-1.874,1.875c-1.031,0-1.875-0.844-1.875-1.875c0-1.041,0.844-1.874,1.875-1.874
	C82.545,23.126,83.379,23.959,83.379,25z"/>
<path d="M39.308,45.24c0,1.041-0.833,1.875-1.874,1.875c-1.031,0-1.871-0.833-1.871-1.875c0-1.03,0.84-1.874,1.871-1.874
	C38.475,43.367,39.308,44.21,39.308,45.24z"/>
<path d="M101.522,27.464c0,1.031-0.838,1.875-1.875,1.875c-1.031,0-1.874-0.844-1.874-1.875c0-1.04,0.843-1.874,1.874-1.874
	C100.684,25.591,101.522,26.424,101.522,27.464z"/>
<path d="M79.958,30.191c0,1.031-0.844,1.875-1.874,1.875c-1.039,0-1.875-0.844-1.875-1.875c0-1.04,0.836-1.874,1.875-1.874
	C79.114,28.317,79.958,29.151,79.958,30.191z"/>
<path d="M83.293,59.437c0,1.031-0.843,1.875-1.874,1.875c-1.039,0-1.875-0.843-1.875-1.875c0-1.041,0.836-1.875,1.875-1.875
	C82.451,57.562,83.293,58.396,83.293,59.437z"/>
<path d="M50.151,109.45c0,1.039-0.844,1.872-1.874,1.872c-1.041,0-1.875-0.833-1.875-1.872c0-1.033,0.833-1.875,1.875-1.875
	C49.307,107.575,50.151,108.417,50.151,109.45z"/>
<path d="M14.458,112.175c0,1.031-0.843,1.873-1.874,1.873c-1.041,0-1.875-0.842-1.875-1.873c0-1.032,0.834-1.874,1.875-1.874
	C13.614,110.301,14.458,111.143,14.458,112.175z"/>
<path d="M100.481,110.873c0,1.039-0.845,1.875-1.875,1.875c-1.042,0-1.874-0.836-1.874-1.875c0-1.032,0.832-1.874,1.874-1.874
	C99.636,108.999,100.481,109.842,100.481,110.873z"/>
<path d="M91.288,113.111c0,1.033-0.843,1.875-1.874,1.875c-1.039,0-1.873-0.842-1.873-1.875c0-1.03,0.834-1.873,1.873-1.873
	C90.443,111.238,91.288,112.081,91.288,113.111z"/>
<path d="M43.854,55.22c0,1.04-0.835,1.875-1.875,1.875c-1.031,0-1.875-0.834-1.875-1.875c0-1.031,0.843-1.875,1.875-1.875
	C43.019,53.346,43.854,54.189,43.854,55.22z"/>
<path d="M43,60.899c0,1.041-0.833,1.875-1.875,1.875c-1.03,0-1.874-0.834-1.874-1.875c0-1.031,0.844-1.874,1.874-1.874
	C42.167,59.025,43,59.868,43,60.899z"/>
<path d="M98.457,19.809c0,1.031-0.836,1.874-1.875,1.874c-1.031,0-1.874-0.843-1.874-1.874c0-1.04,0.843-1.874,1.874-1.874
	C97.621,17.935,98.457,18.769,98.457,19.809z"/>
<path d="M27.211,114.883c0,1.039-0.844,1.875-1.874,1.875c-1.041,0-1.875-0.836-1.875-1.875c0-1.03,0.833-1.872,1.875-1.872
	C26.368,113.011,27.211,113.853,27.211,114.883z"/>
<path d="M20.952,58.041c0,1.04-0.835,1.874-1.875,1.874c-1.031,0-1.875-0.834-1.875-1.874c0-1.031,0.843-1.875,1.875-1.875
	C20.117,56.167,20.952,57.01,20.952,58.041z"/>
<path d="M67.149,10.775c0,1.031-0.844,1.875-1.874,1.875c-1.039,0-1.875-0.843-1.875-1.875c0-1.04,0.836-1.874,1.875-1.874
	C66.304,8.901,67.149,9.735,67.149,10.775z"/>
<path d="M52.755,6.146c0,1.04-0.834,1.875-1.874,1.875c-1.031,0-1.875-0.834-1.875-1.875c0-1.031,0.844-1.874,1.875-1.874
	C51.921,4.272,52.755,5.115,52.755,6.146z"/>
<path d="M34.071,125.35c0,1.031-0.843,1.873-1.875,1.873c-1.04,0-1.875-0.842-1.875-1.873s0.835-1.874,1.875-1.874
	C33.228,123.476,34.071,124.321,34.071,125.35z"/>
<path d="M42.157,120.757c0,1.033-0.843,1.875-1.874,1.875c-1.04,0-1.874-0.842-1.874-1.875c0-1.037,0.834-1.872,1.874-1.872
	C41.314,118.885,42.157,119.72,42.157,120.757z"/>
<path d="M76.424,8.873c0,1.031-0.842,1.875-1.873,1.875c-1.04,0-1.874-0.844-1.874-1.875S73.511,7,74.551,7
	C75.583,7,76.424,7.842,76.424,8.873z"/>
<path d="M61.075,113.363c0,1.033-0.842,1.875-1.874,1.875c-1.039,0-1.874-0.842-1.874-1.875c0-1.039,0.835-1.874,1.874-1.874
	C60.233,111.489,61.075,112.324,61.075,113.363z"/>
<path d="M60.487,64.591c0,1.031-0.836,1.874-1.875,1.874c-1.03,0-1.874-0.843-1.874-1.874c0-1.041,0.843-1.875,1.874-1.875
	C59.653,62.717,60.487,63.55,60.487,64.591z"/>
<path d="M63.222,114.855c0,1.04-0.835,1.874-1.874,1.874c-1.031,0-1.875-0.834-1.875-1.874c0-1.033,0.844-1.875,1.875-1.875
	C62.388,112.98,63.222,113.826,63.222,114.855z"/>
<path d="M32.975,51.256c0,1.031-0.844,1.875-1.875,1.875c-1.041,0-1.874-0.843-1.874-1.875c0-1.031,0.833-1.874,1.874-1.874
	C32.131,49.383,32.975,50.226,32.975,51.256z"/>
<path d="M15.085,124.995c0,1.031-0.844,1.874-1.874,1.874c-1.031,0-1.875-0.843-1.875-1.874c0-1.039,0.843-1.874,1.875-1.874
	C14.242,123.121,15.085,123.954,15.085,124.995z"/>
<path d="M58.134,16.51c0,1.041-0.844,1.875-1.874,1.875c-1.04,0-1.874-0.833-1.874-1.875c0-1.03,0.834-1.874,1.874-1.874
	C57.291,14.636,58.134,15.48,58.134,16.51z"/>
<path d="M89.74,118.585c0,1.039-0.832,1.873-1.874,1.873c-1.029,0-1.875-0.834-1.875-1.873c0-1.032,0.846-1.874,1.875-1.874
	C88.908,116.711,89.74,117.553,89.74,118.585z"/>
<path d="M76.417,69.614c0,1.03-0.836,1.874-1.875,1.874c-1.03,0-1.874-0.844-1.874-1.874c0-1.041,0.844-1.875,1.874-1.875
	C75.583,67.739,76.417,68.573,76.417,69.614z"/>
<path d="M67.551,26.34c0,1.031-0.844,1.874-1.873,1.874c-1.04,0-1.874-0.843-1.874-1.874c0-1.04,0.834-1.874,1.874-1.874
	C66.708,24.466,67.551,25.3,67.551,26.34z"/>
<path d="M100.366,27.146c0,1.03-0.84,1.875-1.872,1.875c-1.039,0-1.875-0.844-1.875-1.875c0-1.041,0.836-1.875,1.875-1.875
	C99.526,25.271,100.366,26.105,100.366,27.146z"/>
<path d="M48.005,53.018c0,1.041-0.845,1.874-1.875,1.874c-1.041,0-1.875-0.833-1.875-1.874c0-1.03,0.833-1.874,1.875-1.874
	C47.161,51.144,48.005,51.988,48.005,53.018z"/>
<path d="M46.927,81.478c0,1.03-0.833,1.872-1.874,1.872c-1.031,0-1.875-0.842-1.875-1.872c0-1.039,0.844-1.875,1.875-1.875
	C46.093,79.603,46.927,80.439,46.927,81.478z"/>
<path d="M41.164,22.817c0,1.04-0.843,1.874-1.875,1.874c-1.04,0-1.874-0.833-1.874-1.874c0-1.031,0.834-1.875,1.874-1.875
	C40.321,20.942,41.164,21.786,41.164,22.817z"/>
<path d="M25.047,54.34c0,1.03-0.834,1.874-1.875,1.874c-1.03,0-1.874-0.844-1.874-1.874c0-1.041,0.843-1.875,1.874-1.875
	C24.213,52.465,25.047,53.299,25.047,54.34z"/>
<path d="M74.128,111.941c0,1.031-0.832,1.873-1.873,1.873c-1.032,0-1.874-0.842-1.874-1.873c0-1.039,0.842-1.874,1.874-1.874
	C73.296,110.067,74.128,110.902,74.128,111.941z"/>
<path d="M95.007,16.604c0,1.04-0.843,1.874-1.874,1.874c-1.041,0-1.874-0.834-1.874-1.874c0-1.031,0.833-1.875,1.874-1.875
	C94.165,14.73,95.007,15.573,95.007,16.604z"/>
<path d="M22.882,115.68c0,1.031-0.844,1.873-1.875,1.873c-1.041,0-1.874-0.842-1.874-1.873c0-1.039,0.833-1.874,1.874-1.874
	C22.039,113.806,22.882,114.641,22.882,115.68z"/>
<path d="M96.458,98.934c0,1.033-0.84,1.875-1.872,1.875c-1.041,0-1.875-0.842-1.875-1.875c0-1.04,0.834-1.874,1.875-1.874
	C95.619,97.06,96.458,97.894,96.458,98.934z"/>
<path d="M14.692,110.658c0,1.031-0.834,1.875-1.875,1.875c-1.03,0-1.874-0.844-1.874-1.875c0-1.04,0.843-1.874,1.874-1.874
	C13.858,108.784,14.692,109.616,14.692,110.658z"/>
<path d="M44.022,72.798c0,1.032-0.844,1.875-1.874,1.875c-1.041,0-1.875-0.843-1.875-1.875c0-1.039,0.833-1.873,1.875-1.873
	C43.178,70.925,44.022,71.759,44.022,72.798z"/>
<path d="M100.153,91.917c0,1.039-0.835,1.874-1.873,1.874c-1.034,0-1.874-0.835-1.874-1.874c0-1.031,0.84-1.873,1.874-1.873
	C99.318,90.043,100.153,90.885,100.153,91.917z"/>
<path d="M23.688,63.344c0,1.04-0.834,1.875-1.875,1.875c-1.03,0-1.874-0.834-1.874-1.875c0-1.031,0.844-1.874,1.874-1.874
	C22.854,61.471,23.688,62.313,23.688,63.344z"/>
<path d="M14.814,45.053c0,1.04-0.844,1.875-1.875,1.875c-1.04,0-1.874-0.834-1.874-1.875c0-1.031,0.833-1.874,1.874-1.874
	C13.97,43.179,14.814,44.022,14.814,45.053z"/>
<path d="M69.209,19.546c0,1.031-0.834,1.874-1.875,1.874c-1.03,0-1.874-0.843-1.874-1.874c0-1.04,0.844-1.875,1.874-1.875
	C68.375,17.672,69.209,18.506,69.209,19.546z"/>
<path d="M18.543,44.519c0,1.041-0.843,1.875-1.874,1.875c-1.041,0-1.875-0.834-1.875-1.875c0-1.03,0.834-1.874,1.875-1.874
	C17.7,42.645,18.543,43.489,18.543,44.519z"/>
<path d="M57.666,80.681c0,1.039-0.843,1.874-1.874,1.874c-1.04,0-1.874-0.835-1.874-1.874c0-1.031,0.833-1.873,1.874-1.873
	C56.822,78.808,57.666,79.65,57.666,80.681z"/>
<path d="M28.992,61.667c0,1.031-0.844,1.875-1.875,1.875c-1.031,0-1.875-0.843-1.875-1.875c0-1.04,0.843-1.874,1.875-1.874
	C28.148,59.793,28.992,60.627,28.992,61.667z"/>
<path d="M76.631,90.436c0,1.039-0.834,1.875-1.873,1.875c-1.032,0-1.874-0.836-1.874-1.875c0-1.032,0.842-1.874,1.874-1.874
	C75.797,88.562,76.631,89.404,76.631,90.436z"/>
<path d="M27.821,29.292c0,1.03-0.834,1.875-1.875,1.875c-1.031,0-1.874-0.844-1.874-1.875c0-1.041,0.843-1.875,1.874-1.875
	C26.987,27.417,27.821,28.251,27.821,29.292z"/>
<path d="M12.837,123.925c0,1.04-0.834,1.874-1.875,1.874c-1.031,0-1.874-0.834-1.874-1.874c0-1.029,0.842-1.873,1.874-1.873
	C12.002,122.052,12.837,122.896,12.837,123.925z"/>
<path d="M99.403,108.436c0,1.031-0.835,1.875-1.874,1.875c-1.031,0-1.875-0.844-1.875-1.875c0-1.039,0.844-1.874,1.875-1.874
	C98.568,106.562,99.403,107.396,99.403,108.436z"/>
<path d="M43.863,121.744c0,1.039-0.834,1.874-1.875,1.874c-1.03,0-1.874-0.835-1.874-1.874c0-1.031,0.843-1.875,1.874-1.875
	C43.029,119.869,43.863,120.712,43.863,121.744z"/>
<path d="M88.074,99.159c0,1.031-0.835,1.875-1.874,1.875c-1.031,0-1.875-0.844-1.875-1.875c0-1.04,0.844-1.874,1.875-1.874
	C87.239,97.285,88.074,98.119,88.074,99.159z"/>
<path d="M19.021,53.327c0,1.031-0.834,1.875-1.874,1.875c-1.031,0-1.875-0.843-1.875-1.875c0-1.04,0.843-1.874,1.875-1.874
	C18.187,51.454,19.021,52.288,19.021,53.327z"/>
<path d="M100.856,100.67c0,1.037-0.844,1.872-1.873,1.872c-1.042,0-1.874-0.835-1.874-1.872c0-1.033,0.832-1.875,1.874-1.875
	C100.012,98.795,100.856,99.637,100.856,100.67z"/>
<path d="M76.866,68.77c0,1.031-0.834,1.874-1.874,1.874c-1.031,0-1.873-0.843-1.873-1.874s0.842-1.874,1.873-1.874
	C76.032,66.896,76.866,67.739,76.866,68.77z"/>
<path d="M25.881,38.541c0,1.03-0.844,1.874-1.875,1.874c-1.03,0-1.874-0.844-1.874-1.874c0-1.041,0.844-1.875,1.874-1.875
	C25.037,36.666,25.881,37.5,25.881,38.541z"/>
<path d="M44.472,129.107c0,1.031-0.844,1.875-1.874,1.875c-1.041,0-1.875-0.844-1.875-1.875c0-1.039,0.834-1.873,1.875-1.873
	C43.628,127.234,44.472,128.068,44.472,129.107z"/>
<path d="M77.147,117.415c0,1.029-0.834,1.873-1.875,1.873c-1.029,0-1.872-0.844-1.872-1.873c0-1.041,0.843-1.875,1.872-1.875
	C76.313,115.54,77.147,116.372,77.147,117.415z"/>
<path d="M20.146,103.976c0,1.039-0.843,1.873-1.874,1.873c-1.041,0-1.875-0.834-1.875-1.873c0-1.032,0.834-1.874,1.875-1.874
	C19.302,102.102,20.146,102.944,20.146,103.976z"/>
<path d="M18.14,108.352c0,1.039-0.842,1.873-1.874,1.873c-1.041,0-1.875-0.834-1.875-1.873c0-1.031,0.834-1.874,1.875-1.874
	C17.298,106.478,18.14,107.321,18.14,108.352z"/>
<path d="M11.572,44.838c0,1.03-0.844,1.874-1.875,1.874c-1.04,0-1.874-0.843-1.874-1.874c0-1.041,0.834-1.875,1.874-1.875
	C10.728,42.963,11.572,43.797,11.572,44.838z"/>
<path d="M44.182,55.53c0,1.03-0.834,1.874-1.874,1.874c-1.031,0-1.875-0.843-1.875-1.874c0-1.041,0.843-1.875,1.875-1.875
	C43.347,53.655,44.182,54.489,44.182,55.53z"/>
<path d="M100.132,12.274c0,1.031-0.833,1.875-1.873,1.875c-1.033,0-1.875-0.843-1.875-1.875c0-1.04,0.842-1.874,1.875-1.874
	C99.299,10.401,100.132,11.235,100.132,12.274z"/>
<path d="M29.301,105.361c0,1.041-0.844,1.875-1.874,1.875c-1.041,0-1.875-0.834-1.875-1.875c0-1.029,0.833-1.873,1.875-1.873
	C28.457,103.488,29.301,104.333,29.301,105.361z"/>
<path d="M24.635,15.62c0,1.041-0.844,1.875-1.875,1.875c-1.041,0-1.874-0.834-1.874-1.875c0-1.03,0.833-1.874,1.874-1.874
	C23.791,13.746,24.635,14.589,24.635,15.62z"/>
<path d="M77.381,119.108c0,1.041-0.842,1.874-1.875,1.874c-1.037,0-1.872-0.833-1.872-1.874c0-1.029,0.835-1.873,1.872-1.873
	C76.536,117.235,77.381,118.08,77.381,119.108z"/>
<path d="M102.551,112.953c0,1.031-0.834,1.875-1.875,1.875c-1.031,0-1.874-0.844-1.874-1.875c0-1.039,0.843-1.874,1.874-1.874
	C101.717,111.079,102.551,111.914,102.551,112.953z"/>
<path d="M109.233,84.973c0,1.03-0.836,1.874-1.875,1.874c-1.03,0-1.874-0.844-1.874-1.874c0-1.041,0.844-1.873,1.874-1.873
	C108.397,83.1,109.233,83.932,109.233,84.973z"/>
<path d="M29.816,51.134c0,1.031-0.834,1.874-1.875,1.874c-1.03,0-1.874-0.843-1.874-1.874c0-1.04,0.844-1.875,1.874-1.875
	C28.982,49.26,29.816,50.095,29.816,51.134z"/>
<path d="M93.114,85.881c0,1.039-0.832,1.874-1.874,1.874c-1.031,0-1.873-0.835-1.873-1.874c0-1.033,0.842-1.875,1.873-1.875
	C92.282,84.006,93.114,84.85,93.114,85.881z"/>
<path d="M23.445,16.079c0,1.04-0.844,1.875-1.875,1.875c-1.031,0-1.874-0.834-1.874-1.875c0-1.031,0.843-1.875,1.874-1.875
	C22.601,14.205,23.445,15.048,23.445,16.079z"/>
<path d="M73.257,121.968c0,1.03-0.834,1.873-1.874,1.873c-1.031,0-1.875-0.843-1.875-1.873c0-1.041,0.844-1.875,1.875-1.875
	C72.423,120.093,73.257,120.927,73.257,121.968z"/>
<path d="M17.906,123.671c0,1.04-0.843,1.874-1.874,1.874c-1.031,0-1.875-0.834-1.875-1.874c0-1.031,0.844-1.875,1.875-1.875
	C17.063,121.796,17.906,122.642,17.906,123.671z"/>
<path d="M53.178,20.437c0,1.031-0.834,1.874-1.875,1.874c-1.031,0-1.875-0.842-1.875-1.874c0-1.04,0.844-1.875,1.875-1.875
	C52.343,18.562,53.178,19.397,53.178,20.437z"/>
<path d="M10.776,101.772c0,1.032-0.835,1.875-1.875,1.875c-1.031,0-1.875-0.843-1.875-1.875c0-1.039,0.843-1.873,1.875-1.873
	C9.941,99.899,10.776,100.733,10.776,101.772z"/>
<path d="M83.602,91.26c0,1.031-0.833,1.875-1.872,1.875c-1.033,0-1.875-0.844-1.875-1.875c0-1.03,0.842-1.874,1.875-1.874
	C82.769,89.386,83.602,90.23,83.602,91.26z"/>
<path d="M42.335,17.729c0,1.041-0.843,1.874-1.874,1.874c-1.04,0-1.875-0.833-1.875-1.874c0-1.031,0.834-1.875,1.875-1.875
	C41.492,15.854,42.335,16.697,42.335,17.729z"/>
<path d="M74.645,128.388c0,1.029-0.843,1.873-1.874,1.873c-1.039,0-1.875-0.844-1.875-1.873c0-1.042,0.836-1.875,1.875-1.875
	C73.8,126.513,74.645,127.346,74.645,128.388z"/>
<path d="M57.291,16.726c0,1.031-0.833,1.875-1.874,1.875c-1.03,0-1.875-0.844-1.875-1.875c0-1.04,0.844-1.874,1.875-1.874
	C56.458,14.852,57.291,15.686,57.291,16.726z"/>
<path d="M100.5,91.231c0,1.039-0.837,1.873-1.875,1.873c-1.03,0-1.874-0.834-1.874-1.873c0-1.03,0.844-1.874,1.874-1.874
	C99.664,89.357,100.5,90.202,100.5,91.231z"/>
<path d="M66.97,125.256c0,1.039-0.843,1.875-1.873,1.875c-1.041,0-1.875-0.836-1.875-1.875c0-1.031,0.834-1.873,1.875-1.873
	C66.127,123.383,66.97,124.225,66.97,125.256z"/>
<path d="M64.796,70.812c0,1.041-0.836,1.875-1.873,1.875c-1.032,0-1.874-0.834-1.874-1.875c0-1.029,0.842-1.872,1.874-1.872
	C63.96,68.94,64.796,69.783,64.796,70.812z"/>
<path d="M20.249,68.583c0,1.031-0.843,1.874-1.875,1.874c-1.04,0-1.874-0.843-1.874-1.874c0-1.04,0.834-1.874,1.874-1.874
	C19.406,66.709,20.249,67.542,20.249,68.583z"/>
<path d="M102.572,69.651c0,1.03-0.845,1.874-1.874,1.874c-1.043,0-1.875-0.844-1.875-1.874c0-1.039,0.832-1.874,1.875-1.874
	C101.725,67.777,102.572,68.612,102.572,69.651z"/>
<path d="M79.369,61.217c0,1.031-0.835,1.874-1.874,1.874c-1.033,0-1.875-0.843-1.875-1.874c0-1.04,0.842-1.874,1.875-1.874
	C78.534,59.343,79.369,60.177,79.369,61.217z"/>
<path d="M14.382,121.322c0,1.039-0.843,1.874-1.874,1.874s-1.875-0.835-1.875-1.874c0-1.031,0.844-1.875,1.875-1.875
	S14.382,120.291,14.382,121.322z"/>
<path d="M54.424,55.942c0,1.031-0.834,1.875-1.875,1.875c-1.03,0-1.875-0.844-1.875-1.875c0-1.041,0.844-1.875,1.875-1.875
	C53.59,54.067,54.424,54.901,54.424,55.942z"/>
<path d="M91.136,28.326c0,1.04-0.834,1.875-1.875,1.875c-1.029,0-1.873-0.834-1.873-1.875c0-1.031,0.844-1.874,1.873-1.874
	C90.302,26.453,91.136,27.295,91.136,28.326z"/>
<path d="M96.488,66.999c0,1.031-0.844,1.875-1.874,1.875c-1.033,0-1.875-0.844-1.875-1.875c0-1.04,0.842-1.874,1.875-1.874
	C95.644,65.125,96.488,65.959,96.488,66.999z"/>
<path d="M91.043,80.22c0,1.031-0.843,1.875-1.874,1.875c-1.039,0-1.875-0.844-1.875-1.875c0-1.03,0.836-1.874,1.875-1.874
	C90.199,78.346,91.043,79.191,91.043,80.22z"/>
<path d="M78.729,59.708c0,1.031-0.842,1.875-1.875,1.875c-1.037,0-1.872-0.843-1.872-1.875c0-1.04,0.835-1.874,1.872-1.874
	C77.887,57.835,78.729,58.669,78.729,59.708z"/>
<path d="M33.152,59.174c0,1.031-0.834,1.875-1.875,1.875c-1.03,0-1.874-0.843-1.874-1.875c0-1.04,0.843-1.874,1.874-1.874
	C32.318,57.3,33.152,58.135,33.152,59.174z"/>
<path d="M47.836,57.047c0,1.031-0.844,1.875-1.875,1.875c-1.031,0-1.875-0.844-1.875-1.875c0-1.04,0.843-1.874,1.875-1.874
	C46.993,55.173,47.836,56.007,47.836,57.047z"/>
<path d="M63.466,129.615c0,1.039-0.835,1.871-1.874,1.871c-1.031,0-1.875-0.832-1.875-1.871c0-1.033,0.844-1.875,1.875-1.875
	C62.632,127.74,63.466,128.583,63.466,129.615z"/>
<path d="M93.217,67.899c0,1.031-0.844,1.874-1.873,1.874c-1.042,0-1.874-0.843-1.874-1.874c0-1.031,0.832-1.875,1.874-1.875
	C92.374,66.024,93.217,66.868,93.217,67.899z"/>
<path d="M103.994,40.34c0,1.03-0.835,1.874-1.874,1.874c-1.031,0-1.873-0.844-1.873-1.874c0-1.041,0.842-1.875,1.873-1.875
	C103.16,38.465,103.994,39.299,103.994,40.34z"/>
<path d="M79.576,65.912c0,1.031-0.836,1.874-1.875,1.874c-1.03,0-1.874-0.842-1.874-1.874c0-1.04,0.844-1.875,1.874-1.875
	C78.74,64.038,79.576,64.872,79.576,65.912z"/>
<path d="M23.529,107.229c0,1.029-0.834,1.875-1.875,1.875c-1.03,0-1.874-0.846-1.874-1.875c0-1.042,0.844-1.874,1.874-1.874
	C22.695,105.355,23.529,106.187,23.529,107.229z"/>
<path d="M83.331,77.036c0,1.03-0.833,1.873-1.874,1.873c-1.031,0-1.874-0.843-1.874-1.873c0-1.039,0.843-1.875,1.874-1.875
	C82.498,75.161,83.331,75.997,83.331,77.036z"/>
<path d="M69.772,114.481c0,1.039-0.834,1.873-1.873,1.873c-1.032,0-1.875-0.834-1.875-1.873c0-1.032,0.843-1.874,1.875-1.874
	C68.938,112.607,69.772,113.449,69.772,114.481z"/>
<path d="M79.949,13.324c0,1.04-0.835,1.875-1.874,1.875c-1.031,0-1.873-0.835-1.873-1.875c0-1.031,0.842-1.874,1.873-1.874
	C79.114,11.45,79.949,12.293,79.949,13.324z"/>
<path d="M33.874,120.513c0,1.041-0.844,1.875-1.875,1.875c-1.04,0-1.874-0.834-1.874-1.875c0-1.029,0.834-1.874,1.874-1.874
	C33.03,118.639,33.874,119.486,33.874,120.513z"/>
<path d="M48.585,56.26c0,1.04-0.834,1.875-1.874,1.875c-1.031,0-1.875-0.834-1.875-1.875c0-1.031,0.844-1.874,1.875-1.874
	C47.751,54.387,48.585,55.229,48.585,56.26z"/>
<path d="M51.209,14.814c0,1.031-0.843,1.875-1.875,1.875c-1.04,0-1.874-0.844-1.874-1.875c0-1.04,0.834-1.874,1.874-1.874
	C50.366,12.94,51.209,13.774,51.209,14.814z"/>
<path d="M40.339,33.884c0,1.031-0.834,1.874-1.874,1.874c-1.031,0-1.875-0.843-1.875-1.874c0-1.04,0.844-1.875,1.875-1.875
	C39.505,32.009,40.339,32.844,40.339,33.884z"/>
<path d="M84.026,119.794c0,1.031-0.834,1.875-1.874,1.875c-1.031,0-1.875-0.844-1.875-1.875c0-1.04,0.844-1.874,1.875-1.874
	C83.192,117.92,84.026,118.752,84.026,119.794z"/>
<path d="M105.042,73.089c0,1.032-0.834,1.874-1.874,1.874c-1.031,0-1.875-0.842-1.875-1.874c0-1.039,0.844-1.873,1.875-1.873
	C104.21,71.216,105.042,72.05,105.042,73.089z"/>
<path d="M109.29,97.162c0,1.041-0.844,1.875-1.873,1.875c-1.042,0-1.874-0.834-1.874-1.875c0-1.029,0.832-1.873,1.874-1.873
	C108.446,95.289,109.29,96.134,109.29,97.162z"/>
<path d="M37.051,16.585c0,1.041-0.834,1.875-1.875,1.875c-1.032,0-1.874-0.834-1.874-1.875c0-1.031,0.843-1.874,1.874-1.874
	C36.216,14.711,37.051,15.554,37.051,16.585z"/>
<path d="M77.633,127.599c0,1.031-0.842,1.875-1.875,1.875c-1.038,0-1.874-0.844-1.874-1.875c0-1.04,0.836-1.874,1.874-1.874
	C76.792,125.725,77.633,126.559,77.633,127.599z"/>
<path d="M13.1,124.075c0,1.041-0.835,1.875-1.875,1.875c-1.031,0-1.874-0.834-1.874-1.875c0-1.03,0.843-1.872,1.874-1.872
	C12.265,122.203,13.1,123.045,13.1,124.075z"/>
<path d="M102.858,35.429c0,1.031-0.832,1.875-1.873,1.875c-1.03,0-1.874-0.844-1.874-1.875c0-1.04,0.844-1.874,1.874-1.874
	C102.028,33.556,102.858,34.389,102.858,35.429z"/>
<path d="M22.31,20.698c0,1.031-0.843,1.875-1.875,1.875c-1.03,0-1.874-0.843-1.874-1.875c0-1.03,0.844-1.874,1.874-1.874
	C21.467,18.825,22.31,19.668,22.31,20.698z"/>
<path d="M85.825,16.248c0,1.031-0.844,1.874-1.873,1.874c-1.032,0-1.875-0.843-1.875-1.874c0-1.04,0.843-1.874,1.875-1.874
	C84.981,14.374,85.825,15.208,85.825,16.248z"/>
<path d="M100.565,75.04c0,1.031-0.835,1.873-1.874,1.873c-1.031,0-1.875-0.842-1.875-1.873c0-1.04,0.844-1.874,1.875-1.874
	C99.73,73.166,100.565,74,100.565,75.04z"/>
<path d="M47.339,62.033c0,1.03-0.843,1.874-1.874,1.874c-1.041,0-1.875-0.843-1.875-1.874c0-1.041,0.834-1.875,1.875-1.875
	C46.496,60.159,47.339,60.993,47.339,62.033z"/>
<path d="M64.039,74.926c0,1.031-0.844,1.875-1.875,1.875c-1.03,0-1.874-0.844-1.874-1.875c0-1.039,0.844-1.874,1.874-1.874
	C63.195,73.052,64.039,73.887,64.039,74.926z"/>
<path d="M42.523,62.033c0,1.03-0.843,1.874-1.875,1.874c-1.04,0-1.874-0.843-1.874-1.874c0-1.041,0.834-1.875,1.874-1.875
	C41.68,60.159,42.523,60.993,42.523,62.033z"/>
<path d="M60.233,26.968c0,1.03-0.844,1.874-1.874,1.874c-1.039,0-1.874-0.843-1.874-1.874c0-1.041,0.835-1.875,1.874-1.875
	C59.389,25.094,60.233,25.928,60.233,26.968z"/>
<path d="M39.927,79.395c0,1.032-0.834,1.874-1.874,1.874c-1.031,0-1.874-0.842-1.874-1.874c0-1.039,0.843-1.875,1.874-1.875
	C39.093,77.52,39.927,78.356,39.927,79.395z"/>
<path d="M71.919,127.955c0,1.031-0.836,1.875-1.875,1.875c-1.03,0-1.874-0.844-1.874-1.875c0-1.039,0.844-1.872,1.874-1.872
	C71.083,126.083,71.919,126.915,71.919,127.955z"/>
<path d="M91.877,33.593c0,1.04-0.835,1.875-1.874,1.875c-1.031,0-1.875-0.835-1.875-1.875c0-1.031,0.844-1.874,1.875-1.874
	C91.043,31.719,91.877,32.562,91.877,33.593z"/>
<path d="M7.308,107.518c0,1.031-0.834,1.873-1.874,1.873c-1.031,0-1.875-0.842-1.875-1.873c0-1.04,0.844-1.874,1.875-1.874
	C6.474,105.644,7.308,106.478,7.308,107.518z"/>
<path d="M93.706,103.055c0,1.032-0.844,1.874-1.873,1.874c-1.041,0-1.875-0.842-1.875-1.874c0-1.037,0.834-1.873,1.875-1.873
	C92.86,101.182,93.706,102.018,93.706,103.055z"/>
<path d="M22.46,39.252c0,1.031-0.834,1.875-1.875,1.875c-1.031,0-1.874-0.843-1.874-1.875c0-1.04,0.843-1.874,1.874-1.874
	C21.626,37.379,22.46,38.213,22.46,39.252z"/>
<path d="M24.409,42.757c0,1.03-0.833,1.874-1.874,1.874c-1.031,0-1.875-0.844-1.875-1.874c0-1.031,0.844-1.875,1.875-1.875
	C23.576,40.883,24.409,41.727,24.409,42.757z"/>
<path d="M41.352,21.093c0,1.04-0.834,1.874-1.875,1.874c-1.03,0-1.874-0.834-1.874-1.874c0-1.031,0.843-1.875,1.874-1.875
	C40.518,19.218,41.352,20.062,41.352,21.093z"/>
<path d="M84.026,103.208c0,1.032-0.844,1.874-1.874,1.874c-1.039,0-1.875-0.842-1.875-1.874c0-1.039,0.836-1.873,1.875-1.873
	C83.181,101.334,84.026,102.168,84.026,103.208z"/>
<path d="M63.755,112.363c0,1.031-0.842,1.873-1.873,1.873c-1.04,0-1.874-0.842-1.874-1.873c0-1.041,0.834-1.874,1.874-1.874
	C62.913,110.489,63.755,111.322,63.755,112.363z"/>
<path d="M89.384,119.839c0,1.041-0.842,1.875-1.874,1.875c-1.039,0-1.873-0.834-1.873-1.875c0-1.03,0.834-1.872,1.873-1.872
	C88.542,117.967,89.384,118.809,89.384,119.839z"/>
<path d="M76.417,105.814c0,1.03-0.836,1.872-1.875,1.872c-1.03,0-1.874-0.842-1.874-1.872c0-1.033,0.844-1.875,1.874-1.875
	C75.583,103.939,76.417,104.781,76.417,105.814z"/>
<path d="M97.361,112.728c0,1.031-0.836,1.875-1.875,1.875c-1.03,0-1.874-0.844-1.874-1.875c0-1.039,0.844-1.874,1.874-1.874
	C96.525,110.854,97.361,111.687,97.361,112.728z"/>
<path d="M26.78,48.342c0,1.031-0.843,1.874-1.874,1.874c-1.031,0-1.875-0.843-1.875-1.874c0-1.04,0.844-1.875,1.875-1.875
	C25.937,46.468,26.78,47.302,26.78,48.342z"/>
<path d="M90.858,79.724c0,1.039-0.835,1.875-1.876,1.875c-1.031,0-1.874-0.836-1.874-1.875c0-1.032,0.843-1.874,1.874-1.874
	C90.023,77.85,90.858,78.692,90.858,79.724z"/>
<path d="M35.578,125.668c0,1.039-0.839,1.873-1.873,1.873c-1.04,0-1.875-0.834-1.875-1.873c0-1.031,0.834-1.874,1.875-1.874
	C34.738,123.794,35.578,124.639,35.578,125.668z"/>
<path d="M55.492,118.424c0,1.041-0.834,1.874-1.875,1.874c-1.031,0-1.874-0.833-1.874-1.874c0-1.029,0.843-1.873,1.874-1.873
	C54.658,116.551,55.492,117.395,55.492,118.424z"/>
<path d="M85.272,119.811c0,1.04-0.844,1.874-1.873,1.874c-1.041,0-1.874-0.834-1.874-1.874c0-1.029,0.833-1.873,1.874-1.873
	C84.426,117.938,85.272,118.783,85.272,119.811z"/>
<path d="M8.563,108.784c0,1.039-0.843,1.874-1.875,1.874c-1.04,0-1.874-0.835-1.874-1.874c0-1.031,0.834-1.873,1.874-1.873
	C7.72,106.911,8.563,107.752,8.563,108.784z"/>
<path d="M34.136,46.131c0,1.04-0.833,1.874-1.874,1.874c-1.031,0-1.874-0.834-1.874-1.874c0-1.031,0.843-1.875,1.874-1.875
	C33.303,44.256,34.136,45.1,34.136,46.131z"/>
<path d="M38.924,20.98c0,1.04-0.843,1.874-1.874,1.874c-1.039,0-1.878-0.834-1.878-1.874c0-1.031,0.84-1.875,1.878-1.875
	C38.081,19.106,38.924,19.949,38.924,20.98z"/>
<path d="M36.282,69.192c0,1.04-0.839,1.874-1.873,1.874c-1.032,0-1.875-0.835-1.875-1.874c0-1.03,0.844-1.875,1.875-1.875
	C35.443,67.317,36.282,68.162,36.282,69.192z"/>
<path d="M20.923,37.238c0,1.03-0.833,1.874-1.874,1.874c-1.03,0-1.875-0.843-1.875-1.874c0-1.041,0.844-1.875,1.875-1.875
	C20.09,35.364,20.923,36.198,20.923,37.238z"/>
<path d="M57.806,79.359c0,1.039-0.843,1.873-1.874,1.873s-1.874-0.834-1.874-1.873c0-1.03,0.843-1.874,1.874-1.874
	S57.806,78.33,57.806,79.359z"/>
<path d="M102.016,16.191c0,1.031-0.842,1.875-1.875,1.875c-1.039,0-1.874-0.843-1.874-1.875c0-1.04,0.835-1.874,1.874-1.874
	C101.172,14.318,102.016,15.152,102.016,16.191z"/>
<path d="M27.979,107.527c0,1.04-0.833,1.874-1.874,1.874c-1.03,0-1.874-0.834-1.874-1.874c0-1.029,0.844-1.873,1.874-1.873
	C27.146,105.654,27.979,106.498,27.979,107.527z"/>
<path d="M44.172,127.795c0,1.04-0.834,1.874-1.875,1.874c-1.03,0-1.874-0.834-1.874-1.874c0-1.029,0.844-1.873,1.874-1.873
	C43.338,125.922,44.172,126.766,44.172,127.795z"/>
<path d="M53.523,23.032c0,1.041-0.833,1.875-1.874,1.875c-1.031,0-1.875-0.834-1.875-1.875c0-1.03,0.844-1.874,1.875-1.874
	C52.69,21.158,53.523,22.001,53.523,23.032z"/>
<path d="M49.063,72.302c0,1.032-0.843,1.875-1.875,1.875c-1.04,0-1.874-0.843-1.874-1.875c0-1.031,0.834-1.873,1.874-1.873
	C48.22,70.429,49.063,71.273,49.063,72.302z"/>
<path d="M80.849,111.182c0,1.039-0.844,1.874-1.875,1.874c-1.039,0-1.874-0.835-1.874-1.874c0-1.033,0.835-1.875,1.874-1.875
	C80.005,109.307,80.849,110.151,80.849,111.182z"/>
<path d="M29.966,29.601c0,1.031-0.834,1.875-1.875,1.875c-1.031,0-1.874-0.844-1.874-1.875c0-1.04,0.843-1.874,1.874-1.874
	C29.132,27.727,29.966,28.561,29.966,29.601z"/>
<path d="M33.05,28.401c0,1.04-0.835,1.875-1.875,1.875c-1.031,0-1.875-0.834-1.875-1.875c0-1.031,0.843-1.875,1.875-1.875
	C32.215,26.527,33.05,27.371,33.05,28.401z"/>
<path d="M51.453,79.611c0,1.041-0.843,1.875-1.874,1.875s-1.875-0.834-1.875-1.875c0-1.03,0.844-1.872,1.875-1.872
	S51.453,78.581,51.453,79.611z"/>
<path d="M37.631,45.446c0,1.031-0.843,1.875-1.877,1.875c-1.035,0-1.871-0.843-1.871-1.875c0-1.031,0.836-1.874,1.871-1.874
	C36.788,43.573,37.631,44.416,37.631,45.446z"/>
<path d="M36.798,37.031c0,1.031-0.836,1.875-1.871,1.875c-1.035,0-1.877-0.843-1.877-1.875c0-1.04,0.843-1.874,1.877-1.874
	C35.961,35.158,36.798,35.992,36.798,37.031z"/>
<path d="M15.863,23.22c0,1.03-0.843,1.874-1.875,1.874c-1.04,0-1.874-0.844-1.874-1.874c0-1.041,0.834-1.875,1.874-1.875
	C15.02,21.346,15.863,22.179,15.863,23.22z"/>
<path d="M68.76,121.949c0,1.041-0.842,1.874-1.875,1.874c-1.039,0-1.874-0.833-1.874-1.874c0-1.031,0.835-1.875,1.874-1.875
	C67.917,120.074,68.76,120.917,68.76,121.949z"/>
<path d="M27.295,126.483c0,1.031-0.843,1.873-1.874,1.873c-1.04,0-1.875-0.842-1.875-1.873s0.834-1.874,1.875-1.874
	C26.453,124.609,27.295,125.454,27.295,126.483z"/>
<path d="M86.565,22.76c0,1.031-0.843,1.875-1.875,1.875c-1.039,0-1.874-0.843-1.874-1.875c0-1.04,0.835-1.874,1.874-1.874
	C85.721,20.887,86.565,21.721,86.565,22.76z"/>
<path d="M70.137,87.024c0,1.039-0.834,1.874-1.875,1.874c-1.03,0-1.874-0.835-1.874-1.874c0-1.031,0.844-1.873,1.874-1.873
	C69.303,85.151,70.137,85.993,70.137,87.024z"/>
<path d="M61.292,82.631c0,1.029-0.836,1.873-1.873,1.873c-1.032,0-1.874-0.844-1.874-1.873c0-1.042,0.842-1.874,1.874-1.874
	C60.456,80.757,61.292,81.589,61.292,82.631z"/>
<path d="M65.611,126.989c0,1.032-0.842,1.874-1.875,1.874c-1.039,0-1.874-0.842-1.874-1.874c0-1.039,0.835-1.873,1.874-1.873
	C64.769,125.116,65.611,125.95,65.611,126.989z"/>
<path d="M96.431,28.805c0,1.03-0.842,1.874-1.873,1.874c-1.039,0-1.874-0.843-1.874-1.874c0-1.041,0.835-1.875,1.874-1.875
	C95.587,26.93,96.431,27.764,96.431,28.805z"/>
<path d="M23.37,31.288c0,1.04-0.844,1.875-1.875,1.875c-1.04,0-1.874-0.834-1.874-1.875c0-1.031,0.834-1.874,1.874-1.874
	C22.526,29.414,23.37,30.257,23.37,31.288z"/>
<path d="M22.029,54.677c0,1.031-0.834,1.875-1.874,1.875c-1.031,0-1.875-0.844-1.875-1.875c0-1.04,0.844-1.874,1.875-1.874
	C21.195,52.803,22.029,53.637,22.029,54.677z"/>
<path d="M12.921,27.24c0,1.03-0.844,1.874-1.874,1.874c-1.031,0-1.875-0.843-1.875-1.874c0-1.041,0.843-1.875,1.875-1.875
	C12.077,25.365,12.921,26.199,12.921,27.24z"/>
<path d="M49.832,11.741c0,1.041-0.844,1.874-1.875,1.874c-1.04,0-1.874-0.833-1.874-1.874c0-1.031,0.833-1.874,1.874-1.874
	C48.988,9.867,49.832,10.709,49.832,11.741z"/>
<path d="M67.842,125.836c0,1.032-0.835,1.875-1.874,1.875c-1.031,0-1.875-0.843-1.875-1.875c0-1.037,0.844-1.873,1.875-1.873
	C67.007,123.963,67.842,124.799,67.842,125.836z"/>
<path d="M63.671,61.901c0,1.04-0.842,1.875-1.873,1.875c-1.032,0-1.874-0.834-1.874-1.875c0-1.031,0.842-1.874,1.874-1.874
	C62.83,60.028,63.671,60.871,63.671,61.901z"/>
<path d="M44.032,50.863c0,1.03-0.835,1.875-1.875,1.875c-1.031,0-1.874-0.844-1.874-1.875c0-1.041,0.843-1.874,1.874-1.874
	C43.197,48.989,44.032,49.822,44.032,50.863z"/>
<path d="M53.974,70.083c0,1.04-0.844,1.874-1.875,1.874c-1.04,0-1.874-0.834-1.874-1.874c0-1.031,0.833-1.875,1.874-1.875
	C53.13,68.208,53.974,69.051,53.974,70.083z"/>
<path d="M102.934,109.243c0,1.039-0.832,1.873-1.875,1.873c-1.03,0-1.874-0.834-1.874-1.873c0-1.032,0.844-1.875,1.874-1.875
	C102.103,107.368,102.934,108.21,102.934,109.243z"/>
<path d="M76.323,117.227c0,1.031-0.842,1.874-1.874,1.874c-1.039,0-1.875-0.843-1.875-1.874c0-1.041,0.836-1.875,1.875-1.875
	C75.479,115.352,76.323,116.186,76.323,117.227z"/>
<path d="M33.068,114.386c0,1.032-0.844,1.874-1.875,1.874c-1.031,0-1.874-0.842-1.874-1.874c0-1.041,0.843-1.873,1.874-1.873
	C32.224,112.513,33.068,113.345,33.068,114.386z"/>
<path d="M94.145,104.642c0,1.031-0.834,1.874-1.875,1.874c-1.03,0-1.872-0.843-1.872-1.874c0-1.041,0.842-1.875,1.872-1.875
	C93.311,102.767,94.145,103.601,94.145,104.642z"/>
<path d="M27.352,111.126c0,1.031-0.844,1.875-1.875,1.875c-1.04,0-1.874-0.844-1.874-1.875c0-1.04,0.833-1.874,1.874-1.874
	C26.508,109.252,27.352,110.084,27.352,111.126z"/>
<path d="M18.927,30.669c0,1.03-0.843,1.874-1.874,1.874c-1.04,0-1.875-0.843-1.875-1.874c0-1.041,0.834-1.875,1.875-1.875
	C18.084,28.795,18.927,29.629,18.927,30.669z"/>
<path d="M9.117,51.425c0,1.03-0.845,1.874-1.875,1.874c-1.041,0-1.874-0.843-1.874-1.874c0-1.041,0.833-1.875,1.874-1.875
	C8.272,49.551,9.117,50.385,9.117,51.425z"/>
<path d="M54.461,9.473c0,1.041-0.834,1.875-1.875,1.875c-1.03,0-1.874-0.834-1.874-1.875c0-1.03,0.844-1.874,1.874-1.874
	C53.627,7.599,54.461,8.442,54.461,9.473z"/>
<path d="M91.448,90.445c0,1.03-0.844,1.872-1.874,1.872c-1.039,0-1.875-0.842-1.875-1.872c0-1.041,0.836-1.875,1.875-1.875
	C90.603,88.57,91.448,89.404,91.448,90.445z"/>
<path d="M59.831,114.3c0,1.032-0.844,1.875-1.874,1.875c-1.031,0-1.875-0.843-1.875-1.875c0-1.039,0.844-1.874,1.875-1.874
	C58.987,112.426,59.831,113.261,59.831,114.3z"/>
<path d="M14.758,36.432c0,1.041-0.844,1.874-1.875,1.874c-1.041,0-1.875-0.833-1.875-1.874c0-1.03,0.834-1.875,1.875-1.875
	C13.914,34.558,14.758,35.402,14.758,36.432z"/>
<path d="M48.342,11.787c0,1.031-0.844,1.875-1.875,1.875c-1.03,0-1.874-0.843-1.874-1.875c0-1.04,0.844-1.874,1.874-1.874
	C47.499,9.914,48.342,10.748,48.342,11.787z"/>
<path d="M75.506,58.8c0,1.031-0.833,1.875-1.872,1.875c-1.031,0-1.875-0.844-1.875-1.875c0-1.04,0.844-1.874,1.875-1.874
	C74.673,56.926,75.506,57.76,75.506,58.8z"/>
<path d="M108.352,89.919c0,1.04-0.835,1.874-1.873,1.874c-1.034,0-1.874-0.834-1.874-1.874c0-1.031,0.84-1.875,1.874-1.875
	C107.517,88.044,108.352,88.888,108.352,89.919z"/>
<path d="M11.6,41.408c0,1.03-0.843,1.874-1.874,1.874c-1.04,0-1.874-0.843-1.874-1.874c0-1.041,0.834-1.875,1.874-1.875
	C10.756,39.534,11.6,40.368,11.6,41.408z"/>
</svg>
