<?xml version="1.0" encoding="utf-8"?>
<!-- Generator: Adobe Illustrator 15.0.0, SVG Export Plug-In . SVG Version: 6.00 Build 0)  -->
<!DOCTYPE svg PUBLIC "-//W3C//DTD SVG 1.1 Tiny//EN" "http://www.w3.org/Graphics/SVG/1.1/DTD/svg11-tiny.dtd">
<svg version="1.1" baseProfile="tiny" id="Laag_1" xmlns="http://www.w3.org/2000/svg" xmlns:xlink="http://www.w3.org/1999/xlink"
	 x="0px" y="0px" width="128px" height="128px" viewBox="16.295 14.312 128 128" overflow="inherit" xml:space="preserve">
<path d="M143.199,57.728c-1.442-3.047-3.983-5.352-7.159-6.487c-1.372-0.493-2.803-0.741-4.251-0.741c-3.575,0-6.9,1.524-9.241,4.04
	c-2.792-1.31-5.525-2.468-8.196-3.479l8.298-28.34l-14.255-4.174l-8.321,28.422c-0.27-0.051-0.537-0.098-0.805-0.145l2.009-30.487
	l-14.816-0.978l-2.033,30.807c-0.388,0.039-0.774,0.08-1.159,0.129l-7.585-28.732l-14.358,3.791l7.766,29.412
	c-0.258,0.138-0.515,0.283-0.771,0.428L50.736,27.333l-11.954,8.809l18.065,24.516c-0.111,0.128-0.224,0.255-0.334,0.385
	L31.586,46.011l-7.668,12.719l24.495,14.77c-0.011,0.022-0.022,0.045-0.034,0.067l-27.777-8.416l-4.307,14.211l26.66,8.077
	c-3.265,10.793-4.556,21.248-5.065,27.952c-4.112,0.961-7.565,3.953-9.027,8.04c-1.136,3.177-0.968,6.604,0.473,9.652
	c1.442,3.048,3.982,5.353,7.161,6.49c1.373,0.49,2.803,0.738,4.251,0.738c5.318,0,10.093-3.364,11.887-8.372
	c1.136-3.174,0.968-6.603-0.473-9.65c-1.442-3.048-3.984-5.352-7.159-6.488c-0.228-0.082-0.46-0.147-0.692-0.216
	c1.172-14.315,6.054-46.212,26.36-58.386c12.348-7.4,28.758-6.396,48.849,2.967c-0.682,2.796-0.392,5.718,0.856,8.355
	c1.44,3.05,3.984,5.354,7.159,6.49c1.375,0.49,2.804,0.741,4.252,0.741c5.316,0,10.095-3.364,11.887-8.374
	C144.812,64.204,144.643,60.778,143.199,57.728z M111.644,24.485l5.066,1.483l-6.232,21.283l-5.065-1.483L111.644,24.485z
	 M72.277,23.413l5.661,21.444l-5.101,1.347L67.176,24.76L72.277,23.413z M33.214,52.582l18.992,11.453l-2.725,4.519L30.489,57.101
	L33.214,52.582z M23.794,71.12l21.223,6.431l-1.53,5.049l-21.222-6.431L23.794,71.12z M90.922,20.45l5.266,0.347l-1.459,22.128
	l-5.266-0.347L90.922,20.45z M49.723,34.027l13.155,17.851l-4.247,3.13L45.476,37.156L49.723,34.027z M45.123,129.253
	c-0.661,1.842-2.419,3.082-4.376,3.082c-0.53,0-1.057-0.093-1.564-0.272c-1.169-0.419-2.104-1.268-2.634-2.391
	c-0.531-1.121-0.592-2.382-0.173-3.55c0.659-1.846,2.418-3.084,4.373-3.084c0.531,0,1.058,0.094,1.566,0.273
	c1.167,0.42,2.104,1.269,2.636,2.39C45.479,126.822,45.541,128.083,45.123,129.253z M136.164,64.69
	c-0.662,1.846-2.42,3.084-4.375,3.084c-0.532,0-1.06-0.092-1.566-0.273c-1.167-0.418-2.104-1.265-2.635-2.388
	c-0.529-1.123-0.592-2.384-0.172-3.553c0.659-1.844,2.415-3.083,4.373-3.083c0.529,0,1.057,0.092,1.563,0.275
	c1.169,0.417,2.104,1.265,2.637,2.388C136.52,62.261,136.581,63.522,136.164,64.69z"/>
</svg>
