<?xml version="1.0" encoding="utf-8"?>
<!-- Generator: Adobe Illustrator 15.0.0, SVG Export Plug-In . SVG Version: 6.00 Build 0)  -->
<!DOCTYPE svg PUBLIC "-//W3C//DTD SVG 1.1//EN" "http://www.w3.org/Graphics/SVG/1.1/DTD/svg11.dtd">
<svg version="1.1" id="Laag_1" xmlns="http://www.w3.org/2000/svg" xmlns:xlink="http://www.w3.org/1999/xlink" x="0px" y="0px"
	 width="128px" height="128px" viewBox="0 0 128 128" enable-background="new 0 0 128 128" xml:space="preserve">
<path d="M126.842,43.417c-1.442-3.047-3.983-5.352-7.159-6.487c-1.372-0.493-2.804-0.741-4.251-0.741c-3.575,0-6.9,1.524-9.241,4.04
	c-2.792-1.31-5.524-2.468-8.196-3.479l8.299-28.34L92.037,4.236l-8.32,28.422c-0.27-0.051-0.537-0.098-0.805-0.145L84.92,2.026
	L70.104,1.048l-2.032,30.807c-0.389,0.039-0.775,0.08-1.16,0.129L59.328,3.252L44.97,7.043l7.766,29.412
	c-0.258,0.138-0.515,0.283-0.771,0.428L34.378,13.022l-11.954,8.809L40.49,46.347c-0.111,0.128-0.224,0.255-0.334,0.385L15.229,31.7
	L7.561,44.419l24.495,14.77c-0.011,0.021-0.022,0.045-0.034,0.066L4.245,50.839l-4.307,14.211l26.66,8.078
	c-3.265,10.793-4.556,21.248-5.065,27.951c-4.112,0.961-7.565,3.953-9.027,8.041c-1.136,3.176-0.968,6.604,0.473,9.65
	c1.442,3.049,3.982,5.354,7.161,6.49c1.373,0.49,2.803,0.738,4.251,0.738c5.318,0,10.093-3.363,11.887-8.371
	c1.136-3.174,0.968-6.604-0.473-9.65c-1.442-3.049-3.984-5.352-7.159-6.488c-0.228-0.082-0.46-0.146-0.692-0.217
	c1.172-14.314,6.054-46.211,26.36-58.385c12.349-7.4,28.759-6.396,48.849,2.967c-0.682,2.796-0.392,5.718,0.856,8.355
	c1.44,3.049,3.983,5.354,7.159,6.489c1.375,0.49,2.804,0.741,4.252,0.741c5.316,0,10.095-3.363,11.887-8.374
	C128.455,49.893,128.285,46.467,126.842,43.417z M95.287,10.174l5.065,1.483L94.121,32.94l-5.065-1.483L95.287,10.174z M55.92,9.102
	l5.66,21.444l-5.101,1.347l-5.661-21.444L55.92,9.102z M16.856,38.271l18.992,11.453l-2.725,4.52L14.131,42.79L16.856,38.271z
	 M7.437,56.809L28.66,63.24l-1.53,5.049L5.908,61.858L7.437,56.809z M74.564,6.139l5.266,0.347l-1.459,22.128l-5.266-0.347
	L74.564,6.139z M33.366,19.716l13.155,17.851l-4.247,3.13L29.119,22.845L33.366,19.716z M28.766,114.941
	c-0.661,1.844-2.419,3.082-4.376,3.082c-0.53,0-1.057-0.092-1.564-0.271c-1.169-0.418-2.104-1.268-2.634-2.391
	c-0.531-1.121-0.592-2.383-0.173-3.551c0.659-1.846,2.418-3.084,4.373-3.084c0.531,0,1.058,0.094,1.566,0.273
	c1.167,0.42,2.104,1.27,2.636,2.391C29.122,112.512,29.184,113.771,28.766,114.941z M119.807,50.378
	c-0.662,1.847-2.42,3.084-4.375,3.084c-0.532,0-1.061-0.092-1.566-0.272c-1.166-0.418-2.104-1.265-2.635-2.388
	c-0.529-1.123-0.592-2.384-0.172-3.553c0.659-1.844,2.415-3.083,4.373-3.083c0.529,0,1.057,0.092,1.562,0.275
	c1.17,0.417,2.104,1.265,2.637,2.388C120.162,47.95,120.224,49.211,119.807,50.378z"/>
</svg>
