<?xml version="1.0" encoding="utf-8"?>
<!-- Generator: Adobe Illustrator 15.0.2, SVG Export Plug-In . SVG Version: 6.00 Build 0)  -->
<!DOCTYPE svg PUBLIC "-//W3C//DTD SVG 1.1//EN" "http://www.w3.org/Graphics/SVG/1.1/DTD/svg11.dtd">
<svg version="1.1" id="Laag_1" xmlns="http://www.w3.org/2000/svg" xmlns:xlink="http://www.w3.org/1999/xlink" x="0px" y="0px"
	 width="128px" height="128px" viewBox="0 0 128 128" enable-background="new 0 0 128 128" xml:space="preserve">
<polygon points="109.885,14.495 83.196,0 83.201,8.14 57.583,8.197 57.583,20.863 83.201,20.792 83.196,28.932 109.885,14.437 "/>
<g>
	<rect x="4.194" y="58.03" width="5.277" height="19.317"/>
	<polygon points="9.472,42.583 16.333,42.583 16.333,37.306 4.194,37.306 4.194,49.444 9.472,49.444 	"/>
	<rect x="87.584" y="58.029" width="5.277" height="19.316"/>
	<path d="M34.128,35.194l-0.775,2.111h-8.435v5.277h6.497L9.472,102.361v-16.43H4.194v19.316h4.217l-3.151,8.585H4.194v2.904
		l-4.165,11.346h93.51l34.098-92.889H34.128z M92.861,102.36v-16.43h-5.277v19.317h4.217l-3.15,8.585h-1.066v2.903l-0.678,1.847
		h-73.27l27.124-73.889h46.823v4.75h5.277v-4.75h21.168L92.861,102.36z"/>
</g>
</svg>
