<?xml version="1.0" encoding="utf-8"?>
<!-- Generator: Adobe Illustrator 15.0.0, SVG Export Plug-In . SVG Version: 6.00 Build 0)  -->
<!DOCTYPE svg PUBLIC "-//W3C//DTD SVG 1.1//EN" "http://www.w3.org/Graphics/SVG/1.1/DTD/svg11.dtd">
<svg version="1.1" id="Laag_1" xmlns="http://www.w3.org/2000/svg" xmlns:xlink="http://www.w3.org/1999/xlink" x="0px" y="0px"
	 width="128px" height="128px" viewBox="0 0 128 128" enable-background="new 0 0 128 128" xml:space="preserve">
<path d="M30.435,26.033c0,7.93-6.427,14.358-14.36,14.358c-7.931,0-14.356-6.428-14.356-14.358c0-7.929,6.425-14.356,14.356-14.356
	C24.008,11.676,30.435,18.104,30.435,26.033z"/>
<path d="M127.907,90.801h-18.87c-1.066-7.223-6.821-12.937-14.062-13.949L94.85-0.002L90.48,0.005l0.125,76.816
	c-7.351,0.922-13.217,6.679-14.295,13.979H0.092v4.74h76.204c1.036,7.373,6.949,13.2,14.364,14.104l0.029,18.356l4.371-0.008
	L95.029,109.6c7.255-1.039,13.003-6.799,14.023-14.06h18.854V90.801z M104.602,90.801h-9.604l-0.016-9.517
	C99.805,82.215,103.624,85.996,104.602,90.801z M90.613,81.247l0.016,9.556h-9.884C81.739,85.913,85.674,82.094,90.613,81.247z
	 M80.727,95.543h9.91l0.016,9.68C85.656,104.381,81.684,100.5,80.727,95.543z M95.021,105.171l-0.016-9.628h9.613
	C103.684,100.389,99.865,104.221,95.021,105.171z"/>
<polygon points="77.949,79.189 66.361,51.725 61.766,57.084 35.672,34.416 27.457,43.997 53.551,66.661 48.25,72.839 "/>
</svg>
