<?xml version="1.0" encoding="utf-8"?>
<!-- Generator: Adobe Illustrator 15.0.0, SVG Export Plug-In . SVG Version: 6.00 Build 0)  -->
<!DOCTYPE svg PUBLIC "-//W3C//DTD SVG 1.1 Tiny//EN" "http://www.w3.org/Graphics/SVG/1.1/DTD/svg11-tiny.dtd">
<svg version="1.1" baseProfile="tiny" id="Laag_1" xmlns="http://www.w3.org/2000/svg" xmlns:xlink="http://www.w3.org/1999/xlink"
	 x="0px" y="0px" width="128px" height="128px" viewBox="23.741 23.425 128 128" overflow="inherit" xml:space="preserve">
<path d="M54.269,49.455c0,7.93-6.427,14.358-14.36,14.358c-7.931,0-14.356-6.428-14.356-14.358c0-7.929,6.425-14.356,14.356-14.356
	C47.842,35.098,54.269,41.526,54.269,49.455z"/>
<path d="M151.741,114.223h-18.87c-1.067-7.223-6.821-12.937-14.062-13.949l-0.125-76.854l-4.37,0.007l0.125,76.816
	c-7.35,0.922-13.216,6.679-14.295,13.979H23.926v4.741h76.204c1.036,7.373,6.949,13.2,14.364,14.104l0.03,18.356l4.37-0.008
	l-0.03-18.393c7.254-1.039,13.002-6.799,14.022-14.06h18.855V114.223z M128.436,114.223h-9.604l-0.016-9.517
	C123.639,105.637,127.458,109.418,128.436,114.223z M114.447,104.669l0.016,9.555h-9.884
	C105.573,109.335,109.508,105.516,114.447,104.669z M104.561,118.965h9.909l0.016,9.679
	C109.49,127.803,105.518,123.922,104.561,118.965z M118.856,128.593l-0.016-9.628h9.613
	C127.517,123.811,123.699,127.642,118.856,128.593z"/>
<polygon points="101.783,102.612 90.195,75.147 85.599,80.506 59.506,57.838 51.291,67.419 77.385,90.083 72.084,96.261 "/>
</svg>
