<?xml version="1.0" encoding="utf-8"?>
<!-- Generator: Adobe Illustrator 15.0.0, SVG Export Plug-In . SVG Version: 6.00 Build 0)  -->
<!DOCTYPE svg PUBLIC "-//W3C//DTD SVG 1.1 Tiny//EN" "http://www.w3.org/Graphics/SVG/1.1/DTD/svg11-tiny.dtd">
<svg version="1.1" baseProfile="tiny" id="Laag_1" xmlns="http://www.w3.org/2000/svg" xmlns:xlink="http://www.w3.org/1999/xlink"
	 x="0px" y="0px" width="128px" height="128px" viewBox="-20.814 -21.927 128 128" overflow="inherit" xml:space="preserve">
<path d="M102.355,40.711l-8.473,2.481c4.043,13.888-3.7,28.369-17.362,32.822l-1.547-4.147L61.79,84.414l17.868,3.451l-0.727-3.339
	C97.331,78.746,107.793,59.298,102.355,40.711"/>
<path d="M23.47,89.659l-0.133-8.824C8.875,81.03-3.016,69.701-3.661,55.346l4.408-0.385L-7.828,38.91l-8.092,16.302l3.411,0.189
	C-11.846,74.673,4.108,89.948,23.47,89.659"/>
<path d="M12.078-1.107l7.778,4.175C26.714-9.666,42.392-14.558,55.255-8.145l-1.808,4.038l18.195,0.306L61.329-18.797l-1.827,2.888
	C42.337-24.69,21.239-18.169,12.078-1.107"/>
<path d="M87.939,36.187c-10.348,0-18.767-8.418-18.767-18.766c0-10.347,8.419-18.766,18.767-18.766
	c10.347,0,18.766,8.418,18.766,18.766C106.705,27.768,98.286,36.187,87.939,36.187z M87.939,7.48c-5.481,0-9.941,4.459-9.941,9.941
	s4.46,9.941,9.941,9.941c5.48,0,9.94-4.459,9.94-9.941S93.419,7.48,87.939,7.48z"/>
<path d="M64.959,103.956H22.708l21.126-36.593L64.959,103.956z M37.995,95.131h11.679l-5.84-10.115L37.995,95.131z"/>
<path d="M10.356,32.767h-30.689V2.078h30.689V32.767z M-11.508,23.942H1.531V10.903h-13.039V23.942z"/>
</svg>
