<?xml version="1.0" encoding="utf-8"?>
<!-- Generator: Adobe Illustrator 15.0.0, SVG Export Plug-In . SVG Version: 6.00 Build 0)  -->
<!DOCTYPE svg PUBLIC "-//W3C//DTD SVG 1.1//EN" "http://www.w3.org/Graphics/SVG/1.1/DTD/svg11.dtd">
<svg version="1.1" id="Laag_1" xmlns="http://www.w3.org/2000/svg" xmlns:xlink="http://www.w3.org/1999/xlink" x="0px" y="0px"
	 width="128px" height="128px" viewBox="0 0 128 128" enable-background="new 0 0 128 128" xml:space="preserve">
<path d="M123.17,62.926l-8.475,2.48c4.043,13.889-3.699,28.369-17.361,32.822l-1.547-4.146l-13.184,12.547l17.869,3.451l-0.727-3.34
	C118.145,100.961,128.607,81.513,123.17,62.926"/>
<path d="M44.284,111.874l-0.133-8.824c-14.462,0.194-26.353-11.134-26.998-25.489l4.408-0.385l-8.575-16.051L4.894,77.427
	l3.411,0.188C8.968,96.888,24.922,112.163,44.284,111.874"/>
<path d="M32.892,21.108l7.778,4.175C47.528,12.549,63.206,7.657,76.068,14.07l-1.808,4.038l18.196,0.306L82.143,3.418l-1.826,2.888
	C63.151-2.475,42.053,4.046,32.892,21.108"/>
<path d="M108.754,58.402c-10.35,0-18.768-8.418-18.768-18.766c0-10.347,8.418-18.766,18.768-18.766
	c10.346,0,18.766,8.418,18.766,18.766C127.52,49.983,119.1,58.402,108.754,58.402z M108.754,29.695
	c-5.482,0-9.941,4.459-9.941,9.941s4.459,9.941,9.941,9.941c5.479,0,9.939-4.459,9.939-9.941S114.232,29.695,108.754,29.695z"/>
<path d="M85.773,126.171H43.522l21.126-36.593L85.773,126.171z M58.809,117.346h11.679l-5.84-10.115L58.809,117.346z"/>
<path d="M31.17,54.982H0.481V24.293H31.17V54.982z M9.306,46.157h13.039V33.118H9.306V46.157z"/>
</svg>
