<?xml version="1.0" encoding="utf-8"?>
<!-- Generator: Adobe Illustrator 15.0.0, SVG Export Plug-In . SVG Version: 6.00 Build 0)  -->
<!DOCTYPE svg PUBLIC "-//W3C//DTD SVG 1.1//EN" "http://www.w3.org/Graphics/SVG/1.1/DTD/svg11.dtd">
<svg version="1.1" id="Laag_1" xmlns="http://www.w3.org/2000/svg" xmlns:xlink="http://www.w3.org/1999/xlink" x="0px" y="0px"
	 width="128px" height="128px" viewBox="0 0 128 128" enable-background="new 0 0 128 128" xml:space="preserve">
<path d="M126.763,41.802c-1.504-3.182-4.157-5.585-7.473-6.772c-1.433-0.514-2.926-0.773-4.438-0.773
	c-3.729,0-7.2,1.591-9.646,4.218c-1.291-0.606-2.57-1.18-3.84-1.725l0.889-2.686l-0.635-0.21c-0.301,0.058-0.8,0.065-1.5,0.022
	c-0.695-0.042-1.244-0.129-1.639-0.26c-0.96-0.317-1.645-0.703-2.047-1.16C96.03,32,95.81,31.492,95.777,30.929
	c-0.048-0.566,0.024-1.163,0.217-1.792c0.19-0.628,0.427-1.361,0.702-2.197l2.8-8.462l7.134,2.359l1.715-5.18l-7.137-2.36
	l2.256-6.815L95.8,3.947l-2.254,6.816l-3.144-1.04l-1.714,5.181l3.142,1.04L88.146,27.09c-0.612,1.847-0.815,3.444-0.616,4.797
	c-1.785-0.476-3.543-0.89-5.269-1.225l-8.895-10.728l9.363-12.682l-9.229,0.3l-5.062,7.54l-5.516-7.194l-9.387,0.306L63.69,20.421
	l-8.529,11.581c-0.25,0.089-0.5,0.178-0.749,0.271c0.019-0.031,0.037-0.059,0.056-0.091L50.474,27.1l-0.704,0.553
	c-0.294,1.122-0.88,2.417-1.755,3.882c-0.877,1.467-1.982,2.726-3.318,3.777c-2.11,1.657-4.029,2.502-5.758,2.534
	c-1.729,0.032-3.25-0.688-4.559-2.162l14.487-11.388l-1.742-2.216c-2.396-3.047-5.04-4.747-7.933-5.098
	c-2.894-0.352-5.947,0.734-9.159,3.259c-3.481,2.736-5.472,5.843-5.974,9.318c-0.5,3.476,0.528,6.841,3.09,10.1
	c2.59,3.293,5.639,5.002,9.149,5.125c0.136,0.006,0.274-0.008,0.411-0.008c-1.166,1.331-2.267,2.72-3.301,4.158l-2.683-1.395
	l-0.308,0.594c0.009,0.306-0.063,0.801-0.216,1.482c-0.154,0.684-0.326,1.21-0.519,1.577c-0.466,0.896-0.958,1.51-1.471,1.836
	c-0.517,0.328-1.053,0.462-1.613,0.405c-0.566-0.043-1.144-0.209-1.734-0.5c-0.589-0.289-1.275-0.639-2.056-1.045l-7.908-4.113
	l3.467-6.667l-4.84-2.517l-3.467,6.665L3.69,41.944l-3.726,7.163l6.368,3.312l-1.528,2.938l4.84,2.518l1.528-2.937l10.415,5.419
	c1.715,0.893,3.252,1.349,4.612,1.375c-6.503,14.755-8.649,30.962-9.355,40.257c-4.292,1.004-7.896,4.127-9.423,8.393
	c-1.185,3.316-1.011,6.895,0.494,10.074c1.504,3.182,4.157,5.588,7.474,6.773c1.433,0.514,2.926,0.771,4.437,0.771
	c5.55,0,10.536-3.51,12.407-8.738c1.187-3.314,1.011-6.893-0.494-10.072c-1.505-3.184-4.158-5.584-7.472-6.773
	c-0.237-0.086-0.477-0.152-0.717-0.225c1.232-14.947,6.345-48.265,27.521-60.947c12.887-7.717,30.009-6.667,50.975,3.102
	c-0.711,2.92-0.408,5.969,0.896,8.723c1.504,3.183,4.155,5.588,7.473,6.774c1.433,0.512,2.927,0.771,4.438,0.771
	c5.551,0,10.535-3.512,12.406-8.738C128.444,48.562,128.269,44.985,126.763,41.802z M30.375,27.91
	c0.287-1.25,1.041-2.355,2.259-3.314c1.312-1.031,2.543-1.457,3.689-1.277c1.147,0.18,2.258,0.918,3.334,2.215l-8.211,6.454
	C30.443,30.52,30.085,29.16,30.375,27.91z M24.396,116.455c-0.69,1.926-2.525,3.221-4.568,3.221c-0.553,0-1.103-0.098-1.633-0.285
	c-1.22-0.438-2.197-1.324-2.749-2.494c-0.554-1.172-0.619-2.486-0.181-3.707c0.688-1.926,2.523-3.219,4.565-3.219
	c0.554,0,1.104,0.098,1.634,0.287c1.219,0.436,2.196,1.322,2.75,2.494C24.767,113.922,24.831,115.238,24.396,116.455z
	 M65.656,29.711l3.006-4.396l3.194,4.18C69.737,29.442,67.673,29.516,65.656,29.711z M119.421,49.069
	c-0.69,1.925-2.524,3.219-4.567,3.219c-0.556,0-1.104-0.096-1.634-0.285c-1.219-0.438-2.197-1.322-2.75-2.494
	c-0.553-1.17-0.619-2.487-0.182-3.708c0.688-1.925,2.524-3.218,4.564-3.218c0.555,0,1.104,0.096,1.635,0.286
	c1.218,0.436,2.195,1.321,2.75,2.492C119.792,46.534,119.856,47.85,119.421,49.069z"/>
</svg>
