<?xml version="1.0" encoding="utf-8"?>
<!-- Generator: Adobe Illustrator 15.0.0, SVG Export Plug-In . SVG Version: 6.00 Build 0)  -->
<!DOCTYPE svg PUBLIC "-//W3C//DTD SVG 1.1//EN" "http://www.w3.org/Graphics/SVG/1.1/DTD/svg11.dtd">
<svg version="1.1" id="Laag_1" xmlns="http://www.w3.org/2000/svg" xmlns:xlink="http://www.w3.org/1999/xlink" x="0px" y="0px"
	 width="128px" height="128px" viewBox="0 0 128 128" enable-background="new 0 0 128 128" xml:space="preserve">
<g>
	<path d="M101.014,125.062c-3.367,0.868-6.938,1.548-10.712,2.04s-8.393,0.737-13.85,0.737c-12.193,0-21.265-2.468-27.215-7.401
		c-5.952-4.935-8.927-13.383-8.927-25.345V49.368H27.419v-21.25H40.31V0.161h31.441v27.958h29.263v21.25H71.751v34.717
		c0,3.433,0.026,6.426,0.086,8.984c0.058,2.559,0.521,4.855,1.39,6.891c0.812,2.037,2.244,3.648,4.299,4.842
		c2.056,1.191,5.052,1.787,8.988,1.787c1.62,0,3.747-0.348,6.383-1.045c2.635-0.697,4.472-1.334,5.516-1.916h2.604L101.014,125.062
		L101.014,125.062z"/>
</g>
</svg>
