<?xml version="1.0" encoding="utf-8"?>
<!-- Generator: Adobe Illustrator 15.0.0, SVG Export Plug-In . SVG Version: 6.00 Build 0)  -->
<!DOCTYPE svg PUBLIC "-//W3C//DTD SVG 1.1 Tiny//EN" "http://www.w3.org/Graphics/SVG/1.1/DTD/svg11-tiny.dtd">
<svg version="1.1" baseProfile="tiny" id="Laag_1" xmlns="http://www.w3.org/2000/svg" xmlns:xlink="http://www.w3.org/1999/xlink"
	 x="0px" y="0px" width="128px" height="128px" viewBox="18.52 17.178 128 128" overflow="inherit" xml:space="preserve">
<path d="M145.316,58.979c-1.504-3.182-4.157-5.585-7.472-6.772c-1.433-0.514-2.926-0.773-4.438-0.773
	c-3.729,0-7.2,1.591-9.646,4.218c-1.291-0.606-2.571-1.18-3.84-1.725l0.889-2.686l-0.635-0.21c-0.301,0.058-0.8,0.065-1.5,0.022
	c-0.696-0.042-1.244-0.129-1.639-0.26c-0.96-0.317-1.644-0.703-2.047-1.16c-0.404-0.456-0.625-0.964-0.657-1.527
	c-0.048-0.566,0.024-1.163,0.217-1.792c0.191-0.628,0.427-1.361,0.702-2.197l2.8-8.462l7.133,2.359l1.715-5.18l-7.136-2.36
	l2.255-6.815l-7.664-2.535l-2.254,6.816l-3.143-1.04l-1.714,5.181l3.142,1.04l-3.685,11.146c-0.612,1.847-0.815,3.444-0.616,4.797
	c-1.785-0.476-3.543-0.89-5.269-1.225L91.92,37.111l9.363-12.682l-9.229,0.3l-5.062,7.54l-5.515-7.194l-9.387,0.306l10.154,12.217
	l-8.529,11.581c-0.25,0.089-0.5,0.178-0.749,0.271c0.019-0.031,0.037-0.059,0.055-0.091l-3.994-5.082l-0.704,0.553
	c-0.294,1.122-0.879,2.417-1.755,3.882c-0.876,1.467-1.982,2.726-3.318,3.777c-2.11,1.657-4.029,2.502-5.758,2.534
	c-1.729,0.032-3.25-0.688-4.559-2.162l14.487-11.388l-1.742-2.216c-2.396-3.047-5.04-4.747-7.933-5.098
	c-2.894-0.352-5.947,0.734-9.159,3.259c-3.481,2.736-5.472,5.843-5.974,9.318c-0.5,3.476,0.528,6.841,3.09,10.1
	c2.59,3.293,5.639,5.002,9.149,5.125c0.136,0.006,0.274-0.008,0.411-0.008c-1.166,1.331-2.267,2.72-3.301,4.158l-2.683-1.394
	l-0.308,0.593c0.009,0.306-0.063,0.801-0.216,1.483c-0.154,0.684-0.326,1.21-0.519,1.577c-0.466,0.896-0.958,1.51-1.471,1.836
	c-0.517,0.328-1.053,0.462-1.613,0.405c-0.566-0.043-1.144-0.208-1.734-0.499c-0.589-0.29-1.275-0.639-2.056-1.045l-7.908-4.114
	l3.467-6.667l-4.84-2.517l-3.467,6.665l-6.369-3.313l-3.726,7.163l6.368,3.312l-1.528,2.937l4.84,2.518l1.528-2.937l10.415,5.419
	c1.715,0.893,3.252,1.349,4.612,1.375c-6.503,14.755-8.649,30.962-9.355,40.258c-4.292,1.004-7.896,4.127-9.423,8.393
	c-1.185,3.316-1.011,6.893,0.494,10.073c1.504,3.183,4.157,5.588,7.474,6.774c1.433,0.513,2.926,0.772,4.437,0.772
	c5.55,0,10.536-3.511,12.407-8.738c1.187-3.316,1.011-6.893-0.494-10.074c-1.505-3.182-4.158-5.584-7.472-6.773
	c-0.237-0.085-0.477-0.151-0.717-0.224c1.232-14.947,6.345-48.265,27.521-60.947c12.887-7.717,30.009-6.667,50.974,3.102
	c-0.711,2.92-0.407,5.969,0.896,8.723c1.504,3.182,4.156,5.588,7.473,6.774c1.433,0.512,2.926,0.772,4.438,0.772
	c5.551,0,10.535-3.512,12.407-8.738C146.998,65.739,146.822,62.162,145.316,58.979z M48.928,45.087
	c0.287-1.25,1.041-2.355,2.259-3.314c1.312-1.031,2.543-1.457,3.689-1.277c1.147,0.18,2.258,0.918,3.334,2.215l-8.211,6.454
	C48.997,47.697,48.639,46.337,48.928,45.087z M42.949,133.633c-0.69,1.925-2.525,3.22-4.568,3.22c-0.553,0-1.103-0.098-1.633-0.285
	c-1.22-0.438-2.197-1.324-2.749-2.494c-0.554-1.171-0.619-2.486-0.181-3.707c0.688-1.925,2.523-3.218,4.565-3.218
	c0.554,0,1.104,0.096,1.634,0.286c1.219,0.436,2.196,1.322,2.75,2.494C43.321,131.099,43.385,132.415,42.949,133.633z M84.21,46.888
	l3.006-4.396l3.194,4.18C88.291,46.619,86.226,46.693,84.21,46.888z M137.974,66.246c-0.69,1.925-2.524,3.219-4.567,3.219
	c-0.555,0-1.104-0.096-1.633-0.286c-1.22-0.437-2.198-1.321-2.75-2.493c-0.554-1.171-0.619-2.488-0.182-3.708
	c0.687-1.925,2.524-3.218,4.564-3.218c0.555,0,1.104,0.096,1.635,0.286c1.218,0.436,2.196,1.321,2.75,2.492
	C138.346,63.711,138.41,65.028,137.974,66.246z"/>
</svg>
