<?xml version="1.0" encoding="utf-8"?>
<!-- Generator: Adobe Illustrator 15.0.0, SVG Export Plug-In . SVG Version: 6.00 Build 0)  -->
<!DOCTYPE svg PUBLIC "-//W3C//DTD SVG 1.1 Tiny//EN" "http://www.w3.org/Graphics/SVG/1.1/DTD/svg11-tiny.dtd">
<svg version="1.1" baseProfile="tiny" id="Laag_1" xmlns="http://www.w3.org/2000/svg" xmlns:xlink="http://www.w3.org/1999/xlink"
	 x="0px" y="0px" width="128px" height="128px" viewBox="5.419 54.23 128 128" overflow="inherit" xml:space="preserve">
<g>
	<path d="M107.014,179.132c-3.368,0.868-6.938,1.547-10.712,2.04c-3.775,0.492-8.393,0.737-13.85,0.737
		c-12.193,0-21.265-2.467-27.215-7.401c-5.952-4.935-8.927-13.383-8.927-25.345v-45.726H33.419v-21.25H46.31V54.23h31.441v27.958
		h29.263v21.25H77.751v34.717c0,3.432,0.027,6.425,0.086,8.984c0.057,2.558,0.521,4.855,1.39,6.891
		c0.812,2.036,2.244,3.648,4.298,4.841c2.056,1.191,5.052,1.787,8.988,1.787c1.621,0,3.748-0.347,6.383-1.045
		c2.635-0.697,4.472-1.334,5.516-1.916h2.604L107.014,179.132L107.014,179.132z"/>
</g>
</svg>
