<?xml version="1.0" encoding="utf-8"?>
<!-- Generator: Adobe Illustrator 15.0.2, SVG Export Plug-In . SVG Version: 6.00 Build 0)  -->
<!DOCTYPE svg PUBLIC "-//W3C//DTD SVG 1.1//EN" "http://www.w3.org/Graphics/SVG/1.1/DTD/svg11.dtd">
<svg version="1.1" id="Laag_1" xmlns="http://www.w3.org/2000/svg" xmlns:xlink="http://www.w3.org/1999/xlink" x="0px" y="0px"
	 width="128px" height="128px" viewBox="0 0 128 128" enable-background="new 0 0 128 128" xml:space="preserve">
<g>
	<path d="M61.792,71.417c-5.146,0-9.332-4.188-9.332-9.338c0-5.146,4.188-9.334,9.332-9.334c5.156,0,9.341,4.189,9.341,9.334
		C71.131,67.229,66.941,71.417,61.792,71.417z M61.792,57.86c-2.32,0-4.213,1.893-4.213,4.215c0,2.326,1.893,4.219,4.213,4.219
		c2.328,0,4.222-1.893,4.222-4.219C66.012,59.755,64.12,57.86,61.792,57.86z"/>
</g>
<g>
	<path d="M80.292,85.917c-5.146,0-9.332-4.188-9.332-9.338c0-5.146,4.188-9.334,9.332-9.334c5.156,0,9.341,4.188,9.341,9.334
		C89.631,81.729,85.441,85.917,80.292,85.917z M80.292,72.359c-2.319,0-4.213,1.894-4.213,4.216c0,2.325,1.894,4.219,4.213,4.219
		c2.328,0,4.222-1.894,4.222-4.219C84.512,74.256,82.62,72.359,80.292,72.359z"/>
</g>
<g>
	<path d="M84.625,47.583c-5.146,0-9.332-4.188-9.332-9.338c0-5.146,4.188-9.334,9.332-9.334c5.156,0,9.341,4.188,9.341,9.334
		C93.964,43.395,89.773,47.583,84.625,47.583z M84.625,34.026c-2.318,0-4.213,1.894-4.213,4.216c0,2.325,1.895,4.219,4.213,4.219
		c2.328,0,4.223-1.894,4.223-4.219C88.846,35.922,86.953,34.026,84.625,34.026z"/>
</g>
<g>
	<path d="M98.458,20.75c-5.146,0-9.332-4.188-9.332-9.338c0-5.146,4.188-9.334,9.332-9.334c5.156,0,9.341,4.188,9.341,9.334
		C107.797,16.562,103.607,20.75,98.458,20.75z M98.458,7.192c-2.319,0-4.213,1.894-4.213,4.216c0,2.325,1.894,4.219,4.213,4.219
		c2.328,0,4.222-1.894,4.222-4.219C102.678,9.089,100.786,7.192,98.458,7.192z"/>
</g>
<g>
	<path d="M105.624,107.584c-5.146,0-9.332-4.188-9.332-9.338c0-5.146,4.188-9.334,9.332-9.334c5.155,0,9.341,4.188,9.341,9.334
		C114.963,103.396,110.773,107.584,105.624,107.584z M105.624,94.025c-2.319,0-4.213,1.895-4.213,4.217
		c0,2.324,1.894,4.219,4.213,4.219c2.328,0,4.222-1.895,4.222-4.219C109.844,95.923,107.952,94.025,105.624,94.025z"/>
</g>
<g>
	<path d="M85.458,128c-5.146,0-9.332-4.188-9.332-9.338c0-5.146,4.188-9.334,9.332-9.334c5.156,0,9.341,4.188,9.341,9.334
		C94.797,123.812,90.607,128,85.458,128z M85.458,114.441c-2.319,0-4.213,1.895-4.213,4.217c0,2.324,1.894,4.219,4.213,4.219
		c2.328,0,4.222-1.895,4.222-4.219C89.678,116.339,87.786,114.441,85.458,114.441z"/>
</g>
<polygon points="40.213,63.044 13.478,49.86 13.508,57.543 0,57.579 0.062,69.136 13.563,69.101 13.603,77.68 "/>
</svg>
