<?xml version="1.0" encoding="utf-8"?>
<!-- Generator: Adobe Illustrator 15.0.0, SVG Export Plug-In . SVG Version: 6.00 Build 0)  -->
<svg version="1.2" baseProfile="tiny" id="Laag_1" xmlns="http://www.w3.org/2000/svg" xmlns:xlink="http://www.w3.org/1999/xlink"
	 x="0px" y="0px" width="128px" height="128px" viewBox="-31.762 -32.41 128 128" overflow="inherit" xml:space="preserve">
<polygon points="80.47,41.826 76.19,50.022 35.893,32.499 43.65,14.655 50.03,16.714 48.428,-7.686 29.491,7.785 35.067,10.923 
	27.309,28.767 -10.14,12.484 -7.066,3.765 -31.466,5.365 -15.995,24.302 -11.715,16.108 25.732,32.391 18.278,49.539 12.177,47.602 
	13.78,72.001 32.716,56.532 26.861,53.272 34.318,36.123 74.615,53.646 71.541,62.365 95.941,60.763 "/>
<path d="M56.674,68.887L46.225,63.28C37.01,80.389,15.947,86.955-1.335,78.345l2.43-5.427l-24.448-0.411l13.86,20.146l2.453-3.882
	C16.018,100.573,44.37,91.809,56.674,68.887z"/>
<path d="M6.288-5.706l10.45,5.608c9.215-17.109,30.28-23.68,47.562-15.065l-2.432,5.426l24.448,0.411L72.457-29.475l-2.454,3.88
	C46.945-37.393,18.594-28.63,6.288-5.706z"/>
</svg>
