<?xml version="1.0" encoding="utf-8"?>
<!-- Generator: Adobe Illustrator 15.0.0, SVG Export Plug-In . SVG Version: 6.00 Build 0)  -->
<!DOCTYPE svg PUBLIC "-//W3C//DTD SVG 1.1//EN" "http://www.w3.org/Graphics/SVG/1.1/DTD/svg11.dtd">
<svg version="1.1" id="Laag_1" xmlns="http://www.w3.org/2000/svg" xmlns:xlink="http://www.w3.org/1999/xlink" x="0px" y="0px"
	 width="128px" height="128px" viewBox="0 0 128 128" enable-background="new 0 0 128 128" xml:space="preserve">
<polygon points="112.232,73.661 107.951,81.857 67.654,64.334 75.412,46.49 81.791,48.549 80.189,24.149 61.253,39.62 
	66.828,42.758 59.07,60.602 21.622,44.319 24.696,35.6 0.296,37.2 15.767,56.137 20.047,47.943 57.494,64.227 50.04,81.374 
	43.938,79.438 45.542,103.836 64.478,88.367 58.623,85.107 66.08,67.958 106.377,85.48 103.303,94.2 127.703,92.598 "/>
<path d="M88.436,100.722l-10.449-5.606c-9.215,17.108-30.278,23.675-47.56,15.065l2.43-5.428l-24.448-0.411l13.86,20.146
	l2.453-3.881C47.78,132.408,76.132,123.644,88.436,100.722z"/>
<path d="M38.05,26.129l10.45,5.608c9.215-17.109,30.28-23.68,47.562-15.065l-2.432,5.426l24.448,0.411L104.219,2.36l-2.454,3.88
	C78.707-5.558,50.355,3.205,38.05,26.129z"/>
</svg>
