<?xml version="1.0" encoding="utf-8"?>
<!-- Generator: Adobe Illustrator 15.0.2, SVG Export Plug-In . SVG Version: 6.00 Build 0)  -->
<!DOCTYPE svg PUBLIC "-//W3C//DTD SVG 1.1//EN" "http://www.w3.org/Graphics/SVG/1.1/DTD/svg11.dtd">
<svg version="1.1" id="Laag_1" xmlns="http://www.w3.org/2000/svg" xmlns:xlink="http://www.w3.org/1999/xlink" x="0px" y="0px"
	 width="128px" height="128px" viewBox="0 0 128 128" enable-background="new 0 0 128 128" xml:space="preserve">
<g>
	<polygon fill="none" points="69.357,73.545 46.526,34 37.149,34 14.316,73.545 16.246,73.545 16.246,80.566 67.432,80.566 
		67.432,73.545 	"/>
	<path d="M73.45,73.545L49.693,32.396V17.798H33.488V33.25L10.223,73.545H0.041v16.201h16.205v-5.635h51.186v0.604v5.03h16.204
		V73.545H73.45z M37.457,26.377v-4.611h2.662h3.438h2.168v3.756v4.509h-1.49H39.44h-1.983V26.377z M12.277,80.566v3.545v1.666H4.009
		v-8.265h3.923h4.094h0.251V80.566z M16.246,80.566v-7.021h-1.929L37.149,34h9.377l22.831,39.545h-1.926v7.021H16.246z
		 M79.669,85.777h-8.27v-8.265h8.27V85.777z"/>
</g>
<path d="M127.985,31.274V15.073h-16.204v5.852H75.46v-5.852H59.255v16.201h6.481v17.331l3.547-1.912V31.274h0.603h5.574V24.47
	h36.321v6.804h6.968v36.077h-4.559c-3.289-10.384-11.766-18.48-22.378-21.226v-7.266H75.607v7.328
	c-4.551,1.194-8.659,3.332-11.743,6.12l1.799,2.886c0,0,0.288-0.143,0.641-0.421l0.087-0.051l-0.008-0.012
	c2.765-2.174,5.9-3.777,9.224-4.792v5.145h16.205v-5.249c10.359,3.047,18.264,11.874,19.969,22.734v8.795
	c-1.705,10.858-9.609,19.687-19.969,22.732v-5.503H75.607v5.391c-8.489-2.624-15.511-9.173-18.488-17.771
	c0,0-3.735-0.025-3.729-0.003c3.213,10.602,11.816,18.642,22.216,21.473v1.99v5.121h16.205v-6.012v-1.001
	c11.607-3.002,20.665-12.406,23.167-24.205h13.006V67.351h-5.691V31.274H127.985z M71.492,20.925v3.545v2.836h-1.606h-0.603h-6.06
	v-8.265h8.269V20.925z M87.845,51.091h-8.27v-8.265h8.27V51.091z M87.845,110.803h-8.27v-8.267h8.27V110.803z M124.616,71.326v8.266
	h-8.27v-8.266H124.616z M118.749,27.306h-3.001V24.47v-3.545v-1.884h8.271v8.265h-1.725H118.749z"/>
</svg>
