<?xml version="1.0" encoding="utf-8"?>
<!-- Generator: Adobe Illustrator 15.0.0, SVG Export Plug-In . SVG Version: 6.00 Build 0)  -->
<svg version="1.2" baseProfile="tiny" id="Laag_1" xmlns="http://www.w3.org/2000/svg" xmlns:xlink="http://www.w3.org/1999/xlink"
	 x="0px" y="0px" width="128px" height="128px" viewBox="36.184 12.175 128 128" overflow="inherit" xml:space="preserve">
<path d="M83.922,124.972l-12.669-7.749l-7.059-0.107l-2.389,5.301l-3.608-1.286l1.95-7.298l-4.878-9.245l-3.405-2.008l-4.031-13.984
	l0.638-6.413l1.637-5.597l-5.995-2.433l3.288-9.342l-1.846-3.454L44.14,50.981l-3.515-2.791l-3.093-6.898l-1.526-7.684l12.706-1.631
	l1.407,2.999l14.142-0.832l-2.293,5.298l6.999,5.066l-5.584,7.361l7.771,6.354l-2.249,10.159l1.135,3.45l3.396,9.271l1.081,1.804
	l1.335-8.012l2.543-2.005l2.344-4.838l0.291-9.629l2.278-6.395l-3.568-2.81l8.713-10.453l-1.008-11.387l6.702,7.466l7.853-0.633
	l15.201-0.62l-5.76,7.227l1.77,8.785l0.395,2.671l2.14,6.011l6.612,4.986l-3.242,11.94l4.137,0.223l1.981,7.805l1.196-3.472
	l-0.839-7.541l6.86-9l0.955-6.106l-3.352-1.512l1.839-12.587l1.332-7.516l7.258-0.247l4.186-0.752l4.737-1.159l14.957-2.264
	l-3.331,11.94l-1.999,4.675l-3.168,10.775l2.688,7.994l-7.802,0.257l-1.988,4.106l1.394,14.229L145,88.924l0.489,6.077l3.019,4.687
	l-3.935,9.069l-1.222,7.451l-5.683,8.285l-8.441-5.462l-0.18,4.555l-11.646-5.982l-6.11-4.484l-5.619-4.462l0.436-3.9l2.868-5.938
	l-3.873-10.027l-4.759-1.241l-3.447-7.848l-0.597,1.293l1.516,8.909l-1.458,0.19l-1.01,9.597l-4.223,7.619l-3.023,3.265l1.404,6.62
	L83.922,124.972z M64.199,113.272l8.163,0.125l10.52,6.434l2.513-3.497l-1.466-6.909l4.061-4.385l3.618-6.526l1.246-11.838
	l0.502-0.064l-1.047-6.146l4.737-10.241l-7.625-5.873l13.684,1.929l-1.281,2.771l3.188,2.455l-4.482,6.908l2.584,5.886l4.863,1.27
	l5.184,13.419l-3.306,6.848l-0.128,1.135l3.924,3.114l5.898,4.327l5.892,3.013l0.206-5.285l10.967,7.094l3.082-4.491l1.16-7.077
	l3.308-7.623l-2.43-3.771l-0.737-9.153l5.12-3.837l-1.286-13.152l3.47-7.168l4.959-0.164l-1.426-4.245l3.616-12.26l1.995-4.661
	l1.625-5.858l-9.006,1.363l-4.657,1.143l-4.657,0.818l-4.287,0.146l-0.779,4.393l-1.409,9.663l3.378,1.524l-1.557,9.96l-6.517,8.551
	l0.764,6.873l-3.493,10.083l-2.857,5.72l-3.633-1.039l1.052-11.153l-1.19-4.695l-6.062-0.328l3.806-14.017l-5.456-4.113
	l-2.653-7.453l-0.442-2.993l-2.097-10.393l1.634-2.048l-6.76,0.275l-9.634,0.778l-0.268-0.298l0.131,1.477l-7.198,8.636l2.632,2.072
	l-3.001,8.428l-0.298,9.846l-3.088,6.372l-2.07,1.632l-2.296,13.789l-7.802,5.5l3.433-8.874l-2.781-4.642l-3.541-9.671l-1.486-4.513
	l1.966-8.88L58.081,52.5l5.448-7.183l-6.314-4.57l1.039-2.399l-10.509,0.616l-1.323-2.818l-5.845,0.751l0.64,3.22l2.531,5.646
	l3.991,3.167l1.532,11.224l2.318,4.337l-2.631,7.479l5.818,2.36l-2.514,8.588l-0.529,5.322l3.401,11.806l3.026,1.783L64.199,113.272
	z"/>
</svg>
