<?xml version="1.0" encoding="utf-8"?>
<!-- Generator: Adobe Illustrator 15.0.0, SVG Export Plug-In . SVG Version: 6.00 Build 0)  -->
<!DOCTYPE svg PUBLIC "-//W3C//DTD SVG 1.1//EN" "http://www.w3.org/Graphics/SVG/1.1/DTD/svg11.dtd">
<svg version="1.1" id="Laag_1" xmlns="http://www.w3.org/2000/svg" xmlns:xlink="http://www.w3.org/1999/xlink" x="0px" y="0px"
	 width="128px" height="128px" viewBox="0 0 128 128" enable-background="new 0 0 128 128" xml:space="preserve">
<path d="M47.737,111.973l-12.669-7.75l-7.059-0.106l-2.389,5.301l-3.608-1.286l1.95-7.298l-4.878-9.245l-3.405-2.008l-4.031-13.984
	l0.638-6.412l1.637-5.598l-5.995-2.434l3.288-9.342l-1.846-3.454L7.956,37.981L4.44,35.19l-3.093-6.898l-1.526-7.684l12.706-1.631
	l1.407,2.999l14.142-0.832l-2.293,5.298l6.999,5.066l-5.584,7.361l7.771,6.354l-2.25,10.159l1.136,3.45l3.396,9.271l1.082,1.804
	l1.334-8.013l2.543-2.004l2.345-4.839l0.29-9.629l2.279-6.395l-3.568-2.81l8.713-10.453l-1.008-11.387l6.701,7.466l7.854-0.633
	l15.201-0.62l-5.76,7.227l1.77,8.785l0.395,2.671l2.141,6.011l6.611,4.986l-3.241,11.94l4.137,0.223l1.981,7.806l1.195-3.472
	l-0.839-7.541l6.86-9l0.955-6.106l-3.352-1.512l1.838-12.587l1.332-7.516l7.258-0.247l4.187-0.752l4.737-1.159l14.957-2.264
	l-3.331,11.94l-1.999,4.675l-3.168,10.775l2.688,7.994l-7.802,0.258l-1.987,4.105l1.394,14.229l-5.157,3.865l0.488,6.077l3.02,4.687
	l-3.935,9.069l-1.222,7.451l-5.684,8.285l-8.441-5.462l-0.18,4.555l-11.646-5.982l-6.109-4.483l-5.619-4.462l0.436-3.9l2.869-5.938
	l-3.873-10.027l-4.76-1.241l-3.447-7.848l-0.597,1.293l1.517,8.909l-1.459,0.189l-1.01,9.598l-4.223,7.619l-3.023,3.265l1.404,6.62
	L47.737,111.973z M28.015,100.271l8.162,0.125l10.521,6.435l2.513-3.497l-1.465-6.909l4.061-4.385l3.617-6.526l1.246-11.838
	l0.502-0.064l-1.047-6.146l4.737-10.241l-7.625-5.873l13.685,1.929l-1.281,2.771l3.188,2.455l-4.482,6.908l2.585,5.886l4.862,1.27
	l5.185,13.42l-3.306,6.848l-0.129,1.135l3.924,3.114l5.898,4.327l5.893,3.013l0.205-5.284l10.968,7.094l3.081-4.491l1.16-7.077
	l3.309-7.623l-2.43-3.771l-0.737-9.152l5.12-3.837l-1.286-13.152l3.47-7.168l4.959-0.164l-1.426-4.245l3.616-12.26l1.995-4.661
	l1.625-5.858l-9.006,1.363l-4.657,1.143l-4.657,0.818l-4.287,0.146l-0.779,4.393l-1.408,9.663l3.377,1.524l-1.557,9.96l-6.517,8.551
	l0.765,6.873l-3.494,10.083l-2.856,5.721l-3.634-1.039l1.053-11.154l-1.189-4.694l-6.062-0.328l3.806-14.017l-5.456-4.113
	l-2.652-7.453l-0.442-2.993l-2.097-10.393l1.634-2.048l-6.761,0.275l-9.633,0.778l-0.269-0.298l0.131,1.477l-7.198,8.636
	l2.633,2.072l-3.002,8.428l-0.297,9.846l-3.088,6.372l-2.07,1.632l-2.297,13.789l-7.802,5.5l3.433-8.874l-2.78-4.643l-3.541-9.67
	l-1.486-4.514l1.966-8.88l-8.81-7.208l5.448-7.183l-6.314-4.57l1.039-2.399l-10.509,0.616l-1.323-2.818l-5.845,0.751l0.64,3.22
	l2.531,5.646l3.991,3.167l1.532,11.224l2.318,4.337l-2.631,7.479l5.818,2.359l-2.514,8.588l-0.529,5.322l3.401,11.806l3.026,1.783
	L28.015,100.271z"/>
</svg>
