<?xml version="1.0"?>
<svg xmlns="http://www.w3.org/2000/svg" width="1000" height="1000" viewBox="-500 -500 1000 1000">
    <path d="M-137.69,-150C-137.69,-143.20 -143.20,-137.69 -150,-137.69C-156.80,-137.69 -162.31,-143.20 -162.31,-150C-162.31,-156.80 -156.80,-162.31 -150,-162.31C-143.20,-162.31 -137.69,-156.80 -137.69,-150Z" fill="#4e9df4"/>
    <path d="M-109.26,-150C-109.26,-145.91 -112.58,-142.59 -116.67,-142.59C-120.76,-142.59 -124.07,-145.91 -124.07,-150C-124.07,-154.09 -120.76,-157.41 -116.67,-157.41C-112.58,-157.41 -109.26,-154.09 -109.26,-150Z" fill="#4e9df4"/>
    <path d="M-71.96,-150C-71.96,-143.72 -77.05,-138.63 -83.33,-138.63C-89.62,-138.63 -94.71,-143.72 -94.71,-150C-94.71,-156.28 -89.62,-161.37 -83.33,-161.37C-77.05,-161.37 -71.96,-156.28 -71.96,-150Z" fill="#4e9df4"/>
    <path d="M-39.50,-150C-39.50,-144.20 -44.20,-139.50 -50,-139.50C-55.80,-139.50 -60.50,-144.20 -60.50,-150C-60.50,-155.80 -55.80,-160.50 -50,-160.50C-44.20,-160.50 -39.50,-155.80 -39.50,-150Z" fill="#4e9df4"/>
    <path d="M-5.69,-150C-5.69,-143.94 -10.61,-139.02 -16.67,-139.02C-22.73,-139.02 -27.64,-143.94 -27.64,-150C-27.64,-156.06 -22.73,-160.98 -16.67,-160.98C-10.61,-160.98 -5.69,-156.06 -5.69,-150Z" fill="#4e9df4"/>
    <path d="M25.00,-150C25.00,-145.40 21.27,-141.67 16.67,-141.67C12.06,-141.67 8.33,-145.40 8.33,-150C8.33,-154.60 12.06,-158.33 16.67,-158.33C21.27,-158.33 25.00,-154.60 25.00,-150Z" fill="#4e9df4"/>
    <path d="M58.85,-150C58.85,-145.11 54.89,-141.15 50,-141.15C45.11,-141.15 41.15,-145.11 41.15,-150C41.15,-154.89 45.11,-158.85 50,-158.85C54.89,-158.85 58.85,-154.89 58.85,-150Z" fill="#4e9df4"/>
    <path d="M68.48,-164.85L98.18,-164.85L98.18,-135.15L68.48,-135.15Z" fill="#d26b27"/>
    <path d="M102.87,-163.79L130.46,-163.79L130.46,-136.21L102.87,-136.21Z" fill="#d26b27"/>
    <path d="M135.59,-164.41L164.41,-164.41L164.41,-135.59L135.59,-135.59Z" fill="#d26b27"/>
    <path d="M-142.25,-116.67C-142.25,-112.39 -145.72,-108.92 -150,-108.92C-154.28,-108.92 -157.75,-112.39 -157.75,-116.67C-157.75,-120.95 -154.28,-124.42 -150,-124.42C-145.72,-124.42 -142.25,-120.95 -142.25,-116.67Z" fill="#4e9df4"/>
    <path d="M-110.38,-116.67C-110.38,-113.19 -113.19,-110.38 -116.67,-110.38C-120.14,-110.38 -122.96,-113.19 -122.96,-116.67C-122.96,-120.14 -120.14,-122.96 -116.67,-122.96C-113.19,-122.96 -110.38,-120.14 -110.38,-116.67Z" fill="#4e9df4"/>
    <path d="M-76.87,-116.67C-76.87,-113.10 -79.76,-110.20 -83.33,-110.20C-86.90,-110.20 -89.80,-113.10 -89.80,-116.67C-89.80,-120.24 -86.90,-123.13 -83.33,-123.13C-79.76,-123.13 -76.87,-120.24 -76.87,-116.67Z" fill="#4e9df4"/>
    <path d="M-44.77,-116.67C-44.77,-113.78 -47.11,-111.43 -50,-111.43C-52.89,-111.43 -55.23,-113.78 -55.23,-116.67C-55.23,-119.56 -52.89,-121.90 -50,-121.90C-47.11,-121.90 -44.77,-119.56 -44.77,-116.67Z" fill="#4e9df4"/>
    <path d="M-6.20,-116.67C-6.20,-110.89 -10.89,-106.20 -16.67,-106.20C-22.45,-106.20 -27.13,-110.89 -27.13,-116.67C-27.13,-122.45 -22.45,-127.13 -16.67,-127.13C-10.89,-127.13 -6.20,-122.45 -6.20,-116.67Z" fill="#4e9df4"/>
    <path d="M2.02,-131.31L31.31,-131.31L31.31,-102.02L2.02,-102.02Z" fill="#d26b27"/>
    <path d="M56.04,-116.67C56.04,-113.33 53.34,-110.62 50,-110.62C46.66,-110.62 43.96,-113.33 43.96,-116.67C43.96,-120.01 46.66,-122.71 50,-122.71C53.34,-122.71 56.04,-120.01 56.04,-116.67Z" fill="#4e9df4"/>
    <path d="M94.58,-116.67C94.58,-110.45 89.55,-105.42 83.33,-105.42C77.12,-105.42 72.08,-110.45 72.08,-116.67C72.08,-122.88 77.12,-127.92 83.33,-127.92C89.55,-127.92 94.58,-122.88 94.58,-116.67Z" fill="#4e9df4"/>
    <path d="M125.77,-116.67C125.77,-111.64 121.70,-107.56 116.67,-107.56C111.64,-107.56 107.56,-111.64 107.56,-116.67C107.56,-121.70 111.64,-125.77 116.67,-125.77C121.70,-125.77 125.77,-121.70 125.77,-116.67Z" fill="#4e9df4"/>
    <path d="M137.24,-129.43L162.76,-129.43L162.76,-103.90L137.24,-103.90Z" fill="#d26b27"/>
    <path d="M-164.91,-98.24L-135.09,-98.24L-135.09,-68.43L-164.91,-68.43Z" fill="#d26b27"/>
    <path d="M-106.79,-83.33C-106.79,-77.88 -111.21,-73.46 -116.67,-73.46C-122.12,-73.46 -126.54,-77.88 -126.54,-83.33C-126.54,-88.79 -122.12,-93.21 -116.67,-93.21C-111.21,-93.21 -106.79,-88.79 -106.79,-83.33Z" fill="#4e9df4"/>
    <path d="M-70.87,-83.33C-70.87,-76.45 -76.45,-70.87 -83.33,-70.87C-90.22,-70.87 -95.80,-76.45 -95.80,-83.33C-95.80,-90.22 -90.22,-95.80 -83.33,-95.80C-76.45,-95.80 -70.87,-90.22 -70.87,-83.33Z" fill="#4e9df4"/>
    <path d="M-37.67,-83.33C-37.67,-76.52 -43.19,-71.00 -50,-71.00C-56.81,-71.00 -62.33,-76.52 -62.33,-83.33C-62.33,-90.14 -56.81,-95.66 -50,-95.66C-43.19,-95.66 -37.67,-90.14 -37.67,-83.33Z" fill="#4e9df4"/>
    <path d="M-29.84,-96.51L-3.49,-96.51L-3.49,-70.16L-29.84,-70.16Z" fill="#d26b27"/>
    <path d="M3.28,-96.72L30.06,-96.72L30.06,-69.94L3.28,-69.94Z" fill="#d26b27"/>
    <path d="M60.27,-83.33C60.27,-77.66 55.67,-73.07 50,-73.07C44.33,-73.07 39.73,-77.66 39.73,-83.33C39.73,-89.00 44.33,-93.60 50,-93.60C55.67,-93.60 60.27,-89.00 60.27,-83.33Z" fill="#4e9df4"/>
    <path d="M69.34,-97.33L97.33,-97.33L97.33,-69.34L69.34,-69.34Z" fill="#d26b27"/>
    <path d="M123.01,-83.33C123.01,-79.83 120.17,-76.99 116.67,-76.99C113.17,-76.99 110.33,-79.83 110.33,-83.33C110.33,-86.83 113.17,-89.67 116.67,-89.67C120.17,-89.67 123.01,-86.83 123.01,-83.33Z" fill="#4e9df4"/>
    <path d="M155.83,-83.33C155.83,-80.11 153.22,-77.50 150,-77.50C146.78,-77.50 144.17,-80.11 144.17,-83.33C144.17,-86.55 146.78,-89.16 150,-89.16C153.22,-89.16 155.83,-86.55 155.83,-83.33Z" fill="#4e9df4"/>
    <path d="M-164.79,-64.79L-135.21,-64.79L-135.21,-35.21L-164.79,-35.21Z" fill="#d26b27"/>
    <path d="M-104.44,-50C-104.44,-43.25 -109.92,-37.78 -116.67,-37.78C-123.42,-37.78 -128.89,-43.25 -128.89,-50C-128.89,-56.75 -123.42,-62.22 -116.67,-62.22C-109.92,-62.22 -104.44,-56.75 -104.44,-50Z" fill="#4e9df4"/>
    <path d="M-71.18,-50C-71.18,-43.29 -76.62,-37.85 -83.33,-37.85C-90.04,-37.85 -95.48,-43.29 -95.48,-50C-95.48,-56.71 -90.04,-62.15 -83.33,-62.15C-76.62,-62.15 -71.18,-56.71 -71.18,-50Z" fill="#4e9df4"/>
    <path d="M-43.57,-50C-43.57,-46.45 -46.45,-43.57 -50,-43.57C-53.55,-43.57 -56.43,-46.45 -56.43,-50C-56.43,-53.55 -53.55,-56.43 -50,-56.43C-46.45,-56.43 -43.57,-53.55 -43.57,-50Z" fill="#4e9df4"/>
    <path d="M-7.04,-50C-7.04,-44.68 -11.35,-40.37 -16.67,-40.37C-21.98,-40.37 -26.30,-44.68 -26.30,-50C-26.30,-55.32 -21.98,-59.63 -16.67,-59.63C-11.35,-59.63 -7.04,-55.32 -7.04,-50Z" fill="#4e9df4"/>
    <path d="M21.71,-50C21.71,-47.21 19.45,-44.96 16.67,-44.96C13.88,-44.96 11.62,-47.21 11.62,-50C11.62,-52.79 13.88,-55.04 16.67,-55.04C19.45,-55.04 21.71,-52.79 21.71,-50Z" fill="#4e9df4"/>
    <path d="M55.71,-50C55.71,-46.84 53.16,-44.29 50,-44.29C46.84,-44.29 44.29,-46.84 44.29,-50C44.29,-53.16 46.84,-55.71 50,-55.71C53.16,-55.71 55.71,-53.16 55.71,-50Z" fill="#4e9df4"/>
    <path d="M91.82,-50C91.82,-45.31 88.02,-41.52 83.33,-41.52C78.65,-41.52 74.85,-45.31 74.85,-50C74.85,-54.69 78.65,-58.48 83.33,-58.48C88.02,-58.48 91.82,-54.69 91.82,-50Z" fill="#4e9df4"/>
    <path d="M125.05,-50C125.05,-45.37 121.30,-41.61 116.67,-41.61C112.03,-41.61 108.28,-45.37 108.28,-50C108.28,-54.63 112.03,-58.39 116.67,-58.39C121.30,-58.39 125.05,-54.63 125.05,-50Z" fill="#4e9df4"/>
    <path d="M136.41,-63.59L163.59,-63.59L163.59,-36.41L136.41,-36.41Z" fill="#d26b27"/>
    <path d="M-164.72,-31.38L-135.28,-31.38L-135.28,-1.95L-164.72,-1.95Z" fill="#d26b27"/>
    <path d="M-130.32,-30.32L-103.01,-30.32L-103.01,-3.01L-130.32,-3.01Z" fill="#d26b27"/>
    <path d="M-72.21,-16.67C-72.21,-10.52 -77.19,-5.54 -83.33,-5.54C-89.48,-5.54 -94.46,-10.52 -94.46,-16.67C-94.46,-22.81 -89.48,-27.79 -83.33,-27.79C-77.19,-27.79 -72.21,-22.81 -72.21,-16.67Z" fill="#4e9df4"/>
    <path d="M-43.21,-16.67C-43.21,-12.92 -46.25,-9.88 -50,-9.88C-53.75,-9.88 -56.79,-12.92 -56.79,-16.67C-56.79,-20.42 -53.75,-23.46 -50,-23.46C-46.25,-23.46 -43.21,-20.42 -43.21,-16.67Z" fill="#4e9df4"/>
    <path d="M-9.49,-16.67C-9.49,-12.70 -12.70,-9.49 -16.67,-9.49C-20.63,-9.49 -23.84,-12.70 -23.84,-16.67C-23.84,-20.63 -20.63,-23.84 -16.67,-23.84C-12.70,-23.84 -9.49,-20.63 -9.49,-16.67Z" fill="#4e9df4"/>
    <path d="M3.12,-30.21L30.21,-30.21L30.21,-3.12L3.12,-3.12Z" fill="#d26b27"/>
    <path d="M55.10,-16.67C55.10,-13.85 52.81,-11.57 50,-11.57C47.19,-11.57 44.90,-13.85 44.90,-16.67C44.90,-19.48 47.19,-21.76 50,-21.76C52.81,-21.76 55.10,-19.48 55.10,-16.67Z" fill="#4e9df4"/>
    <path d="M95.26,-16.67C95.26,-10.08 89.92,-4.74 83.33,-4.74C76.75,-4.74 71.41,-10.08 71.41,-16.67C71.41,-23.25 76.75,-28.59 83.33,-28.59C89.92,-28.59 95.26,-23.25 95.26,-16.67Z" fill="#4e9df4"/>
    <path d="M103.95,-29.38L129.38,-29.38L129.38,-3.95L103.95,-3.95Z" fill="#d26b27"/>
    <path d="M162.13,-16.67C162.13,-9.97 156.70,-4.54 150,-4.54C143.30,-4.54 137.87,-9.97 137.87,-16.67C137.87,-23.36 143.30,-28.79 150,-28.79C156.70,-28.79 162.13,-23.36 162.13,-16.67Z" fill="#4e9df4"/>
    <path d="M-142.89,16.67C-142.89,20.59 -146.07,23.78 -150,23.78C-153.93,23.78 -157.11,20.59 -157.11,16.67C-157.11,12.74 -153.93,9.55 -150,9.55C-146.07,9.55 -142.89,12.74 -142.89,16.67Z" fill="#4e9df4"/>
    <path d="M-129.50,3.84L-103.84,3.84L-103.84,29.50L-129.50,29.50Z" fill="#d26b27"/>
    <path d="M-97.79,2.21L-68.88,2.21L-68.88,31.12L-97.79,31.12Z" fill="#d26b27"/>
    <path d="M-44.86,16.67C-44.86,19.51 -47.16,21.81 -50,21.81C-52.84,21.81 -55.14,19.51 -55.14,16.67C-55.14,13.83 -52.84,11.52 -50,11.52C-47.16,11.52 -44.86,13.83 -44.86,16.67Z" fill="#4e9df4"/>
    <path d="M-7.72,16.67C-7.72,21.61 -11.73,25.61 -16.67,25.61C-21.61,25.61 -25.61,21.61 -25.61,16.67C-25.61,11.73 -21.61,7.72 -16.67,7.72C-11.73,7.72 -7.72,11.73 -7.72,16.67Z" fill="#4e9df4"/>
    <path d="M3.13,3.13L30.20,3.13L30.20,30.20L3.13,30.20Z" fill="#d26b27"/>
    <path d="M37.14,3.81L62.86,3.81L62.86,29.53L37.14,29.53Z" fill="#d26b27"/>
    <path d="M68.40,1.73L98.27,1.73L98.27,31.60L68.40,31.60Z" fill="#d26b27"/>
    <path d="M102.84,2.84L130.50,2.84L130.50,30.50L102.84,30.50Z" fill="#d26b27"/>
    <path d="M156.70,16.67C156.70,20.37 153.70,23.37 150,23.37C146.30,23.37 143.30,20.37 143.30,16.67C143.30,12.96 146.30,9.96 150,9.96C153.70,9.96 156.70,12.96 156.70,16.67Z" fill="#4e9df4"/>
    <path d="M-164.62,35.38L-135.38,35.38L-135.38,64.62L-164.62,64.62Z" fill="#d26b27"/>
    <path d="M-104.42,50C-104.42,56.76 -109.91,62.24 -116.67,62.24C-123.43,62.24 -128.91,56.76 -128.91,50C-128.91,43.24 -123.43,37.76 -116.67,37.76C-109.91,37.76 -104.42,43.24 -104.42,50Z" fill="#4e9df4"/>
    <path d="M-71.56,50C-71.56,56.50 -76.83,61.77 -83.33,61.77C-89.84,61.77 -95.11,56.50 -95.11,50C-95.11,43.50 -89.84,38.23 -83.33,38.23C-76.83,38.23 -71.56,43.50 -71.56,50Z" fill="#4e9df4"/>
    <path d="M-63.04,36.96L-36.96,36.96L-36.96,63.04L-63.04,63.04Z" fill="#d26b27"/>
    <path d="M-7.25,50C-7.25,55.20 -11.47,59.41 -16.67,59.41C-21.87,59.41 -26.08,55.20 -26.08,50C-26.08,44.80 -21.87,40.59 -16.67,40.59C-11.47,40.59 -7.25,44.80 -7.25,50Z" fill="#4e9df4"/>
    <path d="M26.29,50C26.29,55.31 21.98,59.62 16.67,59.62C11.35,59.62 7.05,55.31 7.05,50C7.05,44.69 11.35,40.38 16.67,40.38C21.98,40.38 26.29,44.69 26.29,50Z" fill="#4e9df4"/>
    <path d="M36.47,36.47L63.53,36.47L63.53,63.53L36.47,63.53Z" fill="#d26b27"/>
    <path d="M93.35,50C93.35,55.53 88.87,60.02 83.33,60.02C77.80,60.02 73.31,55.53 73.31,50C73.31,44.47 77.80,39.98 83.33,39.98C88.87,39.98 93.35,44.47 93.35,50Z" fill="#4e9df4"/>
    <path d="M101.75,35.08L131.59,35.08L131.59,64.92L101.75,64.92Z" fill="#d26b27"/>
    <path d="M135.31,35.31L164.69,35.31L164.69,64.69L135.31,64.69Z" fill="#d26b27"/>
    <path d="M-141.47,83.33C-141.47,88.04 -145.29,91.86 -150,91.86C-154.71,91.86 -158.53,88.04 -158.53,83.33C-158.53,78.62 -154.71,74.80 -150,74.80C-145.29,74.80 -141.47,78.62 -141.47,83.33Z" fill="#4e9df4"/>
    <path d="M-111.19,83.33C-111.19,86.36 -113.64,88.81 -116.67,88.81C-119.69,88.81 -122.14,86.36 -122.14,83.33C-122.14,80.31 -119.69,77.86 -116.67,77.86C-113.64,77.86 -111.19,80.31 -111.19,83.33Z" fill="#4e9df4"/>
    <path d="M-77.62,83.33C-77.62,86.49 -80.18,89.05 -83.33,89.05C-86.49,89.05 -89.05,86.49 -89.05,83.33C-89.05,80.18 -86.49,77.62 -83.33,77.62C-80.18,77.62 -77.62,80.18 -77.62,83.33Z" fill="#4e9df4"/>
    <path d="M-44.71,83.33C-44.71,86.26 -47.08,88.62 -50,88.62C-52.92,88.62 -55.29,86.26 -55.29,83.33C-55.29,80.41 -52.92,78.04 -50,78.04C-47.08,78.04 -44.71,80.41 -44.71,83.33Z" fill="#4e9df4"/>
    <path d="M-6.83,83.33C-6.83,88.77 -11.23,93.17 -16.67,93.17C-22.10,93.17 -26.50,88.77 -26.50,83.33C-26.50,77.90 -22.10,73.50 -16.67,73.50C-11.23,73.50 -6.83,77.90 -6.83,83.33Z" fill="#4e9df4"/>
    <path d="M1.95,68.61L31.39,68.61L31.39,98.05L1.95,98.05Z" fill="#d26b27"/>
    <path d="M35.11,68.44L64.89,68.44L64.89,98.22L35.11,98.22Z" fill="#d26b27"/>
    <path d="M70.66,70.66L96.01,70.66L96.01,96.01L70.66,96.01Z" fill="#d26b27"/>
    <path d="M126.68,83.33C126.68,88.86 122.20,93.35 116.67,93.35C111.14,93.35 106.65,88.86 106.65,83.33C106.65,77.80 111.14,73.32 116.67,73.32C122.20,73.32 126.68,77.80 126.68,83.33Z" fill="#4e9df4"/>
    <path d="M157.56,83.33C157.56,87.51 154.17,90.89 150,90.89C145.83,90.89 142.44,87.51 142.44,83.33C142.44,79.16 145.83,75.78 150,75.78C154.17,75.78 157.56,79.16 157.56,83.33Z" fill="#4e9df4"/>
    <path d="M-141.91,116.67C-141.91,121.14 -145.53,124.76 -150,124.76C-154.47,124.76 -158.09,121.14 -158.09,116.67C-158.09,112.20 -154.47,108.58 -150,108.58C-145.53,108.58 -141.91,112.20 -141.91,116.67Z" fill="#4e9df4"/>
    <path d="M-130.15,103.18L-103.18,103.18L-103.18,130.15L-130.15,130.15Z" fill="#d26b27"/>
    <path d="M-77.81,116.67C-77.81,119.72 -80.28,122.19 -83.33,122.19C-86.38,122.19 -88.85,119.72 -88.85,116.67C-88.85,113.62 -86.38,111.15 -83.33,111.15C-80.28,111.15 -77.81,113.62 -77.81,116.67Z" fill="#4e9df4"/>
    <path d="M-44.90,116.67C-44.90,119.48 -47.18,121.77 -50,121.77C-52.82,121.77 -55.10,119.48 -55.10,116.67C-55.10,113.85 -52.82,111.56 -50,111.56C-47.18,111.56 -44.90,113.85 -44.90,116.67Z" fill="#4e9df4"/>
    <path d="M-8.13,116.67C-8.13,121.38 -11.95,125.21 -16.67,125.21C-21.38,125.21 -25.21,121.38 -25.21,116.67C-25.21,111.95 -21.38,108.13 -16.67,108.13C-11.95,108.13 -8.13,111.95 -8.13,116.67Z" fill="#4e9df4"/>
    <path d="M22.53,116.67C22.53,119.91 19.91,122.53 16.67,122.53C13.43,122.53 10.80,119.91 10.80,116.67C10.80,113.43 13.43,110.80 16.67,110.80C19.91,110.80 22.53,113.43 22.53,116.67Z" fill="#4e9df4"/>
    <path d="M36.50,103.16L63.50,103.16L63.50,130.17L36.50,130.17Z" fill="#d26b27"/>
    <path d="M88.37,116.67C88.37,119.45 86.12,121.70 83.33,121.70C80.55,121.70 78.30,119.45 78.30,116.67C78.30,113.88 80.55,111.63 83.33,111.63C86.12,111.63 88.37,113.88 88.37,116.67Z" fill="#4e9df4"/>
    <path d="M124.75,116.67C124.75,121.13 121.13,124.75 116.67,124.75C112.20,124.75 108.59,121.13 108.59,116.67C108.59,112.20 112.20,108.59 116.67,108.59C121.13,108.59 124.75,112.20 124.75,116.67Z" fill="#4e9df4"/>
    <path d="M160.32,116.67C160.32,122.36 155.70,126.98 150,126.98C144.30,126.98 139.68,122.36 139.68,116.67C139.68,110.97 144.30,106.35 150,106.35C155.70,106.35 160.32,110.97 160.32,116.67Z" fill="#4e9df4"/>
    <path d="M-164.19,135.81L-135.81,135.81L-135.81,164.19L-164.19,164.19Z" fill="#d26b27"/>
    <path d="M-108.89,150C-108.89,154.29 -112.37,157.77 -116.67,157.77C-120.96,157.77 -124.44,154.29 -124.44,150C-124.44,145.71 -120.96,142.23 -116.67,142.23C-112.37,142.23 -108.89,145.71 -108.89,150Z" fill="#4e9df4"/>
    <path d="M-97.08,136.26L-69.59,136.26L-69.59,163.74L-97.08,163.74Z" fill="#d26b27"/>
    <path d="M-38.90,150C-38.90,156.13 -43.87,161.10 -50,161.10C-56.13,161.10 -61.10,156.13 -61.10,150C-61.10,143.87 -56.13,138.90 -50,138.90C-43.87,138.90 -38.90,143.87 -38.90,150Z" fill="#4e9df4"/>
    <path d="M-30.75,135.91L-2.58,135.91L-2.58,164.09L-30.75,164.09Z" fill="#d26b27"/>
    <path d="M22.11,150C22.11,153.01 19.67,155.44 16.67,155.44C13.66,155.44 11.22,153.01 11.22,150C11.22,146.99 13.66,144.56 16.67,144.56C19.67,144.56 22.11,146.99 22.11,150Z" fill="#4e9df4"/>
    <path d="M61.47,150C61.47,156.33 56.33,161.47 50,161.47C43.67,161.47 38.53,156.33 38.53,150C38.53,143.67 43.67,138.53 50,138.53C56.33,138.53 61.47,143.67 61.47,150Z" fill="#4e9df4"/>
    <path d="M93.30,150C93.30,155.51 88.84,159.97 83.33,159.97C77.83,159.97 73.37,155.51 73.37,150C73.37,144.49 77.83,140.03 83.33,140.03C88.84,140.03 93.30,144.49 93.30,150Z" fill="#4e9df4"/>
    <path d="M126.73,150C126.73,155.56 122.23,160.07 116.67,160.07C111.11,160.07 106.60,155.56 106.60,150C106.60,144.44 111.11,139.93 116.67,139.93C122.23,139.93 126.73,144.44 126.73,150Z" fill="#4e9df4"/>
    <path d="M160.21,150C160.21,155.64 155.64,160.21 150,160.21C144.36,160.21 139.79,155.64 139.79,150C139.79,144.36 144.36,139.79 150,139.79C155.64,139.79 160.21,144.36 160.21,150Z" fill="#4e9df4"/>
</svg>