<?xml version="1.0" encoding="utf-8"?>
<!-- Generator: Adobe Illustrator 15.0.2, SVG Export Plug-In . SVG Version: 6.00 Build 0)  -->
<!DOCTYPE svg PUBLIC "-//W3C//DTD SVG 1.1//EN" "http://www.w3.org/Graphics/SVG/1.1/DTD/svg11.dtd">
<svg version="1.1" id="Laag_1" xmlns="http://www.w3.org/2000/svg" xmlns:xlink="http://www.w3.org/1999/xlink" x="0px" y="0px"
	 width="49.947px" height="49.947px" viewBox="0 0 49.947 49.947" enable-background="new 0 0 49.947 49.947" xml:space="preserve">
<g>
	<rect x="9.092" y="39.696" fill="none" width="31.6" height="10.277"/>
	<rect x="9.092" y="15.567" fill="none" width="31.6" height="19.64"/>
	<rect x="9.092" y="-0.193" fill="none" width="31.6" height="11.273"/>
	<path d="M9.092,39.696h31.6v10.277h8.976V-0.193h-8.976v11.273h-31.6V-0.193H0.115v50.167h8.976V39.696z M9.092,12.734h31.6v25.307
		h-31.6V12.734z"/>
</g>
<rect x="42.306" y="1.64" fill="#FFFFFF" width="5.667" height="2.833"/>
<rect x="42.306" y="8.14" fill="#FFFFFF" width="5.667" height="2.833"/>
<rect x="42.306" y="14.64" fill="#FFFFFF" width="5.667" height="2.833"/>
<rect x="42.306" y="21.14" fill="#FFFFFF" width="5.667" height="2.833"/>
<rect x="42.306" y="27.64" fill="#FFFFFF" width="5.667" height="2.834"/>
<rect x="42.306" y="34.14" fill="#FFFFFF" width="5.667" height="2.834"/>
<rect x="42.306" y="40.64" fill="#FFFFFF" width="5.667" height="2.834"/>
<rect x="42.306" y="47.14" fill="#FFFFFF" width="5.667" height="2.834"/>
<rect x="1.473" y="1.64" fill="#FFFFFF" width="5.667" height="2.833"/>
<rect x="1.473" y="8.14" fill="#FFFFFF" width="5.667" height="2.833"/>
<rect x="1.473" y="14.64" fill="#FFFFFF" width="5.667" height="2.833"/>
<rect x="1.473" y="21.14" fill="#FFFFFF" width="5.667" height="2.833"/>
<rect x="1.473" y="27.64" fill="#FFFFFF" width="5.667" height="2.834"/>
<rect x="1.473" y="34.14" fill="#FFFFFF" width="5.667" height="2.834"/>
<rect x="1.473" y="40.64" fill="#FFFFFF" width="5.667" height="2.834"/>
<rect x="1.473" y="47.14" fill="#FFFFFF" width="5.667" height="2.834"/>
<circle cx="24.473" cy="25.141" r="10"/>
<g>
	<path fill="#FFFFFF" d="M29.085,30.022c0,0.191-0.008,0.352-0.023,0.486c-0.018,0.135-0.041,0.244-0.074,0.328
		c-0.033,0.086-0.076,0.146-0.127,0.182c-0.053,0.037-0.111,0.055-0.178,0.055h-7.297c-0.144,0-0.268-0.014-0.372-0.039
		c-0.104-0.027-0.189-0.078-0.255-0.152c-0.065-0.076-0.113-0.186-0.143-0.328c-0.029-0.145-0.044-0.33-0.044-0.561
		c0-0.215,0.01-0.4,0.029-0.553c0.02-0.154,0.056-0.291,0.107-0.412c0.053-0.121,0.12-0.238,0.201-0.354
		c0.082-0.115,0.188-0.24,0.319-0.377l2.197-2.355c0.438-0.457,0.791-0.874,1.059-1.25c0.269-0.376,0.478-0.72,0.628-1.03
		s0.254-0.597,0.309-0.858c0.056-0.262,0.083-0.51,0.083-0.745c0-0.216-0.034-0.42-0.103-0.613c-0.068-0.192-0.17-0.361-0.304-0.505
		s-0.303-0.257-0.505-0.339c-0.203-0.081-0.441-0.122-0.716-0.122c-0.387,0-0.728,0.049-1.025,0.146
		c-0.298,0.099-0.559,0.208-0.784,0.329s-0.414,0.232-0.564,0.333c-0.15,0.102-0.269,0.152-0.354,0.152
		c-0.059,0-0.109-0.02-0.151-0.059c-0.043-0.039-0.077-0.104-0.104-0.196s-0.047-0.214-0.063-0.368
		c-0.017-0.153-0.024-0.342-0.024-0.563c0-0.15,0.005-0.276,0.015-0.378c0.01-0.101,0.024-0.189,0.044-0.265
		s0.046-0.141,0.079-0.196c0.032-0.056,0.089-0.123,0.171-0.201s0.232-0.178,0.451-0.299c0.22-0.121,0.489-0.239,0.81-0.354
		c0.32-0.114,0.673-0.211,1.06-0.289c0.386-0.079,0.787-0.118,1.206-0.118c0.66,0,1.238,0.083,1.732,0.25
		c0.492,0.167,0.902,0.399,1.23,0.696c0.326,0.298,0.57,0.651,0.73,1.059c0.16,0.409,0.24,0.849,0.24,1.319
		c0,0.412-0.039,0.817-0.117,1.217c-0.078,0.398-0.242,0.828-0.49,1.289c-0.25,0.461-0.6,0.972-1.051,1.531
		c-0.451,0.559-1.049,1.207-1.794,1.947l-1.48,1.52h5.001c0.066,0,0.127,0.02,0.182,0.059s0.104,0.1,0.143,0.182
		s0.068,0.189,0.088,0.324S29.085,29.841,29.085,30.022z"/>
</g>
<g>
	<path d="M26.505,2.082h2.07c0.059,0,0.113,0.019,0.162,0.054c0.049,0.036,0.092,0.094,0.127,0.172
		c0.037,0.078,0.062,0.182,0.078,0.31c0.018,0.127,0.025,0.285,0.025,0.476c0,0.183-0.01,0.338-0.029,0.466
		c-0.02,0.127-0.047,0.229-0.084,0.304c-0.035,0.075-0.076,0.129-0.123,0.162c-0.045,0.032-0.098,0.049-0.156,0.049h-7.003
		c-0.052,0-0.102-0.017-0.146-0.049c-0.046-0.033-0.087-0.087-0.123-0.162s-0.063-0.177-0.083-0.304
		c-0.02-0.128-0.029-0.283-0.029-0.466c0-0.19,0.008-0.349,0.024-0.476c0.016-0.128,0.042-0.231,0.078-0.31s0.077-0.136,0.123-0.172
		c0.045-0.035,0.098-0.054,0.156-0.054h2.364v-2.274h-9.313c0.795,4.728,4.896,8.333,9.85,8.333c4.953,0,9.055-3.606,9.85-8.333
		h-7.818V2.082z"/>
	<path fill="#FFFFFF" d="M21.572,2.082c-0.059,0-0.111,0.019-0.156,0.054c-0.046,0.036-0.087,0.094-0.123,0.172
		s-0.062,0.182-0.078,0.31c-0.017,0.127-0.024,0.285-0.024,0.476c0,0.183,0.01,0.338,0.029,0.466
		c0.02,0.127,0.047,0.229,0.083,0.304s0.077,0.129,0.123,0.162c0.045,0.032,0.095,0.049,0.146,0.049h7.003
		c0.059,0,0.111-0.017,0.156-0.049c0.047-0.033,0.088-0.087,0.123-0.162c0.037-0.075,0.064-0.177,0.084-0.304
		c0.02-0.128,0.029-0.283,0.029-0.466c0-0.19-0.008-0.349-0.025-0.476c-0.016-0.128-0.041-0.231-0.078-0.31
		c-0.035-0.078-0.078-0.136-0.127-0.172c-0.049-0.035-0.104-0.054-0.162-0.054h-2.07v-2.274h-2.569v2.274H21.572z"/>
</g>
<g>
	<path d="M25.485,49.544c0.105-0.232,0.156-0.489,0.156-0.77c0-0.216-0.035-0.421-0.107-0.613c-0.072-0.193-0.178-0.359-0.318-0.5
		c-0.141-0.141-0.322-0.252-0.545-0.334s-0.483-0.122-0.784-0.122c-0.341,0-0.661,0.05-0.962,0.151s-0.57,0.213-0.809,0.334
		c-0.239,0.121-0.441,0.233-0.608,0.338s-0.289,0.157-0.368,0.157c-0.052,0-0.098-0.012-0.137-0.034
		c-0.039-0.023-0.072-0.067-0.099-0.133c-0.025-0.065-0.046-0.16-0.059-0.284s-0.02-0.284-0.02-0.48c0-0.164,0.003-0.299,0.01-0.407
		c0.007-0.107,0.02-0.197,0.039-0.27s0.044-0.135,0.074-0.187c0.029-0.052,0.076-0.109,0.142-0.172
		c0.065-0.062,0.199-0.155,0.402-0.279c0.202-0.124,0.458-0.245,0.765-0.363c0.308-0.118,0.662-0.218,1.064-0.299
		s0.839-0.122,1.31-0.122c0.614,0,1.16,0.071,1.632,0.215c0.475,0.145,0.873,0.352,1.197,0.623s0.568,0.605,0.736,1.001
		c0.166,0.396,0.25,0.842,0.25,1.339c0,0.386-0.049,0.745-0.148,1.078c-0.041,0.14-0.095,0.27-0.151,0.396h6.04
		c-1.052-4.396-4.998-7.668-9.715-7.668c-4.718,0-8.664,3.272-9.715,7.668h10.57C25.386,49.725,25.443,49.639,25.485,49.544z"/>
	<path fill="#FFFFFF" d="M28.448,48.333c0-0.497-0.084-0.943-0.25-1.339c-0.168-0.396-0.412-0.729-0.736-1.001
		s-0.723-0.479-1.197-0.623c-0.473-0.144-1.018-0.215-1.632-0.215c-0.471,0-0.907,0.041-1.31,0.122s-0.757,0.181-1.064,0.299
		c-0.307,0.118-0.562,0.239-0.765,0.363c-0.203,0.124-0.337,0.218-0.402,0.279c-0.065,0.062-0.112,0.12-0.142,0.172
		c-0.03,0.052-0.055,0.114-0.074,0.187s-0.032,0.162-0.039,0.27c-0.007,0.108-0.01,0.243-0.01,0.407c0,0.196,0.007,0.356,0.02,0.48
		s0.033,0.219,0.059,0.284c0.026,0.065,0.06,0.109,0.099,0.133c0.039,0.022,0.085,0.034,0.137,0.034
		c0.079,0,0.201-0.053,0.368-0.157s0.369-0.217,0.608-0.338c0.238-0.121,0.508-0.232,0.809-0.334s0.621-0.151,0.962-0.151
		c0.301,0,0.562,0.04,0.784,0.122s0.404,0.193,0.545,0.334c0.14,0.141,0.246,0.307,0.318,0.5c0.072,0.192,0.107,0.397,0.107,0.613
		c0,0.28-0.051,0.537-0.156,0.77c-0.042,0.095-0.099,0.181-0.157,0.264h2.82c0.057-0.127,0.11-0.257,0.151-0.396
		C28.399,49.078,28.448,48.719,28.448,48.333z"/>
</g>
</svg>
