<?xml version="1.0" encoding="utf-8"?>
<!-- Generator: Adobe Illustrator 15.0.2, SVG Export Plug-In . SVG Version: 6.00 Build 0)  -->
<!DOCTYPE svg PUBLIC "-//W3C//DTD SVG 1.1//EN" "http://www.w3.org/Graphics/SVG/1.1/DTD/svg11.dtd">
<svg version="1.1" id="Laag_1" xmlns="http://www.w3.org/2000/svg" xmlns:xlink="http://www.w3.org/1999/xlink" x="0px" y="0px"
	 width="49.947px" height="49.947px" viewBox="0 0 49.947 49.947" enable-background="new 0 0 49.947 49.947" xml:space="preserve">
<path d="M44.731,19.662c-2.354,0-4.315,1.586-4.933,3.741h-2.381c-0.656-5.859-5.34-10.5-11.221-11.083v-2.183
	c2.236-0.562,3.899-2.571,3.899-4.983C30.096,2.308,27.789,0,24.943,0c-2.847,0-5.154,2.308-5.154,5.154
	c0,2.302,1.518,4.228,3.6,4.89v2.318c-5.739,0.71-10.275,5.283-10.92,11.041h-2.381c-0.617-2.155-2.581-3.741-4.934-3.741
	C2.307,19.662,0,21.969,0,24.816c0,2.848,2.307,5.155,5.154,5.155c2.36,0,4.328-1.595,4.939-3.759h2.373
	c0.638,5.766,5.179,10.347,10.923,11.058v2.318c-2.082,0.662-3.6,2.588-3.6,4.89c0,2.847,2.307,5.154,5.154,5.154
	c2.846,0,5.153-2.308,5.153-5.154c0-2.412-1.663-4.42-3.899-4.983v-2.183c5.886-0.584,10.573-5.233,11.224-11.1h2.373
	c0.61,2.164,2.578,3.759,4.938,3.759c2.847,0,5.155-2.307,5.155-5.155C49.886,21.969,47.578,19.662,44.731,19.662z"/>
</svg>
