<?xml version="1.0" encoding="utf-8"?>
<!-- Generator: Adobe Illustrator 15.0.2, SVG Export Plug-In . SVG Version: 6.00 Build 0)  -->
<!DOCTYPE svg PUBLIC "-//W3C//DTD SVG 1.1//EN" "http://www.w3.org/Graphics/SVG/1.1/DTD/svg11.dtd">
<svg version="1.1" id="Laag_1" xmlns="http://www.w3.org/2000/svg" xmlns:xlink="http://www.w3.org/1999/xlink" x="0px" y="0px"
	 width="49.947px" height="49.947px" viewBox="0 0 49.947 49.947" enable-background="new 0 0 49.947 49.947" xml:space="preserve">
<g>
	<path d="M16.281,48.253c0,0.094-0.031,0.179-0.092,0.254c-0.062,0.076-0.163,0.137-0.304,0.185
		c-0.142,0.047-0.331,0.084-0.566,0.112c-0.236,0.028-0.533,0.043-0.891,0.043c-0.368,0-0.672-0.015-0.913-0.043
		c-0.24-0.028-0.429-0.065-0.565-0.112c-0.137-0.048-0.236-0.108-0.297-0.185c-0.061-0.075-0.092-0.16-0.092-0.254v-7.398H5.714
		v7.398c0,0.094-0.028,0.179-0.085,0.254c-0.056,0.076-0.155,0.137-0.297,0.185c-0.142,0.047-0.33,0.084-0.566,0.112
		s-0.537,0.043-0.905,0.043c-0.358,0-0.658-0.015-0.898-0.043c-0.241-0.028-0.432-0.065-0.573-0.112
		c-0.142-0.048-0.243-0.108-0.304-0.185c-0.062-0.075-0.092-0.16-0.092-0.254V30.968c0-0.094,0.03-0.18,0.092-0.255
		c0.061-0.075,0.163-0.137,0.304-0.184c0.141-0.048,0.332-0.085,0.573-0.113c0.24-0.028,0.54-0.042,0.898-0.042
		c0.368,0,0.669,0.014,0.905,0.042s0.424,0.065,0.566,0.113c0.142,0.047,0.241,0.108,0.297,0.184
		c0.057,0.075,0.085,0.161,0.085,0.255v6.719h6.846v-6.719c0-0.094,0.031-0.18,0.092-0.255c0.062-0.075,0.161-0.137,0.297-0.184
		c0.136-0.048,0.325-0.085,0.565-0.113c0.241-0.028,0.545-0.042,0.913-0.042c0.358,0,0.655,0.014,0.891,0.042
		c0.235,0.028,0.424,0.065,0.566,0.113c0.141,0.047,0.243,0.108,0.304,0.184c0.061,0.075,0.092,0.161,0.092,0.255V48.253z"/>
	<path d="M31.119,43.273c0,0.962-0.18,1.806-0.539,2.532c-0.357,0.726-0.844,1.332-1.457,1.817
		c-0.611,0.485-1.328,0.852-2.148,1.097c-0.821,0.245-1.698,0.367-2.631,0.367c-0.632,0-1.219-0.052-1.761-0.155
		c-0.542-0.104-1.021-0.229-1.436-0.375c-0.415-0.146-0.762-0.299-1.04-0.46c-0.278-0.16-0.479-0.302-0.601-0.424
		c-0.123-0.123-0.21-0.3-0.262-0.53c-0.052-0.231-0.078-0.563-0.078-0.998c0-0.292,0.009-0.537,0.028-0.735
		c0.019-0.198,0.049-0.358,0.092-0.48c0.042-0.123,0.099-0.21,0.17-0.262s0.153-0.078,0.248-0.078c0.132,0,0.318,0.078,0.559,0.233
		c0.241,0.155,0.549,0.328,0.927,0.517c0.377,0.188,0.827,0.36,1.351,0.516c0.523,0.156,1.129,0.233,1.817,0.233
		c0.453,0,0.858-0.054,1.217-0.162c0.357-0.108,0.662-0.262,0.912-0.46s0.439-0.443,0.572-0.735s0.199-0.617,0.199-0.976
		c0-0.415-0.113-0.771-0.34-1.068s-0.521-0.561-0.885-0.792s-0.775-0.448-1.237-0.651c-0.462-0.202-0.938-0.416-1.429-0.643
		c-0.491-0.227-0.967-0.483-1.429-0.771c-0.462-0.287-0.875-0.631-1.238-1.032c-0.363-0.401-0.658-0.874-0.884-1.422
		c-0.227-0.547-0.34-1.202-0.34-1.966c0-0.877,0.163-1.648,0.488-2.312c0.325-0.665,0.764-1.217,1.315-1.655
		s1.202-0.767,1.952-0.983c0.75-0.217,1.544-0.325,2.384-0.325c0.434,0,0.868,0.033,1.302,0.099c0.434,0.066,0.838,0.156,1.217,0.27
		c0.377,0.113,0.711,0.24,1.004,0.382c0.291,0.142,0.484,0.259,0.58,0.354c0.094,0.095,0.156,0.175,0.189,0.24
		c0.033,0.066,0.062,0.153,0.086,0.262s0.039,0.245,0.049,0.41s0.014,0.37,0.014,0.616c0,0.273-0.006,0.504-0.02,0.692
		c-0.016,0.188-0.039,0.345-0.072,0.467s-0.08,0.212-0.141,0.269s-0.145,0.085-0.248,0.085s-0.268-0.065-0.494-0.198
		c-0.227-0.132-0.506-0.275-0.836-0.432c-0.33-0.155-0.711-0.297-1.145-0.424s-0.91-0.191-1.429-0.191
		c-0.406,0-0.759,0.05-1.061,0.148c-0.302,0.1-0.554,0.236-0.757,0.41c-0.203,0.176-0.354,0.385-0.453,0.63
		s-0.148,0.505-0.148,0.778c0,0.405,0.111,0.756,0.333,1.054c0.221,0.297,0.519,0.562,0.891,0.792
		c0.372,0.23,0.794,0.447,1.266,0.65s0.952,0.418,1.442,0.645c0.49,0.226,0.973,0.482,1.443,0.77
		c0.471,0.289,0.891,0.633,1.26,1.033c0.367,0.4,0.664,0.873,0.891,1.414C31.006,41.899,31.119,42.538,31.119,43.273z"/>
	<path d="M47.215,43.273c0,0.65-0.09,1.24-0.269,1.769c-0.18,0.528-0.427,0.995-0.743,1.4c-0.315,0.405-0.692,0.754-1.131,1.046
		c-0.438,0.293-0.922,0.533-1.45,0.722s-1.092,0.328-1.69,0.417c-0.599,0.09-1.266,0.135-2.001,0.135h-4.866
		c-0.312,0-0.573-0.092-0.785-0.275c-0.212-0.185-0.318-0.483-0.318-0.898V31.632c0-0.414,0.106-0.714,0.318-0.897
		c0.212-0.185,0.474-0.276,0.785-0.276h4.597c1.122,0,2.072,0.095,2.851,0.283c0.778,0.189,1.434,0.474,1.966,0.855
		c0.533,0.383,0.941,0.865,1.224,1.45c0.283,0.585,0.425,1.272,0.425,2.065c0,0.443-0.057,0.86-0.17,1.252
		c-0.113,0.391-0.278,0.747-0.495,1.067c-0.217,0.321-0.483,0.604-0.799,0.849c-0.316,0.246-0.677,0.443-1.082,0.594
		c0.519,0.095,0.997,0.26,1.436,0.496c0.438,0.235,0.82,0.539,1.146,0.912c0.325,0.372,0.582,0.809,0.771,1.309
		S47.215,42.651,47.215,43.273z M42.405,35.564c0-0.368-0.057-0.698-0.169-0.989c-0.113-0.293-0.283-0.535-0.51-0.729
		s-0.512-0.342-0.855-0.446c-0.345-0.104-0.804-0.155-1.379-0.155H37.61v4.752h2.079c0.538,0,0.967-0.062,1.287-0.19
		c0.321-0.128,0.588-0.302,0.8-0.523s0.37-0.481,0.474-0.778S42.405,35.896,42.405,35.564z M43.353,43.4
		c0-0.424-0.071-0.804-0.212-1.138c-0.142-0.335-0.35-0.615-0.623-0.842s-0.622-0.4-1.047-0.523
		c-0.424-0.123-0.976-0.184-1.654-0.184H37.61v5.205h2.688c0.519,0,0.955-0.055,1.309-0.163s0.66-0.269,0.92-0.48
		c0.259-0.213,0.462-0.477,0.607-0.792C43.28,44.167,43.353,43.807,43.353,43.4z"/>
</g>
<path d="M40.769,5.085c4.604,3.958,0.665,6.796-1.857,7.529c-3.188,0.927-4.747,2.308-4.5,3.423c0.283,1.259,2.867,0.666,4.5,0.292
	c1.218-0.279,6.027,0.388,1.758,4.595c-5.168,5.097-15.642,5.671-20.827,4.401c-4.791-1.173-12.907-5.671-11.929-14.081
	C8.891,2.836,18.958-0.051,25.417,0C30.312,0.041,36.363,1.298,40.769,5.085z M33.106,7.189c-1.704,0-3.084,0.837-3.084,1.869
	c0,1.031,1.38,1.868,3.084,1.868c1.703,0,3.085-0.836,3.085-1.868C36.191,8.026,34.809,7.189,33.106,7.189z"/>
</svg>
