<?xml version="1.0" encoding="utf-8"?>
<!-- Generator: Adobe Illustrator 15.0.2, SVG Export Plug-In . SVG Version: 6.00 Build 0)  -->
<!DOCTYPE svg PUBLIC "-//W3C//DTD SVG 1.1//EN" "http://www.w3.org/Graphics/SVG/1.1/DTD/svg11.dtd">
<svg version="1.1" id="Laag_1" xmlns="http://www.w3.org/2000/svg" xmlns:xlink="http://www.w3.org/1999/xlink" x="0px" y="0px"
	 width="49.947px" height="49.947px" viewBox="0 0 49.947 49.947" enable-background="new 0 0 49.947 49.947" xml:space="preserve">
<g>
	<path d="M14.573,48.281c0,0.104-0.019,0.19-0.056,0.261c-0.038,0.071-0.127,0.13-0.269,0.178c-0.142,0.047-0.349,0.079-0.622,0.099
		c-0.274,0.019-0.646,0.028-1.118,0.028c-0.396,0-0.712-0.01-0.948-0.028c-0.236-0.02-0.422-0.055-0.559-0.106
		s-0.233-0.117-0.29-0.197s-0.104-0.178-0.142-0.29l-1.641-4.088c-0.198-0.462-0.392-0.872-0.58-1.23s-0.398-0.658-0.629-0.898
		c-0.231-0.241-0.498-0.423-0.799-0.545s-0.65-0.184-1.046-0.184h-1.16v6.974c0,0.094-0.031,0.179-0.092,0.254
		c-0.062,0.076-0.163,0.137-0.304,0.185c-0.142,0.047-0.33,0.084-0.566,0.112s-0.537,0.043-0.905,0.043
		c-0.358,0-0.658-0.015-0.898-0.043c-0.241-0.028-0.432-0.065-0.573-0.112c-0.142-0.048-0.241-0.108-0.297-0.185
		c-0.056-0.075-0.084-0.16-0.084-0.254V31.632c0-0.414,0.106-0.714,0.318-0.897c0.212-0.185,0.474-0.276,0.785-0.276h4.739
		c0.481,0,0.877,0.01,1.188,0.029c0.311,0.019,0.594,0.042,0.849,0.07c0.735,0.104,1.398,0.283,1.987,0.537
		c0.589,0.255,1.089,0.587,1.5,0.998c0.41,0.41,0.724,0.896,0.94,1.456c0.217,0.562,0.326,1.205,0.326,1.931
		c0,0.613-0.078,1.172-0.233,1.676c-0.156,0.506-0.385,0.955-0.686,1.352c-0.302,0.396-0.674,0.74-1.118,1.032
		s-0.948,0.528-1.514,0.708c0.273,0.132,0.531,0.292,0.771,0.48c0.241,0.188,0.467,0.417,0.679,0.686
		c0.212,0.27,0.412,0.576,0.601,0.92c0.188,0.344,0.373,0.733,0.552,1.167l1.542,3.606c0.142,0.358,0.236,0.62,0.283,0.785
		C14.55,48.057,14.573,48.187,14.573,48.281z M9.778,35.862c0-0.604-0.137-1.113-0.41-1.528s-0.721-0.707-1.344-0.877
		c-0.189-0.047-0.403-0.085-0.644-0.113c-0.241-0.028-0.573-0.042-0.997-0.042H4.714v5.191H6.61c0.528,0,0.99-0.064,1.386-0.191
		s0.726-0.307,0.99-0.537c0.264-0.231,0.462-0.508,0.594-0.828C9.712,36.616,9.778,36.258,9.778,35.862z"/>
	<path d="M31.76,33.302c0,0.273-0.012,0.509-0.035,0.707c-0.023,0.197-0.057,0.355-0.1,0.474s-0.094,0.2-0.156,0.247
		c-0.061,0.048-0.135,0.071-0.219,0.071c-0.123,0-0.32-0.085-0.594-0.255s-0.637-0.354-1.09-0.551
		c-0.453-0.199-0.992-0.383-1.619-0.553s-1.355-0.254-2.186-0.254c-0.887,0-1.688,0.153-2.404,0.459
		c-0.717,0.307-1.33,0.74-1.839,1.302s-0.901,1.235-1.174,2.022s-0.41,1.658-0.41,2.609c0,1.047,0.139,1.969,0.417,2.766
		c0.278,0.797,0.667,1.464,1.167,2.002c0.5,0.537,1.101,0.943,1.803,1.217s1.478,0.41,2.327,0.41c0.416,0,0.826-0.048,1.23-0.142
		c0.406-0.095,0.783-0.236,1.133-0.425v-4.243h-3.467c-0.169,0-0.301-0.106-0.396-0.318s-0.142-0.573-0.142-1.082
		c0-0.264,0.012-0.485,0.036-0.665c0.023-0.179,0.059-0.322,0.106-0.432c0.047-0.107,0.104-0.188,0.169-0.24
		c0.066-0.051,0.142-0.078,0.226-0.078h6.182c0.15,0,0.285,0.027,0.402,0.078c0.119,0.053,0.223,0.13,0.312,0.233
		c0.09,0.104,0.158,0.229,0.205,0.375c0.047,0.146,0.07,0.313,0.07,0.502v7.285c0,0.282-0.049,0.53-0.148,0.742
		s-0.303,0.38-0.607,0.502c-0.307,0.123-0.688,0.25-1.139,0.382c-0.453,0.133-0.922,0.246-1.408,0.34s-0.977,0.165-1.471,0.212
		c-0.496,0.047-0.992,0.071-1.492,0.071c-1.462,0-2.771-0.21-3.926-0.63c-1.155-0.419-2.134-1.027-2.935-1.824
		s-1.415-1.769-1.839-2.914s-0.636-2.444-0.636-3.897c0-1.499,0.226-2.845,0.679-4.038c0.453-1.192,1.094-2.206,1.924-3.041
		c0.83-0.835,1.832-1.474,3.006-1.917c1.174-0.443,2.482-0.664,3.925-0.664c0.793,0,1.514,0.055,2.164,0.162
		c0.65,0.109,1.219,0.24,1.705,0.396c0.484,0.155,0.889,0.322,1.209,0.502s0.545,0.335,0.672,0.467
		c0.127,0.133,0.219,0.318,0.275,0.559S31.76,32.83,31.76,33.302z"/>
	<path d="M48.79,43.273c0,0.65-0.09,1.24-0.269,1.769c-0.18,0.528-0.427,0.995-0.743,1.4c-0.315,0.405-0.692,0.754-1.131,1.046
		c-0.438,0.293-0.922,0.533-1.45,0.722s-1.092,0.328-1.69,0.417c-0.599,0.09-1.266,0.135-2.001,0.135h-4.866
		c-0.312,0-0.573-0.092-0.785-0.275c-0.212-0.185-0.318-0.483-0.318-0.898V31.632c0-0.414,0.106-0.714,0.318-0.897
		c0.212-0.185,0.474-0.276,0.785-0.276h4.597c1.122,0,2.072,0.095,2.851,0.283c0.778,0.189,1.434,0.474,1.966,0.855
		c0.533,0.383,0.941,0.865,1.224,1.45c0.283,0.585,0.425,1.272,0.425,2.065c0,0.443-0.057,0.86-0.17,1.252
		c-0.113,0.391-0.278,0.747-0.495,1.067c-0.217,0.321-0.483,0.604-0.799,0.849c-0.316,0.246-0.677,0.443-1.082,0.594
		c0.519,0.095,0.997,0.26,1.436,0.496c0.438,0.235,0.82,0.539,1.146,0.912c0.325,0.372,0.582,0.809,0.771,1.309
		S48.79,42.651,48.79,43.273z M43.98,35.564c0-0.368-0.057-0.698-0.169-0.989c-0.113-0.293-0.283-0.535-0.51-0.729
		s-0.512-0.342-0.855-0.446c-0.345-0.104-0.804-0.155-1.379-0.155h-1.882v4.752h2.079c0.538,0,0.967-0.062,1.287-0.19
		c0.321-0.128,0.588-0.302,0.8-0.523s0.37-0.481,0.474-0.778S43.98,35.896,43.98,35.564z M44.928,43.4
		c0-0.424-0.071-0.804-0.212-1.138c-0.142-0.335-0.35-0.615-0.623-0.842s-0.622-0.4-1.047-0.523
		c-0.424-0.123-0.976-0.184-1.654-0.184h-2.207v5.205h2.688c0.519,0,0.955-0.055,1.309-0.163s0.66-0.269,0.92-0.48
		c0.259-0.213,0.462-0.477,0.607-0.792C44.855,44.167,44.928,43.807,44.928,43.4z"/>
</g>
<path d="M40.769,5.085c4.604,3.958,0.665,6.796-1.857,7.529c-3.188,0.927-4.747,2.308-4.5,3.423c0.283,1.259,2.867,0.666,4.5,0.292
	c1.218-0.279,6.027,0.388,1.758,4.595c-5.168,5.097-15.642,5.671-20.827,4.401c-4.791-1.173-12.907-5.671-11.929-14.081
	C8.891,2.836,18.958-0.051,25.417,0C30.312,0.041,36.363,1.298,40.769,5.085z M33.106,7.189c-1.704,0-3.084,0.837-3.084,1.869
	c0,1.031,1.38,1.868,3.084,1.868c1.703,0,3.085-0.836,3.085-1.868C36.191,8.026,34.809,7.189,33.106,7.189z"/>
</svg>
