<svg width="500" height="480" viewBox="0 0 500 480" xmlns="http://www.w3.org/2000/svg"><defs><clipPath id="frame"><rect x="0" y="0" width="500" height="480"></rect></clipPath></defs><g clip-path="url(#frame)"><rect x="0" y="0" width="500" height="480" fill="#222222"></rect><g fill="none" stroke="none"><rect x="0" y="0" width="491" height="457" fill="#ffffffff" stroke="none"></rect><g fill="none" stroke="none" transform="matrix(1,0,0,1,75,10)"><g fill="none" stroke="none"><g fill="none" stroke="none"><path d="M 0 0 L 400 0 L 400 400 L 0 400 Z" fill="none" stroke="none"></path><g fill="none" stroke="none"><g fill="none" stroke="none"><g fill="none" stroke="none" transform="matrix(1,0,0,1,0.5,405.5)"><path d="M 0 0 L 0 0 L 0 0 L 0 0 Z" fill="none" stroke="none"></path><g fill="none" stroke="none"><g fill="none" stroke="none"><line x1="0" y1="0" x2="0" y2="5" fill="none" stroke="#888888ff" stroke-width="1"></line><line x1="0" y1="0" x2="0" y2="5" fill="none" stroke="#888888ff" stroke-width="1" transform="matrix(1,0,0,1,33,0)"></line><line x1="0" y1="0" x2="0" y2="5" fill="none" stroke="#888888ff" stroke-width="1" transform="matrix(1,0,0,1,67,0)"></line><line x1="0" y1="0" x2="0" y2="5" fill="none" stroke="#888888ff" stroke-width="1" transform="matrix(1,0,0,1,100,0)"></line><line x1="0" y1="0" x2="0" y2="5" fill="none" stroke="#888888ff" stroke-width="1" transform="matrix(1,0,0,1,133,0)"></line><line x1="0" y1="0" x2="0" y2="5" fill="none" stroke="#888888ff" stroke-width="1" transform="matrix(1,0,0,1,167,0)"></line><line x1="0" y1="0" x2="0" y2="5" fill="none" stroke="#888888ff" stroke-width="1" transform="matrix(1,0,0,1,200,0)"></line><line x1="0" y1="0" x2="0" y2="5" fill="none" stroke="#888888ff" stroke-width="1" transform="matrix(1,0,0,1,233,0)"></line><line x1="0" y1="0" x2="0" y2="5" fill="none" stroke="#888888ff" stroke-width="1" transform="matrix(1,0,0,1,267,0)"></line><line x1="0" y1="0" x2="0" y2="5" fill="none" stroke="#888888ff" stroke-width="1" transform="matrix(1,0,0,1,300,0)"></line><line x1="0" y1="0" x2="0" y2="5" fill="none" stroke="#888888ff" stroke-width="1" transform="matrix(1,0,0,1,333,0)"></line><line x1="0" y1="0" x2="0" y2="5" fill="none" stroke="#888888ff" stroke-width="1" transform="matrix(1,0,0,1,367,0)"></line><line x1="0" y1="0" x2="0" y2="5" fill="none" stroke="#888888ff" stroke-width="1" transform="matrix(1,0,0,1,400,0)"></line></g><g fill="none" stroke="none"><text x="0" y="0" font-family="sans-serif" font-weight="normal" font-size="10px" text-anchor="middle" fill="#000000ff" stroke="none" transform="matrix(1,0,0,1,0,15)">0</text><text x="0" y="0" font-family="sans-serif" font-weight="normal" font-size="10px" text-anchor="middle" fill="#000000ff" stroke="none" transform="matrix(1,0,0,1,33.33333206176758,15)">5</text><text x="0" y="0" font-family="sans-serif" font-weight="normal" font-size="10px" text-anchor="middle" fill="#000000ff" stroke="none" transform="matrix(1,0,0,1,66.66666412353516,15)">10</text><text x="0" y="0" font-family="sans-serif" font-weight="normal" font-size="10px" text-anchor="middle" fill="#000000ff" stroke="none" transform="matrix(1,0,0,1,100,15)">15</text><text x="0" y="0" font-family="sans-serif" font-weight="normal" font-size="10px" text-anchor="middle" fill="#000000ff" stroke="none" transform="matrix(1,0,0,1,133.3333282470703,15)">20</text><text x="0" y="0" font-family="sans-serif" font-weight="normal" font-size="10px" text-anchor="middle" fill="#000000ff" stroke="none" transform="matrix(1,0,0,1,166.6666717529297,15)">25</text><text x="0" y="0" font-family="sans-serif" font-weight="normal" font-size="10px" text-anchor="middle" fill="#000000ff" stroke="none" transform="matrix(1,0,0,1,200,15)">30</text><text x="0" y="0" font-family="sans-serif" font-weight="normal" font-size="10px" text-anchor="middle" fill="#000000ff" stroke="none" transform="matrix(1,0,0,1,233.3333282470703,15)">35</text><text x="0" y="0" font-family="sans-serif" font-weight="normal" font-size="10px" text-anchor="middle" fill="#000000ff" stroke="none" transform="matrix(1,0,0,1,266.6666564941406,15)">40</text><text x="0" y="0" font-family="sans-serif" font-weight="normal" font-size="10px" text-anchor="middle" fill="#000000ff" stroke="none" transform="matrix(1,0,0,1,300,15)">45</text><text x="0" y="0" font-family="sans-serif" font-weight="normal" font-size="10px" text-anchor="middle" fill="#000000ff" stroke="none" transform="matrix(1,0,0,1,333.3333435058594,15)">50</text><text x="0" y="0" font-family="sans-serif" font-weight="normal" font-size="10px" text-anchor="middle" fill="#000000ff" stroke="none" transform="matrix(1,0,0,1,366.6666564941406,15)">55</text><text x="0" y="0" font-family="sans-serif" font-weight="normal" font-size="10px" text-anchor="middle" fill="#000000ff" stroke="none" transform="matrix(1,0,0,1,400,15)">60</text></g><g fill="none" stroke="none"><line x1="0" y1="0" x2="400" y2="0" fill="none" stroke="#888888ff" stroke-width="1"></line></g><g fill="none" stroke="none"><text x="0" y="0" font-family="sans-serif" font-weight="bold" font-size="11px" text-anchor="middle" fill="#000000ff" stroke="none" transform="matrix(1,0,0,1,200,30)">Value</text></g></g><path d="" fill="none" stroke="none"></path></g></g><g fill="none" stroke="none"><g fill="none" stroke="none" transform="matrix(1,0,0,1,-4.5,0.5)"><path d="M 0 0 L 0 0 L 0 0 L 0 0 Z" fill="none" stroke="none"></path><g fill="none" stroke="none"><g fill="none" stroke="none"><line x1="0" y1="0" x2="-5" y2="0" fill="none" stroke="#888888ff" stroke-width="1" transform="matrix(1,0,0,1,0,68)"></line><line x1="0" y1="0" x2="-5" y2="0" fill="none" stroke="#888888ff" stroke-width="1" transform="matrix(1,0,0,1,0,200)"></line><line x1="0" y1="0" x2="-5" y2="0" fill="none" stroke="#888888ff" stroke-width="1" transform="matrix(1,0,0,1,0,331)"></line></g><g fill="none" stroke="none"><text x="0" y="0" font-family="sans-serif" font-weight="normal" font-size="10px" text-anchor="end" fill="#000000ff" stroke="none" transform="matrix(1,0,0,1,-7,71.35246276855469)">Nitrogen</text><text x="0" y="0" font-family="sans-serif" font-weight="normal" font-size="10px" text-anchor="end" fill="#000000ff" stroke="none" transform="matrix(1,0,0,1,-7,202.5)">normal</text><text x="0" y="0" font-family="sans-serif" font-weight="normal" font-size="10px" text-anchor="end" fill="#000000ff" stroke="none" transform="matrix(1,0,0,1,-7,333.6475524902344)">stress</text></g><g fill="none" stroke="none"><line x1="0" y1="0" x2="0" y2="400" fill="none" stroke="#888888ff" stroke-width="1"></line></g><g fill="none" stroke="none"><text x="0" y="0" font-family="sans-serif" font-weight="bold" font-size="11px" text-anchor="middle" fill="#000000ff" stroke="none" transform="matrix(6.123234262925839e-17,-1,1,6.123234262925839e-17,-50.83333206176758,200)">Condition</text></g></g><path d="" fill="none" stroke="none"></path></g></g><g fill="none" stroke="none"><path d="M 0 6.557377049180332 L 80 6.557377049180332 L 80 131.14754098360655 L 0 131.14754098360655 Z" fill="#4c78a8ff" stroke="none"></path><path d="M 0 137.70491803278688 L 6.666666666666667 137.70491803278688 L 6.666666666666667 262.2950819672131 L 0 262.2950819672131 Z" fill="#4c78a8ff" stroke="none"></path><path d="M 0 268.8524590163934 L 86.66666666666667 268.8524590163934 L 86.66666666666667 393.44262295081967 L 0 393.44262295081967 Z" fill="#4c78a8ff" stroke="none"></path><path d="M 80 6.557377049180332 L 120 6.557377049180332 L 120 131.14754098360655 L 80 131.14754098360655 Z" fill="#f58518ff" stroke="none"></path><path d="M 6.666666666666667 137.70491803278688 L 46.666666666666664 137.70491803278688 L 46.666666666666664 262.2950819672131 L 6.666666666666664 262.2950819672131 Z" fill="#f58518ff" stroke="none"></path><path d="M 86.66666666666667 268.8524590163934 L 306.6666666666667 268.8524590163934 L 306.6666666666667 393.44262295081967 L 86.66666666666669 393.44262295081967 Z" fill="#f58518ff" stroke="none"></path><path d="M 120 6.557377049180332 L 193.33333333333334 6.557377049180332 L 193.33333333333334 131.14754098360655 L 120 131.14754098360655 Z" fill="#e45756ff" stroke="none"></path><path d="M 46.666666666666664 137.70491803278688 L 233.33333333333334 137.70491803278688 L 233.33333333333334 262.2950819672131 L 46.66666666666666 262.2950819672131 Z" fill="#e45756ff" stroke="none"></path><path d="M 306.6666666666667 268.8524590163934 L 386.6666666666667 268.8524590163934 L 386.6666666666667 393.44262295081967 L 306.6666666666667 393.44262295081967 Z" fill="#e45756ff" stroke="none"></path><path d="M 193.33333333333334 6.557377049180332 L 320 6.557377049180332 L 320 131.14754098360655 L 193.33333333333334 131.14754098360655 Z" fill="#72b7b2ff" stroke="none"></path><path d="M 233.33333333333334 137.70491803278688 L 273.3333333333333 137.70491803278688 L 273.3333333333333 262.2950819672131 L 233.33333333333334 262.2950819672131 Z" fill="#72b7b2ff" stroke="none"></path><path d="M 386.6666666666667 268.8524590163934 L 393.3333333333333 268.8524590163934 L 393.3333333333333 393.44262295081967 L 386.6666666666667 393.44262295081967 Z" fill="#72b7b2ff" stroke="none"></path></g></g><path d="" fill="none" stroke="none"></path></g></g></g></g></g></svg>