<?xml version="1.0"?>
<svg xmlns="http://www.w3.org/2000/svg" width="1000" height="1000" viewBox="-500 -500 1000 1000">
    <path d="M150,0L150,0" stroke-width="0.25" stroke="#000000"/>
    <path d="M150,0L141.55,49.76" stroke-width="0.25" stroke="#000000"/>
    <path d="M150,0L118.12,92.46" stroke-width="0.25" stroke="#000000"/>
    <path d="M150,0L82.60,125.23" stroke-width="0.25" stroke="#000000"/>
    <path d="M150,0L37.87,145.18" stroke-width="0.25" stroke="#000000"/>
    <path d="M150,0L-12.94,149.45" stroke-width="0.25" stroke="#000000"/>
    <path d="M150,0L-61.21,136.99" stroke-width="0.25" stroke="#000000"/>
    <path d="M150,0L-101.69,110.27" stroke-width="0.25" stroke="#000000"/>
    <path d="M150,0L-131.53,72.17" stroke-width="0.25" stroke="#000000"/>
    <path d="M150,0L-147.83,25.58" stroke-width="0.25" stroke="#000000"/>
    <path d="M150,0L-147.83,-25.58" stroke-width="0.25" stroke="#000000"/>
    <path d="M150,0L-131.53,-72.17" stroke-width="0.25" stroke="#000000"/>
    <path d="M150,0L-101.69,-110.27" stroke-width="0.25" stroke="#000000"/>
    <path d="M150,0L-61.21,-136.99" stroke-width="0.25" stroke="#000000"/>
    <path d="M150,0L-12.94,-149.45" stroke-width="0.25" stroke="#000000"/>
    <path d="M150,0L37.87,-145.18" stroke-width="0.25" stroke="#000000"/>
    <path d="M150,0L82.60,-125.23" stroke-width="0.25" stroke="#000000"/>
    <path d="M150,0L118.12,-92.46" stroke-width="0.25" stroke="#000000"/>
    <path d="M150,0L141.55,-49.76" stroke-width="0.25" stroke="#000000"/>
    <path d="M141.55,49.76L150,0" stroke-width="0.25" stroke="#000000"/>
    <path d="M141.55,49.76L141.55,49.76" stroke-width="0.25" stroke="#000000"/>
    <path d="M141.55,49.76L118.12,92.46" stroke-width="0.25" stroke="#000000"/>
    <path d="M141.55,49.76L82.60,125.23" stroke-width="0.25" stroke="#000000"/>
    <path d="M141.55,49.76L37.87,145.18" stroke-width="0.25" stroke="#000000"/>
    <path d="M141.55,49.76L-12.94,149.45" stroke-width="0.25" stroke="#000000"/>
    <path d="M141.55,49.76L-61.21,136.99" stroke-width="0.25" stroke="#000000"/>
    <path d="M141.55,49.76L-101.69,110.27" stroke-width="0.25" stroke="#000000"/>
    <path d="M141.55,49.76L-131.53,72.17" stroke-width="0.25" stroke="#000000"/>
    <path d="M141.55,49.76L-147.83,25.58" stroke-width="0.25" stroke="#000000"/>
    <path d="M141.55,49.76L-147.83,-25.58" stroke-width="0.25" stroke="#000000"/>
    <path d="M141.55,49.76L-131.53,-72.17" stroke-width="0.25" stroke="#000000"/>
    <path d="M141.55,49.76L-101.69,-110.27" stroke-width="0.25" stroke="#000000"/>
    <path d="M141.55,49.76L-61.21,-136.99" stroke-width="0.25" stroke="#000000"/>
    <path d="M141.55,49.76L-12.94,-149.45" stroke-width="0.25" stroke="#000000"/>
    <path d="M141.55,49.76L37.87,-145.18" stroke-width="0.25" stroke="#000000"/>
    <path d="M141.55,49.76L82.60,-125.23" stroke-width="0.25" stroke="#000000"/>
    <path d="M141.55,49.76L118.12,-92.46" stroke-width="0.25" stroke="#000000"/>
    <path d="M141.55,49.76L141.55,-49.76" stroke-width="0.25" stroke="#000000"/>
    <path d="M118.12,92.46L150,0" stroke-width="0.25" stroke="#000000"/>
    <path d="M118.12,92.46L141.55,49.76" stroke-width="0.25" stroke="#000000"/>
    <path d="M118.12,92.46L118.12,92.46" stroke-width="0.25" stroke="#000000"/>
    <path d="M118.12,92.46L82.60,125.23" stroke-width="0.25" stroke="#000000"/>
    <path d="M118.12,92.46L37.87,145.18" stroke-width="0.25" stroke="#000000"/>
    <path d="M118.12,92.46L-12.94,149.45" stroke-width="0.25" stroke="#000000"/>
    <path d="M118.12,92.46L-61.21,136.99" stroke-width="0.25" stroke="#000000"/>
    <path d="M118.12,92.46L-101.69,110.27" stroke-width="0.25" stroke="#000000"/>
    <path d="M118.12,92.46L-131.53,72.17" stroke-width="0.25" stroke="#000000"/>
    <path d="M118.12,92.46L-147.83,25.58" stroke-width="0.25" stroke="#000000"/>
    <path d="M118.12,92.46L-147.83,-25.58" stroke-width="0.25" stroke="#000000"/>
    <path d="M118.12,92.46L-131.53,-72.17" stroke-width="0.25" stroke="#000000"/>
    <path d="M118.12,92.46L-101.69,-110.27" stroke-width="0.25" stroke="#000000"/>
    <path d="M118.12,92.46L-61.21,-136.99" stroke-width="0.25" stroke="#000000"/>
    <path d="M118.12,92.46L-12.94,-149.45" stroke-width="0.25" stroke="#000000"/>
    <path d="M118.12,92.46L37.87,-145.18" stroke-width="0.25" stroke="#000000"/>
    <path d="M118.12,92.46L82.60,-125.23" stroke-width="0.25" stroke="#000000"/>
    <path d="M118.12,92.46L118.12,-92.46" stroke-width="0.25" stroke="#000000"/>
    <path d="M118.12,92.46L141.55,-49.76" stroke-width="0.25" stroke="#000000"/>
    <path d="M82.60,125.23L150,0" stroke-width="0.25" stroke="#000000"/>
    <path d="M82.60,125.23L141.55,49.76" stroke-width="0.25" stroke="#000000"/>
    <path d="M82.60,125.23L118.12,92.46" stroke-width="0.25" stroke="#000000"/>
    <path d="M82.60,125.23L82.60,125.23" stroke-width="0.25" stroke="#000000"/>
    <path d="M82.60,125.23L37.87,145.18" stroke-width="0.25" stroke="#000000"/>
    <path d="M82.60,125.23L-12.94,149.45" stroke-width="0.25" stroke="#000000"/>
    <path d="M82.60,125.23L-61.21,136.99" stroke-width="0.25" stroke="#000000"/>
    <path d="M82.60,125.23L-101.69,110.27" stroke-width="0.25" stroke="#000000"/>
    <path d="M82.60,125.23L-131.53,72.17" stroke-width="0.25" stroke="#000000"/>
    <path d="M82.60,125.23L-147.83,25.58" stroke-width="0.25" stroke="#000000"/>
    <path d="M82.60,125.23L-147.83,-25.58" stroke-width="0.25" stroke="#000000"/>
    <path d="M82.60,125.23L-131.53,-72.17" stroke-width="0.25" stroke="#000000"/>
    <path d="M82.60,125.23L-101.69,-110.27" stroke-width="0.25" stroke="#000000"/>
    <path d="M82.60,125.23L-61.21,-136.99" stroke-width="0.25" stroke="#000000"/>
    <path d="M82.60,125.23L-12.94,-149.45" stroke-width="0.25" stroke="#000000"/>
    <path d="M82.60,125.23L37.87,-145.18" stroke-width="0.25" stroke="#000000"/>
    <path d="M82.60,125.23L82.60,-125.23" stroke-width="0.25" stroke="#000000"/>
    <path d="M82.60,125.23L118.12,-92.46" stroke-width="0.25" stroke="#000000"/>
    <path d="M82.60,125.23L141.55,-49.76" stroke-width="0.25" stroke="#000000"/>
    <path d="M37.87,145.18L150,0" stroke-width="0.25" stroke="#000000"/>
    <path d="M37.87,145.18L141.55,49.76" stroke-width="0.25" stroke="#000000"/>
    <path d="M37.87,145.18L118.12,92.46" stroke-width="0.25" stroke="#000000"/>
    <path d="M37.87,145.18L82.60,125.23" stroke-width="0.25" stroke="#000000"/>
    <path d="M37.87,145.18L37.87,145.18" stroke-width="0.25" stroke="#000000"/>
    <path d="M37.87,145.18L-12.94,149.45" stroke-width="0.25" stroke="#000000"/>
    <path d="M37.87,145.18L-61.21,136.99" stroke-width="0.25" stroke="#000000"/>
    <path d="M37.87,145.18L-101.69,110.27" stroke-width="0.25" stroke="#000000"/>
    <path d="M37.87,145.18L-131.53,72.17" stroke-width="0.25" stroke="#000000"/>
    <path d="M37.87,145.18L-147.83,25.58" stroke-width="0.25" stroke="#000000"/>
    <path d="M37.87,145.18L-147.83,-25.58" stroke-width="0.25" stroke="#000000"/>
    <path d="M37.87,145.18L-131.53,-72.17" stroke-width="0.25" stroke="#000000"/>
    <path d="M37.87,145.18L-101.69,-110.27" stroke-width="0.25" stroke="#000000"/>
    <path d="M37.87,145.18L-61.21,-136.99" stroke-width="0.25" stroke="#000000"/>
    <path d="M37.87,145.18L-12.94,-149.45" stroke-width="0.25" stroke="#000000"/>
    <path d="M37.87,145.18L37.87,-145.18" stroke-width="0.25" stroke="#000000"/>
    <path d="M37.87,145.18L82.60,-125.23" stroke-width="0.25" stroke="#000000"/>
    <path d="M37.87,145.18L118.12,-92.46" stroke-width="0.25" stroke="#000000"/>
    <path d="M37.87,145.18L141.55,-49.76" stroke-width="0.25" stroke="#000000"/>
    <path d="M-12.94,149.45L150,0" stroke-width="0.25" stroke="#000000"/>
    <path d="M-12.94,149.45L141.55,49.76" stroke-width="0.25" stroke="#000000"/>
    <path d="M-12.94,149.45L118.12,92.46" stroke-width="0.25" stroke="#000000"/>
    <path d="M-12.94,149.45L82.60,125.23" stroke-width="0.25" stroke="#000000"/>
    <path d="M-12.94,149.45L37.87,145.18" stroke-width="0.25" stroke="#000000"/>
    <path d="M-12.94,149.45L-12.94,149.45" stroke-width="0.25" stroke="#000000"/>
    <path d="M-12.94,149.45L-61.21,136.99" stroke-width="0.25" stroke="#000000"/>
    <path d="M-12.94,149.45L-101.69,110.27" stroke-width="0.25" stroke="#000000"/>
    <path d="M-12.94,149.45L-131.53,72.17" stroke-width="0.25" stroke="#000000"/>
    <path d="M-12.94,149.45L-147.83,25.58" stroke-width="0.25" stroke="#000000"/>
    <path d="M-12.94,149.45L-147.83,-25.58" stroke-width="0.25" stroke="#000000"/>
    <path d="M-12.94,149.45L-131.53,-72.17" stroke-width="0.25" stroke="#000000"/>
    <path d="M-12.94,149.45L-101.69,-110.27" stroke-width="0.25" stroke="#000000"/>
    <path d="M-12.94,149.45L-61.21,-136.99" stroke-width="0.25" stroke="#000000"/>
    <path d="M-12.94,149.45L-12.94,-149.45" stroke-width="0.25" stroke="#000000"/>
    <path d="M-12.94,149.45L37.87,-145.18" stroke-width="0.25" stroke="#000000"/>
    <path d="M-12.94,149.45L82.60,-125.23" stroke-width="0.25" stroke="#000000"/>
    <path d="M-12.94,149.45L118.12,-92.46" stroke-width="0.25" stroke="#000000"/>
    <path d="M-12.94,149.45L141.55,-49.76" stroke-width="0.25" stroke="#000000"/>
    <path d="M-61.21,136.99L150,0" stroke-width="0.25" stroke="#000000"/>
    <path d="M-61.21,136.99L141.55,49.76" stroke-width="0.25" stroke="#000000"/>
    <path d="M-61.21,136.99L118.12,92.46" stroke-width="0.25" stroke="#000000"/>
    <path d="M-61.21,136.99L82.60,125.23" stroke-width="0.25" stroke="#000000"/>
    <path d="M-61.21,136.99L37.87,145.18" stroke-width="0.25" stroke="#000000"/>
    <path d="M-61.21,136.99L-12.94,149.45" stroke-width="0.25" stroke="#000000"/>
    <path d="M-61.21,136.99L-61.21,136.99" stroke-width="0.25" stroke="#000000"/>
    <path d="M-61.21,136.99L-101.69,110.27" stroke-width="0.25" stroke="#000000"/>
    <path d="M-61.21,136.99L-131.53,72.17" stroke-width="0.25" stroke="#000000"/>
    <path d="M-61.21,136.99L-147.83,25.58" stroke-width="0.25" stroke="#000000"/>
    <path d="M-61.21,136.99L-147.83,-25.58" stroke-width="0.25" stroke="#000000"/>
    <path d="M-61.21,136.99L-131.53,-72.17" stroke-width="0.25" stroke="#000000"/>
    <path d="M-61.21,136.99L-101.69,-110.27" stroke-width="0.25" stroke="#000000"/>
    <path d="M-61.21,136.99L-61.21,-136.99" stroke-width="0.25" stroke="#000000"/>
    <path d="M-61.21,136.99L-12.94,-149.45" stroke-width="0.25" stroke="#000000"/>
    <path d="M-61.21,136.99L37.87,-145.18" stroke-width="0.25" stroke="#000000"/>
    <path d="M-61.21,136.99L82.60,-125.23" stroke-width="0.25" stroke="#000000"/>
    <path d="M-61.21,136.99L118.12,-92.46" stroke-width="0.25" stroke="#000000"/>
    <path d="M-61.21,136.99L141.55,-49.76" stroke-width="0.25" stroke="#000000"/>
    <path d="M-101.69,110.27L150,0" stroke-width="0.25" stroke="#000000"/>
    <path d="M-101.69,110.27L141.55,49.76" stroke-width="0.25" stroke="#000000"/>
    <path d="M-101.69,110.27L118.12,92.46" stroke-width="0.25" stroke="#000000"/>
    <path d="M-101.69,110.27L82.60,125.23" stroke-width="0.25" stroke="#000000"/>
    <path d="M-101.69,110.27L37.87,145.18" stroke-width="0.25" stroke="#000000"/>
    <path d="M-101.69,110.27L-12.94,149.45" stroke-width="0.25" stroke="#000000"/>
    <path d="M-101.69,110.27L-61.21,136.99" stroke-width="0.25" stroke="#000000"/>
    <path d="M-101.69,110.27L-101.69,110.27" stroke-width="0.25" stroke="#000000"/>
    <path d="M-101.69,110.27L-131.53,72.17" stroke-width="0.25" stroke="#000000"/>
    <path d="M-101.69,110.27L-147.83,25.58" stroke-width="0.25" stroke="#000000"/>
    <path d="M-101.69,110.27L-147.83,-25.58" stroke-width="0.25" stroke="#000000"/>
    <path d="M-101.69,110.27L-131.53,-72.17" stroke-width="0.25" stroke="#000000"/>
    <path d="M-101.69,110.27L-101.69,-110.27" stroke-width="0.25" stroke="#000000"/>
    <path d="M-101.69,110.27L-61.21,-136.99" stroke-width="0.25" stroke="#000000"/>
    <path d="M-101.69,110.27L-12.94,-149.45" stroke-width="0.25" stroke="#000000"/>
    <path d="M-101.69,110.27L37.87,-145.18" stroke-width="0.25" stroke="#000000"/>
    <path d="M-101.69,110.27L82.60,-125.23" stroke-width="0.25" stroke="#000000"/>
    <path d="M-101.69,110.27L118.12,-92.46" stroke-width="0.25" stroke="#000000"/>
    <path d="M-101.69,110.27L141.55,-49.76" stroke-width="0.25" stroke="#000000"/>
    <path d="M-131.53,72.17L150,0" stroke-width="0.25" stroke="#000000"/>
    <path d="M-131.53,72.17L141.55,49.76" stroke-width="0.25" stroke="#000000"/>
    <path d="M-131.53,72.17L118.12,92.46" stroke-width="0.25" stroke="#000000"/>
    <path d="M-131.53,72.17L82.60,125.23" stroke-width="0.25" stroke="#000000"/>
    <path d="M-131.53,72.17L37.87,145.18" stroke-width="0.25" stroke="#000000"/>
    <path d="M-131.53,72.17L-12.94,149.45" stroke-width="0.25" stroke="#000000"/>
    <path d="M-131.53,72.17L-61.21,136.99" stroke-width="0.25" stroke="#000000"/>
    <path d="M-131.53,72.17L-101.69,110.27" stroke-width="0.25" stroke="#000000"/>
    <path d="M-131.53,72.17L-131.53,72.17" stroke-width="0.25" stroke="#000000"/>
    <path d="M-131.53,72.17L-147.83,25.58" stroke-width="0.25" stroke="#000000"/>
    <path d="M-131.53,72.17L-147.83,-25.58" stroke-width="0.25" stroke="#000000"/>
    <path d="M-131.53,72.17L-131.53,-72.17" stroke-width="0.25" stroke="#000000"/>
    <path d="M-131.53,72.17L-101.69,-110.27" stroke-width="0.25" stroke="#000000"/>
    <path d="M-131.53,72.17L-61.21,-136.99" stroke-width="0.25" stroke="#000000"/>
    <path d="M-131.53,72.17L-12.94,-149.45" stroke-width="0.25" stroke="#000000"/>
    <path d="M-131.53,72.17L37.87,-145.18" stroke-width="0.25" stroke="#000000"/>
    <path d="M-131.53,72.17L82.60,-125.23" stroke-width="0.25" stroke="#000000"/>
    <path d="M-131.53,72.17L118.12,-92.46" stroke-width="0.25" stroke="#000000"/>
    <path d="M-131.53,72.17L141.55,-49.76" stroke-width="0.25" stroke="#000000"/>
    <path d="M-147.83,25.58L150,0" stroke-width="0.25" stroke="#000000"/>
    <path d="M-147.83,25.58L141.55,49.76" stroke-width="0.25" stroke="#000000"/>
    <path d="M-147.83,25.58L118.12,92.46" stroke-width="0.25" stroke="#000000"/>
    <path d="M-147.83,25.58L82.60,125.23" stroke-width="0.25" stroke="#000000"/>
    <path d="M-147.83,25.58L37.87,145.18" stroke-width="0.25" stroke="#000000"/>
    <path d="M-147.83,25.58L-12.94,149.45" stroke-width="0.25" stroke="#000000"/>
    <path d="M-147.83,25.58L-61.21,136.99" stroke-width="0.25" stroke="#000000"/>
    <path d="M-147.83,25.58L-101.69,110.27" stroke-width="0.25" stroke="#000000"/>
    <path d="M-147.83,25.58L-131.53,72.17" stroke-width="0.25" stroke="#000000"/>
    <path d="M-147.83,25.58L-147.83,25.58" stroke-width="0.25" stroke="#000000"/>
    <path d="M-147.83,25.58L-147.83,-25.58" stroke-width="0.25" stroke="#000000"/>
    <path d="M-147.83,25.58L-131.53,-72.17" stroke-width="0.25" stroke="#000000"/>
    <path d="M-147.83,25.58L-101.69,-110.27" stroke-width="0.25" stroke="#000000"/>
    <path d="M-147.83,25.58L-61.21,-136.99" stroke-width="0.25" stroke="#000000"/>
    <path d="M-147.83,25.58L-12.94,-149.45" stroke-width="0.25" stroke="#000000"/>
    <path d="M-147.83,25.58L37.87,-145.18" stroke-width="0.25" stroke="#000000"/>
    <path d="M-147.83,25.58L82.60,-125.23" stroke-width="0.25" stroke="#000000"/>
    <path d="M-147.83,25.58L118.12,-92.46" stroke-width="0.25" stroke="#000000"/>
    <path d="M-147.83,25.58L141.55,-49.76" stroke-width="0.25" stroke="#000000"/>
    <path d="M-147.83,-25.58L150,0" stroke-width="0.25" stroke="#000000"/>
    <path d="M-147.83,-25.58L141.55,49.76" stroke-width="0.25" stroke="#000000"/>
    <path d="M-147.83,-25.58L118.12,92.46" stroke-width="0.25" stroke="#000000"/>
    <path d="M-147.83,-25.58L82.60,125.23" stroke-width="0.25" stroke="#000000"/>
    <path d="M-147.83,-25.58L37.87,145.18" stroke-width="0.25" stroke="#000000"/>
    <path d="M-147.83,-25.58L-12.94,149.45" stroke-width="0.25" stroke="#000000"/>
    <path d="M-147.83,-25.58L-61.21,136.99" stroke-width="0.25" stroke="#000000"/>
    <path d="M-147.83,-25.58L-101.69,110.27" stroke-width="0.25" stroke="#000000"/>
    <path d="M-147.83,-25.58L-131.53,72.17" stroke-width="0.25" stroke="#000000"/>
    <path d="M-147.83,-25.58L-147.83,25.58" stroke-width="0.25" stroke="#000000"/>
    <path d="M-147.83,-25.58L-147.83,-25.58" stroke-width="0.25" stroke="#000000"/>
    <path d="M-147.83,-25.58L-131.53,-72.17" stroke-width="0.25" stroke="#000000"/>
    <path d="M-147.83,-25.58L-101.69,-110.27" stroke-width="0.25" stroke="#000000"/>
    <path d="M-147.83,-25.58L-61.21,-136.99" stroke-width="0.25" stroke="#000000"/>
    <path d="M-147.83,-25.58L-12.94,-149.45" stroke-width="0.25" stroke="#000000"/>
    <path d="M-147.83,-25.58L37.87,-145.18" stroke-width="0.25" stroke="#000000"/>
    <path d="M-147.83,-25.58L82.60,-125.23" stroke-width="0.25" stroke="#000000"/>
    <path d="M-147.83,-25.58L118.12,-92.46" stroke-width="0.25" stroke="#000000"/>
    <path d="M-147.83,-25.58L141.55,-49.76" stroke-width="0.25" stroke="#000000"/>
    <path d="M-131.53,-72.17L150,0" stroke-width="0.25" stroke="#000000"/>
    <path d="M-131.53,-72.17L141.55,49.76" stroke-width="0.25" stroke="#000000"/>
    <path d="M-131.53,-72.17L118.12,92.46" stroke-width="0.25" stroke="#000000"/>
    <path d="M-131.53,-72.17L82.60,125.23" stroke-width="0.25" stroke="#000000"/>
    <path d="M-131.53,-72.17L37.87,145.18" stroke-width="0.25" stroke="#000000"/>
    <path d="M-131.53,-72.17L-12.94,149.45" stroke-width="0.25" stroke="#000000"/>
    <path d="M-131.53,-72.17L-61.21,136.99" stroke-width="0.25" stroke="#000000"/>
    <path d="M-131.53,-72.17L-101.69,110.27" stroke-width="0.25" stroke="#000000"/>
    <path d="M-131.53,-72.17L-131.53,72.17" stroke-width="0.25" stroke="#000000"/>
    <path d="M-131.53,-72.17L-147.83,25.58" stroke-width="0.25" stroke="#000000"/>
    <path d="M-131.53,-72.17L-147.83,-25.58" stroke-width="0.25" stroke="#000000"/>
    <path d="M-131.53,-72.17L-131.53,-72.17" stroke-width="0.25" stroke="#000000"/>
    <path d="M-131.53,-72.17L-101.69,-110.27" stroke-width="0.25" stroke="#000000"/>
    <path d="M-131.53,-72.17L-61.21,-136.99" stroke-width="0.25" stroke="#000000"/>
    <path d="M-131.53,-72.17L-12.94,-149.45" stroke-width="0.25" stroke="#000000"/>
    <path d="M-131.53,-72.17L37.87,-145.18" stroke-width="0.25" stroke="#000000"/>
    <path d="M-131.53,-72.17L82.60,-125.23" stroke-width="0.25" stroke="#000000"/>
    <path d="M-131.53,-72.17L118.12,-92.46" stroke-width="0.25" stroke="#000000"/>
    <path d="M-131.53,-72.17L141.55,-49.76" stroke-width="0.25" stroke="#000000"/>
    <path d="M-101.69,-110.27L150,0" stroke-width="0.25" stroke="#000000"/>
    <path d="M-101.69,-110.27L141.55,49.76" stroke-width="0.25" stroke="#000000"/>
    <path d="M-101.69,-110.27L118.12,92.46" stroke-width="0.25" stroke="#000000"/>
    <path d="M-101.69,-110.27L82.60,125.23" stroke-width="0.25" stroke="#000000"/>
    <path d="M-101.69,-110.27L37.87,145.18" stroke-width="0.25" stroke="#000000"/>
    <path d="M-101.69,-110.27L-12.94,149.45" stroke-width="0.25" stroke="#000000"/>
    <path d="M-101.69,-110.27L-61.21,136.99" stroke-width="0.25" stroke="#000000"/>
    <path d="M-101.69,-110.27L-101.69,110.27" stroke-width="0.25" stroke="#000000"/>
    <path d="M-101.69,-110.27L-131.53,72.17" stroke-width="0.25" stroke="#000000"/>
    <path d="M-101.69,-110.27L-147.83,25.58" stroke-width="0.25" stroke="#000000"/>
    <path d="M-101.69,-110.27L-147.83,-25.58" stroke-width="0.25" stroke="#000000"/>
    <path d="M-101.69,-110.27L-131.53,-72.17" stroke-width="0.25" stroke="#000000"/>
    <path d="M-101.69,-110.27L-101.69,-110.27" stroke-width="0.25" stroke="#000000"/>
    <path d="M-101.69,-110.27L-61.21,-136.99" stroke-width="0.25" stroke="#000000"/>
    <path d="M-101.69,-110.27L-12.94,-149.45" stroke-width="0.25" stroke="#000000"/>
    <path d="M-101.69,-110.27L37.87,-145.18" stroke-width="0.25" stroke="#000000"/>
    <path d="M-101.69,-110.27L82.60,-125.23" stroke-width="0.25" stroke="#000000"/>
    <path d="M-101.69,-110.27L118.12,-92.46" stroke-width="0.25" stroke="#000000"/>
    <path d="M-101.69,-110.27L141.55,-49.76" stroke-width="0.25" stroke="#000000"/>
    <path d="M-61.21,-136.99L150,0" stroke-width="0.25" stroke="#000000"/>
    <path d="M-61.21,-136.99L141.55,49.76" stroke-width="0.25" stroke="#000000"/>
    <path d="M-61.21,-136.99L118.12,92.46" stroke-width="0.25" stroke="#000000"/>
    <path d="M-61.21,-136.99L82.60,125.23" stroke-width="0.25" stroke="#000000"/>
    <path d="M-61.21,-136.99L37.87,145.18" stroke-width="0.25" stroke="#000000"/>
    <path d="M-61.21,-136.99L-12.94,149.45" stroke-width="0.25" stroke="#000000"/>
    <path d="M-61.21,-136.99L-61.21,136.99" stroke-width="0.25" stroke="#000000"/>
    <path d="M-61.21,-136.99L-101.69,110.27" stroke-width="0.25" stroke="#000000"/>
    <path d="M-61.21,-136.99L-131.53,72.17" stroke-width="0.25" stroke="#000000"/>
    <path d="M-61.21,-136.99L-147.83,25.58" stroke-width="0.25" stroke="#000000"/>
    <path d="M-61.21,-136.99L-147.83,-25.58" stroke-width="0.25" stroke="#000000"/>
    <path d="M-61.21,-136.99L-131.53,-72.17" stroke-width="0.25" stroke="#000000"/>
    <path d="M-61.21,-136.99L-101.69,-110.27" stroke-width="0.25" stroke="#000000"/>
    <path d="M-61.21,-136.99L-61.21,-136.99" stroke-width="0.25" stroke="#000000"/>
    <path d="M-61.21,-136.99L-12.94,-149.45" stroke-width="0.25" stroke="#000000"/>
    <path d="M-61.21,-136.99L37.87,-145.18" stroke-width="0.25" stroke="#000000"/>
    <path d="M-61.21,-136.99L82.60,-125.23" stroke-width="0.25" stroke="#000000"/>
    <path d="M-61.21,-136.99L118.12,-92.46" stroke-width="0.25" stroke="#000000"/>
    <path d="M-61.21,-136.99L141.55,-49.76" stroke-width="0.25" stroke="#000000"/>
    <path d="M-12.94,-149.45L150,0" stroke-width="0.25" stroke="#000000"/>
    <path d="M-12.94,-149.45L141.55,49.76" stroke-width="0.25" stroke="#000000"/>
    <path d="M-12.94,-149.45L118.12,92.46" stroke-width="0.25" stroke="#000000"/>
    <path d="M-12.94,-149.45L82.60,125.23" stroke-width="0.25" stroke="#000000"/>
    <path d="M-12.94,-149.45L37.87,145.18" stroke-width="0.25" stroke="#000000"/>
    <path d="M-12.94,-149.45L-12.94,149.45" stroke-width="0.25" stroke="#000000"/>
    <path d="M-12.94,-149.45L-61.21,136.99" stroke-width="0.25" stroke="#000000"/>
    <path d="M-12.94,-149.45L-101.69,110.27" stroke-width="0.25" stroke="#000000"/>
    <path d="M-12.94,-149.45L-131.53,72.17" stroke-width="0.25" stroke="#000000"/>
    <path d="M-12.94,-149.45L-147.83,25.58" stroke-width="0.25" stroke="#000000"/>
    <path d="M-12.94,-149.45L-147.83,-25.58" stroke-width="0.25" stroke="#000000"/>
    <path d="M-12.94,-149.45L-131.53,-72.17" stroke-width="0.25" stroke="#000000"/>
    <path d="M-12.94,-149.45L-101.69,-110.27" stroke-width="0.25" stroke="#000000"/>
    <path d="M-12.94,-149.45L-61.21,-136.99" stroke-width="0.25" stroke="#000000"/>
    <path d="M-12.94,-149.45L-12.94,-149.45" stroke-width="0.25" stroke="#000000"/>
    <path d="M-12.94,-149.45L37.87,-145.18" stroke-width="0.25" stroke="#000000"/>
    <path d="M-12.94,-149.45L82.60,-125.23" stroke-width="0.25" stroke="#000000"/>
    <path d="M-12.94,-149.45L118.12,-92.46" stroke-width="0.25" stroke="#000000"/>
    <path d="M-12.94,-149.45L141.55,-49.76" stroke-width="0.25" stroke="#000000"/>
    <path d="M37.87,-145.18L150,0" stroke-width="0.25" stroke="#000000"/>
    <path d="M37.87,-145.18L141.55,49.76" stroke-width="0.25" stroke="#000000"/>
    <path d="M37.87,-145.18L118.12,92.46" stroke-width="0.25" stroke="#000000"/>
    <path d="M37.87,-145.18L82.60,125.23" stroke-width="0.25" stroke="#000000"/>
    <path d="M37.87,-145.18L37.87,145.18" stroke-width="0.25" stroke="#000000"/>
    <path d="M37.87,-145.18L-12.94,149.45" stroke-width="0.25" stroke="#000000"/>
    <path d="M37.87,-145.18L-61.21,136.99" stroke-width="0.25" stroke="#000000"/>
    <path d="M37.87,-145.18L-101.69,110.27" stroke-width="0.25" stroke="#000000"/>
    <path d="M37.87,-145.18L-131.53,72.17" stroke-width="0.25" stroke="#000000"/>
    <path d="M37.87,-145.18L-147.83,25.58" stroke-width="0.25" stroke="#000000"/>
    <path d="M37.87,-145.18L-147.83,-25.58" stroke-width="0.25" stroke="#000000"/>
    <path d="M37.87,-145.18L-131.53,-72.17" stroke-width="0.25" stroke="#000000"/>
    <path d="M37.87,-145.18L-101.69,-110.27" stroke-width="0.25" stroke="#000000"/>
    <path d="M37.87,-145.18L-61.21,-136.99" stroke-width="0.25" stroke="#000000"/>
    <path d="M37.87,-145.18L-12.94,-149.45" stroke-width="0.25" stroke="#000000"/>
    <path d="M37.87,-145.18L37.87,-145.18" stroke-width="0.25" stroke="#000000"/>
    <path d="M37.87,-145.18L82.60,-125.23" stroke-width="0.25" stroke="#000000"/>
    <path d="M37.87,-145.18L118.12,-92.46" stroke-width="0.25" stroke="#000000"/>
    <path d="M37.87,-145.18L141.55,-49.76" stroke-width="0.25" stroke="#000000"/>
    <path d="M82.60,-125.23L150,0" stroke-width="0.25" stroke="#000000"/>
    <path d="M82.60,-125.23L141.55,49.76" stroke-width="0.25" stroke="#000000"/>
    <path d="M82.60,-125.23L118.12,92.46" stroke-width="0.25" stroke="#000000"/>
    <path d="M82.60,-125.23L82.60,125.23" stroke-width="0.25" stroke="#000000"/>
    <path d="M82.60,-125.23L37.87,145.18" stroke-width="0.25" stroke="#000000"/>
    <path d="M82.60,-125.23L-12.94,149.45" stroke-width="0.25" stroke="#000000"/>
    <path d="M82.60,-125.23L-61.21,136.99" stroke-width="0.25" stroke="#000000"/>
    <path d="M82.60,-125.23L-101.69,110.27" stroke-width="0.25" stroke="#000000"/>
    <path d="M82.60,-125.23L-131.53,72.17" stroke-width="0.25" stroke="#000000"/>
    <path d="M82.60,-125.23L-147.83,25.58" stroke-width="0.25" stroke="#000000"/>
    <path d="M82.60,-125.23L-147.83,-25.58" stroke-width="0.25" stroke="#000000"/>
    <path d="M82.60,-125.23L-131.53,-72.17" stroke-width="0.25" stroke="#000000"/>
    <path d="M82.60,-125.23L-101.69,-110.27" stroke-width="0.25" stroke="#000000"/>
    <path d="M82.60,-125.23L-61.21,-136.99" stroke-width="0.25" stroke="#000000"/>
    <path d="M82.60,-125.23L-12.94,-149.45" stroke-width="0.25" stroke="#000000"/>
    <path d="M82.60,-125.23L37.87,-145.18" stroke-width="0.25" stroke="#000000"/>
    <path d="M82.60,-125.23L82.60,-125.23" stroke-width="0.25" stroke="#000000"/>
    <path d="M82.60,-125.23L118.12,-92.46" stroke-width="0.25" stroke="#000000"/>
    <path d="M82.60,-125.23L141.55,-49.76" stroke-width="0.25" stroke="#000000"/>
    <path d="M118.12,-92.46L150,0" stroke-width="0.25" stroke="#000000"/>
    <path d="M118.12,-92.46L141.55,49.76" stroke-width="0.25" stroke="#000000"/>
    <path d="M118.12,-92.46L118.12,92.46" stroke-width="0.25" stroke="#000000"/>
    <path d="M118.12,-92.46L82.60,125.23" stroke-width="0.25" stroke="#000000"/>
    <path d="M118.12,-92.46L37.87,145.18" stroke-width="0.25" stroke="#000000"/>
    <path d="M118.12,-92.46L-12.94,149.45" stroke-width="0.25" stroke="#000000"/>
    <path d="M118.12,-92.46L-61.21,136.99" stroke-width="0.25" stroke="#000000"/>
    <path d="M118.12,-92.46L-101.69,110.27" stroke-width="0.25" stroke="#000000"/>
    <path d="M118.12,-92.46L-131.53,72.17" stroke-width="0.25" stroke="#000000"/>
    <path d="M118.12,-92.46L-147.83,25.58" stroke-width="0.25" stroke="#000000"/>
    <path d="M118.12,-92.46L-147.83,-25.58" stroke-width="0.25" stroke="#000000"/>
    <path d="M118.12,-92.46L-131.53,-72.17" stroke-width="0.25" stroke="#000000"/>
    <path d="M118.12,-92.46L-101.69,-110.27" stroke-width="0.25" stroke="#000000"/>
    <path d="M118.12,-92.46L-61.21,-136.99" stroke-width="0.25" stroke="#000000"/>
    <path d="M118.12,-92.46L-12.94,-149.45" stroke-width="0.25" stroke="#000000"/>
    <path d="M118.12,-92.46L37.87,-145.18" stroke-width="0.25" stroke="#000000"/>
    <path d="M118.12,-92.46L82.60,-125.23" stroke-width="0.25" stroke="#000000"/>
    <path d="M118.12,-92.46L118.12,-92.46" stroke-width="0.25" stroke="#000000"/>
    <path d="M118.12,-92.46L141.55,-49.76" stroke-width="0.25" stroke="#000000"/>
    <path d="M141.55,-49.76L150,0" stroke-width="0.25" stroke="#000000"/>
    <path d="M141.55,-49.76L141.55,49.76" stroke-width="0.25" stroke="#000000"/>
    <path d="M141.55,-49.76L118.12,92.46" stroke-width="0.25" stroke="#000000"/>
    <path d="M141.55,-49.76L82.60,125.23" stroke-width="0.25" stroke="#000000"/>
    <path d="M141.55,-49.76L37.87,145.18" stroke-width="0.25" stroke="#000000"/>
    <path d="M141.55,-49.76L-12.94,149.45" stroke-width="0.25" stroke="#000000"/>
    <path d="M141.55,-49.76L-61.21,136.99" stroke-width="0.25" stroke="#000000"/>
    <path d="M141.55,-49.76L-101.69,110.27" stroke-width="0.25" stroke="#000000"/>
    <path d="M141.55,-49.76L-131.53,72.17" stroke-width="0.25" stroke="#000000"/>
    <path d="M141.55,-49.76L-147.83,25.58" stroke-width="0.25" stroke="#000000"/>
    <path d="M141.55,-49.76L-147.83,-25.58" stroke-width="0.25" stroke="#000000"/>
    <path d="M141.55,-49.76L-131.53,-72.17" stroke-width="0.25" stroke="#000000"/>
    <path d="M141.55,-49.76L-101.69,-110.27" stroke-width="0.25" stroke="#000000"/>
    <path d="M141.55,-49.76L-61.21,-136.99" stroke-width="0.25" stroke="#000000"/>
    <path d="M141.55,-49.76L-12.94,-149.45" stroke-width="0.25" stroke="#000000"/>
    <path d="M141.55,-49.76L37.87,-145.18" stroke-width="0.25" stroke="#000000"/>
    <path d="M141.55,-49.76L82.60,-125.23" stroke-width="0.25" stroke="#000000"/>
    <path d="M141.55,-49.76L118.12,-92.46" stroke-width="0.25" stroke="#000000"/>
    <path d="M141.55,-49.76L141.55,-49.76" stroke-width="0.25" stroke="#000000"/>
</svg>