<?xml version="1.0" encoding="utf-8"?>
<!-- Generator: Adobe Illustrator 15.0.2, SVG Export Plug-In . SVG Version: 6.00 Build 0)  -->
<!DOCTYPE svg PUBLIC "-//W3C//DTD SVG 1.1//EN" "http://www.w3.org/Graphics/SVG/1.1/DTD/svg11.dtd">
<svg version="1.1" id="Laag_1" xmlns="http://www.w3.org/2000/svg" xmlns:xlink="http://www.w3.org/1999/xlink" x="0px" y="0px"
	 width="128px" height="128px" viewBox="0 0 128 128" enable-background="new 0 0 128 128" xml:space="preserve">
<g>
	<path d="M78.792,0.013v127.976H128V0.013H78.792z M119.086,8.924v17.229h-31.38V8.924H119.086z M87.706,50.114V30.611h31.379
		v19.503H87.706z M119.086,54.571v19.52h-31.38v-19.52H119.086L119.086,54.571z M119.086,119.076h-31.38v-16.583h31.379
		L119.086,119.076L119.086,119.076z M87.706,98.038V78.537h31.379v19.501H87.706z"/>
	<path d="M123.469,0.013"/>
	<path d="M0.112,0v70.581h42.368V0H0.112z M34.805,7.672v14.834H7.786V7.672H34.805z M7.786,43.137V26.344h27.018v16.793H7.786z
		 M34.805,46.975v16.806H7.786V46.975H34.805L34.805,46.975z"/>
	<path d="M38.579,0"/>
	<path d="M0,78.143v49.918h42.368V78.143H0z M34.693,85.815v14.834H7.674V85.815H34.693z M7.674,121.28v-16.793h27.018v16.793H7.674
		z"/>
	<path d="M38.467,78.143"/>
	<g>
		<polygon points="51.342,76.5 74.172,64.844 51.342,53.021 		"/>
	</g>
</g>
</svg>
