<?xml version="1.0" encoding="utf-8"?>
<!-- Generator: Adobe Illustrator 15.0.0, SVG Export Plug-In . SVG Version: 6.00 Build 0)  -->
<svg version="1.2" baseProfile="tiny" id="Laag_1" xmlns="http://www.w3.org/2000/svg" xmlns:xlink="http://www.w3.org/1999/xlink"
	 x="0px" y="0px" width="128px" height="128px" viewBox="0 0 128 128" overflow="inherit" xml:space="preserve">
<g>
	<path d="M12.398,82.42c1.603,0.621,3.3,0.932,5.093,0.932c1.827,0,3.542-0.311,5.146-0.932c1.604-0.619,3.017-1.654,4.24-3.102
		s2.188-3.388,2.896-5.818c0.706-2.43,1.06-5.455,1.06-9.074c0-3.517-0.354-6.472-1.06-8.868c-0.707-2.396-1.673-4.318-2.896-5.766
		c-1.225-1.448-2.638-2.482-4.24-3.103c-1.604-0.621-3.317-0.931-5.146-0.931c-1.793,0-3.49,0.31-5.093,0.931
		c-1.604,0.621-3.009,1.655-4.215,3.103c-1.207,1.448-2.163,3.37-2.869,5.766c-0.707,2.396-1.062,5.352-1.062,8.868
		c0,3.619,0.354,6.645,1.062,9.074c0.706,2.432,1.662,4.371,2.869,5.818C9.39,80.765,10.794,81.801,12.398,82.42z M11.622,62.177
		c0.017-0.879,0.077-1.784,0.181-2.715c0.104-0.931,0.275-1.853,0.518-2.766c0.241-0.913,0.577-1.732,1.009-2.457
		c0.431-0.724,0.982-1.31,1.654-1.758c0.673-0.448,1.508-0.672,2.508-0.672s1.844,0.225,2.534,0.672
		c0.688,0.448,1.258,1.034,1.706,1.758c0.447,0.724,0.783,1.543,1.009,2.457c0.224,0.914,0.396,1.835,0.517,2.766
		c0.12,0.931,0.189,1.836,0.207,2.715s0.025,1.628,0.025,2.25c0,1.034-0.034,2.285-0.104,3.75s-0.284,2.877-0.646,4.238
		c-0.362,1.362-0.949,2.526-1.759,3.491c-0.811,0.965-1.975,1.447-3.49,1.447c-1.482,0-2.62-0.482-3.412-1.447
		c-0.794-0.965-1.371-2.129-1.732-3.491c-0.361-1.361-0.577-2.773-0.646-4.238c-0.069-1.465-0.104-2.715-0.104-3.75
		C11.596,63.805,11.604,63.056,11.622,62.177z"/>
	<path d="M68.051,74.303v8.377h6.98v-8.377h4.809v-6.051h-4.809V46.483h-6.567L52.744,67.58v6.723H68.051z M67.896,55.687h0.154
		v12.564h-9.514L67.896,55.687z"/>
	<path d="M115.938,63.158V41.5H128v-5H0v5h39.5v45H0v5h128v-5h-5.57c0.168-0.305,0.339-0.606,0.482-0.93
		c0.586-1.312,0.879-2.879,0.879-4.707c0-1.758-0.336-3.342-1.008-4.756c-0.673-1.414-1.576-2.604-2.715-3.568
		c-1.139-0.965-2.456-1.707-3.956-2.225c-1.499-0.517-3.076-0.774-4.731-0.774c-2.172,0-4.094,0.37-5.766,1.112
		c-1.672,0.74-3.061,1.774-4.162,3.102c-1.104,1.328-1.931,2.879-2.481,4.654c-0.552,1.774-0.794,3.697-0.725,5.766h7.032
		c0-0.965,0.096-1.939,0.285-2.922c0.188-0.982,0.508-1.879,0.956-2.689c0.446-0.809,1.042-1.465,1.784-1.965
		c0.74-0.499,1.646-0.749,2.715-0.749c1.585,0,2.887,0.491,3.902,1.474c1.017,0.983,1.525,2.354,1.525,4.111
		c0,1.104-0.25,2.086-0.749,2.947c-0.453,0.779-1.019,1.479-1.67,2.119H92.333v-45h16.261v21.658H115.938z M89.833,86.5H42v-45
		h47.833V86.5z"/>
</g>
</svg>
