<?xml version="1.0" encoding="utf-8"?>
<!-- Generator: Adobe Illustrator 15.0.0, SVG Export Plug-In . SVG Version: 6.00 Build 0)  -->
<svg version="1.2" baseProfile="tiny" id="Laag_1" xmlns="http://www.w3.org/2000/svg" xmlns:xlink="http://www.w3.org/1999/xlink"
	 x="0px" y="0px" width="128px" height="128px" viewBox="0 0 128 128" overflow="inherit" xml:space="preserve">
<path d="M119.257,39.289l-6.482,3.335c9.532,18.519,10.578,37.463,2.34,42.227c-7.852,4.534-25.245-5.36-37.629-26.804
	c-12.388-21.442-12.254-41.449-4.394-45.984c4.067-2.346,10.134-0.985,16.656,3.283l-6.379,4.171l23.987,10.157l-2.824-23.985
	l-8.174,5.339c-9.904-7.415-19.655-9.484-26.917-5.281c-8.643,4.992-11.107,17.737-7.619,32.822
	c-8.422-8.436-17.589-13.477-25.496-13.477c-2.955,0-5.656,0.692-8.033,2.064l-17.539,9.54c-0.609,0.245-1.199,0.531-1.77,0.854
	C-3.69,44.87-2.878,69.23,10.842,93.005c10.848,18.78,26.545,31.397,39.06,31.397l0,0c2.435,0,4.691-0.498,6.741-1.437l0.217,0.047
	l20.379-11.078c0.034-0.021,0.062-0.034,0.09-0.056c8.419-4.938,10.798-17.45,7.381-32.285c8.624,8.652,17.964,13.649,25.922,13.649
	c2.928,0,5.67-0.68,8.119-2.087C130.905,84.146,131.114,62.325,119.257,39.289z M31.589,40.346l12.425-6.759
	c1.645,0.751,3.328,1.706,5.025,2.854l-12.885,7.007C34.641,42.291,33.121,41.264,31.589,40.346z M26.041,44.706
	c8.511,4.348,17.564,13.755,24.372,25.532c6.989,12.094,10.595,24.848,9.907,34.451c-8.51-4.354-17.563-13.758-24.361-25.532
	C28.97,67.055,25.359,54.307,26.041,44.706z M77.727,102.086l-11.139,6.052l0.212-0.913l-0.202-0.068
	c0.262-2.084,0.395-4.264,0.295-6.586l12.771-6.944C79.496,96.978,78.848,99.866,77.727,102.086z M66.536,96.616
	c-0.342-2.829-0.935-5.766-1.729-8.775l13.436-7.309c0.771,3.175,1.258,6.188,1.428,8.943L66.536,96.616z M63.801,84.231
	c-1.163-3.628-2.651-7.321-4.407-10.991l13.519-7.347c1.828,3.805,3.268,7.496,4.335,11.017L63.801,84.231z M57.714,70.007
	c-0.537-1.019-1.041-2.045-1.619-3.047c-1.517-2.626-3.155-5.086-4.841-7.456l13.488-7.334c1.75,2.398,3.428,4.936,4.972,7.607
	c0.552,0.957,1.053,1.909,1.559,2.86L57.714,70.007z M60.106,46.389l-13.374,7.275c-2.435-2.866-4.958-5.445-7.542-7.707
	l13.076-7.114C54.912,40.977,57.558,43.509,60.106,46.389z M31.574,32.995l1.327-0.768c1.041-0.378,2.187-0.573,3.425-0.573
	c0.949,0,1.947,0.142,2.966,0.351l-11.549,6.28c-0.178-0.078-0.356-0.147-0.531-0.22l0.064-0.267l-2.807-0.951
	c-0.017-0.003-0.031-0.008-0.047-0.014L31.574,32.995z M16.531,89.73C3.922,67.873,4.103,48.164,12.157,43.323l0.033,0.064
	l0.598-0.32c1.906-0.929,4.249-1.141,6.881-0.646c-1.322,11.176,2.582,26.136,10.597,40.025
	c7.918,13.708,18.443,24.249,28.663,28.87c-0.189,0.484-0.415,0.915-0.634,1.348c-0.078,0.149-0.147,0.309-0.228,0.447
	c-0.242,0.426-0.512,0.815-0.793,1.184c-0.106,0.139-0.211,0.267-0.317,0.395c-0.312,0.37-0.631,0.725-0.985,1.026
	c-0.003,0.003-0.005,0.003-0.011,0.009c-0.403,0.355-0.843,0.668-1.31,0.936c-1.363,0.787-2.963,1.186-4.75,1.186
	C39.816,117.845,26.091,106.281,16.531,89.73z"/>
</svg>
