<?xml version="1.0" encoding="utf-8"?>
<!-- Generator: Adobe Illustrator 15.0.2, SVG Export Plug-In . SVG Version: 6.00 Build 0)  -->
<!DOCTYPE svg PUBLIC "-//W3C//DTD SVG 1.1//EN" "http://www.w3.org/Graphics/SVG/1.1/DTD/svg11.dtd">
<svg version="1.1" id="Laag_1" xmlns="http://www.w3.org/2000/svg" xmlns:xlink="http://www.w3.org/1999/xlink" x="0px" y="0px"
	 width="128px" height="128px" viewBox="0 0 128 128" enable-background="new 0 0 128 128" xml:space="preserve">
<g>
	<path d="M0,0.013v127.976h49.208V0.013H0z M40.294,8.924v17.229H8.914V8.924H40.294z M8.914,50.114V30.611h31.379v19.503H8.914z
		 M40.294,54.571v19.52H8.914v-19.52H40.294L40.294,54.571z M40.294,119.076H8.914v-16.583h31.379L40.294,119.076L40.294,119.076z
		 M8.914,98.038V78.537h31.379v19.501H8.914z"/>
	<path d="M44.677,0.013"/>
	<g>
		<polygon points="56,74.203 73.68,65.176 56,56.021 		"/>
	</g>
</g>
<circle cx="23.471" cy="40.795" r="3.234"/>
<rect x="15.015" y="15.181" width="18.888" height="5.448"/>
<rect x="15.015" y="85.189" width="18.888" height="5.449"/>
<rect x="93.881" y="38.621" width="18.887" height="5.449"/>
<path d="M78.793,24.035v82.473H128V24.035H78.793z M119.086,32.946v17.229H87.707V32.946H119.086z M87.707,74.137V54.633h31.379
	v19.504H87.707z M119.086,78.593v19.521H87.707V78.593H119.086L119.086,78.593z"/>
<path d="M123.469,24.035"/>
<circle cx="102.264" cy="64.816" r="3.234"/>
</svg>
