<?xml version="1.0" encoding="utf-8"?>
<!-- Generator: Adobe Illustrator 15.0.0, SVG Export Plug-In . SVG Version: 6.00 Build 0)  -->
<svg version="1.2" baseProfile="tiny" id="Laag_1" xmlns="http://www.w3.org/2000/svg" xmlns:xlink="http://www.w3.org/1999/xlink"
	 x="0px" y="0px" width="128px" height="128px" viewBox="0 0 128 128" overflow="inherit" xml:space="preserve">
<g>
	<path d="M40.3,0.013v127.976h49.208V0.013H40.3z M80.594,8.924v17.229h-31.38V8.924H80.594z M49.214,50.114V30.611h31.379v19.503
		H49.214z M80.594,54.571v19.52h-31.38v-19.52H80.594L80.594,54.571z M80.594,119.076h-31.38v-16.583h31.379L80.594,119.076
		L80.594,119.076z M49.214,98.038V78.537h31.379v19.501H49.214z"/>
	<path d="M84.977,0.013"/>
	<g>
		<polygon points="0,32.406 30.679,16.741 0,0.854 		"/>
	</g>
</g>
<g>
	<path d="M110.793,28.842v-18.16h-7.04v-4.28c0.986,0.027,1.94-0.046,2.86-0.22c0.92-0.173,1.746-0.48,2.479-0.92
		s1.354-1.02,1.86-1.74c0.506-0.72,0.84-1.613,1-2.68h4.52v28H110.793z"/>
</g>
</svg>
