<?xml version="1.0" encoding="utf-8"?>
<!-- Generator: Adobe Illustrator 18.1.1, SVG Export Plug-In . SVG Version: 6.00 Build 0)  -->
<svg version="1.2" baseProfile="tiny" xmlns="http://www.w3.org/2000/svg" xmlns:xlink="http://www.w3.org/1999/xlink" x="0px"
	 y="0px" viewBox="0 0 128 128" xml:space="preserve">
<g id="Laag_1">
	<path d="M61.3,0.013v127.976h49.208V0.013H61.3z M101.594,8.924v17.229h-31.38V8.924H101.594z M70.214,50.114V30.611h31.379v19.503
		H70.214z M101.594,54.571v19.52h-31.38v-19.52H101.594L101.594,54.571z M101.594,119.076h-31.38v-16.583h31.379v16.583H101.594z
		 M70.214,98.038V78.537h31.379v19.501H70.214z"/>
	<path d="M105.977,0.013"/>
	<path d="M47.932,13.297h-17.44c-1.462-2.625-4.241-4.4-7.434-4.4c-4.711,0-8.531,3.86-8.531,8.621s3.819,8.621,8.531,8.621
		c3.044,0,5.708-1.616,7.218-4.041h2.929l3.289-3.278l2.032,2.02l2.166-2.02l2.234,2.088l2.088-2.088l2.065,2.065l4.22-4.22
		L47.932,13.297z M19.287,19.762c-1.24,0-2.245-1.005-2.245-2.245s1.005-2.245,2.245-2.245c1.24,0,2.245,1.005,2.245,2.245
		S20.527,19.762,19.287,19.762z"/>
	<path d="M47.932,106.547h-17.44c-1.462-2.625-4.241-4.4-7.434-4.4c-4.711,0-8.531,3.86-8.531,8.621
		c0,4.761,3.819,8.621,8.531,8.621c3.044,0,5.708-1.616,7.218-4.041h2.929l3.289-3.278l2.032,2.02l2.166-2.02l2.234,2.088
		l2.088-2.088l2.065,2.065l4.22-4.22L47.932,106.547z M19.287,113.012c-1.24,0-2.245-1.005-2.245-2.245
		c0-1.24,1.005-2.245,2.245-2.245c1.24,0,2.245,1.005,2.245,2.245C21.532,112.007,20.527,113.012,19.287,113.012z"/>
	<path d="M47.932,83.234h-17.44c-1.462-2.625-4.241-4.4-7.434-4.4c-4.711,0-8.531,3.86-8.531,8.621c0,4.761,3.819,8.621,8.531,8.621
		c3.044,0,5.708-1.616,7.218-4.041h2.929l3.289-3.278l2.032,2.02l2.166-2.02l2.234,2.088l2.088-2.088l2.065,2.065l4.22-4.22
		L47.932,83.234z M19.287,89.699c-1.24,0-2.245-1.005-2.245-2.245c0-1.24,1.005-2.245,2.245-2.245c1.24,0,2.245,1.005,2.245,2.245
		C21.532,88.694,20.527,89.699,19.287,89.699z"/>
	<path d="M47.932,59.922h-17.44c-1.462-2.625-4.241-4.4-7.434-4.4c-4.711,0-8.531,3.86-8.531,8.621s3.819,8.621,8.531,8.621
		c3.044,0,5.708-1.616,7.218-4.041h2.929l3.289-3.278l2.032,2.02l2.166-2.02l2.234,2.088l2.088-2.088l2.065,2.065l4.22-4.22
		L47.932,59.922z M19.287,66.387c-1.24,0-2.245-1.005-2.245-2.245c0-1.24,1.005-2.245,2.245-2.245c1.24,0,2.245,1.005,2.245,2.245
		C21.532,65.382,20.527,66.387,19.287,66.387z"/>
	<path d="M47.932,36.609h-17.44c-1.462-2.625-4.241-4.4-7.434-4.4c-4.711,0-8.531,3.86-8.531,8.621s3.819,8.621,8.531,8.621
		c3.044,0,5.708-1.616,7.218-4.041h2.929l3.289-3.278l2.032,2.02l2.166-2.02l2.234,2.088l2.088-2.088l2.065,2.065l4.22-4.22
		L47.932,36.609z M19.287,43.074c-1.24,0-2.245-1.005-2.245-2.245s1.005-2.245,2.245-2.245c1.24,0,2.245,1.005,2.245,2.245
		S20.527,43.074,19.287,43.074z"/>
</g>
<g id="Layer_2">
</g>
</svg>
