<?xml version="1.0" encoding="utf-8"?>
<!-- Generator: Adobe Illustrator 15.0.0, SVG Export Plug-In . SVG Version: 6.00 Build 0)  -->
<svg version="1.2" baseProfile="tiny" id="Laag_1" xmlns="http://www.w3.org/2000/svg" xmlns:xlink="http://www.w3.org/1999/xlink"
	 x="0px" y="0px" width="128px" height="128px" viewBox="0 0 128 128" overflow="inherit" xml:space="preserve">
<g>
	<path d="M40.3,0.013v127.976h49.208V0.013H40.3z M80.594,8.924v17.229h-31.38V8.924H80.594z M49.214,50.114V30.611h31.379v19.503
		H49.214z M80.594,54.571v19.52h-31.38v-19.52H80.594L80.594,54.571z M80.594,119.076h-31.38v-16.583h31.379L80.594,119.076
		L80.594,119.076z M49.214,98.038V78.537h31.379v19.501H49.214z"/>
	<path d="M84.977,0.013"/>
	<g>
		<polygon points="0,126.572 30.679,110.908 0,95.021 		"/>
	</g>
</g>
<g>
	<path d="M107.613,101.994v2.881h0.12c0.721-1.201,1.653-2.074,2.801-2.621c1.146-0.546,2.319-0.82,3.52-0.82
		c1.52,0,2.767,0.207,3.74,0.621c0.973,0.414,1.74,0.986,2.3,1.72s0.953,1.627,1.18,2.68c0.227,1.054,0.34,2.22,0.34,3.5v12.72
		h-5.68v-11.68c0-1.706-0.267-2.98-0.8-3.82c-0.534-0.84-1.48-1.26-2.84-1.26c-1.547,0-2.667,0.461-3.36,1.381
		s-1.04,2.434-1.04,4.539v10.84h-5.68v-20.68H107.613z"/>
</g>
</svg>
