<?xml version="1.0" encoding="utf-8"?>
<!-- Generator: Adobe Illustrator 15.0.0, SVG Export Plug-In . SVG Version: 6.00 Build 0)  -->
<svg version="1.2" baseProfile="tiny" id="Laag_1" xmlns="http://www.w3.org/2000/svg" xmlns:xlink="http://www.w3.org/1999/xlink"
	 x="0px" y="0px" width="128px" height="128px" viewBox="0 0 128 128" overflow="inherit" xml:space="preserve">
<g>
	<path d="M104.129,109.626c7.037,0.022,11.295,0.022,12.82-1.481c1.691-1.688,1.691-6.702,1.691-15.8V36.632
		c0-9.028-0.088-14.216-1.768-15.887c-1.463-1.458-5.412-1.442-11.945-1.398l0.201,0.014l-0.033,10.876L79.937,17.175l25.237-12.902
		l-0.037,10.621l-0.232-0.009c7.947-0.039,12.334-0.065,15.105,2.695c2.957,2.938,3.078,7.965,3.078,19.052v55.713
		c0,10.959,0,15.955-3.008,18.951c-2.562,2.567-6.438,2.786-13.713,2.786c-0.723,0-1.473,0-2.266,0l-27.071-0.01v-4.457
		L104.129,109.626z"/>
	<polygon points="15.664,8.891 23.425,8.918 14.11,26.854 4.913,8.861 12.482,8.883 	"/>
	<polygon points="15.664,30.062 23.425,30.089 14.11,48.026 4.913,30.032 12.482,30.054 	"/>
	<polygon points="15.664,54.576 23.425,54.603 14.11,72.54 4.913,54.547 12.482,54.567 	"/>
	<polygon points="15.664,79.649 23.425,79.678 14.11,97.61 4.913,79.616 12.482,79.641 	"/>
	<polygon points="15.664,103.052 23.425,103.078 14.11,121.012 4.913,103.017 12.482,103.043 	"/>
	<path d="M27.982-0.011v128.021h49.221V-0.011H27.982z M68.289,8.904v17.237H36.896V8.904H68.289z M36.896,74.09V54.567h31.393
		V74.09H36.896z M68.289,78.547v19.508H36.896V78.547H68.289z M36.896,50.106V30.598h31.393v19.509H36.896z M36.896,119.097v-16.594
		h31.393v16.594H36.896z"/>
</g>
</svg>
