<?xml version="1.0" encoding="utf-8"?>
<!-- Generator: Adobe Illustrator 15.0.0, SVG Export Plug-In . SVG Version: 6.00 Build 0)  -->
<svg version="1.2" baseProfile="tiny" id="Laag_1" xmlns="http://www.w3.org/2000/svg" xmlns:xlink="http://www.w3.org/1999/xlink"
	 x="0px" y="0px" width="128px" height="128px" viewBox="0 0 128 128" overflow="inherit" xml:space="preserve">
<g>
	<polygon points="98.094,26.897 98.094,36.809 112.748,36.809 112.748,89.703 112.748,91.519 112.748,118.09 98.094,118.09 
		98.094,128 125.672,128 125.672,91.519 125.672,89.703 125.672,26.897 	"/>
	<polygon points="15.253,90.206 15.253,36.809 29.907,36.809 29.907,26.897 2.329,26.897 2.329,90.206 2.329,92.421 2.329,128 
		29.907,128 29.907,118.09 15.253,118.09 15.253,92.421 	"/>
	<path d="M40.126,0v127.73h49.112V0H40.126z M80.343,8.896v17.193H49.021V8.896H80.343z M49.021,73.929V54.454h31.322v19.475H49.021
		z M80.343,78.376v19.466H49.021V78.376H80.343z M49.021,50.007V30.541h31.322v19.466H49.021z M49.021,118.836v-16.547h31.322
		v16.547H49.021L49.021,118.836z"/>
</g>
</svg>
