<?xml version="1.0" encoding="utf-8"?>
<!-- Generator: Adobe Illustrator 15.0.0, SVG Export Plug-In . SVG Version: 6.00 Build 0)  -->
<svg version="1.2" baseProfile="tiny" id="Laag_1" xmlns="http://www.w3.org/2000/svg" xmlns:xlink="http://www.w3.org/1999/xlink"
	 x="0px" y="0px" width="128px" height="128px" viewBox="0 0 128 128" overflow="inherit" xml:space="preserve">
<g>
	<path d="M40.3,0.013v127.976h49.208V0.013H40.3z M80.594,8.924v17.229h-31.38V8.924H80.594z M49.214,50.114V30.611h31.379v19.503
		H49.214z M80.594,54.571v19.52h-31.38v-19.52H80.594L80.594,54.571z M80.594,119.076h-31.38v-16.583h31.379L80.594,119.076
		L80.594,119.076z M49.214,98.038V78.537h31.379v19.501H49.214z"/>
	<path d="M84.977,0.013"/>
	<g>
		<polygon points="0,54.573 30.679,38.908 0,23.021 		"/>
	</g>
</g>
<g>
	<path d="M102.833,31.475c0.426-1.373,1.066-2.573,1.92-3.6c0.854-1.026,1.927-1.827,3.22-2.4c1.293-0.573,2.78-0.86,4.46-0.86
		c1.28,0,2.5,0.2,3.66,0.6s2.181,0.974,3.061,1.72c0.88,0.747,1.58,1.667,2.1,2.76c0.521,1.094,0.78,2.32,0.78,3.68
		c0,1.414-0.228,2.626-0.681,3.64c-0.453,1.014-1.054,1.914-1.8,2.7c-0.747,0.787-1.594,1.5-2.54,2.14
		c-0.946,0.64-1.899,1.273-2.859,1.9c-0.96,0.627-1.895,1.3-2.801,2.02c-0.906,0.72-1.706,1.56-2.399,2.52h13.24v4.88h-20.561
		c0-1.626,0.233-3.04,0.7-4.24c0.466-1.2,1.1-2.273,1.9-3.22c0.8-0.946,1.739-1.82,2.819-2.62c1.08-0.8,2.221-1.613,3.42-2.44
		c0.613-0.426,1.267-0.86,1.96-1.3s1.326-0.926,1.9-1.46c0.573-0.533,1.053-1.133,1.44-1.8c0.386-0.666,0.579-1.426,0.579-2.28
		c0-1.36-0.394-2.42-1.18-3.18c-0.787-0.76-1.794-1.14-3.02-1.14c-0.827,0-1.527,0.194-2.101,0.58
		c-0.573,0.387-1.033,0.894-1.38,1.52c-0.347,0.627-0.594,1.32-0.74,2.08s-0.22,1.514-0.22,2.26h-5.439
		C102.219,34.335,102.406,32.849,102.833,31.475z"/>
</g>
</svg>
