<?xml version="1.0" encoding="utf-8"?>
<!-- Generator: Adobe Illustrator 15.0.2, SVG Export Plug-In . SVG Version: 6.00 Build 0)  -->
<!DOCTYPE svg PUBLIC "-//W3C//DTD SVG 1.1//EN" "http://www.w3.org/Graphics/SVG/1.1/DTD/svg11.dtd">
<svg version="1.1" id="Laag_1" xmlns="http://www.w3.org/2000/svg" xmlns:xlink="http://www.w3.org/1999/xlink" x="0px" y="0px"
	 width="49.947px" height="49.947px" viewBox="0 0 49.947 49.947" enable-background="new 0 0 49.947 49.947" xml:space="preserve">
<g>
	<path d="M43.949,13.171c2.23-0.009,3.578-0.01,4.057,0.469c0.539,0.534,0.539,2.121,0.539,5v21.065c0,2.855-0.027,4.5-0.561,5.027
		c-0.463,0.463-1.711,0.455-3.779,0.441l-2.758-0.004l-0.012-3.441l-7.965,4.135l7.988,4.084l-0.012-3.363l2.748,0.004
		c2.514,0.012,3.904,0.021,4.781-0.852c0.936-0.932,0.971-2.521,0.971-6.029V18.642c0-3.471,0-5.052-0.949-6
		c-0.812-0.811-2.037-0.882-4.344-0.882c-0.225,0-0.465,0-0.715,0.002l-2.095,0.003v1.41L43.949,13.171z"/>
	<path d="M35.3,24.962c3.29,0,3.33,0,3.369,0c1.614-0.006,2.528-0.111,3.145-0.73c0.758-0.764,0.736-1.996,0.697-4.45
		c-0.011-0.672-0.026-8.883-0.026-9.779V8.12c0-0.865,0.016-1.61,0.026-2.254c0.039-2.306,0.059-3.357-0.636-4.05
		c-0.635-0.628-1.56-0.649-3.325-0.612c-0.121,0.002-0.244,0.005-3.245,0.008l0.033,1.411c2.995-0.003,3.114-0.005,3.229-0.008
		c1.218-0.026,2.086-0.026,2.315,0.199c0.27,0.27,0.25,1.423,0.222,3.027c-0.012,0.649-0.026,1.402-0.026,2.276V10
		c0,0.902,0.015,9.122,0.025,9.804c0.03,1.861,0.051,3.09-0.288,3.432c-0.255,0.259-1.011,0.307-2.146,0.312c-0.039,0-0.08,0-3.37,0
		L35.3,24.962z"/>
	<path d="M19.756,0v40.521h15.581V0H19.756z M32.514,2.821v5.456h-9.936V2.821H32.514z M22.578,23.453v-6.178h9.936v6.178H22.578z
		 M32.514,24.863v6.175h-9.936v-6.175H32.514z M22.578,15.863V9.688h9.936v6.175H22.578z M22.578,37.698v-5.25h9.936v5.251
		L22.578,37.698L22.578,37.698z"/>
</g>
<g>
	<path d="M14.867,17.115c0,0.075-0.021,0.14-0.066,0.196c-0.045,0.056-0.12,0.103-0.225,0.14c-0.104,0.038-0.248,0.065-0.432,0.084
		c-0.182,0.019-0.408,0.028-0.677,0.028c-0.276,0-0.506-0.01-0.688-0.028c-0.184-0.019-0.327-0.046-0.432-0.084
		c-0.104-0.037-0.18-0.084-0.224-0.14c-0.045-0.056-0.067-0.122-0.067-0.196v-5.7c0-0.485-0.035-0.866-0.106-1.142
		s-0.173-0.513-0.308-0.711c-0.135-0.198-0.309-0.351-0.521-0.459s-0.461-0.163-0.744-0.163c-0.358,0-0.721,0.131-1.086,0.392
		c-0.366,0.262-0.747,0.642-1.143,1.143v6.641c0,0.075-0.022,0.14-0.067,0.196c-0.045,0.056-0.122,0.103-0.229,0.14
		c-0.108,0.038-0.252,0.065-0.432,0.084c-0.179,0.019-0.406,0.028-0.683,0.028s-0.504-0.01-0.683-0.028
		c-0.18-0.019-0.324-0.046-0.432-0.084c-0.108-0.037-0.186-0.084-0.23-0.14c-0.044-0.056-0.066-0.122-0.066-0.196V7.125
		c0-0.075,0.019-0.14,0.057-0.196C5.42,6.874,5.486,6.827,5.584,6.79C5.68,6.752,5.805,6.724,5.959,6.706
		c0.152-0.019,0.346-0.028,0.576-0.028c0.239,0,0.438,0.01,0.594,0.028C7.286,6.724,7.407,6.752,7.493,6.79
		c0.085,0.037,0.147,0.084,0.185,0.14c0.037,0.056,0.057,0.122,0.057,0.196v1.153C8.286,7.682,8.847,7.234,9.42,6.935
		c0.57-0.298,1.166-0.448,1.785-0.448c0.68,0,1.253,0.112,1.719,0.336c0.467,0.224,0.844,0.528,1.132,0.913
		c0.287,0.385,0.495,0.834,0.622,1.35s0.189,1.135,0.189,1.859V17.115z"/>
</g>
</svg>
