<?xml version="1.0" encoding="utf-8"?>
<!-- Generator: Adobe Illustrator 15.0.0, SVG Export Plug-In . SVG Version: 6.00 Build 0)  -->
<svg version="1.2" baseProfile="tiny" id="Laag_1" xmlns="http://www.w3.org/2000/svg" xmlns:xlink="http://www.w3.org/1999/xlink"
	 x="0px" y="0px" width="49.947px" height="49.947px" viewBox="0 0 49.947 49.947" overflow="inherit" xml:space="preserve">
<g>
	<path d="M43.873,9.98c-0.802-0.76-2.082-0.771-4.669-0.76h-6.561v1.411h6.581c2.047,0.055,3.286,0,3.674,0.372
		c0.384,0.361,0.384,1.591,0.384,3.454v0.436c0.002,1.011,0.004,1.88-0.164,2.05c-0.175,0.177-1.082,0.181-2.149,0.179l0.014-3.246
		l-7.906,4.038l7.876,4.089l0.013-3.472c0.101,0,0.206,0,0.3,0c1.503,0,2.311-0.051,2.853-0.593
		c0.582-0.583,0.581-1.459,0.577-3.051v-0.433C44.692,11.993,44.692,10.757,43.873,9.98z"/>
	<path d="M44.117,25.789c-0.578-0.577-1.458-0.606-3.154-0.592l-0.012-3.472l-7.877,4.087l7.907,4.04l-0.014-3.246
		c1.075,0.001,1.976,0.004,2.15,0.178c0.168,0.168,0.166,1.038,0.164,2.051v0.436c0,1.863,0,3.093-0.384,3.454
		c-0.388,0.372-1.624,0.372-3.694,0.372h-6.561v1.411h6.585c2.558,0,3.844,0,4.645-0.761c0.819-0.778,0.819-2.015,0.819-4.477
		v-0.433C44.698,27.248,44.699,26.372,44.117,25.789z"/>
	<path d="M5.948,39.413c-2.229,0.009-3.578,0.01-4.057-0.468c-0.538-0.535-0.538-2.122-0.538-5V16.31c0-2.857,0.028-4.5,0.56-5.028
		c0.463-0.462,1.711-0.456,3.78-0.441l2.758,0.004l0.011,3.441l7.965-4.134L8.439,6.067L8.45,9.43L5.703,9.426
		c-2.515-0.012-3.905-0.021-4.782,0.853c-0.936,0.93-0.971,2.521-0.971,6.029v17.634c0,3.471,0,5.052,0.949,6
		c0.814,0.811,2.038,0.882,4.344,0.882c0.225,0,0.466,0,0.715-0.002l11.391-0.002v-1.411L5.948,39.413z"/>
	<path d="M9.168,18.74c0.621,0.014,1.346,0.029,2.193,0.029h5.937v-1.411h-5.937c-0.833,0-1.55-0.015-2.16-0.029
		c-2.01-0.045-3.02-0.067-3.697,0.604c-0.695,0.693-0.675,1.744-0.636,4.05c0.011,0.644,0.026,1.389,0.026,2.254v1.882
		c0,0.896-0.015,1.672-0.026,2.344c-0.039,2.454-0.061,3.686,0.697,4.45c0.631,0.635,1.575,0.729,3.264,0.73l-0.014,3.194
		l7.988-4.085l-7.96-4.135L8.83,32.23c-1.202-0.002-2.003-0.046-2.267-0.313c-0.339-0.342-0.318-1.57-0.288-3.432
		c0.011-0.682,0.026-1.466,0.026-2.369v-1.882c0-0.874-0.015-1.627-0.027-2.276c-0.028-1.604-0.048-2.757,0.222-3.027
		C6.747,18.684,7.765,18.708,9.168,18.74z"/>
	<path d="M49.306,25.64c-0.628-0.632-1.58-0.637-3.155-0.617l-0.662,0.001v1.411l0.671-0.003c1.07,0,1.936-0.011,2.149,0.205
		c0.297,0.298,0.287,1.6,0.273,3.57l-0.007,3.554c0,2.89,0,4.629-0.507,5.132c-0.393,0.388-1.546,0.378-3.295,0.352
		c-0.499-0.007-1.052-0.017-1.665-0.017H41.24l-0.01-2.963l-7.966,4.134l7.988,4.085l-0.012-3.845h1.865
		c0.606,0,1.149,0.01,1.646,0.017c0.4,0.005,0.769,0.011,1.109,0.011c1.566,0,2.525-0.107,3.197-0.769
		c0.926-0.915,0.926-2.553,0.926-6.137l0.007-3.545C50.013,27.486,50.021,26.356,49.306,25.64z"/>
	<path d="M17.11,4.713v40.521h15.58V4.713H17.11z M29.868,7.534v5.456h-9.936V7.534H29.868z M19.932,28.166v-6.178h9.936v6.178
		H19.932z M29.868,29.576v6.175h-9.936v-6.175H29.868z M19.932,20.576v-6.175h9.936v6.175H19.932z M19.932,42.411v-5.25h9.936v5.251
		L19.932,42.411L19.932,42.411z"/>
</g>
</svg>
