<?xml version="1.0" encoding="utf-8"?>
<!-- Generator: Adobe Illustrator 15.0.0, SVG Export Plug-In . SVG Version: 6.00 Build 0)  -->
<svg version="1.2" baseProfile="tiny" id="Laag_1" xmlns="http://www.w3.org/2000/svg" xmlns:xlink="http://www.w3.org/1999/xlink"
	 x="0px" y="0px" width="49.947px" height="49.947px" viewBox="0 0 49.947 49.947" overflow="inherit" xml:space="preserve">
<g>
	<path d="M16.799-0.126v50.199h16.285V-0.126H16.799z M29.801,3.156v5.292h-9.719V3.156H29.801z M20.082,31.642v-6.092h9.719v6.092
		H20.082z M29.801,33.284v6.087h-9.719v-6.087H29.801z M20.082,23.909V17.82h9.719v6.089H20.082z M20.082,16.179v-6.091h9.719v6.091
		H20.082z M20.082,46.791v-5.778h9.719v5.778H20.082z"/>
	<g>
		<path d="M12.872,33.978H3.954V7.972h8.918v3.204H8.133v19.596h4.739V33.978z"/>
	</g>
	<g>
		<path d="M37.073,30.774h4.742V11.177h-4.742V7.972h8.919v26.006h-8.919V30.774z"/>
	</g>
</g>
</svg>
