<?xml version="1.0" encoding="utf-8"?>
<!-- Generator: Adobe Illustrator 15.0.2, SVG Export Plug-In . SVG Version: 6.00 Build 0)  -->
<!DOCTYPE svg PUBLIC "-//W3C//DTD SVG 1.1//EN" "http://www.w3.org/Graphics/SVG/1.1/DTD/svg11.dtd">
<svg version="1.1" id="Laag_1" xmlns="http://www.w3.org/2000/svg" xmlns:xlink="http://www.w3.org/1999/xlink" x="0px" y="0px"
	 width="49.947px" height="49.947px" viewBox="0 0 49.947 49.947" enable-background="new 0 0 49.947 49.947" xml:space="preserve">
<path d="M34.367,4.424v4.702h-5.749c-0.833,0-1.55-0.015-2.16-0.029c-2.01-0.045-6.293-0.067-6.971,0.604
	c-0.694,0.693-0.675,1.744-0.636,4.05c0.011,0.644,0.026,1.389,0.026,2.254v1.882c0,0.896-0.016,1.672-0.026,2.344
	c-0.038,2.367-0.052,3.593,0.626,4.362c-0.684,0.693-0.666,1.744-0.626,4.039c0.011,0.644,0.026,1.389,0.026,2.254v1.882
	c0,0.896-0.016,1.672-0.026,2.344c-0.039,2.454-0.061,3.687,0.697,4.45c0.631,0.635,4.849,0.729,6.537,0.73l-0.014,3.193L34.06,39.4
	l-7.961-4.135l-0.013,3.612c-1.202-0.002-5.276-0.045-5.54-0.312c-0.339-0.342-0.318-1.57-0.288-3.432
	c0.011-0.683,0.025-1.467,0.025-2.369v-1.883c0-0.873-0.015-1.627-0.026-2.275c-0.028-1.604-0.048-2.757,0.222-3.027
	c0.156-0.154,1.884-0.202,3.502-0.209c0.822,0.031,1.584,0.041,2.104,0.042l-0.014,3.193l7.988-4.085l-7.961-4.135l-0.013,3.585
	c-0.639-0.011-1.432-0.017-2.248-0.003c-1.5-0.037-3.128-0.116-3.292-0.282c-0.339-0.342-0.318-1.57-0.288-3.432
	c0.011-0.683,0.025-1.467,0.025-2.369v-1.882c0-0.874-0.015-1.627-0.026-2.276c-0.028-1.604-0.048-2.757,0.222-3.027
	c0.251-0.247,4.543-0.223,5.945-0.191c0.621,0.014,1.347,0.029,2.193,0.029h5.749v35.212h15.58V4.424H34.367z M47.125,43.028
	l-9.936-0.001v-0.905v-5.25h9.936V43.028z M47.125,35.462h-9.936v-6.175h9.936V35.462z M47.125,27.877h-9.936v-6.178h9.936V27.877z
	 M47.125,20.287h-9.936v-6.175h9.936V20.287z M47.125,12.701h-9.936V7.245h9.936V12.701z"/>
<g>
	<path d="M14.756,21.763c0,0.075-0.022,0.14-0.067,0.196c-0.045,0.056-0.12,0.103-0.224,0.14c-0.104,0.038-0.248,0.065-0.431,0.084
		c-0.183,0.019-0.409,0.028-0.677,0.028c-0.276,0-0.506-0.01-0.689-0.028s-0.327-0.046-0.431-0.084
		c-0.104-0.037-0.179-0.084-0.224-0.14c-0.045-0.056-0.067-0.122-0.067-0.196v-5.7c0-0.485-0.036-0.866-0.106-1.142
		s-0.173-0.513-0.308-0.711c-0.134-0.198-0.308-0.351-0.521-0.459s-0.461-0.163-0.745-0.163c-0.358,0-0.721,0.131-1.086,0.392
		c-0.366,0.262-0.747,0.642-1.142,1.143v6.641c0,0.075-0.022,0.14-0.067,0.196c-0.045,0.056-0.122,0.103-0.229,0.14
		c-0.108,0.038-0.252,0.065-0.431,0.084s-0.407,0.028-0.683,0.028c-0.276,0-0.504-0.01-0.683-0.028s-0.323-0.046-0.431-0.084
		c-0.108-0.037-0.185-0.084-0.23-0.14c-0.044-0.056-0.067-0.122-0.067-0.196v-9.989c0-0.075,0.019-0.14,0.056-0.196
		c0.037-0.056,0.104-0.103,0.201-0.14c0.097-0.038,0.222-0.065,0.375-0.084C6,11.335,6.193,11.326,6.424,11.326
		c0.239,0,0.437,0.01,0.593,0.028c0.157,0.019,0.278,0.046,0.364,0.084c0.085,0.037,0.147,0.084,0.185,0.14
		c0.038,0.056,0.056,0.122,0.056,0.196v1.153c0.552-0.597,1.114-1.045,1.686-1.344c0.571-0.298,1.167-0.448,1.786-0.448
		c0.679,0,1.252,0.112,1.719,0.336c0.467,0.224,0.844,0.528,1.131,0.913c0.287,0.385,0.495,0.834,0.622,1.35s0.19,1.135,0.19,1.859
		V21.763z"/>
</g>
</svg>
